<svg xmlns="http://www.w3.org/2000/svg" width="136" height="136" viewBox="0 0 136 136">
  <g id="Grupo_848345" data-name="Grupo 848345" transform="translate(-942 -4405)">
    <g id="Elipse_7415" data-name="Elipse 7415" transform="translate(942 4405)" fill="#f6f6f6" stroke="#fff" stroke-width="6">
      <circle cx="68" cy="68" r="68" stroke="none"/>
      <circle cx="68" cy="68" r="65" fill="none"/>
    </g>
    <g id="Grupo_847569" data-name="Grupo 847569" transform="translate(-703.646 6554.373)">
      <path id="Trazado_588656" data-name="Trazado 588656" d="M1687.457-2075.932c-.03.036-.092.078-.086.107.733,3.6-1.135,5.994-3.732,8.028a1.8,1.8,0,0,0-.581,2.391,5.112,5.112,0,0,1-2.394,6,5.332,5.332,0,0,1-6.448-.846,5.33,5.33,0,0,1-.854-6.446,5.046,5.046,0,0,1,6-2.39,1.874,1.874,0,0,0,2.514-.706,1.771,1.771,0,0,1,.472-.467c2.811-1.627,2.3-4.346,2.317-6.91,0-.634-.444-.846-.806-1.162-7.874-6.875-7.876-17.849.026-24.708a1.756,1.756,0,0,0,.773-1.685,2.775,2.775,0,0,1,0-1c.8-3.329-1.821-4.786-3.623-6.7-.445-.471-.8-.081-1.2.043a5.311,5.311,0,0,1-6.394-2.18,5.311,5.311,0,0,1,.787-6.582,5.338,5.338,0,0,1,6.452-.826,5.233,5.233,0,0,1,2.234,6.5,1.159,1.159,0,0,0,.385,1.547,6.811,6.811,0,0,1,.591.586c3.286,3.285,3.286,3.285,3.48,7.9a1.79,1.79,0,0,0,1.911-1.527,15.862,15.862,0,0,1,19.037-11.261,2.07,2.07,0,0,0,2.016-.656c5.029-4.016,10.6-5.015,16.544-2.5s9.121,7.22,9.708,13.618c.093,1.011.35,1.451,1.35,1.613a18.478,18.478,0,0,1,2.507.756c.079-.114.192-.207.178-.271-.816-3.653,1.286-5.92,3.784-8.005a1.583,1.583,0,0,0,.578-2.1,5.093,5.093,0,0,1,2.271-6.184,5.335,5.335,0,0,1,6.457.781,5.31,5.31,0,0,1,.832,6.578,5.153,5.153,0,0,1-6.208,2.234,1.46,1.46,0,0,0-1.97.5,2.11,2.11,0,0,1-.586.587c-2.8,1.65-2.561,4.342-2.48,7.015.021.7.48.94.887,1.29,7.778,6.709,7.765,17.837-.063,24.594a1.886,1.886,0,0,0-.807,1.834,1.765,1.765,0,0,1,0,.665c-.863,3.37,1.709,4.938,3.584,6.878.633.655,1.136-.019,1.653-.156a5.318,5.318,0,0,1,5.848,2.15,5.3,5.3,0,0,1-.187,6.226,5.286,5.286,0,0,1-5.969,1.783,5.3,5.3,0,0,1-3.588-5.09c0-.111-.03-.244.019-.329,1.3-2.281-.227-3.644-1.768-4.735-2.482-1.757-2.453-4.222-2.215-6.819-2.7.608-2.7.608-2.7,2.986a20.666,20.666,0,0,1-.022,3c-.513,3.463.9,6.357,2.46,9.267.485.908,1.135.662,1.8.7a5.305,5.305,0,0,1,4.987,4.562,5.327,5.327,0,0,1-3.467,5.651,5.227,5.227,0,0,1-6.233-2.228,4.939,4.939,0,0,1,.338-5.91,1.283,1.283,0,0,0,.128-1.756c-2.488-3.6-3.086-7.617-2.674-11.87.048-.5-.066-1.012.02-1.5.26-1.454-.376-1.77-1.717-1.66-.852.07-.984.369-.971,1.1.038,2.055-.117,4.121.046,6.164.216,2.708-.5,4.812-3.149,5.922.245.649.794.741,1.172,1.024a4.331,4.331,0,0,1,1.965,3.8c-.078,2.943-.143,5.9.017,8.831a4.866,4.866,0,0,1-2.947,4.931,24.3,24.3,0,0,1-8.432,2.425,48.135,48.135,0,0,1-19.814-1.124,19.092,19.092,0,0,1-3.089-1.209c-2.116-1.036-3.337-2.579-3.136-5.145a46.944,46.944,0,0,0,.006-6.829c-.191-2.811.247-5.208,3.583-6.534-3.346-1.336-3.788-3.737-3.579-6.542.143-1.934-.035-3.89.05-5.83.056-1.275-.785-.911-1.429-.945s-1.385-.241-1.269.893c.079.769-.044,1.559.025,2.331.379,4.194-.2,8.163-2.658,11.707-.481.693-.333,1.2.187,1.888a5.248,5.248,0,0,1-.156,6.748,5.445,5.445,0,0,1-6.51,1.374,5.455,5.455,0,0,1-2.878-6.148,5.324,5.324,0,0,1,5.372-4.1,1.754,1.754,0,0,0,1.647-.966c3.045-4.181,2.276-8.971,2.3-13.634C1689.968-2075.305,1689.869-2075.306,1687.457-2075.932Zm31.2-43.815a11.2,11.2,0,0,0-7.176,3.471,2.783,2.783,0,0,1-3.209.823,13.178,13.178,0,0,0-16.531,9.681,3.1,3.1,0,0,1-2.3,2.613,13.17,13.17,0,0,0-8.5,15.143,13.346,13.346,0,0,0,13.762,10.662c.437-.017.866.053,1.191-.389,1.589-2.159,3.99-2.962,6.41-3.558a48.154,48.154,0,0,1,22.915-.1c2.6.617,5.158,1.408,6.89,3.687a.987.987,0,0,0,.867.367c4,.076,7.55-1,10.334-4.035a12.332,12.332,0,0,0,3.478-12.5c-1.441-5.657-5.265-8.984-11.014-9.976-1.367-.236-2-.765-1.814-2.174a8.143,8.143,0,0,0,0-1.5C1733.526-2115.308,1725.867-2121.423,1718.657-2119.747Zm-20.666,47.644v3.719c0,4.076.141,4.264,4.139,5.492.317.1.639.182.961.263a47,47,0,0,0,18,.763,22.942,22.942,0,0,0,7.334-2.039c.736-.372,1.541-.754,1.548-1.768.015-2.145,0-4.289,0-6.428A46.9,46.9,0,0,1,1697.991-2072.1Zm0,18.674v3.971c0,3.709.177,3.951,3.771,5.112.422.136.85.254,1.279.365a46.725,46.725,0,0,0,17.516.871,23.483,23.483,0,0,0,7.836-2.116c.739-.374,1.551-.765,1.564-1.766.027-2.144.008-4.289.008-6.428A46.774,46.774,0,0,1,1697.993-2053.429Zm16.021-18.582a38.913,38.913,0,0,0,13.217-2.026c1.06-.4,2.6-.727,2.6-1.984s-1.533-1.636-2.605-1.974a43.085,43.085,0,0,0-26.487,0c-1.072.338-2.6.72-2.6,1.976s1.545,1.581,2.6,1.979A39,39,0,0,0,1714.014-2072.011Zm-.022,18.657a44.451,44.451,0,0,0,8.282-.693,18.96,18.96,0,0,0,6.759-2.2c1.083-.663,1.233-1.417.06-2.114-1.62-.963-3.214-1.756-5.291-1.307a46.9,46.9,0,0,1-19.654.01,5.108,5.108,0,0,0-3.373.309c-1.036.49-2.594.782-2.621,2-.028,1.26,1.529,1.588,2.587,1.985A38.752,38.752,0,0,0,1713.992-2053.354Zm-36.039-61.341a2.694,2.694,0,0,0,2.681-2.6,2.671,2.671,0,0,0-2.548-2.72,2.675,2.675,0,0,0-2.763,2.675A2.685,2.685,0,0,0,1677.953-2114.7Zm71.906,0a2.7,2.7,0,0,0,2.779-2.5,2.671,2.671,0,0,0-2.446-2.813,2.669,2.669,0,0,0-2.862,2.566A2.683,2.683,0,0,0,1749.859-2114.7Zm-69.231,50.656a2.642,2.642,0,0,0-2.626-2.63,2.654,2.654,0,0,0-2.673,2.588,2.655,2.655,0,0,0,2.708,2.718A2.67,2.67,0,0,0,1680.628-2064.041Zm72.014.016a2.665,2.665,0,0,0-2.618-2.651,2.676,2.676,0,0,0-2.694,2.578,2.677,2.677,0,0,0,2.7,2.74A2.7,2.7,0,0,0,1752.643-2064.025Zm-66.609,6.683a2.68,2.68,0,0,0-2.709,2.563,2.677,2.677,0,0,0,2.683,2.755,2.7,2.7,0,0,0,2.628-2.651A2.666,2.666,0,0,0,1686.034-2057.343Zm58.6,2.785a2.657,2.657,0,0,0-2.475-2.778,2.662,2.662,0,0,0-2.817,2.435,2.659,2.659,0,0,0,2.551,2.868A2.672,2.672,0,0,0,1744.634-2054.557Z" fill="#060607"/>
      <path id="Trazado_588657" data-name="Trazado 588657" d="M1759.341-2075.387c-2.784,3.038-6.332,4.11-10.334,4.035a.988.988,0,0,1-.867-.366c-1.732-2.28-4.289-3.071-6.89-3.687a48.157,48.157,0,0,0-22.915.1c-2.42.6-4.821,1.4-6.41,3.558-.325.442-.754.372-1.191.389a13.346,13.346,0,0,1-13.762-10.662,13.17,13.17,0,0,1,8.5-15.143,3.1,3.1,0,0,0,2.3-2.613,13.178,13.178,0,0,1,16.531-9.681,2.783,2.783,0,0,0,3.21-.823,11.2,11.2,0,0,1,7.176-3.471c0,.723.634.817,1.083,1.108a18.208,18.208,0,0,1,4.661,4.438,16.314,16.314,0,0,1,3.254,10.393c-.014.733-.075,1.338,1.026,1.482a16.976,16.976,0,0,1,14.353,19.669A1.892,1.892,0,0,0,1759.341-2075.387Zm-30.652-15.988c0-3.326-.032-6.652.015-9.977.02-1.391-.486-2.073-1.939-2.016-1.384.054-2.773.054-4.156,0-1.449-.057-1.969.616-1.942,2.012.052,2.66.015,5.321.015,7.981,0,3.287,0,3.3-3.329,3.343-.818.01-1.611.04-1.922.939-.321.929.361,1.4,1,1.882q4.793,3.582,9.574,7.179c.575.431,1.129.947,1.938.512.78-.418.749-1.144.747-1.877Q1728.682-2086.386,1728.689-2091.375Zm2.661-.031c0,3.381.025,6.762-.013,10.143-.015,1.322.5,1.961,1.861,1.922,1.385-.04,2.774-.06,4.156.005,1.539.073,2.056-.643,2.02-2.108-.063-2.548-.018-5.1-.018-7.648,0-3.5,0-3.509,3.421-3.582.764-.016,1.482-.072,1.8-.875.368-.926-.269-1.424-.914-1.906q-4.859-3.632-9.707-7.277c-.538-.4-1.062-.844-1.8-.489-.791.38-.817,1.088-.813,1.837C1731.358-2098.057,1731.351-2094.731,1731.351-2091.406Z" transform="translate(-16.034 -6)" fill="#d0e6fc"/>
      <path id="Trazado_588658" data-name="Trazado 588658" d="M1835.236-2075.943a1.89,1.89,0,0,1-.272-1.27,16.976,16.976,0,0,0-14.353-19.669c-1.1-.144-1.039-.749-1.026-1.482a16.314,16.314,0,0,0-3.254-10.392,18.208,18.208,0,0,0-4.661-4.439c-.449-.29-1.083-.385-1.083-1.108,7.209-1.675,14.868,4.439,15.3,12.217a8.14,8.14,0,0,1,0,1.5c-.184,1.409.447,1.938,1.815,2.174,5.75.992,9.574,4.319,11.014,9.976A12.332,12.332,0,0,1,1835.236-2075.943Z" transform="translate(-91.93 -5.444)" fill="#bdd7f8"/>
      <path id="Trazado_588659" data-name="Trazado 588659" d="M1748.631-1970.912a46.9,46.9,0,0,0,31.981,0c0,2.138.01,4.283,0,6.428-.007,1.013-.812,1.4-1.548,1.768a22.947,22.947,0,0,1-7.334,2.039,47.01,47.01,0,0,1-18-.763c-.322-.08-.644-.166-.961-.263-4-1.229-4.138-1.417-4.139-5.492Zm9.3,5.435c.247-1.13-.281-1.4-1.334-1.384-.953.013-1.378.207-1.341,1.271.033.957.111,1.524,1.313,1.469C1757.568-1964.166,1758.2-1964.3,1757.932-1965.477Zm14.755-1.323c-1.072-.222-1.477.176-1.428,1.294.04.9.115,1.446,1.231,1.376.894-.056,1.6,0,1.505-1.269C1773.927-1966.333,1773.926-1967.085,1772.687-1966.8Zm-7.9,1.324c-.923-.119-1.611-.067-1.528,1.209.06.934.082,1.579,1.3,1.471.822-.073,1.535.015,1.421-1.174C1765.9-1964.79,1766.146-1965.744,1764.785-1965.477Z" transform="translate(-50.64 -101.191)" fill="#4a6ab2"/>
      <path id="Trazado_588660" data-name="Trazado 588660" d="M1748.636-1914.928a46.771,46.771,0,0,0,31.975.009c0,2.139.018,4.284-.008,6.428-.012,1-.824,1.393-1.564,1.766a23.483,23.483,0,0,1-7.836,2.116,46.725,46.725,0,0,1-17.516-.871c-.429-.111-.858-.229-1.279-.365-3.594-1.161-3.771-1.4-3.771-5.112Zm9.3,5.365c.225-1.083-.309-1.292-1.281-1.321-1.106-.033-1.408.35-1.4,1.423.005,1.034.35,1.3,1.344,1.315C1757.685-1908.137,1758.175-1908.454,1757.94-1909.563Zm14.629-1.264c-1.1-.229-1.273.339-1.309,1.293-.043,1.127.383,1.385,1.435,1.39s1.288-.375,1.3-1.355C1774.018-1910.6,1773.658-1911.053,1772.569-1910.827Zm-6.629,2.6c.225-1.083-.309-1.292-1.281-1.321-1.106-.033-1.408.35-1.4,1.423.005,1.033.35,1.3,1.344,1.314C1765.686-1906.8,1766.176-1907.121,1765.941-1908.23Z" transform="translate(-50.643 -138.501)" fill="#3a568f"/>
      <path id="Trazado_588661" data-name="Trazado 588661" d="M1764.948-1986.757a39,39,0,0,1-13.271-2.028c-1.06-.4-2.6-.724-2.6-1.979s1.53-1.638,2.6-1.976a43.084,43.084,0,0,1,26.487,0c1.072.338,2.6.717,2.605,1.974s-1.541,1.585-2.6,1.984A38.913,38.913,0,0,1,1764.948-1986.757Z" transform="translate(-50.934 -85.254)" fill="#769dd1"/>
      <path id="Trazado_588662" data-name="Trazado 588662" d="M1764.955-1927.6a38.744,38.744,0,0,1-13.251-2.017c-1.058-.4-2.615-.726-2.587-1.985.027-1.214,1.585-1.506,2.621-2a5.107,5.107,0,0,1,3.373-.309,46.89,46.89,0,0,0,19.655-.01c2.077-.449,3.671.344,5.291,1.307,1.173.7,1.023,1.451-.06,2.114a18.965,18.965,0,0,1-6.759,2.2A44.452,44.452,0,0,1,1764.955-1927.6Z" transform="translate(-50.964 -125.754)" fill="#5c84c6"/>
      <path id="Trazado_588663" data-name="Trazado 588663" d="M1683.3-2109.23a2.685,2.685,0,0,1-2.63-2.643,2.675,2.675,0,0,1,2.763-2.675,2.671,2.671,0,0,1,2.548,2.72A2.7,2.7,0,0,1,1683.3-2109.23Z" transform="translate(-5.35 -5.465)" fill="#ecc760"/>
      <path id="Trazado_588664" data-name="Trazado 588664" d="M1899.073-2109.232a2.683,2.683,0,0,1-2.529-2.744,2.669,2.669,0,0,1,2.862-2.566,2.671,2.671,0,0,1,2.446,2.813A2.7,2.7,0,0,1,1899.073-2109.232Z" transform="translate(-149.214 -5.465)" fill="#ecc760"/>
      <path id="Trazado_588665" data-name="Trazado 588665" d="M1685.99-1952a2.671,2.671,0,0,1-2.59,2.676,2.655,2.655,0,0,1-2.709-2.718,2.653,2.653,0,0,1,2.672-2.588A2.643,2.643,0,0,1,1685.99-1952Z" transform="translate(-5.362 -112.044)" fill="#c73b31"/>
      <path id="Trazado_588666" data-name="Trazado 588666" d="M1901.858-1951.994a2.7,2.7,0,0,1-2.613,2.667,2.676,2.676,0,0,1-2.7-2.74,2.676,2.676,0,0,1,2.694-2.578A2.665,2.665,0,0,1,1901.858-1951.994Z" transform="translate(-149.215 -112.032)" fill="#ecc760"/>
      <path id="Trazado_588667" data-name="Trazado 588667" d="M1707.368-1926.663a2.666,2.666,0,0,1,2.6,2.667,2.7,2.7,0,0,1-2.628,2.651,2.677,2.677,0,0,1-2.683-2.755A2.68,2.68,0,0,1,1707.368-1926.663Z" transform="translate(-21.334 -130.68)" fill="#ecc760"/>
      <path id="Trazado_588668" data-name="Trazado 588668" d="M1877.873-1923.872a2.673,2.673,0,0,1-2.741,2.525,2.659,2.659,0,0,1-2.551-2.868,2.663,2.663,0,0,1,2.817-2.435A2.658,2.658,0,0,1,1877.873-1923.872Z" transform="translate(-133.239 -130.686)" fill="#c73b31"/>
      <path id="Trazado_588669" data-name="Trazado 588669" d="M1765.943-2070.642q0,4.989,0,9.977c0,.733.033,1.458-.747,1.877-.809.435-1.364-.081-1.938-.512q-4.787-3.589-9.574-7.179c-.639-.478-1.322-.952-1-1.882.311-.9,1.1-.929,1.922-.939,3.329-.042,3.329-.056,3.329-3.343,0-2.66.037-5.322-.015-7.981-.028-1.4.493-2.068,1.942-2.012,1.384.053,2.772.053,4.156,0,1.452-.057,1.958.625,1.938,2.016C1765.911-2077.294,1765.943-2073.968,1765.943-2070.642Zm-2.673,8.013c0-5.759-.011-11.11.008-16.46,0-1.283-.925-.76-1.527-.858-.819-.133-1.176.152-1.162,1.069.05,3.209-.027,6.421.038,9.63.033,1.611-.1,2.935-2.722,2.585Z" transform="translate(-53.288 -26.732)" fill="#030404"/>
      <path id="Trazado_588670" data-name="Trazado 588670" d="M1800.545-2070.633c0-3.326.007-6.651-.006-9.977,0-.75.023-1.458.813-1.837.738-.354,1.262.085,1.8.489q4.851,3.642,9.707,7.277c.645.482,1.282.98.914,1.906-.319.8-1.037.858-1.8.875-3.422.073-3.421.086-3.421,3.582,0,2.549-.046,5.1.018,7.648.036,1.465-.481,2.181-2.02,2.108-1.382-.065-2.771-.045-4.156-.005-1.36.039-1.875-.6-1.861-1.922C1800.57-2063.871,1800.545-2067.252,1800.545-2070.633Zm2.672-7.946c0,5.615.034,10.807-.027,16-.013,1.127.365,1.337,1.408,1.376,1.226.045,1.31-.515,1.3-1.479-.043-3.1.033-6.2-.036-9.3-.036-1.618.12-2.919,2.752-2.545Z" transform="translate(-85.229 -26.773)" fill="#030404"/>
      <path id="Trazado_588671" data-name="Trazado 588671" d="M1771.164-1957.385c.263,1.175-.364,1.311-1.362,1.356-1.2.054-1.28-.513-1.313-1.47-.037-1.063.389-1.258,1.341-1.27C1770.883-1958.783,1771.411-1958.515,1771.164-1957.385Z" transform="translate(-63.872 -109.283)" fill="#020204"/>
      <path id="Trazado_588672" data-name="Trazado 588672" d="M1817.888-1958.707c1.239-.284,1.24.467,1.308,1.4.092,1.269-.611,1.213-1.505,1.269-1.117.07-1.192-.48-1.231-1.375C1816.411-1958.531,1816.816-1958.929,1817.888-1958.707Z" transform="translate(-95.841 -109.284)" fill="#020204"/>
      <path id="Trazado_588673" data-name="Trazado 588673" d="M1793.991-1954.709c1.361-.268,1.117.687,1.2,1.505.114,1.189-.6,1.1-1.421,1.174-1.222.108-1.243-.537-1.3-1.471C1792.38-1954.776,1793.068-1954.828,1793.991-1954.709Z" transform="translate(-79.846 -111.959)" fill="#020204"/>
      <path id="Trazado_588674" data-name="Trazado 588674" d="M1771.165-1901.489c.235,1.109-.255,1.427-1.34,1.416-.994-.01-1.339-.281-1.344-1.314-.005-1.073.3-1.456,1.4-1.423C1770.856-1902.781,1771.391-1902.572,1771.165-1901.489Z" transform="translate(-63.869 -146.575)" fill="#010203"/>
      <path id="Trazado_588675" data-name="Trazado 588675" d="M1817.765-1902.748c1.089-.226,1.448.222,1.43,1.328-.016.98-.25,1.36-1.3,1.355s-1.478-.262-1.435-1.39C1816.493-1902.409,1816.666-1902.976,1817.765-1902.748Z" transform="translate(-95.839 -146.58)" fill="#010203"/>
      <path id="Trazado_588676" data-name="Trazado 588676" d="M1795.151-1897.491c.235,1.109-.255,1.427-1.34,1.416-.994-.01-1.339-.281-1.344-1.315-.005-1.073.3-1.456,1.4-1.423C1794.842-1898.783,1795.376-1898.574,1795.151-1897.491Z" transform="translate(-79.854 -149.24)" fill="#010203"/>
      <path id="Trazado_588677" data-name="Trazado 588677" d="M1773.86-2057.314l-5.364-4.034c2.626.35,2.755-.974,2.722-2.585-.065-3.209.012-6.42-.038-9.629-.015-.917.343-1.2,1.161-1.069.6.1,1.532-.425,1.527.858C1773.849-2068.423,1773.86-2063.072,1773.86-2057.314Z" transform="translate(-63.879 -32.048)" fill="#759ccf"/>
      <path id="Trazado_588678" data-name="Trazado 588678" d="M1808.527-2070.589l5.394,4.049c-2.631-.374-2.788.927-2.751,2.545.069,3.1-.007,6.2.036,9.3.013.963-.071,1.524-1.3,1.479-1.043-.039-1.421-.249-1.408-1.375C1808.561-2059.782,1808.527-2064.974,1808.527-2070.589Z" transform="translate(-90.539 -34.762)" fill="#759ccf"/>
    </g>
  </g>
</svg>
