<svg xmlns="http://www.w3.org/2000/svg" width="136" height="136" viewBox="0 0 136 136">
  <g id="Grupo_848346" data-name="Grupo 848346" transform="translate(-522 -4405)">
    <g id="Trazado_590257" data-name="Trazado 590257" transform="translate(522 4405)" fill="#f6f6f6">
      <path d="M 68 133 C 59.22373962402344 133 50.71157836914062 131.2818145751953 42.69998168945312 127.8932037353516 C 38.84912109375 126.2644195556641 35.13471984863281 124.2482833862305 31.65998077392578 121.9008026123047 C 28.21746063232422 119.575080871582 24.98018074035645 116.9040603637695 22.03805923461914 113.9619369506836 C 19.09593963623047 111.0198211669922 16.42491912841797 107.7825393676758 14.09920024871826 104.3400192260742 C 11.7517204284668 100.8652801513672 9.735580444335938 97.15087890625 8.106800079345703 93.30001831054688 C 4.718180179595947 85.28842163085938 3 76.77626037597656 3 68 C 3 59.22373962402344 4.718180179595947 50.71157836914062 8.106800079345703 42.69998168945312 C 9.735580444335938 38.84912109375 11.7517204284668 35.13471984863281 14.09920024871826 31.65998077392578 C 16.42491912841797 28.21746063232422 19.09593963623047 24.98018074035645 22.03805923461914 22.03805923461914 C 24.98018074035645 19.09593963623047 28.21746063232422 16.42491912841797 31.65998077392578 14.09920024871826 C 35.13471984863281 11.7517204284668 38.84912109375 9.735580444335938 42.69998168945312 8.106800079345703 C 50.71157836914062 4.718180179595947 59.22373962402344 3 68 3 C 76.77626037597656 3 85.28842163085938 4.718180179595947 93.30001831054688 8.106800079345703 C 97.15087890625 9.735580444335938 100.8652801513672 11.7517204284668 104.3400192260742 14.09920024871826 C 107.7825393676758 16.42491912841797 111.0198211669922 19.09593963623047 113.9619369506836 22.03805923461914 C 116.9040603637695 24.98018074035645 119.575080871582 28.21746063232422 121.9008026123047 31.65998077392578 C 124.2482833862305 35.13471984863281 126.2644195556641 38.84912109375 127.8932037353516 42.69998168945312 C 131.2818145751953 50.71157836914062 133 59.22373962402344 133 68 C 133 76.77626037597656 131.2818145751953 85.28842163085938 127.8932037353516 93.30001831054688 C 126.2644195556641 97.15087890625 124.2482833862305 100.8652801513672 121.9008026123047 104.3400192260742 C 119.575080871582 107.7825393676758 116.9040603637695 111.0198211669922 113.9619369506836 113.9619369506836 C 111.0198211669922 116.9040603637695 107.7825393676758 119.575080871582 104.3400192260742 121.9008026123047 C 100.8652801513672 124.2482833862305 97.15087890625 126.2644195556641 93.30001831054688 127.8932037353516 C 85.28842163085938 131.2818145751953 76.77626037597656 133 68 133 Z" stroke="none"/>
      <path d="M 68 6 C 33.81308746337891 6 6 33.81308746337891 6 68 C 6 102.1869049072266 33.81308746337891 130 68 130 C 102.1869049072266 130 130 102.1869049072266 130 68 C 130 33.81308746337891 102.1869049072266 6 68 6 M 68 0 C 105.5553588867188 0 136 30.44463348388672 136 68 C 136 105.5553588867188 105.5553588867188 136 68 136 C 30.44463348388672 136 0 105.5553588867188 0 68 C 0 30.44463348388672 30.44463348388672 0 68 0 Z" stroke="none" fill="#fff"/>
    </g>
    <g id="Grupo_847568" data-name="Grupo 847568" transform="translate(-732.401 6546.587)">
      <path id="Trazado_588620" data-name="Trazado 588620" d="M1333.67-2043.891c1.471,1.211,2.125,2.734,4.028,2.431.664-.105,1.22.525,1.719,1.011,2.3,2.244,4.621,4.467,6.913,6.72,1.547,1.52,1.551,2.778.055,4.355-.8.84-1.58,1.7-2.434,2.481a2.376,2.376,0,0,1-3.543.029c-2.609-2.454-5.157-4.974-7.72-7.477a2.136,2.136,0,0,1-.741-1.841,1.736,1.736,0,0,0-.68-1.632c-1.786-1.756-1.772-1.77-4.04-.61a15.147,15.147,0,0,1-19-4.3,2.685,2.685,0,0,0-2.472-1.191c-5.637.058-11.276.032-16.914.025-3.707,0-5.437-1.712-5.438-5.39q-.009-26.235,0-52.47c0-3.581,1.749-5.311,5.334-5.311q33.986,0,67.972,0c3.579,0,5.33,1.734,5.331,5.314q.011,26.235,0,52.47c0,3.683-1.726,5.383-5.442,5.386C1349.128-2043.887,1341.653-2043.891,1333.67-2043.891Zm1.1-2.794c-.052.274.1.248.275.187l.321-.01,21.482.025c2.14-.009,2.677-.574,2.678-2.909q.009-20.537,0-41.076c0-2.37,0-2.37-2.376-2.173-.314-.021-.628-.059-.942-.059q-34.392,0-68.784,0c-.363,0-.726.063-1.089.1-.3-.015-.373.143-.314.4a1.39,1.39,0,0,0-.07.306q-.009,21.543,0,43.087c0,1.662.744,2.36,2.471,2.364,5.629.01,11.259-.019,16.888-.034.532.144.819.064.508-.558a17.276,17.276,0,0,1-.7-3.39c-.016-1.6-.138-2.734-2.222-2.377a1.14,1.14,0,0,1-1.272-1.3,1.229,1.229,0,0,1,1.4-1.189,11.01,11.01,0,0,1,1.263,0,1.037,1.037,0,0,0,1.331-.937c.136-.683.4-1.341.629-2.093-1.183,0-2.183-.006-3.183,0-.8.006-1.381-.368-1.433-1.155-.058-.881.532-1.341,1.39-1.37a26.188,26.188,0,0,1,3,0,3.078,3.078,0,0,0,2.815-1.218,14.789,14.789,0,0,1,14.526-4.927,15.792,15.792,0,0,1,8.2,4.561c0-1.858.039-3.42-.015-4.978a1.841,1.841,0,0,1,1.008-1.948l.156.024.14-.072c1.1.031,2.194.086,3.291.089s1.675.477,1.675,1.6q0,6.683,0,13.367c0,.97-.359,1.668-1.439,1.647-.633-.012-.808.223-.8.817a21.443,21.443,0,0,1-.646,4.5A.633.633,0,0,0,1334.771-2046.686Zm22.75-48.646c1.541.326,2.152-.189,1.991-1.849s-.008-3.338-.047-5.008c-.039-1.646-.578-2.142-2.3-2.256-.682-.026-1.365-.076-2.048-.076q-31.289-.006-62.577,0c-1.37,0-2.739-.018-4.109.006-1.731.031-2.445.684-2.463,2.358-.024,2.156.034,4.314.057,6.472-.025.257.094.373.35.352.418.026.837.074,1.255.074q34.149.005,68.3,0c.418,0,.836-.052,1.254-.079Zm-37.155,30.575a12.719,12.719,0,0,0-12.817,12.656,12.723,12.723,0,0,0,12.672,12.8,12.751,12.751,0,0,0,12.834-12.659A12.75,12.75,0,0,0,1320.366-2064.756Zm24.461,33.661a1.56,1.56,0,0,0-.7-1.222c-1.652-1.625-3.321-3.234-4.983-4.848-1.909-1.854-1.872-1.817-3.732.006-.756.74-.885,1.177-.02,1.956,1.916,1.727,3.706,3.591,5.588,5.357.4.374.726,1.288,1.408.849A20.146,20.146,0,0,0,1344.827-2031.095Zm-9.536-24.8c0-3.448,0-6.654,0-9.86,0-.46.116-1.012-.624-1.009-.793,0-.557.616-.564,1.035-.022,1.366.023,2.734-.016,4.1A9.192,9.192,0,0,0,1335.29-2055.894Zm-1.122,16.237c.006-.366-2.007-2.309-2.313-2.219s-.62.37-.344.677a17.524,17.524,0,0,0,2.024,1.965C1333.843-2038.983,1334.056-2039.378,1334.168-2039.657Z" transform="translate(0)" fill="#080808"/>
      <path id="Trazado_588621" data-name="Trazado 588621" d="M1338.062-2038.3a1.841,1.841,0,0,0-1.008,1.948c.054,1.558.015,3.12.015,4.978a15.788,15.788,0,0,0-8.2-4.56,14.788,14.788,0,0,0-14.526,4.927,3.078,3.078,0,0,1-2.815,1.217,26.162,26.162,0,0,0-3,0c-.858.029-1.448.49-1.39,1.37.052.787.632,1.161,1.433,1.155,1-.007,2,0,3.183,0-.231.752-.493,1.41-.629,2.093a1.037,1.037,0,0,1-1.331.937,11.012,11.012,0,0,0-1.263,0,1.229,1.229,0,0,0-1.4,1.19,1.139,1.139,0,0,0,1.272,1.3c2.084-.356,2.206.777,2.222,2.378a17.292,17.292,0,0,0,.7,3.39.8.8,0,0,0-.508.558c-5.629.014-11.259.044-16.888.033-1.727,0-2.469-.7-2.471-2.363q-.023-21.543,0-43.087a1.385,1.385,0,0,1,.07-.307l.314-.4c.363-.034.726-.1,1.089-.1q34.392-.007,68.784,0c.313,0,.627.039.941.059a.225.225,0,0,0,.047.2l.331.258q0,21.51,0,43.021a3.583,3.583,0,0,1-.325,2.144l-.325.264a.422.422,0,0,0-.03.266l-21.482-.025c0-.358-.028-.7-.43-.861a21.452,21.452,0,0,0,.646-4.5c-.008-.595.167-.829.8-.817,1.08.021,1.439-.678,1.439-1.648q0-6.683,0-13.367c0-1.122-.587-1.6-1.675-1.6s-2.194-.058-3.291-.089C1338.217-2038.592,1338.124-2038.543,1338.062-2038.3Zm-27.865-19.785a11.982,11.982,0,0,0-12.023,12.03,12.056,12.056,0,0,0,11.927,12.006,12.086,12.086,0,0,0,12.114-11.987A12.009,12.009,0,0,0,1310.2-2058.081Zm49.024,24.1q0-4.1,0-8.2c0-4.182.437-4.056-3.99-4.021-1.985.016-2.264.287-2.265,2.288,0,6,.005,11.99,0,17.986-.007,4.852-.334,4.254,4.324,4.326,1.431.022,1.975-.541,1.952-1.962C1359.183-2027.04,1359.22-2030.511,1359.22-2033.982Zm-14.206,1.9c0,2.1,0,4.2,0,6.3-.013,4.611-.335,4.152,4.144,4.153,1.841,0,2.112-.266,2.115-2.083.008-4.781-.006-9.563.005-14.344.011-4.683.312-4.1-4.306-4.173-1.419-.022-2,.52-1.973,1.945C1345.052-2037.551,1345.014-2034.818,1345.014-2032.086Zm-1.783-24.393q-5.836,0-11.673,0c-.985,0-2.077-.029-2.024,1.329.046,1.208,1.07,1.219,2,1.219q11.594-.008,23.188,0c.945,0,1.935-.049,1.947-1.276.012-1.246-.98-1.276-1.927-1.273C1350.907-2056.473,1347.069-2056.479,1343.231-2056.479Zm-6.205,5.344c-1.949,0-3.9.009-5.846,0-.887-.006-1.648.228-1.66,1.243s.736,1.3,1.624,1.3q5.767,0,11.534,0c.878,0,1.642-.251,1.657-1.264s-.727-1.282-1.62-1.278C1340.818-2051.128,1338.922-2051.135,1337.026-2051.135Zm-35.55,23.862c.683,0,1.367.018,2.05,0a1.187,1.187,0,0,0,1.262-1.154,1.134,1.134,0,0,0-1.086-1.309,40.514,40.514,0,0,0-4.409-.006,1.131,1.131,0,0,0-1.1,1.294,1.175,1.175,0,0,0,1.237,1.173C1300.109-2027.251,1300.793-2027.274,1301.476-2027.273Zm.118,3.045v-.005c-.736,0-1.473-.031-2.207.009a1.165,1.165,0,0,0-1.2,1.206,1.085,1.085,0,0,0,.992,1.226,43.014,43.014,0,0,0,4.562.018,1.119,1.119,0,0,0,1.051-1.189,1.158,1.158,0,0,0-1.15-1.254C1302.963-2024.27,1302.277-2024.228,1301.594-2024.228Z" transform="translate(-5.503 -31.047)" fill="#e9ecee"/>
      <path id="Trazado_588622" data-name="Trazado 588622" d="M1362.717-2089.859c-.418.027-.836.079-1.254.079q-34.149.006-68.3,0c-.418,0-.836-.048-1.255-.074l-.35-.352c-.023-2.157-.081-4.315-.057-6.472.018-1.674.732-2.327,2.463-2.357,1.369-.025,2.739-.007,4.108-.007q31.288,0,62.577,0c.683,0,1.365.049,2.048.076a6.052,6.052,0,0,1,.36,1.992c-.031,2.255-.014,4.511-.015,6.767Zm-58.03-4.584a1.949,1.949,0,0,0,1.863,1.968,1.914,1.914,0,0,0,2.008-1.953,1.817,1.817,0,0,0-1.919-1.868A1.874,1.874,0,0,0,1304.687-2094.443Zm-7.417-.042a2.018,2.018,0,0,0,1.959,2.026,1.919,1.919,0,0,0,1.871-2.086,1.773,1.773,0,0,0-2.01-1.75A1.8,1.8,0,0,0,1297.27-2094.485Zm14.848.067a1.938,1.938,0,0,0,1.884,1.942,1.875,1.875,0,0,0,1.961-1.98,1.769,1.769,0,0,0-1.923-1.836A1.86,1.86,0,0,0,1312.118-2094.418Z" transform="translate(-5.535 -5.482)" fill="#a59aa5"/>
      <path id="Trazado_588623" data-name="Trazado 588623" d="M1372.562-1973.3a12.75,12.75,0,0,1,12.689,12.8,12.75,12.75,0,0,1-12.834,12.659,12.723,12.723,0,0,1-12.672-12.8A12.719,12.719,0,0,1,1372.562-1973.3Zm11.24,12.736a11.352,11.352,0,0,0-11.341-11.345,11.354,11.354,0,0,0-11.282,11.407,11.333,11.333,0,0,0,11.265,11.256A11.333,11.333,0,0,0,1383.8-1960.566Z" transform="translate(-52.196 -91.454)" fill="#82beed"/>
      <path id="Trazado_588624" data-name="Trazado 588624" d="M1515.941-2016.005a3.584,3.584,0,0,0,.326-2.144q.006-21.51,0-43.021l-.33-.258a.225.225,0,0,1-.047-.2c2.376-.2,2.376-.2,2.376,2.173q0,20.537,0,41.076c0,2.335-.538,2.9-2.678,2.909a.422.422,0,0,1,.03-.266Z" transform="translate(-158.737 -31.009)" fill="#c0c1c5"/>
      <path id="Trazado_588625" data-name="Trazado 588625" d="M1455.919-1882.974a20.174,20.174,0,0,1-2.436,2.1c-.682.439-1.01-.475-1.408-.849-1.882-1.766-3.672-3.63-5.588-5.357-.864-.779-.735-1.215.02-1.956,1.86-1.823,1.823-1.861,3.732-.006,1.663,1.615,3.332,3.223,4.983,4.848A1.561,1.561,0,0,1,1455.919-1882.974Z" transform="translate(-111.092 -148.121)" fill="#ebb581"/>
      <path id="Trazado_588626" data-name="Trazado 588626" d="M1516.951-2090.019c0-2.256-.016-4.511.015-6.767a6.052,6.052,0,0,0-.36-1.992c1.722.114,2.261.61,2.3,2.256.039,1.669-.114,3.353.047,5.008s-.45,2.176-1.991,1.849Q1516.957-2089.842,1516.951-2090.019Z" transform="translate(-159.441 -5.667)" fill="#847784"/>
      <path id="Trazado_588627" data-name="Trazado 588627" d="M1444.808-1968.777a9.193,9.193,0,0,1-1.206-5.735c.039-1.365-.006-2.733.016-4.1.007-.418-.229-1.032.564-1.035.74,0,.624.549.624,1.009C1444.809-1975.431,1444.808-1972.224,1444.808-1968.777Z" transform="translate(-109.518 -87.117)" fill="#ebb581"/>
      <path id="Trazado_588628" data-name="Trazado 588628" d="M1437.924-1898.751c-.112.279-.325.674-.634.424a17.514,17.514,0,0,1-2.024-1.965c-.275-.308.027-.584.344-.677S1437.93-1899.117,1437.924-1898.751Z" transform="translate(-103.756 -140.906)" fill="#a59aa5"/>
      <path id="Trazado_588629" data-name="Trazado 588629" d="M1445.877-1918.334c.4.157.43.5.431.861l-.321.011-.275-.187A.634.634,0,0,1,1445.877-1918.334Z" transform="translate(-110.941 -129.036)" fill="#f6f8f9"/>
      <path id="Trazado_588630" data-name="Trazado 588630" d="M1352.68-1916.713a.8.8,0,0,1,.508-.558C1353.5-1916.648,1353.212-1916.569,1352.68-1916.713Z" transform="translate(-47.366 -129.763)" fill="#c0c1c5"/>
      <path id="Trazado_588631" data-name="Trazado 588631" d="M1291.688-2071.093l.35.352C1291.782-2070.72,1291.663-2070.835,1291.688-2071.093Z" transform="translate(-5.663 -24.595)" fill="#b0a3b0"/>
      <path id="Trazado_588632" data-name="Trazado 588632" d="M1516.989-2071.087l.011.355-.339-.01Z" transform="translate(-159.479 -24.599)" fill="#b0a3b0"/>
      <path id="Trazado_588633" data-name="Trazado 588633" d="M1291.972-2061.341l-.314.4C1291.6-2061.2,1291.676-2061.356,1291.972-2061.341Z" transform="translate(-5.633 -31.261)" fill="#f6f8f9"/>
      <path id="Trazado_588634" data-name="Trazado 588634" d="M1438.815-1988.26c.062-.247.155-.3.3-.047l-.14.071Z" transform="translate(-106.256 -81.083)" fill="#f6f8f9"/>
      <path id="Trazado_588635" data-name="Trazado 588635" d="M1445.786-1916.171l.275.187C1445.885-1915.923,1445.734-1915.9,1445.786-1916.171Z" transform="translate(-111.015 -130.515)" fill="#e9ecee"/>
      <path id="Trazado_588636" data-name="Trazado 588636" d="M1324.727-2050.354a12.01,12.01,0,0,1,12.018,12.049,12.086,12.086,0,0,1-12.114,11.987,12.056,12.056,0,0,1-11.927-12.006A11.982,11.982,0,0,1,1324.727-2050.354Zm-1.271,8.333c0-1.948-.037-3.265.013-4.578.032-.864-.075-1.2-1.112-.941a9.589,9.589,0,0,0-7.007,10.723,9.572,9.572,0,0,0,10.065,7.928c3.123-.3,3.137-.371,1.612-3.043C1325.127-2035.263,1322.32-2038.307,1323.456-2042.021Zm2.535-1.667c0,.946.054,1.9-.016,2.838-.068.921.159,1.323,1.192,1.277,1.889-.083,3.789-.1,5.676,0,1.255.068,1.289-.485,1-1.4a9.421,9.421,0,0,0-5.637-6.186c-2.207-.893-2.212-.88-2.213,1.415Q1325.99-2044.713,1325.991-2043.688Zm4.555,12.733a9.139,9.139,0,0,0,3.333-4.978c.218-.753.112-1.178-.843-1.143-1.628.059-3.26.023-4.891.013-.688,0-1.205.022-.653.927C1328.526-2034.442,1329.511-2032.719,1330.546-2030.955Z" transform="translate(-20.034 -38.774)" fill="#070606"/>
      <path id="Trazado_588637" data-name="Trazado 588637" d="M1492.163-2000.61c0,3.471-.037,6.943.018,10.413.023,1.422-.521,1.984-1.952,1.962-4.658-.071-4.332.527-4.325-4.326.009-6,0-11.991,0-17.986,0-2,.28-2.272,2.265-2.288,4.427-.035,3.994-.161,3.99,4.021Q1492.16-2004.712,1492.163-2000.61Zm-2.535.08c0-2.887.01-5.773-.011-8.659,0-.413.254-1.044-.5-1.107-.851-.071-.694.592-.695,1.09q-.008,8.659,0,17.318c0,.481-.194,1.151.679,1.1.781-.049.506-.678.509-1.08C1489.639-1994.757,1489.628-1997.643,1489.628-2000.53Z" transform="translate(-138.446 -64.42)" fill="#080808"/>
      <path id="Trazado_588638" data-name="Trazado 588638" d="M1460.758-1990.093c0-2.732.038-5.465-.016-8.2-.028-1.426.554-1.967,1.973-1.945,4.618.072,4.316-.51,4.306,4.173-.011,4.781,0,9.563-.005,14.344,0,1.817-.274,2.083-2.115,2.083-4.479,0-4.157.458-4.144-4.153C1460.762-1985.889,1460.758-1987.991,1460.758-1990.093Zm2.516.092c0,2.2-.019,4.408.016,6.611.007.44-.333,1.168.532,1.213s.632-.674.634-1.139q.023-6.611,0-13.223c0-.467.231-1.185-.639-1.134s-.519.778-.526,1.218C1463.255-1994.3,1463.274-1992.152,1463.274-1990Z" transform="translate(-121.246 -73.04)" fill="#070606"/>
      <path id="Trazado_588639" data-name="Trazado 588639" d="M1425.546-2045.3c3.838,0,7.677.006,11.515,0,.946,0,1.938.028,1.927,1.273-.012,1.227-1,1.276-1.947,1.276q-11.594-.008-23.187,0c-.934,0-1.958-.011-2-1.219-.052-1.359,1.04-1.331,2.024-1.329Q1419.71-2045.289,1425.546-2045.3Z" transform="translate(-87.818 -42.229)" fill="#080808"/>
      <path id="Trazado_588640" data-name="Trazado 588640" d="M1419.313-2028.4c1.9,0,3.792.006,5.688,0,.894,0,1.636.258,1.62,1.278s-.779,1.264-1.657,1.264q-5.767,0-11.534,0c-.888,0-1.636-.293-1.624-1.3s.774-1.249,1.661-1.243C1415.416-2028.393,1417.364-2028.4,1419.313-2028.4Z" transform="translate(-87.79 -53.78)" fill="#080808"/>
      <path id="Trazado_588641" data-name="Trazado 588641" d="M1316.036-1958.425c-.683,0-1.367.022-2.049-.007a1.175,1.175,0,0,1-1.237-1.173,1.131,1.131,0,0,1,1.1-1.294,40.49,40.49,0,0,1,4.409.007,1.134,1.134,0,0,1,1.086,1.309,1.187,1.187,0,0,1-1.262,1.154C1317.4-1958.407,1316.719-1958.424,1316.036-1958.425Z" transform="translate(-20.062 -99.895)" fill="#080808"/>
      <path id="Trazado_588642" data-name="Trazado 588642" d="M1316.153-1943.361c.683,0,1.369-.042,2.048.011a1.158,1.158,0,0,1,1.149,1.253,1.119,1.119,0,0,1-1.05,1.189,43.047,43.047,0,0,1-4.562-.018,1.085,1.085,0,0,1-.992-1.226,1.166,1.166,0,0,1,1.2-1.206c.734-.04,1.471-.009,2.207-.009Z" transform="translate(-20.062 -111.913)" fill="#080808"/>
      <path id="Trazado_588643" data-name="Trazado 588643" d="M1516.722-2060.817l.33.258Z" transform="translate(-159.521 -31.621)" fill="#f6f8f9"/>
      <path id="Trazado_588644" data-name="Trazado 588644" d="M1516.026-1917.211l-.325.264Z" transform="translate(-158.823 -129.804)" fill="#f6f8f9"/>
      <path id="Trazado_588645" data-name="Trazado 588645" d="M1333.2-2088.5a1.874,1.874,0,0,1,1.952-1.854,1.817,1.817,0,0,1,1.919,1.868,1.913,1.913,0,0,1-2.008,1.953A1.949,1.949,0,0,1,1333.2-2088.5Z" transform="translate(-34.046 -11.429)" fill="#080808"/>
      <path id="Trazado_588646" data-name="Trazado 588646" d="M1309.75-2088.542a1.8,1.8,0,0,1,1.82-1.809,1.773,1.773,0,0,1,2.01,1.75,1.919,1.919,0,0,1-1.871,2.086A2.018,2.018,0,0,1,1309.75-2088.542Z" transform="translate(-18.014 -11.425)" fill="#070606"/>
      <path id="Trazado_588647" data-name="Trazado 588647" d="M1356.692-2088.462a1.86,1.86,0,0,1,1.922-1.874,1.769,1.769,0,0,1,1.922,1.836,1.875,1.875,0,0,1-1.961,1.98A1.938,1.938,0,0,1,1356.692-2088.462Z" transform="translate(-50.109 -11.438)" fill="#070606"/>
      <path id="Trazado_588648" data-name="Trazado 588648" d="M1386.9-1957.557a11.333,11.333,0,0,1-11.358,11.319,11.333,11.333,0,0,1-11.265-11.257,11.354,11.354,0,0,1,11.282-11.407A11.352,11.352,0,0,1,1386.9-1957.557Zm-12.686-8.617a8.612,8.612,0,0,0-7.358,9.279,8.756,8.756,0,0,0,8.682,8.122,8.825,8.825,0,0,0,8.79-7.857,8.669,8.669,0,0,0-7.251-9.528A3.971,3.971,0,0,0,1374.213-1966.174Z" transform="translate(-55.294 -94.462)" fill="#080808"/>
      <path id="Trazado_588649" data-name="Trazado 588649" d="M1328.892-2036.126c-1.136,3.714,1.671,6.758,3.571,10.089,1.525,2.672,1.51,2.741-1.612,3.043a9.572,9.572,0,0,1-10.065-7.928,9.589,9.589,0,0,1,7.007-10.723c1.037-.261,1.144.078,1.112.941C1328.855-2039.391,1328.892-2038.074,1328.892-2036.126Z" transform="translate(-25.47 -44.669)" fill="#87c5f9"/>
      <path id="Trazado_588650" data-name="Trazado 588650" d="M1354.654-2037.959q0-1.025,0-2.05c0-2.3.005-2.308,2.213-1.415a9.421,9.421,0,0,1,5.637,6.186c.292.912.258,1.464-1,1.4-1.887-.1-3.787-.086-5.676,0-1.033.046-1.26-.356-1.192-1.277C1354.709-2036.062,1354.654-2037.012,1354.654-2037.959Z" transform="translate(-48.697 -44.503)" fill="#f6da73"/>
      <path id="Trazado_588651" data-name="Trazado 588651" d="M1362.01-2002.258c-1.035-1.764-2.02-3.488-3.053-5.181-.552-.906-.035-.932.653-.927,1.63.011,3.262.047,4.891-.013.955-.035,1.061.391.843,1.143A9.14,9.14,0,0,1,1362.01-2002.258Z" transform="translate(-51.498 -67.471)" fill="#f7616c"/>
      <path id="Trazado_588652" data-name="Trazado 588652" d="M1495.06-1995.034c0,2.886.01,5.773-.012,8.659,0,.4.272,1.031-.509,1.08-.873.054-.678-.616-.679-1.1q-.014-8.659,0-17.318c0-.5-.156-1.161.695-1.09.75.063.494.694.5,1.107C1495.069-2000.807,1495.06-1997.92,1495.06-1995.034Z" transform="translate(-143.878 -69.915)" fill="#74b3e4"/>
      <path id="Trazado_588653" data-name="Trazado 588653" d="M1468.651-1984.467c0-2.151-.019-4.3.016-6.454.007-.44-.336-1.168.526-1.218s.638.667.639,1.134q.022,6.611,0,13.223c0,.465.238,1.184-.634,1.139s-.525-.773-.532-1.213C1468.632-1980.059,1468.651-1982.263,1468.651-1984.467Z" transform="translate(-126.624 -78.574)" fill="#48dba7"/>
      <path id="Trazado_588654" data-name="Trazado 588654" d="M1382.6-1960.262a8.669,8.669,0,0,1,7.251,9.528,8.825,8.825,0,0,1-8.79,7.857,8.756,8.756,0,0,1-8.682-8.122,8.612,8.612,0,0,1,7.358-9.278A3.2,3.2,0,0,0,1382.6-1960.262Z" transform="translate(-60.815 -100.359)" fill="#e9ecee"/>
      <path id="Trazado_588655" data-name="Trazado 588655" d="M1398.556-1960.823a3.2,3.2,0,0,1-2.863-.016A3.971,3.971,0,0,1,1398.556-1960.823Z" transform="translate(-76.773 -99.798)" fill="#c0c1c5"/>
    </g>
  </g>
</svg>
