<svg xmlns="http://www.w3.org/2000/svg" xmlns:xlink="http://www.w3.org/1999/xlink" width="244" height="153" viewBox="0 0 244 153">
  <defs>
    <clipPath id="clip-path">
      <rect id="Rectángulo_281403" data-name="Rectángulo 281403" width="244" height="153" transform="translate(0.24 -0.075)" fill="none"/>
    </clipPath>
    <clipPath id="clip-path-3">
      <rect id="Rectángulo_281392" data-name="Rectángulo 281392" width="139.853" height="9.839" fill="#fff"/>
    </clipPath>
    <clipPath id="clip-path-4">
      <rect id="Rectángulo_281393" data-name="Rectángulo 281393" width="13.944" height="8.011" fill="none"/>
    </clipPath>
    <clipPath id="clip-path-5">
      <rect id="Rectángulo_281401" data-name="Rectángulo 281401" width="64.009" height="89.613" fill="none"/>
    </clipPath>
  </defs>
  <g id="Grupo_848416" data-name="Grupo 848416" transform="translate(-0.24 0.075)">
    <g id="Grupo_848415" data-name="Grupo 848415" clip-path="url(#clip-path)">
      <g id="Grupo_848410" data-name="Grupo 848410">
        <g id="Grupo_848409" data-name="Grupo 848409" clip-path="url(#clip-path)">
          <g id="Grupo_848405" data-name="Grupo 848405" transform="translate(69.767 3.01)" opacity="0.8">
            <g id="Grupo_848404" data-name="Grupo 848404">
              <g id="Grupo_848403" data-name="Grupo 848403" clip-path="url(#clip-path-3)">
                <path id="Trazado_590274" data-name="Trazado 590274" d="M189.921,22.352a2.044,2.044,0,0,1-1.547,3.781,2.044,2.044,0,0,1,1.547-3.781" transform="translate(-187.162 -16.979)" fill="#fff"/>
                <path id="Trazado_590275" data-name="Trazado 590275" d="M210.808,15.4a4.005,4.005,0,1,1-5.262-2.1,4,4,0,0,1,5.262,2.1" transform="translate(-197.173 -11.147)" fill="#fff"/>
                <path id="Trazado_590276" data-name="Trazado 590276" d="M552.374,9.823a2.89,2.89,0,1,1-3.8-1.512,2.891,2.891,0,0,1,3.8,1.512" transform="translate(-412.757 -8.074)" fill="#fff"/>
              </g>
            </g>
          </g>
          <g id="Grupo_848408" data-name="Grupo 848408" transform="translate(66.792 132.489)" opacity="0.8">
            <g id="Grupo_848407" data-name="Grupo 848407">
              <g id="Grupo_848406" data-name="Grupo 848406" clip-path="url(#clip-path-4)">
                <path id="Trazado_590277" data-name="Trazado 590277" d="M182.574,357.241a2.044,2.044,0,0,1-2.81,2.965,2.044,2.044,0,0,1,2.81-2.965" transform="translate(-179.179 -356.268)" fill="#f4dcd3"/>
                <path id="Trazado_590278" data-name="Trazado 590278" d="M203.1,359.283a4.005,4.005,0,1,1-4.148-3.857,4.005,4.005,0,0,1,4.148,3.857" transform="translate(-189.163 -355.423)" fill="#f4dcd3"/>
              </g>
            </g>
          </g>
          <path id="Trazado_590279" data-name="Trazado 590279" d="M234.925,50.966c0-21.789-18.145-45.665-40.725-47.107q-.595-.038-1.2-.066c-32.37-1.509-34.836,37.972-64.123,42.424s-51.652-18.026-86.7-3.36c-31.474,13.172-40,87.187,52.477,90.155,73.987,2.375,140.278-17.037,140.268-82.045" transform="translate(-12.806 -2.352)" fill="#fff"/>
          <path id="Trazado_590280" data-name="Trazado 590280" d="M244.533,387.587c0,2.709-54.741,4.905-122.267,4.905S0,390.3,0,387.587s54.741-4.905,122.267-4.905,122.267,2.2,122.267,4.905" transform="translate(0 -240.032)" fill="#6ce3cf"/>
          <path id="Trazado_590281" data-name="Trazado 590281" d="M256.271,46.021V141.95a5.521,5.521,0,0,1-5.521,5.521H71a5.521,5.521,0,0,1-5.521-5.521V46.021A5.521,5.521,0,0,1,71,40.5H250.75a5.521,5.521,0,0,1,5.521,5.521" transform="translate(-41.071 -25.403)" fill="#1b3431"/>
          <rect id="Rectángulo_281394" data-name="Rectángulo 281394" width="28.625" height="19.75" transform="translate(105.471 122.067)" fill="#414f50"/>
          <path id="Trazado_590282" data-name="Trazado 590282" d="M296.992,380.934H242.2c-3.519,0-4.639-3.882-1.491-5.17l6.63-2.713a21.248,21.248,0,0,1,8.014-1.547h28.487a21.248,21.248,0,0,1,8.014,1.547l6.63,2.713c3.148,1.288,2.027,5.17-1.491,5.17" transform="translate(-149.82 -233.021)" fill="#1b3431"/>
          <path id="Trazado_590283" data-name="Trazado 590283" d="M311.568,330.579l-28.625,5.06v-8.174h28.625Z" transform="translate(-177.471 -205.398)" fill="#1b3431"/>
          <path id="Trazado_590284" data-name="Trazado 590284" d="M256.272,278.171v12.855a5.521,5.521,0,0,1-5.522,5.52H71a5.521,5.521,0,0,1-5.521-5.52V278.171Z" transform="translate(-41.071 -174.479)" fill="#414f50"/>
          <rect id="Rectángulo_281395" data-name="Rectángulo 281395" width="190.792" height="6.884" transform="translate(24.409 103.692)" fill="#1b3431"/>
          <path id="Trazado_590285" data-name="Trazado 590285" d="M309.917,307.953H288.847a2.554,2.554,0,0,1-2.547-2.547v-.076a2.554,2.554,0,0,1,2.547-2.546h21.071a2.554,2.554,0,0,1,2.547,2.546v.076a2.554,2.554,0,0,1-2.547,2.547" transform="translate(-179.578 -189.917)" fill="#1b3431"/>
          <path id="Trazado_590286" data-name="Trazado 590286" d="M260.874,60.715v79.73H83.564V60.715A2.13,2.13,0,0,1,85.7,58.586H258.742a2.132,2.132,0,0,1,2.132,2.129" transform="translate(-52.414 -36.747)" fill="#efe3df"/>
          <path id="Trazado_590287" data-name="Trazado 590287" d="M260.874,60.716v7.4H83.565v-7.4a2.13,2.13,0,0,1,2.131-2.13H258.743a2.132,2.132,0,0,1,2.132,2.13" transform="translate(-52.415 -36.747)" fill="#fff"/>
          <path id="Trazado_590288" data-name="Trazado 590288" d="M260.574,70.487H125.544a.8.8,0,0,1-.794-.794v-.649a.8.8,0,0,1,.794-.794h135.03a.8.8,0,0,1,.794.794v.649a.8.8,0,0,1-.794.794" transform="translate(-78.248 -42.809)" fill="#e9cec2"/>
          <path id="Trazado_590289" data-name="Trazado 590289" d="M98.988,65.87l-2.77,2.263,2.77,1.832Z" transform="translate(-60.351 -41.316)" fill="#1b3431"/>
          <path id="Trazado_590290" data-name="Trazado 590290" d="M109.757,65.87l2.77,2.263-2.77,1.832Z" transform="translate(-68.844 -41.316)" fill="#1b3431"/>
          <path id="Trazado_590291" data-name="Trazado 590291" d="M520.089,68.029a1.982,1.982,0,1,1-1.982-1.982,1.982,1.982,0,0,1,1.982,1.982" transform="translate(-323.733 -41.427)" fill="#78b1de"/>
          <path id="Trazado_590292" data-name="Trazado 590292" d="M503.99,68.029a1.982,1.982,0,1,1-1.982-1.982,1.982,1.982,0,0,1,1.982,1.982" transform="translate(-313.635 -41.427)" fill="#468280"/>
          <path id="Trazado_590293" data-name="Trazado 590293" d="M536.189,68.029a1.982,1.982,0,1,1-1.982-1.982,1.982,1.982,0,0,1,1.982,1.982" transform="translate(-333.831 -41.427)" fill="#e2534d"/>
          <path id="Trazado_590294" data-name="Trazado 590294" d="M279.837,91.71v62.243a2.314,2.314,0,0,1-2.315,2.314H158.4a2.314,2.314,0,0,1-2.314-2.314V91.71a3.032,3.032,0,0,1,3.032-3.032H276.8a3.032,3.032,0,0,1,3.032,3.032" transform="translate(-97.9 -55.622)" fill="#fff"/>
          <path id="Trazado_590295" data-name="Trazado 590295" d="M232.057,217.989a3.45,3.45,0,1,1-3.451-3.45,3.451,3.451,0,0,1,3.451,3.45" transform="translate(-141.226 -134.567)" fill="#dd615c"/>
          <path id="Trazado_590296" data-name="Trazado 590296" d="M232.692,222.438a.36.36,0,0,1-.256-.106l-3.255-3.254a.362.362,0,0,1,.513-.513l3.254,3.255a.362.362,0,0,1-.256.618" transform="translate(-143.684 -137.025)" fill="#fff"/>
          <path id="Trazado_590297" data-name="Trazado 590297" d="M229.437,222.438a.362.362,0,0,1-.256-.618l3.254-3.255a.362.362,0,0,1,.512.513l-3.254,3.254a.361.361,0,0,1-.256.106" transform="translate(-143.684 -137.025)" fill="#fff"/>
          <path id="Trazado_590298" data-name="Trazado 590298" d="M203.069,219.038H196.05a.453.453,0,0,0-.453.453v3.889a.453.453,0,0,0,.453.453h7.019a.452.452,0,0,0,.452-.453v-3.889a.452.452,0,0,0-.452-.453m-6.256,1.773a.609.609,0,1,1,.609-.609.609.609,0,0,1-.609.609m2.746,2.238a1.678,1.678,0,1,1,1.677-1.677,1.677,1.677,0,0,1-1.677,1.677" transform="translate(-122.685 -137.388)" fill="#1b3431"/>
          <path id="Trazado_590299" data-name="Trazado 590299" d="M205.116,215.9v1.039H204.3v-.52a.1.1,0,0,0-.1-.1H202.78a.1.1,0,0,0-.1.1v.52h-.813V215.9a.208.208,0,0,1,.208-.208h2.837a.208.208,0,0,1,.208.208" transform="translate(-126.616 -135.29)" fill="#1b3431"/>
          <path id="Trazado_590300" data-name="Trazado 590300" d="M181.2,220.293h-.55a.676.676,0,0,1-.674-.674v-3.6a.676.676,0,0,1,.674-.674h.55a.676.676,0,0,1,.674.674v3.6a.676.676,0,0,1-.674.674" transform="translate(-112.884 -135.071)" fill="#1b3431"/>
          <path id="Trazado_590301" data-name="Trazado 590301" d="M182.248,227.862h-.113a.138.138,0,0,1-.138-.138v-2.046a.138.138,0,0,1,.138-.138h.113a.139.139,0,0,1,.138.138v2.046a.138.138,0,0,1-.138.138" transform="translate(-114.156 -141.467)" fill="#1b3431"/>
          <path id="Trazado_590302" data-name="Trazado 590302" d="M180.927,230.873h-3.234a.291.291,0,0,1-.29-.29v-.237a.291.291,0,0,1,.29-.29h3.234a.291.291,0,0,1,.29.29v.237a.29.29,0,0,1-.29.29" transform="translate(-111.273 -144.3)" fill="#1b3431"/>
          <path id="Trazado_590303" data-name="Trazado 590303" d="M428.447,128.98H402.428a1.236,1.236,0,0,1-1.236-1.236V114.222a1.236,1.236,0,0,1,1.236-1.236h26.019a1.236,1.236,0,0,1,1.236,1.236v13.522a1.236,1.236,0,0,1-1.236,1.236" transform="translate(-251.642 -70.869)" fill="#efe3df"/>
          <path id="Trazado_590304" data-name="Trazado 590304" d="M428.908,188.922H401.775a.754.754,0,1,1,0-1.507h27.134a.754.754,0,0,1,0,1.507" transform="translate(-251.535 -117.553)" fill="#efe3df"/>
          <path id="Trazado_590305" data-name="Trazado 590305" d="M428.908,171.813H401.775a.754.754,0,1,1,0-1.507h27.134a.754.754,0,0,1,0,1.507" transform="translate(-251.535 -106.822)" fill="#efe3df"/>
          <path id="Trazado_590306" data-name="Trazado 590306" d="M428.908,206.03H401.775a.754.754,0,1,1,0-1.507h27.134a.754.754,0,0,1,0,1.507" transform="translate(-251.535 -128.284)" fill="#efe3df"/>
          <path id="Trazado_590307" data-name="Trazado 590307" d="M203.885,188.922H176.752a.754.754,0,0,1,0-1.507h27.134a.754.754,0,0,1,0,1.507" transform="translate(-110.392 -117.553)" fill="#efe3df"/>
          <path id="Trazado_590308" data-name="Trazado 590308" d="M203.885,171.813H176.752a.754.754,0,0,1,0-1.507h27.134a.754.754,0,0,1,0,1.507" transform="translate(-110.392 -106.822)" fill="#efe3df"/>
          <path id="Trazado_590309" data-name="Trazado 590309" d="M203.885,206.03H176.752a.754.754,0,0,1,0-1.507h27.134a.754.754,0,0,1,0,1.507" transform="translate(-110.392 -128.284)" fill="#efe3df"/>
          <path id="Trazado_590310" data-name="Trazado 590310" d="M279.837,246.09v6.6A2.315,2.315,0,0,1,277.522,255H158.4a2.315,2.315,0,0,1-2.314-2.315v-6.6Z" transform="translate(-97.9 -154.356)" fill="#1b3431"/>
          <path id="Trazado_590311" data-name="Trazado 590311" d="M454.1,251.91v-.915h1.144v-.814h-1.551a.407.407,0,0,0-.407.407v1.321Z" transform="translate(-284.314 -156.922)" fill="#fff"/>
          <path id="Trazado_590312" data-name="Trazado 590312" d="M454.1,259.184h-.814v1.391a.407.407,0,0,0,.407.407h1.551v-.814H454.1Z" transform="translate(-284.314 -162.569)" fill="#fff"/>
          <path id="Trazado_590313" data-name="Trazado 590313" d="M463.1,251.91h.814v-1.321a.407.407,0,0,0-.407-.407h-1.492v.814H463.1Z" transform="translate(-289.792 -156.922)" fill="#fff"/>
          <path id="Trazado_590314" data-name="Trazado 590314" d="M463.1,259.184v.984h-1.085v.814h1.492a.407.407,0,0,0,.407-.407v-1.391Z" transform="translate(-289.792 -162.569)" fill="#fff"/>
          <path id="Trazado_590315" data-name="Trazado 590315" d="M175.421,252.74v-2.57l2.226,1.285,2.226,1.285-2.226,1.285-2.226,1.285Z" transform="translate(-110.03 -156.915)" fill="#fff"/>
          <path id="Trazado_590316" data-name="Trazado 590316" d="M206.957,255.54H206.2a.314.314,0,0,1-.313-.314v-4.052a.314.314,0,0,1,.313-.314h.752a.315.315,0,0,1,.313.314v4.052a.314.314,0,0,1-.313.314" transform="translate(-129.142 -157.349)" fill="#fff"/>
          <path id="Trazado_590317" data-name="Trazado 590317" d="M214.689,255.54h-.752a.314.314,0,0,1-.314-.314v-4.052a.314.314,0,0,1,.314-.313h.752a.315.315,0,0,1,.314.314v4.052a.314.314,0,0,1-.314.314" transform="translate(-133.992 -157.349)" fill="#fff"/>
          <rect id="Rectángulo_281396" data-name="Rectángulo 281396" width="123.755" height="2.029" transform="translate(58.182 89.706)" fill="#e9cec2"/>
          <rect id="Rectángulo_281397" data-name="Rectángulo 281397" width="39.875" height="2.028" transform="translate(58.181 89.706)" fill="#e2534d"/>
          <path id="Trazado_590318" data-name="Trazado 590318" d="M434.987,219.475h1.4v3.059h1.869v1.083h-3.265Z" transform="translate(-272.84 -137.662)" fill="#1b3431"/>
          <rect id="Rectángulo_281398" data-name="Rectángulo 281398" width="1.396" height="4.141" transform="translate(165.797 81.812)" fill="#1b3431"/>
          <path id="Trazado_590319" data-name="Trazado 590319" d="M454,219.475l-1.751,4.141h-1.372l-1.751-4.141h1.5l.988,2.42,1.012-2.42Z" transform="translate(-281.708 -137.662)" fill="#1b3431"/>
          <path id="Trazado_590320" data-name="Trazado 590320" d="M466.01,222.563v1.053h-3.443v-4.141h3.366v1.053h-1.994v.485h1.751v1.006h-1.751v.544Z" transform="translate(-290.138 -137.663)" fill="#1b3431"/>
          <path id="Trazado_590321" data-name="Trazado 590321" d="M423.091,222.074a1.7,1.7,0,1,1-1.7-1.7,1.7,1.7,0,0,1,1.7,1.7" transform="translate(-263.241 -138.225)" fill="#e2534d"/>
          <path id="Trazado_590322" data-name="Trazado 590322" d="M206.269,115.063a10.16,10.16,0,1,1-19.534-3.927l9.374,3.927-.481-10.147c.157-.009.319-.012.481-.012a10.16,10.16,0,0,1,10.16,10.16" transform="translate(-116.633 -65.799)" fill="#32424e"/>
          <path id="Trazado_590323" data-name="Trazado 590323" d="M194.24,100.439a10.175,10.175,0,0,0-8.892,6.221l9.373,3.926Z" transform="translate(-116.257 -62.999)" fill="#f4ad4b"/>
          <path id="Trazado_590324" data-name="Trazado 590324" d="M222.557,115.063a10.121,10.121,0,0,1-2.617,6.806l-7.543-6.806-.481-10.147c.157-.009.319-.012.481-.012a10.16,10.16,0,0,1,10.16,10.16" transform="translate(-132.921 -65.799)" fill="#d76751"/>
        </g>
      </g>
      <g id="Grupo_848412" data-name="Grupo 848412" transform="translate(91.177)">
        <g id="Grupo_848411" data-name="Grupo 848411" clip-path="url(#clip-path-5)">
          <path id="Trazado_590325" data-name="Trazado 590325" d="M308.009,22.582a5.922,5.922,0,0,0-4.971-2.9,8.3,8.3,0,0,0-7.592,1.083c-4.168,2.705-2.728,9.442-4.161,14.41-1.1,3.807-3.63,12.611-3.63,12.611s3.138.051,8.312-.287a107.79,107.79,0,0,1,12.706.287s-1.709-7.387-1.251-10.868c.376-2.864.593-5,1.171-8.862.33-2.2.483-3.727-.583-5.47" transform="translate(-271.605 -12.051)" fill="#1b3431"/>
          <path id="Trazado_590326" data-name="Trazado 590326" d="M310.054,12.26s-.449-5.208-4.9-4.506c-5.111.805-3.911,6.806.014,7.82,4.207,1.087,4.885-3.314,4.885-3.314" transform="translate(-280.45 -4.823)" fill="#1b3431"/>
          <path id="Trazado_590327" data-name="Trazado 590327" d="M305.615,20.951a.175.175,0,0,0,.118-.065c2.316-2.909,6.356-2.427,6.4-2.422a.175.175,0,1,0,.044-.346,8.686,8.686,0,0,0-2.43.112,7,7,0,0,0-4.284,2.439.175.175,0,0,0,.155.282" transform="translate(-282.749 -11.34)" fill="#f5bf69"/>
          <path id="Trazado_590328" data-name="Trazado 590328" d="M329.49,87.877c.084.374.168.725.253,1.085s.175.714.263,1.07c.175.713.362,1.422.549,2.131s.382,1.418.58,2.125.4,1.417.609,2.123c.421,1.414.85,2.829,1.327,4.247.234.709.481,1.422.733,2.138s.53,1.438.823,2.173l.23.558c.077.185.164.38.246.569s.178.392.268.588.2.412.3.621l.08.158.1.176.2.35c.067.116.14.229.211.344s.145.233.215.33c.141.2.285.416.424.6l.211.28c.07.092.14.176.21.264.562.694,1.119,1.3,1.683,1.884s1.129,1.122,1.7,1.646c1.142,1.047,2.3,2.019,3.488,2.95.589.47,1.192.917,1.793,1.365q.455.332.916.658c.153.11.309.216.465.324l.485.33a3.49,3.49,0,0,0,4.42-5.362l-.069-.067-1.475-1.463c-.5-.489-.992-.99-1.487-1.481-.982-.99-1.948-1.982-2.862-2.974-.456-.5-.9-.991-1.314-1.48s-.805-.973-1.127-1.425c-.039-.056-.084-.113-.12-.167l-.107-.16c-.078-.11-.128-.2-.19-.3-.034-.051-.049-.088-.073-.13s-.046-.08-.067-.122l-.062-.128-.032-.063-.038-.086c-.051-.117-.1-.221-.158-.361s-.11-.258-.166-.407-.113-.283-.168-.434l-.169-.452c-.446-1.235-.881-2.556-1.3-3.891s-.828-2.692-1.229-4.055l-2.413-8.2a4.216,4.216,0,0,0-8.162,2.1Z" transform="translate(-297.779 -51.889)" fill="#5a918e"/>
          <path id="Trazado_590329" data-name="Trazado 590329" d="M376.874,127.3l-1.4.071.859.645Z" transform="translate(-326.69 -79.846)" fill="#fff"/>
          <path id="Trazado_590330" data-name="Trazado 590330" d="M358.369,128.37l-11.052,14.715a1,1,0,0,0,.2,1.4l10.1,7.588a1,1,0,0,0,1.4-.2l11.053-14.716a1,1,0,0,0-.2-1.4l-10.1-7.588a1,1,0,0,0-1.4.2" transform="translate(-308.902 -80.268)" fill="#d76751"/>
          <path id="Trazado_590331" data-name="Trazado 590331" d="M383.751,146.017l-12.25,16.31,1.528,1.148a.852.852,0,0,0,1.192-.17l11.227-14.947a.852.852,0,0,0-.17-1.194Z" transform="translate(-324.196 -91.587)" fill="#ba4131"/>
          <path id="Trazado_590332" data-name="Trazado 590332" d="M385.325,166.45l.505-.738s.7,1.863-.357,2.921a40.96,40.96,0,0,0-2.726,3.223c-.558.688-1.425,2.333-2.117,2.481s-1.253-.214-2.047-1.043-.319-1.341.347-1.258a8.843,8.843,0,0,1,1.668.444,11.989,11.989,0,0,0-1.331-1.206c-1.142-.951-.393-1.538.349-1.383a16.547,16.547,0,0,1,2.591.913s-1.243-.967-2.051-1.586.19-1.409,1.637-.621,1.547.567,1.547.567a5.445,5.445,0,0,0-1.284-1.105c-1.015-.709-1.218-1.636-.415-1.6a9.764,9.764,0,0,1,2.718,1.266l.424-.564a7.821,7.821,0,0,1,.543-.716" transform="translate(-328.378 -103.94)" fill="#f49d8b"/>
          <rect id="Rectángulo_281400" data-name="Rectángulo 281400" width="2.243" height="5.413" transform="translate(49.397 54.204) rotate(-53.093)" fill="#ba4131"/>
          <path id="Trazado_590333" data-name="Trazado 590333" d="M325.241,203.149a62.57,62.57,0,0,0,1.305,9.5c.178.814.369,1.6.572,2.377.045.172.091.344.137.514h0c.394,1.444.824,2.831,1.283,4.2.072.219.146.437.221.655.519,1.518,1.068,3.025,1.632,4.579.924,2.547,1.888,5.219,2.821,8.271a75.4,75.4,0,0,0,.451,15.068H343.85l-1.662-15.57-.091-.851-.142-1.334-.413-7.633-.172-3.185-.138-2.54-.2-3.779-.328-6.062-15.559-6.112q.035.875.088,1.708c0,.066.008.131.013.2" transform="translate(-295.117 -126.228)" fill="#f49d8b"/>
          <path id="Trazado_590334" data-name="Trazado 590334" d="M334.256,250.855q.108.328.22.655c.519,1.518,1.068,3.025,1.633,4.579,4.532-.6,8.6-1.457,11.15-2.049l-.171-3.185Z" transform="translate(-300.835 -157.345)" fill="#d37363"/>
          <path id="Trazado_590335" data-name="Trazado 590335" d="M363.983,284.3a9.76,9.76,0,0,1-3.616.668h-.082a.4.4,0,0,1,.007-.809h.007a8.379,8.379,0,0,0,3.593-.711Z" transform="translate(-316.912 -177.791)" fill="#d37363"/>
          <path id="Trazado_590336" data-name="Trazado 590336" d="M292.219,218.715c.006.225.011.453.017.682q.056,2.215.125,4.645.09,3.214.206,6.782c.01.3.02.608.031.914q.034,1,.069,2.02l.251,13.529h9.067q.07-.389.139-.776c1.73-9.733-.484-14.37-.484-14.37a61.134,61.134,0,0,0,2.156-7.609c.35-1.565.668-3.2.944-4.85.053-.322.106-.644.155-.967.22-1.4.408-2.815.556-4.2h0c.019-.177.038-.352.054-.528.081-.8.147-1.589.2-2.363a32.373,32.373,0,0,0-.431-9.319l-.874-.176-.975-.2-11.513-2.316s.01,5.489.217,15.084q.04,1.9.092,4.017" transform="translate(-274.274 -125.206)" fill="#f49d8b"/>
          <path id="Trazado_590337" data-name="Trazado 590337" d="M292.738,250.855c.006.225.011.453.017.682q.056,2.215.125,4.645a44.385,44.385,0,0,0,11.434.49c.35-1.565.668-3.2.944-4.85.053-.322.106-.645.155-.967Z" transform="translate(-274.793 -157.345)" fill="#d37363"/>
          <path id="Trazado_590338" data-name="Trazado 590338" d="M297.751,284.49a.4.4,0,0,1-.4.411h-.082a9.858,9.858,0,0,1-3.569-.647q-.015-.46-.03-.914a8.191,8.191,0,0,0,3.667.752h.007a.4.4,0,0,1,.4.4" transform="translate(-275.38 -177.722)" fill="#d37363"/>
          <path id="Trazado_590339" data-name="Trazado 590339" d="M284.724,189.961s25.495,4.715,36.268-3.319c0,0-.308-.868-.689-1.96l-.215-.614c-.05-.144-.1-.289-.152-.435-.189-.549-.38-1.1-.546-1.6-.185-.541-.338-1.008-.431-1.308-.048-.158-.1-.322-.15-.493-.937-3.065-2.494-8.181-3.66-12.072h0c-.1-.342-.2-.674-.3-.995q-.042-.139-.082-.276c-.21-.7-.423-1.45-.637-2.218-.151-.542-.3-1.1-.451-1.656q-.171-.64-.34-1.286c-.051-.2-.1-.392-.153-.588-.623-2.41-1.2-4.8-1.654-6.7-.041-.171-.081-.339-.119-.5-.478-2.024-.78-3.373-.78-3.373a89.21,89.21,0,0,1-21.453,2.161s-.416,1.461-.946,3.889c-.036.16-.071.327-.108.5-.48,2.257-1.031,5.243-1.447,8.619-.013.107-.026.214-.039.322-.009.072-.018.144-.026.215q-.058.485-.11.98-.117,1.081-.207,2.205h0c-.039.489-.084,1.028-.13,1.6-.063.774-.132,1.611-.2,2.48-.033.4-.066.8-.1,1.212-.213,2.582-.44,5.3-.611,7.352-.015.175-.029.344-.042.508-.076.9-.207,2.89-.316,4.57-.014.22-.027.436-.041.642-.077,1.21-.134,2.132-.134,2.132" transform="translate(-269.766 -94.444)" fill="#1b3431"/>
          <path id="Trazado_590340" data-name="Trazado 590340" d="M348.076,165.443a.841.841,0,0,1,.235-.165c.315.467.58.964.867,1.449a.848.848,0,0,1-1.1-1.284" transform="translate(-309.347 -103.668)" fill="#414f50"/>
          <path id="Trazado_590341" data-name="Trazado 590341" d="M338.58,168.425a.849.849,0,1,0,0-1.2.849.849,0,0,0,0,1.2" transform="translate(-303.391 -104.733)" fill="#414f50"/>
          <path id="Trazado_590342" data-name="Trazado 590342" d="M328.748,169.916a.849.849,0,1,0,0-1.2.849.849,0,0,0,0,1.2" transform="translate(-297.224 -105.669)" fill="#414f50"/>
          <path id="Trazado_590343" data-name="Trazado 590343" d="M318.69,170.954a.849.849,0,1,0,0-1.2.849.849,0,0,0,0,1.2" transform="translate(-290.915 -106.319)" fill="#414f50"/>
          <path id="Trazado_590344" data-name="Trazado 590344" d="M311.739,170.953a.848.848,0,0,1-.357,1.309,5.067,5.067,0,0,0,.357-1.309" transform="translate(-286.487 -107.228)" fill="#414f50"/>
          <path id="Trazado_590345" data-name="Trazado 590345" d="M349.409,177.171a.87.87,0,1,0,.006-1.23.87.87,0,0,0-.006,1.23" transform="translate(-310.181 -110.199)" fill="#414f50"/>
          <path id="Trazado_590346" data-name="Trazado 590346" d="M339.669,179.094a.87.87,0,1,0,.006-1.23.87.87,0,0,0-.006,1.23" transform="translate(-304.072 -111.405)" fill="#414f50"/>
          <path id="Trazado_590347" data-name="Trazado 590347" d="M329.586,180.573a.87.87,0,1,0,.006-1.23.87.87,0,0,0-.006,1.23" transform="translate(-297.748 -112.332)" fill="#414f50"/>
          <path id="Trazado_590348" data-name="Trazado 590348" d="M319.275,181.587a.87.87,0,1,0,.006-1.23.87.87,0,0,0-.006,1.23" transform="translate(-291.28 -112.968)" fill="#414f50"/>
          <path id="Trazado_590349" data-name="Trazado 590349" d="M308.846,182.118a.87.87,0,1,0,.006-1.23.87.87,0,0,0-.006,1.23" transform="translate(-284.739 -113.301)" fill="#414f50"/>
          <path id="Trazado_590350" data-name="Trazado 590350" d="M360.266,185.47a.892.892,0,0,0,1.091.142c-.151-.542-.3-1.1-.451-1.656a.89.89,0,0,0-.64,1.514" transform="translate(-316.989 -115.384)" fill="#414f50"/>
          <path id="Trazado_590351" data-name="Trazado 590351" d="M350.744,187.829a.891.891,0,1,0,.012-1.26.891.891,0,0,0-.012,1.26" transform="translate(-311.017 -116.863)" fill="#414f50"/>
          <path id="Trazado_590352" data-name="Trazado 590352" d="M340.759,189.753a.891.891,0,1,0,.012-1.26.891.891,0,0,0-.012,1.26" transform="translate(-304.754 -118.07)" fill="#414f50"/>
          <path id="Trazado_590353" data-name="Trazado 590353" d="M330.426,191.22a.891.891,0,1,0,.012-1.26.891.891,0,0,0-.012,1.26" transform="translate(-298.272 -118.99)" fill="#414f50"/>
          <path id="Trazado_590354" data-name="Trazado 590354" d="M319.861,192.211a.891.891,0,1,0,.012-1.26.891.891,0,0,0-.012,1.26" transform="translate(-291.646 -119.611)" fill="#414f50"/>
          <path id="Trazado_590355" data-name="Trazado 590355" d="M309.177,192.705a.891.891,0,1,0,.012-1.26.891.891,0,0,0-.012,1.26" transform="translate(-284.944 -119.921)" fill="#414f50"/>
          <path id="Trazado_590356" data-name="Trazado 590356" d="M298.491,192.683a.891.891,0,1,0,.012-1.26.891.891,0,0,0-.012,1.26" transform="translate(-278.242 -119.907)" fill="#414f50"/>
          <path id="Trazado_590357" data-name="Trazado 590357" d="M289.513,192.961a.89.89,0,0,0,.909-1.406,7.637,7.637,0,0,1-.773.211c-.009.072-.018.143-.026.215q-.058.485-.11.98" transform="translate(-272.77 -120.15)" fill="#414f50"/>
          <path id="Trazado_590358" data-name="Trazado 590358" d="M361.835,196.1a.911.911,0,0,0,1.289.018.9.9,0,0,0,.231-.369h0q-.154-.513-.3-.995a.912.912,0,0,0-1.224,1.348" transform="translate(-317.971 -122.03)" fill="#414f50"/>
          <path id="Trazado_590359" data-name="Trazado 590359" d="M352.077,198.474a.912.912,0,1,0,.018-1.289.912.912,0,0,0-.018,1.289" transform="translate(-311.851 -123.519)" fill="#414f50"/>
          <path id="Trazado_590360" data-name="Trazado 590360" d="M341.848,200.4a.912.912,0,1,0,.018-1.289.912.912,0,0,0-.018,1.289" transform="translate(-305.435 -124.726)" fill="#414f50"/>
          <path id="Trazado_590361" data-name="Trazado 590361" d="M331.265,201.854a.912.912,0,1,0,.018-1.289.912.912,0,0,0-.018,1.289" transform="translate(-298.797 -125.639)" fill="#414f50"/>
          <path id="Trazado_590362" data-name="Trazado 590362" d="M320.445,202.821a.912.912,0,1,0,.018-1.289.912.912,0,0,0-.018,1.289" transform="translate(-292.01 -126.246)" fill="#414f50"/>
          <path id="Trazado_590363" data-name="Trazado 590363" d="M309.508,203.279a.912.912,0,1,0,.018-1.289.912.912,0,0,0-.018,1.289" transform="translate(-285.15 -126.533)" fill="#414f50"/>
          <path id="Trazado_590364" data-name="Trazado 590364" d="M298.569,203.209a.912.912,0,1,0,.018-1.289.912.912,0,0,0-.018,1.289" transform="translate(-278.289 -126.489)" fill="#414f50"/>
          <path id="Trazado_590365" data-name="Trazado 590365" d="M288.608,202.722a.912.912,0,1,0,.131-1.6c-.04.489-.084,1.028-.131,1.6" transform="translate(-272.203 -126.102)" fill="#414f50"/>
          <path id="Trazado_590366" data-name="Trazado 590366" d="M363.4,206.732a.933.933,0,1,0,.024-1.319.933.933,0,0,0-.024,1.319" transform="translate(-318.953 -128.679)" fill="#414f50"/>
          <path id="Trazado_590367" data-name="Trazado 590367" d="M353.411,209.118a.933.933,0,1,0,.024-1.319.933.933,0,0,0-.024,1.319" transform="translate(-312.685 -130.175)" fill="#414f50"/>
          <path id="Trazado_590368" data-name="Trazado 590368" d="M342.938,211.044a.933.933,0,1,0,.024-1.319.933.933,0,0,0-.024,1.319" transform="translate(-306.116 -131.383)" fill="#414f50"/>
          <path id="Trazado_590369" data-name="Trazado 590369" d="M332.1,212.487a.933.933,0,1,0,.024-1.319.933.933,0,0,0-.024,1.319" transform="translate(-299.321 -132.288)" fill="#414f50"/>
          <path id="Trazado_590370" data-name="Trazado 590370" d="M321.031,213.43a.933.933,0,1,0,.024-1.319.933.933,0,0,0-.024,1.319" transform="translate(-292.375 -132.879)" fill="#414f50"/>
          <path id="Trazado_590371" data-name="Trazado 590371" d="M309.839,213.852a.933.933,0,1,0,.023-1.319.933.933,0,0,0-.023,1.319" transform="translate(-285.355 -133.144)" fill="#414f50"/>
          <path id="Trazado_590372" data-name="Trazado 590372" d="M298.648,213.734a.933.933,0,1,0,.023-1.319.933.933,0,0,0-.023,1.319" transform="translate(-278.336 -133.07)" fill="#414f50"/>
          <path id="Trazado_590373" data-name="Trazado 590373" d="M287.793,212.956a.886.886,0,0,0,.085.1.933.933,0,1,0,.023-1.319l-.007.007c-.033.4-.066.8-.1,1.212" transform="translate(-271.691 -132.645)" fill="#414f50"/>
          <path id="Trazado_590374" data-name="Trazado 590374" d="M364.973,217.353A.954.954,0,1,0,365,216a.954.954,0,0,0-.029,1.349" transform="translate(-319.936 -135.319)" fill="#414f50"/>
          <path id="Trazado_590375" data-name="Trazado 590375" d="M354.745,219.753a.954.954,0,1,0,.029-1.349.954.954,0,0,0-.029,1.349" transform="translate(-313.52 -136.825)" fill="#414f50"/>
          <path id="Trazado_590376" data-name="Trazado 590376" d="M344.027,221.679a.954.954,0,1,0,.029-1.349.953.953,0,0,0-.029,1.349" transform="translate(-306.798 -138.033)" fill="#414f50"/>
          <path id="Trazado_590377" data-name="Trazado 590377" d="M332.943,223.111a.954.954,0,1,0,.029-1.349.954.954,0,0,0-.029,1.349" transform="translate(-299.845 -138.931)" fill="#414f50"/>
          <path id="Trazado_590378" data-name="Trazado 590378" d="M321.616,224.03a.954.954,0,1,0,.029-1.349.954.954,0,0,0-.029,1.349" transform="translate(-292.741 -139.507)" fill="#414f50"/>
          <path id="Trazado_590379" data-name="Trazado 590379" d="M310.169,224.415a.954.954,0,1,0,.029-1.349.953.953,0,0,0-.029,1.349" transform="translate(-285.561 -139.749)" fill="#414f50"/>
          <path id="Trazado_590380" data-name="Trazado 590380" d="M298.726,224.249a.954.954,0,1,0,.029-1.349.954.954,0,0,0-.029,1.349" transform="translate(-278.383 -139.645)" fill="#414f50"/>
          <path id="Trazado_590381" data-name="Trazado 590381" d="M287.41,223.51a.954.954,0,1,0,.029-1.349.954.954,0,0,0-.029,1.349" transform="translate(-271.285 -139.181)" fill="#414f50"/>
          <path id="Trazado_590382" data-name="Trazado 590382" d="M366.543,227.989a.975.975,0,1,0,.035-1.378.975.975,0,0,0-.035,1.378" transform="translate(-320.918 -141.97)" fill="#414f50"/>
          <path id="Trazado_590383" data-name="Trazado 590383" d="M356.079,230.4a.975.975,0,1,0,.035-1.378.975.975,0,0,0-.035,1.378" transform="translate(-314.355 -143.484)" fill="#414f50"/>
          <path id="Trazado_590384" data-name="Trazado 590384" d="M345.117,232.329a.975.975,0,1,0,.035-1.378.975.975,0,0,0-.035,1.378" transform="translate(-307.479 -144.693)" fill="#414f50"/>
          <path id="Trazado_590385" data-name="Trazado 590385" d="M333.782,233.749a.975.975,0,1,0,.035-1.378.975.975,0,0,0-.035,1.378" transform="translate(-300.369 -145.583)" fill="#414f50"/>
          <path id="Trazado_590386" data-name="Trazado 590386" d="M322.2,234.644a.975.975,0,1,0,.035-1.378.975.975,0,0,0-.035,1.378" transform="translate(-293.105 -146.145)" fill="#414f50"/>
          <path id="Trazado_590387" data-name="Trazado 590387" d="M310.5,234.994a.975.975,0,1,0,.035-1.378.975.975,0,0,0-.035,1.378" transform="translate(-285.766 -146.364)" fill="#414f50"/>
          <path id="Trazado_590388" data-name="Trazado 590388" d="M298.8,234.779a.975.975,0,1,0,.035-1.378.975.975,0,0,0-.035,1.378" transform="translate(-278.43 -146.229)" fill="#414f50"/>
          <path id="Trazado_590389" data-name="Trazado 590389" d="M287.242,233.979a.975.975,0,1,0,.035-1.379.975.975,0,0,0-.035,1.379" transform="translate(-271.178 -145.727)" fill="#414f50"/>
          <path id="Trazado_590390" data-name="Trazado 590390" d="M377.4,236.289a.982.982,0,0,0,.5.286c-.189-.549-.38-1.1-.546-1.6a1,1,0,0,0,.049,1.311" transform="translate(-327.723 -147.387)" fill="#414f50"/>
          <path id="Trazado_590391" data-name="Trazado 590391" d="M368.111,238.626a1,1,0,1,0,.041-1.408,1,1,0,0,0-.041,1.408" transform="translate(-321.9 -148.621)" fill="#414f50"/>
          <path id="Trazado_590392" data-name="Trazado 590392" d="M357.413,241.052a1,1,0,1,0,.041-1.408,1,1,0,0,0-.041,1.408" transform="translate(-315.189 -150.143)" fill="#414f50"/>
          <path id="Trazado_590393" data-name="Trazado 590393" d="M346.206,242.98a1,1,0,1,0,.041-1.408,1,1,0,0,0-.041,1.408" transform="translate(-308.16 -151.352)" fill="#414f50"/>
          <path id="Trazado_590394" data-name="Trazado 590394" d="M334.621,244.389a1,1,0,1,0,.041-1.408,1,1,0,0,0-.041,1.408" transform="translate(-300.894 -152.236)" fill="#414f50"/>
          <path id="Trazado_590395" data-name="Trazado 590395" d="M322.786,245.26a1,1,0,1,0,.041-1.408,1,1,0,0,0-.041,1.408" transform="translate(-293.47 -152.782)" fill="#414f50"/>
          <path id="Trazado_590396" data-name="Trazado 590396" d="M310.831,245.573a1,1,0,1,0,.041-1.408,1,1,0,0,0-.041,1.408" transform="translate(-285.972 -152.979)" fill="#414f50"/>
          <path id="Trazado_590397" data-name="Trazado 590397" d="M298.884,245.31a1,1,0,1,0,.041-1.408,1,1,0,0,0-.041,1.408" transform="translate(-278.478 -152.814)" fill="#414f50"/>
          <path id="Trazado_590398" data-name="Trazado 590398" d="M287.073,244.45a1,1,0,1,0,.041-1.408,1,1,0,0,0-.041,1.408" transform="translate(-271.07 -152.274)" fill="#414f50"/>
          <path id="Trazado_590399" data-name="Trazado 590399" d="M285.083,244.189a97.472,97.472,0,0,0,9.806.908q2.789.112,5.435.044a64.047,64.047,0,0,0,10.624-1.108,43.162,43.162,0,0,0,9.58-2.99c-.069-.2-.142-.4-.215-.614-8.247,3.752-18.014,4.324-25.384,4.029a96.974,96.974,0,0,1-9.8-.91c-.014.22-.027.436-.041.642" transform="translate(-269.992 -150.805)" fill="#414f50"/>
          <path id="Trazado_590400" data-name="Trazado 590400" d="M298.694,160.768c-.009.165-.022.334-.041.5a9.592,9.592,0,0,1-1.2,3.829c-1.425,2.479-3.995,4.183-7.642,5.067q.032-.271.065-.538c3.409-.861,5.811-2.468,7.14-4.781a9.057,9.057,0,0,0,1.125-3.574c.018-.171.032-.34.043-.5a11.333,11.333,0,0,0-.374-3.666.253.253,0,0,1,.482-.152,11.536,11.536,0,0,1,.407,3.813" transform="translate(-272.955 -98.337)" fill="#414f50"/>
          <path id="Trazado_590401" data-name="Trazado 590401" d="M317.27,160.122a23.03,23.03,0,0,1-2.809,1.094c-.161.052-.323.1-.486.151a46.672,46.672,0,0,1-11.746,1.669q-.522.013-1.031.019c-.174,0-.347,0-.517,0-.129,0-.258,0-.385,0-2.574,0-4.84-.136-6.432-.267.036-.17.072-.337.107-.5,1.665.135,4.053.274,6.753.258.171,0,.343,0,.516,0,.324,0,.653-.011.984-.02a46.242,46.242,0,0,0,11.585-1.639h0c.163-.048.323-.1.484-.151a22.394,22.394,0,0,0,2.858-1.121c.038.163.078.33.119.5" transform="translate(-275.499 -100.119)" fill="#414f50"/>
          <path id="Trazado_590402" data-name="Trazado 590402" d="M351.7,165.648a7.905,7.905,0,0,1-4.228-4.067,16.245,16.245,0,0,1-.873-1.971q-.089-.245-.167-.476h0a16.223,16.223,0,0,1-.549-2.016.253.253,0,1,1,.5-.093,15.96,15.96,0,0,0,.538,1.959q.077.23.169.476a15.557,15.557,0,0,0,.839,1.9,7.59,7.59,0,0,0,3.623,3.705c.051.2.1.392.153.588" transform="translate(-308.128 -98.362)" fill="#414f50"/>
          <path id="Trazado_590403" data-name="Trazado 590403" d="M310.868,93.534c-.008.023-.012.042-.019.065a6.091,6.091,0,0,1-.264.725,11.429,11.429,0,0,1-2.061,3.062c-.115.126-.183.191-.183.191s0,.015,0,.027c.007.073.015.145.023.225a10.213,10.213,0,0,0,.16,1.077c.993,4.647.927,4.833,1.329,6.807a53.5,53.5,0,0,1-22.33,1.718c.328-6.28.71-3.784.027-8.338a50.873,50.873,0,0,0-2.4-8.785c-.046-.13-.092-.26-.141-.39-.355-.966-.733-1.928-1.13-2.852-1.737-4.047-2.016-8.6,2.157-9.995a30.076,30.076,0,0,1,3.257-.84c.294-.061.584-.118.859-.171,1.538-.29,2.741-.454,2.741-.454l7.376.092c.725.084,1.378.176,1.966.286.516.092.981.2,1.4.317,3.757,1.046,3.894,3.024,4.57,6.589a26.96,26.96,0,0,0,.771,2.978c.1.3.2.6.3.9.955,2.833,2,5.269,1.588,6.769" transform="translate(-268.49 -47.423)" fill="#5a918e"/>
          <path id="Trazado_590404" data-name="Trazado 590404" d="M350.412,106.2a.235.235,0,0,0,.186-.091c2.743-3.52,1.773-5.688,1.064-7.271-.133-.3-.259-.578-.352-.846-.638-1.837-2.067-7.265-2.081-7.319a.236.236,0,0,0-.457.12c.015.055,1.447,5.5,2.092,7.354.1.287.229.577.367.884.7,1.556,1.563,3.492-1.005,6.788a.236.236,0,0,0,.186.381" transform="translate(-309.935 -56.76)" fill="#285b5c"/>
          <path id="Trazado_590405" data-name="Trazado 590405" d="M317.067,150.671l.452,2.159s-11.321,3.891-22.678,1.753l.368-2s9.031,1.78,21.857-1.908" transform="translate(-276.112 -94.506)" fill="#285b5c"/>
          <path id="Trazado_590406" data-name="Trazado 590406" d="M317.166,76.662l.707,6.526c-2.692-.523-8.247-4.217-8.279-7.127Z" transform="translate(-285.365 -47.708)" fill="#f49d8b"/>
          <path id="Trazado_590407" data-name="Trazado 590407" d="M330.079,133.869c0,.007,0,.015,0,.027.008.072.015.145.023.225a12.575,12.575,0,0,1-5.12-.053,11.634,11.634,0,0,0-7.338,1.088.2.2,0,0,1-.275-.076.2.2,0,0,1,.073-.275,11.865,11.865,0,0,1,7.62-1.134,11.97,11.97,0,0,0,5.2.008c-.115.126-.183.191-.183.191" transform="translate(-290.228 -83.715)" fill="#285b5c"/>
          <path id="Trazado_590408" data-name="Trazado 590408" d="M321.6,100.086c-2.462,0-7.484-3.526-7.7-3.675a.2.2,0,1,1,.233-.33c.051.036,5.13,3.6,7.463,3.6,2.233,0,2.728-2.439,2.733-2.464a.2.2,0,1,1,.4.076c-.005.028-.566,2.792-3.129,2.792" transform="translate(-288.016 -60.242)" fill="#285b5c"/>
          <path id="Trazado_590409" data-name="Trazado 590409" d="M271.086,86.6l-.348.527-.362.555c-.243.371-.484.747-.723,1.124q-.717,1.132-1.421,2.276c-.467.763-.932,1.528-1.386,2.3s-.9,1.541-1.338,2.315-.86,1.554-1.279,2.332-.816,1.562-1.2,2.346-.759,1.569-1.11,2.355-.672,1.572-.976,2.354l.181-1.719a13.878,13.878,0,0,0,.59,2.894,18.575,18.575,0,0,0,1.2,2.92q.367.72.794,1.424c.283.469.58.933.9,1.387a26.068,26.068,0,0,0,2.062,2.592l.033.036a3.344,3.344,0,0,1-4.745,4.7,29.7,29.7,0,0,1-2.91-3.1c-.448-.551-.88-1.116-1.29-1.7s-.8-1.189-1.168-1.81a25.939,25.939,0,0,1-1.929-3.958,20.757,20.757,0,0,1-1.171-4.449,3.448,3.448,0,0,1,.119-1.523l.063-.2c.3-.965.639-1.906.99-2.833s.727-1.83,1.113-2.727.8-1.774,1.212-2.646.848-1.732,1.289-2.585q1.323-2.558,2.776-5.021.723-1.236,1.485-2.449c.253-.406.508-.81.769-1.214.129-.2.261-.4.4-.607l.42-.627a4.214,4.214,0,0,1,7.021,4.661Z" transform="translate(-250.148 -50.174)" fill="#5a918e"/>
          <path id="Trazado_590410" data-name="Trazado 590410" d="M270.33,171.864a.2.2,0,0,0,.19-.132,6.036,6.036,0,0,1,4.781-3.938.2.2,0,0,0-.034-.4,6.447,6.447,0,0,0-5.127,4.2.2.2,0,0,0,.119.262.2.2,0,0,0,.072.013" transform="translate(-260.611 -104.992)" fill="#285b5c"/>
          <path id="Trazado_590411" data-name="Trazado 590411" d="M273.625,178.239a.347.347,0,1,1-.372-.319.347.347,0,0,1,.372.319" transform="translate(-262.37 -111.597)" fill="#285b5c"/>
          <path id="Trazado_590412" data-name="Trazado 590412" d="M275.827,174.871a.2.2,0,0,0,.144-.346l-1.806-1.821a.2.2,0,1,0-.288.286l1.8,1.821a.2.2,0,0,0,.145.06" transform="translate(-262.926 -108.289)" fill="#285b5c"/>
          <path id="Trazado_590413" data-name="Trazado 590413" d="M288.769,104.889a.2.2,0,0,0,.172-.1l4.386-6.986a.2.2,0,0,0-.344-.216l-4.386,6.986a.2.2,0,0,0,.172.311" transform="translate(-272.176 -61.154)" fill="#285b5c"/>
          <path id="Trazado_590414" data-name="Trazado 590414" d="M298.237,101.337a.2.2,0,0,0,.053-.007l1.746-.474a.2.2,0,0,0-.106-.392l-1.746.474a.2.2,0,0,0,.053.4" transform="translate(-278.115 -63.01)" fill="#285b5c"/>
          <path id="Trazado_590415" data-name="Trazado 590415" d="M269.053,145.01a.2.2,0,0,0,.047-.4,11.417,11.417,0,0,0-2.665-.059.2.2,0,1,0,.035.4,11.3,11.3,0,0,1,2.535.049.2.2,0,0,0,.047.006" transform="translate(-258.179 -90.633)" fill="#285b5c"/>
          <path id="Trazado_590416" data-name="Trazado 590416" d="M270.858,143.068a.2.2,0,0,0,.146-.344c-.378-.39-1.5-1.245-1.55-1.282a.2.2,0,1,0-.246.324c.012.009,1.147.873,1.5,1.241a.2.2,0,0,0,.146.062" transform="translate(-259.984 -88.692)" fill="#285b5c"/>
          <path id="Trazado_590417" data-name="Trazado 590417" d="M282.173,172.609a6.1,6.1,0,0,1,1.692-.18,7.166,7.166,0,0,1,2.536.883c.537.207-.131.888-1.035.792a6.886,6.886,0,0,0-1.978.051,6.416,6.416,0,0,1,1.787.321c.289.119.715.263,1.112.428a5.177,5.177,0,0,1,.54.258c.293.166.5.349.5.549.007.338-.535.344-1.165.292-.255-.021-.524-.051-.777-.073-.108-.009-.212-.018-.311-.022a8.655,8.655,0,0,0-2.088-.07,4.97,4.97,0,0,1,1.377.448c.079.05.172.1.273.163.179.106.382.225.58.346a3.766,3.766,0,0,1,.807.6c.274.33-.677.689-1.58.405a5.414,5.414,0,0,1-.832-.355,3.164,3.164,0,0,0-.67-.283l-.075-.014a.785.785,0,0,0-.365.032s.227.138.5.319l0,0,.045.03c.169.115.349.244.5.365a2.773,2.773,0,0,1,.721,1.161c.071.246.064.456-.083.545s-.482-.034-.86-.229a5.8,5.8,0,0,0-1.714-.749,37.752,37.752,0,0,1-4.132-.526,4.857,4.857,0,0,1-3.119-2.487,3.725,3.725,0,0,0-.18-.349,11.717,11.717,0,0,1,3.846-3.834s.376-.171.863-.349a6.312,6.312,0,0,1,1.474-.384,1.7,1.7,0,0,1,.5.033l.439.064-.339,1.916Z" transform="translate(-263.152 -107.063)" fill="#f49d8b"/>
          <path id="Trazado_590418" data-name="Trazado 590418" d="M317.216,67.165c-2.771,5.074-7.563-.589-7.678-1.823a17.305,17.305,0,0,0,.815-6.109l7.08,2.751q-.034.313-.069.628a27.8,27.8,0,0,0-.218,3.01,14.637,14.637,0,0,0,.071,1.543" transform="translate(-285.331 -37.153)" fill="#f49d8b"/>
          <path id="Trazado_590419" data-name="Trazado 590419" d="M319.738,68.176c-3.731-.937-6.066-4.871-6.066-4.871l6.284,1.861a28.02,28.02,0,0,0-.218,3.01" transform="translate(-287.924 -39.707)" fill="#1b3431"/>
          <path id="Trazado_590420" data-name="Trazado 590420" d="M335.3,50.166s.594-1.746,2.017-1.314,1.375,5.193-1.345,4.986Z" transform="translate(-301.49 -30.599)" fill="#d37363"/>
          <path id="Trazado_590421" data-name="Trazado 590421" d="M331.393,61.366a2.379,2.379,0,1,1,2.618,2.114,2.382,2.382,0,0,1-2.618-2.114m.353-.038a2.024,2.024,0,1,0,1.8-2.227,2.026,2.026,0,0,0-1.8,2.227" transform="translate(-299.031 -36.84)" fill="#f5bf69"/>
          <path id="Trazado_590422" data-name="Trazado 590422" d="M310.475,41.067c.719,1.912,5.638,4.184,7.679,3.263,1.239-.559,2.341-1.7,2.972-4.229,0-.013.006-.027.01-.04.037-.149.071-.3.1-.443.059-.264.108-.521.149-.767.009-.058.019-.116.027-.172q.035-.23.057-.445.029-.264.038-.5c.1-2.545.261-5.4-2.05-7.013s-5.929-2.069-8.029.195a9.423,9.423,0,0,0-1.522,5.655c.037,3.68.045,3.115.565,4.5" transform="translate(-285.564 -18.418)" fill="#f49d8b"/>
          <path id="Trazado_590423" data-name="Trazado 590423" d="M326.12,61.7a.958.958,0,0,0,.11,0,.143.143,0,1,0-.032-.284.918.918,0,0,1-.824-.387.143.143,0,1,0-.239.158,1.181,1.181,0,0,0,.985.517" transform="translate(-295.099 -38.24)" fill="#d37363"/>
          <path id="Trazado_590424" data-name="Trazado 590424" d="M327.264,57.506a2.133,2.133,0,0,0,.315-.016.143.143,0,0,0-.045-.283,1.789,1.789,0,0,1-2.067-1.455.143.143,0,0,0-.28.059,2.014,2.014,0,0,0,2.077,1.7" transform="translate(-295.145 -34.898)" fill="#1b3431"/>
          <path id="Trazado_590425" data-name="Trazado 590425" d="M329.991,50.6a1.36,1.36,0,0,1-.275-.009.171.171,0,0,1,.046-.339,1.019,1.019,0,0,0,.782-.228,8.118,8.118,0,0,1-.754-2.653.171.171,0,0,1,.34-.042,6.667,6.667,0,0,0,.77,2.6.172.172,0,0,1,.006.227,1.4,1.4,0,0,1-.914.449" transform="translate(-297.894 -29.589)" fill="#1b3431"/>
          <path id="Trazado_590426" data-name="Trazado 590426" d="M337.313,55.713c.037-.149.071-.3.1-.443.058-.264.108-.521.149-.767.01-.058.019-.116.027-.172l-.127-.008c-.956-.045-1.748.232-1.765.617s.7.713,1.614.773" transform="translate(-301.739 -34.07)" fill="#d37363"/>
          <path id="Trazado_590427" data-name="Trazado 590427" d="M315.713,53.6c-.018.385.743.734,1.7.779s1.746-.231,1.765-.616-.743-.734-1.7-.779-1.746.231-1.765.616" transform="translate(-289.204 -33.23)" fill="#d37363"/>
          <path id="Trazado_590428" data-name="Trazado 590428" d="M320.393,48.8a2.318,2.318,0,1,1,2.15-2.476,2.321,2.321,0,0,1-2.15,2.476m-.3-4.284a1.976,1.976,0,1,0,2.11,1.832,1.978,1.978,0,0,0-2.11-1.832" transform="translate(-290.583 -27.702)" fill="#fff"/>
          <path id="Trazado_590429" data-name="Trazado 590429" d="M334.716,49.623a2.318,2.318,0,1,1,2.15-2.476,2.321,2.321,0,0,1-2.15,2.476m-.3-4.284a1.976,1.976,0,1,0,2.11,1.832,1.978,1.978,0,0,0-2.11-1.832" transform="translate(-299.567 -28.22)" fill="#fff"/>
          <path id="Trazado_590430" data-name="Trazado 590430" d="M330.668,50.572a.572.572,0,0,0-.794-.075l-.2-.275a.9.9,0,0,1,1.258.129Z" transform="translate(-297.959 -31.377)" fill="#fff"/>
          <path id="Trazado_590431" data-name="Trazado 590431" d="M315.464,47.754a.172.172,0,0,1-.138-.055,3.112,3.112,0,0,0-1.53-.357.171.171,0,0,1,.031-.341c1.41.127,1.712.418,1.758.475a.171.171,0,0,1-.121.278" transform="translate(-287.904 -29.48)" fill="#fff"/>
          <path id="Trazado_590432" data-name="Trazado 590432" d="M342.22,50.323a.164.164,0,0,1-.1-.025,2.129,2.129,0,0,0-.923-.192.171.171,0,0,1,0-.342,2.5,2.5,0,0,1,1.1.243.171.171,0,0,1-.078.316" transform="translate(-305.079 -31.214)" fill="#fff"/>
          <path id="Trazado_590433" data-name="Trazado 590433" d="M324.242,40.752a1.957,1.957,0,0,0-1.747-.544c-.578.126-.515.7.156.717a2.137,2.137,0,0,1,1.159.283.316.316,0,0,0,.432-.456" transform="translate(-293.21 -25.194)" fill="#1b3431"/>
          <path id="Trazado_590434" data-name="Trazado 590434" d="M334.789,41.631a1.959,1.959,0,0,1,1.8-.331c.558.195.427.758-.241.693a2.137,2.137,0,0,0-1.184.143.316.316,0,0,1-.375-.5" transform="translate(-301.106 -25.842)" fill="#1b3431"/>
          <path id="Trazado_590435" data-name="Trazado 590435" d="M307.1,45.773a1.878,1.878,0,0,0-2.33-.886c-1.518.616-.989,5.839,1.976,5.34Z" transform="translate(-281.825 -28.062)" fill="#f49d8b"/>
          <path id="Trazado_590436" data-name="Trazado 590436" d="M302.9,56.633c.083.1.131.2.215.3a2.025,2.025,0,1,0,1.289.1c-.435-.136-.5-.317-.51-.5a2.379,2.379,0,1,1-2.651,2.613,2.414,2.414,0,0,1,1.657-2.515" transform="translate(-280.117 -35.461)" fill="#f5bf69"/>
          <path id="Trazado_590437" data-name="Trazado 590437" d="M307.37,50.809a.141.141,0,0,1-.106.169.143.143,0,0,1-.03,0,.141.141,0,0,1-.138-.11,2.9,2.9,0,0,0-.461-.962c-.3.251-.534.484-.538.487a.137.137,0,0,1-.1.041.145.145,0,0,1-.1-.042.142.142,0,0,1,0-.2c.01-.01.247-.243.552-.5a1.721,1.721,0,0,0-.869-.5.141.141,0,0,1,.062-.275,2.563,2.563,0,0,1,1.726,1.888" transform="translate(-282.781 -30.683)" fill="#1b3431"/>
          <path id="Trazado_590438" data-name="Trazado 590438" d="M323.959,48.971c-.02.344.124.633.321.644s.372-.259.392-.6-.124-.633-.321-.644-.372.259-.392.6" transform="translate(-294.375 -30.338)" fill="#1b3431"/>
          <path id="Trazado_590439" data-name="Trazado 590439" d="M334.293,49.792c-.02.344.124.633.321.644s.372-.259.392-.6-.124-.633-.321-.644-.372.259-.392.6" transform="translate(-300.857 -30.853)" fill="#1b3431"/>
          <path id="Trazado_590440" data-name="Trazado 590440" d="M321.779,31.646a5.408,5.408,0,0,0,1.6-.085l.218-1.484.324,1.314a1.983,1.983,0,0,0,1.3-1.588s-.63-6-9.5-1.975c0,0-.138,3.336,6.058,3.819" transform="translate(-289.209 -16.582)" fill="#1b3431"/>
          <path id="Trazado_590441" data-name="Trazado 590441" d="M312.143,31.076s-.559,4.431-2.516,4.941a3.781,3.781,0,0,0-1.242-.751c-.8-.3,2.728-6.975,3.812-5.41.169.244-.053,1.22-.053,1.22" transform="translate(-284.535 -18.578)" fill="#1b3431"/>
          <path id="Trazado_590442" data-name="Trazado 590442" d="M309.68,42.881a2.364,2.364,0,0,1,1.093,1.832c.142,1.33.293,4.618,1.893,5.3,0,0-.607-.392-1.035-3.18-.288-1.873.915-4.208-.029-5s-1.921,1.049-1.921,1.049" transform="translate(-285.42 -26.114)" fill="#1b3431"/>
        </g>
      </g>
      <g id="Grupo_848414" data-name="Grupo 848414">
        <g id="Grupo_848413" data-name="Grupo 848413" clip-path="url(#clip-path)">
          <path id="Trazado_590443" data-name="Trazado 590443" d="M73.166,240.708a.449.449,0,0,1-.449-.441,7.648,7.648,0,0,1,3.82-6.782.449.449,0,0,1,.419.794,6.786,6.786,0,0,0-1.715,1.444,6.547,6.547,0,0,0-1.626,4.528.449.449,0,0,1-.441.457h-.008" transform="translate(-45.61 -146.418)" fill="#5a918e"/>
          <path id="Trazado_590444" data-name="Trazado 590444" d="M68.912,193.52s-5.216-9.837,13.495-16.734a1.292,1.292,0,0,1,1.71,1.5c-1.18,5.121-5.053,17.095-15.2,15.234" transform="translate(-42.805 -110.835)" fill="#285b5c"/>
          <path id="Trazado_590445" data-name="Trazado 590445" d="M55.511,226.781a.425.425,0,0,1-.065,0,.449.449,0,0,1-.38-.509,19.359,19.359,0,0,1,8.721-13.556.452.452,0,0,1,.618.154.447.447,0,0,1-.153.614l-.01.006a16.933,16.933,0,0,0-3.768,3.221,18.272,18.272,0,0,0-4.519,9.689.449.449,0,0,1-.444.385" transform="translate(-34.537 -133.38)" fill="#285b5c"/>
          <path id="Trazado_590446" data-name="Trazado 590446" d="M58.92,236.2H58.9a.449.449,0,0,1-.427-.47,13.516,13.516,0,0,0-2.275-7.357.449.449,0,1,1,.734-.518,14.235,14.235,0,0,1,2.438,7.918.45.45,0,0,1-.448.428" transform="translate(-35.197 -142.799)" fill="#285b5c"/>
          <path id="Trazado_590447" data-name="Trazado 590447" d="M66.347,226.305h-.012a.449.449,0,0,1-.437-.461l.382-14.565a.449.449,0,1,1,.9.024L66.8,225.868a.449.449,0,0,1-.449.437" transform="translate(-41.333 -132.247)" fill="#5a918e"/>
          <path id="Trazado_590448" data-name="Trazado 590448" d="M35.043,200.294s-10.611,3.373-14.052-16.269a1.292,1.292,0,0,1,1.781-1.414c4.828,2.077,15.916,8.028,12.271,17.684" transform="translate(-13.154 -114.472)" fill="#285b5c"/>
          <path id="Trazado_590449" data-name="Trazado 590449" d="M77,216.187s9.539,5.743,17.444-12.564a1.292,1.292,0,0,0-1.4-1.789c-5.178.9-17.345,4.116-16.039,14.353" transform="translate(-48.235 -126.585)" fill="#5a918e"/>
          <path id="Trazado_590450" data-name="Trazado 590450" d="M61.694,183.957a1.874,1.874,0,0,1-3.475-.26c-2.263-7.225-6.054-22.539,1.8-24.3,8.808-1.972,5.856,15.914,1.679,24.556" transform="translate(-34.679 -99.887)" fill="#5a918e"/>
          <path id="Trazado_590451" data-name="Trazado 590451" d="M67.2,192.883h-.01a.244.244,0,0,1-.235-.255l.829-20.474a.245.245,0,0,1,.489.02l-.829,20.474a.245.245,0,0,1-.245.235" transform="translate(-41.999 -107.833)" fill="#285b5c"/>
          <path id="Trazado_590452" data-name="Trazado 590452" d="M77.454,224.015a.245.245,0,0,1-.155-.435L88.638,214.3a.245.245,0,0,1,.31.379L77.609,223.96a.244.244,0,0,1-.155.056" transform="translate(-48.428 -134.383)" fill="#285b5c"/>
          <path id="Trazado_590453" data-name="Trazado 590453" d="M60.816,247.983l-.633,2.9-.206.946-.437,2-.207.946L57.5,263.18H40.956l-1.835-8.407-.207-.946-.437-2-.206-.946-.633-2.9Z" transform="translate(-23.609 -155.544)" fill="#f4ad4b"/>
          <path id="Trazado_590454" data-name="Trazado 590454" d="M61.248,255.758l-.206.946h-21.5l-.206-.946Z" transform="translate(-24.673 -160.42)" fill="#d57635"/>
          <path id="Trazado_590455" data-name="Trazado 590455" d="M61.687,263.66l-.207.946H41.268l-.207-.946Z" transform="translate(-25.755 -165.377)" fill="#d57635"/>
          <path id="Trazado_590456" data-name="Trazado 590456" d="M58.743,353.788H32.621a.3.3,0,0,1-.3-.3v-1.514a.3.3,0,0,1,.3-.3H58.743a.3.3,0,0,1,.3.3v1.514a.3.3,0,0,1-.3.3" transform="translate(-20.272 -220.581)" fill="#ba4131"/>
          <path id="Trazado_590457" data-name="Trazado 590457" d="M34.234,288.751H58.663a.735.735,0,0,1,.735.735v3a.735.735,0,0,1-.735.735H34.234a.735.735,0,0,1-.735-.735v-3a.735.735,0,0,1,.735-.735" transform="translate(-21.012 -181.115)" fill="#d76751"/>
          <path id="Trazado_590458" data-name="Trazado 590458" d="M36.516,300.748l-.744,2.4-10.355,33.38H23.392l6.567-32.7.619-3.08Z" transform="translate(-14.672 -188.64)" fill="#d76751"/>
          <path id="Trazado_590459" data-name="Trazado 590459" d="M41.629,300.748h5.937l-.744,2.4-5.812.681Z" transform="translate(-25.723 -188.64)" fill="#ba4131"/>
          <path id="Trazado_590460" data-name="Trazado 590460" d="M91.164,336.526H89.14L78.478,302.159l-.438-1.411h5.937l.15.748h0Z" transform="translate(-48.95 -188.64)" fill="#d76751"/>
          <path id="Trazado_590461" data-name="Trazado 590461" d="M84.127,301.5l-5.649.663-.438-1.411h5.937Z" transform="translate(-48.95 -188.64)" fill="#ba4131"/>
          <path id="Trazado_590462" data-name="Trazado 590462" d="M58.827,341.441H32.537a.217.217,0,0,1-.217-.217v-1.682a.217.217,0,0,1,.217-.217h26.29a.217.217,0,0,1,.217.217v1.682a.217.217,0,0,1-.217.217" transform="translate(-20.272 -212.836)" fill="#d76751"/>
          <path id="Trazado_590463" data-name="Trazado 590463" d="M450.14,371.764v10.059H406.365a5.03,5.03,0,0,1,0-10.059Z" transform="translate(-251.732 -233.184)" fill="#d76751"/>
          <path id="Trazado_590464" data-name="Trazado 590464" d="M457.923,371.764v10.059H418.774a5.03,5.03,0,0,1,0-10.059Z" transform="translate(-259.516 -233.184)" fill="#ba4131"/>
          <path id="Trazado_590465" data-name="Trazado 590465" d="M460.454,382.9H420.236a2.455,2.455,0,0,1-2.455-2.455v-2a2.456,2.456,0,0,1,2.455-2.456h40.218Z" transform="translate(-262.047 -235.829)" fill="#fff"/>
          <path id="Trazado_590466" data-name="Trazado 590466" d="M426.472,379.976l39.271-.048v-.516l-39.272.048a.258.258,0,0,0,0,.516" transform="translate(-267.337 -237.981)" fill="#e9cec2"/>
          <path id="Trazado_590467" data-name="Trazado 590467" d="M426.472,384.614l39.271-.048v-.516l-39.272.048a.258.258,0,0,0,0,.516" transform="translate(-267.337 -240.89)" fill="#e9cec2"/>
          <path id="Trazado_590468" data-name="Trazado 590468" d="M426.472,389.463l39.271-.048V388.9l-39.272.048a.258.258,0,0,0,0,.516" transform="translate(-267.337 -243.931)" fill="#e9cec2"/>
          <path id="Trazado_590469" data-name="Trazado 590469" d="M471.153,345v10.059H427.378a5.03,5.03,0,0,1,0-10.059Z" transform="translate(-264.912 -216.396)" fill="#f4ad4b"/>
          <path id="Trazado_590470" data-name="Trazado 590470" d="M478.936,345v10.059H439.787a5.03,5.03,0,0,1,0-10.059Z" transform="translate(-272.696 -216.396)" fill="#d57635"/>
          <path id="Trazado_590471" data-name="Trazado 590471" d="M481.467,356.132H441.25a2.456,2.456,0,0,1-2.456-2.456v-2a2.456,2.456,0,0,1,2.456-2.456h40.218Z" transform="translate(-275.227 -219.041)" fill="#fff"/>
          <path id="Trazado_590472" data-name="Trazado 590472" d="M447.485,353.211l39.272-.048v-.516l-39.271.048a.258.258,0,0,0,0,.516" transform="translate(-280.517 -221.193)" fill="#e9cec2"/>
          <path id="Trazado_590473" data-name="Trazado 590473" d="M447.485,357.85l39.272-.048v-.516l-39.271.048a.258.258,0,0,0,0,.516" transform="translate(-280.517 -224.103)" fill="#e9cec2"/>
          <path id="Trazado_590474" data-name="Trazado 590474" d="M447.485,362.7l39.272-.048v-.516l-39.271.048a.258.258,0,0,0,0,.515" transform="translate(-280.517 -227.144)" fill="#e9cec2"/>
          <path id="Trazado_590475" data-name="Trazado 590475" d="M454.4,318.25v10.059H410.628a5.03,5.03,0,0,1,0-10.059Z" transform="translate(-254.406 -199.618)" fill="#78b1de"/>
          <path id="Trazado_590476" data-name="Trazado 590476" d="M462.186,318.25v10.059H423.037a5.03,5.03,0,0,1,0-10.059Z" transform="translate(-262.19 -199.618)" fill="#4e88af"/>
          <path id="Trazado_590477" data-name="Trazado 590477" d="M464.717,329.382H424.5a2.455,2.455,0,0,1-2.456-2.455v-2a2.456,2.456,0,0,1,2.456-2.456h40.217Z" transform="translate(-264.721 -202.262)" fill="#fff"/>
          <path id="Trazado_590478" data-name="Trazado 590478" d="M430.735,326.461l39.271-.048V325.9l-39.272.048a.258.258,0,0,0,0,.516" transform="translate(-270.011 -204.414)" fill="#e9cec2"/>
          <path id="Trazado_590479" data-name="Trazado 590479" d="M430.735,331.1l39.271-.048v-.516l-39.272.048a.258.258,0,0,0,0,.516" transform="translate(-270.011 -207.324)" fill="#e9cec2"/>
          <path id="Trazado_590480" data-name="Trazado 590480" d="M430.735,335.948l39.271-.048v-.516l-39.272.048a.258.258,0,0,0,0,.515" transform="translate(-270.011 -210.365)" fill="#e9cec2"/>
          <path id="Trazado_590481" data-name="Trazado 590481" d="M507.7,325.918v4.934l1.547-1.547,1.6,1.6V325.9Z" transform="translate(-318.446 -204.414)" fill="#d76751"/>
        </g>
      </g>
    </g>
  </g>
</svg>
