<svg xmlns="http://www.w3.org/2000/svg" width="81.396" height="81.396" viewBox="0 0 81.396 81.396">
  <g id="Grupo_847295" data-name="Grupo 847295" transform="translate(-240 -1286.742)">
    <rect id="Rectángulo_38178" data-name="Rectángulo 38178" width="81.396" height="81.396" transform="translate(240 1286.742)" fill="none"/>
    <g id="Grupo_847401" data-name="Grupo 847401" transform="translate(-196.469 3096.688)">
      <path id="Trazado_588044" data-name="Trazado 588044" d="M450.156-1739.778c-.572.325-1.092-.074-1.636-.128a.315.315,0,0,1-.3-.43c.022-.079.039-.16.064-.237,1.505-4.655.307-9.295-.314-13.872-.733-5.4-.018-10.305,3-14.916,1.833-2.8,4-5.632,4.844-8.766.834-3.1.194-6.6.2-9.918,0-2.5-.01-5,0-7.507a2.972,2.972,0,0,1,3.267-3.287q18.4-.013,36.792,0a2.967,2.967,0,0,1,3.251,3.3c.013,4.225.022,8.45-.013,12.675a1.4,1.4,0,0,0,.829,1.435c1.9,1.045,3.756,2.176,5.65,3.236a1.228,1.228,0,0,1,.533,2c-2.135,3.636-4.2,7.312-6.342,10.945a4.5,4.5,0,0,0-.667,2.418c.028,6.481.017,12.962.013,19.443,0,2.534-1.065,3.618-3.562,3.617q-17.41-.012-34.821-.034a14.031,14.031,0,0,0-.024-1.6,6.586,6.586,0,0,1,1.33-4.821,9.811,9.811,0,0,0,1.659-5.8,12.808,12.808,0,0,0-1.439-5.781,2.956,2.956,0,0,1,.2-3.294c.966-1.416,1.754-2.954,2.6-4.448.749-1.316.526-2.486-.564-3.073-1.062-.572-2.068-.188-2.827,1.113-1.4,2.4-2.833,4.793-4.156,7.24-.473.876-.863.827-1.569.35-.481-.325-.778-.558-.324-1.114.284-.347.171-.787.172-1.19q.009-5.348-.009-10.7c0-.226.215-.57-.234-.716-1.025,1.775-1.944,3.616-3.09,5.3-2.859,4.211-3.42,8.753-2.733,13.724C450.616-1749.7,451.768-1744.741,450.156-1739.778Zm35.645-7.206c-.341.223-.681.449-1.025.668-.5.318-.931.892-1.639.509-.764-.413-.53-1.119-.464-1.753.278-2.651.593-5.3.842-7.952a4.916,4.916,0,0,1,.671-2.07q6.344-10.952,12.669-21.915a3.489,3.489,0,0,0,.512-1.846c-.024-4.594-.011-9.188-.014-13.783,0-1.6-.146-1.745-1.772-1.745q-17.9,0-35.809,0c-1.676,0-1.791.119-1.791,1.848q0,14.337,0,28.673,0,.582,0,1.164a39.543,39.543,0,0,0,2.428-3.714,3.862,3.862,0,0,1,4.8-1.667,4.125,4.125,0,0,1,2.589,3.97c-.545,2.126-1.862,3.864-2.966,5.69a2.612,2.612,0,0,0-.115,3.207,13.5,13.5,0,0,1-1.357,13.54,2.856,2.856,0,0,0-.371.634c-.447,1.245-.077,1.775,1.227,1.783.779,0,1.557,0,2.336,0q14.57,0,29.139.009c.985,0,1.684-.142,1.673-1.371-.039-4.549-.036-9.1-.049-13.646v-3.859c-1.6,2.766-3.037,5.216-4.425,7.7a6.18,6.18,0,0,1-1.866,2.064C489.261-1749.593,487.54-1748.276,485.8-1746.984Zm12.069-26.435c-.178-.563-.77-.644-1.188-.91-.594-.378-.674.238-.848.54-3.14,5.418-6.253,10.853-9.416,16.257-.416.711-.3.982.369,1.4.736.457,1.007.231,1.379-.419q4.6-8.049,9.253-16.068C497.561-1772.872,497.7-1773.122,497.87-1773.419Zm-6.957,19.624c.344-.143.458-.458.615-.73,3.128-5.419,6.239-10.848,9.4-16.246.435-.743.237-1.006-.407-1.391s-.934-.306-1.312.357c-3.1,5.435-6.244,10.845-9.358,16.272-.161.28-.612.6-.218.958A7.973,7.973,0,0,0,490.913-1753.794Zm11.255-19.666c.354.024.395-.221.507-.372,1.982-2.678,1.973-2.72-.823-4.341-2.748-1.593-2.732-1.584-4.238,1.249-.273.513-.25.738.28,1.022,1.292.691,2.545,1.453,3.815,2.186C501.881-1773.616,502.058-1773.521,502.168-1773.46Zm-12.631,21.177c-.349-.221-.581-.378-.823-.518q-1.318-.762-2.643-1.512c-.2-.114-.581-.352-.62-.118-.11.677-.544,1.455.077,2.058C486.959-1750.984,487.939-1750.967,489.537-1752.283Zm-4.688,3.359c.508-.177.973-.359,1.04-.87.017-.126-.6-.523-.742-.449C484.631-1749.977,484.871-1749.437,484.849-1748.924Z" transform="translate(0)" fill="#050505"/>
      <path id="Trazado_588045" data-name="Trazado 588045" d="M456.184-1662.621c1.612-4.964.46-9.926-.218-14.83-.687-4.971-.126-9.512,2.733-13.724,1.146-1.687,2.065-3.528,3.09-5.3.45.146.233.489.234.716q.025,5.348.009,10.7c0,.4.112.843-.172,1.19-.454.556-.157.789.324,1.114.706.477,1.1.526,1.569-.35,1.323-2.447,2.755-4.836,4.156-7.24.759-1.3,1.765-1.685,2.827-1.113,1.09.586,1.313,1.756.564,3.073-.85,1.494-1.638,3.032-2.6,4.448a2.956,2.956,0,0,0-.2,3.294,12.808,12.808,0,0,1,1.439,5.781,9.812,9.812,0,0,1-1.659,5.8,6.586,6.586,0,0,0-1.33,4.821,14.027,14.027,0,0,1,.024,1.6Z" transform="translate(-6.028 -77.157)" fill="#fcc276"/>
      <path id="Trazado_588046" data-name="Trazado 588046" d="M499.259-1760.552a4.125,4.125,0,0,0-2.589-3.97,3.863,3.863,0,0,0-4.8,1.667,39.547,39.547,0,0,1-2.428,3.714q0-.582,0-1.164,0-14.337,0-28.674c0-1.729.115-1.848,1.791-1.848q17.9,0,35.809,0c1.626,0,1.771.142,1.771,1.745,0,4.594-.01,9.188.014,13.783a3.488,3.488,0,0,1-.512,1.846q-6.347,10.951-12.669,21.915a4.916,4.916,0,0,0-.671,2.07c-.249,2.654-.564,5.3-.842,7.951-.067.635-.3,1.34.464,1.753.708.382,1.139-.191,1.638-.509.344-.219.683-.445,1.025-.667l-.2,2.224c1-.715,1.864-1.324,2.721-1.936,2.841-2.029,5.8-3.907,7.23-7.368a5.488,5.488,0,0,1,1.771-2.685c.013,4.548.009,9.1.049,13.646.011,1.229-.688,1.373-1.673,1.372q-14.57-.023-29.139-.009c-.779,0-1.557,0-2.336,0-1.3-.008-1.674-.538-1.227-1.783a2.855,2.855,0,0,1,.371-.633,13.5,13.5,0,0,0,1.357-13.54c.452-.182.632-.616.857-.984.5-.827.951-1.689,1.441-2.525.19-.324.4-.732.845-.238,4.871.006,9.741,0,14.612.033.777.006,1.138-.072,1.147-1.018.01-1-.458-.982-1.181-.98-4.624.009-9.248-.016-13.873-.029,0-.61.012-1.221-.006-1.831C500-1759.8,500.023-1760.4,499.259-1760.552Zm9.818-12.554q7.072,0,14.144,0c1.461,0,1.656-.19,1.659-1.613q.009-5.227,0-10.455c0-1.54-.169-1.714-1.68-1.714q-14.082,0-28.164,0c-1.463,0-1.655.188-1.657,1.611q-.009,5.228,0,10.455c0,1.539.17,1.714,1.679,1.715Q502.067-1773.1,509.077-1773.106Zm.545,5.907c4.1,0,8.194-.021,12.291.018.791.007,1.031-.189,1.033-1s-.248-1-1.034-1q-12.291.042-24.582,0c-.79,0-1.031.188-1.032,1s.248,1.01,1.034,1C501.428-1767.22,505.526-1767.2,509.623-1767.2Zm.856,3.938c2.867,0,5.734-.036,8.6.022.842.017.907-.328.9-1-.006-.658-.036-1.019-.891-1.012q-8.476.064-16.953,0c-.84-.006-.907.328-.9,1,.006.658.035,1.032.892,1.013C504.908-1763.3,507.693-1763.261,510.478-1763.261Zm-1.391,3.938c2.334,0,4.668-.036,7,.02.783.019.992-.225.935-.966-.046-.592.068-1.06-.851-1.05q-7.061.078-14.124,0c-.966-.01-.755.543-.8,1.088-.06.654.095.94.844.924C504.42-1759.354,506.754-1759.323,509.087-1759.323Zm-2.992,7.876c2.047,0,4.094-.034,6.139.018.75.019.9-.271.844-.924-.05-.545.163-1.1-.8-1.088-4.051.054-8.1.042-12.156.005-.749-.007-.9.272-.843.924.05.545-.163,1.123.805,1.087C502.082-1751.5,504.089-1751.446,506.1-1751.446Zm.186,1.966c-2.047,0-4.095.05-6.139-.023-.88-.031-.858.391-.878,1.026-.022.7.091,1,.912.991q6.016-.071,12.033,0c.877.012.858-.391.878-1.026.022-.7-.089-1.019-.912-.991C510.212-1749.435,508.246-1749.48,506.282-1749.48Zm-.108,3.938c-2.006,0-4.013.048-6.016-.023-.855-.03-.891.35-.893,1.011s.053,1.016.9,1.006q6.015-.074,12.033,0c.852.011.89-.35.893-1.011s-.051-1.036-.9-1.006C510.186-1745.495,508.179-1745.542,506.173-1745.542Zm-.122,5.91c2.047,0,4.095-.047,6.139.022.849.029.9-.339.9-1.007s-.043-1.02-.894-1.01q-6.016.076-12.033,0c-.846-.01-.9.339-.9,1.007s.041,1.041.895,1.01C502.121-1739.681,504.087-1739.632,506.052-1739.632Z" transform="translate(-31.46 -6.044)" fill="#e3e4e5"/>
      <path id="Trazado_588047" data-name="Trazado 588047" d="M615.61-1698.749c-.169.3-.309.547-.452.794q-4.632,8.031-9.253,16.068c-.372.65-.643.877-1.379.42-.666-.414-.785-.684-.369-1.4,3.163-5.4,6.276-10.839,9.416-16.257.175-.3.254-.918.848-.54C614.84-1699.393,615.432-1699.313,615.61-1698.749Z" transform="translate(-117.74 -74.669)" fill="#00c5ad"/>
      <path id="Trazado_588048" data-name="Trazado 588048" d="M618.759-1672.841a7.988,7.988,0,0,1-1.278-.781c-.394-.353.057-.677.218-.957,3.115-5.427,6.258-10.837,9.358-16.272.378-.663.662-.745,1.312-.357s.842.648.407,1.391c-3.163,5.4-6.274,10.827-9.4,16.246C619.217-1673.3,619.1-1672.985,618.759-1672.841Z" transform="translate(-127.846 -80.953)" fill="#00ac97"/>
      <path id="Trazado_588049" data-name="Trazado 588049" d="M613.286-1639.727a5.486,5.486,0,0,0-1.771,2.685c-1.426,3.46-4.389,5.339-7.23,7.368-.857.612-1.716,1.221-2.721,1.936l.2-2.223c1.739-1.292,3.46-2.609,5.225-3.866a6.177,6.177,0,0,0,1.866-2.064c1.389-2.48,2.83-4.93,4.425-7.7Z" transform="translate(-115.969 -117.022)" fill="#d4d3d6"/>
      <path id="Trazado_588050" data-name="Trazado 588050" d="M654.386-1713.464c-.11-.061-.287-.156-.461-.256-1.269-.733-2.523-1.495-3.815-2.186-.53-.284-.553-.508-.28-1.021,1.506-2.834,1.49-2.842,4.238-1.249,2.8,1.621,2.805,1.663.823,4.341C654.781-1713.685,654.74-1713.44,654.386-1713.464Z" transform="translate(-152.219 -59.996)" fill="#e0e1e2"/>
      <path id="Trazado_588051" data-name="Trazado 588051" d="M518.34-1667.9c.764.148.743.756.76,1.325.018.61.006,1.22.006,1.831-.4.04-.833.01-.751.647a13.457,13.457,0,0,1,.046,1.346c-.442-.495-.655-.086-.845.238-.491.836-.937,1.7-1.441,2.525-.225.369-.4.8-.857.985a2.613,2.613,0,0,1,.115-3.207C516.478-1664.032,517.795-1665.77,518.34-1667.9Z" transform="translate(-50.54 -98.7)" fill="#d4d4d6"/>
      <path id="Trazado_588052" data-name="Trazado 588052" d="M604.3-1616.658c-1.6,1.316-2.578,1.3-4.009-.09-.621-.6-.187-1.381-.077-2.058.038-.233.418,0,.62.119q1.324.751,2.643,1.512C603.717-1617.036,603.949-1616.879,604.3-1616.658Z" transform="translate(-114.761 -135.625)" fill="#a4a3a9"/>
      <path id="Trazado_588053" data-name="Trazado 588053" d="M598.419-1600.2c.021-.513-.219-1.053.3-1.319.145-.075.758.323.742.449C599.392-1600.562,598.926-1600.38,598.419-1600.2Z" transform="translate(-113.569 -148.721)" fill="#727278"/>
      <path id="Trazado_588054" data-name="Trazado 588054" d="M521.111-1761.065q-7.01,0-14.02,0c-1.508,0-1.677-.177-1.679-1.716q0-5.228,0-10.455c0-1.424.195-1.611,1.657-1.612q14.082,0,28.164,0c1.51,0,1.678.175,1.68,1.715q.005,5.227,0,10.455c0,1.422-.2,1.611-1.659,1.613Q528.183-1761.06,521.111-1761.065Zm.118-11.813c-4.263,0-8.526.026-12.789-.021-.877-.01-1.1.243-1.077,1.1.056,2.622.041,5.247.006,7.87-.009.676.155.914.878.912q12.912-.036,25.824,0c.71,0,.9-.216.887-.9-.037-2.582-.055-5.166.007-7.747.022-.934-.191-1.246-1.193-1.231C529.592-1772.842,525.41-1772.878,521.229-1772.878Z" transform="translate(-43.494 -18.086)" fill="#030302"/>
      <path id="Trazado_588055" data-name="Trazado 588055" d="M530.6-1700.974c-4.1,0-8.194-.021-12.291.018-.787.007-1.036-.182-1.034-1s.242-1.007,1.032-1q12.291.042,24.582,0c.786,0,1.036.182,1.035,1s-.242,1.012-1.033,1C538.794-1700.994,534.7-1700.974,530.6-1700.974Z" transform="translate(-52.437 -72.27)" fill="#030303"/>
      <path id="Trazado_588056" data-name="Trazado 588056" d="M546.56-1685c-2.785,0-5.57-.038-8.354.023-.857.019-.886-.355-.892-1.013-.006-.675.061-1.009.9-1q8.476.063,16.953,0c.855-.007.886.354.892,1.012.006.675-.06,1.021-.9,1C552.294-1685.034,549.427-1685,546.56-1685Z" transform="translate(-67.542 -84.308)" fill="#030303"/>
      <path id="Trazado_588057" data-name="Trazado 588057" d="M545.165-1669.013c-2.334,0-4.668-.031-7,.018-.749.016-.9-.27-.844-.924.05-.545-.161-1.1.8-1.088q7.061.075,14.124,0c.919-.01.806.458.851,1.05.057.74-.152.984-.935.965C549.833-1669.049,547.5-1669.013,545.165-1669.013Z" transform="translate(-67.537 -96.354)" fill="#030303"/>
      <path id="Trazado_588058" data-name="Trazado 588058" d="M529.382-1653.088a13.438,13.438,0,0,0-.046-1.346c-.082-.637.351-.607.751-.648,4.624.013,9.249.037,13.873.029.723,0,1.19-.023,1.181.98-.009.945-.37,1.023-1.147,1.018C539.123-1653.091,534.253-1653.082,529.382-1653.088Z" transform="translate(-61.521 -108.359)" fill="#030303"/>
      <path id="Trazado_588059" data-name="Trazado 588059" d="M536.147-1637.028c-2.006,0-4.013-.052-6.016.022-.968.036-.756-.542-.805-1.088-.06-.652.094-.931.843-.924,4.052.037,8.1.049,12.156-.005.968-.013.755.543.8,1.088.06.653-.093.943-.844.924C540.241-1637.063,538.193-1637.028,536.147-1637.028Z" transform="translate(-61.512 -120.463)" fill="#030303"/>
      <path id="Trazado_588060" data-name="Trazado 588060" d="M536.333-1623.015c1.964,0,3.931.046,5.893-.022.824-.028.935.3.913.991-.02.635,0,1.037-.878,1.026q-6.016-.079-12.033,0c-.821.01-.934-.3-.912-.991.02-.635,0-1.057.878-1.026C532.238-1622.965,534.286-1623.015,536.333-1623.015Z" transform="translate(-61.511 -132.509)" fill="#030303"/>
      <path id="Trazado_588061" data-name="Trazado 588061" d="M536.23-1607.023c2.006,0,4.013.047,6.016-.022.847-.03.9.336.9,1.006s-.041,1.021-.893,1.011q-6.016-.076-12.033,0c-.845.011-.9-.336-.9-1.006s.038-1.041.893-1.011C532.217-1606.974,534.224-1607.023,536.23-1607.023Z" transform="translate(-61.517 -144.564)" fill="#030303"/>
      <path id="Trazado_588062" data-name="Trazado 588062" d="M536.109-1589.056c-1.965,0-3.931-.048-5.893.023-.854.031-.893-.347-.895-1.01s.05-1.017.9-1.007q6.016.075,12.033,0c.851-.011.893.347.894,1.01s-.048,1.036-.9,1.007C540.2-1589.1,538.155-1589.056,536.109-1589.056Z" transform="translate(-61.517 -156.621)" fill="#030303"/>
      <path id="Trazado_588063" data-name="Trazado 588063" d="M527.206-1766.922c4.181,0,8.363.036,12.543-.026,1-.015,1.215.3,1.193,1.231-.061,2.581-.043,5.165-.007,7.747.01.688-.177.906-.887.9q-12.912-.035-25.824,0c-.722,0-.887-.236-.878-.912.034-2.623.049-5.248-.006-7.87-.018-.852.2-1.1,1.077-1.095C518.679-1766.9,522.943-1766.922,527.206-1766.922Z" transform="translate(-49.471 -24.042)" fill="#fda633"/>
    </g>
  </g>
</svg>
