<svg xmlns="http://www.w3.org/2000/svg" width="81.396" height="81.396" viewBox="0 0 81.396 81.396">
  <g id="Grupo_847298" data-name="Grupo 847298" transform="translate(-240 -1286.742)">
    <rect id="Rectángulo_38178" data-name="Rectángulo 38178" width="81.396" height="81.396" transform="translate(240 1286.742)" fill="none"/>
    <g id="Grupo_847399" data-name="Grupo 847399" transform="translate(-1164.614 2619.462)">
      <path id="Trazado_587961" data-name="Trazado 587961" d="M1472.592-1276.779c.751.174.933.685.89,1.392a10.9,10.9,0,0,1-1.119,4.457,1.2,1.2,0,0,0,.405,1.755c1.689,1.419,3.323,2.906,4.956,4.389,1.757,1.595,2.009,3.822.645,5.407-1.42,1.65-3.722,1.717-5.537.124-1.725-1.513-3.453-3.027-5.115-4.609a1.693,1.693,0,0,0-2.149-.4,12.4,12.4,0,0,1-13.762-2.418,3.662,3.662,0,0,0-3.022-1.141,4.461,4.461,0,0,1-1.19,0c-1.1-.188-1.36.34-1.251,1.314a13.962,13.962,0,0,1,.01,1.72c-.019,1.684-.533,2.217-2.213,2.218q-10.331.011-20.662,0c-3.311,0-6.623.008-9.934,0-1.612-.006-2.161-.543-2.161-2.126q-.008-24.3,0-48.6c0-1.6.535-2.073,2.158-2.139,1-.04,2.314.462,2.9-.243.486-.587.168-1.85.187-2.814.032-1.692.51-2.168,2.23-2.189,2.951-.036,2.951-.036,2.983-2.9.021-1.887.483-2.358,2.346-2.359q17.748,0,35.5,0c1.979,0,2.424.433,2.424,2.4,0,10.991.019,21.983-.023,32.974,0,1.062.233,1.482,1.339,1.729a12.635,12.635,0,0,1,9.138,7.7c.311.7.446,1.357-.352,1.84-1.072.188-1.3-.608-1.63-1.348a10.988,10.988,0,0,0-10.421-6.574,10.742,10.742,0,0,0-9.55,6.6,9.559,9.559,0,0,0-.793,6.642c1.266,6.575,8.746,10.668,14.588,7.982,4.314-1.6,6.517-4.829,7.08-9.273C1471.58-1276.06,1471.707-1276.657,1472.592-1276.779Zm-12.7-47.067-.281-.015a1.513,1.513,0,0,0-1.039,0c-.482-.022-.964-.063-1.447-.063q-13.081-.006-26.162,0c-1.848,0-3.7.041-5.543.063h-.5l-.816.009c-.432.151-.241.519-.244.787-.017,1.941-.01,3.882-.01,5.824q0,20.45-.023,40.9c0,1.015.216,1.388,1.284,1.3,1.316-.1,2.647.01,3.97-.038a5.061,5.061,0,0,0,4.9-4.661c.07-.789.05-1.587.045-2.38-.006-.943.453-1.362,1.384-1.356,1.9.014,3.8.01,5.693,0a1.214,1.214,0,0,1,1.364.979c-.143.8-.656,1.061-1.422,1.048-1.409-.023-2.819-.005-4.229-.007-.4,0-.815-.058-.778.57a7.664,7.664,0,0,1-2.11,5.771h11.912c.588-.157,1.667.587,1.714-.453a18.293,18.293,0,0,1,1.061-5.842h-1.978c-.723-.073-1.538.067-1.908-.823.02-.947.575-1.255,1.44-1.248.687.006,1.375-.041,2.062-.064h1.323c.206.041.311-.076.384-.243a13.652,13.652,0,0,1,9.664-5.45c.324.057.535-.021.487-.407q0-.534,0-1.068.007-16.424.015-32.847C1460.135-1323.727,1460.116-1323.858,1459.887-1323.846Zm-46.125,10.443c-.366-.024-.353.2-.295.452-.027.349-.078.7-.078,1.047q-.006,22.925,0,45.851c0,.349.049.7.076,1.048-.01.033-.036.072-.027.1a1.155,1.155,0,0,0,.084.17c.2.369.55.189.824.189q14.524.016,29.047,0c.274,0,.623.179.823-.191l.051-.264a3.63,3.63,0,0,0-.005-1.583l0-.267.033-.536c.046-.234-.025-.375-.289-.365-.528-.017-1.056-.05-1.584-.05q-11.713-.006-23.426-.007c-1.905,0-2.365-.456-2.367-2.32q-.009-6.286,0-12.571c0-.761-.077-1.662,1.016-1.628s.953.949.954,1.7c0,3.882.039,7.764-.026,11.645-.017,1.017.283,1.227,1.255,1.223,9.353-.041,18.705-.028,28.058-.032a2.988,2.988,0,0,0,1.043-.057c.273-.107.112-.347-.108-.469-.652-2.76-.668-2.778-2.45-2.632l-.269-.015c-.483-.026-.965-.074-1.448-.074q-10.4-.007-20.8,0c-1.9,0-2.011-.11-2.011-2.036q0-20.792,0-41.585c0-.527-.046-1.054-.07-1.581-.014-.772-.524-.392-.877-.378l-.267-.013a3.331,3.331,0,0,0-1.507,0c-.347-.044-.505.1-.457.455-.022.484-.063.967-.063,1.45q-.006,14.039-.013,28.077c0,.817.349,2.047-1.007,2.013s-.93-1.27-.94-2.076c-.036-2.957-.007-5.915-.016-8.873q-.022-7.679-.059-15.357c.094-.358-.024-.521-.406-.441l-.8-.005h-1.6Zm58.277,46.3c-.718-1.051-1.445-1.3-2.209-.039a1.205,1.205,0,0,1-.373.371c-1.052.675-1.01,1.276.1,1.823,1.562,1.428,3.1,2.88,4.695,4.275a1.722,1.722,0,0,0,2.588-.031,1.707,1.707,0,0,0-.328-2.478C1475.041-1264.51,1473.534-1265.8,1472.039-1267.1Z" transform="translate(0 0)" fill="#080909"/>
      <path id="Trazado_587962" data-name="Trazado 587962" d="M1581.31-1169.485c-.885.122-1.011.72-1.11,1.5-.563,4.444-2.766,7.674-7.08,9.273a.624.624,0,0,0-.809-.259,5.215,5.215,0,0,1-2.587-.019c-5.858-.687-11.409-6.678-10.167-13.637a.657.657,0,0,0-.231-.709,10.742,10.742,0,0,1,9.55-6.6,10.988,10.988,0,0,1,10.421,6.574c.33.74.558,1.536,1.63,1.348Q1581.117-1170.748,1581.31-1169.485Zm-20.48.518a8.489,8.489,0,0,0,8.418,8.563,8.482,8.482,0,0,0,8.451-8.529,8.354,8.354,0,0,0-8.481-8.446A8.388,8.388,0,0,0,1560.83-1168.967Z" transform="translate(-108.718 -107.294)" fill="#3863bb"/>
      <path id="Trazado_587963" data-name="Trazado 587963" d="M1493.021-1318.344a1.512,1.512,0,0,1,1.039,0l.266.306q.109,0,.217,0-.008,16.424-.015,32.847a13.752,13.752,0,0,0-10.828,5.272c-.448.523-1.142,1.023-1.026,1.9-.687.023-1.375.069-2.062.064-.865-.007-1.42.3-1.44,1.248a5.71,5.71,0,0,0-2.261-.265,1.214,1.214,0,0,0-1.364-.979c-1.9.008-3.8.012-5.693,0-.931-.007-1.39.412-1.384,1.356.005.793.025,1.592-.045,2.38a5.061,5.061,0,0,1-4.9,4.661c-1.322.048-2.654-.064-3.97.038-1.068.083-1.286-.29-1.284-1.3q.052-20.451.023-40.9c0-1.942-.008-3.883.01-5.824,0-.268-.188-.636.244-.787.276.378.548.378.816-.009h.5c.365.48.891.3,1.351.3q15.224.014,30.449,0C1492.13-1318.046,1492.657-1317.863,1493.021-1318.344Zm-13.589,11.878a1.248,1.248,0,0,0-.99,1.479c.035.792,0,1.587.01,2.38.027,1.5.584,2.065,2.091,2.072q4.828.021,9.655,0c1.5-.008,2.041-.564,2.047-2.1q.018-4.826,0-9.653c-.006-1.517-.553-2.063-2.073-2.071-2.733-.015-5.466,0-8.2,0-3.444,0-3.62.2-3.535,3.686.018.755.212,1.289,1,1.479Q1479.433-1307.831,1479.432-1306.467Zm-7.491,21.755q-4.837,0-9.673,0c-.766,0-1.648-.071-1.61,1.035.034,1,.868.931,1.587.93q9.54,0,19.08,0c.77,0,1.649.058,1.613-1.038-.033-.995-.869-.929-1.589-.929Q1476.645-1284.709,1471.942-1284.712Zm-2.444-3.591c2.559,0,5.117-.005,7.676,0,.752,0,1.524-.038,1.51-1.019-.012-.887-.725-.955-1.44-.953q-7.61.013-15.22,0c-.731,0-1.4.115-1.374,1.014s.727.961,1.436.959C1464.557-1288.309,1467.027-1288.3,1469.5-1288.3Zm6.947-5.4c2.114,0,4.227-.006,6.341,0,.718,0,1.417-.115,1.449-.97.035-.949-.7-1.082-1.468-1.081q-6.341.008-12.682,0c-.714,0-1.413.1-1.445.97-.036.96.7,1.083,1.464,1.081C1472.217-1293.707,1474.331-1293.7,1476.445-1293.7Zm-8.044-19.057c-2.16,0-4.32,0-6.48,0-.694,0-1.268.185-1.27.992s.594.983,1.277.983q6.414,0,12.829,0c.664,0,1.3-.1,1.332-.925.034-.9-.6-1.054-1.339-1.052C1472.633-1312.755,1470.517-1312.76,1468.4-1312.759Zm-.026,6.339q3.17,0,6.339,0c.723,0,1.386-.151,1.385-1.031s-.669-1.018-1.391-1.017q-6.339,0-12.678,0c-.725,0-1.387.141-1.385,1.024s.669,1.025,1.391,1.024Q1465.205-1306.423,1468.375-1306.42Zm-.121,4.286c2.116,0,4.232-.005,6.348,0,.752,0,1.509-.043,1.483-1.038-.023-.913-.756-.946-1.447-.946h-12.564c-.7,0-1.412.063-1.421.975-.009.9.66,1.013,1.385,1.01C1464.11-1302.14,1466.182-1302.134,1468.254-1302.134Zm18.491,11.866c-1.454,0-2.907.009-4.361,0-.689-.006-1.285.148-1.309.95s.535,1.021,1.242,1.019q4.361-.007,8.722,0c.707,0,1.261-.222,1.239-1.019s-.616-.958-1.3-.951C1489.564-1290.259,1488.155-1290.268,1486.745-1290.268Z" transform="translate(-34.453 -5.516)" fill="#dde6eb"/>
      <path id="Trazado_587964" data-name="Trazado 587964" d="M1426.384-1293.412l.8,0a.417.417,0,0,0,.406.441q.03,7.679.059,15.357c.008,2.958-.02,5.916.016,8.873.01.805-.4,2.042.94,2.076s1.006-1.2,1.007-2.013q.024-14.039.013-28.077c0-.483.041-.967.063-1.45l.457-.455a3.326,3.326,0,0,1,1.507.005l.3.381,0,.01q0,22.1,0,44.2c0,1.7.2,1.9,1.9,1.9q11.183,0,22.366,0a3.805,3.805,0,0,1,1.563.178c.338.145.69.245.654.7-.092,1.154.695.99,1.4.952.22.122.381.362.108.469a2.985,2.985,0,0,1-1.043.056c-9.353,0-18.705-.009-28.058.032-.972,0-1.272-.206-1.255-1.223.065-3.88.027-7.763.026-11.644,0-.747.127-1.662-.954-1.7s-1.016.867-1.016,1.628q0,6.285,0,12.571c0,1.865.462,2.318,2.367,2.32q11.713.009,23.426.007c.528,0,1.056.033,1.584.05l.289.365q-.016.268-.033.536l-.267.006-26.19-.005c-2.083,0-2.176-.093-2.176-2.155q0-21.16,0-42.32A5.487,5.487,0,0,0,1426.384-1293.412Z" transform="translate(-11.025 -19.992)" fill="#dae4e9"/>
      <path id="Trazado_587965" data-name="Trazado 587965" d="M1420.919-1278.648a5.49,5.49,0,0,1,.27,2.076q-.01,21.16,0,42.32c0,2.062.094,2.154,2.176,2.155l26.19.005.27.261a3.629,3.629,0,0,1,.005,1.583c-.037.021-.107.045-.105.063a1,1,0,0,0,.055.2c-.2.37-.549.191-.823.191q-14.523.016-29.047,0c-.274,0-.622.18-.824-.189.182-.132.1-.209-.057-.269-.026-.349-.075-.7-.075-1.048q-.006-22.925,0-45.851c0-.349.051-.7.078-1.047l.311,0a.473.473,0,0,0,.524-.447Z" transform="translate(-5.56 -34.756)" fill="#dfe9ee"/>
      <path id="Trazado_587966" data-name="Trazado 587966" d="M1504.923-1162.074a5.709,5.709,0,0,1,2.261.265c.371.89,1.185.75,1.908.823-.254,2.1-.983,4.139-.8,6.294h-11.912a7.664,7.664,0,0,0,2.11-5.771c-.037-.628.378-.57.778-.57,1.41,0,2.82-.017,4.229.007C1504.267-1161.013,1504.78-1161.276,1504.923-1162.074Z" transform="translate(-62.465 -120.415)" fill="#d0e2e5"/>
      <path id="Trazado_587967" data-name="Trazado 587967" d="M1475.272-1249c-.708.038-1.495.2-1.4-.952.036-.453-.316-.552-.654-.7a3.807,3.807,0,0,0-1.563-.178q-11.183,0-22.366,0c-1.7,0-1.9-.2-1.9-1.9q0-22.1,0-44.2h.841c.024.527.07,1.054.07,1.581q.005,20.792,0,41.585c0,1.927.107,2.036,2.011,2.036q10.4,0,20.8,0c.483,0,.965.048,1.448.074.08.176.169.2.269.015C1474.6-1251.781,1474.62-1251.763,1475.272-1249Z" transform="translate(-26.456 -21.321)" fill="#cedfe2"/>
      <path id="Trazado_587968" data-name="Trazado 587968" d="M1556.436-1155.044a.657.657,0,0,1,.232.709c-1.241,6.959,4.31,12.95,10.167,13.637a5.215,5.215,0,0,0,2.587.019.624.624,0,0,1,.809.259c-5.842,2.687-13.321-1.406-14.588-7.981A9.559,9.559,0,0,1,1556.436-1155.044Z" transform="translate(-105.829 -125.587)" fill="#2e539b"/>
      <path id="Trazado_587969" data-name="Trazado 587969" d="M1633.291-1104.026c1.494,1.3,3,2.594,4.476,3.921a1.706,1.706,0,0,1,.328,2.478,1.722,1.722,0,0,1-2.588.031c-1.591-1.4-3.133-2.847-4.695-4.275C1632-1102.171,1632.54-1103.221,1633.291-1104.026Z" transform="translate(-161.252 -163.078)" fill="#edce31"/>
      <path id="Trazado_587970" data-name="Trazado 587970" d="M1550.291-1185.866c-.115-.874.578-1.374,1.026-1.9a13.753,13.753,0,0,1,10.828-5.272l0,1.068a.488.488,0,0,0-.487.407,13.65,13.65,0,0,0-9.663,5.45l-.384.243Z" transform="translate(-102.07 -97.669)" fill="#cedfe2"/>
      <path id="Trazado_587971" data-name="Trazado 587971" d="M1541.227-1151.653c-.186-2.155.543-4.195.8-6.294H1544a18.293,18.293,0,0,0-1.061,5.842C1542.895-1151.066,1541.816-1151.81,1541.227-1151.653Z" transform="translate(-95.397 -123.454)" fill="#bccccf"/>
      <path id="Trazado_587972" data-name="Trazado 587972" d="M1497.467-1318.274c-.364.481-.891.3-1.351.3q-15.224.015-30.449,0c-.461,0-.987.181-1.351-.3,1.848-.022,3.7-.062,5.543-.063q13.081-.01,26.162,0C1496.5-1318.337,1496.985-1318.3,1497.467-1318.274Z" transform="translate(-38.9 -5.587)" fill="#f6f8f9"/>
      <path id="Trazado_587973" data-name="Trazado 587973" d="M1630.895-1106.492c-.751.8-1.288,1.855-2.478,2.155-1.113-.547-1.156-1.148-.1-1.823a1.207,1.207,0,0,0,.373-.371C1629.45-1107.791,1630.177-1107.543,1630.895-1106.492Z" transform="translate(-158.855 -160.612)" fill="#e8c22e"/>
      <path id="Trazado_587974" data-name="Trazado 587974" d="M1448.127-1298.27h-.841l0-.01q-.016-.184-.031-.368C1447.6-1298.663,1448.114-1299.042,1448.127-1298.27Z" transform="translate(-26.36 -19.98)" fill="#dfe9ee"/>
      <path id="Trazado_587975" data-name="Trazado 587975" d="M1420.9-1278.648a.473.473,0,0,1-.524.447q-.008-.224-.016-.448Z" transform="translate(-6.601 -34.755)" fill="#dae4e9"/>
      <path id="Trazado_587976" data-name="Trazado 587976" d="M1429.8-1278.244a.417.417,0,0,1-.406-.441C1429.776-1278.765,1429.894-1278.6,1429.8-1278.244Z" transform="translate(-13.237 -34.714)" fill="#dfe9ee"/>
      <path id="Trazado_587977" data-name="Trazado 587977" d="M1460.15-1318.089c-.268.387-.54.387-.816.009Z" transform="translate(-35.239 -5.772)" fill="#f6f8f9"/>
      <path id="Trazado_587978" data-name="Trazado 587978" d="M1593.214-1188.6a.488.488,0,0,1,.487-.407C1593.749-1188.62,1593.538-1188.542,1593.214-1188.6Z" transform="translate(-133.622 -100.629)" fill="#dde6eb"/>
      <path id="Trazado_587979" data-name="Trazado 587979" d="M1419.46-1278.654q.008.224.016.448l-.31,0C1419.108-1278.454,1419.094-1278.677,1419.46-1278.654Z" transform="translate(-5.698 -34.75)" fill="#f6f8f9"/>
      <path id="Trazado_587980" data-name="Trazado 587980" d="M1593.532-1317.786l-.266-.306.281.015Z" transform="translate(-133.66 -5.77)" fill="#f6f8f9"/>
      <path id="Trazado_587981" data-name="Trazado 587981" d="M1439.269-1298.443l-.457.455C1438.763-1298.341,1438.921-1298.487,1439.269-1298.443Z" transform="translate(-20.151 -20.203)" fill="#ebf5fa"/>
      <path id="Trazado_587982" data-name="Trazado 587982" d="M1446.511-1298.39q.016.184.031.368l-.3-.381Z" transform="translate(-25.62 -20.238)" fill="#ebf5fa"/>
      <path id="Trazado_587983" data-name="Trazado 587983" d="M1555.318-1166.673l.384-.243C1555.629-1166.748,1555.524-1166.631,1555.318-1166.673Z" transform="translate(-105.774 -116.863)" fill="#dde6eb"/>
      <path id="Trazado_587984" data-name="Trazado 587984" d="M1542.582-1126.137c-.1.184-.189.161-.269-.015Z" transform="translate(-96.217 -146.819)" fill="#dfe9ee"/>
      <path id="Trazado_587985" data-name="Trazado 587985" d="M1534.7-1106.114l-.288-.365C1534.678-1106.489,1534.75-1106.348,1534.7-1106.114Z" transform="translate(-90.413 -161.275)" fill="#bccccf"/>
      <path id="Trazado_587986" data-name="Trazado 587986" d="M1594.27-1317.746q.008-.145.015-.29c.229-.012.248.119.2.3Q1594.379-1317.741,1594.27-1317.746Z" transform="translate(-134.398 -5.81)" fill="#cedfe2"/>
      <path id="Trazado_587987" data-name="Trazado 587987" d="M1534.644-1102.813l-.27-.261.267-.006Z" transform="translate(-90.383 -163.773)" fill="#f6f8f9"/>
      <path id="Trazado_587988" data-name="Trazado 587988" d="M1419.163-1096.115c.161.06.238.137.056.269a1.173,1.173,0,0,1-.084-.17C1419.127-1096.043,1419.153-1096.082,1419.163-1096.115Z" transform="translate(-5.697 -168.891)" fill="#f6f8f9"/>
      <path id="Trazado_587989" data-name="Trazado 587989" d="M1535.07-1095.839a1,1,0,0,1-.055-.2c0-.018.068-.042.105-.063Z" transform="translate(-90.854 -168.901)" fill="#f6f8f9"/>
      <path id="Trazado_587990" data-name="Trazado 587990" d="M1565-1161.875a8.388,8.388,0,0,1,8.387-8.411,8.354,8.354,0,0,1,8.481,8.445,8.482,8.482,0,0,1-8.45,8.529A8.488,8.488,0,0,1,1565-1161.875Zm12.288,5.176a5.97,5.97,0,0,0,2.481-6.345,6.075,6.075,0,0,0-4.772-5.062,5.935,5.935,0,0,0-6.458,2.149,6.337,6.337,0,0,0,.191,8.589A6.322,6.322,0,0,0,1577.289-1156.7Z" transform="translate(-112.889 -114.386)" fill="#040507"/>
      <path id="Trazado_587991" data-name="Trazado 587991" d="M1535.3-1297.913c-.784-.19-.978-.725-1-1.479-.085-3.486.091-3.686,3.535-3.686,2.733,0,5.467-.011,8.2,0,1.52.008,2.067.554,2.073,2.071q.02,4.826,0,9.653c-.006,1.533-.543,2.089-2.047,2.1q-4.827.024-9.655,0c-1.507-.007-2.064-.573-2.091-2.072-.014-.793.025-1.588-.01-2.38a1.248,1.248,0,0,1,.991-1.479c.792.157,1.04.687,1.031,1.436-.008.7.037,1.4.058,2.094-.016.259.093.422.364.423,2.9.008,5.807.008,8.711.022.5,0,.7-.2.7-.708-.012-2.815-.015-5.631,0-8.446,0-.571-.2-.776-.769-.766-2.461.043-4.922.056-7.384.08a2.921,2.921,0,0,0-1.36,0c-.239.033-.3.18-.262.4C1536.078-1299.72,1536.908-1298.331,1535.3-1297.913Z" transform="translate(-90.321 -16.8)" fill="#020303"/>
      <path id="Trazado_587992" data-name="Trazado 587992" d="M1478.573-1191.247q4.7,0,9.407,0c.719,0,1.556-.066,1.589.929.036,1.1-.843,1.038-1.613,1.038q-9.54,0-19.08,0c-.719,0-1.552.07-1.587-.93-.038-1.106.845-1.036,1.61-1.035Z" transform="translate(-41.084 -98.981)" fill="#020303"/>
      <path id="Trazado_587993" data-name="Trazado 587993" d="M1476.108-1210.245c-2.471,0-4.941-.005-7.412,0-.709,0-1.412-.056-1.436-.958s.643-1.015,1.374-1.014q7.61.012,15.22,0c.715,0,1.427.066,1.44.953.013.981-.759,1.022-1.51,1.019C1481.226-1210.25,1478.667-1210.245,1476.108-1210.245Z" transform="translate(-41.064 -83.575)" fill="#020303"/>
      <path id="Trazado_587994" data-name="Trazado 587994" d="M1505.194-1230.825c-2.114,0-4.228,0-6.341,0-.769,0-1.5-.121-1.464-1.081.033-.865.731-.971,1.445-.97q6.341.008,12.682,0c.772,0,1.5.133,1.468,1.082-.032.855-.731.973-1.449.97C1509.421-1230.831,1507.307-1230.825,1505.194-1230.825Z" transform="translate(-63.202 -68.394)" fill="#0f1111"/>
      <path id="Trazado_587995" data-name="Trazado 587995" d="M1475.011-1297.033c2.116,0,4.232,0,6.348,0,.738,0,1.373.154,1.339,1.052-.031.828-.668.925-1.332.925q-6.414,0-12.829,0c-.684,0-1.279-.163-1.277-.983s.576-.994,1.27-.992C1470.691-1297.029,1472.851-1297.033,1475.011-1297.033Z" transform="translate(-41.064 -21.243)" fill="#020303"/>
      <path id="Trazado_587996" data-name="Trazado 587996" d="M1474.971-1278.789q-3.169,0-6.339,0c-.722,0-1.388-.144-1.391-1.024s.66-1.024,1.385-1.024q6.339,0,12.678,0c.722,0,1.389.135,1.391,1.017s-.661,1.031-1.385,1.031Q1478.141-1278.791,1474.971-1278.789Z" transform="translate(-41.049 -33.148)" fill="#0f1111"/>
      <path id="Trazado_587997" data-name="Trazado 587997" d="M1474.873-1262.442c-2.072,0-4.144-.006-6.216,0-.725,0-1.394-.114-1.385-1.01.009-.912.72-.975,1.421-.975h12.564c.691,0,1.424.033,1.447.946.025,1-.731,1.041-1.484,1.039C1479.105-1262.447,1476.99-1262.442,1474.873-1262.442Z" transform="translate(-41.073 -45.208)" fill="#020303"/>
      <path id="Trazado_587998" data-name="Trazado 587998" d="M1549.964-1212.21c1.41,0,2.819.01,4.229,0,.688-.007,1.282.143,1.3.951s-.532,1.021-1.239,1.02q-4.361-.009-8.722,0c-.706,0-1.265-.224-1.242-1.019s.62-.957,1.309-.95C1547.057-1212.2,1548.511-1212.21,1549.964-1212.21Z" transform="translate(-97.673 -83.574)" fill="#020303"/>
      <path id="Trazado_587999" data-name="Trazado 587999" d="M1539.453-1295.638a2.92,2.92,0,0,1,1.36,0c0,2.58-.075,5.164.028,7.741.052,1.31-.29,1.909-1.652,1.654-.021-.7-.067-1.4-.058-2.094.009-.75-.239-1.279-1.031-1.436q0-1.365,0-2.73c1.607-.418.777-1.807,1.091-2.74Z" transform="translate(-93.121 -22.212)" fill="#e8c22e"/>
      <path id="Trazado_588000" data-name="Trazado 588000" d="M1578.349-1160.546a5.935,5.935,0,0,1,6.458-2.149,6.075,6.075,0,0,1,4.772,5.062,5.969,5.969,0,0,1-2.481,6.345,2.75,2.75,0,0,0-1.4-.277,7.5,7.5,0,0,1-7.159-6.164C1578.325-1158.7,1578.66-1159.63,1578.349-1160.546Z" transform="translate(-122.698 -119.798)" fill="#dfe9ee"/>
      <path id="Trazado_588001" data-name="Trazado 588001" d="M1573.96-1153.959c.312.915-.024,1.848.189,2.816a7.5,7.5,0,0,0,7.159,6.164,2.753,2.753,0,0,1,1.4.277,6.322,6.322,0,0,1-8.558-.669A6.337,6.337,0,0,1,1573.96-1153.959Z" transform="translate(-118.309 -126.384)" fill="#cedfe2"/>
      <path id="Trazado_588002" data-name="Trazado 588002" d="M1542.2-1286.238c1.362.255,1.7-.344,1.652-1.654-.1-2.577-.029-5.16-.028-7.741,2.461-.024,4.923-.037,7.384-.08.57-.01.773.195.769.766-.02,2.815-.016,5.631,0,8.446,0,.5-.195.71-.7.708-2.9-.014-5.807-.014-8.711-.022C1542.3-1285.815,1542.188-1285.978,1542.2-1286.238Z" transform="translate(-96.136 -22.215)" fill="#edce31"/>
      <path id="Trazado_588003" data-name="Trazado 588003" d="M1542.445-1295.419l-.262.4C1542.142-1295.239,1542.206-1295.386,1542.445-1295.419Z" transform="translate(-96.113 -22.431)" fill="#edce31"/>
    </g>
  </g>
</svg>
