<svg xmlns="http://www.w3.org/2000/svg" width="81.396" height="81.396" viewBox="0 0 81.396 81.396">
  <g id="Grupo_847382" data-name="Grupo 847382" transform="translate(-240 -1286.742)">
    <rect id="Rectángulo_38178" data-name="Rectángulo 38178" width="81.396" height="81.396" transform="translate(240 1286.742)" fill="none"/>
    <g id="Grupo_847394" data-name="Grupo 847394" transform="translate(308.388 2204.512)">
      <path id="Trazado_587845" data-name="Trazado 587845" d="M-51.225-870.327c-1.575-.57-3.147-1.149-4.726-1.708-2.569-.909-3.176-2.7-1.638-4.919,1.48-2.135,2.947-4.279,4.482-6.374a1.241,1.241,0,0,0,.023-1.763c-1.566-2.121-3.048-4.3-4.553-6.471-1.452-2.091-.862-3.952,1.538-4.791,6.371-2.226,12.753-4.422,19.118-6.666a4.093,4.093,0,0,1,3.131.11c0-.661-.027-1.216.005-1.768a3.074,3.074,0,0,1,3.26-3.1c1.88-.02,3.76-.013,5.639,0a3.114,3.114,0,0,1,3.417,3.314c.015.474,0,.949,0,1.642,1.412-.827,2.634-.372,3.89.07,6.065,2.132,12.143,4.227,18.213,6.346,2.613.912,3.17,2.717,1.563,5.019-1.486,2.13-2.957,4.272-4.482,6.374a1.115,1.115,0,0,0-.015,1.564c1.577,2.163,3.1,4.368,4.621,6.569,1.449,2.093.843,3.921-1.542,4.812-1.261.471-3.024.468-3.651,1.516-.585.979-.173,2.56-.177,3.876-.009,3.119.006,6.239-.01,9.358a3.144,3.144,0,0,1-2.476,3.5q-10.405,3.635-20.817,7.25a3.727,3.727,0,0,1-2.57,0q-10.4-3.639-20.818-7.25a3.142,3.142,0,0,1-2.466-3.5c-.015-3.319.006-6.639-.015-9.958-.005-.8.138-1.436,1.038-1.626.894.206,1.023.845,1.017,1.643-.023,3.239.019,6.478-.026,9.716a1.657,1.657,0,0,0,1.286,1.848q10.2,3.5,20.382,7.074a2.494,2.494,0,0,0,1.743.021q10.239-3.581,20.493-7.12A1.6,1.6,0,0,0-5.13-857.51c-.036-3.758-.042-7.517,0-11.275.012-.991-.166-1.238-1.183-.87-4.02,1.455-8.067,2.833-12.108,4.228-1.878.649-2.859.332-4.018-1.307-1.569-2.219-3.136-4.441-4.665-6.688-.449-.659-.712-.681-1.17-.006-1.459,2.15-2.968,4.265-4.456,6.4-1.416,2.027-2.267,2.291-4.565,1.495Q-44.252-867.949-51.225-870.327Zm19.449-29.747c0,1.319.006,2.638,0,3.957-.008,1.338-.346,1.682-1.708,1.707-1.079.02-2.159,0-3.238.009-.386,0-.849-.1-1.046.374-.182.437.114.771.373,1.071,2.959,3.409,5.932,6.806,8.883,10.222.591.684,1.078.672,1.656-.007,1.19-1.4,2.414-2.772,3.62-4.158q2.6-2.983,5.186-5.973c.283-.328.649-.678.439-1.162-.225-.521-.749-.358-1.167-.366-1.039-.019-2.079.009-3.118-.011-1.356-.026-1.7-.374-1.7-1.713-.007-2.718-.017-5.436,0-8.154.007-.939-.357-1.417-1.339-1.407q-2.758.03-5.516,0c-.985-.011-1.349.477-1.331,1.413C-31.754-902.873-31.774-901.474-31.776-900.075Zm2.285,24.773c-.061-.44-.459-.414-.723-.506-6.6-2.311-13.209-4.6-19.805-6.92a1.009,1.009,0,0,0-1.376.484c-1.489,2.178-3.024,4.325-4.524,6.5-.69,1-.578,1.346.573,1.748,6.34,2.21,12.688,4.395,19.021,6.623a1.252,1.252,0,0,0,1.712-.535c1.552-2.281,3.156-4.526,4.738-6.786C-29.738-874.894-29.618-875.1-29.491-875.3Zm30.44.322a3.353,3.353,0,0,0-.269-.568c-1.6-2.3-3.219-4.579-4.8-6.889-.367-.537-.743-.448-1.231-.278q-9.9,3.458-19.816,6.885c-.765.263-.8.517-.351,1.137q2.417,3.358,4.75,6.777a1.241,1.241,0,0,0,1.71.54c2.135-.791,4.3-1.5,6.451-2.251q6.227-2.167,12.45-4.344C.314-874.135.908-874.193.949-874.979Zm-8.546-9.13c-.165-.418-.492-.392-.739-.479-3.316-1.168-6.644-2.3-9.948-3.5a1.241,1.241,0,0,0-1.616.461c-1.746,2.083-3.547,4.121-5.329,6.174-1.552,1.789-3.352,1.8-4.89.029-1.809-2.083-3.631-4.154-5.409-6.263a1.167,1.167,0,0,0-1.523-.409c-3.342,1.213-6.707,2.361-10.061,3.541-.235.083-.581.042-.62.459q9.727,3.386,19.456,6.787a1.936,1.936,0,0,0,1.38-.076q4.58-1.608,9.166-3.2Zm-26.261-13.925c0-.28.013-.561,0-.84a2.054,2.054,0,0,0-2.945-2.01q-9.233,3.205-18.466,6.411c-1.228.427-1.349.767-.633,1.8,1.5,2.17,3.054,4.308,4.521,6.5.434.648.836.639,1.474.41,3.312-1.185,6.636-2.335,9.958-3.493,2.275-.793,2.276-.791.8-2.59-.076-.093-.157-.182-.228-.278a2.582,2.582,0,0,1-.32-2.821,2.62,2.62,0,0,1,2.38-1.559c.639-.029,1.28,0,1.92-.013C-33.672-896.54-33.882-896.278-33.857-898.034Zm16.116,7.972c4.325,1.5,8.517,2.945,12.691,4.433.636.227.776-.191,1.012-.526q2.245-3.188,4.47-6.389c.831-1.195.739-1.488-.618-1.96q-9.116-3.173-18.235-6.335c-1.79-.621-2.064-.536-2.886,1.132a3.889,3.889,0,0,0-.09,2.921c.214.631,1.215.18,1.859.262a11.415,11.415,0,0,0,1.319.013,2.65,2.65,0,0,1,2.572,1.637,2.6,2.6,0,0,1-.474,2.9C-16.626-891.365-17.141-890.767-17.741-890.062Z" transform="translate(0)" fill="#0d0a0a"/>
      <path id="Trazado_587846" data-name="Trazado 587846" d="M-28.5-763.225q6.967,2.393,13.933,4.79c2.3.8,3.15.532,4.565-1.495,1.488-2.13,3-4.246,4.456-6.4.458-.676.721-.654,1.17.006,1.53,2.247,3.1,4.468,4.665,6.688,1.159,1.639,2.14,1.956,4.018,1.307,4.041-1.4,8.088-2.774,12.108-4.228,1.017-.368,1.2-.121,1.183.87-.045,3.758-.039,7.517,0,11.275a1.6,1.6,0,0,1-1.213,1.778Q6.12-745.1-4.115-741.51a2.5,2.5,0,0,1-1.743-.021q-10.183-3.56-20.382-7.074a1.657,1.657,0,0,1-1.286-1.848c.045-3.238,0-6.478.026-9.716.006-.8-.123-1.437-1.017-1.643Zm24.54,10.2c0-2.756,0-5.513,0-8.269,0-.736-.093-1.448-1.019-1.438s-.995.734-.994,1.462q.007,8.209,0,16.418c0,.724.046,1.471.959,1.5,1,.029,1.057-.752,1.055-1.522C-3.968-747.6-3.962-750.314-3.962-753.03Z" transform="translate(-22.722 -107.102)" fill="#e0c95a"/>
      <path id="Trazado_587847" data-name="Trazado 587847" d="M33.366-893.4c0-1.4.021-2.8-.006-4.2-.018-.936.346-1.423,1.331-1.413q2.758.029,5.516,0c.981-.011,1.346.467,1.339,1.407-.02,2.718-.011,5.436,0,8.154,0,1.339.347,1.687,1.7,1.713,1.039.02,2.079-.007,3.118.011.418.008.941-.155,1.167.366.209.484-.156.834-.439,1.162q-2.585,2.993-5.186,5.973c-1.207,1.386-2.43,2.758-3.62,4.158-.577.678-1.064.691-1.656.007-2.951-3.416-5.924-6.813-8.883-10.222-.26-.3-.555-.633-.373-1.071.2-.473.66-.37,1.046-.374,1.079-.012,2.159.011,3.238-.009,1.362-.025,1.7-.369,1.708-1.707C33.371-890.766,33.365-892.085,33.366-893.4Z" transform="translate(-65.141 -6.671)" fill="#cb586a"/>
      <path id="Trazado_587848" data-name="Trazado 587848" d="M-22.922-796.354c-.127.2-.247.407-.384.6-1.582,2.26-3.186,4.505-4.738,6.786a1.252,1.252,0,0,1-1.712.535c-6.333-2.228-12.681-4.413-19.021-6.623-1.151-.4-1.264-.749-.573-1.748,1.5-2.171,3.035-4.318,4.524-6.5a1.009,1.009,0,0,1,1.376-.484c6.6,2.323,13.2,4.609,19.805,6.92C-23.381-796.768-22.983-796.794-22.922-796.354Z" transform="translate(-6.569 -78.947)" fill="#fae16d"/>
      <path id="Trazado_587849" data-name="Trazado 587849" d="M104.1-796.082c-.041.786-.635.844-1.1,1.009q-6.221,2.183-12.45,4.344c-2.151.748-4.316,1.46-6.451,2.251a1.241,1.241,0,0,1-1.71-.54q-2.328-3.421-4.75-6.777c-.447-.62-.415-.874.351-1.137q9.919-3.411,19.816-6.885c.487-.17.864-.259,1.231.278,1.578,2.31,3.2,4.592,4.8,6.889A3.353,3.353,0,0,1,104.1-796.082Z" transform="translate(-103.152 -78.897)" fill="#fae16d"/>
      <path id="Trazado_587850" data-name="Trazado 587850" d="M26.214-822.216,16.08-818.69q-4.584,1.6-9.166,3.2a1.936,1.936,0,0,1-1.38.076q-9.723-3.414-19.456-6.787c.039-.418.385-.377.62-.459,3.354-1.18,6.719-2.329,10.061-3.541a1.167,1.167,0,0,1,1.523.409c1.778,2.109,3.6,4.18,5.409,6.263,1.538,1.771,3.337,1.76,4.89-.029,1.782-2.053,3.582-4.091,5.329-6.174a1.242,1.242,0,0,1,1.616-.461c3.3,1.2,6.632,2.334,9.948,3.5C25.722-822.607,26.049-822.634,26.214-822.216Z" transform="translate(-33.811 -61.894)" fill="#e0c85a"/>
      <path id="Trazado_587851" data-name="Trazado 587851" d="M-27.273-876.734c-.025,1.757.185,1.495-1.544,1.519-.64.009-1.281-.016-1.92.013a2.62,2.62,0,0,0-2.38,1.559,2.582,2.582,0,0,0,.32,2.821c.071.1.152.186.228.278,1.48,1.8,1.479,1.8-.8,2.59-3.321,1.159-6.646,2.308-9.958,3.493-.638.228-1.041.238-1.474-.41-1.467-2.193-3.018-4.331-4.521-6.5-.716-1.035-.6-1.375.633-1.8q9.23-3.212,18.466-6.411a2.054,2.054,0,0,1,2.945,2.01C-27.261-877.295-27.274-877.014-27.273-876.734Z" transform="translate(-6.584 -21.301)" fill="#fae06d"/>
      <path id="Trazado_587852" data-name="Trazado 587852" d="M98.6-869.193c.6-.705,1.115-1.3,1.621-1.908a2.6,2.6,0,0,0,.474-2.9,2.65,2.65,0,0,0-2.572-1.637,11.428,11.428,0,0,1-1.319-.013c-.644-.081-1.645.37-1.859-.262a3.889,3.889,0,0,1,.09-2.921c.822-1.669,1.1-1.753,2.886-1.132q9.119,3.163,18.235,6.335c1.356.472,1.448.765.618,1.96q-2.225,3.2-4.47,6.389c-.236.335-.376.753-1.012.526C107.113-866.248,102.922-867.688,98.6-869.193Z" transform="translate(-116.337 -20.869)" fill="#fae06d"/>
      <path id="Trazado_587853" data-name="Trazado 587853" d="M67.329-740.1c0,2.716-.005,5.433,0,8.149,0,.771-.055,1.552-1.055,1.522-.913-.027-.96-.774-.959-1.5q.01-8.209,0-16.418c0-.728.067-1.453.994-1.462s1.021.7,1.019,1.438C67.324-745.617,67.329-742.861,67.329-740.1Z" transform="translate(-94.013 -120.027)" fill="#0d0a0a"/>
    </g>
  </g>
</svg>
