<svg xmlns="http://www.w3.org/2000/svg" width="81.396" height="81.396" viewBox="0 0 81.396 81.396">
  <g id="Grupo_846494" data-name="Grupo 846494" transform="translate(-240 -1286.742)">
    <rect id="Rectángulo_38178" data-name="Rectángulo 38178" width="81.396" height="81.396" transform="translate(240 1286.742)" fill="none"/>
    <g id="Grupo_847395" data-name="Grupo 847395" transform="translate(196.906 2643.847)">
      <path id="Trazado_587854" data-name="Trazado 587854" d="M113.9-1307.37a1.116,1.116,0,0,1,.832,1.289c-.029,1.457-.019,2.916-.006,4.373a2.207,2.207,0,0,1-1.213,2.083c-7.752,4.36-15.465,8.794-23.286,13.028a10.61,10.61,0,0,1-6.559,1.256c-1.509-.216-3.2.54-4.485-.844-4.849-1.261-8.708-4.461-13.054-6.7-3.949-2.039-7.755-4.355-11.652-6.5a2.775,2.775,0,0,1-1.626-2.706q.043-18.587.019-37.174c0-2.3,1.177-3.132,3.342-2.33.471.175.666-.015.923-.277a20.448,20.448,0,0,0,1.69-1.742,2.1,2.1,0,0,1,2.761-.693c1.159.454,2.371.773,3.753,1.212,0-1.072-.01-2.055,0-3.038.017-1.372.473-1.687,1.714-1.2a28.862,28.862,0,0,1,16.656,16.085c.459-.168.427-.638.571-.964,3.3-7.467,9.111-12.209,16.513-15.219.886-.36,1.4,0,1.447.972.041.849.04,1.7,0,2.55-.03.662.106.858.808.6,1.211-.448,2.471-.764,3.694-1.182a1.3,1.3,0,0,1,1.522.4c.411.446.846.871,1.275,1.3.734.737,1.26,1.668,2.673.9.975-.528,2.281.533,2.467,1.7a6.187,6.187,0,0,1,.038.969q0,13.12.006,26.24c0,.711.038,1.41-.844,1.657-1-.156-.972-.89-.972-1.652.008-8.691,0-17.382.017-26.073,0-.967-.188-1.311-1.134-.714-1.054.665-2.147,1.269-3.223,1.9a2,2,0,0,0-.338.119q-9.367,5.271-18.73,10.55c-.234.132-.547.185-.593.531a1.507,1.507,0,0,0-.084.348q0,18.242.005,36.484a2.327,2.327,0,0,0,.055.358c-.087.439-.217.934.073,1.286.265.321.587-.055.841-.2q11.21-6.289,22.416-12.586a1.21,1.21,0,0,0,.714-1.247c-.042-1.293.016-2.59-.023-3.884A1.068,1.068,0,0,1,113.9-1307.37Zm-30.1,20.115c.726.023,1.455.008,2.176.079.826.082.968-.283,1.022-1.042.081-1.119-.286-1.521-1.387-1.364a17.329,17.329,0,0,1-1.812.076,20.261,20.261,0,0,1-2.03-.078c-.971-.13-1.154.275-1.178,1.181-.027,1.042.338,1.342,1.3,1.227C82.521-1287.251,83.162-1287.232,83.8-1287.255Zm-.01-36.821a18.53,18.53,0,0,1,2.038.063c1,.135,1.15-.306,1.175-1.2.029-1.03-.314-1.355-1.293-1.236-.633.077-1.279.043-1.919.058-.638-.015-1.283.021-1.913-.057-.98-.12-1.318.21-1.286,1.233.027.882.162,1.338,1.165,1.2A18.007,18.007,0,0,1,83.789-1324.077Zm2.945,4.055c.492-.468.142-1.06.231-1.589.081-.48-.184-.624-.635-.62-1.691.014-3.381,0-5.072.007-.279,0-.645-.027-.62.374.037.611-.253,1.27.221,1.828A38.736,38.736,0,0,0,86.734-1320.022Zm13.347-22.2c.164-.007.276-.066.251-.258a7.154,7.154,0,0,0,.008-2.186c-.229-1.042-.621-.079-.935-.076a25.261,25.261,0,0,0-11.795,10.21c-.135.151-.448.318-.29.493.212.236.371-.068.51-.231A46.085,46.085,0,0,1,100.081-1342.219Zm-19.405,24.286q-.025,9.764-.048,19.529c-.006,3.118,0,3.118,3.17,2.859.684.021,1.375-.008,2.052.075.9.111,1.146-.192,1.14-1.114-.045-6.178-.023-12.358-.023-18.537,0-3.179,0-3.179-3.173-2.991H80.87C80.716-1318.148,80.647-1318.093,80.675-1317.932Zm-6.109-19.192a1.073,1.073,0,0,1,1.686-.065c.767.657,1.561,1.286,2.368,1.894.3.223.592.848.943.525.421-.388-.189-.771-.412-1.1a23.767,23.767,0,0,0-4.147-4.57,28.933,28.933,0,0,0-7.685-4.772c-.414,2.731-.414,2.73,1.858,3.823.474.228.938.473,1.414.7a1.088,1.088,0,0,1,.733,1.243c-.476.727-1.038.7-1.759.316a67.029,67.029,0,0,0-6.893-2.942c-1.574-.625-2.65-.471-3.719.9-.562.72-.419.869.243,1.24q9.934,5.548,19.844,11.139a1.907,1.907,0,0,0,1.105.433,2.9,2.9,0,0,0,1.716.047c.729-.1.162-.361.015-.556a25.953,25.953,0,0,0-6.516-6.682C74.819-1335.964,74.335-1336.349,74.567-1337.124Zm4.12,10.45c-.091-.122-.156-.291-.278-.359q-11.416-6.434-22.839-12.855c-.574-.323-.924-.312-.894.467.011.282.036.563.055.844a1.367,1.367,0,0,0-.042.239q-.006,18.094-.007,36.187c0,.355-.078.751.38.921,1.644.941,3.281,1.9,4.935,2.82q7.389,4.136,14.788,8.253a24.341,24.341,0,0,0,3.63,2.024c.671-.245.337-.818.338-1.217q.033-18.184.015-36.368C78.768-1326.037,78.715-1326.356,78.687-1326.674Zm6.663-1.739a4.267,4.267,0,0,0,3.538-.538c1.342-.826,2.74-1.562,4.115-2.336l16.553-9.314c-.765-.618-1.429-1.083-2-1.641a1.03,1.03,0,0,0-1.183-.248,42.651,42.651,0,0,0-17.07,9.4A23.923,23.923,0,0,0,85.35-1328.413Zm-1.57,36.992c.848,0,1.7-.026,2.545.007.941.036.632-.659.62-1.094s.361-1.132-.589-1.123c-1.7.016-3.393,0-5.09.007-.266,0-.526-.048-.644.354-.36,1.234.063,1.849,1.339,1.85Z" transform="translate(0)" fill="#0e0c0d"/>
      <path id="Trazado_587855" data-name="Trazado 587855" d="M225.679-1284.024a1.068,1.068,0,0,0-.993,1.257c.039,1.294-.019,2.591.023,3.884a1.21,1.21,0,0,1-.714,1.247q-11.216,6.278-22.416,12.586c-.254.143-.576.519-.841.2-.29-.351-.161-.847-.073-1.285l.259-.243q4.12-2.3,8.24-4.608c3.414-1.914,6.818-3.844,10.241-5.743a2.23,2.23,0,0,0,1.239-2.245c-.052-7.08-.025-14.161-.024-21.241.589-.529,1.526-.7,1.465-1.844-.09-1.686-.032-3.381-.02-5.072.007-.981-.413-1.435-1.419-1.229-.009-1.4.013-2.805-.043-4.206-.026-.653.267-1.364-.253-1.958,1.076-.63,2.169-1.234,3.223-1.9.946-.6,1.137-.253,1.134.714-.02,8.691-.009,17.382-.017,26.073,0,.762-.025,1.5.972,1.652Q225.67-1286,225.679-1284.024Z" transform="translate(-111.78 -23.347)" fill="#f96ed5"/>
      <path id="Trazado_587856" data-name="Trazado 587856" d="M81.671-1261.457q-7.395-4.125-14.788-8.253c-1.653-.925-3.29-1.88-4.935-2.82.016-.606.044-1.212.045-1.818q0-17.649,0-35.3a2.228,2.228,0,0,1,.458.14q4.7,2.632,9.4,5.278c2.953,1.669,5.9,3.353,8.846,5.029a1.837,1.837,0,0,1,1,1.778Q81.66-1279.438,81.671-1261.457Z" transform="translate(-6.884 -28.702)" fill="#fe89df"/>
      <path id="Trazado_587857" data-name="Trazado 587857" d="M221.025-1293.39c0,7.08-.028,14.161.024,21.241a2.23,2.23,0,0,1-1.239,2.245c-3.422,1.9-6.827,3.829-10.241,5.743q-4.117,2.309-8.24,4.608,0-17.78-.008-35.561c0-.465.176-.979-.226-1.386.046-.346.36-.4.593-.531q9.363-5.279,18.73-10.55a1.991,1.991,0,0,1,.338-.119c.519.594.227,1.305.253,1.958.056,1.4.034,2.8.043,4.206-.339.216-.67.446-1.018.645q-7.636,4.371-15.28,8.731c-.612.349-1.184.655-1.165,1.52.038,1.741-.017,3.484.022,5.224.026,1.171.626,1.481,1.687.932.431-.223.845-.478,1.267-.718Z" transform="translate(-112.185 -30.173)" fill="#fd89de"/>
      <path id="Trazado_587858" data-name="Trazado 587858" d="M80.462-1266.879q.007-17.981.03-35.962a1.837,1.837,0,0,0-1-1.778c-2.949-1.676-5.893-3.36-8.846-5.029q-4.694-2.652-9.4-5.278a2.228,2.228,0,0,0-.458-.14l-.379-.232c-.019-.281-.045-.563-.055-.844-.03-.779.32-.79.894-.467q11.418,6.43,22.839,12.855c.121.068.186.237.278.36-.428.446-.23,1-.231,1.506q-.033,18.517-.04,37.034A24.329,24.329,0,0,1,80.462-1266.879Z" transform="translate(-5.675 -23.279)" fill="#f96ed4"/>
      <path id="Trazado_587859" data-name="Trazado 587859" d="M98.041-1312.353a1.907,1.907,0,0,1-1.105-.433q-9.92-5.572-19.844-11.139c-.663-.37-.805-.52-.243-1.24,1.069-1.37,2.145-1.524,3.719-.9a67,67,0,0,1,6.893,2.942c.721.384,1.283.411,1.759-.316l3.244,2.323c-.232.775.252,1.16.792,1.57a25.951,25.951,0,0,1,6.516,6.682C99.277-1312.413,98.519-1312.859,98.041-1312.353Z" transform="translate(-17.896 -16.01)" fill="#e0e8ee"/>
      <path id="Trazado_587860" data-name="Trazado 587860" d="M186.461-1312.863a23.916,23.916,0,0,1,3.949-4.676,42.651,42.651,0,0,1,17.07-9.4,1.03,1.03,0,0,1,1.183.248c.574.558,1.237,1.024,2,1.641l-16.553,9.314c-1.375.774-2.772,1.51-4.115,2.336A4.267,4.267,0,0,1,186.461-1312.863Z" transform="translate(-101.111 -15.551)" fill="#ecf0f5"/>
      <path id="Trazado_587861" data-name="Trazado 587861" d="M180.055-1226.665c3.173-.188,3.173-.188,3.173,2.991,0,6.179-.022,12.358.023,18.537.007.922-.24,1.225-1.14,1.114-.677-.083-1.367-.054-2.052-.075l0-4.836c.791-.178.953-.733.949-1.458-.017-3.316-.022-6.633,0-9.949a1.315,1.315,0,0,0-.946-1.483Q180.058-1224.245,180.055-1226.665Z" transform="translate(-96.263 -91.447)" fill="#fc6fd7"/>
      <path id="Trazado_587862" data-name="Trazado 587862" d="M170.207-1208.729l0,4.836c-3.171.26-3.176.26-3.17-2.859q.019-9.764.048-19.529l.194-.18h2.922q0,2.42.006,4.84c-.727.157-.945.66-.943,1.342.007,3.4.011,6.8,0,10.2A1.174,1.174,0,0,0,170.207-1208.729Z" transform="translate(-86.415 -91.652)" fill="#fd89de"/>
      <path id="Trazado_587863" data-name="Trazado 587863" d="M118.922-1329.778l-3.244-2.323a1.087,1.087,0,0,0-.733-1.243c-.475-.224-.94-.469-1.414-.7-2.271-1.093-2.272-1.091-1.858-3.823a28.936,28.936,0,0,1,7.685,4.772,23.767,23.767,0,0,1,4.147,4.57c.223.326.833.708.412,1.1-.351.323-.647-.3-.943-.525-.807-.608-1.6-1.237-2.368-1.894A1.073,1.073,0,0,0,118.922-1329.778Z" transform="translate(-44.356 -7.346)" fill="#ecf0f5"/>
      <path id="Trazado_587864" data-name="Trazado 587864" d="M195.746-1325.715a25.256,25.256,0,0,1,11.8-10.21l.935.076a7.153,7.153,0,0,1-.008,2.186l-.251.258a46.085,46.085,0,0,0-12.252,7.953Z" transform="translate(-108.138 -8.813)" fill="#dee6ec"/>
      <path id="Trazado_587865" data-name="Trazado 587865" d="M60.418-1310.6l.379.232q0,17.648,0,35.3c0,.606-.029,1.212-.045,1.818-.458-.17-.38-.565-.38-.921q0-18.093.007-36.187A1.365,1.365,0,0,1,60.418-1310.6Z" transform="translate(-5.686 -27.98)" fill="#fe8fe9"/>
      <path id="Trazado_587866" data-name="Trazado 587866" d="M169.8-1123.607h-1.818c-1.276,0-1.7-.616-1.339-1.85.117-.4.377-.353.644-.354,1.7-.006,3.393.009,5.09-.007.95-.009.577.7.589,1.123s.321,1.13-.62,1.094C171.5-1123.633,170.647-1123.607,169.8-1123.607Z" transform="translate(-86.019 -167.814)" fill="#fbd744"/>
      <path id="Trazado_587867" data-name="Trazado 587867" d="M167.144-1241.185c-.474-.558-.184-1.217-.221-1.828-.025-.4.341-.373.62-.374,1.691,0,3.381.007,5.072-.007.45,0,.716.14.635.62-.089.528.26,1.121-.231,1.589-1.429-.63-2.931-.171-4.4-.279C168.132-1241.5,167.557-1241.681,167.144-1241.185Z" transform="translate(-86.284 -78.837)" fill="#f1d042"/>
      <path id="Trazado_587868" data-name="Trazado 587868" d="M157.939-1223.12q.015-18.517.04-37.035c0-.5-.2-1.059.231-1.506.028.318.081.637.082.955q.006,18.184-.015,36.368C158.276-1223.938,158.61-1223.364,157.939-1223.12Z" transform="translate(-79.523 -65.014)" fill="#fc6fd7"/>
      <path id="Trazado_587869" data-name="Trazado 587869" d="M200.83-1261.657c.4.407.226.922.226,1.386q.015,17.78.008,35.56l-.259.243a2.328,2.328,0,0,1-.055-.358q-.007-18.242-.005-36.484A1.5,1.5,0,0,1,200.83-1261.657Z" transform="translate(-111.92 -65.016)" fill="#fe8fe9"/>
      <path id="Trazado_587870" data-name="Trazado 587870" d="M170.089-1258.437a18.007,18.007,0,0,0-2.032.061c-1,.137-1.138-.319-1.165-1.2-.032-1.024.305-1.354,1.286-1.233.63.077,1.275.042,1.913.057Q170.09-1259.6,170.089-1258.437Z" transform="translate(-86.3 -65.639)" fill="#fd89de"/>
      <path id="Trazado_587871" data-name="Trazado 587871" d="M180.044-1258.442q0-1.158,0-2.316c.64-.016,1.286.018,1.919-.058.98-.119,1.322.206,1.293,1.236-.025.895-.177,1.336-1.175,1.2A18.591,18.591,0,0,0,180.044-1258.442Z" transform="translate(-96.255 -65.635)" fill="#f96ed4"/>
      <path id="Trazado_587872" data-name="Trazado 587872" d="M170.1-1106.921c-.637.023-1.278,0-1.909.079-.963.115-1.328-.186-1.3-1.227.024-.906.207-1.31,1.178-1.181a20.224,20.224,0,0,0,2.03.078Z" transform="translate(-86.296 -180.335)" fill="#fe89df"/>
      <path id="Trazado_587873" data-name="Trazado 587873" d="M180.08-1106.944v-2.25a17.329,17.329,0,0,0,1.812-.076c1.1-.157,1.468.245,1.387,1.364-.054.759-.2,1.124-1.022,1.042C181.535-1106.935,180.806-1106.92,180.08-1106.944Z" transform="translate(-96.281 -180.312)" fill="#fc6fd7"/>
      <path id="Trazado_587874" data-name="Trazado 587874" d="M168-1235.373c.413-.5.988-.314,1.478-.278,1.465.107,2.967-.351,4.4.278A38.736,38.736,0,0,1,168-1235.373Z" transform="translate(-87.14 -84.649)" fill="#c4af38"/>
      <path id="Trazado_587875" data-name="Trazado 587875" d="M165.059-1270.189c.478-.505,1.236-.06,1.731-.509.146.2.713.461-.015.556A2.9,2.9,0,0,1,165.059-1270.189Z" transform="translate(-84.915 -58.174)" fill="#dee6ec"/>
      <path id="Trazado_587876" data-name="Trazado 587876" d="M245.174-1337.121l-.935-.076C244.553-1337.2,244.945-1338.163,245.174-1337.121Z" transform="translate(-144.835 -7.541)" fill="#ecf0f5"/>
      <path id="Trazado_587877" data-name="Trazado 587877" d="M194.927-1293.689c-.139.163-.3.467-.51.231-.158-.176.155-.342.29-.493Z" transform="translate(-107.099 -40.577)" fill="#dee6ec"/>
      <path id="Trazado_587878" data-name="Trazado 587878" d="M247.021-1326.368l.251-.258C247.3-1326.434,247.185-1326.376,247.021-1326.368Z" transform="translate(-146.94 -15.85)" fill="#ecf0f5"/>
      <path id="Trazado_587879" data-name="Trazado 587879" d="M167.418-1226.493l-.194.18C167.2-1226.474,167.264-1226.529,167.418-1226.493Z" transform="translate(-86.548 -91.619)" fill="#fc6fd7"/>
      <path id="Trazado_587880" data-name="Trazado 587880" d="M228.783-1274.364l-14.461,8.191c-.423.239-.836.494-1.267.718-1.061.549-1.661.239-1.687-.932-.039-1.741.017-3.484-.022-5.224-.019-.865.553-1.172,1.165-1.52q7.645-4.356,15.279-8.731c.348-.2.679-.429,1.018-.645,1.006-.206,1.426.248,1.419,1.229-.011,1.691-.07,3.385.02,5.071C230.308-1275.068,229.372-1274.893,228.783-1274.364Zm-.4-5.722c-5.056,2.891-9.892,5.659-14.734,8.415a.772.772,0,0,0-.444.773c.017,1.027.006,2.055.006,3.246,5.022-2.868,9.86-5.634,14.7-8.39a.879.879,0,0,0,.474-.89C228.366-1277.9,228.379-1278.869,228.379-1280.085Z" transform="translate(-119.942 -49.2)" fill="#0e0c0d"/>
      <path id="Trazado_587881" data-name="Trazado 587881" d="M177.128-1193.67a1.174,1.174,0,0,1-.941-1.345c.015-3.4.01-6.8,0-10.2,0-.682.216-1.184.943-1.342a1.315,1.315,0,0,1,.946,1.483c-.025,3.316-.021,6.633,0,9.949C178.082-1194.4,177.92-1193.848,177.128-1193.67Z" transform="translate(-93.337 -106.711)" fill="#170d15"/>
      <path id="Trazado_587882" data-name="Trazado 587882" d="M234.15-1272.4c0,1.216-.012,2.186.006,3.154a.879.879,0,0,1-.474.89c-4.844,2.755-9.682,5.521-14.7,8.39,0-1.191.011-2.219-.006-3.246a.772.772,0,0,1,.444-.773C224.259-1266.737,229.094-1269.505,234.15-1272.4Z" transform="translate(-125.714 -56.889)" fill="#f8f8f8"/>
    </g>
  </g>
</svg>
