<svg xmlns="http://www.w3.org/2000/svg" xmlns:xlink="http://www.w3.org/1999/xlink" width="211" height="211" viewBox="0 0 211 211">
  <defs>
    <filter id="Elipse_7414" x="0" y="0" width="211" height="211" filterUnits="userSpaceOnUse">
      <feOffset dx="5" dy="5" input="SourceAlpha"/>
      <feGaussianBlur stdDeviation="12.5" result="blur"/>
      <feFlood flood-opacity="0.09"/>
      <feComposite operator="in" in2="blur"/>
      <feComposite in="SourceGraphic"/>
    </filter>
  </defs>
  <g id="Grupo_848433" data-name="Grupo 848433" transform="translate(-352.5 -4888.855)">
    <g transform="matrix(1, 0, 0, 1, 352.5, 4888.85)" filter="url(#Elipse_7414)">
      <g id="Elipse_7414-2" data-name="Elipse 7414" transform="translate(32.5 32.5)" fill="#f6f6f6" stroke="#fff" stroke-width="5">
        <circle cx="68" cy="68" r="68" stroke="none"/>
        <circle cx="68" cy="68" r="65.5" fill="none"/>
      </g>
    </g>
    <g id="Grupo_847521" data-name="Grupo 847521" transform="translate(-231.538 4873.435)">
      <path id="Trazado_588225" data-name="Trazado 588225" d="M696.068,94.667c6.707,0,13.232,0,19.757,0,3.3,0,4.559,1.253,4.56,4.531q0,18.381,0,36.763c0,3.27-1.263,4.514-4.577,4.514-7.282,0-14.564.024-21.846-.024-1.043-.007-1.426.228-1.321,1.309s-.361,2.488.162,3.233c.571.815,2.046.242,3.123.281a1.941,1.941,0,0,1,1.619.9c.978,1.336,1.981,2.654,2.976,3.978.364.485.776.961.469,1.629-.331.719-.972.755-1.655.754q-8.965-.014-17.929,0-6.1,0-12.2,0c-.664,0-1.323.03-1.7-.673-.4-.732.083-1.233.466-1.755a19.2,19.2,0,0,0,1.164-1.572c1.32-2.251,2.939-3.9,5.868-3.245.54.122.751-.118.81-.725.4-4.088.416-4.087-3.639-4.087q-9.869,0-19.737,0c-3.063,0-4.366-1.321-4.367-4.422q-.005-18.532,0-37.064c0-2.99,1.329-4.317,4.314-4.32,6.227-.006,12.455-.026,18.682.021,1.022.008,1.35-.142,1.191-1.274A10.4,10.4,0,0,1,673.423,87c.442-.828.194-1.131-.411-1.69a9.207,9.207,0,0,0-8.026-2.726c-1.128.175-2.316-.067-3.458.054-1.247.132-1.487-.372-1.451-1.5.028-.855.346-.966,1.07-.956,2.712.034,5.424.024,8.136.007a2.131,2.131,0,0,1,1.524.5c.3.265.642.482.964.721,1.086.809,2.07,1.994,3.286,2.326,1.256.343,1.988-1.3,3.076-1.913a12.014,12.014,0,0,1,14.014,1.4c.708.628,1.2.918,1.929.147a10.618,10.618,0,0,1,9.664-3.2,20.469,20.469,0,0,0,3.762.01c1.173-.065.782.753.822,1.315.043.6.159,1.185-.856,1.139-1.9-.086-3.823.079-5.722-.054a5.842,5.842,0,0,0-4.778,1.6c-.682.656-1.77,1.044-2.153,1.813-.375.751.586,1.581.845,2.427A13.324,13.324,0,0,1,696.068,94.667Zm-5.875,48.227a7.2,7.2,0,0,1,.058-.745c.245-1.373-.315-1.761-1.682-1.705-2.744.112-5.5.033-8.244.033-2.195,0-2.195,0-2.1,2.269a1.174,1.174,0,0,0,.024.148,6.749,6.749,0,0,1-.057.744c-.257,1.391.342,1.74,1.686,1.689,2.792-.106,5.59-.032,8.386-.032,2.019,0,2.02,0,1.975-1.955C690.238,143.191,690.21,143.043,690.193,142.894Zm23.871-45.759c-5.737-.018-11.474.017-17.209-.09a2.071,2.071,0,0,0-2.409,1.757c-.165.184-.343.358-.493.553a12.013,12.013,0,0,1-19.38.12c-.175-.219-.259-.557-.629-.566-.5-.668-.209-1.875-1.687-1.859-6.728.073-13.456.038-20.185.027-1.044,0-1.6.424-1.6,1.512q.032,14.309.054,28.618a20.388,20.388,0,0,1-.07,2.253c-.159,1.161.31,1.4,1.412,1.394q32.378-.05,64.756,0c1.188,0,1.375-.378,1.371-1.447-.04-9.538-.023-19.076-.023-28.614C717.973,96.916,717.973,96.916,714.064,97.135ZM684.3,133.246c-10.839,0-21.678.015-32.516-.024-1.041,0-1.49.238-1.317,1.314a6.771,6.771,0,0,1,.009,1.053c0,2.4.071,2.473,2.437,2.473h61.72c3.355,0,3.3,0,3.373-3.376.028-1.205-.33-1.472-1.491-1.467C705.774,133.264,695.036,133.246,684.3,133.246Zm-6.949-47.673c.59.449,1.115.91,1.7,1.277.787.494,1.117.873.4,1.822-.707.931-1.169.793-1.847.128-.248-.244-.585-.4-.831-.643-.74-.74-1.113-.466-1.451.4a9.655,9.655,0,0,0,9.786,13.322,9.338,9.338,0,0,0,8.311-7.209c-2.818,0-5.619.006-8.419,0-1.742-.005-1.973-.244-1.977-2.026-.007-2.958-.038-5.917.018-8.874.018-.933-.267-1.1-1.1-.868A9.509,9.509,0,0,0,677.349,85.572ZM697.267,150.1c-.76-1.665-1.656-2.485-3.559-2.442-6.418.144-12.84.055-19.261.055-1.9,0-2.51.464-3.1,2.387Zm-11.839-62.7c0,1.151.07,2.308-.02,3.452-.085,1.077.182,1.518,1.37,1.439,1.694-.112,3.4-.028,5.1-.028,2.242,0,2.241,0,1.707-2.244-.023-.1-.036-.2-.063-.294-.653-2.4-.7-2.442-2.661-.914-.736.574-1.153.8-1.862-.134-.722-.953-.387-1.348.408-1.819.343-.2.629-.5.97-.706.777-.47.568-.867-.022-1.325a11.445,11.445,0,0,0-3.714-1.9c-1.023-.314-1.3.01-1.233,1.023C685.489,85.088,685.429,86.243,685.428,87.394Z" fill="#030404"/>
      <path id="Trazado_588226" data-name="Trazado 588226" d="M670.026,98.9c-1.7,0-3.411-.062-5.111.022-1.1.054-.886-.618-.9-1.247-.02-.672-.11-1.235.94-1.215q5.109.1,10.223,0c1.093-.021.886.62.9,1.248.02.672.113,1.268-.94,1.213C673.437,98.839,671.73,98.9,670.026,98.9Z" transform="translate(-11.135 -11.466)" fill="#050505"/>
      <path id="Trazado_588227" data-name="Trazado 588227" d="M832.146,98.792q0-.905,0-1.811l.245-.244h11.454l.244.245q0,.905,0,1.811l-.245.244H832.39Z" transform="translate(-128.581 -11.658)" fill="#020203"/>
      <path id="Trazado_588228" data-name="Trazado 588228" d="M692.731,114.9c-1.3,0-2.608-.055-3.907.017-1.166.065-.789-.74-.83-1.305-.043-.6-.152-1.171.841-1.147q3.98.095,7.964,0c1.163-.027.788.742.829,1.308.043.6.155,1.2-.841,1.145C695.44,114.844,694.084,114.9,692.731,114.9Z" transform="translate(-27.877 -22.643)" fill="#050505"/>
      <path id="Trazado_588229" data-name="Trazado 588229" d="M820.832,112.468c1.253,0,2.511.077,3.755-.022,1.2-.1.909.675.974,1.333.079.8-.118,1.149-1.032,1.126-2.553-.064-5.111-.084-7.663.005-1.2.042-.908-.681-.973-1.339-.08-.8.117-1.18,1.033-1.123C818.224,112.528,819.53,112.468,820.832,112.468Z" transform="translate(-117.218 -22.624)" fill="#050505"/>
      <path id="Trazado_588230" data-name="Trazado 588230" d="M858.137,114.869a7.954,7.954,0,0,0-1.049.008c-.932.125-1.3-.157-1.276-1.192.025-.939.2-1.364,1.229-1.248a11.991,11.991,0,0,0,2.4,0c.935-.084,1.3.165,1.276,1.2-.025.939-.207,1.395-1.229,1.241A9.18,9.18,0,0,0,858.137,114.869Z" transform="translate(-145.111 -22.61)" fill="#050505"/>
      <path id="Trazado_588231" data-name="Trazado 588231" d="M858.41,80.468a7.33,7.33,0,0,0,1.049-.008c.966-.141,1.263.214,1.258,1.21-.006.976-.259,1.332-1.248,1.229a11.922,11.922,0,0,0-2.4,0c-.97.1-1.264-.222-1.258-1.218.006-.976.261-1.362,1.248-1.223A9.765,9.765,0,0,0,858.41,80.468Z" transform="translate(-145.113 -0.267)" fill="#050505"/>
      <path id="Trazado_588232" data-name="Trazado 588232" d="M666.516,80.468a7.33,7.33,0,0,0,1.049-.008c.966-.141,1.263.214,1.258,1.21-.006.976-.259,1.332-1.248,1.229a11.923,11.923,0,0,0-2.4,0c-.97.1-1.264-.222-1.258-1.218.006-.976.262-1.362,1.248-1.223A9.759,9.759,0,0,0,666.516,80.468Z" transform="translate(-11.08 -0.267)" fill="#050505"/>
      <path id="Trazado_588233" data-name="Trazado 588233" d="M666.369,112.443a7.754,7.754,0,0,0,1.049-.008c.971-.134,1.371.108,1.39,1.239.02,1.226-.551,1.257-1.438,1.193a8.775,8.775,0,0,0-1.947.008c-1.294.2-1.622-.331-1.524-1.551.06-.744.289-.95.971-.889C665.366,112.479,665.869,112.443,666.369,112.443Z" transform="translate(-11.053 -22.599)" fill="#050505"/>
      <path id="Trazado_588234" data-name="Trazado 588234" d="M818.455,96.983v1.811l-.245.244H816.4l-.244-.245q0-.905,0-1.811l.245-.244h1.811Z" transform="translate(-117.412 -11.658)" fill="#020203"/>
      <path id="Trazado_588235" data-name="Trazado 588235" d="M714.513,96.983v1.811l-.245.244h-1.811l-.244-.245V96.982l.245-.244h1.811Z" transform="translate(-44.811 -11.658)" fill="#020203"/>
      <path id="Trazado_588236" data-name="Trazado 588236" d="M822.969,103.8l.245-.244Q823.288,103.876,822.969,103.8Z" transform="translate(-122.171 -16.42)" fill="#0e0e0e"/>
      <path id="Trazado_588237" data-name="Trazado 588237" d="M816.121,103.551l.244.245Q816.045,103.871,816.121,103.551Z" transform="translate(-117.378 -16.417)" fill="#0e0e0e"/>
      <path id="Trazado_588238" data-name="Trazado 588238" d="M870.942,103.8l.245-.244Q871.262,103.876,870.942,103.8Z" transform="translate(-155.679 -16.42)" fill="#0e0e0e"/>
      <path id="Trazado_588239" data-name="Trazado 588239" d="M719.026,103.8l.245-.244Q719.346,103.876,719.026,103.8Z" transform="translate(-49.57 -16.42)" fill="#0e0e0e"/>
      <path id="Trazado_588240" data-name="Trazado 588240" d="M712.179,103.551l.244.245Q712.1,103.871,712.179,103.551Z" transform="translate(-44.777 -16.417)" fill="#0e0e0e"/>
      <path id="Trazado_588241" data-name="Trazado 588241" d="M871.191,96.95l-.244-.245Q871.267,96.631,871.191,96.95Z" transform="translate(-155.683 -11.625)" fill="#0e0e0e"/>
      <path id="Trazado_588242" data-name="Trazado 588242" d="M832.359,96.7l-.245.244Q832.04,96.628,832.359,96.7Z" transform="translate(-128.549 -11.624)" fill="#0e0e0e"/>
      <path id="Trazado_588243" data-name="Trazado 588243" d="M823.218,96.95l-.244-.245Q823.294,96.631,823.218,96.95Z" transform="translate(-122.175 -11.625)" fill="#0e0e0e"/>
      <path id="Trazado_588244" data-name="Trazado 588244" d="M816.369,96.7l-.245.244Q816.049,96.628,816.369,96.7Z" transform="translate(-117.38 -11.624)" fill="#0e0e0e"/>
      <path id="Trazado_588245" data-name="Trazado 588245" d="M719.275,96.95l-.244-.245Q719.351,96.631,719.275,96.95Z" transform="translate(-49.573 -11.625)" fill="#0e0e0e"/>
      <path id="Trazado_588246" data-name="Trazado 588246" d="M712.426,96.7l-.245.244Q712.106,96.628,712.426,96.7Z" transform="translate(-44.779 -11.624)" fill="#0e0e0e"/>
      <path id="Trazado_588247" data-name="Trazado 588247" d="M832.112,103.551l.244.245Q832.036,103.871,832.112,103.551Z" transform="translate(-128.547 -16.417)" fill="#0e0e0e"/>
      <path id="Trazado_588248" data-name="Trazado 588248" d="M656.121,166.577q-.026-14.309-.054-28.618c0-1.088.556-1.514,1.6-1.512,6.729.01,13.457.046,20.185-.027,1.478-.016,1.189,1.191,1.687,1.859a9.13,9.13,0,0,0,2.016,3.953c1.617,2,3.86,2.939,6.16,3.808-2.146.017-4.294.092-6.438.026-.99-.03-1.154.349-1.13,1.211.022.79.03,1.3,1.087,1.254,2.094-.088,4.194-.026,6.291-.026,2.337,0,2.337,0,2.263-2.392a8.516,8.516,0,0,0,2.8-.391c3.86-1.032,7.125-4.463,7.454-7.552a2.071,2.071,0,0,1,2.409-1.756c5.735.107,11.472.073,17.209.09a4.308,4.308,0,0,1,.288,2.3c-3.3-.6-5.512.924-7.163,3.612-.338.551-.9.964-1.227,1.521a4.04,4.04,0,0,1-4.624,2.153c-3.4-.65-5.695.5-6.6,3.984-.177.682-.659.888-1.364.855-1.2-.057-2.411.017-3.615-.025-.8-.028-.8.5-.7.985s-.484,1.408.546,1.411c2,.008,4.109.48,5.964-.219,1.278-.481,1.394-2.331,2.132-3.509a.578.578,0,0,0,.066-.135,1.252,1.252,0,0,1,1.459-.948c1.555.061,3.116-.039,4.669.038a2.526,2.526,0,0,0,2.306-1.095c1.082-1.384,2.391-2.613,3.323-4.086a4.219,4.219,0,0,1,4.827-2.018q0,3.562,0,7.124-2.021.025-4.041.05c-1.739.019-1.972.249-1.981,2.011q-.035,6.814-.061,13.627l-2.3.946q-.026-6.1-.053-12.192c-.009-1.742-.247-1.97-2.029-1.981q-1.581-.01-3.162,0c-1.831.011-2.035.223-2.042,2.117q-.026,6.773-.05,13.547h-2.308q-.025-4.286-.049-8.573c-.009-2.141-.136-2.269-2.34-2.272q-1.279,0-2.558,0c-2.2,0-2.33.13-2.339,2.272q-.019,4.286-.049,8.573h-4.714c.1-.956-.308-1.236-1.277-1.225q-7.217.078-14.435,0c-.969-.011-1.374.27-1.277,1.225h-2.3c.008-.759-.065-1.262-1.126-1.234q-4.955.133-9.916,0c-1.06-.029-1.134.474-1.126,1.234Zm10.795-24.344c0-.5.007-1,0-1.505-.024-1.612-.514-2.026-2.137-1.819a7.241,7.241,0,1,0,7.847,9.3c.822-2.7.367-3.324-2.443-3.324h-.6C666.916,144.885,666.916,144.885,666.916,142.234Zm11.573,13.5c-3.465,0-6.931.045-10.395-.027-1.063-.022-1.2.386-1.216,1.3-.019.947.28,1.168,1.194,1.163q10.319-.056,20.639,0c1,.007,1.144-.364,1.133-1.221-.011-.822-.077-1.264-1.111-1.243C685.32,155.778,681.9,155.735,678.489,155.735Zm-10.38,7.235c2.862,0,5.725-.031,8.586.019.862.015,1.162-.255,1.082-1.1-.064-.673.192-1.364-.985-1.354q-8.661.081-17.324,0c-.98-.008-1.014.442-1.01,1.181,0,.767-.03,1.313,1.065,1.282C662.383,162.916,665.246,162.97,668.109,162.97Zm14.473-9.644c2.058,0,4.118-.04,6.175.019.874.025,1.153-.273,1.073-1.111-.065-.673.188-1.366-.992-1.348-4.167.067-8.335.058-12.5,0-.99-.013-1,.461-1,1.189,0,.78-.01,1.322,1.073,1.274C678.461,153.262,680.523,153.326,682.582,153.326Zm2.335,9.644c1.306,0,2.615-.064,3.915.021.995.065,1.036-.458.994-1.188-.037-.631.177-1.294-.913-1.267q-3.914.1-7.831,0c-1.084-.027-.885.626-.918,1.263-.037.723-.012,1.259.989,1.192C682.4,162.906,683.662,162.97,684.917,162.97Zm-23.35-4.822c.5,0,1.006-.025,1.506.006.858.052,1.5.088,1.481-1.178-.02-1.141-.441-1.327-1.412-1.258a31.582,31.582,0,0,1-3.161.009c-.9-.027-1.588-.1-1.563,1.256.024,1.266.643,1.217,1.493,1.171C660.462,158.124,661.015,158.148,661.567,158.148Zm16.17-10.907c.271-1.1-.366-1.132-1.228-1.183-1.061-.064-1.154.4-1.2,1.287-.049,1.059.4,1.162,1.29,1.194C677.642,148.576,677.939,148.185,677.737,147.242Z" transform="translate(-5.595 -39.37)" fill="#56a2fb"/>
      <path id="Trazado_588249" data-name="Trazado 588249" d="M689.791,256.415c10.738,0,21.476.019,32.215-.027,1.161-.005,1.519.261,1.491,1.467-.078,3.374-.018,3.376-3.373,3.376H658.4c-2.366,0-2.434-.071-2.437-2.473a6.771,6.771,0,0,0-.009-1.053c-.173-1.076.276-1.318,1.317-1.314C668.113,256.43,678.952,256.415,689.791,256.415Z" transform="translate(-5.493 -123.17)" fill="#c4c3c8"/>
      <path id="Trazado_588250" data-name="Trazado 588250" d="M670.48,166.615h2.3c-.088.944.294,1.247,1.276,1.237q7.218-.08,14.438,0c.981.011,1.364-.292,1.275-1.237h4.714a1.489,1.489,0,0,0,1.741,1.221q1.924-.057,3.852,0a1.492,1.492,0,0,0,1.742-1.221h2.308a1.388,1.388,0,0,0,1.474,1.213c1.453-.012,2.906,0,4.359,0a1.3,1.3,0,0,0,1.453-1.5c0-.4.032-.8.05-1.2l2.3-.946c.02.55.051,1.1.059,1.649.023,1.754.25,1.988,2.008,2,1.152.008,2.305-.035,3.456.011,1.287.052,1.793-.518,1.786-1.8q-.047-7.889,0-15.779c0-.924-.27-1.558-1.222-1.775v-7.124c.928.083,1.254-.276,1.254-1.262s-.326-1.345-1.254-1.262a4.308,4.308,0,0,0-.288-2.3c3.908-.219,3.908-.219,3.908,3.664,0,9.538-.017,19.076.023,28.614,0,1.068-.182,1.449-1.371,1.447q-32.378-.06-64.756,0c-1.1,0-1.57-.234-1.412-1.394a20.373,20.373,0,0,0,.07-2.253l2.3,0c0,.752.057,1.273,1.124,1.244q4.957-.132,9.919,0C670.423,167.888,670.482,167.368,670.48,166.615Z" transform="translate(-5.488 -39.406)" fill="#2386fb"/>
      <path id="Trazado_588251" data-name="Trazado 588251" d="M738.782,91.958a9.509,9.509,0,0,1,4.585-2.674c.835-.234,1.12-.065,1.1.868-.057,2.957-.025,5.916-.018,8.874,0,1.782.235,2.02,1.977,2.026,2.8.009,5.6,0,8.419,0a9.338,9.338,0,0,1-8.311,7.209,9.655,9.655,0,0,1-9.786-13.322c.338-.866.711-1.139,1.451-.4.245.245.583.4.831.643.678.665,1.14.8,1.847-.128.721-.95.391-1.328-.4-1.822C739.9,92.868,739.372,92.407,738.782,91.958Z" transform="translate(-61.433 -6.386)" fill="#fada53"/>
      <path id="Trazado_588252" data-name="Trazado 588252" d="M751.219,306.7H725.3c.59-1.923,1.2-2.387,3.1-2.387,6.421,0,12.843.089,19.261-.055C749.562,304.219,750.459,305.038,751.219,306.7Z" transform="translate(-53.951 -156.607)" fill="#c2c1c6"/>
      <path id="Trazado_588253" data-name="Trazado 588253" d="M771.916,93.78c0-1.151.061-2.306-.018-3.452-.069-1.013.21-1.337,1.233-1.023a11.444,11.444,0,0,1,3.714,1.9c.59.458.8.855.022,1.325-.341.206-.627.5-.97.706-.8.471-1.13.867-.408,1.819.709.936,1.126.708,1.862.134,1.959-1.528,2.008-1.49,2.661.914.026.1.04.2.063.294.535,2.244.535,2.244-1.707,2.244-1.7,0-3.408-.084-5.1.028-1.188.079-1.454-.362-1.37-1.439C771.986,96.088,771.916,94.931,771.916,93.78Z" transform="translate(-86.488 -6.386)" fill="#f87654"/>
      <path id="Trazado_588254" data-name="Trazado 588254" d="M742.091,150.111c-2.3-.869-4.543-1.806-6.16-3.808a9.13,9.13,0,0,1-2.016-3.953c.369.009.453.346.628.566a12.013,12.013,0,0,0,19.38-.12c.15-.2.328-.369.493-.553-.329,3.089-3.594,6.519-7.454,7.551a8.508,8.508,0,0,1-2.8.39Z" transform="translate(-59.969 -43.441)" fill="#2386fb"/>
      <path id="Trazado_588255" data-name="Trazado 588255" d="M748.068,282.789a1.2,1.2,0,0,1-.024-.148c-.1-2.269-.1-2.269,2.1-2.269,2.748,0,5.5.079,8.244-.033,1.367-.056,1.927.332,1.682,1.705a7.217,7.217,0,0,0-.058.745Z" transform="translate(-69.816 -139.895)" fill="#2386fb"/>
      <path id="Trazado_588256" data-name="Trazado 588256" d="M747.928,288.476H759.87c.017.149.045.3.049.446.045,1.955.044,1.955-1.975,1.955-2.8,0-5.594-.074-8.386.032-1.344.051-1.943-.3-1.686-1.689A6.749,6.749,0,0,0,747.928,288.476Z" transform="translate(-69.677 -145.582)" fill="#56a2fb"/>
      <path id="Trazado_588257" data-name="Trazado 588257" d="M853.833,176.34c.952.217,1.226.851,1.222,1.775q-.034,7.889,0,15.779c.008,1.278-.5,1.847-1.786,1.8-1.15-.046-2.3,0-3.456-.011-1.758-.012-1.985-.246-2.008-2-.008-.55-.039-1.1-.059-1.649q.03-6.814.062-13.628c.009-1.762.242-1.992,1.981-2.011Q851.812,176.368,853.833,176.34Zm-1.2,9.719h-.008c0-2-.043-4,.018-6,.03-.962-.248-1.287-1.25-1.272-.921.014-1.19.266-1.181,1.187q.063,6.154-.014,12.309c-.013.98.456,1,1.187,1.005.779,0,1.32,0,1.274-1.073C852.57,190.165,852.633,188.111,852.633,186.059Z" transform="translate(-139.48 -67.258)" fill="#020203"/>
      <path id="Trazado_588258" data-name="Trazado 588258" d="M672.5,147.9c0,2.651,0,2.651,2.663,2.651h.6c2.81,0,3.264.619,2.443,3.324a7.232,7.232,0,1,1-7.847-9.3c1.624-.207,2.113.207,2.138,1.819C672.511,146.9,672.5,147.4,672.5,147.9Zm-2.413,1.943c0-.652-.024-1.306.007-1.957.033-.693-.246-.734-.812-.515a4.926,4.926,0,0,0-2.779,4.913,4.869,4.869,0,0,0,4.227,4.261,4.941,4.941,0,0,0,4.935-2.744c.308-.736.043-.863-.62-.845-1.053.027-2.109-.031-3.161.016-1.274.057-1.886-.475-1.8-1.774C670.118,150.751,670.092,150.3,670.091,149.846Z" transform="translate(-11.183 -45.038)" fill="#030404"/>
      <path id="Trazado_588259" data-name="Trazado 588259" d="M823.138,198.669c-.018.4-.051.8-.05,1.2a1.3,1.3,0,0,1-1.453,1.5c-1.453,0-2.906-.008-4.359,0a1.388,1.388,0,0,1-1.474-1.213q.025-6.773.05-13.547c.008-1.894.211-2.106,2.042-2.117q1.581-.009,3.162,0c1.782.011,2.02.239,2.029,1.981Q823.117,192.573,823.138,198.669ZM820.6,188.112c.264-1.009-.206-1.207-1.133-1.207s-1.4.2-1.133,1.208c-.024,3.355-.026,6.71-.085,10.064-.019,1.039.678.774,1.218.774s1.237.266,1.218-.774C820.627,194.822,820.625,191.467,820.6,188.112Z" transform="translate(-117.165 -72.951)" fill="#020203"/>
      <path id="Trazado_588260" data-name="Trazado 588260" d="M809.165,144.035c.928-.083,1.254.276,1.254,1.262s-.326,1.345-1.254,1.262a4.219,4.219,0,0,0-4.827,2.018c-.932,1.472-2.241,2.7-3.322,4.086a2.526,2.526,0,0,1-2.306,1.095c-1.553-.077-3.114.023-4.669-.038a1.252,1.252,0,0,0-1.459.948.577.577,0,0,1-.066.135c-.737,1.179-.854,3.028-2.131,3.509-1.855.7-3.965.226-5.964.219-1.03,0-.442-.918-.546-1.411s-.1-1.013.7-.985c1.2.042,2.412-.032,3.615.025.7.033,1.187-.173,1.363-.855.9-3.486,3.2-4.634,6.6-3.984a4.04,4.04,0,0,0,4.624-2.153c.324-.556.889-.97,1.227-1.521C803.654,144.958,805.866,143.43,809.165,144.035Z" transform="translate(-94.813 -44.602)" fill="#020306"/>
      <path id="Trazado_588261" data-name="Trazado 588261" d="M791.154,211.337a1.492,1.492,0,0,1-1.742,1.221q-1.925-.059-3.852,0a1.489,1.489,0,0,1-1.741-1.221q.025-4.286.049-8.573c.009-2.142.135-2.269,2.339-2.272q1.279,0,2.558,0c2.2,0,2.331.131,2.34,2.272Q791.124,207.05,791.154,211.337Zm-2.512-7.2c.247-1-.2-1.256-1.156-1.256s-1.4.252-1.156,1.256c-.016,1.691.02,3.384-.068,5.071-.054,1.039.558.94,1.224.94s1.278.1,1.224-.94C788.622,207.516,788.658,205.823,788.642,204.132Z" transform="translate(-94.825 -84.127)" fill="#010204"/>
      <path id="Trazado_588262" data-name="Trazado 588262" d="M703.532,200.429c3.415,0,6.83.043,10.244-.026,1.034-.021,1.1.422,1.111,1.243.011.858-.133,1.228-1.133,1.221q-10.319-.07-20.639,0c-.914.005-1.213-.216-1.194-1.163.018-.912.153-1.32,1.216-1.3C696.6,200.474,700.067,200.429,703.532,200.429Z" transform="translate(-30.638 -84.064)" fill="#010204"/>
      <path id="Trazado_588263" data-name="Trazado 588263" d="M673.646,218.842c-2.862,0-5.726-.054-8.586.028-1.095.031-1.061-.515-1.065-1.282,0-.739.03-1.189,1.01-1.181q8.661.069,17.324,0c1.178-.011.921.68.985,1.354.081.848-.22,1.118-1.082,1.1C679.371,218.811,676.508,218.842,673.646,218.842Z" transform="translate(-11.131 -95.241)" fill="#010204"/>
      <path id="Trazado_588264" data-name="Trazado 588264" d="M728.8,233.621c.088.944-.294,1.247-1.275,1.237q-7.219-.08-14.438,0c-.981.011-1.364-.292-1.276-1.237-.1-.956.308-1.236,1.277-1.225q7.217.078,14.435,0C728.49,232.386,728.895,232.666,728.8,233.621Z" transform="translate(-44.519 -106.412)" fill="#010204"/>
      <path id="Trazado_588265" data-name="Trazado 588265" d="M727.21,186.854c-2.059,0-4.12-.065-6.175.027-1.083.048-1.078-.494-1.073-1.274,0-.728.013-1.2,1-1.189,4.167.055,8.336.064,12.5,0,1.18-.019.928.674.992,1.348.08.838-.2,1.136-1.073,1.111C731.329,186.814,729.269,186.854,727.21,186.854Z" transform="translate(-50.223 -72.898)" fill="#010204"/>
      <path id="Trazado_588266" data-name="Trazado 588266" d="M676.034,233.6c0,.752-.057,1.273-1.124,1.244q-4.957-.132-9.919,0c-1.067.028-1.125-.492-1.124-1.244s.066-1.262,1.126-1.234q4.955.133,9.916,0C675.968,232.338,676.042,232.841,676.034,233.6Z" transform="translate(-11.042 -106.39)" fill="#010204"/>
      <path id="Trazado_588267" data-name="Trazado 588267" d="M740.715,218.848c-1.255,0-2.515-.064-3.764.02-1,.068-1.025-.469-.989-1.192.033-.637-.166-1.29.918-1.263q3.914.1,7.831,0c1.089-.027.876.636.913,1.267.042.73,0,1.252-.994,1.188C743.331,218.784,742.021,218.848,740.715,218.848Z" transform="translate(-61.393 -95.247)" fill="#010204"/>
      <path id="Trazado_588268" data-name="Trazado 588268" d="M743.495,168.339l2.073.073c.074,2.392.074,2.392-2.263,2.392-2.1,0-4.2-.062-6.291.026-1.057.045-1.065-.463-1.087-1.254-.024-.862.141-1.242,1.13-1.211C739.2,168.431,741.348,168.356,743.495,168.339Z" transform="translate(-61.373 -61.669)" fill="#010204"/>
      <path id="Trazado_588269" data-name="Trazado 588269" d="M667.012,202.839c-.552,0-1.106-.024-1.656.006-.851.046-1.47.095-1.493-1.171-.025-1.355.663-1.283,1.563-1.256a31.581,31.581,0,0,0,3.161-.009c.971-.069,1.392.117,1.412,1.258.022,1.266-.623,1.231-1.481,1.178C668.018,202.814,667.514,202.839,667.012,202.839Z" transform="translate(-11.039 -84.061)" fill="#010204"/>
      <path id="Trazado_588270" data-name="Trazado 588270" d="M722.315,169.571c.2.943-.1,1.334-1.133,1.3-.886-.032-1.34-.135-1.29-1.194.041-.883.134-1.351,1.2-1.287C721.949,168.439,722.585,168.474,722.315,169.571Z" transform="translate(-50.172 -61.699)" fill="#020306"/>
      <path id="Trazado_588271" data-name="Trazado 588271" d="M858.307,191.72c0,2.052-.063,4.106.026,6.154.047,1.077-.5,1.076-1.274,1.073-.73,0-1.2-.025-1.187-1.005q.085-6.153.014-12.309c-.009-.921.26-1.173,1.181-1.187,1-.015,1.28.31,1.25,1.272-.061,2-.018,4-.018,6Z" transform="translate(-145.153 -72.918)" fill="#f87654"/>
      <path id="Trazado_588272" data-name="Trazado 588272" d="M675.681,156.163c0,.452.026.905,0,1.355-.087,1.3.525,1.831,1.8,1.774,1.052-.047,2.108.011,3.161-.016.662-.017.928.11.62.845a4.941,4.941,0,0,1-4.935,2.744A4.869,4.869,0,0,1,672.1,158.6a4.926,4.926,0,0,1,2.779-4.913c.566-.219.845-.178.812.515C675.656,154.857,675.68,155.511,675.681,156.163Z" transform="translate(-16.773 -51.356)" fill="#f6d752"/>
      <path id="Trazado_588273" data-name="Trazado 588273" d="M826.275,196.5c.024,3.355.026,6.71.086,10.065.018,1.039-.678.774-1.218.774s-1.237.266-1.218-.774c.06-3.354.062-6.71.085-10.064Z" transform="translate(-122.838 -81.339)" fill="#fada53"/>
      <path id="Trazado_588274" data-name="Trazado 588274" d="M826.3,193.7h-2.265c-.264-1.009.206-1.208,1.133-1.208S826.568,192.694,826.3,193.7Z" transform="translate(-122.868 -78.542)" fill="#f6d752"/>
      <path id="Trazado_588275" data-name="Trazado 588275" d="M794.3,212.566c.016,1.691-.02,3.384.068,5.071.054,1.039-.558.94-1.224.94s-1.278.1-1.224-.94c.088-1.687.052-3.381.068-5.071Z" transform="translate(-100.479 -92.561)" fill="#00d3db"/>
      <path id="Trazado_588276" data-name="Trazado 588276" d="M794.3,209.656h-2.312c-.247-1,.2-1.256,1.156-1.256S794.551,208.651,794.3,209.656Z" transform="translate(-100.488 -89.651)" fill="#009294"/>
    </g>
  </g>
</svg>
