<svg xmlns="http://www.w3.org/2000/svg" width="101" height="101" viewBox="0 0 101 101"><g transform="translate(0 -5514.073)"><g transform="translate(0 5514.073)" fill="#f5f5f5" stroke="#fff" stroke-width="4"><circle cx="50.5" cy="50.5" r="50.5" stroke="none"/><circle cx="50.5" cy="50.5" r="48.5" fill="none"/></g><g transform="translate(424.111 5346.934)"><path d="M-394.818,235.607q0-1.361,0-2.721c.626-.111,1.124-.375,1.154-1.1.032-.783-.507-1.064-1.151-1.233q0-1.333,0-2.666a1.429,1.429,0,0,0,1.177-.912c.626-.211.371-.744.372-1.137.009-4.723.012-9.446.011-14.47,0-2.68,0-5.662-.006-8.644,0-.391.14-.823-.2-1.16a3.051,3.051,0,0,1,3.038-2.437q11.364-.036,22.729,0a3.2,3.2,0,0,1,3.052,2.343,1.382,1.382,0,0,1-.3,1.507,11.9,11.9,0,0,0-2.222,12.863,1.715,1.715,0,0,1,.042,1.269c-.612,1.789-1.2,3.587-1.747,5.4-.348,1.148.342,1.841,1.5,1.541a12.782,12.782,0,0,0,2.007-.656c.811-.361.881-.025.879.684q-.029,10.7.005,21.393c0,.732-.194.927-.922.918-3.193-.04-6.388-.013-9.582-.018q-9.135-.016-18.269-.041c0-2.872.009-5.745-.006-8.617,0-.409.189-.913-.366-1.162A1.309,1.309,0,0,0-394.818,235.607Zm10.73-33.936c-1.087.834-1.087,1.393,0,2.224.12.371.433.344.726.344q4.255,0,8.511,0c.291,0,.606.039.74-.325,1.164-.792,1.166-1.459,0-2.27-.156-.353-.476-.3-.766-.3q-4.235,0-8.469,0C-383.633,201.345-383.952,201.3-384.088,201.671Zm4.985,35.342c2.823,0,5.647-.006,8.47,0,.756,0,1.374-.215,1.44-1.048.295-3.681-.609-6.946-3.56-9.379-.65-.536-.8-.815-.343-1.626a6.391,6.391,0,0,0-.277-7.058,6.5,6.5,0,0,0-6.508-3.018,6.839,6.839,0,0,0-5.067,10.343c.184.316.592.554.027.977A10.152,10.152,0,0,0-389,235.359c.056,1.314.342,1.648,1.647,1.652C-384.6,237.017-381.852,237.013-379.1,237.012Z" transform="translate(-3.763 -7.781)" fill="#dceafc"/><path d="M-398.581,227.826a1.309,1.309,0,0,1,1.189.944c-.007,3.031-.02,6.062-.011,9.093,0,.258-.235.737.383.687q9.135.021,18.269.041c3.194.005,6.388-.022,9.582.018.728.009.925-.185.922-.918q-.042-10.7-.005-21.393c0-.709-.068-1.045-.879-.684a12.786,12.786,0,0,1-2.007.656c-1.162.3-1.852-.393-1.5-1.541.549-1.809,1.136-3.607,1.747-5.4a1.715,1.715,0,0,0-.042-1.269,11.9,11.9,0,0,1,2.222-12.863,1.382,1.382,0,0,0,.3-1.507,3.2,3.2,0,0,0-3.052-2.343q-11.364-.036-22.729,0a3.051,3.051,0,0,0-3.038,2.437,2.31,2.31,0,0,0-.183,1.193q0,12.109.011,24.219a1.429,1.429,0,0,1-1.177.912,1.4,1.4,0,0,1-1.083-1.58c.015-7.949-.017-15.9.023-23.847a5.481,5.481,0,0,1,5.7-5.578q11.087-.022,22.174,0a5.382,5.382,0,0,1,5.231,3.289c.3.636.482.569,1.013.306,4.651-2.3,9.182-2.056,13.278,1.155a11.386,11.386,0,0,1,4.295,12.3c-1.192,5.023-4.517,8.065-9.551,9.144a11.549,11.549,0,0,1-6.778-.656c-1.439-.572-1.753-.359-1.753,1.2q0,12.091,0,24.181c0,3.93-2.221,6.16-6.126,6.161q-10.7,0-21.394,0c-3.819,0-6.091-2.27-6.1-6.089-.006-3.529.01-7.058-.01-10.586C-399.665,228.677-399.5,228.028-398.581,227.826Zm28.677-14.3c1.346-.436,2.481-.769,3.59-1.174a3.3,3.3,0,0,1,2.652.1c6.825,2.961,14.561-2.543,13.817-9.824a9.45,9.45,0,0,0-6.8-8.634,9.321,9.321,0,0,0-10.438,2.758c-2.889,3.207-3.341,6.916-1.609,10.863a2.325,2.325,0,0,1,.118,1.813C-369.017,210.712-369.417,212.015-369.9,213.526Zm-12.946,27.3c-4.529,0-9.059.027-13.587-.021-1-.011-1.049.367-.721,1.09a3.128,3.128,0,0,0,2.938,2.035q11.36.042,22.72,0a3.158,3.158,0,0,0,2.969-1.994c.352-.745.351-1.152-.731-1.138C-373.791,240.859-378.321,240.825-382.85,240.825Z" transform="translate(0 0)" fill="#050505"/><path d="M-398.5,340.067c.644.168,1.183.45,1.151,1.233-.03.721-.528.984-1.154,1.1a1.182,1.182,0,0,1-1.058-1.1C-399.6,340.591-399.086,340.277-398.5,340.067Z" transform="translate(-0.077 -117.291)" fill="#0d0e0e"/><path d="M-358.878,291.761c-2.749,0-5.5,0-8.248,0-1.306,0-1.591-.337-1.647-1.652a10.152,10.152,0,0,1,4.077-9.151c.565-.422.156-.661-.027-.977a6.839,6.839,0,0,1,5.067-10.343,6.5,6.5,0,0,1,6.508,3.018,6.391,6.391,0,0,1,.277,7.058c-.454.812-.307,1.091.343,1.626,2.952,2.433,3.855,5.7,3.56,9.379-.067.833-.684,1.051-1.44,1.048C-353.231,291.754-356.055,291.761-358.878,291.761Zm-.019-2.235c2.263,0,4.526-.038,6.787.021.821.021.995-.257.933-1.008a7.823,7.823,0,0,0-3.292-5.918,1.064,1.064,0,0,0-1.291-.079,6.533,6.533,0,0,1-6.2-.024,1.053,1.053,0,0,0-1.289.116,7.858,7.858,0,0,0-3.291,6.037c-.051.694.163.884.853.87C-363.422,289.5-361.159,289.526-358.9,289.526Zm4.665-13.08a4.6,4.6,0,0,0-4.57-4.64,4.612,4.612,0,0,0-4.664,4.548,4.621,4.621,0,0,0,4.628,4.7A4.613,4.613,0,0,0-354.233,276.447Z" transform="translate(-23.987 -62.53)" fill="#060505"/><path d="M-349.555,212.712c-1.089-.831-1.089-1.39,0-2.224l9.982-.026c1.162.811,1.161,1.478,0,2.27Z" transform="translate(-38.294 -16.598)" fill="#0b0c0c"/><path d="M-389.572,235.529q-.006-12.11-.011-24.219a2.31,2.31,0,0,1,.183-1.193c.344.337.2.769.2,1.16q.012,11.557-.005,23.114C-389.2,234.785-388.945,235.318-389.572,235.529Z" transform="translate(-7.829 -16.331)" fill="#e8f7fe"/><path d="M-389.308,376.714c-.618.05-.382-.428-.383-.687-.009-3.031,0-6.062.011-9.093.555.249.364.753.366,1.162C-389.3,370.968-389.307,373.841-389.308,376.714Z" transform="translate(-7.713 -138.164)" fill="#e8f7fe"/><path d="M-336.736,209.409l-9.982.026c.136-.368.454-.326.747-.326q4.235,0,8.469,0C-337.212,209.109-336.892,209.055-336.736,209.409Z" transform="translate(-41.132 -15.545)" fill="#eefdfe"/><path d="M-346.71,220.55l9.977.019c-.134.364-.45.325-.74.325q-4.255,0-8.511,0C-346.277,220.894-346.59,220.921-346.71,220.55Z" transform="translate(-41.139 -24.436)" fill="#effefe"/><path d="M-266.269,228.57c.487-1.511.887-2.814,1.331-4.1a2.325,2.325,0,0,0-.118-1.813c-1.732-3.947-1.28-7.656,1.609-10.863a9.321,9.321,0,0,1,10.438-2.758,9.45,9.45,0,0,1,6.8,8.634c.745,7.281-6.991,12.785-13.817,9.824a3.3,3.3,0,0,0-2.652-.1C-263.788,227.8-264.923,228.134-266.269,228.57Zm7.681-15.627a4.1,4.1,0,0,0-4.117,2.492,4.49,4.49,0,0,0,.765,5.182c1.571,1.678,3.282,3.225,4.938,4.824a1.117,1.117,0,0,0,1.687.081c1.749-1.662,3.551-3.28,5.168-5.064a4.4,4.4,0,0,0,.612-5.1,3.909,3.909,0,0,0-3.707-2.4c-1.039-.013-1.922.769-2.806.844S-257.846,212.883-258.588,212.943Z" transform="translate(-103.635 -15.044)" fill="#f9d68c"/><path d="M-374.766,420.887c4.529,0,9.059.033,13.587-.025,1.083-.014,1.084.393.731,1.138A3.158,3.158,0,0,1-363.416,424q-11.36.031-22.72,0a3.127,3.127,0,0,1-2.938-2.035c-.329-.723-.281-1.1.721-1.09C-383.825,420.915-379.3,420.887-374.766,420.887Z" transform="translate(-8.084 -180.062)" fill="#9ec5fb"/><path d="M-351.088,334c-2.262,0-4.525-.027-6.787.016-.69.013-.9-.177-.853-.87a7.858,7.858,0,0,1,3.291-6.037,1.053,1.053,0,0,1,1.289-.116,6.534,6.534,0,0,0,6.2.024,1.064,1.064,0,0,1,1.291.079,7.823,7.823,0,0,1,3.292,5.918c.062.75-.112,1.029-.933,1.008C-346.562,333.957-348.825,334-351.088,334Z" transform="translate(-31.797 -106.999)" fill="#fbd78d"/><path d="M-335.705,284.2a4.613,4.613,0,0,1-4.606,4.607,4.621,4.621,0,0,1-4.628-4.7,4.612,4.612,0,0,1,4.664-4.548A4.6,4.6,0,0,1-335.705,284.2Z" transform="translate(-42.514 -70.279)" fill="#fbd9d2"/><path d="M-247.873,228.543c.742-.06,1.654.933,2.54.858s1.767-.857,2.806-.844a3.909,3.909,0,0,1,3.707,2.4,4.4,4.4,0,0,1-.612,5.1c-1.617,1.784-3.419,3.4-5.168,5.064a1.117,1.117,0,0,1-1.687-.081c-1.656-1.6-3.367-3.145-4.938-4.824a4.49,4.49,0,0,1-.765-5.182A4.1,4.1,0,0,1-247.873,228.543ZM-250.2,233a2.387,2.387,0,0,0,.7,1.816c1.219,1.195,2.449,2.378,3.677,3.563.207.2.389.477.725.143,1.366-1.36,2.811-2.648,4.09-4.086a2.355,2.355,0,0,0-.263-3.153c-.741-.717-1.774-.664-2.818.143-1.154.892-1.446.9-2.606-.013a2.128,2.128,0,0,0-2.371-.444A2.168,2.168,0,0,0-250.2,233Z" transform="translate(-114.35 -30.644)" fill="#070504"/><path d="M-242.292,240.785a2.17,2.17,0,0,1,1.136-2.03,2.128,2.128,0,0,1,2.371.444c1.16.914,1.453.905,2.606.013,1.043-.807,2.077-.86,2.818-.143a2.355,2.355,0,0,1,.263,3.153c-1.278,1.437-2.724,2.726-4.09,4.086-.336.334-.518.057-.725-.143-1.228-1.186-2.458-2.369-3.677-3.563A2.391,2.391,0,0,1-242.292,240.785Z" transform="translate(-122.263 -38.424)" fill="#f97b94"/></g></g></svg>