<svg xmlns="http://www.w3.org/2000/svg" width="101" height="101" viewBox="0 0 101 101">
  <g id="Grupo_848438" data-name="Grupo 848438" transform="translate(-750 -4784.717)">
    <circle id="Elipse_7442" data-name="Elipse 7442" cx="50.5" cy="50.5" r="50.5" transform="translate(750 4784.717)" fill="#e8e8e8"/>
    <g id="Grupo_848012" data-name="Grupo 848012" transform="translate(-2214.813 4706.422)">
      <path id="Trazado_589853" data-name="Trazado 589853" d="M3011.094,163.588c0,4.661-.075,9.324.033,13.982a4.144,4.144,0,0,1-2.818,4.255,23.59,23.59,0,0,1-8,1.657,37.2,37.2,0,0,1-11.81-.874,15.211,15.211,0,0,1-2.422-.845,4.1,4.1,0,0,1-2.7-4.188c.091-9.4.077-18.808.007-28.211a3.921,3.921,0,0,1,2.289-3.828,18.078,18.078,0,0,1,6.2-1.811,34.632,34.632,0,0,1,14.457.807,14.121,14.121,0,0,1,2.169.827,4.157,4.157,0,0,1,2.64,4.249C3011.007,154.264,3011.094,158.927,3011.094,163.588Zm-12.216-12.132a20.326,20.326,0,0,0,8.345-1.464c.737-.314,1.759-.6,1.782-1.471.026-.964-1.035-1.26-1.8-1.576a24.674,24.674,0,0,0-10.047-1.592,24.326,24.326,0,0,0-9.953,1.631c-.736.308-1.75.607-1.731,1.511s1.031,1.186,1.772,1.487A26.129,26.129,0,0,0,2998.878,151.456Zm-1.722,2.213c-3.989-.185-7.958-.484-11.773-2.233v3.016c0,2.236.221,2.61,2.375,3.334a26.835,26.835,0,0,0,9.4,1.236c.976-.008,1.957.041,2.927-.036a22.013,22.013,0,0,0,7.383-1.5c.726-.324,1.591-.654,1.63-1.635.057-1.437.015-2.878.015-4.443a19.155,19.155,0,0,1-3.719,1.31A43.158,43.158,0,0,1,2997.156,153.669Zm0,20.359c1.183-.017,2.371.034,3.547-.067a20.334,20.334,0,0,0,6.793-1.459c.729-.332,1.573-.672,1.6-1.665.042-1.413.01-2.829.01-4.36a28.157,28.157,0,0,1-3.33,1.183,44.976,44.976,0,0,1-8.628.97c-3.98-.208-7.968-.368-11.773-2.178,0,1.142,0,2.15,0,3.158,0,2.059.2,2.432,2.155,3.122A25.892,25.892,0,0,0,2997.161,174.029Zm-.007,7.545c.732,0,1.467.046,2.2,0a24.593,24.593,0,0,0,7.893-1.446c.777-.321,1.749-.631,1.831-1.61.122-1.469.032-2.956.032-4.565a20.163,20.163,0,0,1-5.394,1.641c-1.931.343-3.889.339-5.829.544-4.234-.171-8.481-.257-12.5-2.167,0,1.093,0,2.033,0,2.972,0,2.3.233,2.689,2.456,3.417A27.746,27.746,0,0,0,2997.154,181.574Zm0-15.022a31.591,31.591,0,0,0,7.664-.694,10.057,10.057,0,0,0,3.323-1.205c.5-.306.964-.658.972-1.316.015-1.267,0-2.534.011-3.8.008-.671-.312-.489-.687-.314a16.781,16.781,0,0,1-3.493,1.106,43.447,43.447,0,0,1-7.79.76c-4-.134-7.975-.38-11.769-2.124,0,1.169,0,2.189,0,3.21,0,1.988.195,2.32,2.123,3.024A26.955,26.955,0,0,0,2997.153,166.552Z" transform="translate(0 -34.668)" fill="#080705"/>
      <path id="Trazado_589854" data-name="Trazado 589854" d="M3166.777,207.346c-2.369,0-4.739.012-7.107,0-1.972-.012-2.937-.96-2.947-2.935q-.029-5.76,0-11.52a2.578,2.578,0,0,1,2.879-2.878c1.348-.016,2.7.024,4.044-.011a2.708,2.708,0,0,1,2.856,1.692,3.923,3.923,0,0,0,4.88,2.77,14.777,14.777,0,0,1,3.059-.02A2.482,2.482,0,0,1,3177,197q.053,3.86,0,7.72a2.478,2.478,0,0,1-2.627,2.614C3171.843,207.37,3169.31,207.344,3166.777,207.346Zm7.042-10.886c-4.781-.02-9.562-.033-14.342-.067-.559,0-.8.138-.792.748.028,2.412.017,4.824.007,7.236,0,.633.192,1,.907,1q7.11-.045,14.22-.064c.92.226,1.246-.153,1.23-1.073q-.056-3.35,0-6.7C3175.065,196.62,3174.742,196.235,3173.819,196.46Zm-7.91-2.019c-.863-.948-.756-2.382-2.192-2.449-1.378-.064-2.762-.012-4.143-.015-1.131,0-.826.844-.9,1.485-.079.706.129,1.018.922,1C3161.588,194.4,3163.579,194.44,3165.91,194.44Z" transform="translate(-130.773 -69.882)" fill="#0b0a07"/>
      <path id="Trazado_589855" data-name="Trazado 589855" d="M3166.845,299.842c-2.37,0-4.74.006-7.109,0-2.009-.007-3-.984-3.006-3.012q-.023-5.7,0-11.4a2.648,2.648,0,0,1,2.94-2.968c1.307-.016,2.615.015,3.922-.008a2.78,2.78,0,0,1,2.942,1.773c.844,2.356,2.466,3.024,4.795,2.68a16.791,16.791,0,0,1,2.938-.018,2.59,2.59,0,0,1,2.744,2.78c.02,2.492.024,4.985,0,7.477a2.538,2.538,0,0,1-2.689,2.691C3171.831,299.861,3169.338,299.842,3166.845,299.842Zm6.966-10.941c-4.78-.016-9.559-.025-14.339-.056-.584,0-.784.2-.779.784.022,2.411.017,4.822,0,7.233,0,.717.284,1.023,1.026,1.018,4.7-.03,9.4-.034,14.1-.047.886.19,1.265-.135,1.249-1.072q-.056-3.4,0-6.8C3175.08,289.032,3174.7,288.7,3173.811,288.9Zm-7.911-2.018c-.8-.938-.806-2.278-2-2.413a27.734,27.734,0,0,0-4.4-.025c-1.188.056-.707,1.05-.808,1.7-.116.742.364.751.9.747C3161.593,286.874,3163.589,286.883,3165.9,286.883Z" transform="translate(-130.781 -139.633)" fill="#070706"/>
      <path id="Trazado_589856" data-name="Trazado 589856" d="M3166.788,114.768c-2.329,0-4.659.01-6.988,0-2.083-.011-3.06-.99-3.066-3.092q-.018-5.639,0-11.279c.008-2.029,1-3,3.007-3.011,1.308-.007,2.616.023,3.923-.008a2.621,2.621,0,0,1,2.783,1.6c.923,2.544,2.688,3.24,5.191,2.849a14.607,14.607,0,0,1,2.815-.014,2.514,2.514,0,0,1,2.558,2.573c.036,2.533.026,5.067.006,7.6a2.574,2.574,0,0,1-2.752,2.77C3171.773,114.793,3169.28,114.767,3166.788,114.768Zm7.034-10.953c-4.784-.013-9.567-.017-14.351-.05-.585,0-.786.173-.78.763.025,2.413.022,4.826.005,7.238-.005.72.277,1.04,1.016,1.036,4.7-.028,9.4-.037,14.1-.053.891.2,1.268-.136,1.253-1.069q-.051-3.4,0-6.8C3175.087,103.948,3174.709,103.622,3173.822,103.815Zm-7.893-2.009c-.854-.938-.821-2.306-2.06-2.418a31.749,31.749,0,0,0-4.409-.015c-1.112.055-.661,1-.761,1.615-.1.643.179.842.821.831C3161.555,101.783,3163.591,101.805,3165.929,101.805Z" transform="translate(-130.785)" fill="#070707"/>
      <path id="Trazado_589857" data-name="Trazado 589857" d="M3110.614,140.352c0-3.394.025-6.789-.014-10.182-.013-1.107.421-1.579,1.521-1.539,1.062.039,2.126,0,3.19.012.705.006,1.244.309,1.206,1.069-.035.694-.568.935-1.223.908-.041,0-.082,0-.123,0-2.575.094-2.575.094-2.575,2.627,0,5.562.051,11.124-.038,16.684-.021,1.3.382,1.638,1.552,1.467a8.754,8.754,0,0,1,1.348-.006.983.983,0,1,1,.064,1.964c-.122.009-.245,0-.368.007-2.559.086-2.559.086-2.559,2.618q0,8.281,0,16.562c0,1.586,0,1.586,1.652,1.587.409,0,.818,0,1.227.005a.94.94,0,0,1,1.05.959.958.958,0,0,1-1.027,1c-1.267.031-2.536.042-3.8,0-1.011-.034-1.087-.768-1.086-1.572q.016-9.385.005-18.771v-.613c0-1.772,0-1.772-1.809-1.775-.245,0-.491-.007-.736,0-.672.019-1.159-.283-1.18-.958s.441-.961,1.116-1.03c.858-.087,2.033.469,2.494-.281.4-.657.111-1.747.113-2.646Q3110.618,144.4,3110.614,140.352Z" transform="translate(-93.187 -23.58)" fill="#0d0d0d"/>
      <path id="Trazado_589858" data-name="Trazado 589858" d="M3039.491,209.438a43.446,43.446,0,0,0,7.79-.76,16.787,16.787,0,0,0,3.493-1.106c.375-.175.695-.357.686.314-.015,1.266,0,2.533-.011,3.8-.008.657-.476,1.01-.972,1.316a10.052,10.052,0,0,1-3.323,1.205,31.592,31.592,0,0,1-7.664.694Q3039.491,212.17,3039.491,209.438Z" transform="translate(-42.338 -83.018)" fill="#f8cb62"/>
      <path id="Trazado_589859" data-name="Trazado 589859" d="M3040.172,270.236c1.94-.205,3.9-.2,5.829-.544a20.16,20.16,0,0,0,5.394-1.641c0,1.608.09,3.1-.032,4.565-.081.979-1.053,1.289-1.831,1.61a24.592,24.592,0,0,1-7.893,1.446c-.729.049-1.464,0-2.2,0,0-1.246.049-2.495-.012-3.738A1.706,1.706,0,0,1,3040.172,270.236Z" transform="translate(-42.289 -128.769)" fill="#f7cb62"/>
      <path id="Trazado_589860" data-name="Trazado 589860" d="M3039.5,239.769a44.975,44.975,0,0,0,8.628-.97,28.16,28.16,0,0,0,3.33-1.183c0,1.531.031,2.946-.011,4.36-.03.993-.874,1.333-1.6,1.665a20.335,20.335,0,0,1-6.793,1.459c-1.175.1-2.364.05-3.546.067Q3039.507,242.469,3039.5,239.769Z" transform="translate(-42.348 -105.808)" fill="#f9bf43"/>
      <path id="Trazado_589861" data-name="Trazado 589861" d="M3039.5,178.521a43.167,43.167,0,0,0,8.236-.947,19.152,19.152,0,0,0,3.719-1.31c0,1.564.042,3.006-.015,4.443-.039.981-.9,1.311-1.631,1.635a22.011,22.011,0,0,1-7.382,1.5c-.971.076-1.951.027-2.927.036Q3039.5,181.2,3039.5,178.521Z" transform="translate(-42.347 -59.519)" fill="#f9bf43"/>
      <path id="Trazado_589862" data-name="Trazado 589862" d="M3004.058,270.294a1.7,1.7,0,0,0-.741,1.7c.061,1.243.014,2.492.012,3.738a27.744,27.744,0,0,1-9.314-1.216c-2.223-.728-2.456-1.12-2.457-3.417v-2.972C2995.577,270.037,2999.824,270.122,3004.058,270.294Z" transform="translate(-6.175 -128.827)" fill="#fbde75"/>
      <path id="Trazado_589863" data-name="Trazado 589863" d="M3003.329,209.144q0,2.732,0,5.464a26.956,26.956,0,0,1-9.646-1.354c-1.928-.7-2.122-1.036-2.123-3.024,0-1.02,0-2.04,0-3.21C2995.354,208.764,2999.332,209.01,3003.329,209.144Z" transform="translate(-6.175 -82.724)" fill="#fbde75"/>
      <path id="Trazado_589864" data-name="Trazado 589864" d="M3003.329,239.689q0,2.7.005,5.4a25.892,25.892,0,0,1-9.623-1.3c-1.953-.691-2.155-1.063-2.155-3.122,0-1.008,0-2.017,0-3.158C2995.361,239.321,2999.35,239.481,3003.329,239.689Z" transform="translate(-6.173 -105.728)" fill="#facd62"/>
      <path id="Trazado_589865" data-name="Trazado 589865" d="M3003.33,178.595v5.354a26.834,26.834,0,0,1-9.4-1.236c-2.154-.725-2.375-1.1-2.376-3.334v-3.016C2995.372,178.111,2999.34,178.41,3003.33,178.595Z" transform="translate(-6.173 -59.593)" fill="#facd62"/>
      <path id="Trazado_589866" data-name="Trazado 589866" d="M3039.443,151.561a24.673,24.673,0,0,1,10.047,1.592c.768.315,1.83.612,1.8,1.576-.023.874-1.046,1.157-1.782,1.471a20.325,20.325,0,0,1-8.346,1.464c-.134-.081-.281-.247-.4-.229-1.235.186-1.377-.5-1.335-1.5C3039.492,154.478,3039.445,153.018,3039.443,151.561Z" transform="translate(-42.288 -40.874)" fill="#facc62"/>
      <path id="Trazado_589867" data-name="Trazado 589867" d="M3003.6,151.573c0,1.458.049,2.917-.012,4.373-.041,1,.1,1.686,1.335,1.5.119-.018.266.149.4.229a26.128,26.128,0,0,1-11.635-1.473c-.741-.3-1.753-.6-1.772-1.487s1-1.2,1.731-1.511A24.325,24.325,0,0,1,3003.6,151.573Z" transform="translate(-6.441 -40.887)" fill="#fbde75"/>
      <path id="Trazado_589868" data-name="Trazado 589868" d="M3179.9,224.958q-7.11.029-14.22.064c-.715,0-.91-.366-.907-1,.01-2.412.021-4.824-.007-7.236-.007-.61.232-.752.791-.748,4.781.035,9.562.048,14.343.067Q3179.9,220.532,3179.9,224.958Z" transform="translate(-136.853 -89.528)" fill="#fcdf76"/>
      <path id="Trazado_589869" data-name="Trazado 589869" d="M3171.917,200.464c-2.33,0-4.321-.036-6.31.017-.793.021-1-.291-.922-1,.072-.64-.234-1.487.9-1.485,1.381,0,2.764-.049,4.143.015C3171.161,198.082,3171.054,199.517,3171.917,200.464Z" transform="translate(-136.78 -75.905)" fill="#efc55f"/>
      <path id="Trazado_589870" data-name="Trazado 589870" d="M3226.4,224.972q0-4.426,0-8.852c.923-.225,1.245.16,1.23,1.077q-.055,3.35,0,6.7C3227.647,224.82,3227.321,225.2,3226.4,224.972Z" transform="translate(-183.354 -89.542)" fill="#facd62"/>
      <path id="Trazado_589871" data-name="Trazado 589871" d="M3179.888,317.48c-4.7.013-9.4.016-14.1.047-.741,0-1.03-.3-1.026-1.018.013-2.411.018-4.822,0-7.233-.005-.579.2-.787.779-.784,4.78.031,9.56.04,14.339.056Q3179.884,313.014,3179.888,317.48Z" transform="translate(-136.851 -159.28)" fill="#fcdf76"/>
      <path id="Trazado_589872" data-name="Trazado 589872" d="M3171.919,292.777c-2.312,0-4.308-.009-6.3.006-.539,0-1.019-.005-.9-.747.1-.647-.38-1.641.808-1.7a27.734,27.734,0,0,1,4.4.025C3171.113,290.5,3171.117,291.84,3171.919,292.777Z" transform="translate(-136.8 -145.528)" fill="#f4c860"/>
      <path id="Trazado_589873" data-name="Trazado 589873" d="M3226.342,317.478q0-4.466-.007-8.932c.891-.2,1.269.131,1.254,1.065q-.05,3.4,0,6.8C3227.606,317.343,3227.229,317.668,3226.342,317.478Z" transform="translate(-183.305 -159.278)" fill="#e8c461"/>
      <path id="Trazado_589874" data-name="Trazado 589874" d="M3179.863,132.386c-4.7.015-9.4.024-14.1.053-.739,0-1.021-.316-1.016-1.036.017-2.413.02-4.826,0-7.238-.006-.59.194-.767.78-.763,4.783.033,9.567.037,14.351.05Q3179.865,127.918,3179.863,132.386Z" transform="translate(-136.831 -19.636)" fill="#fcdf76"/>
      <path id="Trazado_589875" data-name="Trazado 589875" d="M3171.937,107.731c-2.338,0-4.374-.023-6.409.013-.642.011-.925-.189-.821-.831.1-.613-.351-1.56.76-1.615a31.751,31.751,0,0,1,4.409.015C3171.116,105.424,3171.082,106.792,3171.937,107.731Z" transform="translate(-136.793 -5.926)" fill="#f7cb62"/>
      <path id="Trazado_589876" data-name="Trazado 589876" d="M3226.34,132.376q0-4.468,0-8.935c.888-.193,1.265.134,1.25,1.07q-.055,3.4,0,6.8C3227.607,132.24,3227.231,132.574,3226.34,132.376Z" transform="translate(-183.308 -19.626)" fill="#e8c461"/>
    </g>
  </g>
</svg>
