<svg xmlns="http://www.w3.org/2000/svg" width="101" height="101" viewBox="0 0 101 101">
  <g id="Grupo_848434" data-name="Grupo 848434" transform="translate(-750 -3551.717)">
    <circle id="Elipse_7438" data-name="Elipse 7438" cx="50.5" cy="50.5" r="50.5" transform="translate(750 3551.717)" fill="#e8e8e8"/>
    <g id="Grupo_848008" data-name="Grupo 848008" transform="translate(-2045.255 3084.454)">
      <path id="Trazado_589730" data-name="Trazado 589730" d="M2830.133,543.155c-.665-.144-.873-.576-.869-1.227.019-3.29-.083-6.583.042-9.868a7.974,7.974,0,0,1,4.944-7.284c1.406-.661,2.844-1.253,4.425-1.945a6.976,6.976,0,0,1-4.482-4.749,6.244,6.244,0,0,1,1.112-5.827,10.759,10.759,0,0,0,2.424-7.483,19.082,19.082,0,0,1,.446-6.011,13.2,13.2,0,0,1,25.908,2.739c.084,1.528.042,3.064.045,4.6a9,9,0,0,0,1.9,5.622c3.11,4.052,2.073,8.529-2.509,10.91a1.55,1.55,0,0,0-.232.224c1.246.541,2.449,1.078,3.664,1.589a8.326,8.326,0,0,1,5.5,8.294c0,3.7.01,7.4-.006,11.1,0,.578-.018,1.025.785.98a.772.772,0,0,1,.883.909.825.825,0,0,1-.941.755h-54.73c-.112,0-.224,0-.337,0-.657.014-1.39.034-1.374-.875.014-.831.717-.815,1.331-.816q5.439,0,10.879,0c.409,0,.816-.046,1.225-.071,1.715.022,3.429.053,5.144.065,1.559.011,1.559,0,1.4-1.5-.054-.52-.1-1.04-.155-1.56-.346-3.3-.727-6.6-1.024-9.91a2.443,2.443,0,0,1,2.639-2.87c.6-.013,1.195-.007,1.792,0,.281,0,.552-.03.554-.386.01-1.5,0-3,0-4.66-1.847.8-3.479,1.517-5.121,2.212a6.665,6.665,0,0,0-4.421,6.719c.028,2.949,0,5.9.01,8.847C2830.986,542.348,2830.941,542.961,2830.133,543.155Zm33.674,1.546c.351-.12.217-.433.242-.662.385-3.547.715-7.1,1.148-10.642.348-2.856.493-2.914-2.742-2.744q-8.224-.023-16.448-.046c-2.537-.006-5.073.006-7.61,0-.742,0-1.3.217-1.209,1.067.457,4.26.941,8.518,1.416,12.776-.015.225.091.315.311.281.407.022.813.063,1.22.063q8.761.006,17.522,0c1.225,0,2.449-.044,3.674-.068l.236,0a5.91,5.91,0,0,0,2,0Zm-8.085-23.784a7.382,7.382,0,0,1-1.026-1.953c-.124-.519-.389-.454-.81-.392a21.444,21.444,0,0,1-5.768.036c-.74-.091-1.1-.03-1.212.734a2.827,2.827,0,0,1-.242.619,6.466,6.466,0,0,1-3.736,2.86c-1.031.332-.589,1.123-.689,1.756-.107.678.435.681.842.779a30.937,30.937,0,0,0,15.514-.144c.461-.123.984-.13.916-.856-.06-.639.179-1.338-.754-1.612A7.342,7.342,0,0,1,2855.722,520.917Zm6.685-16.38c.077-.406-.106-.468-.439-.332l-1.063.028c-.241-.023-.362.081-.346.329-.018,1.755-.082,3.51-.043,5.264a8.315,8.315,0,0,1-3.861,7.621c-.5.331-.49.639-.308,1.115a4.374,4.374,0,0,0,3.769,2.789,4.872,4.872,0,0,0,5.292-2.565,4.927,4.927,0,0,0-.571-5.848,10.494,10.494,0,0,1-2.392-7.059C2862.456,505.433,2862.421,504.985,2862.407,504.537Zm8.132,40.188c.226-.081.212-.275.212-.459,0-4.147.072-8.3-.045-12.44a5.978,5.978,0,0,0-3.49-5.374c-1.831-.914-3.764-1.621-5.652-2.42-.224-.1-.33-.017-.346.214a32.056,32.056,0,0,0,.01,4.272c-.015.254.091.39.359.367q1.339.026,2.679.051c1.977.034,2.966,1.189,2.76,3.182-.424,4.112-.832,8.227-1.246,12.34-.035.219.07.3.276.282l4.247-.006ZM2853.7,499.3a2.4,2.4,0,0,0-.4.2,22.4,22.4,0,0,1-9.828,4.363c-.6.1-.567.458-.565.88.005,1.98-.03,3.961.013,5.94a6.5,6.5,0,0,0,5.177,6.22,16.671,16.671,0,0,0,4.691.125,6.311,6.311,0,0,0,5.772-5.067,10.214,10.214,0,0,0-3.3,2.618,2.157,2.157,0,0,1-1.3.821,8.3,8.3,0,0,1-3.223-.021,2.225,2.225,0,0,1-1.747-1.843,2.349,2.349,0,0,1,.929-2.478c1.145-.871,4.243-.717,5.241.337.415.438.675.423,1.1.122,1.563-1.1,2.777-2.371,2.577-4.494a16.407,16.407,0,0,1,0-2.352.755.755,0,0,0-.683-.924,9.32,9.32,0,0,1-3.132-1.449c-.471-.321-.792-.687-.593-1.3.48-.574.963-.517,1.549-.107a9.362,9.362,0,0,0,5.6,1.611c.571,0,.911-.12.858-.814a11.746,11.746,0,0,0-3.406-7.591c-.284-.289-.5-.412-.771.024A29.378,29.378,0,0,1,2853.7,499.3Zm-12.659,3.12a20.042,20.042,0,0,0,2-.18,20.946,20.946,0,0,0,13.593-8.694c.523-.729.467-1.049-.338-1.475a11.55,11.55,0,0,0-16.766,8.453C2839.258,502.374,2839.258,502.374,2841.044,502.417Zm.163,5.5h-.011c0-1.009-.052-2.022.016-3.027.053-.786-.346-.8-.941-.819-.651-.019-.959.118-.9.854a11.742,11.742,0,0,1-2.748,8.409,5,5,0,0,0,.733,6.795c2.389,2.128,6.57,1.516,7.855-1.144.34-.7.424-1.187-.419-1.742a7.874,7.874,0,0,1-3.573-6.41C2841.157,509.859,2841.207,508.884,2841.207,507.913Zm18.243,18.834a33.269,33.269,0,0,1-16.664.262c-.16-.039-.454-.164-.481.064a5.306,5.306,0,0,0-.011,1.655c.086.419.574.215.876.216q7.225.019,14.449.009C2859.6,528.953,2859.6,528.953,2859.45,526.747Zm-7.078-12.96c.642-.143,1.728.346,1.7-.81-.021-.971-1.009-.764-1.676-.762-.7,0-1.732-.231-1.713.835C2850.7,514.068,2851.729,513.671,2852.372,513.786Z" transform="translate(-0.142 0)" fill="#070707"/>
      <path id="Trazado_589731" data-name="Trazado 589731" d="M2876.473,663.613c.808-.194.853-.807.851-1.482-.011-2.949.018-5.9-.01-8.847a6.664,6.664,0,0,1,4.42-6.719c1.642-.7,3.275-1.413,5.122-2.212,0,1.659.005,3.159,0,4.66,0,.356-.273.388-.554.386-.6,0-1.195-.01-1.792,0a2.443,2.443,0,0,0-2.638,2.87c.3,3.307.678,6.607,1.024,9.91.054.52.1,1.04.155,1.56.155,1.5.156,1.509-1.4,1.5-1.715-.012-3.429-.043-5.144-.065Q2876.485,664.395,2876.473,663.613Z" transform="translate(-46.481 -120.458)" fill="#8593db"/>
      <path id="Trazado_589732" data-name="Trazado 589732" d="M2829.257,508.657a33.638,33.638,0,0,1-4.644-.166,9.942,9.942,0,0,1-8.03-8.65,9.758,9.758,0,0,1,17.638-6.621,9.593,9.593,0,0,1-.38,11.829c-.572.691-.537.97.237,1.321a1.143,1.143,0,0,1,.769,1.432,1.238,1.238,0,0,1-1.4.861C2832.145,508.643,2830.837,508.657,2829.257,508.657Zm.771-1.761a3.435,3.435,0,0,0,1.5-.062c-.718-.994-.126-1.616.534-2.319a7.656,7.656,0,0,0,1.707-8.569,7.5,7.5,0,0,0-6.67-5,7.926,7.926,0,0,0-8.757,6.79,8.028,8.028,0,0,0,6.889,9.134A29.366,29.366,0,0,0,2830.028,506.9Z" transform="translate(0 -0.083)" fill="#080a09"/>
      <path id="Trazado_589733" data-name="Trazado 589733" d="M2909.29,688.084c-.475-4.258-.959-8.515-1.416-12.776-.091-.851.466-1.07,1.208-1.067,2.537.01,5.073,0,7.61,0q8.223.018,16.448.046a.5.5,0,0,0,.031.176l.2.18c.412,1.786-.216,3.513-.327,5.268-.174,2.734-.521,5.456-.8,8.184l-.231.262c-1.225.024-2.449.067-3.674.068q-8.762.011-17.522,0c-.407,0-.813-.041-1.22-.063Zm15.864-6.714a3.189,3.189,0,1,0-3.212,3.162A3.162,3.162,0,0,0,2925.153,681.37Z" transform="translate(-70.827 -143.638)" fill="#edebed"/>
      <path id="Trazado_589734" data-name="Trazado 589734" d="M2944.9,536.451c-.2.615.122.981.593,1.3a9.322,9.322,0,0,0,3.132,1.449.755.755,0,0,1,.684.924,16.442,16.442,0,0,0,0,2.352c.2,2.123-1.014,3.4-2.577,4.494-.428.3-.688.316-1.1-.122-1-1.054-4.1-1.208-5.241-.337a2.348,2.348,0,0,0-.928,2.478,2.225,2.225,0,0,0,1.747,1.843,8.3,8.3,0,0,0,3.223.022,2.156,2.156,0,0,0,1.3-.821,10.216,10.216,0,0,1,3.3-2.618,6.312,6.312,0,0,1-5.772,5.067,16.664,16.664,0,0,1-4.691-.125,6.5,6.5,0,0,1-5.177-6.22c-.043-1.979-.008-3.96-.014-5.94,0-.422-.036-.776.565-.88a22.4,22.4,0,0,0,9.828-4.363,2.392,2.392,0,0,1,.4-.2C2943.949,535.518,2944.878,535.789,2944.9,536.451Z" transform="translate(-90.608 -35.457)" fill="#facbbc"/>
      <path id="Trazado_589735" data-name="Trazado 589735" d="M2919.409,508.294c-1.786-.043-1.786-.043-1.508-1.9a11.55,11.55,0,0,1,16.766-8.453c.805.426.861.746.338,1.475a20.945,20.945,0,0,1-13.593,8.694A20.031,20.031,0,0,1,2919.409,508.294Z" transform="translate(-78.506 -5.878)" fill="#c28f8f"/>
      <path id="Trazado_589736" data-name="Trazado 589736" d="M3014.753,649.444a32.1,32.1,0,0,1-.01-4.271l.346-.214c1.888.8,3.821,1.507,5.652,2.42a5.978,5.978,0,0,1,3.49,5.374c.118,4.144.041,8.293.046,12.44,0,.184.013.378-.212.459-.085-.179-.163-.168-.236.008l-4.246.006-.276-.282c.415-4.114.822-8.228,1.246-12.34.206-1.993-.783-3.148-2.76-3.182q-1.34-.023-2.679-.051Z" transform="translate(-153.667 -120.927)" fill="#8492da"/>
      <path id="Trazado_589737" data-name="Trazado 589737" d="M2906.466,559.848c0,.972-.05,1.947.01,2.915a7.876,7.876,0,0,0,3.573,6.41c.843.555.759,1.038.419,1.742-1.285,2.661-5.465,3.272-7.855,1.144a5,5,0,0,1-.733-6.795,11.739,11.739,0,0,0,2.748-8.409c-.056-.736.251-.873.9-.854.594.017.994.033.94.819-.068,1-.016,2.017-.016,3.027Z" transform="translate(-65.401 -51.935)" fill="#c28f8f"/>
      <path id="Trazado_589738" data-name="Trazado 589738" d="M2997.428,556.65l1.064-.028a.456.456,0,0,0,.439.332c.013.448.049.9.037,1.343a10.5,10.5,0,0,0,2.393,7.059,4.927,4.927,0,0,1,.571,5.848,4.872,4.872,0,0,1-5.292,2.565,4.374,4.374,0,0,1-3.769-2.789c-.181-.476-.193-.785.308-1.115a8.315,8.315,0,0,0,3.861-7.62c-.039-1.754.025-3.509.043-5.264Z" transform="translate(-136.665 -52.417)" fill="#c18e8e"/>
      <path id="Trazado_589739" data-name="Trazado 589739" d="M2943.848,627.779a7.338,7.338,0,0,0,3.036,1.827c.933.274.694.973.754,1.612.068.726-.455.732-.916.856a30.939,30.939,0,0,1-15.514.144c-.407-.1-.949-.1-.842-.78.1-.633-.342-1.424.689-1.756a6.466,6.466,0,0,0,3.736-2.86c.377.155.76.3,1.13.468A11.175,11.175,0,0,0,2943.848,627.779Z" transform="translate(-88.268 -106.862)" fill="#facbbc"/>
      <path id="Trazado_589740" data-name="Trazado 589740" d="M2982.1,517.566c-.019-.661-.947-.933-.727-1.7a29.381,29.381,0,0,0,4.562-5.181c.267-.435.487-.312.771-.024a11.743,11.743,0,0,1,3.406,7.591c.053.694-.287.809-.857.814a9.361,9.361,0,0,1-5.6-1.611C2983.064,517.049,2982.581,516.992,2982.1,517.566Z" transform="translate(-127.812 -16.573)" fill="#b57d7d"/>
      <path id="Trazado_589741" data-name="Trazado 589741" d="M3017.43,674.451a.492.492,0,0,1-.031-.176c3.235-.17,3.09-.112,2.742,2.744-.432,3.541-.762,7.095-1.147,10.642-.025.228.109.542-.242.662-.095-.164-.171-.13-.237.022a5.913,5.913,0,0,1-2,0l0-.264c.274-2.728.622-5.45.8-8.184.112-1.755.739-3.482.327-5.268Z" transform="translate(-155.085 -143.622)" fill="#e2dee2"/>
      <path id="Trazado_589742" data-name="Trazado 589742" d="M2947.6,657.057c.147,2.206.147,2.206-1.83,2.206q-7.225,0-14.449-.009c-.3,0-.791.2-.876-.216a5.3,5.3,0,0,1,.011-1.655c.027-.228.321-.1.48-.064A33.269,33.269,0,0,0,2947.6,657.057Z" transform="translate(-88.291 -130.31)" fill="#edebed"/>
      <path id="Trazado_589743" data-name="Trazado 589743" d="M2959.187,622.837a11.176,11.176,0,0,1-7.927-.488c-.37-.171-.753-.313-1.13-.468a2.83,2.83,0,0,0,.242-.619c.108-.764.472-.825,1.211-.734a21.443,21.443,0,0,0,5.768-.036c.421-.062.686-.127.81.392A7.386,7.386,0,0,0,2959.187,622.837Z" transform="translate(-103.607 -101.92)" fill="#f7ac9a"/>
      <path id="Trazado_589744" data-name="Trazado 589744" d="M2969.728,593.811c-.642-.115-1.668.281-1.687-.737-.019-1.066,1.016-.833,1.714-.835.667,0,1.655-.209,1.676.762C2971.456,594.157,2970.37,593.668,2969.728,593.811Z" transform="translate(-117.498 -80.024)" fill="#615861"/>
      <path id="Trazado_589745" data-name="Trazado 589745" d="M3018.753,556.729a.457.457,0,0,1-.439-.332C3018.647,556.261,3018.83,556.323,3018.753,556.729Z" transform="translate(-156.487 -52.192)" fill="#c28f8f"/>
      <path id="Trazado_589746" data-name="Trazado 589746" d="M3012.377,556.735l-.345.329C3012.015,556.817,3012.135,556.712,3012.377,556.735Z" transform="translate(-151.614 -52.503)" fill="#c28f8f"/>
      <path id="Trazado_589747" data-name="Trazado 589747" d="M3015.319,644.808l-.346.214C3014.989,644.792,3015.095,644.7,3015.319,644.808Z" transform="translate(-153.896 -120.777)" fill="#8593db"/>
      <path id="Trazado_589748" data-name="Trazado 589748" d="M3015.012,664.945l.358.366C3015.1,665.335,3015,665.2,3015.012,664.945Z" transform="translate(-153.926 -136.428)" fill="#8593db"/>
      <path id="Trazado_589749" data-name="Trazado 589749" d="M2914.212,735.918l.311.281C2914.3,736.233,2914.2,736.143,2914.212,735.918Z" transform="translate(-75.749 -191.472)" fill="#f6f8f9"/>
      <path id="Trazado_589750" data-name="Trazado 589750" d="M3015.706,735.983l0,.264-.236,0Z" transform="translate(-154.285 -191.522)" fill="#f6f8f9"/>
      <path id="Trazado_589751" data-name="Trazado 589751" d="M3025.452,736.7c.066-.151.142-.186.237-.022Z" transform="translate(-162.023 -191.979)" fill="#f6f8f9"/>
      <path id="Trazado_589752" data-name="Trazado 589752" d="M3035.277,735.965l.276.282C3035.346,736.265,3035.242,736.184,3035.277,735.965Z" transform="translate(-169.638 -191.508)" fill="#8593db"/>
      <path id="Trazado_589753" data-name="Trazado 589753" d="M3055.449,736.722c.073-.175.152-.187.237-.008Z" transform="translate(-185.288 -191.989)" fill="#8593db"/>
      <path id="Trazado_589754" data-name="Trazado 589754" d="M2836.021,512.9a29.376,29.376,0,0,1-4.8-.03,8.027,8.027,0,0,1-6.889-9.134,7.926,7.926,0,0,1,8.757-6.79c.3.221.587.451.891.662a8.832,8.832,0,0,1,2.288,12.345A2.34,2.34,0,0,0,2836.021,512.9Zm-.468-8.824a.789.789,0,0,0-.694.9.744.744,0,0,0,.808.735.754.754,0,0,0,.815-.84C2836.468,504.345,2836.134,504.095,2835.554,504.073Zm-2.423.868a.788.788,0,0,0-.821-.856.737.737,0,0,0-.813.727.75.75,0,0,0,.748.9A.782.782,0,0,0,2833.131,504.941Zm-3.363-.049a.789.789,0,0,0-.864-.806.735.735,0,0,0-.776.765.751.751,0,0,0,.792.86C2829.446,505.725,2829.717,505.405,2829.768,504.892Z" transform="translate(-5.993 -6.083)" fill="#79c8a4"/>
      <path id="Trazado_589755" data-name="Trazado 589755" d="M2866.511,513.111a2.34,2.34,0,0,1,.249-2.948,8.832,8.832,0,0,0-2.288-12.345c-.3-.211-.594-.441-.892-.662a7.5,7.5,0,0,1,6.67,5,7.656,7.656,0,0,1-1.707,8.569c-.66.7-1.252,1.325-.534,2.319A3.434,3.434,0,0,1,2866.511,513.111Z" transform="translate(-36.482 -6.298)" fill="#56bb8f"/>
      <path id="Trazado_589756" data-name="Trazado 589756" d="M2962.862,694.919a3.188,3.188,0,1,1-3.161-3.208A3.174,3.174,0,0,1,2962.862,694.919Zm-1.679-.052a1.5,1.5,0,1,0-1.453,1.533A1.535,1.535,0,0,0,2961.183,694.867Z" transform="translate(-108.536 -157.186)" fill="#070707"/>
      <path id="Trazado_589757" data-name="Trazado 589757" d="M3020.623,675.248l.2.18Z" transform="translate(-158.278 -144.419)" fill="#f6f8f9"/>
      <path id="Trazado_589758" data-name="Trazado 589758" d="M2872.136,528.929c.581.022.915.272.929.8a.753.753,0,0,1-.815.84.743.743,0,0,1-.807-.735A.789.789,0,0,1,2872.136,528.929Z" transform="translate(-42.576 -30.94)" fill="#080a09"/>
      <path id="Trazado_589759" data-name="Trazado 589759" d="M2858.1,529.835a.782.782,0,0,1-.886.768.75.75,0,0,1-.748-.9.736.736,0,0,1,.813-.727A.788.788,0,0,1,2858.1,529.835Z" transform="translate(-30.958 -30.978)" fill="#080a09"/>
      <path id="Trazado_589760" data-name="Trazado 589760" d="M2843.106,529.791c-.052.514-.322.833-.848.819a.751.751,0,0,1-.792-.86.736.736,0,0,1,.776-.765A.789.789,0,0,1,2843.106,529.791Z" transform="translate(-19.331 -30.983)" fill="#080a09"/>
      <path id="Trazado_589761" data-name="Trazado 589761" d="M2967.019,700.646a1.5,1.5,0,1,1-1.5-1.484A1.534,1.534,0,0,1,2967.019,700.646Z" transform="translate(-114.372 -162.966)" fill="#c1b7c0"/>
    </g>
  </g>
</svg>
