<svg xmlns="http://www.w3.org/2000/svg" width="101" height="101" viewBox="0 0 101 101">
  <g id="Grupo_848435" data-name="Grupo 848435" transform="translate(-750 -3922.717)">
    <circle id="Elipse_7439" data-name="Elipse 7439" cx="50.5" cy="50.5" r="50.5" transform="translate(750 3922.717)" fill="#e8e8e8"/>
    <g id="Grupo_848009" data-name="Grupo 848009" transform="translate(-2440.898 3408.819)">
      <path id="Trazado_589762" data-name="Trazado 589762" d="M3266.3,615.424h-2.109c-.3-1.041-1.135-.951-1.947-.951q-16.3.006-32.6,0c-3.3,0-6.591.02-9.887-.009a3.323,3.323,0,0,1-3.631-3.424c-.035-8.148-.007-16.3-.033-24.445,0-.706.2-.914.9-.913q18.5.024,37.008,0c.692,0,.978.184.9.9a5.85,5.85,0,0,0,0,1.467c.244,1.619-.9,4.023.635,4.692,1.6.695,2.425-1.875,3.765-2.791a1.489,1.489,0,0,0,.377-.377c.5-.724.914-.566,1.447.019.9.986,1.877,1.9,2.822,2.845.352.353.715.719,1.273.516.63-.229.633-.783.632-1.333,0-1.648.032-3.3-.016-4.942-.021-.738.18-1.009.958-1,2.716.042,5.433.037,8.149,0,.725-.009,1,.161,1,.953-.029,8.1,0,16.208-.03,24.311a3.335,3.335,0,0,1-3.54,3.52c-1.513.036-3.028.021-4.542,0C3267.1,614.463,3266.494,614.6,3266.3,615.424Zm3.978-17.63c.372-.95-.075-1.351-.971-1.383-.934-.033-1.87-.011-2.8-.011q-9.483,0-18.967,0c-.94,0-1.945,0-1.358,1.452.3.534.817.448,1.3.449q10.708,0,21.415,0C3269.406,598.3,3269.98,598.413,3270.279,597.794Zm-39.758-6.656c-2.494,0-4.988.024-7.482-.012-1.008-.014-1.47.359-1.466,1.4q.03,7.547,0,15.095c0,1.027.421,1.422,1.446,1.416q7.481-.04,14.963,0c1.007.005,1.469-.35,1.464-1.4q-.031-7.547,0-15.095c0-1.029-.423-1.435-1.445-1.421C3235.509,591.162,3233.014,591.139,3230.521,591.139Zm27.793,12.536q5.277,0,10.553,0c.73,0,1.563.048,1.535-.987-.025-.939-.813-.89-1.5-.89q-10.687,0-21.374,0c-.727,0-1.565-.061-1.534.982.027.936.811.895,1.494.895Q3252.9,603.673,3258.314,603.674Zm0,5.351q5.276,0,10.553,0c.731,0,1.564.048,1.536-.985-.026-.934-.811-.892-1.5-.892q-10.687,0-21.374,0c-.727,0-1.564-.057-1.534.984.027.938.812.893,1.494.892Z" transform="translate(-5.122 -30.965)" fill="#f7ca4e"/>
      <path id="Trazado_589763" data-name="Trazado 589763" d="M3261.178,584.662c.193-.827.8-.961,1.531-.953,1.514.017,3.029.031,4.542,0a3.335,3.335,0,0,0,3.54-3.52c.028-8.1,0-16.208.03-24.311,0-.792-.272-.962-1-.953-2.716.035-5.433.039-8.149,0-.779-.012-.98.259-.958,1,.048,1.646.012,3.294.016,4.942,0,.55,0,1.1-.632,1.333-.558.2-.921-.163-1.273-.516-.945-.945-1.923-1.859-2.822-2.845-.533-.585-.948-.743-1.447-.019a1.5,1.5,0,0,1-.376.377c-1.34.915-2.168,3.485-3.766,2.791-1.538-.669-.39-3.073-.634-4.692a5.838,5.838,0,0,1,0-1.467c.075-.714-.21-.9-.9-.9q-18.5.028-37.008,0c-.695,0-.9.208-.9.913.025,8.148,0,16.3.032,24.445a3.324,3.324,0,0,0,3.631,3.424c3.3.029,6.591.009,9.886.009q16.3,0,32.6,0c.813,0,1.651-.09,1.947.951-.279.963-1.042.922-1.825.922q-16.427-.012-32.855-.006c-3.205,0-6.411.014-9.616,0-3.508-.02-5.657-2.161-5.66-5.666q-.017-15.29,0-30.58a5.237,5.237,0,0,1,5.561-5.63c1.469-.017,2.938,0,4.407,0,.612,0,1.175.055,1.347.791-.072.925-.669,1.155-1.479,1.148-1.469-.012-2.939-.016-4.407,0a3.338,3.338,0,0,0-3.549,3.356c-.055.976.018,1.959-.023,2.937-.031.74.233,1.054,1,1.017.933-.044,1.869-.01,2.8-.01h33.257c1.7,0,1.7,0,1.705-1.759,0-1.336-.076-2.677.023-4,.09-1.212-.289-1.587-1.539-1.571-5.519.069-11.041.022-16.561.037-.825,0-1.526-.095-1.727-1.06a1.323,1.323,0,0,1,1.455-.891c12.016.013,24.032-.012,36.047.026a5.106,5.106,0,0,1,5.239,5.259q.051,15.685,0,31.369a5.138,5.138,0,0,1-5.143,5.221c-1.645.056-3.293,0-4.939.022C3261.882,585.6,3261.359,585.41,3261.178,584.662ZM3258.5,558.8l.336-.2q0-6.244,0-12.488c0-.692-.52-.6-.951-.6-1.737-.008-3.475.033-5.211-.02-.826-.025-1.071.258-1.054,1.071.047,2.315.016,4.631.016,6.946v5.144l.487.321c.644-.771,1.248-1.58,1.94-2.3,1.088-1.138,1.335-1.123,2.476.023C3257.21,557.377,3257.843,558.1,3258.5,558.8Zm7.252-5.7a6.842,6.842,0,0,0,1.333-.014c1.229-.248,2.954.8,3.606-.615.506-1.1.2-2.635.044-3.951a3.1,3.1,0,0,0-3.018-2.871c-2.046-.069-4.1-.008-6.145-.032-.63-.007-.875.238-.868.864.019,1.87.023,3.74,0,5.609-.01.753.313,1.031,1.042,1.017C3263.075,553.089,3264.411,553.107,3265.747,553.108Z" transform="translate(0 -0.203)" fill="#070707"/>
      <path id="Trazado_589764" data-name="Trazado 589764" d="M3235.033,546.764c.2.965.9,1.062,1.727,1.06,5.521-.015,11.042.031,16.561-.037,1.25-.016,1.629.359,1.539,1.571-.1,1.328-.021,2.669-.023,4,0,1.757,0,1.759-1.7,1.759h-33.257c-.935,0-1.871-.035-2.8.01-.764.037-1.028-.277-1-1.017.042-.977-.032-1.961.023-2.937a3.338,3.338,0,0,1,3.549-3.356c1.469-.019,2.938-.015,4.408,0,.809.007,1.406-.223,1.479-1.148a8.437,8.437,0,0,0,2.536.078c.228,1.276,1.225,1.075,2.092,1.059.887-.016,1.966.306,2.229-1.055Z" transform="translate(-5.105 -2.388)" fill="#6b7983"/>
      <path id="Trazado_589765" data-name="Trazado 589765" d="M3265.251,544.364c-.263,1.361-1.343,1.039-2.23,1.055-.867.016-1.865.217-2.092-1.059C3261.726,543.092,3264.451,543.094,3265.251,544.364Z" transform="translate(-37.966)" fill="#070707"/>
      <path id="Trazado_589766" data-name="Trazado 589766" d="M3245.525,606.059c2.494,0,4.988.023,7.482-.011,1.021-.014,1.449.392,1.445,1.421q-.032,7.547,0,15.095c0,1.045-.457,1.4-1.464,1.4q-7.482-.039-14.963,0c-1.024.005-1.45-.389-1.446-1.416q.03-7.547,0-15.095c0-1.041.458-1.414,1.466-1.4C3240.537,606.083,3243.031,606.059,3245.525,606.059Zm-6.983,15.477.013.28c1.63.59,1.91.448,1.89-1.076a5.1,5.1,0,0,1,1.748-4.15c.452-.39.517-.6.19-1.161a3.62,3.62,0,0,1,.792-4.9,3.759,3.759,0,0,1,4.683,0,3.641,3.641,0,0,1,.792,4.906c-.326.559-.261.773.193,1.162a5.1,5.1,0,0,1,1.747,4.151c-.015,1.525.268,1.67,1.886,1.071l.013-.273q.2-6.543,0-13.085l-.022-.272c-.123-.357-.432-.241-.672-.241q-6.278-.01-12.556,0c-.241,0-.548-.114-.675.239l-.024.278Q3238.343,615,3238.542,621.536Zm6.961.536h1.2c2.1,0,2.473-.518,1.845-2.59a3.1,3.1,0,0,0-3.354-2.253,3.167,3.167,0,0,0-2.842,2.744c-.278,1.975-.171,2.1,1.817,2.1Zm.123-10.464a1.829,1.829,0,0,0-1.965,1.721,1.858,1.858,0,1,0,3.709.224A1.832,1.832,0,0,0,3245.626,611.608Z" transform="translate(-20.127 -45.886)" fill="#070707"/>
      <path id="Trazado_589767" data-name="Trazado 589767" d="M3340.225,647.825q-5.41,0-10.821,0c-.684,0-1.467.041-1.495-.895-.03-1.043.808-.982,1.534-.982q10.687,0,21.374,0c.683,0,1.47-.049,1.5.89.027,1.034-.8.987-1.535.987Q3345.5,647.824,3340.225,647.825Z" transform="translate(-87.034 -75.116)" fill="#070707"/>
      <path id="Trazado_589768" data-name="Trazado 589768" d="M3340.226,667.833h-10.821c-.682,0-1.468.045-1.494-.892-.03-1.041.808-.984,1.534-.984q10.687,0,21.374,0c.685,0,1.47-.042,1.5.892.028,1.033-.8.985-1.536.985Q3345.5,667.832,3340.226,667.833Z" transform="translate(-87.035 -89.773)" fill="#070707"/>
      <path id="Trazado_589769" data-name="Trazado 589769" d="M3328.1,627.2c-.586-1.455.418-1.45,1.358-1.452q9.483-.012,18.967,0c.935,0,1.871-.022,2.8.011.9.031,1.344.433.971,1.383-.844.007-1.687.019-2.53.021Z" transform="translate(-87.048 -60.313)" fill="#070707"/>
      <path id="Trazado_589770" data-name="Trazado 589770" d="M3328.58,631.041q10.785-.02,21.572-.041c.843,0,1.686-.014,2.53-.021-.3.619-.872.509-1.39.509q-10.708.006-21.416,0C3329.4,631.489,3328.878,631.574,3328.58,631.041Z" transform="translate(-87.525 -64.15)" fill="#2e3b4f"/>
      <path id="Trazado_589771" data-name="Trazado 589771" d="M3374.944,563.756c-.653-.7-1.286-1.427-1.962-2.106-1.142-1.146-1.388-1.161-2.476-.023-.692.724-1.3,1.533-1.94,2.3l-.487-.321v-5.144c0-2.316.031-4.632-.016-6.946-.016-.812.228-1.1,1.054-1.071,1.735.053,3.473.012,5.21.02.431,0,.951-.089.951.6q0,6.244,0,12.488Z" transform="translate(-116.448 -5.156)" fill="#4dc1b3"/>
      <path id="Trazado_589772" data-name="Trazado 589772" d="M3407.077,558.408c-1.335,0-2.672-.019-4.007.007-.729.014-1.052-.264-1.042-1.017.026-1.87.022-3.74,0-5.609-.006-.625.238-.871.868-.864,2.048.024,4.1-.036,6.144.032a3.1,3.1,0,0,1,3.018,2.871c.158,1.316.461,2.855-.045,3.951-.651,1.411-2.377.367-3.605.615A6.806,6.806,0,0,1,3407.077,558.408Z" transform="translate(-141.33 -5.504)" fill="#6b7882"/>
      <path id="Trazado_589773" data-name="Trazado 589773" d="M3243.668,613.319c.127-.352.434-.239.675-.239q6.278-.01,12.556,0c.24,0,.549-.116.672.241-.18.106-.149.195.022.272q.194,6.542,0,13.084c-.173.083-.191.174-.013.273-1.618.6-1.9.454-1.886-1.071a5.1,5.1,0,0,0-1.746-4.151c-.454-.389-.52-.6-.193-1.162a3.641,3.641,0,0,0-.792-4.906,3.759,3.759,0,0,0-4.683,0,3.62,3.62,0,0,0-.791,4.9c.327.558.262.771-.19,1.161a5.1,5.1,0,0,0-1.748,4.15c.02,1.524-.26,1.666-1.89,1.076.187-.1.169-.2-.013-.28q-.2-6.539,0-13.078C3243.821,613.519,3243.857,613.429,3243.668,613.319Z" transform="translate(-25.231 -51.025)" fill="#dee4e9"/>
      <path id="Trazado_589774" data-name="Trazado 589774" d="M3261.01,652.661h-1.334c-1.988,0-2.094-.124-1.817-2.1a3.167,3.167,0,0,1,2.842-2.744,3.1,3.1,0,0,1,3.355,2.253c.628,2.072.26,2.59-1.845,2.59Z" transform="translate(-35.634 -76.475)" fill="#f34e50"/>
      <path id="Trazado_589775" data-name="Trazado 589775" d="M3265.021,626.83a1.832,1.832,0,0,1,1.744,1.945,1.858,1.858,0,1,1-3.709-.224A1.829,1.829,0,0,1,3265.021,626.83Z" transform="translate(-39.523 -61.108)" fill="#f34e50"/>
      <path id="Trazado_589776" data-name="Trazado 589776" d="M3243.942,614.022c.189.11.153.2-.023.278Z" transform="translate(-25.505 -51.728)" fill="#f6f8f9"/>
      <path id="Trazado_589777" data-name="Trazado 589777" d="M3295.684,614.3c-.171-.078-.2-.166-.022-.272Z" transform="translate(-63.322 -51.734)" fill="#f6f8f9"/>
      <path id="Trazado_589778" data-name="Trazado 589778" d="M3243.923,663.963c.182.085.2.178.012.28Z" transform="translate(-25.508 -88.313)" fill="#f6f8f9"/>
      <path id="Trazado_589779" data-name="Trazado 589779" d="M3295.674,664.248c-.178-.1-.16-.19.013-.273Z" transform="translate(-63.327 -88.322)" fill="#f6f8f9"/>
    </g>
  </g>
</svg>
