<svg xmlns="http://www.w3.org/2000/svg" width="101" height="101" viewBox="0 0 101 101">
  <g id="Grupo_848437" data-name="Grupo 848437" transform="translate(-750 -4521.159)">
    <circle id="Elipse_7441" data-name="Elipse 7441" cx="50.5" cy="50.5" r="50.5" transform="translate(750 4521.159)" fill="#e8e8e8"/>
    <g id="Grupo_848011" data-name="Grupo 848011" transform="translate(-2591.883 4418.773)">
      <path id="Trazado_589810" data-name="Trazado 589810" d="M3417.619,176.105c.409.833-.048,1.28-.692,1.728a15.71,15.71,0,0,1-18.405-.609,3.187,3.187,0,0,0-2.143-.727q-15.533.034-31.066.014c-3.748,0-5.4-1.65-5.4-5.388q0-15.283-.006-30.566c0-.78-.031-1.533.961-1.747a1.235,1.235,0,0,1,.948,1.406c-.009.536.036,1.074.058,1.611-.009.206.1.289.3.276.331.019.662.054.992.054q25.362,0,50.725,0c.331,0,.661-.037.991-.057.187.013.26-.079.241-.258.016-2.079.069-4.158.035-6.236a2.44,2.44,0,0,0-2.633-2.542c-1.858-.072-1.858-.072-1.876,1.8-.024,2.477-1.485,4.158-3.652,4.2-2.2.047-3.789-1.694-3.823-4.176-.025-1.829-.025-1.829-1.85-1.829-.083,0-.167-.006-.25,0-.858.073-1.915-.358-2.523.2-.517.475-.114,1.5-.185,2.278a3.729,3.729,0,0,1-7.45-.077c-.162-2.4-.162-2.4-2.534-2.4H3388c-1.854,0-1.853,0-1.9,1.909a6.444,6.444,0,0,1-.045.746,3.78,3.78,0,0,1-3.863,3.346,3.729,3.729,0,0,1-3.557-3.655,15.426,15.426,0,0,1-.006-1.622c.029-.536-.177-.743-.718-.731q-1.684.039-3.37,0c-.532-.012-.738.177-.734.717a13.015,13.015,0,0,1-.11,2.237,3.691,3.691,0,0,1-7.32-.4c-.043-.621-.02-1.247-.028-1.871,0-.294-.011-.547-.388-.672a3.045,3.045,0,0,0-4.132,2.549,1.462,1.462,0,0,1-.956,1.442,1.3,1.3,0,0,1-.974-1.508,4.513,4.513,0,0,1,3.908-4.343c.815-.134,1.923.333,2.37-.259.411-.544.138-1.59.207-2.411a3.688,3.688,0,0,1,7.322-.273,9.36,9.36,0,0,1,.083,1.99c-.046.7.175.949.9.91,1.079-.058,2.164-.037,3.246-.005.543.016.74-.17.706-.715a13.725,13.725,0,0,1,.01-1.747,3.7,3.7,0,0,1,7.341-.469,9.263,9.263,0,0,1,.092,2.113c-.04.678.216.889.85.816a9.358,9.358,0,0,1,1-.007c.915-.006,2.037.31,2.691-.107.726-.463.178-1.675.3-2.554a3.8,3.8,0,0,1,3.49-3.34,3.736,3.736,0,0,1,3.842,2.907,4.783,4.783,0,0,1,.109.863c.108,2.23.106,2.23,2.412,2.23,2.279,0,2.279,0,2.4-2.24a3.731,3.731,0,1,1,7.46.093c.062,2.032.062,2.032,1.992,2.154a4.487,4.487,0,0,1,4.45,4.851c.023,4.87.031,9.74-.016,14.609a2.208,2.208,0,0,0,.956,1.97,15.692,15.692,0,0,1,2.652,21.688c-.433.558-.841,1.067-1.638.644-.865-.908-.029-1.507.419-2.145a13.879,13.879,0,1,0-3.847,3.674C3416.239,176.044,3416.825,175.489,3417.619,176.105Zm-2.484-28.768c.015-.783-.025-1.573.059-2.349.089-.825-.282-.943-.992-.928-2.022.042-4.046.014-6.069.014-2.25,0-2.25,0-2.021,2.267-.024.536-.01,1.078-.082,1.608-.127.934.194,1.212,1.157,1.124a14.322,14.322,0,0,1,6.232.859c.556.2,1.107.416,1.716.646Zm-25.52,18.472-.453-.033a24.392,24.392,0,0,0-4.774,0l-.249.012c-.073.086-.208.171-.208.257-.015,2.649,0,5.3-.033,7.947-.008.647.363.615.8.612q3.724-.028,7.449-.044h3.586a18.141,18.141,0,0,1-2.271-3.975,15.754,15.754,0,0,1-1.025-4.329c-.038-.416-.2-.608-.613-.578A7.224,7.224,0,0,0,3389.614,165.809Zm5.376-14.49c-.1,1.7-.1,1.67,1.565,1.71a2.649,2.649,0,0,0,1.928-.667,13.976,13.976,0,0,1,3.64-2.148c2.1-.912,2.1-.91,1.988-3.263a.936.936,0,0,0-.023-.123c.016-.66.005-1.323.057-1.981.045-.585-.151-.789-.758-.782q-3.847.043-7.694,0c-.624-.007-.762.241-.753.8C3394.977,147.018,3394.977,149.168,3394.99,151.318Zm-10.836,12.45,5.483-.006c.7.016,1.41.015,2.114.053.465.025.613-.162.713-.62a30.1,30.1,0,0,0,.65-7.536c-.023-.671-.2-.931-.869-.754-2.524-.013-5.047-.011-7.571-.048-.589-.009-.788.171-.779.772.04,2.647.039,5.295.052,7.942C3383.918,163.739,3383.982,163.81,3384.154,163.768Zm-11-19.651c-.179-.033-.273.026-.241.222l-.008,8.244c-.063.454.253.439.55.439,2.62,0,5.24-.01,7.86.01.536,0,.736-.178.733-.717-.018-2.578-.009-5.156-.01-7.734,0-.263-.023-.511-.391-.469Zm8.494,30.451c.36.038.4-.2.4-.467,0-2.576-.014-5.151.013-7.727.007-.664-.329-.728-.855-.725-2.534.014-5.069,0-7.6.013-.286,0-.724-.159-.7.41-.012,2.569,0,5.138-.048,7.706-.012.658.191.846.842.835C3376.348,174.57,3379,174.578,3381.653,174.567Zm-10.992-30.451-8.492-.006a.306.306,0,0,0-.387.344c0,2.661,0,5.323-.009,7.984,0,.531.3.589.728.588,2.62-.008,5.24,0,7.86,0,.3,0,.613.016.55-.439q0-4.122-.008-8.244C3370.933,144.143,3370.84,144.084,3370.661,144.116Zm13.461,8.791.319.015a79.026,79.026,0,0,0,8.159,0c.309.029.477-.083.42-.42.124-2.619.117-5.239,0-7.858l0-.37c-.06-.056-.119-.16-.18-.16-2.785-.019-5.57-.017-8.354-.05-.677-.008-.581.421-.581.829,0,1.871-.035,3.742.015,5.612C3383.943,151.305,3383.654,152.143,3384.122,152.907Zm-22.245,10.407.019.267c.045.066.089.189.134.189,2.784.018,5.567.017,8.351.043.678.006.567-.447.568-.846,0-2.41-.026-4.821.019-7.23.014-.745-.263-.9-.938-.884-1.994.037-3.99-.015-5.984.028-.71.015-1.463-.258-2.136.2l-.033.264Q3361.681,159.328,3361.877,163.314Zm20.064,0q.2-3.985,0-7.97l-.033-.263c-.089-.068-.177-.2-.267-.2-2.7-.013-5.4,0-8.1-.027-.714-.008-.677.4-.675.882.006,2.369.031,4.738-.014,7.105-.014.75.172,1,.962.985,2.2-.055,4.405,0,6.607-.033.5-.007,1.061.25,1.5-.214Zm-15.537,2.365c-1.289,0-2.578.014-3.867-.007-.509-.008-.76.126-.75.7.032,1.953-.034,3.91.053,5.86a2.373,2.373,0,0,0,2.544,2.363c1.912.039,3.826-.014,5.738.027.655.014.854-.181.844-.84-.036-2.411-.046-4.823,0-7.233.016-.77-.3-.9-.95-.878C3368.817,165.7,3367.61,165.676,3366.4,165.677Zm5.5-33.514c0-1.04.028-2.081-.007-3.119a1.84,1.84,0,1,0-3.674-.065q-.1,3.116,0,6.238a1.84,1.84,0,1,0,3.675-.059C3371.935,134.161,3371.907,133.162,3371.907,132.163Zm24.523-.153c0-1.038.033-2.078-.009-3.115a1.689,1.689,0,0,0-1.778-1.82,1.667,1.667,0,0,0-1.783,1.81c-.041,2.118-.038,4.237,0,6.356a1.786,1.786,0,1,0,3.567.01C3396.46,134.172,3396.431,133.091,3396.43,132.011Zm8.679,0q0,1.559,0,3.119c0,.083,0,.166,0,.249a1.674,1.674,0,0,0,1.738,1.738,1.645,1.645,0,0,0,1.832-1.753q.07-3.242,0-6.486a1.667,1.667,0,0,0-1.789-1.807,1.693,1.693,0,0,0-1.778,1.822C3405.082,129.933,3405.112,130.974,3405.109,132.014Zm-24.529,0c0,1.122-.016,2.244,0,3.366a1.623,1.623,0,0,0,1.714,1.74,1.725,1.725,0,0,0,1.854-1.754c.04-2.2.06-4.406-.013-6.606a1.626,1.626,0,0,0-1.793-1.672,1.593,1.593,0,0,0-1.757,1.686C3380.56,129.852,3380.584,130.933,3380.581,132.014Z" transform="translate(0 0)" fill="#090808"/>
      <path id="Trazado_589811" data-name="Trazado 589811" d="M3363.778,160.29a1.462,1.462,0,0,0,.956-1.442,3.044,3.044,0,0,1,4.132-2.549c.378.125.385.378.389.672.009.624-.015,1.25.028,1.871a3.691,3.691,0,0,0,7.32.4,12.991,12.991,0,0,0,.109-2.237c0-.54.2-.73.734-.717q1.684.039,3.369,0c.541-.012.747.2.718.731a15.36,15.36,0,0,0,.006,1.622,3.729,3.729,0,0,0,3.557,3.655,3.78,3.78,0,0,0,3.863-3.346,6.5,6.5,0,0,0,.045-.746c.046-1.909.046-1.909,1.9-1.909h.374c2.372,0,2.372,0,2.534,2.4a3.729,3.729,0,0,0,7.45.077c.071-.779-.332-1.8.185-2.278.608-.559,1.665-.128,2.523-.2.083-.007.166,0,.25,0,1.824,0,1.824,0,1.85,1.829.035,2.482,1.628,4.222,3.824,4.176,2.167-.046,3.628-1.727,3.652-4.2.018-1.87.018-1.87,1.876-1.8a2.439,2.439,0,0,1,2.633,2.542c.034,2.078-.02,4.157-.035,6.236l-.241.258c-.331.02-.661.057-.992.057q-25.362,0-50.724,0c-.331,0-.661-.036-.992-.054l-.3-.276c-.021-.537-.066-1.075-.057-1.611a1.235,1.235,0,0,0-.948-1.406Q3363.773,161.168,3363.778,160.29Z" transform="translate(-2.899 -23.235)" fill="#eb524e"/>
      <path id="Trazado_589812" data-name="Trazado 589812" d="M3520.683,253.382c-.793-.616-1.38-.061-2.009.339a13.853,13.853,0,1,1,3.847-3.674c-.448.638-1.284,1.237-.418,2.145Q3521.39,252.786,3520.683,253.382Zm-18.027-17.833c-.891-.307-1.268.252-1.636.919a11.589,11.589,0,1,0,21.739,5.428,11.606,11.606,0,0,0-18.157-9.4c-.672.438-1.233.916-.687,1.815Z" transform="translate(-103.064 -77.277)" fill="#4cbcf0"/>
      <path id="Trazado_589813" data-name="Trazado 589813" d="M3420.791,244.5q.194,3.985,0,7.97c-.172.077-.2.165-.019.268-.442.464-1,.207-1.5.214-2.2.031-4.406-.023-6.607.033-.79.02-.976-.234-.962-.985.045-2.368.02-4.737.014-7.105,0-.479-.039-.89.675-.882,2.7.032,5.4.015,8.1.027.089,0,.178.128.267.2C3420.574,244.353,3420.626,244.436,3420.791,244.5Z" transform="translate(-38.848 -89.163)" fill="#cacaca"/>
      <path id="Trazado_589814" data-name="Trazado 589814" d="M3367.537,244.117c.674-.456,1.426-.182,2.136-.2,1.994-.043,3.99.009,5.984-.028.675-.013.952.139.938.884-.045,2.41-.015,4.82-.019,7.23,0,.4.11.852-.568.846-2.784-.025-5.567-.024-8.351-.043-.045,0-.089-.123-.133-.189.183-.1.154-.19-.019-.267q-.2-3.986,0-7.971C3367.667,244.312,3367.721,244.229,3367.537,244.117Z" transform="translate(-5.628 -89.038)" fill="#cacaca"/>
      <path id="Trazado_589815" data-name="Trazado 589815" d="M3372.06,287.27c1.206,0,2.412.025,3.617-.011.654-.02.967.108.95.878-.051,2.41-.041,4.823,0,7.233.01.659-.189.854-.844.84-1.912-.041-3.826.011-5.737-.027a2.373,2.373,0,0,1-2.545-2.363c-.087-1.95-.021-3.907-.053-5.86-.009-.569.242-.7.75-.7C3369.481,287.284,3370.771,287.27,3372.06,287.27Z" transform="translate(-5.655 -121.593)" fill="#c7c7c7"/>
      <path id="Trazado_589816" data-name="Trazado 589816" d="M3464.884,201.436c.112,2.62.119,5.239-.006,7.859l-.42.42a79.035,79.035,0,0,1-8.159,0c-.1-.2-.2-.232-.318-.015-.468-.764-.179-1.6-.2-2.4-.05-1.869-.016-3.741-.015-5.612,0-.409-.1-.837.581-.829,2.784.033,5.569.03,8.354.049.06,0,.12.1.179.161C3464.658,201.194,3464.656,201.317,3464.884,201.436Z" transform="translate(-71.859 -56.791)" fill="#c7c7c7"/>
      <path id="Trazado_589817" data-name="Trazado 589817" d="M3377.61,201.265q0,4.122.008,8.244c-2.539,0-5.078-.023-7.616.024-.859.016-1.173-.241-1.154-1.13.054-2.454.025-4.91.029-7.365l8.493.006Z" transform="translate(-6.709 -56.927)" fill="#cbcbcb"/>
      <path id="Trazado_589818" data-name="Trazado 589818" d="M3420.514,297.289c-2.652.011-5.3,0-7.956.047-.651.011-.854-.177-.842-.835.046-2.568.037-5.138.048-7.706,2.49-.006,4.98.017,7.469-.031.968-.019,1.333.332,1.313,1.307C3420.5,292.475,3420.52,294.882,3420.514,297.289Z" transform="translate(-38.861 -122.722)" fill="#cbcbcb"/>
      <path id="Trazado_589819" data-name="Trazado 589819" d="M3411.934,209.509l.008-8.244.241-.222,8.492-.006c0,2.455-.025,4.911.029,7.365.02.89-.3,1.146-1.154,1.13C3417.012,209.486,3414.473,209.511,3411.934,209.509Z" transform="translate(-39.025 -56.927)" fill="#cbcbcb"/>
      <path id="Trazado_589820" data-name="Trazado 589820" d="M3461.627,252.928l-5.483.006-.205-.2c-.013-2.647-.012-5.3-.052-7.942-.009-.6.19-.781.779-.772,2.523.037,5.047.036,7.571.048-.248.57-.459,1.16-.751,1.707A16.5,16.5,0,0,0,3461.627,252.928Z" transform="translate(-71.99 -89.167)" fill="#cbcbcb"/>
      <path id="Trazado_589821" data-name="Trazado 589821" d="M3464.138,296.132q-3.725.021-7.449.044c-.435,0-.8.035-.8-.612.031-2.649.017-5.3.033-7.947,0-.086.136-.171.208-.257.092.169.176.187.249-.012a24.392,24.392,0,0,1,4.774,0,.319.319,0,0,0,.408.261,23.976,23.976,0,0,0,.74,3.973C3462.719,293.195,3463.668,294.561,3464.138,296.132Z" transform="translate(-71.994 -121.573)" fill="#cbcbcb"/>
      <path id="Trazado_589822" data-name="Trazado 589822" d="M3500.114,208.1c-.014-2.15-.014-4.3-.05-6.45-.01-.563.128-.811.752-.8q3.847.044,7.694,0c.606-.007.8.2.757.782-.051.658-.041,1.321-.057,1.981a10.3,10.3,0,0,0-4.992,1.739C3502.786,206.156,3501.477,207.179,3500.114,208.1Z" transform="translate(-105.123 -56.787)" fill="#cbcbcb"/>
      <path id="Trazado_589823" data-name="Trazado 589823" d="M3396.736,137.976c0,1,.028,2-.007,2.995a1.84,1.84,0,1,1-3.675.059q-.094-3.117,0-6.238a1.84,1.84,0,1,1,3.674.065C3396.764,135.9,3396.736,136.936,3396.736,137.976Z" transform="translate(-24.829 -5.812)" fill="#636363"/>
      <path id="Trazado_589824" data-name="Trazado 589824" d="M3495.225,137.829c0,1.08.029,2.161-.007,3.24a1.786,1.786,0,1,1-3.567-.01c-.034-2.118-.037-4.238,0-6.356a1.667,1.667,0,0,1,1.783-1.81,1.689,1.689,0,0,1,1.778,1.82C3495.257,135.751,3495.225,136.79,3495.225,137.829Z" transform="translate(-98.794 -5.818)" fill="#656565"/>
      <path id="Trazado_589825" data-name="Trazado 589825" d="M3540.72,137.824c0-1.039-.029-2.08.01-3.118a1.693,1.693,0,0,1,1.778-1.822,1.667,1.667,0,0,1,1.789,1.807q.061,3.242,0,6.486a1.645,1.645,0,0,1-1.833,1.753,1.674,1.674,0,0,1-1.738-1.738c-.006-.083,0-.166,0-.249Q3540.718,139.383,3540.72,137.824Z" transform="translate(-135.609 -5.811)" fill="#636363"/>
      <path id="Trazado_589826" data-name="Trazado 589826" d="M3442.606,137.863c0-1.08-.022-2.161.008-3.241a1.593,1.593,0,0,1,1.757-1.686,1.626,1.626,0,0,1,1.793,1.672c.073,2.2.053,4.4.013,6.606a1.726,1.726,0,0,1-1.854,1.754,1.623,1.623,0,0,1-1.714-1.74C3442.589,140.107,3442.6,138.985,3442.606,137.863Z" transform="translate(-62.024 -5.85)" fill="#636363"/>
      <path id="Trazado_589827" data-name="Trazado 589827" d="M3500.163,216.4c1.363-.926,2.672-1.949,4.1-2.751a10.3,10.3,0,0,1,4.992-1.739.9.9,0,0,1,.023.123c.117,2.353.116,2.35-1.988,3.263a13.972,13.972,0,0,0-3.64,2.148,2.649,2.649,0,0,1-1.928.667C3500.067,218.067,3500.066,218.1,3500.163,216.4Z" transform="translate(-105.173 -65.079)" fill="#b0b0b0"/>
      <path id="Trazado_589828" data-name="Trazado 589828" d="M3481.158,296.126c-.47-1.571-1.42-2.937-1.835-4.549a23.9,23.9,0,0,1-.739-3.972.683.683,0,0,1,.044-.229,7.222,7.222,0,0,1,2.207-.133c.408-.03.575.161.613.578a15.753,15.753,0,0,0,1.025,4.329,18.142,18.142,0,0,0,2.271,3.975Z" transform="translate(-89.013 -121.568)" fill="#b0b0b0"/>
      <path id="Trazado_589829" data-name="Trazado 589829" d="M3553.447,210.747v3.243c-.609-.23-1.161-.445-1.716-.646a14.321,14.321,0,0,0-6.232-.859c-.964.088-1.285-.19-1.157-1.124.072-.53.058-1.071.082-1.608a21.108,21.108,0,0,1,6.983.53A5.415,5.415,0,0,0,3553.447,210.747Z" transform="translate(-138.312 -63.41)" fill="#b4b4b4"/>
      <path id="Trazado_589830" data-name="Trazado 589830" d="M3553.479,204.109a5.413,5.413,0,0,1-2.041-.465,21.108,21.108,0,0,0-6.983-.53c-.229-2.267-.229-2.267,2.021-2.267,2.023,0,4.047.027,6.069-.014.711-.015,1.081.1.992.928C3553.455,202.536,3553.494,203.326,3553.479,204.109Z" transform="translate(-138.345 -56.772)" fill="#cacaca"/>
      <path id="Trazado_589831" data-name="Trazado 589831" d="M3478.851,252.911a16.5,16.5,0,0,1,1.858-7.15c.292-.546.5-1.136.751-1.707.664-.177.846.083.869.754a30.1,30.1,0,0,1-.65,7.536c-.1.458-.248.645-.713.62C3480.262,252.927,3479.556,252.927,3478.851,252.911Z" transform="translate(-89.214 -89.15)" fill="#b0b0b0"/>
      <path id="Trazado_589832" data-name="Trazado 589832" d="M3420.658,296.093c.006-2.407-.017-4.814.032-7.219.02-.975-.344-1.326-1.313-1.307-2.489.048-4.979.025-7.469.031-.021-.57.417-.409.7-.41,2.534-.012,5.069,0,7.6-.013.527,0,.863.062.856.725-.027,2.576-.012,5.151-.013,7.727C3421.056,295.894,3421.018,296.131,3420.658,296.093Z" transform="translate(-39.005 -121.526)" fill="#b4b4b4"/>
      <path id="Trazado_589833" data-name="Trazado 589833" d="M3367.778,201.024c0,2.455.025,4.911-.029,7.365-.02.89.295,1.146,1.154,1.13,2.538-.047,5.077-.022,7.616-.024.063.454-.253.439-.55.439-2.62,0-5.24,0-7.86.005-.424,0-.729-.057-.727-.588.01-2.661.006-5.323.009-7.984A.306.306,0,0,1,3367.778,201.024Z" transform="translate(-5.61 -56.913)" fill="#bcbcbc"/>
      <path id="Trazado_589834" data-name="Trazado 589834" d="M3411.91,209.494c2.539,0,5.078-.023,7.616.024.859.016,1.174-.241,1.154-1.13-.054-2.454-.025-4.91-.029-7.365.368-.042.391.205.391.469,0,2.578-.007,5.156.01,7.734,0,.539-.2.721-.733.717-2.62-.019-5.24-.008-7.86-.009C3412.163,209.933,3411.847,209.949,3411.91,209.494Z" transform="translate(-39.001 -56.912)" fill="#bcbcbc"/>
      <path id="Trazado_589835" data-name="Trazado 589835" d="M3477.4,287.736a.682.682,0,0,0-.044.228.319.319,0,0,1-.409-.262Z" transform="translate(-87.787 -121.928)" fill="#dedfdf"/>
      <path id="Trazado_589836" data-name="Trazado 589836" d="M3367.79,191.906l.3.276C3367.888,192.2,3367.781,192.112,3367.79,191.906Z" transform="translate(-5.915 -50.078)" fill="#f95753"/>
      <path id="Trazado_589837" data-name="Trazado 589837" d="M3579.822,192.224l.241-.258C3580.082,192.145,3580.008,192.237,3579.822,192.224Z" transform="translate(-164.943 -50.123)" fill="#f95753"/>
      <path id="Trazado_589838" data-name="Trazado 589838" d="M3490.7,235.033l.42-.42C3491.179,234.949,3491.01,235.061,3490.7,235.033Z" transform="translate(-98.102 -82.109)" fill="#dedfdf"/>
      <path id="Trazado_589839" data-name="Trazado 589839" d="M3491.892,202.067c-.229-.119-.226-.243-.005-.369C3491.888,201.821,3491.89,201.944,3491.892,202.067Z" transform="translate(-98.866 -57.422)" fill="#dedfdf"/>
      <path id="Trazado_589840" data-name="Trazado 589840" d="M3456.789,235.782c.116-.216.221-.182.318.015Z" transform="translate(-72.667 -82.875)" fill="#dedfdf"/>
      <path id="Trazado_589841" data-name="Trazado 589841" d="M3367.83,244.913c.184.113.131.2-.033.264Z" transform="translate(-5.921 -89.834)" fill="#dedfdf"/>
      <path id="Trazado_589842" data-name="Trazado 589842" d="M3447.624,245.175c-.165-.068-.217-.151-.033-.263Z" transform="translate(-65.681 -89.834)" fill="#dedfdf"/>
      <path id="Trazado_589843" data-name="Trazado 589843" d="M3447.615,278.117c-.184-.1-.153-.19.019-.268Z" transform="translate(-65.692 -114.537)" fill="#dedfdf"/>
      <path id="Trazado_589844" data-name="Trazado 589844" d="M3456.073,278.884l.205.2C3456.107,279.123,3456.043,279.053,3456.073,278.884Z" transform="translate(-72.125 -115.313)" fill="#b0b0b0"/>
      <path id="Trazado_589845" data-name="Trazado 589845" d="M3412.189,201.035l-.241.222C3411.916,201.061,3412.01,201,3412.189,201.035Z" transform="translate(-39.031 -56.918)" fill="#bcbcbc"/>
      <path id="Trazado_589846" data-name="Trazado 589846" d="M3457.105,287.7c-.073.2-.157.181-.249.012Z" transform="translate(-72.718 -121.922)" fill="#dedfdf"/>
      <path id="Trazado_589847" data-name="Trazado 589847" d="M3403.179,201.257l-.24-.222C3403.118,201,3403.211,201.062,3403.179,201.257Z" transform="translate(-32.278 -56.919)" fill="#bcbcbc"/>
      <path id="Trazado_589848" data-name="Trazado 589848" d="M3367.8,277.855c.173.077.2.164.019.267Z" transform="translate(-5.925 -114.542)" fill="#dedfdf"/>
      <path id="Trazado_589849" data-name="Trazado 589849" d="M3510.726,240.957c-.545-.9.015-1.377.688-1.815a11.606,11.606,0,0,1,18.157,9.4,11.586,11.586,0,1,1-21.739-5.428c.368-.667.745-1.227,1.635-.92.714.708.257,1.35-.092,2.023-2.589,5-.374,11.321,4.64,13.266a7.961,7.961,0,0,0,4.946.879,9.345,9.345,0,0,0,8.28-6.763,9.085,9.085,0,0,0-2.848-10.176,9.274,9.274,0,0,0-10.646-1.457,15.249,15.249,0,0,0-1.364.791C3511.851,241.144,3511.34,241.4,3510.726,240.957Z" transform="translate(-109.877 -83.926)" fill="#050809"/>
      <path id="Trazado_589850" data-name="Trazado 589850" d="M3519.672,266.289c-5.015-1.945-7.229-8.265-4.64-13.266.348-.673.805-1.315.092-2.023q.631-.619,1.259-1.24c.614.447,1.124.187,1.658-.2a15.211,15.211,0,0,1,1.364-.791c.044.545-.377.813-.7,1.111a10.611,10.611,0,0,0-.959,14.224C3518.352,264.882,3519.363,265.278,3519.672,266.289Z" transform="translate(-115.532 -92.729)" fill="#dedfdf"/>
      <path id="Trazado_589851" data-name="Trazado 589851" d="M3524.224,263.167c-.309-1.011-1.32-1.407-1.928-2.182a10.611,10.611,0,0,1,.959-14.224c.325-.3.746-.566.7-1.111a9.274,9.274,0,0,1,10.646,1.457,9.085,9.085,0,0,1,2.848,10.176,9.345,9.345,0,0,1-8.28,6.763A7.961,7.961,0,0,1,3524.224,263.167Zm7.619-6.465c1.038,0,2.075-.006,3.113,0,.692,0,1.455,0,1.482-.9s-.721-.96-1.425-.957c-1.619.007-3.24-.048-4.855.022-.854.037-1.038-.275-1.014-1.057.052-1.7.019-3.4.013-5.1,0-.658-.262-1.191-.988-1.17-.637.018-.913.5-.913,1.117q0,3.424,0,6.848a1.063,1.063,0,0,0,1.227,1.207C3529.6,256.692,3530.722,256.7,3531.843,256.7Z" transform="translate(-120.085 -89.607)" fill="#fbfbfb"/>
      <path id="Trazado_589852" data-name="Trazado 589852" d="M3553.571,265.47c-1.121,0-2.242-.01-3.362,0a1.063,1.063,0,0,1-1.228-1.207q0-3.424,0-6.848c0-.621.276-1.1.914-1.117.726-.02.985.512.988,1.17.007,1.7.039,3.4-.013,5.1-.024.782.161,1.094,1.015,1.057,1.615-.07,3.236-.015,4.855-.022.7,0,1.452.04,1.425.957s-.791.909-1.481.9C3555.646,265.465,3554.608,265.471,3553.571,265.47Z" transform="translate(-141.812 -98.375)" fill="#090808"/>
    </g>
  </g>
</svg>
