<svg xmlns="http://www.w3.org/2000/svg" width="101" height="101" viewBox="0 0 101 101">
  <g id="Grupo_848436" data-name="Grupo 848436" transform="translate(-750 -4198.717)">
    <circle id="Elipse_7440" data-name="Elipse 7440" cx="50.5" cy="50.5" r="50.5" transform="translate(750 4198.717)" fill="#e8e8e8"/>
    <g id="Grupo_848010" data-name="Grupo 848010" transform="translate(-2785.933 3711.89)">
      <path id="Trazado_589780" data-name="Trazado 589780" d="M3585.98,508.612q11.664,0,23.328,0c3.419,0,5.337,1.922,5.338,5.347q0,20.523,0,41.047c0,3.35-1.92,5.259-5.29,5.279h-.224a4.626,4.626,0,0,0-1.879.073c-.6.306-.2,1.141-.326,1.736a4.782,4.782,0,0,1-4.666,3.932q-16.318.03-32.637,0a4.676,4.676,0,0,1-4.722-4.7c-.014-.926-.319-1.144-1.141-1.056a12.4,12.4,0,0,1-1.569.008,4.763,4.763,0,0,1-4.971-5.033q-.015-11.327,0-22.654,0-9.309,0-18.617c0-3.44,1.909-5.365,5.32-5.366Q3574.26,508.609,3585.98,508.612Zm26.673,47.115a1.534,1.534,0,0,0,.07-.324q.007-15.39,0-30.78c0-.246.181-.644-.328-.665h-1.8c-.148-.013-.3-.037-.445-.037q-25.1,0-50.2.006c-.231,0-.529-.156-.693.167l-.045.227c-.021.409-.062.817-.062,1.226q-.005,14.128,0,28.256c0,3.99.608,4.552,4.617,4.608.992.014,1.133-.311,1.125-1.193-.043-4.747-.006-9.494-.028-14.24a4.147,4.147,0,0,1,1.817-3.638c1.247-.889,2.416-1.9,3.716-2.7a3.849,3.849,0,0,0,2.181-4.03c-.173-1.75,1.174-2.9,2.956-2.932,1.121-.021,2.244-.035,3.364.007a2.368,2.368,0,0,0,1.642-.534c1.15-.893,2.333-1.745,3.513-2.6a2.826,2.826,0,0,1,3.8.008,17.738,17.738,0,0,1,1.973,1.475,5.971,5.971,0,0,0,4.978,1.657c3.915-.363,4.823,1.3,4.542,4.518a1.382,1.382,0,0,0,.727,1.364c1.672,1.194,3.294,2.456,4.973,3.64a4.387,4.387,0,0,1,1.976,3.9c-.04,4.186-.013,8.372-.013,12.558,0,2.9,0,2.9,2.919,2.645A2.632,2.632,0,0,0,3612.654,555.727Zm-9.71-11.027-11.569,8.416,11.6,8.443c.5.426,1.067,1.226,1.591,1.026.681-.26.486-1.224.487-1.915q.013-8.23,0-16.46c0-.313-.03-.626-.055-1.118Zm-17.478,7.194a4.211,4.211,0,0,0-.481.268q-7.7,5.674-15.393,11.359c-.157.116-.427.165-.386.473a3.051,3.051,0,0,0,1.312.111q15,.008,30,0c.372,0,.743-.035,1.114-.054a1.337,1.337,0,0,0,1.185-.15c-5.427-4-10.79-7.961-16.158-11.912C3586.3,551.724,3585.9,551.469,3585.466,551.894Zm25.334-29.915c.185.018.371.05.556.05.677,0,1.385.236,1.388-.97s-.707-.97-1.384-.972c-.186,0-.371.029-.557.045-.447-.014-.895-.04-1.342-.04q-11.6,0-23.2-.006a2.907,2.907,0,0,1-3.212-3.181c-.005-.374-.024-.749,0-1.121.072-.992-.345-1.424-1.367-1.421q-10.816.029-21.633-.007c-.772,0-.926.274-.911.966.04,1.793.083,3.59-.013,5.378-.059,1.091.27,1.35,1.351,1.348q24.6-.056,49.207-.028C3610.056,522.022,3610.428,521.994,3610.8,521.979Zm-.872-11.343c-.521-.024-1.043-.068-1.565-.068q-11.885-.007-23.77,0-11.043,0-22.088,0a3.329,3.329,0,0,0-2.316.648c-.314.269-.757.6-.66.977.132.509.706.232,1.068.233,7.064.019,14.127.009,21.191.018a2.923,2.923,0,0,1,3.214,3.193c0,.261,0,.523,0,.785,0,1.611.172,1.789,1.8,1.791q7.288.009,14.576,0c3.138-.006,6.276-.035,9.414-.053.183.024.368.04.549.073,1.073.189,1.436-.25,1.354-1.326-.092-1.217.009-2.448-.038-3.671A2.569,2.569,0,0,0,3609.929,510.636Zm-14.82,20.99q-9.691-.025-19.383-.053c-.979,0-1.278.5-1.272,1.413q.037,6.275,0,12.551a1.385,1.385,0,0,0,.67,1.281c1.643,1.168,3.252,2.382,4.876,3.576,2.034,1.5,2.035,1.5,4.1.037a2.848,2.848,0,0,1,3.71.027c.486.342.979.674,1.468,1.01.333.537.668.374,1.085.062,2.146-1.6,4.309-3.186,6.47-4.769a1.115,1.115,0,0,0,.589-.98c-.022-4.356-.016-8.712-.012-13.068a1,1,0,0,0-1.08-1.134C3595.923,531.565,3595.516,531.608,3595.109,531.626Zm-28.3,11.442c0,6.043,0,11.824,0,17.605,0,.672-.153,1.569.4,1.887s1.057-.484,1.539-.835c3.883-2.832,7.744-5.693,11.7-8.611Zm32.618-5.577v7.322c1.6-1.174,3.054-2.262,4.531-3.324.463-.333.229-.5-.078-.727C3602.441,539.71,3601.005,538.65,3599.43,537.492Zm-26.966-.021c-1.608,1.183-3.095,2.28-4.584,3.371-.244.179-.41.326-.062.578,1.518,1.105,3.027,2.221,4.646,3.412Zm10.911-7.878h5.225C3586.031,527.323,3585.486,527.33,3583.375,529.593Z" fill="#070706"/>
      <path id="Trazado_589781" data-name="Trazado 589781" d="M3616.583,611.108c-2.919.259-2.919.259-2.919-2.645,0-4.186-.027-8.372.013-12.558a4.388,4.388,0,0,0-1.976-3.9c-1.679-1.184-3.3-2.447-4.973-3.64A1.382,1.382,0,0,1,3606,587c.281-3.215-.626-4.881-4.542-4.518a5.972,5.972,0,0,1-4.978-1.657,17.74,17.74,0,0,0-1.973-1.475,2.826,2.826,0,0,0-3.8-.008c-1.18.853-2.363,1.7-3.512,2.6a2.369,2.369,0,0,1-1.642.534c-1.12-.042-2.243-.028-3.364-.007-1.782.034-3.129,1.182-2.956,2.932a3.849,3.849,0,0,1-2.182,4.03c-1.3.8-2.468,1.81-3.715,2.7a4.147,4.147,0,0,0-1.817,3.638c.022,4.747-.015,9.494.028,14.24.008.882-.133,1.207-1.125,1.193-4.009-.056-4.616-.619-4.617-4.608q0-14.128,0-28.256c0-.409.041-.817.062-1.226.138-.051.2-.118.045-.227.164-.323.462-.167.693-.167q25.1-.012,50.2-.006c.148,0,.3.024.445.037a.268.268,0,0,0,.021.18l.211.177q0,13.7,0,27.393C3617.484,606.734,3617.844,609.035,3616.583,611.108Z" transform="translate(-6.663 -52.788)" fill="#f3f3f3"/>
      <path id="Trazado_589782" data-name="Trazado 589782" d="M3648.821,630.81c-.49-.336-.982-.668-1.468-1.01a2.848,2.848,0,0,0-3.711-.027c-2.068,1.459-2.069,1.459-4.1-.037-1.624-1.194-3.233-2.408-4.876-3.576a1.384,1.384,0,0,1-.67-1.281q.042-6.275,0-12.551c-.005-.918.294-1.417,1.273-1.413q9.692.036,19.383.053a.164.164,0,0,0,.032.153l.223.169a1.97,1.97,0,0,1,.217.967c-.005,4.354-.014,8.708.008,13.061a1.6,1.6,0,0,1-.781,1.377Q3651.582,628.746,3648.821,630.81Zm-3.4-7.428c2.425,0,4.85-.006,7.275,0,.693,0,1.34-.1,1.364-.948s-.605-1.007-1.307-1.007q-7.274,0-14.549,0c-.7,0-1.33.162-1.305,1.007s.665.952,1.361.949C3640.643,623.376,3643.031,623.382,3645.418,623.382Zm0-3.825c2.387,0,4.774,0,7.162,0,.712,0,1.449-.034,1.471-.953s-.691-1.008-1.417-1.007q-7.162.007-14.323,0c-.728,0-1.439.092-1.415,1.01s.762.953,1.474.95C3640.722,619.553,3643.072,619.558,3645.422,619.558Zm.045,7.649c1.79,0,3.579-.01,5.368,0,.716.006,1.329-.179,1.326-.992,0-.742-.577-.961-1.252-.96q-5.424.007-10.847,0c-.67,0-1.254.2-1.269.943-.017.815.587,1.014,1.306,1.009C3641.889,627.2,3643.678,627.206,3645.467,627.206Zm-6.251-13.422v0c-.446,0-.894-.022-1.339.005a.928.928,0,0,0-.991.981.881.881,0,0,0,.909.939c.966.043,1.935.044,2.9.005a.909.909,0,0,0,.943-.917.932.932,0,0,0-.972-1C3640.187,613.753,3639.7,613.784,3639.216,613.784Z" transform="translate(-59.544 -79.342)" fill="#f2f2f2"/>
      <path id="Trazado_589783" data-name="Trazado 589783" d="M3618.739,524.887c-3.138.018-6.276.047-9.414.053q-7.288.013-14.576,0c-1.628,0-1.8-.18-1.8-1.791,0-.262,0-.523,0-.785a2.924,2.924,0,0,0-3.215-3.193c-7.064-.009-14.127,0-21.191-.018-.363,0-.936.276-1.069-.233-.1-.374.346-.708.66-.977a3.328,3.328,0,0,1,2.316-.648q11.043.013,22.088,0,11.885,0,23.77,0c.522,0,1.044.044,1.565.068.144.887.918,1.54.905,2.49C3618.754,521.536,3618.751,523.212,3618.739,524.887Zm-10.477-2.829a.937.937,0,0,0,.893-.978.923.923,0,1,0-1.841.072A.924.924,0,0,0,3608.262,522.058Zm2.858-.97a.9.9,0,0,0,.9.946.868.868,0,0,0,.949-1,.857.857,0,0,0-.942-.9A.9.9,0,0,0,3611.12,521.088Zm5.69.037a.883.883,0,0,0-.857-.977.944.944,0,1,0-.086,1.886C3616.429,522.055,3616.744,521.7,3616.81,521.125Z" transform="translate(-7.944 -6.735)" fill="#3e50b3"/>
      <path id="Trazado_589784" data-name="Trazado 589784" d="M3617.373,541.835c-.372.015-.745.043-1.117.043q-24.6,0-49.207.028c-1.081,0-1.41-.257-1.351-1.348.1-1.788.053-3.586.013-5.378-.015-.693.139-.969.912-.966q10.816.044,21.633.007c1.022,0,1.439.429,1.367,1.421-.027.372-.008.747,0,1.121a2.906,2.906,0,0,0,3.212,3.181q11.6.012,23.2.006c.448,0,.895.026,1.342.04Q3617.374,540.911,3617.373,541.835Zm-42.685-2.83c1.681,0,3.361-.008,5.042,0,.676,0,1.247-.194,1.27-.94s-.533-1-1.212-1h-9.971c-.68,0-1.238.249-1.214,1s.586.95,1.268.944C3571.476,539,3573.083,539,3574.688,539.005Zm13.031-1.8a.947.947,0,0,0-1.417-.911c-.374.2-.616.279-.973,0a.8.8,0,0,0-1.115.13.832.832,0,0,0-.157,1.121.7.7,0,0,1-.005.968.922.922,0,0,0,1.31,1.25c.385-.319.605-.135.957.04a.9.9,0,0,0,1.362-.781C3587.607,538.374,3587.063,537.744,3587.719,537.2Z" transform="translate(-6.572 -19.855)" fill="#02a7f1"/>
      <path id="Trazado_589785" data-name="Trazado 589785" d="M3643.042,713.612c-.371.019-.743.054-1.114.054q-15,0-30,0a3.051,3.051,0,0,1-1.312-.111c-.041-.307.229-.357.386-.473q7.692-5.686,15.393-11.359a4.238,4.238,0,0,1,.481-.268,7.379,7.379,0,0,0,.713.685c1.941,1.432,3.9,2.837,5.837,4.276Q3638.246,710,3643.042,713.612Z" transform="translate(-41.412 -149.56)" fill="#fde939"/>
      <path id="Trazado_589786" data-name="Trazado 589786" d="M3599.9,662.132l13.638,10.047c-3.958,2.918-7.819,5.779-11.7,8.611-.482.352-.988,1.154-1.539.835s-.4-1.216-.4-1.887C3599.9,673.956,3599.9,668.175,3599.9,662.132Z" transform="translate(-33.085 -119.064)" fill="#fcda00"/>
      <path id="Trazado_589787" data-name="Trazado 589787" d="M3721,686.263l-11.6-8.443,11.569-8.416c.364.275.257.675.257,1.035q.008,7.389,0,14.778C3721.229,685.574,3721.344,685.973,3721,686.263Z" transform="translate(-118.03 -124.703)" fill="#fcda00"/>
      <path id="Trazado_589788" data-name="Trazado 589788" d="M3792.726,577.162a.266.266,0,0,1-.021-.18h1.8q.005,15.2.019,30.39c0,.462-.19.981.239,1.379a2.632,2.632,0,0,1-2.734,2.593c1.262-2.073.9-4.374.905-6.614q.021-13.7,0-27.392Z" transform="translate(-182.109 -53.025)" fill="#cdd6da"/>
      <path id="Trazado_589789" data-name="Trazado 589789" d="M3700.057,630.82q2.765-2.059,5.531-4.115a1.6,1.6,0,0,0,.781-1.377c-.022-4.354-.013-8.708-.008-13.061a1.964,1.964,0,0,0-.217-.967l-.223-.169a.164.164,0,0,1-.032-.153c.407-.018.814-.061,1.22-.047a1,1,0,0,1,1.08,1.134c0,4.356-.01,8.712.012,13.068a1.116,1.116,0,0,1-.589.98c-2.161,1.583-4.324,3.166-6.47,4.77C3700.726,631.194,3700.39,631.357,3700.057,630.82Z" transform="translate(-110.78 -79.352)" fill="#c4ccd0"/>
      <path id="Trazado_589790" data-name="Trazado 589790" d="M3760.975,680.707c.344-.29.229-.688.229-1.047q.01-7.389,0-14.778c0-.36.106-.76-.257-1.035L3763,662.24c.025.492.055.805.055,1.118q0,8.23,0,16.46c0,.691.194,1.655-.487,1.915C3762.043,681.934,3761.476,681.133,3760.975,680.707Z" transform="translate(-158.004 -119.147)" fill="#fbc007"/>
      <path id="Trazado_589791" data-name="Trazado 589791" d="M3745.291,637.286c1.576,1.159,3.012,2.218,4.454,3.271.306.224.541.395.077.727-1.477,1.061-2.935,2.15-4.531,3.324Z" transform="translate(-145.862 -99.794)" fill="#f99501"/>
      <path id="Trazado_589792" data-name="Trazado 589792" d="M3608.4,637.192v7.361c-1.619-1.191-3.129-2.307-4.647-3.412-.347-.253-.182-.4.062-.578C3605.308,639.472,3606.794,638.376,3608.4,637.192Z" transform="translate(-35.94 -99.721)" fill="#f99501"/>
      <path id="Trazado_589793" data-name="Trazado 589793" d="M3699.242,712.829q-4.806-3.6-9.614-7.2c-1.935-1.439-3.9-2.844-5.837-4.276a7.391,7.391,0,0,1-.714-.685c.434-.425.83-.17,1.191.1,5.368,3.951,10.73,7.909,16.158,11.912A1.337,1.337,0,0,1,3699.242,712.829Z" transform="translate(-97.612 -148.777)" fill="#f1d031"/>
      <path id="Trazado_589794" data-name="Trazado 589794" d="M3803.241,608.757c-.429-.4-.239-.916-.239-1.379q-.022-15.2-.019-30.39c.51.021.328.419.328.666q.012,15.39,0,30.78A1.533,1.533,0,0,1,3803.241,608.757Z" transform="translate(-190.587 -53.03)" fill="#c4ccd0"/>
      <path id="Trazado_589795" data-name="Trazado 589795" d="M3792.938,525.148c.011-1.675.015-3.351.038-5.026.013-.95-.761-1.6-.905-2.49a2.569,2.569,0,0,1,2.732,2.591c.047,1.222-.054,2.453.038,3.671.082,1.077-.281,1.515-1.354,1.327C3793.306,525.188,3793.122,525.172,3792.938,525.148Z" transform="translate(-182.142 -6.996)" fill="#273488"/>
      <path id="Trazado_589796" data-name="Trazado 589796" d="M3673.759,596.219c2.111-2.264,2.657-2.27,5.225,0Z" transform="translate(-90.385 -66.626)" fill="#f99501"/>
      <path id="Trazado_589797" data-name="Trazado 589797" d="M3795.954,561.573l0-1.846c.186-.016.371-.046.557-.045.677,0,1.386-.237,1.384.972s-.71.969-1.388.97C3796.325,561.623,3796.139,561.59,3795.954,561.573Z" transform="translate(-185.154 -39.593)" fill="#0178b1"/>
      <path id="Trazado_589798" data-name="Trazado 589798" d="M3566.142,577.59c.155.109.093.176-.045.227Z" transform="translate(-6.887 -53.497)" fill="#f7f9fa"/>
      <path id="Trazado_589799" data-name="Trazado 589799" d="M3795.133,577.783l.211.177Z" transform="translate(-184.517 -53.646)" fill="#f7f9fa"/>
      <path id="Trazado_589800" data-name="Trazado 589800" d="M3655.445,659.716c-2.388,0-4.775-.006-7.163,0-.7,0-1.336-.109-1.36-.949s.6-1.007,1.305-1.007q7.274,0,14.549,0c.7,0,1.331.161,1.307,1.007s-.67.951-1.364.948C3660.295,659.71,3657.87,659.716,3655.445,659.716Z" transform="translate(-69.57 -115.676)" fill="#0f0f0f"/>
      <path id="Trazado_589801" data-name="Trazado 589801" d="M3655.463,642.658c-2.35,0-4.7,0-7.05,0-.712,0-1.449-.031-1.474-.951s.688-1.01,1.415-1.01q7.162.007,14.323,0c.726,0,1.44.088,1.417,1.007s-.759.956-1.471.953C3660.237,642.654,3657.85,642.658,3655.463,642.658Z" transform="translate(-69.585 -102.443)" fill="#0f0f0f"/>
      <path id="Trazado_589802" data-name="Trazado 589802" d="M3662.056,676.771c-1.789,0-3.578-.008-5.367,0-.719,0-1.323-.194-1.306-1.009.015-.746.6-.943,1.269-.943q5.424.007,10.847,0c.676,0,1.25.219,1.252.96,0,.813-.61,1-1.326.992C3665.634,676.761,3663.845,676.771,3662.056,676.771Z" transform="translate(-76.132 -128.906)" fill="#0f0f0f"/>
      <path id="Trazado_589803" data-name="Trazado 589803" d="M3649.214,623.656c.484,0,.97-.031,1.451.008a.932.932,0,0,1,.972,1,.909.909,0,0,1-.943.917c-.966.039-1.936.038-2.9-.005a.882.882,0,0,1-.909-.939.928.928,0,0,1,.991-.981c.445-.027.893-.005,1.339-.005Z" transform="translate(-69.541 -89.214)" fill="#0f0f0f"/>
      <path id="Trazado_589804" data-name="Trazado 589804" d="M3726.186,611.833l.223.169Z" transform="translate(-131.045 -80.054)" fill="#f7f9fa"/>
      <path id="Trazado_589805" data-name="Trazado 589805" d="M3745.971,531.9a.924.924,0,0,1-.948-.906.923.923,0,1,1,1.841-.072A.937.937,0,0,1,3745.971,531.9Z" transform="translate(-145.652 -16.574)" fill="#070706"/>
      <path id="Trazado_589806" data-name="Trazado 589806" d="M3761.986,530.919a.9.9,0,0,1,.912-.946.856.856,0,0,1,.941.9.868.868,0,0,1-.949,1A.9.9,0,0,1,3761.986,530.919Z" transform="translate(-158.81 -16.567)" fill="#070706"/>
      <path id="Trazado_589807" data-name="Trazado 589807" d="M3780.936,530.971c-.066.57-.381.93-.943.908a.945.945,0,1,1,.943-.908Z" transform="translate(-172.069 -16.582)" fill="#070706"/>
      <path id="Trazado_589808" data-name="Trazado 589808" d="M3584.745,548.868c-1.606,0-3.212-.01-4.818,0-.682.006-1.244-.2-1.268-.944s.533-1,1.213-1h9.971c.68,0,1.236.251,1.212,1s-.594.945-1.27.94C3588.106,548.86,3586.426,548.868,3584.745,548.868Z" transform="translate(-16.629 -29.718)" fill="#070706"/>
      <path id="Trazado_589809" data-name="Trazado 589809" d="M3650.559,543.8c-.655.541-.112,1.172-.039,1.82a.9.9,0,0,1-1.362.781c-.351-.176-.571-.36-.956-.04a.922.922,0,0,1-1.31-1.25.7.7,0,0,0,.005-.968.832.832,0,0,1,.157-1.121.8.8,0,0,1,1.115-.13c.357.276.6.2.973,0A.948.948,0,0,1,3650.559,543.8Z" transform="translate(-69.413 -26.457)" fill="#070706"/>
    </g>
  </g>
</svg>
