<svg xmlns="http://www.w3.org/2000/svg" width="63.938" height="63.938" viewBox="0 0 63.938 63.938">
  <g id="Grupo_847372" data-name="Grupo 847372" transform="translate(-240 -1286.742)">
    <rect id="Rectángulo_38178" data-name="Rectángulo 38178" width="63.938" height="63.938" transform="translate(240 1286.742)" fill="none"/>
    <g id="Grupo_847389" data-name="Grupo 847389" transform="translate(250.052 1291.814)">
      <path id="Trazado_587734" data-name="Trazado 587734" d="M1625.894-315.622c-.592-.144-.717-.565-.716-1.113.008-8.715,0-17.43.016-26.145a2.956,2.956,0,0,1,2.917-3.086c.454-.036.747-.081.909-.612a2.859,2.859,0,0,1,2.785-2.152c.588-.029.732-.22.77-.793a2.981,2.981,0,0,1,3.094-2.913c7.63-.016,15.259,0,22.889-.017a1.562,1.562,0,0,1,1.192.522q4.371,4.39,8.761,8.76a1.571,1.571,0,0,1,.5,1.2Q1669-325.113,1669-308.26a2.949,2.949,0,0,1-2.883,3.117c-.548.043-.75.147-.8.758a2.979,2.979,0,0,1-2.969,2.943c-.568.037-.729.268-.9.734a2.9,2.9,0,0,1-2.881,2.039q-15.172.022-30.344,0a2.936,2.936,0,0,1-3.009-2.891c-.054-3.744-.017-7.49-.032-11.234a.94.94,0,0,1,.721-1.014c.78.121.854.666.851,1.319-.015,3.463-.008,6.927-.005,10.39,0,.87.2,1.606,1.233,1.759a7.9,7.9,0,0,0,.826.084q14.614.007,29.228,0a8.479,8.479,0,0,0,1.03-.123c.45-.1.882-.424.809-.809-.089-.47-.65-.192-.99-.205-1.043-.041-2.089-.028-3.134-.01-.6.01-1.018-.182-1.148-.81.15-.7.655-.8,1.263-.8,2.016.012,4.031,0,6.047.006a1.552,1.552,0,0,0,1.691-.932,1,1,0,0,0,.1-.811c.012-.183-.033-.316-.255-.3-.417-.021-.833-.061-1.249-.062q-12.934-.006-25.867.007a4.57,4.57,0,0,1-2.686-.673,4.2,4.2,0,0,1-1.153-3.35c.019-.417.053-.835.053-1.252q0-11.791,0-23.582c0-1.536-.029-3.072-.045-4.607.137-.639-.169-1.489.823-1.717.842.187.792.834.791,1.484q-.009,14.967,0,29.935c0,1.732.455,2.194,2.161,2.194q13.759,0,27.518,0c.314,0,.627-.031.941-.047,2.292.177,2.717-.216,2.717-2.513q0-13.459,0-26.919c0-1.64-.028-3.279-.043-4.919l0-.264c-.724-.4-1.493-.129-2.242-.147-1.148-.015-2.3-.034-3.443-.042-2.4-.016-3.583-1.2-3.6-3.593-.016-1.808-.04-3.616-.061-5.423.032-.2-.047-.284-.248-.251a1.631,1.631,0,0,0-.307-.058q-10.814-.006-21.628,0c-1.23,0-1.742.569-1.752,1.848-.015,1.925-.018,3.85,0,5.775.007.6-.161,1.026-.8,1.157a.942.942,0,0,1-.773-1.076c.02-1.085-.047-2.174.022-3.254.054-.825-.361-.89-.95-.731-1.067.288-1.179,1.121-1.178,2.065q.016,19.9.008,39.8c0,1.9.362,2.253,2.281,2.254q9.294,0,18.588,0c.646,0,1.3-.042,1.489.8-.177.838-.817.81-1.469.81-6.254-.006-12.508-.014-18.762.008a4.49,4.49,0,0,1-2.672-.737,4.116,4.116,0,0,1-1.071-3.068q.032-19.1.006-38.209c0-.327.191-.8-.168-.959a1.313,1.313,0,0,0-1.285.255,1.934,1.934,0,0,0-.644,1.788q.01,12.649.008,25.3C1626.747-316.373,1626.775-315.732,1625.894-315.622Zm33.8-33.882c0,1.572-.015,3.107,0,4.64.015,1.18.548,1.706,1.74,1.732,1.011.022,2.023.025,3.034,0,.522-.014,1.079.155,1.505-.107Z" transform="translate(-1625.178 352.452)" fill="#070706"/>
      <path id="Trazado_587735" data-name="Trazado 587735" d="M1630.669-270.29c-1.028-.153-1.233-.889-1.234-1.759,0-3.463-.009-6.927.005-10.39,0-.653-.071-1.2-.851-1.319q0-.906-.005-1.812c.882-.11.853-.751.853-1.409q-.008-12.649-.008-25.3a1.935,1.935,0,0,1,.644-1.788,1.314,1.314,0,0,1,1.286-.255c.358.163.168.631.168.958q.013,19.1-.006,38.209a4.119,4.119,0,0,0,1.071,3.068c-.129.737.789.917.832,1.562C1632.513-270.358,1631.554-270.762,1630.669-270.29Z" transform="translate(-1627.869 322.4)" fill="#87c5f8"/>
      <path id="Trazado_587736" data-name="Trazado 587736" d="M1663.9-336.083c.636-.131.8-.552.8-1.157-.021-1.925-.019-3.85,0-5.775.01-1.279.522-1.845,1.752-1.848q10.814-.02,21.628,0a1.625,1.625,0,0,1,.306.058l.248.251c.021,1.808.045,3.616.061,5.423.021,2.4,1.207,3.577,3.6,3.593,1.148.008,2.3.027,3.443.042q0,15.478,0,30.957a8.984,8.984,0,0,1-.43,3.8c-.314.016-.627.047-.941.047q-13.759,0-27.518,0c-1.706,0-2.161-.462-2.161-2.194q0-14.967,0-29.935c0-.65.051-1.3-.791-1.484Q1663.9-335.191,1663.9-336.083Zm17.4,19.914q5.035,0,10.07,0c.573,0,1.219.044,1.244-.75s-.6-.806-1.187-.805q-10.07,0-20.141,0c-.589,0-1.215.006-1.193.8s.666.755,1.241.755Q1676.322-316.171,1681.3-316.169Zm.063-11.643q4.873,0,9.746,0a4.593,4.593,0,0,0,.936-.062.706.706,0,0,0,.59-.757.714.714,0,0,0-.605-.746,4.624,4.624,0,0,0-.938-.043q-8.856,0-17.711,0c-.768,0-1.537,0-2.305,0-.554,0-1,.177-.992.809s.473.788,1.011.8c.244.006.489,0,.733,0Zm-.063,5.8q4.982,0,9.964,0c.579,0,1.319.131,1.343-.748s-.686-.809-1.288-.809H1671.4c-.6,0-1.313-.062-1.292.806s.76.75,1.341.751Q1676.376-322,1681.306-322.008Z" transform="translate(-1655.762 346.463)" fill="#eceaec"/>
      <path id="Trazado_587737" data-name="Trazado 587737" d="M1653.084-322.346q0,.892,0,1.784c-.992.228-.687,1.079-.823,1.717-.472.171-.311.579-.311.9q-.011,13.752,0,27.5c0,.366-.127.789.3,1.038a4.2,4.2,0,0,0,1.153,3.35c.14,1.244.866,1.851,2.416,1.853q13.773.013,27.545-.014a1.552,1.552,0,0,1-1.691.932c-2.015-.007-4.031.006-6.047-.006-.609,0-1.114.1-1.264.8h-1.795c-.191-.838-.843-.8-1.489-.8q-9.294.005-18.588,0c-1.918,0-2.281-.357-2.281-2.254q0-19.9-.008-39.8c0-.944.111-1.777,1.178-2.065.59-.159,1-.093.951.731-.07,1.081,0,2.17-.023,3.254A.942.942,0,0,0,1653.084-322.346Z" transform="translate(-1644.945 332.726)" fill="#f6cf02"/>
      <path id="Trazado_587738" data-name="Trazado 587738" d="M1813.333-265.792a8.976,8.976,0,0,0,.43-3.8q0-15.478,0-30.957c.75.017,1.518-.255,2.243.146l-.154.171.157.093c.015,1.64.043,3.279.044,4.919q.006,13.459,0,26.919C1816.05-266.008,1815.624-265.616,1813.333-265.792Z" transform="translate(-1773.783 311.521)" fill="#d0cacf"/>
      <path id="Trazado_587739" data-name="Trazado 587739" d="M1695.4-128.57q-13.772.011-27.545.015c-1.55,0-2.275-.609-2.416-1.853a4.569,4.569,0,0,0,2.686.673q12.933-.025,25.867-.007c.417,0,.833.04,1.249.062l.255.3A1,1,0,0,1,1695.4-128.57Z" transform="translate(-1656.975 177.081)" fill="#e7b800"/>
      <path id="Trazado_587740" data-name="Trazado 587740" d="M1670.507-113.462h1.8c.13.628.55.82,1.148.81,1.044-.018,2.091-.031,3.134.01.34.013.9-.265.99.205.073.385-.359.709-.809.809-.37-.3-.807-.164-1.212-.165q-13.558-.023-27.116-.028c-.043-.646-.961-.825-.832-1.562a4.492,4.492,0,0,0,2.672.737c6.254-.022,12.508-.014,18.762-.008C1669.69-112.652,1670.33-112.624,1670.507-113.462Z" transform="translate(-1642.88 163.697)" fill="#5fb4fa"/>
      <path id="Trazado_587741" data-name="Trazado 587741" d="M1789.381-338.429l6.284,6.262c-.427.262-.984.093-1.505.107-1.011.028-2.024.024-3.034,0-1.192-.026-1.725-.551-1.74-1.732C1789.366-335.322,1789.381-336.857,1789.381-338.429Z" transform="translate(-1754.862 341.377)" fill="#afa8b0"/>
      <path id="Trazado_587742" data-name="Trazado 587742" d="M1658.717-256.969c-.431-.248-.3-.672-.3-1.038q-.009-13.752,0-27.5c0-.32-.161-.728.31-.9.016,1.536.044,3.072.045,4.608q.007,11.791,0,23.582C1658.77-257.8,1658.735-257.386,1658.717-256.969Z" transform="translate(-1651.407 300.292)" fill="#fede02"/>
      <path id="Trazado_587743" data-name="Trazado 587743" d="M1641.256-105.67q13.558.011,27.116.028c.406,0,.842-.132,1.212.165a8.5,8.5,0,0,1-1.03.123q-14.614.01-29.228,0a7.9,7.9,0,0,1-.826-.085C1639.386-105.91,1640.345-105.506,1641.256-105.67Z" transform="translate(-1635.7 157.548)" fill="#8fd6fe"/>
      <path id="Trazado_587744" data-name="Trazado 587744" d="M1780.612-344.338l-.248-.251C1780.565-344.622,1780.644-344.535,1780.612-344.338Z" transform="translate(-1747.744 346.247)" fill="#fefefe"/>
      <path id="Trazado_587745" data-name="Trazado 587745" d="M1825.456-299.314l-.157-.093.154-.171Z" transform="translate(-1783.234 310.692)" fill="#ddd6dc"/>
      <path id="Trazado_587746" data-name="Trazado 587746" d="M1807.473-126.653l-.255-.3C1807.44-126.969,1807.485-126.835,1807.473-126.653Z" transform="translate(-1768.953 174.352)" fill="#f6cf02"/>
      <path id="Trazado_587747" data-name="Trazado 587747" d="M1704.589-214.169q-4.983,0-9.966,0c-.575,0-1.219.038-1.241-.755s.6-.8,1.193-.8q10.07,0,20.141,0c.59,0,1.213.008,1.187.805s-.671.751-1.244.75Q1709.624-214.172,1704.589-214.169Z" transform="translate(-1679.046 244.464)" fill="#010101"/>
      <path id="Trazado_587748" data-name="Trazado 587748" d="M1704.615-269.781h-9.537c-.245,0-.489,0-.733,0-.538-.013-1.007-.162-1.011-.8s.439-.81.993-.809c.768,0,1.537,0,2.305,0q8.855,0,17.711,0a4.629,4.629,0,0,1,.938.043.714.714,0,0,1,.605.746.706.706,0,0,1-.59.757,4.589,4.589,0,0,1-.935.062Q1709.487-269.778,1704.615-269.781Z" transform="translate(-1679.008 288.433)" fill="#111011"/>
      <path id="Trazado_587749" data-name="Trazado 587749" d="M1704.615-241.975q-4.93,0-9.859,0c-.581,0-1.32.127-1.342-.751s.69-.806,1.292-.806h19.928c.6,0,1.311-.063,1.287.809s-.763.747-1.343.748Q1709.6-241.969,1704.615-241.975Z" transform="translate(-1679.071 266.43)" fill="#010101"/>
    </g>
  </g>
</svg>
