<svg xmlns="http://www.w3.org/2000/svg" width="81.396" height="81.396" viewBox="0 0 81.396 81.396">
  <g id="Grupo_846497" data-name="Grupo 846497" transform="translate(-240 -1286.742)">
    <rect id="Rectángulo_38178" data-name="Rectángulo 38178" width="81.396" height="81.396" transform="translate(240 1286.742)" fill="none"/>
    <g id="Grupo_847398" data-name="Grupo 847398" transform="translate(-834.974 2627.431)">
      <path id="Trazado_587938" data-name="Trazado 587938" d="M1130.59-1315.052l.019,2.128-2.957,1.7-.277-.706c-.251-2-.25-1.992-2.177-1.536q-13.21,3.127-26.422,6.248c-1.438.34-1.6.613-1.261,2.07q2.5,10.569,5,21.137c1.128,4.8,2.224,9.613,3.335,14.42l-1.936.014c.073-.773-.232-1.036-1.043-1.018-2.553.056-5.11-.038-7.662.048-1.072.036-1.262-.316-1.257-1.309.043-7.5.023-15,.023-22.5,0-8.776.017-17.551-.022-26.327,0-1.023.19-1.282,1.3-1.408,3.039-.343,5.447.468,7.216,3.017a2.549,2.549,0,0,0,2.352,1.022c5.644-.044,11.288-.022,16.932-.022,2.266,0,4.532.028,6.8-.016.762-.014,1.178.134,1.047,1-.049.322.033.664-.016.986C1129.46-1315.285,1129.816-1314.978,1130.59-1315.052Z" transform="translate(-6 -5.664)" fill="#eaac48"/>
      <path id="Trazado_587939" data-name="Trazado 587939" d="M1144.738-1280.826l.277.705a22.575,22.575,0,0,0-4.21,4.667c-.057-.338-.278-.324-.533-.255-.845.23-1.692.456-2.538.684-.192-.708-.492-1.034-1.361-.819-4.835,1.2-9.684,2.335-14.538,3.45-1.078.247-1.3.836-1.06,1.8.549,2.239,1.119,4.473,1.595,6.728.244,1.156.87,1.344,1.883,1.1,4-.966,8-1.951,12.019-2.831.9-.2,1.028-.572.845-1.308.649-.033,1.252-.395,1.924-.271.127.77.2,1.552.389,2.308a14.76,14.76,0,0,0,9.022,10.525c.377.161,1.052.054.729.893a2.813,2.813,0,0,0,1.306,3.7.886.886,0,0,1,.433.908c-.017,2.466-.024,4.932-.035,7.4-.663-.139-1.262.207-1.9.252-.128-.959-.71-.85-1.424-.679-6.93,1.655-13.871,3.262-20.792,4.949-.906.221-1.1-.05-1.286-.824q-4.162-17.741-8.383-35.469c-.2-.846.013-1.12.819-1.307Q1131.334-1277.647,1144.738-1280.826Zm-17.8,34.7c.274-.071.472-.125.672-.173q9.607-2.269,19.217-4.525c.675-.157,1.014-.312.768-1.125-.2-.673-.3-1.1-1.193-.86-2.024.549-4.076.99-6.117,1.475q-6.663,1.582-13.325,3.166c-.368.088-.966.04-.7.689C1126.45-1247.02,1126.166-1246.256,1126.934-1246.128Zm15.495-9.756c-.242.046-.323.057-.4.076-5.357,1.261-10.71,2.538-16.073,3.769-.819.188-.645.63-.514,1.158s.123,1.036.974.816c2.465-.637,4.952-1.187,7.43-1.771q4.317-1.016,8.636-2.027c.511-.119.851-.292.574-.9C1142.863-1255.181,1143.1-1255.9,1142.429-1255.883Zm-15.268,12.309c.393.287-.249,1.482.926,1.211,5.369-1.238,10.728-2.522,16.094-3.773.456-.106.613-.276.531-.754-.156-.909-.375-1.61-1.546-1.062a6.753,6.753,0,0,1-1.316.317c-4.6,1.084-9.208,2.161-13.805,3.267C1127.686-1244.282,1127.039-1244.411,1127.161-1243.574Zm12.984-14.311c-.03-1.192-.357-1.445-1.535-1.171-.441.1-.885.195-1.325.3-4.045.959-8.085,1.942-12.14,2.86-.739.167-.868.5-.63,1.094.165.415-.036,1.146.909.916,4.719-1.151,9.448-2.256,14.175-3.376C1139.92-1257.341,1140.283-1257.374,1140.145-1257.886Zm-10.244-1.138c2.729-.655,5.375-1.248,7.995-1.945.778-.207.062-.827.083-1.248.015-.294-.023-.773-.639-.623q-3.831.938-7.676,1.816c-.6.138-.413.492-.306.833C1129.49-1259.77,1129.354-1259.191,1129.9-1259.024Zm-3.6.914c.33-.443,1.367.093,1.267-.846-.047-.441.221-1.432-.757-1.335-.48.048-1.411-.187-1.337.755C1125.511-1259.067,1125.373-1258.282,1126.3-1258.11Z" transform="translate(-23.363 -36.763)" fill="#c7d7df"/>
      <path id="Trazado_587940" data-name="Trazado 587940" d="M1124.59-1320.716c-.774.074-1.13-.233-1.005-1.045.049-.322-.033-.664.016-.986.132-.862-.285-1.01-1.047-1-2.265.044-4.532.016-6.8.016-5.644,0-11.289-.023-16.933.022a2.55,2.55,0,0,1-2.351-1.022c-1.769-2.549-4.177-3.361-7.216-3.017-1.113.126-1.308.386-1.3,1.408.039,8.776.022,17.551.022,26.327,0,7.5.02,15-.023,22.5-.006.992.184,1.345,1.256,1.309,2.551-.087,5.108.007,7.662-.048.811-.018,1.117.245,1.043,1.018.076.77-.226,1.02-1.035,1.006q-4.633-.08-9.268-.006c-1.143.017-1.634-.357-1.632-1.563q.034-26.14,0-52.279c0-1.168.409-1.606,1.589-1.6q18.229.038,36.458,0c1.2,0,1.593.486,1.564,1.631-.053,2.1-.057,4.2.007,6.3C1125.622-1320.939,1125.36-1320.639,1124.59-1320.716Zm-13.287-6.972c1.422,1.791,1.632,1.973,2.508,1.975,2.966.01,5.933-.032,8.9.026.851.017.9-.338.905-1.013s-.058-1.023-.906-1.011C1118.962-1327.659,1115.213-1327.688,1111.3-1327.688Zm-14.787,0c1.65,3.05,4.324,1.675,6.707,1.994a3.623,3.623,0,0,0-3.882-2.017A20.584,20.584,0,0,1,1096.517-1327.689Zm7.872.079c1.869,2.159,2.279,2.282,5.653,1.777C1108.542-1327.824,1108.262-1327.915,1104.389-1327.61Z" fill="#030302"/>
      <path id="Trazado_587941" data-name="Trazado 587941" d="M1207.627-1282.153a22.566,22.566,0,0,1,4.21-4.667l2.957-1.7c5.573-2.1,10.8-1.531,15.43,2.307a14.8,14.8,0,0,1-3.908,25.068c-.816.335-1.092.56-.767,1.51a2.438,2.438,0,0,1-1.076,2.92,1.682,1.682,0,0,0-.808,1.708c.025,3.75.015,7.5.01,11.25,0,2.165-1.127,3.508-2.935,3.528-1.848.021-2.993-1.348-3-3.584-.007-1.442-.02-2.883-.031-4.325.01-2.466.017-4.933.035-7.4a.886.886,0,0,0-.433-.908,2.813,2.813,0,0,1-1.306-3.7c.323-.839-.352-.732-.729-.893a14.76,14.76,0,0,1-9.022-10.525c-.186-.756-.262-1.538-.389-2.308A17.745,17.745,0,0,1,1207.627-1282.153Zm.224,7.277a12.857,12.857,0,0,0,12.906,12.869,12.873,12.873,0,0,0,12.806-12.848,12.852,12.852,0,0,0-12.907-12.867A12.86,12.86,0,0,0,1207.851-1274.877Zm13.843,23.757h-.01c0-1.354-.055-2.712.02-4.062.048-.878-.4-.875-1.043-.885s-.958.094-.948.854c.039,2.75.04,5.5-.011,8.25-.016.828.414.814.99.8.54-.014,1.057.1,1.018-.769C1221.649-1248.326,1221.694-1249.724,1221.694-1251.12Zm-.982-6.934c.656,0,1.312.023,1.966-.007a.917.917,0,0,0,.964-.918.914.914,0,0,0-.976-1.026c-1.31-.03-2.622-.025-3.932,0a.9.9,0,0,0-.963.916.923.923,0,0,0,.975,1.028C1219.4-1258.024,1220.057-1258.052,1220.713-1258.053Zm.983,14.5c.107-.87-.593-.588-1.071-.63-.536-.047-.978-.02-.917.741.052.654.247,1.177.957,1.2C1221.455-1242.224,1221.7-1242.78,1221.7-1243.557Z" transform="translate(-90.185 -30.063)" fill="#040505"/>
      <path id="Trazado_587942" data-name="Trazado 587942" d="M1137.743-1286.252q-13.409,3.159-26.821,6.3c-.806.188-1.021.461-.819,1.307q4.23,17.726,8.384,35.469c.181.774.379,1.045,1.285.824,6.922-1.687,13.863-3.295,20.792-4.949.714-.171,1.3-.28,1.424.679.465,1.1-.408,1.139-1.07,1.344a56.708,56.708,0,0,0-5.6,1.342l-14.5,3.352c-.52.12-1.036.252-1.556.372-1.93.446-2,.4-2.48-1.577-.174-.713-.378-1.42-.569-2.129-1.111-4.807-2.207-9.617-3.335-14.42q-2.483-10.573-5-21.137c-.344-1.457-.177-1.73,1.261-2.07q13.21-3.127,26.422-6.248C1137.493-1288.244,1137.492-1288.251,1137.743-1286.252Z" transform="translate(-16.368 -31.337)" fill="#080806"/>
      <path id="Trazado_587943" data-name="Trazado 587943" d="M1219.193-1113.938a56.708,56.708,0,0,1,5.6-1.342c.2,1-.057,1.484-1.227,1.392C1222.114-1114,1220.651-1113.93,1219.193-1113.938Z" transform="translate(-100.239 -161.331)" fill="#e8ab48"/>
      <path id="Trazado_587944" data-name="Trazado 587944" d="M1158.96-1260.017a17.743,17.743,0,0,0-1.765,8.278c-.672-.124-1.275.238-1.924.271-.149-.868-.682-.822-1.371-.654-3.437.836-6.9,1.589-10.318,2.476-1.047.271-1.385.011-1.534-.993a17.762,17.762,0,0,0-.738-3.118c-.362-1.06-.116-1.472,1.012-1.719,4.218-.924,8.41-1.967,12.618-2.94.67-.155,1.209-.312.949-1.173.846-.228,1.693-.453,2.538-.684C1158.682-1260.341,1158.9-1260.355,1158.96-1260.017Z" transform="translate(-41.518 -52.199)" fill="#788898"/>
      <path id="Trazado_587945" data-name="Trazado 587945" d="M1148.862-1260.076c.26.86-.278,1.018-.949,1.173-4.208.973-8.4,2.016-12.618,2.94-1.128.247-1.373.659-1.012,1.719a17.778,17.778,0,0,1,.738,3.118c.149,1,.487,1.264,1.534.993,3.423-.887,6.881-1.64,10.318-2.476.689-.168,1.222-.214,1.371.654.182.737.054,1.112-.845,1.308-4.02.88-8.018,1.865-12.019,2.831-1.012.244-1.638.057-1.883-1.1-.476-2.254-1.046-4.489-1.595-6.728-.237-.965-.018-1.554,1.06-1.8,4.854-1.115,9.7-2.255,14.538-3.45C1148.37-1261.11,1148.67-1260.784,1148.862-1260.076Z" transform="translate(-34.492 -51.711)" fill="#060707"/>
      <path id="Trazado_587946" data-name="Trazado 587946" d="M1154.791-1161.168c-.768-.128-.484-.892-.675-1.352-.269-.649.328-.6.7-.689q6.662-1.586,13.325-3.165c2.041-.485,4.093-.926,6.117-1.475.889-.241.989.187,1.193.86.246.812-.094.967-.768,1.125q-9.614,2.238-19.217,4.525C1155.263-1161.294,1155.064-1161.239,1154.791-1161.168Z" transform="translate(-51.22 -121.722)" fill="#080909"/>
      <path id="Trazado_587947" data-name="Trazado 587947" d="M1167.655-1180.062c.67-.014.434.7.624,1.121.277.61-.063.783-.574.9q-4.321,1-8.636,2.027c-2.479.583-4.965,1.134-7.43,1.771-.851.22-.846-.3-.974-.816s-.3-.97.514-1.158c5.364-1.231,10.717-2.508,16.074-3.769C1167.332-1180,1167.413-1180.016,1167.655-1180.062Z" transform="translate(-48.59 -112.585)" fill="#080909"/>
      <path id="Trazado_587948" data-name="Trazado 587948" d="M1157.918-1144.229c-.122-.836.526-.707.884-.793,4.6-1.106,9.2-2.183,13.805-3.267a6.751,6.751,0,0,0,1.316-.317c1.171-.549,1.39.152,1.546,1.062.082.478-.075.648-.531.754-5.366,1.25-10.725,2.535-16.094,3.772C1157.669-1142.748,1158.311-1143.942,1157.918-1144.229Z" transform="translate(-54.12 -136.108)" fill="#080909"/>
      <path id="Trazado_587949" data-name="Trazado 587949" d="M1162.576-1192.017c.138.512-.225.545-.547.622-4.726,1.12-9.456,2.225-14.175,3.376-.944.23-.743-.5-.909-.916-.238-.6-.109-.927.63-1.094,4.054-.918,8.094-1.9,12.14-2.859.441-.1.884-.2,1.325-.3C1162.219-1193.461,1162.546-1193.209,1162.576-1192.017Z" transform="translate(-45.794 -102.633)" fill="#080909"/>
      <path id="Trazado_587950" data-name="Trazado 587950" d="M1167.033-1204.438c-.547-.167-.41-.746-.543-1.167-.107-.341-.3-.7.306-.833q3.844-.879,7.675-1.816c.616-.151.654.329.639.623-.021.421.7,1.041-.083,1.248C1172.409-1205.686,1169.762-1205.093,1167.033-1204.438Z" transform="translate(-60.496 -91.349)" fill="#080909"/>
      <path id="Trazado_587951" data-name="Trazado 587951" d="M1151.964-1195.707c-.928-.172-.79-.957-.826-1.427-.074-.941.857-.707,1.337-.755.978-.1.71.894.757,1.335C1153.331-1195.614,1152.294-1196.15,1151.964-1195.707Z" transform="translate(-49.027 -99.166)" fill="#080909"/>
      <path id="Trazado_587952" data-name="Trazado 587952" d="M1188.288-1321.692c3.91,0,7.658.029,11.406-.022.848-.011.907.335.906,1.011s-.055,1.03-.905,1.013c-2.965-.058-5.932-.017-8.9-.026C1189.92-1319.719,1189.71-1319.9,1188.288-1321.692Z" transform="translate(-76.984 -5.996)" fill="#d2e1e6"/>
      <path id="Trazado_587953" data-name="Trazado 587953" d="M1128.551-1321.848a20.565,20.565,0,0,0,2.825-.022,3.624,3.624,0,0,1,3.882,2.016C1132.875-1320.173,1130.2-1318.8,1128.551-1321.848Z" transform="translate(-32.034 -5.841)" fill="#aebbc2"/>
      <path id="Trazado_587954" data-name="Trazado 587954" d="M1160.351-1321.707c3.873-.3,4.153-.214,5.653,1.777C1162.63-1319.425,1162.22-1319.549,1160.351-1321.707Z" transform="translate(-55.962 -5.903)" fill="#c7d7df"/>
      <path id="Trazado_587955" data-name="Trazado 587955" d="M1213.992-1268.773a12.86,12.86,0,0,1,12.805-12.846,12.852,12.852,0,0,1,12.907,12.867A12.873,12.873,0,0,1,1226.9-1255.9,12.857,12.857,0,0,1,1213.992-1268.773Zm1.974.017a10.89,10.89,0,0,0,10.827,10.875,10.887,10.887,0,0,0,10.937-10.888,10.9,10.9,0,0,0-10.827-10.875A10.885,10.885,0,0,0,1215.966-1268.756Z" transform="translate(-96.326 -36.166)" fill="#008eb4"/>
      <path id="Trazado_587956" data-name="Trazado 587956" d="M1263.858-1148.789c0,1.4-.045,2.793.017,4.186.039.866-.479.755-1.018.769-.577.015-1.006.029-.99-.8.051-2.749.05-5.5.011-8.25-.011-.76.307-.863.948-.854s1.092.007,1.043.885c-.074,1.351-.02,2.708-.02,4.063Z" transform="translate(-132.349 -132.393)" fill="#e8ab48"/>
      <path id="Trazado_587957" data-name="Trazado 587957" d="M1257-1167.755c-.655,0-1.312.029-1.966-.007a.923.923,0,0,1-.975-1.028.9.9,0,0,1,.963-.916c1.31-.025,2.622-.031,3.933,0a.914.914,0,0,1,.976,1.026.917.917,0,0,1-.964.918C1258.316-1167.732,1257.66-1167.755,1257-1167.755Z" transform="translate(-126.476 -120.361)" fill="#c98627"/>
      <path id="Trazado_587958" data-name="Trazado 587958" d="M1263.862-1105.157c0,.777-.241,1.333-1.031,1.31-.71-.021-.9-.545-.957-1.2-.06-.762.381-.789.917-.741C1263.268-1105.745,1263.968-1106.026,1263.862-1105.157Z" transform="translate(-132.35 -168.464)" fill="#c98627"/>
      <path id="Trazado_587959" data-name="Trazado 587959" d="M1221.966-1262.755a10.885,10.885,0,0,1,10.937-10.888,10.9,10.9,0,0,1,10.827,10.875,10.887,10.887,0,0,1-10.937,10.888A10.89,10.89,0,0,1,1221.966-1262.755Zm10.9-8.9a8.9,8.9,0,0,0-8.913,8.847,8.9,8.9,0,0,0,8.94,8.947,8.91,8.91,0,0,0,8.853-8.911A8.9,8.9,0,0,0,1232.865-1271.657Z" transform="translate(-102.326 -42.168)" fill="#020607"/>
      <path id="Trazado_587960" data-name="Trazado 587960" d="M1238.9-1265.621a8.9,8.9,0,0,1,8.879,8.884,8.91,8.91,0,0,1-8.853,8.911,8.9,8.9,0,0,1-8.94-8.948A8.9,8.9,0,0,1,1238.9-1265.621Z" transform="translate(-108.362 -48.204)" fill="#7ec9e3"/>
    </g>
  </g>
</svg>
