<svg xmlns="http://www.w3.org/2000/svg" width="81.396" height="81.396" viewBox="0 0 81.396 81.396">
  <g id="Grupo_847296" data-name="Grupo 847296" transform="translate(-240 -1286.742)">
    <rect id="Rectángulo_38178" data-name="Rectángulo 38178" width="81.396" height="81.396" transform="translate(240 1286.742)" fill="none"/>
    <g id="Grupo_847402" data-name="Grupo 847402" transform="translate(-550.882 3079.907)">
      <path id="Trazado_588064" data-name="Trazado 588064" d="M853.388-1746.582c.931,0,1.727,0,2.523,0a1.051,1.051,0,0,1,1.2,1.193c0,1.061-.039,2.123.011,3.181.053,1.112-.428,1.647-1.52,1.489-1.163-.168-1.537.207-1.46,1.417.12,1.869.059,3.752.016,5.628-.015.65.182.809.82.818,2.132.031,2.132.061,2.133,2.207,0,.775-.019,1.551,0,2.326.027.925-.393,1.344-1.323,1.332-1.55-.022-3.1.025-4.65-.019-.664-.019-.967.132-.9.86a12.056,12.056,0,0,1,0,1.957c-.069,1-.713,1.374-1.593.885q-1.814-1.01-3.559-2.142a1.14,1.14,0,0,0-1.426.007c-1.128.731-2.282,1.423-3.451,2.086-1.005.57-1.64.193-1.71-.962,0-.041,0-.082,0-.122-.091-2.554-.091-2.554-2.6-2.554q-14.626,0-29.252,0a9.811,9.811,0,0,1-9.631-6.378,9.746,9.746,0,0,1,3.035-11.027.91.91,0,0,0,.341-.979,33.583,33.583,0,0,1-.072-4.031c.01-.937.654-1.194,1.422-1.07,1.338.214,1.607-.37,1.533-1.588-.106-1.748-.065-3.508-.009-5.261.025-.777-.164-1.041-.991-1.023-1.935.042-2-.035-1.951-2a11.8,11.8,0,0,1,.153-3.389c.171-.546-.416-.629-.683-.876a9.508,9.508,0,0,1-3.123-9.618,9.435,9.435,0,0,1,6.79-7.194,9.892,9.892,0,0,1,3.018-.4q22.521.007,45.041,0c1.506,0,1.664.169,1.671,1.705,0,.857-.042,1.716.011,2.57.071,1.135-.361,1.767-1.543,1.587-1.209-.184-1.5.276-1.434,1.442.109,1.829.053,3.67.016,5.506-.013.643.1.917.842.92,2.107.008,2.137.049,2.1,2.1a10.444,10.444,0,0,1-.156,3.267c-.135.4.2.482.39.659,4.869,4.455,4.977,10.52.27,15.092A4.6,4.6,0,0,0,853.388-1746.582Zm-26.674-21.545c6.73,0,13.46-.02,20.189.021,1.029.006,1.553-.13,1.429-1.342-.1-.942.162-1.675-1.375-1.663-10.971.09-21.943.048-32.914.047a7.292,7.292,0,0,1-1.1-.026.913.913,0,0,1-.854-1.009.9.9,0,0,1,.844-.9,8.02,8.02,0,0,1,1.1-.026H846.58c1.726,0,1.649,0,1.749-1.728.063-1.079-.326-1.234-1.294-1.23-9.992.036-19.985.022-29.978.022-3.548,0-7.1-.009-10.645,0a3.942,3.942,0,0,0-3.861,2.471,3.912,3.912,0,0,0,3.851,5.348C813.172-1768.112,819.943-1768.127,826.713-1768.126Zm.086,9.795q-10.217,0-20.434.007c-.352,0-.908-.192-1.025.132a4.927,4.927,0,0,0-.065,2.521c.1.541.766.262,1.166.263q16.518.024,33.037.014a8.324,8.324,0,0,1,1.1.026.906.906,0,0,1,.85.892.913.913,0,0,1-.848,1.014,7.086,7.086,0,0,1-1.1.027H806.932c-1.722,0-1.644,0-1.746,1.732-.064,1.087.339,1.229,1.3,1.225,10.564-.035,21.127-.021,31.69-.022,3.018,0,6.036.015,9.055-.008a3.9,3.9,0,0,0,3.736-2.473,3.914,3.914,0,0,0-3.856-5.343C840.34-1758.346,833.569-1758.331,826.8-1758.332Zm-4.987,25.458c5.179,0,10.359-.03,15.537.026.992.011,1.229-.285,1.18-1.217-.076-1.464-.01-2.935-.024-4.4-.008-.869.4-1.266,1.264-1.263q4.588.013,9.175,0c.929,0,1.336.409,1.323,1.334-.022,1.549.048,3.1-.027,4.648-.041.843.334.9,1,.9s1.029-.069,1-.9c-.07-1.832-.1-3.673.006-5.5.063-1.14-.2-1.484-1.422-1.479-12.4.054-24.794.033-37.191.033-2.447,0-4.894-.015-7.34.007a3.916,3.916,0,0,0-3.74,2.466,3.9,3.9,0,0,0,3.723,5.347C811.453-1732.848,816.633-1732.875,821.812-1732.873Zm6.22-31.335c7.384,0,14.767-.015,22.15.02.862,0,1.061-.236,1.094-1.082.044-1.123-.648-.894-1.262-.894q-20.376,0-40.752,0c-1.142,0-2.287.042-3.426-.022a5.872,5.872,0,0,1-5.171-7.835,5.916,5.916,0,0,1,5.911-3.891q21.783-.008,43.567.013c.8,0,1.132-.128,1.134-1.04s-.4-.945-1.1-.944q-21.967.021-43.934.01a7.779,7.779,0,0,0-4.073,1.123,7.83,7.83,0,0,0-3.537,8.768,7.813,7.813,0,0,0,7.494,5.766C813.427-1764.188,820.729-1764.211,828.031-1764.208Zm-2.746,3.917c7.3,0,14.6-.017,21.907.007a5.87,5.87,0,0,1,6,6.18,5.907,5.907,0,0,1-6.131,5.559q-21.54.017-43.08.006c-.326,0-.654.02-.979,0-.51-.037-.684.156-.74.688-.106,1.009.228,1.3,1.262,1.294,7.547-.045,15.094-.024,22.641-.024,7.057,0,14.115.025,21.173-.012a7.793,7.793,0,0,0,7.813-8.134,7.815,7.815,0,0,0-8.07-7.513q-21.784-.019-43.569-.006c-.2,0-.408.008-.612,0-.381-.014-.594.1-.622.544-.058.9-.037,1.459,1.228,1.446C810.762-1760.332,818.025-1760.293,825.286-1760.292ZM830-1744.617c-8,0-15.992-.028-23.987.012a7.858,7.858,0,0,0-7.644,7.7,7.78,7.78,0,0,0,7.408,7.916c10.606.081,21.214.023,31.82.048.812,0,.929-.349.927-1.03,0-.651-.15-.973-.885-.948-1.345.046-2.692.012-4.038.012q-13.646,0-27.292-.008a5.843,5.843,0,0,1-5.986-6.062,5.887,5.887,0,0,1,6.122-5.683q23.5-.014,47-.005c.326,0,.654-.017.979,0,.508.028.706-.175.747-.7.07-.9-.145-1.281-1.18-1.275C845.991-1744.6,837.995-1744.62,830-1744.617Zm18.3,18.794c0-3.927-.011-7.621.009-11.315,0-.724-.455-.628-.9-.628-2,0-4,.033-6-.018-.755-.019-.972.2-.961.959.042,2.978.017,5.957.017,8.935v2.09a19.575,19.575,0,0,0,2.094-1.269,2.527,2.527,0,0,1,3.6-.032A17.012,17.012,0,0,0,848.3-1725.823Zm4.413-3.136c.448,0,.9-.025,1.344.006.7.047,1.139-.05,1.127-.954-.011-.824-.293-1.064-1.071-1.016a24.414,24.414,0,0,1-2.687,0c-.756-.036-1.2.063-1.191,1.019.009.908.442.992,1.135.948C851.814-1728.982,852.263-1728.959,852.711-1728.959Z" fill="#030302"/>
      <path id="Trazado_588065" data-name="Trazado 588065" d="M844.827-1750.074c-6.771,0-13.541.015-20.312-.008a3.912,3.912,0,0,1-3.851-5.348,3.942,3.942,0,0,1,3.861-2.471c3.548-.014,7.1,0,10.645,0,9.993,0,19.985.014,29.978-.022.968,0,1.357.151,1.294,1.23-.1,1.723-.023,1.728-1.75,1.728H832.146a8.019,8.019,0,0,0-1.1.026.9.9,0,0,0-.844.9.913.913,0,0,0,.854,1.009,7.292,7.292,0,0,0,1.1.026c10.972,0,21.943.043,32.914-.047,1.536-.013,1.278.721,1.375,1.663.124,1.212-.4,1.349-1.429,1.342C858.287-1750.093,851.557-1750.073,844.827-1750.074Zm-17.074-4.9c-.757-.037-1.485.079-1.459,1.026.024.858.713.95,1.423.95.755,0,1.484-.091,1.458-1.036C829.152-1754.888,828.464-1755.014,827.753-1754.972Z" transform="translate(-18.114 -18.053)" fill="#fbe897"/>
      <path id="Trazado_588066" data-name="Trazado 588066" d="M853.789-1686.035c6.77,0,13.541-.014,20.311.007a3.914,3.914,0,0,1,3.856,5.343,3.9,3.9,0,0,1-3.736,2.473c-3.018.023-6.036.008-9.054.008-10.563,0-21.127-.013-31.69.022-.96,0-1.363-.138-1.3-1.225.1-1.727.023-1.732,1.746-1.732h32.547a7.072,7.072,0,0,0,1.1-.027.912.912,0,0,0,.848-1.014.906.906,0,0,0-.85-.892,8.346,8.346,0,0,0-1.1-.025q-16.518,0-33.037-.014c-.4,0-1.069.278-1.166-.263a4.928,4.928,0,0,1,.065-2.521c.117-.324.673-.131,1.025-.132Q843.572-1686.042,853.789-1686.035Zm17.076,2.933c-.715-.042-1.4.086-1.42.943-.022.946.709,1.03,1.462,1.031.712,0,1.4-.1,1.419-.954C872.348-1683.027,871.617-1683.139,870.864-1683.1Z" transform="translate(-26.99 -72.297)" fill="#fbe897"/>
      <path id="Trazado_588067" data-name="Trazado 588067" d="M839.937-1606.2c-5.179,0-10.358.027-15.537-.011a3.9,3.9,0,0,1-3.723-5.347,3.916,3.916,0,0,1,3.74-2.466c2.447-.022,4.894-.007,7.34-.007,12.4,0,24.794.021,37.191-.033,1.225-.005,1.485.339,1.422,1.479-.1,1.829-.075,3.671-.006,5.5.032.835-.321.906-1,.9s-1.043-.055-1-.9c.075-1.546,0-3.1.027-4.648.013-.924-.394-1.339-1.323-1.334q-4.588.024-9.175,0c-.865,0-1.272.395-1.264,1.263.013,1.468-.053,2.939.023,4.4.049.932-.188,1.228-1.18,1.217C850.3-1606.228,845.116-1606.2,839.937-1606.2Zm2.624-4.9q-5.381,0-10.763,0c-.771,0-1.606,0-1.567,1.039.036.943.837.928,1.559.928q10.641-.008,21.282,0c.772,0,1.606,0,1.567-1.04-.035-.943-.837-.928-1.559-.927Q847.821-1611.087,842.561-1611.095Zm-14.758,1.964c.725.039,1.391-.126,1.383-.981-.008-.948-.759-.992-1.5-.994-.722,0-1.391.13-1.382.989C826.315-1609.171,827.061-1609.1,827.8-1609.131Z" transform="translate(-18.125 -126.675)" fill="#fbe897"/>
      <path id="Trazado_588068" data-name="Trazado 588068" d="M834.112-1758.194c-7.3,0-14.6.022-21.906-.011a7.813,7.813,0,0,1-7.494-5.766,7.83,7.83,0,0,1,3.537-8.768,7.779,7.779,0,0,1,4.073-1.123q21.967,0,43.934-.01c.7,0,1.1.034,1.1.944s-.33,1.042-1.134,1.04q-21.784-.034-43.567-.013a5.915,5.915,0,0,0-5.911,3.891,5.872,5.872,0,0,0,5.171,7.834c1.139.064,2.284.022,3.426.022q20.376,0,40.752,0c.614,0,1.306-.229,1.262.895-.033.846-.232,1.086-1.094,1.082C848.879-1758.208,841.5-1758.193,834.112-1758.194Z" transform="translate(-6.08 -6.015)" fill="#f99510"/>
      <path id="Trazado_588069" data-name="Trazado 588069" d="M843.328-1699.918c-7.261,0-14.523-.039-21.784.036-1.265.013-1.286-.544-1.228-1.446.028-.441.241-.557.622-.544.2.007.408,0,.612,0q21.784,0,43.569.006a7.815,7.815,0,0,1,8.07,7.513,7.793,7.793,0,0,1-7.812,8.134c-7.057.037-14.115.012-21.173.012-7.547,0-15.094-.021-22.641.025-1.034.006-1.367-.285-1.262-1.294.056-.533.23-.725.74-.689.325.023.652,0,.979,0q21.54,0,43.079-.006a5.907,5.907,0,0,0,6.131-5.56,5.87,5.87,0,0,0-6-6.18C857.933-1699.934,850.63-1699.917,843.328-1699.918Z" transform="translate(-18.042 -60.374)" fill="#9d7e5a"/>
      <path id="Trazado_588070" data-name="Trazado 588070" d="M836.1-1629.983c8,0,15.992.019,23.987-.026,1.036-.006,1.25.374,1.18,1.275-.041.528-.239.732-.747.7-.325-.018-.653,0-.979,0q-23.5,0-47,.005a5.887,5.887,0,0,0-6.123,5.683,5.843,5.843,0,0,0,5.986,6.062q13.646.026,27.292.008c1.346,0,2.694.034,4.038-.012.734-.025.883.3.885.948,0,.681-.115,1.032-.927,1.03-10.607-.025-21.214.034-31.82-.047a7.78,7.78,0,0,1-7.408-7.916,7.859,7.859,0,0,1,7.644-7.7C820.109-1630.01,828.1-1629.982,836.1-1629.983Z" transform="translate(-6.102 -114.635)" fill="#5d4b35"/>
      <path id="Trazado_588071" data-name="Trazado 588071" d="M984.116-1590.044a17.013,17.013,0,0,1-2.138-1.278,2.527,2.527,0,0,0-3.6.032,19.591,19.591,0,0,1-2.094,1.269v-2.09c0-2.978.025-5.957-.017-8.934-.011-.756.206-.978.961-.959,2,.051,4,.017,6,.018.442,0,.9-.1.9.628C984.1-1597.666,984.116-1593.971,984.116-1590.044Z" transform="translate(-135.817 -135.779)" fill="#fc4f22"/>
      <path id="Trazado_588072" data-name="Trazado 588072" d="M1018.673-1572.049c-.448,0-.9-.023-1.344.005-.693.044-1.126-.039-1.135-.948-.009-.957.435-1.056,1.191-1.019a24.354,24.354,0,0,0,2.687,0c.779-.048,1.06.192,1.071,1.016.013.9-.427,1-1.127.954C1019.571-1572.074,1019.121-1572.049,1018.673-1572.049Z" transform="translate(-165.962 -156.91)" fill="#5d4b35"/>
      <path id="Trazado_588073" data-name="Trazado 588073" d="M845.984-1745.884c.713-.043,1.4.084,1.424.939.026.945-.7,1.036-1.458,1.036-.71,0-1.4-.092-1.423-.95C844.5-1745.805,845.229-1745.922,845.984-1745.884Z" transform="translate(-36.347 -27.141)" fill="#0d0c07"/>
      <path id="Trazado_588074" data-name="Trazado 588074" d="M985.86-1673.929c.755-.038,1.485.075,1.463,1.021-.02.856-.707.956-1.419.954-.753,0-1.485-.085-1.462-1.031C984.461-1673.842,985.147-1673.971,985.86-1673.929Z" transform="translate(-141.987 -81.47)" fill="#0d0c07"/>
      <path id="Trazado_588075" data-name="Trazado 588075" d="M872.881-1601.955q5.259,0,10.519,0c.722,0,1.524-.016,1.559.927.039,1.037-.8,1.041-1.567,1.04q-10.641-.008-21.282,0c-.722,0-1.523.015-1.559-.928-.04-1.04.8-1.041,1.567-1.039Q867.5-1601.948,872.881-1601.955Z" transform="translate(-48.445 -135.815)" fill="#040403"/>
      <path id="Trazado_588076" data-name="Trazado 588076" d="M846.028-1600.017c-.744.036-1.49-.039-1.5-.986-.009-.859.66-.99,1.382-.989.741,0,1.491.046,1.5.994C847.418-1600.143,846.752-1599.978,846.028-1600.017Z" transform="translate(-36.349 -135.79)" fill="#0d0c07"/>
    </g>
  </g>
</svg>
