<svg xmlns="http://www.w3.org/2000/svg" width="81.396" height="81.396" viewBox="0 0 81.396 81.396">
  <g id="Grupo_846495" data-name="Grupo 846495" transform="translate(-240 -1286.742)">
    <rect id="Rectángulo_38178" data-name="Rectángulo 38178" width="81.396" height="81.396" transform="translate(240 1286.742)" fill="none"/>
    <g id="Grupo_847397" data-name="Grupo 847397" transform="translate(-508.37 2635.741)">
      <path id="Trazado_587904" data-name="Trazado 587904" d="M842.461-1224.546q0,1.171,0,2.342c-.886.188-.942.844-.94,1.582q.017,7.462,0,14.925c0,.431.137.892-.16,1.291-.445-.011-.889-.031-1.334-.031q-21.117,0-42.233,0,0-17.964,0-35.929h43.68c.019.441.053.882.054,1.323q.006,6.461,0,12.922C841.517-1225.382,841.59-1224.739,842.461-1224.546Zm-14.374-1.008h-2.335c-.168-.805-.74-.95-1.456-.944-2.223.017-4.446-.008-6.669.011a2.036,2.036,0,0,0-2.324,2.3q-.023,7.276,0,14.552a1.987,1.987,0,0,0,2.225,2.267q9.4.022,18.8,0a1.952,1.952,0,0,0,2.215-2.149q.032-7.4,0-14.795a1.977,1.977,0,0,0-2.2-2.176c-2.3-.028-4.608,0-6.912-.013A1.169,1.169,0,0,0,828.087-1225.553Z" transform="translate(-27.167 -74.968)" fill="#fecf85"/>
      <path id="Trazado_587905" data-name="Trazado 587905" d="M815.294-1299.514c-.871-.193-.944-.836-.942-1.575q.02-6.461,0-12.922c0-.441-.035-.882-.054-1.323-.3-.609-.852-.293-1.266-.294q-20.606-.031-41.212-.015c-.4,0-.8.037-1.206.057-1.9-.021-3.8.016-5.686-.087-1-.054-1.177.3-1.174,1.216.031,9.572.019,19.143.019,28.715,0,1.858.02,3.716-.008,5.573-.011.755.25,1.129,1.044,1.113,1.935-.04,3.871-.053,5.807-.077a5.367,5.367,0,0,0,.6.065q20.931.005,41.862,0c.392,0,.824.093,1.111-.307s.159-.861.16-1.291q.016-7.462,0-14.925c0-.737.055-1.394.94-1.582.721.159.937.639.935,1.336-.013,5.3.007,10.6-.015,15.892a2.54,2.54,0,0,1-2.852,2.723q-24.262.008-48.524,0c-1.981,0-2.922-.974-2.923-3.021q-.008-15.225,0-30.45c0-2.184-.013-4.368,0-6.551a6.146,6.146,0,0,1,4.61-6.22c.719-.211.834-.528.822-1.171-.034-1.981-.027-3.963-.007-5.944.023-2.2,1.1-3.281,3.273-3.32s2.161-.039,2.187-2.2a2.963,2.963,0,0,1,3.317-3.269c8.492-.005,16.983.007,25.475-.018a2.3,2.3,0,0,1,1.806.756q3.268,3.336,6.6,6.605a2.4,2.4,0,0,1,.808,1.915c-.046,1.859.013,3.721-.029,5.58a.92.92,0,0,0,.793,1.08,6.252,6.252,0,0,1,4.641,6.341c.016,5.338,0,10.676.011,16.014C816.23-1300.357,816.176-1299.7,815.294-1299.514Zm-15.3-28.905a13.486,13.486,0,0,0-2.266-2.2c0,1.154-.012,2.151,0,3.147a1.09,1.09,0,0,0,1.2,1.189c.438.008.877-.023,1.315-.037h1.968Zm-20.11-5.553c.442.027.883.078,1.325.078,4.935.006,9.871.02,14.805-.012a2.571,2.571,0,0,1,2.022.845q3.262,3.345,6.6,6.611a2.154,2.154,0,0,1,.705,1.708c-.038,2.144-.021,4.288-.005,6.432,0,.281-.185.751.312.774,1.008.047,2.022.042,3.03-.006.4-.019.277-.431.277-.685.008-3.641-.012-7.282.021-10.922.006-.7-.286-.787-.863-.772-1.253.031-2.509.037-3.762,0a2.876,2.876,0,0,1-2.989-2.985,34.533,34.533,0,0,1,.011-3.518c.066-.924-.24-1.15-1.144-1.143-5.3.043-10.6.016-15.9.025-1.412,0-2.825.049-4.238.075-1.413-.019-2.827-.046-4.24-.054-.577,0-1.1.213-1.157.837a5.217,5.217,0,0,0,.121,2.717c.035.077.3.071.458.069C776.816-1333.918,778.35-1333.946,779.885-1333.971Zm15.947,2.127c.033-.174-.042-.229-.206-.19l-20.877,0-4.242-.044a1.172,1.172,0,0,0-1.341,1.333c0,4.165.01,8.33-.012,12.494,0,.577.164.774.75.756,1.534-.048,3.07-.042,4.6-.058,1.374.014,2.748.04,4.122.04,7.887,0,15.774-.021,23.66.03,1.044.006,1.283-.287,1.229-1.271-.086-1.573-.068-3.156-.005-4.73.033-.82-.256-1.036-1.03-1-1.17.058-2.345.034-3.518.009a2.909,2.909,0,0,1-3.091-3.132C795.851-1329.015,795.846-1330.43,795.832-1331.844ZM767.358-1319.8c-.184-.511.39-1.613-.27-1.814-.815-.249-1.618.539-2.21,1.216a4.873,4.873,0,0,0-.776,1.208c-.642,1.444-.468,1.688,1.108,1.69C767.358-1317.5,767.358-1317.5,767.358-1319.8Zm43.418.141c0,2.16,0,2.16,2.137,2.158a4.356,4.356,0,0,1,.6,0c.9.127.9-.38.725-1.011a4.454,4.454,0,0,0-1.853-2.6c-.427-.282-.935-.74-1.409-.5s-.133.884-.2,1.345A4.208,4.208,0,0,0,810.776-1319.657Zm-7.6-16.353c0,1.066-.013,2.061,0,3.056a1.056,1.056,0,0,0,1.109,1.169c1.035.027,2.071.007,3.07.007Z" transform="translate(0 0)" fill="#0b0b09"/>
      <path id="Trazado_587906" data-name="Trazado 587906" d="M776.385-1205.235c-1.936.024-3.872.036-5.807.077-.794.017-1.056-.357-1.044-1.113.028-1.857.008-3.715.008-5.573,0-9.572.012-19.143-.019-28.715,0-.914.179-1.27,1.174-1.216,1.891.1,3.791.066,5.686.087l0,.251q0,17.964,0,35.929Q776.388-1205.371,776.385-1205.235Z" transform="translate(-5.766 -73.898)" fill="#fec265"/>
      <path id="Trazado_587907" data-name="Trazado 587907" d="M882.639-1182.326a1.169,1.169,0,0,1,1.341-.943c2.3.014,4.608-.015,6.912.013a1.977,1.977,0,0,1,2.2,2.176q.03,7.4,0,14.794a1.952,1.952,0,0,1-2.215,2.149q-9.4.02-18.8,0a1.987,1.987,0,0,1-2.225-2.267q-.024-7.276,0-14.552a2.036,2.036,0,0,1,2.324-2.3c2.223-.02,4.446.006,6.669-.011.716-.005,1.288.139,1.456.944a1.137,1.137,0,0,1-1.31.94c-1.116-.011-2.232.023-3.348.038-1.087-.018-2.175-.014-3.261-.062-.54-.024-.683.187-.682.7q.022,7.016,0,14.033c0,.51.136.729.678.7,1.085-.051,2.172-.053,3.258-.076q7.5.025,15,.047c.224,0,.508.059.533-.307q.141-7.4,0-14.808c.033-.19-.054-.254-.233-.222-2.284-.018-4.569-.05-6.853-.045C883.365-1181.382,882.815-1181.543,882.639-1182.326Z" transform="translate(-81.719 -118.195)" fill="#100f0e"/>
      <path id="Trazado_587908" data-name="Trazado 587908" d="M909.226-1178.174q.155,7.4,0,14.808H893.695q.006-.7.012-1.4,5.917-.021,11.833-.038c.5,0,1-.011,1.231-.546a.957.957,0,0,0-.454-1.237c-.231-.682-.811-.4-1.24-.4-3.794-.022-7.589-.014-11.384-.014q0-.363,0-.726c3.749,0,7.5.006,11.246-.01.4,0,.925.228,1.131-.39,1.073-.727,1.073-1.145,0-1.875-.21-.614-.735-.385-1.134-.386-3.748-.016-7.5-.01-11.244-.01q0-.363,0-.726c3.795,0,7.59.008,11.385-.014.428,0,1.01.278,1.239-.406a.957.957,0,0,0,.454-1.237c-.232-.536-.731-.543-1.231-.544q-5.917-.011-11.833-.037-.005-.581-.01-1.161c3.79,0,7.579.005,11.368-.007.456,0,.993.182,1.3-.372a.977.977,0,0,0,.4-1.261c-.247-.519-.742-.533-1.243-.534q-5.91-.011-11.821-.036,0-.831,0-1.662c1.116-.015,2.232-.049,3.348-.038a1.137,1.137,0,0,0,1.31-.94H900.7c.176.784.726.944,1.445.943,2.284-.005,4.569.027,6.853.045Z" transform="translate(-99.775 -121.139)" fill="#d9ebfc"/>
      <path id="Trazado_587909" data-name="Trazado 587909" d="M797.774-1241.535l0-.251c.4-.02.8-.057,1.206-.057q20.606,0,41.212.015c.414,0,.969-.315,1.266.294Z" transform="translate(-27.152 -73.799)" fill="#feda8c"/>
      <path id="Trazado_587910" data-name="Trazado 587910" d="M797.775-1092.176q0-.137.005-.273,21.117,0,42.233,0c.445,0,.889.02,1.334.031-.288.4-.719.307-1.111.307q-20.931.006-41.862,0A5.369,5.369,0,0,1,797.775-1092.176Z" transform="translate(-27.156 -186.956)" fill="#feda8c"/>
      <path id="Trazado_587911" data-name="Trazado 587911" d="M813.9-1309.115l20.876,0,.206.19c.014,1.414.019,2.829.045,4.243a2.909,2.909,0,0,0,3.091,3.132c1.172.025,2.348.049,3.518-.009.775-.038,1.063.178,1.03,1-.063,1.575-.081,3.157.005,4.73.054.983-.185,1.277-1.229,1.271-7.887-.051-15.773-.026-23.66-.03-1.374,0-2.748-.026-4.122-.04q0-.712-.006-1.425,11.386,0,22.772-.012c.43,0,1.005.277,1.255-.386.987-.8.987-1.038,0-1.849-.225-.688-.808-.41-1.236-.411q-11.394-.025-22.787-.011l-.007-.728q9.412,0,18.824-.012c.441,0,.989.241,1.3-.336.461-.308.843-.652.573-1.284-.235-.549-.713-.579-1.215-.565-.322.009-.645,0-.968,0l-18.5-.039c0-1.728-.03-3.457,0-5.185A3.98,3.98,0,0,1,813.9-1309.115Z" transform="translate(-39.151 -22.915)" fill="#d9ebfc"/>
      <path id="Trazado_587912" data-name="Trazado 587912" d="M836.04-1331.8c1.413-.026,2.825-.073,4.237-.075,5.3-.009,10.6.018,15.9-.025.9-.007,1.21.219,1.144,1.143a34.533,34.533,0,0,0-.011,3.518,2.876,2.876,0,0,0,2.989,2.985c1.253.036,2.508.03,3.762,0,.577-.014.87.077.863.772-.033,3.641-.013,7.281-.021,10.922,0,.254.126.666-.277.685-1.008.047-2.022.052-3.03.006-.5-.023-.31-.494-.312-.775-.016-2.144-.033-4.288.005-6.432a2.155,2.155,0,0,0-.705-1.708q-3.332-3.275-6.6-6.611a2.57,2.57,0,0,0-2.022-.845c-4.935.032-9.87.018-14.805.012-.442,0-.883-.051-1.326-.078A12.457,12.457,0,0,1,836.04-1331.8Z" transform="translate(-55.94 -5.67)" fill="#5fd6f4"/>
      <path id="Trazado_587913" data-name="Trazado 587913" d="M797.094-1296.187q0,.712.006,1.425c-1.535.016-3.071.009-4.6.058-.586.018-.753-.179-.75-.756.022-4.165.013-8.33.012-12.494a1.172,1.172,0,0,1,1.341-1.333l4.242.044a3.98,3.98,0,0,0-.24,2.239c-.029,1.728,0,3.457,0,5.185-.4.016-.793.025-1.189.049a.874.874,0,0,0-.918.9.882.882,0,0,0,.908.915c.393.038.788.061,1.182.09l.007.282q0,.364.006.728.006.2.012.4l-1.183.064a.86.86,0,0,0-.919.888.853.853,0,0,0,.923.881c.394.019.788.047,1.182.071Z" transform="translate(-22.591 -22.787)" fill="#b1d3f1"/>
      <path id="Trazado_587914" data-name="Trazado 587914" d="M819.609-1331.654a12.454,12.454,0,0,0-.216,3.495c-1.534.026-3.068.053-4.6.074-.158,0-.423.008-.458-.069a5.217,5.217,0,0,1-.121-2.717c.056-.623.58-.84,1.157-.837C816.782-1331.7,818.2-1331.674,819.609-1331.654Z" transform="translate(-39.509 -5.812)" fill="#00d0fa"/>
      <path id="Trazado_587915" data-name="Trazado 587915" d="M773.116-1264.547c0,2.3,0,2.3-2.147,2.3-1.576,0-1.749-.246-1.108-1.689a4.877,4.877,0,0,1,.776-1.208c.591-.677,1.395-1.464,2.21-1.215C773.506-1266.16,772.933-1265.058,773.116-1264.547Z" transform="translate(-5.758 -55.251)" fill="#efa00e"/>
      <path id="Trazado_587916" data-name="Trazado 587916" d="M962.957-1264.456a4.227,4.227,0,0,1,0-.6c.068-.461-.261-1.108.2-1.345s.983.215,1.409.5a4.454,4.454,0,0,1,1.853,2.6c.177.631.173,1.138-.725,1.011a4.374,4.374,0,0,0-.6,0C962.957-1262.3,962.957-1262.3,962.957-1264.456Z" transform="translate(-152.181 -55.201)" fill="#efa00e"/>
      <path id="Trazado_587917" data-name="Trazado 587917" d="M931.812-1325.49l4.183,4.231c-1,0-2.035.02-3.07-.007a1.056,1.056,0,0,1-1.109-1.169C931.8-1323.429,931.812-1324.423,931.812-1325.49Z" transform="translate(-128.633 -10.52)" fill="#00d0fa"/>
      <path id="Trazado_587918" data-name="Trazado 587918" d="M911.893-1299c-.438.014-.877.045-1.315.037a1.09,1.09,0,0,1-1.2-1.189c-.016-1,0-1.993,0-3.147a13.461,13.461,0,0,1,2.266,2.2A6.766,6.766,0,0,0,911.893-1299Z" transform="translate(-111.645 -27.319)" fill="#87c4f4"/>
      <path id="Trazado_587919" data-name="Trazado 587919" d="M918.894-1292.138a6.762,6.762,0,0,1-.254-2.1l2.222,2.1Z" transform="translate(-118.646 -34.183)" fill="#adcce8"/>
      <path id="Trazado_587920" data-name="Trazado 587920" d="M900.934-1308.968l-.206-.19C900.891-1309.2,900.967-1309.141,900.934-1308.968Z" transform="translate(-105.102 -22.876)" fill="#b1d3f1"/>
      <path id="Trazado_587921" data-name="Trazado 587921" d="M881.436-1168.28q0,.362,0,.725.01.191.02.383c-.509.127-1.147-.047-1.431.605-.309.71.173,1.145,1.431,1.291l-.019.391q0,.363,0,.726l.024.318a5.39,5.39,0,0,0-1.126.277.74.74,0,0,0-.338.922c.216.757.894.632,1.455.722q-.006.7-.012,1.4,0,.13,0,.26c-1.086.022-2.173.025-3.258.075-.542.025-.68-.194-.678-.7q.022-7.016,0-14.032c0-.513.141-.724.682-.7,1.086.048,2.174.044,3.261.062v1.662c-.646.091-1.451-.008-1.477.964-.019.717.519.895,1.124.932a2.912,2.912,0,0,1,.346.063v.252q.005.581.01,1.161c-.64.092-1.461-.02-1.469.954-.007.9.761.835,1.368.926a.557.557,0,0,1,.11.042Z" transform="translate(-87.519 -123.989)" fill="#adcce8"/>
      <path id="Trazado_587922" data-name="Trazado 587922" d="M893.7-1113.183c0-.087,0-.174,0-.26h15.534c-.026.365-.309.307-.533.307Q901.205-1113.155,893.7-1113.183Z" transform="translate(-99.785 -171.062)" fill="#e4f7fe"/>
      <path id="Trazado_587923" data-name="Trazado 587923" d="M956.921-1175.122l-.233-.221C956.866-1175.375,956.954-1175.312,956.921-1175.122Z" transform="translate(-147.47 -124.191)" fill="#e4f7fe"/>
      <path id="Trazado_587924" data-name="Trazado 587924" d="M889.129-1166.553a2.911,2.911,0,0,0-.346-.063c-.606-.037-1.143-.215-1.124-.932.026-.972.831-.873,1.477-.964q5.911.02,11.821.036c.5,0,1,.015,1.243.534a.978.978,0,0,1-.4,1.261c-.522.026-1.043.072-1.564.076Q894.682-1166.572,889.129-1166.553Z" transform="translate(-95.207 -129.369)" fill="#0f1112"/>
      <path id="Trazado_587925" data-name="Trazado 587925" d="M889.184-1152.708a.551.551,0,0,0-.11-.042c-.607-.091-1.375-.022-1.368-.926.007-.974.829-.862,1.469-.954q5.916.02,11.833.037c.5,0,1,.008,1.231.544a.957.957,0,0,1-.454,1.237c-.525.012-1.05.032-1.575.035Q894.7-1152.739,889.184-1152.708Z" transform="translate(-95.242 -139.88)" fill="#010202"/>
      <path id="Trazado_587926" data-name="Trazado 587926" d="M889.048-1138.949c-1.258-.146-1.74-.581-1.431-1.291.284-.652.922-.478,1.431-.605l12.357.013c1.073.729,1.073,1.148,0,1.875Z" transform="translate(-95.107 -150.315)" fill="#010202"/>
      <path id="Trazado_587927" data-name="Trazado 587927" d="M889.09-1125.209c-.561-.09-1.238.034-1.455-.722a.74.74,0,0,1,.338-.922,5.388,5.388,0,0,1,1.126-.277c.442.022.884.062,1.326.063q5.637.024,11.274.037a.957.957,0,0,1,.454,1.237c-.232.535-.73.545-1.231.546Q895.007-1125.235,889.09-1125.209Z" transform="translate(-95.159 -160.7)" fill="#010202"/>
      <path id="Trazado_587928" data-name="Trazado 587928" d="M893.717-1147.038q5.512-.033,11.025-.067c.525,0,1.05-.023,1.575-.035-.229.684-.81.4-1.239.406-3.795.022-7.59.014-11.385.014Q893.705-1146.879,893.717-1147.038Z" transform="translate(-99.776 -145.55)" fill="#e4f7fe"/>
      <path id="Trazado_587929" data-name="Trazado 587929" d="M906.316-1128.148q-5.637-.017-11.274-.037c-.442,0-.884-.041-1.326-.063l-.024-.318c3.795,0,7.589-.008,11.384.014C905.5-1128.55,906.085-1128.83,906.316-1128.148Z" transform="translate(-99.775 -159.581)" fill="#e4f7fe"/>
      <path id="Trazado_587930" data-name="Trazado 587930" d="M906.086-1142.123l-12.357-.013q-.01-.192-.02-.383c3.748,0,7.5-.006,11.243.01C905.351-1142.507,905.877-1142.737,906.086-1142.123Z" transform="translate(-99.788 -149.025)" fill="#e4f7fe"/>
      <path id="Trazado_587931" data-name="Trazado 587931" d="M893.73-1133.065l12.357-.009c-.206.618-.732.388-1.131.39-3.749.016-7.5.01-11.246.01Q893.721-1132.87,893.73-1133.065Z" transform="translate(-99.79 -156.199)" fill="#e4f7fe"/>
      <path id="Trazado_587932" data-name="Trazado 587932" d="M893.711-1160.845q5.553-.024,11.106-.052c.521,0,1.043-.049,1.564-.076-.309.554-.847.37-1.3.372-3.789.013-7.579.008-11.368.008Z" transform="translate(-99.789 -135.078)" fill="#e4f7fe"/>
      <path id="Trazado_587933" data-name="Trazado 587933" d="M807.275-1262.81c-.394-.024-.788-.052-1.182-.071a.853.853,0,0,1-.922-.881.86.86,0,0,1,.919-.888l1.183-.065,24.013.027c.987.812.987,1.045,0,1.849-1.94-.008-3.881-.025-5.821-.021Q816.37-1262.842,807.275-1262.81Z" transform="translate(-32.756 -56.533)" fill="#010202"/>
      <path id="Trazado_587934" data-name="Trazado 587934" d="M807.209-1276.583c-.394-.029-.789-.052-1.182-.09a.883.883,0,0,1-.908-.915.874.874,0,0,1,.918-.9c.4-.024.793-.033,1.189-.049l18.5.039c.323,0,.645.008.968,0,.5-.014.98.016,1.215.566.27.632-.112.976-.573,1.284-1.415,0-2.83,0-4.245.006Q815.151-1276.615,807.209-1276.583Z" transform="translate(-32.716 -46.069)" fill="#0f1112"/>
      <path id="Trazado_587935" data-name="Trazado 587935" d="M837.8-1266.056l-24.013-.027q-.005-.2-.011-.4,11.394,0,22.788.011C837-1266.465,837.579-1266.744,837.8-1266.056Z" transform="translate(-39.274 -55.166)" fill="#e4f7fe"/>
      <path id="Trazado_587936" data-name="Trazado 587936" d="M813.783-1257.031q9.095-.026,18.19-.05c1.94,0,3.881.013,5.821.021-.25.663-.825.385-1.255.386q-11.386.026-22.772.012Z" transform="translate(-39.263 -62.313)" fill="#e4f7fe"/>
      <path id="Trazado_587937" data-name="Trazado 587937" d="M813.725-1270.7q7.942-.031,15.884-.061c1.415-.005,2.83,0,4.245-.006-.309.577-.857.335-1.3.336q-9.412.025-18.824.012C813.73-1270.516,813.727-1270.609,813.725-1270.7Z" transform="translate(-39.232 -51.949)" fill="#e4f7fe"/>
    </g>
  </g>
</svg>
