<svg xmlns="http://www.w3.org/2000/svg" width="81.396" height="81.396" viewBox="0 0 81.396 81.396">
  <g id="Grupo_847374" data-name="Grupo 847374" transform="translate(-240 -1286.742)">
    <rect id="Rectángulo_38178" data-name="Rectángulo 38178" width="81.396" height="81.396" transform="translate(240 1286.742)" fill="none"/>
    <g id="Grupo_847388" data-name="Grupo 847388" transform="translate(-981.695 1645.183)">
      <path id="Trazado_587702" data-name="Trazado 587702" d="M1271.115-343.127l3.163-.007c.153,1.1.884,1.311,1.855,1.309q9.838-.026,19.676-.006c2.79,0,4.34,1.514,4.344,4.254q.015,14.018-.011,28.035c0,.322.28.778-.246.993-.35-.6-.931-.321-1.4-.322-7.116-.019-14.233-.008-21.349-.023-.517,0-1.144.242-1.5-.412.231-.408.47-.811.691-1.224,2.913-5.457,2.9-10.924-.467-16.1a14.7,14.7,0,0,0-14.616-7.013,15.453,15.453,0,0,0-12.652,21.515,1.308,1.308,0,0,1-.172,1.675c-1.348,1.561-2.823,2.479-4.982,2.113a11.7,11.7,0,0,0-2.954-.008c-.939.084-1.113-.274-1.109-1.146.032-9.309.017-18.618.023-27.928,0-2.93,1.5-4.4,4.456-4.406q9.781-.008,19.563.007c.972,0,1.7-.211,1.857-1.309l3.163.007c.157.726.523,1.276,1.333,1.276S1270.957-342.4,1271.115-343.127Zm16.21,28.228c1.288-1,1.27-1.7-.066-2.6-1.451-.853-3.012-.236-4.52-.324-.095-.006-.2.231-.307.355-1.205.97-1.207,1.542-.01,2.533A6.808,6.808,0,0,0,1287.326-314.9Zm9.975-.046c1.224-1.044,1.176-1.708-.185-2.578a6.479,6.479,0,0,0-4.72,0c-1.372.868-1.421,1.541-.189,2.585,1.442.852,3.014.185,4.513.379A.514.514,0,0,0,1297.3-314.945Zm-9.214-21.105c-1.346.849-1.406,1.453-.252,2.545.1.361.38.419.7.419h7.036c.315,0,.6-.054.7-.414,1.17-1.072,1.105-1.728-.253-2.556a.564.564,0,0,0-.6-.368q-3.366,0-6.733,0A.561.561,0,0,0,1288.087-336.05Zm8.18,8.728c1.17-1.072,1.1-1.727-.253-2.555-.159-.418-.523-.373-.86-.374q-5.887,0-11.774,0c-.369,0-.8-.089-.946.424-1.2.97-1.207,1.542-.01,2.532.186.485.613.383.98.384q5.953.008,11.906,0C1295.68-326.909,1296.107-326.818,1296.267-327.322Zm.816,4.826a1.257,1.257,0,0,0-1.374-1.142,1.168,1.168,0,0,0-1.2,1.237,1.182,1.182,0,0,0,1.283,1.285C1296.58-321.121,1297.02-321.62,1297.083-322.5Zm-12.947.115c-.11-.76-.506-1.276-1.322-1.258a1.155,1.155,0,0,0-1.237,1.187,1.178,1.178,0,0,0,1.219,1.339C1283.588-321.08,1284.024-321.59,1284.136-322.381Zm6.489-.016c-.124-.671-.452-1.231-1.286-1.241a1.163,1.163,0,0,0-1.288,1.135,1.176,1.176,0,0,0,1.171,1.383C1290.016-321.053,1290.465-321.547,1290.625-322.4ZM1284-334.664a1.209,1.209,0,0,0-1.251-1.33,1.179,1.179,0,0,0-1.3,1.263,1.178,1.178,0,0,0,1.185,1.258A1.222,1.222,0,0,0,1284-334.664Z" transform="translate(-7.391 -3.711)" fill="#97e8f6"/>
      <path id="Trazado_587703" data-name="Trazado 587703" d="M1292.506-312.261c.526-.215.245-.671.246-.993q.028-14.018.011-28.035c0-2.74-1.554-4.251-4.344-4.254q-9.838-.012-19.676.006c-.971,0-1.7-.211-1.855-1.309a1.408,1.408,0,0,1,1.616-1.284c6.862.014,13.725-.032,20.586.031a6.315,6.315,0,0,1,6.243,6.387q.04,17.5,0,35a6.356,6.356,0,0,1-6.438,6.464c-5.318.043-10.636.026-15.954,0-.813,0-1.231.094-.824,1.02a7.932,7.932,0,0,1,.322,1.242c.537,2.115.537,2.115,2.621,2.417a4.151,4.151,0,0,1,3.543,4.233,4.08,4.08,0,0,1-3.968,3.954c-1.885.061-3.774.018-5.661.018-6.219,0-12.438.017-18.657-.012a4.1,4.1,0,0,1-4.125-3.659,4.137,4.137,0,0,1,3.106-4.445.918.918,0,0,1,.374-.078c2.1.443,2.45-.948,2.7-2.509.1-.67.328-1.322.5-1.977-.311-.325-.669-.184-.98-.185-3.474-.012-6.948.01-10.422-.022a2.033,2.033,0,0,0-1.684.689c-.719.794-1.484,1.549-2.268,2.279a4.687,4.687,0,0,1-6.123.447,4.653,4.653,0,0,1-1.465-5.841,1.6,1.6,0,0,0,.026-1.542,5.872,5.872,0,0,1-.518-2.624q.014-17.305.01-34.61a6.4,6.4,0,0,1,6.636-6.662c6.647-.024,13.3,0,19.943-.017.965,0,1.708.19,1.874,1.288-.155,1.1-.886,1.311-1.857,1.309q-9.781-.027-19.563-.008c-2.96,0-4.454,1.476-4.456,4.406-.006,9.309.01,18.619-.023,27.928,0,.873.17,1.23,1.109,1.146a11.693,11.693,0,0,1,2.954.008c2.158.366,3.634-.552,4.982-2.113a1.308,1.308,0,0,0,.172-1.675,15.453,15.453,0,0,1,12.652-21.515,14.7,14.7,0,0,1,14.616,7.013c3.363,5.181,3.38,10.647.467,16.1-.221.413-.46.816-.691,1.224-.146.2-.448.445-.407.6.119.45.563.235.857.235q10.1.021,20.207.008C1290.112-312.18,1291.309-312.232,1292.506-312.261Zm-24.092-9.615a12.973,12.973,0,0,0-12.836-13.042,12.976,12.976,0,0,0-13.043,12.829A12.945,12.945,0,0,0,1255.43-309,12.95,12.95,0,0,0,1268.414-321.877Zm-25.231,18.86c.278.131.347.192.416.192q22.654.008,45.308-.005a3.792,3.792,0,0,0,3.854-3.837c.023-.643-.047-1.292.019-1.929.081-.78-.161-1.013-.974-1.01-8.71.031-17.419.021-26.129.015a2.232,2.232,0,0,0-1.327.358,15.2,15.2,0,0,1-15.28,1.409.935.935,0,0,0-1.231.2C1246.334-306.095,1244.794-304.6,1243.183-303.017Zm19.275,9.987q-5.79,0-11.579,0c-1.392,0-2.1.513-2.118,1.506s.7,1.574,2.05,1.575q11.579.008,23.159,0c1.35,0,2.074-.571,2.054-1.571s-.724-1.508-2.114-1.51Q1268.183-293.036,1262.458-293.03Zm-28.307-5.451a2.39,2.39,0,0,0,1.628-.709q4.914-4.912,9.836-9.817c.392-.389.43-.623-.022-1.006a12.252,12.252,0,0,1-1.914-1.893c-.547-.727-.847-.507-1.354.01-2.252,2.3-4.54,4.559-6.813,6.835-.97.971-1.958,1.924-2.9,2.924a2.015,2.015,0,0,0-.381,2.38A2.183,2.183,0,0,0,1234.151-298.481Zm20.367,2.822h15.852c-.327-1.265-.688-2.449-.925-3.659-.146-.745-.474-.948-1.209-.937-2.825.043-5.651,0-8.477.025-1.361.013-3.078-.551-3.991.21-1.008.841-.864,2.674-1.278,4.06A.967.967,0,0,0,1254.518-295.658Zm-18.529-13.847c-1.1,0-2.194-.005-3.291,0-.274,0-.675-.1-.664.356a12.952,12.952,0,0,0,.137,3.422Z" fill="#040404"/>
      <path id="Trazado_587704" data-name="Trazado 587704" d="M1354.876-346.763c-.158.726-.524,1.276-1.333,1.276s-1.176-.549-1.333-1.276c.157-.726.526-1.269,1.333-1.269S1354.718-347.489,1354.876-346.763Z" transform="translate(-91.151 -0.075)" fill="#090d0e"/>
      <path id="Trazado_587705" data-name="Trazado 587705" d="M1417.468-291.669c1.358.827,1.422,1.482.253,2.555-4.614.146-9.229.089-13.844.03-1.2-.99-1.194-1.562.01-2.532Z" transform="translate(-128.844 -41.919)" fill="#070b0c"/>
      <path id="Trazado_587706" data-name="Trazado 587706" d="M1433.3-315.657c1.358.828,1.423,1.483.253,2.556-2.811.123-5.621.133-8.432,0-1.155-1.092-1.095-1.7.252-2.545Z" transform="translate(-144.673 -24.11)" fill="#080c0d"/>
      <path id="Trazado_587707" data-name="Trazado 587707" d="M1446.8-243.718c1.361.87,1.409,1.534.185,2.578l-5.094,0c-1.232-1.044-1.183-1.717.189-2.585Z" transform="translate(-157.073 -77.516)" fill="#070b0c"/>
      <path id="Trazado_587708" data-name="Trazado 587708" d="M1403.875-241.055c-1.2-.991-1.195-1.563.01-2.533l4.827-.031c1.336.905,1.354,1.6.066,2.6Z" transform="translate(-128.843 -77.592)" fill="#080c0d"/>
      <path id="Trazado_587709" data-name="Trazado 587709" d="M1403.221-211.058c-1.2.029-2.394.082-3.592.083q-10.1.012-20.207-.008c-.294,0-.738.215-.857-.235-.04-.152.262-.4.407-.6.356.654.982.411,1.5.412,7.116.015,14.233,0,21.349.023C1402.29-211.379,1402.871-211.656,1403.221-211.058Z" transform="translate(-110.715 -101.203)" fill="#a1f9fe"/>
      <path id="Trazado_587710" data-name="Trazado 587710" d="M1455.955-266.315c-.063.876-.5,1.376-1.288,1.38a1.182,1.182,0,0,1-1.283-1.285,1.168,1.168,0,0,1,1.2-1.237A1.257,1.257,0,0,1,1455.955-266.315Z" transform="translate(-166.263 -59.893)" fill="#090d0e"/>
      <path id="Trazado_587711" data-name="Trazado 587711" d="M1405.726-266.2c-.112.791-.547,1.3-1.339,1.269a1.178,1.178,0,0,1-1.219-1.339,1.154,1.154,0,0,1,1.237-1.187C1405.22-267.471,1405.616-266.956,1405.726-266.2Z" transform="translate(-128.981 -59.897)" fill="#090d0e"/>
      <path id="Trazado_587712" data-name="Trazado 587712" d="M1430.856-266.206c-.16.85-.608,1.344-1.4,1.278a1.176,1.176,0,0,1-1.171-1.383,1.163,1.163,0,0,1,1.288-1.135C1430.4-267.437,1430.732-266.877,1430.856-266.206Z" transform="translate(-147.622 -59.902)" fill="#080c0d"/>
      <path id="Trazado_587713" data-name="Trazado 587713" d="M1405.225-314.089a1.222,1.222,0,0,1-1.367,1.191,1.178,1.178,0,0,1-1.185-1.258,1.179,1.179,0,0,1,1.3-1.263A1.209,1.209,0,0,1,1405.225-314.089Z" transform="translate(-128.615 -24.287)" fill="#090d0e"/>
      <path id="Trazado_587714" data-name="Trazado 587714" d="M1406.458-281.722c4.614.059,9.229.116,13.844-.03-.16.5-.587.413-.957.414q-5.953.007-11.906,0C1407.071-281.339,1406.644-281.237,1406.458-281.722Z" transform="translate(-131.425 -49.282)" fill="#a1f9fe"/>
      <path id="Trazado_587715" data-name="Trazado 587715" d="M1420.078-292.757l-13.581.052c.148-.513.577-.423.946-.424q5.887-.007,11.775,0C1419.554-293.131,1419.919-293.175,1420.078-292.757Z" transform="translate(-131.454 -40.831)" fill="#a1f9fe"/>
      <path id="Trazado_587716" data-name="Trazado 587716" d="M1427.469-305.754c2.81.138,5.621.128,8.432,0-.1.36-.385.414-.7.414h-7.036C1427.849-305.335,1427.567-305.393,1427.469-305.754Z" transform="translate(-147.024 -31.463)" fill="#a1f9fe"/>
      <path id="Trazado_587717" data-name="Trazado 587717" d="M1436.373-316.719l-7.927.006a.56.56,0,0,1,.595-.374q3.366,0,6.733,0A.565.565,0,0,1,1436.373-316.719Z" transform="translate(-147.749 -23.049)" fill="#a1f9fe"/>
      <path id="Trazado_587718" data-name="Trazado 587718" d="M1444.438-233.7l5.094,0a.514.514,0,0,1-.581.383C1447.452-233.512,1445.88-232.845,1444.438-233.7Z" transform="translate(-159.622 -84.955)" fill="#a1f9fe"/>
      <path id="Trazado_587719" data-name="Trazado 587719" d="M1411.323-244.939l-4.827.031c.1-.124.212-.361.307-.355C1408.311-245.176,1409.872-245.793,1411.323-244.939Z" transform="translate(-131.453 -76.271)" fill="#a1f9fe"/>
      <path id="Trazado_587720" data-name="Trazado 587720" d="M1406.457-233.664l4.9.036A6.807,6.807,0,0,1,1406.457-233.664Z" transform="translate(-131.424 -84.983)" fill="#a1f9fe"/>
      <path id="Trazado_587721" data-name="Trazado 587721" d="M1449.892-245l-4.72,0A6.478,6.478,0,0,1,1449.892-245Z" transform="translate(-160.167 -76.238)" fill="#a1f9fe"/>
      <path id="Trazado_587722" data-name="Trazado 587722" d="M1306.176-283.793a12.95,12.95,0,0,1-12.984,12.88,12.945,12.945,0,0,1-12.9-13.093,12.976,12.976,0,0,1,13.044-12.829A12.973,12.973,0,0,1,1306.176-283.793Zm-12.881,6.694a11.5,11.5,0,0,0,9.777-5.65,1.936,1.936,0,0,0-.011-2.25,11.455,11.455,0,0,0-19.64-.043,2.023,2.023,0,0,0,.013,2.369A11.557,11.557,0,0,0,1293.295-277.1Z" transform="translate(-37.761 -38.084)" fill="#fafafa"/>
      <path id="Trazado_587723" data-name="Trazado 587723" d="M1282.816-191.979c1.61-1.587,3.151-3.078,4.655-4.6a.935.935,0,0,1,1.231-.2,15.2,15.2,0,0,0,15.28-1.409,2.232,2.232,0,0,1,1.327-.358c8.71.006,17.42.016,26.129-.015.813,0,1.056.23.974,1.01-.066.637,0,1.286-.019,1.929a3.792,3.792,0,0,1-3.854,3.837q-22.654.032-45.308.005C1283.163-191.787,1283.094-191.848,1282.816-191.979Z" transform="translate(-39.633 -111.038)" fill="#dfe6eb"/>
      <path id="Trazado_587724" data-name="Trazado 587724" d="M1318.164-134.22q5.726,0,11.451,0c1.39,0,2.093.515,2.114,1.51s-.7,1.57-2.054,1.571q-11.579.008-23.159,0c-1.348,0-2.072-.575-2.05-1.575s.726-1.5,2.118-1.506Q1312.375-134.227,1318.164-134.22Z" transform="translate(-55.706 -158.809)" fill="#dfe6eb"/>
      <path id="Trazado_587725" data-name="Trazado 587725" d="M1241.566-195.411a2.183,2.183,0,0,1-1.918-1.276,2.015,2.015,0,0,1,.38-2.38c.94-1,1.928-1.953,2.9-2.924,2.273-2.276,4.561-4.537,6.813-6.834.507-.517.807-.737,1.354-.01a12.261,12.261,0,0,0,1.914,1.893c.452.384.414.618.022,1.006q-4.932,4.894-9.836,9.817A2.39,2.39,0,0,1,1241.566-195.411Z" transform="translate(-7.415 -103.07)" fill="#f8c866"/>
      <path id="Trazado_587726" data-name="Trazado 587726" d="M1326.717-158.139a.963.963,0,0,1-.028-.3c.414-1.385.27-3.219,1.278-4.06.914-.762,2.63-.2,3.991-.21,2.826-.027,5.652.018,8.477-.025.735-.011,1.063.192,1.209.937.237,1.209.6,2.394.925,3.659Z" transform="translate(-72.199 -137.52)" fill="#88a6ba"/>
      <path id="Trazado_587727" data-name="Trazado 587727" d="M1243.359-198.19l-3.818,3.783a12.952,12.952,0,0,1-.137-3.422c-.01-.457.391-.354.664-.356C1241.165-198.2,1242.263-198.19,1243.359-198.19Z" transform="translate(-7.369 -111.315)" fill="#dfe6eb"/>
      <path id="Trazado_587728" data-name="Trazado 587728" d="M1301.218-259.065a11.557,11.557,0,0,1-9.861-5.575,2.023,2.023,0,0,1-.013-2.369,11.455,11.455,0,0,1,19.64.043,1.936,1.936,0,0,1,.011,2.25A11.5,11.5,0,0,1,1301.218-259.065Zm-3.787-3.5c.09.035.243.118.261.1.094-.12.005-.2-.109-.247a4.835,4.835,0,0,1-.355-5.629c.1-.161.315-.333.076-.543-.215-.189-.4-.017-.572.083-1.226.737-2.7,1.609-2.872,2.928-.146,1.106,1.327,1.95,2.33,2.672A9.06,9.06,0,0,0,1297.431-262.567Zm7.42.051a7.976,7.976,0,0,0,3.366-2.689c.167-.218.428-.409.335-.78-.236-.938-2.646-2.841-3.8-2.9a4.957,4.957,0,0,1-.048,6.2l-.419.146C1304.462-262.266,1304.657-262.409,1304.851-262.516Zm-1.62-3.265a2.045,2.045,0,0,0-2.06-2.128,2.071,2.071,0,0,0-2.1,2.1,2.127,2.127,0,0,0,2.008,2.086A2.1,2.1,0,0,0,1303.231-265.781Z" transform="translate(-45.684 -56.118)" fill="#050505"/>
      <path id="Trazado_587729" data-name="Trazado 587729" d="M1326.576-252.423a2.1,2.1,0,0,1-2.156,2.053,2.127,2.127,0,0,1-2.008-2.086,2.071,2.071,0,0,1,2.1-2.1A2.045,2.045,0,0,1,1326.576-252.423Z" transform="translate(-69.029 -69.476)" fill="#f67775"/>
      <path id="Trazado_587730" data-name="Trazado 587730" d="M1344.29-252.153a4.957,4.957,0,0,0,.048-6.2c1.154.063,3.564,1.966,3.8,2.9.094.371-.168.562-.335.78a7.979,7.979,0,0,1-3.366,2.689A1.9,1.9,0,0,0,1344.29-252.153Z" transform="translate(-85.271 -66.65)" fill="#c1e8ed"/>
      <path id="Trazado_587731" data-name="Trazado 587731" d="M1305.739-252.284a9.168,9.168,0,0,1-1.24-.641c-1-.722-2.476-1.566-2.33-2.672.174-1.319,1.646-2.191,2.872-2.928.167-.1.357-.272.572-.083.239.21.022.382-.075.543a4.835,4.835,0,0,0,.355,5.629Z" transform="translate(-53.992 -66.4)" fill="#c1e8ed"/>
      <path id="Trazado_587732" data-name="Trazado 587732" d="M1343.231-234.1c-.194.107-.389.25-.567-.023l.419-.146A1.916,1.916,0,0,1,1343.231-234.1Z" transform="translate(-84.064 -84.532)" fill="#c1e8ed"/>
      <path id="Trazado_587733" data-name="Trazado 587733" d="M1316.211-234.4c.114.05.2.128.109.247-.018.023-.17-.061-.261-.1Z" transform="translate(-64.312 -84.434)" fill="#c1e8ed"/>
    </g>
  </g>
</svg>
