<svg xmlns="http://www.w3.org/2000/svg" width="81.396" height="81.396" viewBox="0 0 81.396 81.396">
  <g id="Grupo_847377" data-name="Grupo 847377" transform="translate(-240 -1286.742)">
    <rect id="Rectángulo_38178" data-name="Rectángulo 38178" width="81.396" height="81.396" transform="translate(240 1286.742)" fill="none"/>
    <g id="Grupo_847392" data-name="Grupo 847392" transform="translate(-356.924 2209.469)">
      <path id="Trazado_587796" data-name="Trazado 587796" d="M659.274-847.594c-.824.7-1.807.181-2.7.352-.187-1.09-1.011-1-1.812-1q-18.1.007-36.194,0a8.968,8.968,0,0,1-1.727-.1,4.923,4.923,0,0,1-3.99-5.22q-.009-22.25,0-44.5c0-.814.048-1.612-1-1.831q0-.9,0-1.81c.407-.111.909-.249.923-.7.045-1.486,1.031-1.411,2.075-1.41q19.835.017,39.671.008c1.953,0,1.992.039,1.992,2.042,0,15.869.026,31.737-.025,47.605A8,8,0,0,0,659.274-847.594Zm-24.464-52.26q-8.121,0-16.243,0c-1.612,0-1.748.145-1.753,1.793,0,.827,0,1.653,0,2.48.008,1.516.178,1.687,1.737,1.688q9.175,0,18.351,0,6.943,0,13.887,0c1.605,0,1.751-.155,1.755-1.8,0-.827,0-1.653,0-2.48-.008-1.516-.177-1.684-1.739-1.685Q642.807-899.858,634.81-899.855Zm-4.1,17c0-1.819-.041-3.638.015-5.455.035-1.151-.362-1.651-1.571-1.635-3.595.047-7.191.04-10.786,0-1.091-.011-1.585.354-1.572,1.5.039,3.636.033,7.273,0,10.91-.008,1.037.359,1.516,1.442,1.508q5.517-.043,11.034,0c1.08.008,1.47-.464,1.446-1.5C630.685-879.3,630.714-881.075,630.714-882.852Zm14.833,30.643c1.818,0,3.637-.034,5.454.013,1.092.028,1.582-.358,1.57-1.506q-.059-5.453,0-10.908c.012-1.144-.467-1.521-1.564-1.51q-5.391.056-10.784,0c-1.092-.011-1.587.359-1.576,1.5q.054,5.454,0,10.908c-.011,1.14.472,1.542,1.57,1.512C641.992-852.243,643.77-852.208,645.546-852.208Zm-6.9-17.869h7.813c1.695,0,3.39,0,5.085,0a.922.922,0,0,0,1.051-.961c.019-.657-.362-.975-.995-1.014-.206-.013-.413-.006-.62-.006q-12.278,0-24.556,0c-.777,0-1.639-.014-1.611,1.034s.928.955,1.678.955Q632.572-870.079,638.649-870.077Zm3.977-7.938c-2.846,0-5.691.005-8.536,0-.727,0-1.389.123-1.386,1.01s.678.987,1.4.986q8.475-.011,16.949,0c.713,0,1.416-.069,1.448-.945.036-.962-.693-1.058-1.46-1.054C648.235-878.008,645.431-878.016,642.626-878.015Zm-15.908,13.9c2.807,0,5.614-.006,8.422,0,.755,0,1.5-.059,1.491-1.029-.01-.884-.7-.97-1.421-.969q-8.484.014-16.967,0c-.745,0-1.39.155-1.369,1.024s.7.98,1.423.977C621.1-864.125,623.911-864.117,626.719-864.117Zm-.091,11.909c2.851,0,5.7-.006,8.553,0,.759,0,1.5-.063,1.468-1.046-.027-.9-.731-.951-1.44-.95q-8.429.01-16.859,0c-.737,0-1.515.005-1.529.989s.759,1.007,1.5,1C621.091-852.213,623.859-852.208,626.628-852.208ZM645.6-887.936c1.814,0,3.627-.008,5.441,0,.757.005,1.5-.066,1.475-1.039-.019-.888-.712-.961-1.427-.959q-5.5.015-11,0c-.719,0-1.4.084-1.414.973s.63,1.031,1.366,1.025C641.895-887.945,643.749-887.936,645.6-887.936Zm-6.985,5.954c1.57,0,3.139-.007,4.709,0,.713,0,1.261-.22,1.256-1.017-.005-.716-.5-.977-1.169-.976q-4.77.006-9.541,0c-.659,0-1.17.229-1.191.957-.024.806.511,1.039,1.228,1.034C635.48-881.988,637.049-881.982,638.619-881.982ZM622.8-858.163c1.524,0,3.047-.009,4.571,0,.74.006,1.369-.16,1.346-1.043-.021-.8-.615-.957-1.307-.955q-4.633.015-9.265,0c-.7,0-1.274.188-1.288.978s.537,1.023,1.25,1.019C619.665-858.17,621.23-858.163,622.8-858.163Zm-3.008-11.914c.66,0,1.321.006,1.981,0,.628-.007,1.036-.294,1.051-.955a.915.915,0,0,0-1-1.016q-1.98-.041-3.963,0a.928.928,0,0,0-1,1.02.945.945,0,0,0,1.069.951C618.549-870.075,619.168-870.078,619.787-870.076Zm29.641-11.908c.7,0,1.4.02,2.1-.006a.925.925,0,0,0,1-1.018.891.891,0,0,0-.938-.945c-1.361-.024-2.724-.028-4.085.005a.891.891,0,0,0-.934.951.917.917,0,0,0,1,1.009C648.189-881.968,648.808-881.984,649.428-881.985ZM633.747-860.15c-.657,0-1.315-.008-1.972,0a.933.933,0,0,0-1.038.971.921.921,0,0,0,1,1c1.315.021,2.63.024,3.944,0a.907.907,0,0,0,.974-1.027.937.937,0,0,0-1.063-.946C634.979-860.156,634.363-860.151,633.747-860.15Z" transform="translate(-3.013 -6.002)" fill="#d9e7ec"/>
      <path id="Trazado_587797" data-name="Trazado 587797" d="M799.8-867.861h1.881c.141.818.682,1.027,1.439,1.013,1.569-.027,3.14-.009,4.709-.007,1.743,0,1.848.1,1.848,1.808q0,19.149,0,38.3c0,.33.007.662-.02.991a4.92,4.92,0,0,1-3.4,4.3c-3.369,1.065-6.488-1.319-6.492-5.012q-.022-18.219,0-36.438C799.757-864.558,799.783-866.209,799.8-867.861Z" transform="translate(-144.266 -33.036)" fill="#c6d2d7"/>
      <path id="Trazado_587798" data-name="Trazado 587798" d="M655.538-900.9c-.014,1.651-.041,3.3-.041,4.954q0,18.219,0,36.438c0,3.693,3.123,6.077,6.492,5.013a4.92,4.92,0,0,0,3.4-4.3c.027-.329.02-.66.02-.991q0-19.149,0-38.3c0-1.708-.105-1.806-1.848-1.808-1.57,0-3.14-.02-4.709.007-.757.013-1.3-.195-1.439-1.013a1.138,1.138,0,0,1,1.327-.991c1.652.026,3.3.006,4.957.008,2.629,0,3.7,1.055,3.7,3.651q0,17.784,0,35.569c0,1.033.005,2.066,0,3.1-.04,5.911-5.677,9.109-10.807,6.135-.107-.062-.22-.113-.33-.169a8,8,0,0,1-2.787-6.573c.051-15.868.025-31.737.025-47.605,0-2-.039-2.042-1.992-2.042q-19.835,0-39.671-.008c-1.044,0-2.03-.076-2.075,1.41-.014.456-.516.594-.923.7-.976-.2-1.1-.872-.934-1.692a3.019,3.019,0,0,1,2.55-2.374,8.9,8.9,0,0,1,1.114-.029q20.079,0,40.158,0c2.718,0,3.75,1.031,3.761,3.723C655.5-905.686,655.523-903.291,655.538-900.9Z" transform="translate(-0.006)" fill="#040404"/>
      <path id="Trazado_587799" data-name="Trazado 587799" d="M608.837-888.012c1.05.22,1,1.018,1,1.831q-.01,22.25,0,44.5a4.923,4.923,0,0,0,3.99,5.22,8.968,8.968,0,0,0,1.727.1q18.1.008,36.194,0c.8,0,1.626-.086,1.813,1-.176,1-.914.995-1.7.994q-14.006-.013-28.013-.005c-2.933,0-5.867.014-8.8,0a6.923,6.923,0,0,1-7.192-7.182q-.025-22.435-.016-44.87C607.841-887.2,607.956-887.826,608.837-888.012Z" transform="translate(0 -17.888)" fill="#040405"/>
      <path id="Trazado_587800" data-name="Trazado 587800" d="M649.834-887.839q8,0,15.995,0c1.562,0,1.731.169,1.739,1.685,0,.827,0,1.654,0,2.48,0,1.641-.15,1.8-1.755,1.8q-6.943,0-13.887,0-9.176,0-18.351,0c-1.559,0-1.73-.171-1.737-1.688,0-.827,0-1.653,0-2.48,0-1.648.141-1.793,1.753-1.794Q641.713-887.842,649.834-887.839Zm-.258,3.976c4.96,0,9.92-.015,14.879.016.791,0,1.173-.088,1.163-1.037-.008-.888-.358-.98-1.094-.979q-14.817.028-29.635,0c-.726,0-1.1.07-1.1.971,0,.936.353,1.051,1.156,1.045C639.822-883.88,644.7-883.863,649.576-883.863Z" transform="translate(-18.038 -18.018)" fill="#020304"/>
      <path id="Trazado_587801" data-name="Trazado 587801" d="M645.7-840.817c0,1.777-.029,3.555.011,5.331.024,1.04-.367,1.512-1.446,1.5q-5.517-.043-11.034,0c-1.083.008-1.451-.472-1.442-1.508.03-3.636.036-7.274,0-10.91-.012-1.15.482-1.515,1.572-1.5,3.6.037,7.191.044,10.786,0,1.209-.016,1.606.484,1.571,1.635C645.659-844.456,645.7-842.636,645.7-840.817ZM633.789-841c0,1.363.027,2.728-.012,4.09-.018.642.081.963.851.95,2.767-.045,5.536-.031,8.3-.007.572,0,.8-.143.79-.756q-.042-4.214,0-8.428c.006-.613-.216-.762-.789-.757-2.768.023-5.536.038-8.3-.007-.769-.013-.871.307-.852.95C633.817-843.649,633.789-842.326,633.789-841Z" transform="translate(-18 -48.036)" fill="#030302"/>
      <path id="Trazado_587802" data-name="Trazado 587802" d="M726.686-738.043c-1.777,0-3.554-.035-5.33.013-1.1.03-1.581-.373-1.57-1.512q.054-5.453,0-10.908c-.011-1.145.484-1.515,1.576-1.5q5.391.055,10.784,0c1.1-.011,1.576.366,1.564,1.51q-.059,5.454,0,10.908c.012,1.148-.478,1.535-1.57,1.506C730.323-738.077,728.5-738.043,726.686-738.043Zm5.02-6.825c0-1.4-.039-2.81.016-4.212.029-.727-.231-.9-.916-.887-2.725.035-5.452.031-8.177,0-.624-.006-.866.145-.858.821q.053,4.15,0,8.3c-.008.675.231.828.857.821,2.726-.028,5.452-.033,8.177,0,.684.009.948-.157.917-.886C731.666-742.223,731.706-743.546,731.706-744.868Z" transform="translate(-84.153 -120.167)" fill="#040403"/>
      <path id="Trazado_587803" data-name="Trazado 587803" d="M677.911-773.912q-6.077,0-12.154,0c-.75,0-1.649.1-1.678-.955s.833-1.034,1.611-1.034q12.278.008,24.556,0c.207,0,.414-.007.62.006.633.039,1.013.357.995,1.014a.922.922,0,0,1-1.051.961c-1.695.007-3.39,0-5.085,0Z" transform="translate(-42.275 -102.167)" fill="#050505"/>
      <path id="Trazado_587804" data-name="Trazado 587804" d="M705.772-799.885c2.8,0,5.608.008,8.412,0,.768,0,1.5.092,1.46,1.054-.032.875-.735.946-1.448.945q-8.475-.013-16.949,0c-.72,0-1.4-.088-1.4-.986s.66-1.012,1.386-1.01C700.081-799.88,702.926-799.885,705.772-799.885Z" transform="translate(-66.158 -84.132)" fill="#040404"/>
      <path id="Trazado_587805" data-name="Trazado 587805" d="M641.931-749.929c-2.807,0-5.614-.008-8.421.005-.726,0-1.4-.107-1.423-.977s.624-1.025,1.369-1.024q8.484.017,16.967,0c.721,0,1.411.085,1.421.969.011.97-.736,1.032-1.491,1.029C647.545-749.935,644.738-749.929,641.931-749.929Z" transform="translate(-18.225 -120.19)" fill="#040404"/>
      <path id="Trazado_587806" data-name="Trazado 587806" d="M641.679-701.951c-2.768,0-5.537,0-8.305,0-.742,0-1.516-.009-1.5-1s.792-.99,1.529-.989q8.43.007,16.859,0c.709,0,1.413.053,1.44.95.03.983-.709,1.049-1.469,1.046C647.381-701.956,644.53-701.951,641.679-701.951Z" transform="translate(-18.064 -156.259)" fill="#030404"/>
      <path id="Trazado_587807" data-name="Trazado 587807" d="M726.825-845.867c-1.855,0-3.71-.009-5.564,0-.736.005-1.384-.144-1.366-1.025s.7-.975,1.414-.973q5.5.016,11,0c.715,0,1.408.071,1.427.959.021.973-.717,1.044-1.475,1.039C730.452-845.875,728.639-845.867,726.825-845.867Z" transform="translate(-84.234 -48.071)" fill="#040404"/>
      <path id="Trazado_587808" data-name="Trazado 587808" d="M701.7-821.87c-1.57,0-3.139-.006-4.709,0-.718,0-1.252-.228-1.228-1.034.022-.728.533-.957,1.191-.957q4.77,0,9.541,0c.673,0,1.164.26,1.169.976.005.8-.543,1.022-1.256,1.017C704.835-821.877,703.266-821.87,701.7-821.87Z" transform="translate(-66.09 -66.114)" fill="#040404"/>
      <path id="Trazado_587809" data-name="Trazado 587809" d="M637.938-725.94c-1.565,0-3.13-.007-4.694,0-.713,0-1.263-.232-1.25-1.019s.584-.981,1.288-.978q4.633.017,9.266,0c.692,0,1.286.151,1.307.955.024.883-.606,1.049-1.346,1.043C640.985-725.949,639.462-725.94,637.938-725.94Z" transform="translate(-18.156 -138.225)" fill="#040405"/>
      <path id="Trazado_587810" data-name="Trazado 587810" d="M634.956-773.924c-.619,0-1.238,0-1.858,0a.945.945,0,0,1-1.069-.951.928.928,0,0,1,1-1.02q1.981-.038,3.963,0a.915.915,0,0,1,1,1.016c-.016.66-.424.948-1.051.955C636.277-773.918,635.616-773.924,634.956-773.924Z" transform="translate(-18.182 -102.155)" fill="#070708"/>
      <path id="Trazado_587811" data-name="Trazado 587811" d="M754.563-821.878c-.619,0-1.239.017-1.857,0a.917.917,0,0,1-1-1.009.892.892,0,0,1,.934-.951c1.361-.033,2.724-.029,4.085,0a.891.891,0,0,1,.938.945.925.925,0,0,1-1,1.018C755.967-821.858,755.264-821.878,754.563-821.878Z" transform="translate(-108.148 -66.109)" fill="#050505"/>
      <path id="Trazado_587812" data-name="Trazado 587812" d="M690.934-727.919c.616,0,1.233-.005,1.849,0a.937.937,0,0,1,1.063.946.907.907,0,0,1-.974,1.027c-1.314.028-2.629.025-3.944,0a.921.921,0,0,1-1-1,.933.933,0,0,1,1.038-.971C689.62-727.927,690.277-727.918,690.934-727.919Z" transform="translate(-60.201 -138.234)" fill="#060606"/>
      <path id="Trazado_587813" data-name="Trazado 587813" d="M655.487-877.88c-4.877,0-9.754-.017-14.631.017-.8.006-1.16-.109-1.156-1.045,0-.9.375-.972,1.1-.971q14.818.026,29.635,0c.736,0,1.086.091,1.094.979.009.949-.372,1.042-1.163,1.037C665.407-877.9,660.447-877.88,655.487-877.88Z" transform="translate(-23.949 -24.001)" fill="#32b6eb"/>
      <path id="Trazado_587814" data-name="Trazado 587814" d="M639.813-834.986c0-1.322.027-2.645-.012-3.966-.019-.643.082-.962.852-.95,2.767.045,5.536.031,8.3.007.573,0,.8.144.789.757q-.042,4.214,0,8.428c.006.614-.218.761-.79.756-2.768-.023-5.537-.038-8.3.007-.77.013-.87-.308-.851-.95C639.84-832.258,639.813-833.622,639.813-834.986Z" transform="translate(-24.024 -54.055)" fill="#fdba41"/>
      <path id="Trazado_587815" data-name="Trazado 587815" d="M737.714-738.847c0,1.322-.04,2.645.016,3.964.031.728-.233.895-.917.886-2.725-.035-5.452-.031-8.177,0-.626.006-.865-.146-.857-.822q.053-4.15,0-8.3c-.009-.676.233-.827.857-.82,2.726.028,5.452.033,8.177,0,.685-.009.945.16.916.887C737.676-741.657,737.714-740.252,737.714-738.847Z" transform="translate(-90.161 -126.187)" fill="#fcba41"/>
    </g>
  </g>
</svg>
