<svg xmlns="http://www.w3.org/2000/svg" width="81.396" height="81.396" viewBox="0 0 81.396 81.396">
  <g id="Grupo_847294" data-name="Grupo 847294" transform="translate(-240 -1286.742)">
    <rect id="Rectángulo_38178" data-name="Rectángulo 38178" width="81.396" height="81.396" transform="translate(240 1286.742)" fill="none"/>
    <g id="Grupo_847400" data-name="Grupo 847400" transform="translate(186.208 3067.269)">
      <path id="Trazado_588004" data-name="Trazado 588004" d="M128.584-1768.268l1.785,0a1.37,1.37,0,0,0,1.49.9c1.431-.011,2.863.046,4.294.075l.263.293a5.561,5.561,0,0,1,.516,2.566q-.021,23.207-.007,46.413c0,.589.037,1.178.057,1.767l-.043-.03-.518.195a.271.271,0,0,0-.029.2l-18.746-.033-.307-.4a3.268,3.268,0,0,0-1.24-2.788,4.31,4.31,0,0,1-1.692-3.962c.116-2.334-.94-3.364-3.309-3.246a4.475,4.475,0,0,1-3.86-1.627c-1.576-1.732-3-1.659-4.685-.044a5.43,5.43,0,0,1-1.542,1.339v-1.407c0-12.583.018-25.167-.028-37.75,0-1.223.21-1.626,1.551-1.613,8.065.075,16.131.036,24.2.039C127.5-1767.373,128.3-1767.283,128.584-1768.268Zm4.309,47.25a1.275,1.275,0,0,0-1.83,0,8.918,8.918,0,0,1-2.734,0,1.925,1.925,0,0,0-2.337,0,12.872,12.872,0,0,1-3.247,0c-.152-.252-.234-.135-.3.057-.478.259-.863.607-.686,1.2.191.64.735.71,1.323.707,2.867-.012,5.734-.006,8.6-.006.8,0,1.6-.009,2.4,0,.682.01,1.208-.226,1.195-.973-.012-.67-.507-.9-1.135-.91C133.727-1720.941,133.31-1720.989,132.893-1721.018Zm-11.137-12.706,1.816.059a1.176,1.176,0,0,0,1.316.913c2.238-.026,4.476,0,6.714-.014a1.585,1.585,0,0,0,1.73-1.743c.021-.633,0-1.267,0-1.9,0-2.266-.346-2.6-2.666-2.6H109.641c-3.619,0-3.619,0-3.618,3.68,0,.254-.01.507,0,.76.058,1.223.589,1.8,1.794,1.8,4.18.02,8.361,0,12.541.017C121.093-1732.749,121.591-1732.968,121.756-1733.724Zm-18.1-21.452c0,1.266.013,2.533,0,3.8a3.494,3.494,0,0,0,2.1,3.455c.51.247,1.171.573,1.111,1.1-.174,1.513.884,2.638,1.068,4.022a2.329,2.329,0,0,0,1.948,2.07,1.984,1.984,0,0,0,2.471-1.057c.44-1.4,1.406-2.63,1.393-4.157a1.95,1.95,0,0,1,1.249-1.987,3.514,3.514,0,0,0,2.116-3.45c.008-1.816-.106-3.639.022-5.445.389-5.477-2.292-8.054-8.027-7.568-.126.011-.253.014-.379.028a5.5,5.5,0,0,0-5.057,5.516C103.634-1757.626,103.655-1756.4,103.653-1755.176Zm24.135-.615c2.154,0,4.309,0,6.463,0,.719,0,1.453-.027,1.422-.988-.028-.87-.724-.89-1.394-.889q-6.463.009-12.927,0c-.72,0-1.455.03-1.423.986.028.864.725.893,1.4.891C123.479-1755.8,125.634-1755.791,127.788-1755.791Zm0,4.03c2.154,0,4.309,0,6.463,0,.722,0,1.447-.046,1.418-1-.027-.882-.735-.883-1.4-.883q-6.463,0-12.926,0c-.715,0-1.46.021-1.42.986.036.853.723.9,1.4.9C123.483-1751.767,125.638-1751.761,127.792-1751.761Zm-.113,4.034q3.226,0,6.451,0c.738,0,1.563.039,1.547-1-.014-.945-.8-.935-1.49-.935q-6.388,0-12.777,0c-.7,0-1.477,0-1.486.941-.009,1.03.817.991,1.555.989Q124.579-1747.731,127.679-1747.727Zm.121,4.031c2.151,0,4.3,0,6.453,0,.723,0,1.44-.067,1.428-1-.011-.851-.68-.945-1.36-.945q-6.517,0-13.033,0c-.679,0-1.352.091-1.366.94-.015.932.7,1.01,1.425,1.007C123.5-1743.7,125.648-1743.7,127.8-1743.7Zm.165-18c-2.2,0-4.393,0-6.589,0-.714,0-1.453.022-1.446.973.007.874.7.912,1.374.912q6.526,0,13.051,0c.689,0,1.347-.1,1.321-.967s-.7-.921-1.375-.919C132.189-1761.686,130.077-1761.691,127.965-1761.692Zm4.326,39.679a.86.86,0,0,0,.848-.705.86.86,0,0,0-.589-1.1,2.876,2.876,0,0,1-.98-.517c-1.383-1.159-2.225-1.165-3.664.041-.485.407-.827.482-1.27,0a2.471,2.471,0,0,0-1.638-.857.953.953,0,0,0-1.138.757.845.845,0,0,0,.646,1.064,2.694,2.694,0,0,1,.974.544,2.371,2.371,0,0,0,3.577-.023c.521-.445.9-.53,1.374,0A2.4,2.4,0,0,0,132.291-1722.012Z" transform="translate(-25.162 -3.036)" fill="#f1ecec"/>
      <path id="Trazado_588005" data-name="Trazado 588005" d="M110.991-1770.325c-1.431-.029-2.863-.086-4.294-.075a1.37,1.37,0,0,1-1.49-.9,1.264,1.264,0,0,1,1.483-1.034c1.307.054,2.618.013,3.928.015,3.057,0,4.453,1.413,4.454,4.511,0,11.236.024,22.471-.03,33.707-.006,1.258.26,1.783,1.564,1.563a6.785,6.785,0,0,1,1.518,0,3.663,3.663,0,0,1,3.546,3.6q.086,4.117,0,8.236c-.043,2.256-1.661,3.688-4.1,3.692q-13.053.017-26.105-.017a2.057,2.057,0,0,0-1.9.979,2.135,2.135,0,0,0-.294,1.211c-.009.549.022,1.1,0,1.647-.092,1.929-.991,2.983-2.919,2.895a5.187,5.187,0,0,0-4.532,1.867,2.482,2.482,0,0,1-4.084.071,5.384,5.384,0,0,0-4.632-1.943c-1.952.1-2.994-1.037-2.886-3.03a4.908,4.908,0,0,0-1.782-4.307c-1.568-1.395-1.56-2.985.016-4.374a4.9,4.9,0,0,0,1.766-4.314c-.1-1.94.842-2.917,2.788-3.01.93-.044.966-.421.965-1.135q-.025-12.608.01-25.217c0-.892-.246-1.174-1.122-1.092-4.01.379-5.823-1.243-5.539-5.582.132-2.019,0-4.054.031-6.081a3.715,3.715,0,0,1,3.933-3.873c10.223-.013,20.445,0,30.668-.016.777,0,1.323.189,1.469,1.025-.286.985-1.084.895-1.853.894-8.066,0-16.132.036-24.2-.039-1.342-.013-1.556.39-1.551,1.613.046,12.583.028,25.167.028,37.75v1.407a5.426,5.426,0,0,0,1.542-1.339c1.683-1.615,3.108-1.688,4.685.044a4.475,4.475,0,0,0,3.86,1.627c2.37-.118,3.426.912,3.309,3.246a4.31,4.31,0,0,0,1.692,3.962,3.268,3.268,0,0,1,1.24,2.788c-.226.384-.1.5.306.4l18.746.033c2,.171,2,.171,2-1.792q0-23.42-.007-46.84a2.38,2.38,0,0,0-.171-1.477,1.554,1.554,0,0,0-1.789-1.3ZM69.6-1759.516c.849,1.311,2.19.711,3.339.87.845.117,1.052-.227,1.04-1.043q-.069-4.728,0-9.457c.016-1.013-.09-1.513-1.273-1.047a3.006,3.006,0,0,1-1.623.02c-1.015-.215-1.469.272-1.716,1.14a1.511,1.511,0,0,0-.161.458q-.017,3.956-.009,7.913A1.476,1.476,0,0,0,69.6-1759.516Zm12.025,31.044c-.586-.816-.909-2.023-2.345-1.57a4.261,4.261,0,0,0-.774.625,5.1,5.1,0,0,1-4.778,1.983c-1.522-.114-1.719.088-1.608,1.636a5.315,5.315,0,0,1-1.993,4.781c-1.214,1.026-1.216,1.371-.006,2.4a5.322,5.322,0,0,1,2,4.779c-.113,1.561.07,1.746,1.6,1.636a5.126,5.126,0,0,1,4.778,1.989,4.6,4.6,0,0,0,.768.642c.469.425.87.171,1.215-.164.482-.467.924-.974,1.383-1.463a5.136,5.136,0,0,1,3.519-1.037c1.939.131,2.1.055,1.982-1.855a5.077,5.077,0,0,1,1.9-4.434c1.316-1.153,1.317-1.436,0-2.582a5.071,5.071,0,0,1-1.9-4.432c.119-1.912-.043-1.987-1.983-1.867A6.278,6.278,0,0,1,81.627-1728.472Zm33.446,3.691v3.544c0,2.406,0,2.406,2.375,2.356,1.7-.036,2.351-.688,2.363-2.413.014-1.941,0-3.882,0-5.823,0-3.3-.3-3.591-3.626-3.557a.779.779,0,0,1-.126,0c-.754-.118-1.041.145-1.009.958C115.119-1728.074,115.074-1726.427,115.073-1724.781Z" transform="translate(0 0)" fill="#070606"/>
      <path id="Trazado_588006" data-name="Trazado 588006" d="M111.491-1743.951c0-1.225-.021-2.45.006-3.674a5.5,5.5,0,0,1,5.057-5.516c.126-.014.253-.017.379-.028,5.735-.486,8.416,2.091,8.027,7.568-.128,1.807-.014,3.63-.022,5.445a3.514,3.514,0,0,1-2.116,3.45,1.95,1.95,0,0,0-1.249,1.987c.013,1.527-.953,2.761-1.393,4.157a1.984,1.984,0,0,1-2.471,1.057,2.329,2.329,0,0,1-1.948-2.07c-.184-1.383-1.242-2.509-1.068-4.022.061-.527-.6-.853-1.111-1.1a3.494,3.494,0,0,1-2.1-3.455C111.5-1741.418,111.489-1742.685,111.491-1743.951Zm9.252,6.246-.009.011.429-.341.007,0a6.544,6.544,0,0,0,1.216-.614c.947-.75.686-1.846.548-2.79-.094-.648-.813-.282-1.269-.293q-3.727-.025-7.454-.048c-.36,0-.735-.1-.853.477a2.544,2.544,0,0,0,1.37,3.05,3.186,3.186,0,0,1,1.914,2.639c.051,1.114.54,1.356,1.493,1.139,1.014.207,1.675.084,1.641-1.241-.014-.568.46-1.148.713-1.722l0,0Zm-.827-13.46c-1.009-.024-2.019-.1-3.026-.062a3.538,3.538,0,0,0-3.492,3.338c-.091,1.173-.012,2.359-.037,3.537-.01.475.158.639.644.7,3.027.368,3.189.242,3.249-2.769,0-.126,0-.253,0-.379.022-.6.2-1.123.91-1.129.757-.007,1,.5.987,1.182,0,.253,0,.506,0,.758,0,2.458,0,2.458,2.521,2.263,1.057.292,1.445-.1,1.348-1.189-.086-.963.01-1.941-.036-2.91a3.331,3.331,0,0,0-2.566-3.194l-.078-.01Zm-1.108,19.087c-.054-.4-.347-.392-.644-.389-.346,0-.544.143-.514.517a.5.5,0,0,0,.557.519C118.6-1731.448,118.777-1731.7,118.807-1732.078Z" transform="translate(-32.998 -14.261)" fill="#070606"/>
      <path id="Trazado_588007" data-name="Trazado 588007" d="M136.57-1647.672c-.165.756-.663.974-1.4.971-4.18-.019-8.361,0-12.541-.017-1.206-.006-1.737-.581-1.794-1.8-.012-.253,0-.507,0-.76,0-3.68,0-3.68,3.618-3.68h21.029c2.32,0,2.666.338,2.666,2.6,0,.634.016,1.267,0,1.9a1.585,1.585,0,0,1-1.73,1.743c-2.238.014-4.476-.012-6.714.014a1.176,1.176,0,0,1-1.316-.913c.179-.751.683-.965,1.411-.953,1.688.028,3.378-.033,5.065.016.917.027,1.354-.144,1.337-1.231-.016-1.027-.348-1.261-1.309-1.257q-10.447.045-20.895-.013c-.938-.006-1.223.245-1.227,1.2,0,.986.345,1.195,1.255,1.183,3.588-.046,7.176-.017,10.764-.019C135.578-1648.687,136.343-1648.655,136.57-1647.672Z" transform="translate(-39.976 -89.088)" fill="#090a0a"/>
      <path id="Trazado_588008" data-name="Trazado 588008" d="M142.264-1642.055c-.227-.983-.992-1.016-1.782-1.015-3.588,0-7.176-.027-10.764.019-.91.011-1.258-.2-1.255-1.183,0-.956.288-1.206,1.227-1.2q10.447.062,20.895.013c.961,0,1.293.23,1.309,1.257.017,1.087-.42,1.258-1.337,1.231-1.687-.049-3.377.012-5.065-.016-.729-.012-1.233.2-1.411.953Z" transform="translate(-45.671 -94.705)" fill="#345b79"/>
      <path id="Trazado_588009" data-name="Trazado 588009" d="M240.645-1764.436a1.554,1.554,0,0,1,1.789,1.3c-.361.446-.21.974-.21,1.467q-.013,12.606-.006,25.212,0,10.9,0,21.792c0,.721.038,1.418-1.017,1.27-.02-.589-.057-1.178-.057-1.767q0-23.207.007-46.413a5.563,5.563,0,0,0-.516-2.566Q240.642-1764.29,240.645-1764.436Z" transform="translate(-129.386 -5.888)" fill="#ede5e2"/>
      <path id="Trazado_588010" data-name="Trazado 588010" d="M183.516-1724.6c-2.155,0-4.309-.005-6.463,0-.671,0-1.367-.027-1.4-.891-.031-.956.7-.987,1.423-.986q6.463.009,12.927,0c.67,0,1.365.019,1.394.889.031.96-.7.99-1.422.988C187.825-1724.608,185.67-1724.6,183.516-1724.6Z" transform="translate(-80.89 -34.224)" fill="#020202"/>
      <path id="Trazado_588011" data-name="Trazado 588011" d="M183.521-1708.735c-2.154,0-4.309-.006-6.463,0-.675,0-1.363-.044-1.4-.9-.04-.965.705-.987,1.42-.986q6.463.006,12.926,0c.661,0,1.369,0,1.4.883.029.953-.7,1-1.418,1C187.829-1708.739,185.675-1708.735,183.521-1708.735Z" transform="translate(-80.891 -46.062)" fill="#020202"/>
      <path id="Trazado_588012" data-name="Trazado 588012" d="M183.4-1692.985q-3.1,0-6.2,0c-.738,0-1.564.04-1.555-.989.009-.942.79-.941,1.485-.941q6.388,0,12.777,0c.693,0,1.476-.01,1.49.935.016,1.034-.809,1-1.547,1Q186.621-1692.989,183.4-1692.985Z" transform="translate(-80.879 -57.778)" fill="#111"/>
      <path id="Trazado_588013" data-name="Trazado 588013" d="M183.5-1677.141c-2.151,0-4.3,0-6.453,0-.726,0-1.44-.075-1.425-1.007.014-.849.687-.94,1.366-.94q6.517,0,13.033,0c.68,0,1.349.093,1.36.944.012.936-.705,1-1.428,1C187.807-1677.144,185.656-1677.141,183.5-1677.141Z" transform="translate(-80.867 -69.591)" fill="#111"/>
      <path id="Trazado_588014" data-name="Trazado 588014" d="M183.7-1742.356c2.112,0,4.224.005,6.336,0,.678,0,1.35.058,1.375.919s-.632.968-1.321.967q-6.526-.006-13.051,0c-.67,0-1.367-.038-1.374-.912-.007-.951.732-.975,1.446-.973C179.3-1742.352,181.5-1742.356,183.7-1742.356Z" transform="translate(-80.893 -22.371)" fill="#020202"/>
      <path id="Trazado_588015" data-name="Trazado 588015" d="M183.722-1582.032a12.872,12.872,0,0,0,3.247,0,7.783,7.783,0,0,0,2.337,0,8.91,8.91,0,0,0,2.734,0,4.872,4.872,0,0,0,1.83,0c.417.029.833.077,1.251.083.628.008,1.123.24,1.135.91.013.747-.513.983-1.195.973-.8-.012-1.6,0-2.4,0-2.867,0-5.734-.007-8.6.005-.589,0-1.133-.067-1.323-.707-.176-.593.209-.941.686-1.2Z" transform="translate(-86.14 -142.018)" fill="#020202"/>
      <path id="Trazado_588016" data-name="Trazado 588016" d="M241.108-1709.548c1.055.148,1.018-.549,1.017-1.27q-.012-10.9,0-21.792,0-12.606.006-25.212c0-.492-.151-1.021.21-1.467a2.38,2.38,0,0,1,.171,1.477q.013,23.421.007,46.84c0,1.963,0,1.963-2,1.792a.27.27,0,0,1,.029-.2c.2.009.408.037.518-.195Z" transform="translate(-129.289 -9.737)" fill="#bfb9b7"/>
      <path id="Trazado_588017" data-name="Trazado 588017" d="M199.5-1595.348a2.4,2.4,0,0,1-1.858-.8c-.477-.529-.854-.444-1.374,0a2.371,2.371,0,0,1-3.577.023,2.693,2.693,0,0,0-.974-.544.845.845,0,0,1-.646-1.064.953.953,0,0,1,1.138-.757,2.47,2.47,0,0,1,1.638.857c.443.483.785.408,1.27,0,1.439-1.206,2.281-1.2,3.664-.041a2.875,2.875,0,0,0,.98.517.86.86,0,0,1,.589,1.1A.86.86,0,0,1,199.5-1595.348Z" transform="translate(-92.371 -129.701)" fill="#090a0a"/>
      <path id="Trazado_588018" data-name="Trazado 588018" d="M201.891-1583.2a7.791,7.791,0,0,1-2.337,0A1.925,1.925,0,0,1,201.891-1583.2Z" transform="translate(-98.724 -140.855)" fill="#fefefe"/>
      <path id="Trazado_588019" data-name="Trazado 588019" d="M221.372-1583.174a4.872,4.872,0,0,1-1.83,0A1.275,1.275,0,0,1,221.372-1583.174Z" transform="translate(-113.641 -140.88)" fill="#fefefe"/>
      <path id="Trazado_588020" data-name="Trazado 588020" d="M165.429-1563.1c-.405.1-.532-.019-.306-.4Z" transform="translate(-72.946 -155.851)" fill="#fefefe"/>
      <path id="Trazado_588021" data-name="Trazado 588021" d="M241.175-1563.359c-.11.232-.317.2-.518.195Z" transform="translate(-129.399 -155.957)" fill="#fefefe"/>
      <path id="Trazado_588022" data-name="Trazado 588022" d="M239.871-1764.407l0,.292-.263-.293Z" transform="translate(-128.612 -5.917)" fill="#fefefe"/>
      <path id="Trazado_588023" data-name="Trazado 588023" d="M185.869-1582.444l-.3.057C185.635-1582.579,185.717-1582.7,185.869-1582.444Z" transform="translate(-88.287 -141.606)" fill="#fefefe"/>
      <path id="Trazado_588024" data-name="Trazado 588024" d="M91.122-1587.834A5.135,5.135,0,0,0,87.6-1586.8c-1.164.067-2.239.275-2.6,1.627a4.6,4.6,0,0,1-.768-.642,5.126,5.126,0,0,0-4.778-1.989c-1.532.11-1.715-.076-1.6-1.637a5.321,5.321,0,0,0-2-4.779c-1.21-1.026-1.209-1.371.006-2.4a5.314,5.314,0,0,0,1.993-4.781c-.111-1.549.085-1.75,1.608-1.636a5.1,5.1,0,0,0,4.778-1.983,4.255,4.255,0,0,1,.774-.625,2.052,2.052,0,0,0,2.345,1.57,6.278,6.278,0,0,0,3.76,1.066,4.54,4.54,0,0,1,.248,2.111,3.489,3.489,0,0,0,1.4,3.439,6.1,6.1,0,0,1,.97.993,1.488,1.488,0,0,1-.005,2.068,9.194,9.194,0,0,1-.968,1,3.588,3.588,0,0,0-1.4,3.324A4.791,4.791,0,0,1,91.122-1587.834Zm-9.044-4.216c-.46,1.007.139,1.467.936,1.848a5.764,5.764,0,0,0,6.8-1.432,5.785,5.785,0,0,0,.408-7.031,5.734,5.734,0,0,0-6.7-2.149,5.778,5.778,0,0,0-3.794,5.819c.064.9.392,1.454,1.393,1.356A3.041,3.041,0,0,0,82.078-1592.05Z" transform="translate(-5.734 -124.404)" fill="#f9cc62"/>
      <path id="Trazado_588025" data-name="Trazado 588025" d="M255.63-1602.319c0-1.646.046-3.293-.019-4.937-.032-.813.255-1.076,1.009-.958a.727.727,0,0,0,.126,0c3.33-.034,3.625.256,3.626,3.558,0,1.941.01,3.882,0,5.823-.012,1.724-.663,2.377-2.363,2.413-2.375.05-2.375.05-2.375-2.355Q255.63-1600.547,255.63-1602.319Z" transform="translate(-140.557 -122.463)" fill="#e3d9d4"/>
      <path id="Trazado_588026" data-name="Trazado 588026" d="M75.556-1763.244c.246-.868.7-1.355,1.716-1.14a3,3,0,0,0,1.623-.02c1.184-.466,1.289.034,1.273,1.047q-.076,4.728,0,9.457c.012.816-.195,1.16-1.04,1.043-1.15-.159-2.49.441-3.339-.87q.016-4.292.031-8.584C75.82-1762.646,75.855-1762.993,75.556-1763.244Z" transform="translate(-6.186 -5.789)" fill="#e3d9d4"/>
      <path id="Trazado_588027" data-name="Trazado 588027" d="M138.688-1580.188a4.791,4.791,0,0,0,.243-2.238,3.588,3.588,0,0,1,1.4-3.324,9.184,9.184,0,0,0,.968-1,1.488,1.488,0,0,0,.005-2.068,6.1,6.1,0,0,0-.97-.993,3.489,3.489,0,0,1-1.4-3.439,4.541,4.541,0,0,0-.248-2.111c1.941-.12,2.1-.045,1.983,1.867a5.071,5.071,0,0,0,1.9,4.432c1.315,1.146,1.314,1.429,0,2.582a5.077,5.077,0,0,0-1.9,4.434C140.791-1580.133,140.627-1580.057,138.688-1580.188Z" transform="translate(-53.299 -132.049)" fill="#f7bd4e"/>
      <path id="Trazado_588028" data-name="Trazado 588028" d="M75.049-1759.315c.3.251.264.6.263.932q-.014,4.292-.031,8.584a1.477,1.477,0,0,1-.4-1.146q-.005-3.957.009-7.913A1.511,1.511,0,0,1,75.049-1759.315Z" transform="translate(-5.679 -9.718)" fill="#bfb9b7"/>
      <path id="Trazado_588029" data-name="Trazado 588029" d="M116.968-1604.359a2.052,2.052,0,0,1-2.345-1.57C116.059-1606.383,116.383-1605.176,116.968-1604.359Z" transform="translate(-35.341 -124.113)" fill="#f7bd4e"/>
      <path id="Trazado_588030" data-name="Trazado 588030" d="M114.581-1529.748c.36-1.352,1.435-1.56,2.6-1.627-.459.489-.9,1-1.383,1.463C115.451-1529.577,115.05-1529.323,114.581-1529.748Z" transform="translate(-35.31 -179.826)" fill="#f7bd4e"/>
      <path id="Trazado_588031" data-name="Trazado 588031" d="M125.839-1745.176l.078.01c1.4,2.262,1.35,4.773,1.255,7.292-2.519.195-2.519.195-2.521-2.263,0-.253,0-.506,0-.758.009-.678-.231-1.188-.987-1.182-.706.006-.887.525-.91,1.129,0,.126,0,.253,0,.379-.059,3.011-.221,3.137-3.249,2.769-.486-.059-.654-.223-.644-.7.025-1.179-.053-2.364.037-3.537a3.538,3.538,0,0,1,3.492-3.338c1.007-.037,2.017.037,3.026.062Z" transform="translate(-38.495 -20.115)" fill="#f9cc62"/>
      <path id="Trazado_588032" data-name="Trazado 588032" d="M123.393-1700.843c-.953.217-1.442-.025-1.493-1.139a3.186,3.186,0,0,0-1.914-2.639,2.544,2.544,0,0,1-1.37-3.05c.119-.572.494-.478.854-.477q3.727.016,7.454.048a8.47,8.47,0,0,1-.5,3.7l-.007,0c-.227.007-.4.078-.429.34l.009-.011a.236.236,0,0,0-.258.258l0,0C124.183-1703.737,123.56-1702.953,123.393-1700.843Zm.057-6.58c-.673-.014-1.342.07-1.368.916-.029.927.675,1.027,1.4,1.028.677,0,1.356-.119,1.379-.932C124.885-1707.308,124.189-1707.454,123.45-1707.423Z" transform="translate(-38.258 -47.898)" fill="#7195cf"/>
      <path id="Trazado_588033" data-name="Trazado 588033" d="M147.959-1737.234c.1-2.519.144-5.03-1.255-7.292a3.331,3.331,0,0,1,2.566,3.194c.047.968-.05,1.946.036,2.909C149.4-1737.33,149.016-1736.942,147.959-1737.234Z" transform="translate(-59.283 -20.754)" fill="#f7bd4e"/>
      <path id="Trazado_588034" data-name="Trazado 588034" d="M149.66-1704.516a8.47,8.47,0,0,0,.495-3.7c.456.011,1.175-.355,1.269.293.138.945.4,2.04-.548,2.79A6.544,6.544,0,0,1,149.66-1704.516Z" transform="translate(-61.489 -47.785)" fill="#557bb6"/>
      <path id="Trazado_588035" data-name="Trazado 588035" d="M137.693-1688.054c.167-2.11.79-2.894,2.354-2.963-.252.574-.727,1.154-.713,1.722C139.368-1687.97,138.707-1687.847,137.693-1688.054Z" transform="translate(-52.558 -60.687)" fill="#557bb6"/>
      <path id="Trazado_588036" data-name="Trazado 588036" d="M136.934-1671.015c-.031.373-.208.63-.6.646a.5.5,0,0,1-.557-.519c-.03-.375.168-.515.514-.517C136.586-1671.407,136.879-1671.411,136.934-1671.015Z" transform="translate(-51.125 -75.323)" fill="#345b79"/>
      <path id="Trazado_588037" data-name="Trazado 588037" d="M147.941-1693.008c.025-.262.2-.333.429-.34Z" transform="translate(-60.206 -58.947)" fill="#557bb6"/>
      <path id="Trazado_588038" data-name="Trazado 588038" d="M146.96-1691.793a.236.236,0,0,1,.258-.258Z" transform="translate(-59.474 -59.916)" fill="#557bb6"/>
      <path id="Trazado_588039" data-name="Trazado 588039" d="M145.143-1744.965l-.426-.135Z" transform="translate(-57.8 -20.325)" fill="#f7bd4e"/>
      <path id="Trazado_588040" data-name="Trazado 588040" d="M95.108-1580.473c-1,.1-1.328-.457-1.393-1.356a5.778,5.778,0,0,1,3.794-5.819,5.734,5.734,0,0,1,6.7,2.149,5.785,5.785,0,0,1-.408,7.031,5.763,5.763,0,0,1-6.8,1.432c-.8-.38-1.4-.84-.935-1.848a1.389,1.389,0,0,1,1.53-.022,3.769,3.769,0,0,0,4.81-.886,3.793,3.793,0,0,0,.234-4.592,3.83,3.83,0,0,0-4.341-1.525,3.745,3.745,0,0,0-2.64,3.993A1.542,1.542,0,0,1,95.108-1580.473Z" transform="translate(-19.728 -137.569)" fill="#070606"/>
      <path id="Trazado_588041" data-name="Trazado 588041" d="M99.247-1574.863a1.542,1.542,0,0,0,.557-1.444,3.745,3.745,0,0,1,2.64-3.993,3.831,3.831,0,0,1,4.341,1.525,3.793,3.793,0,0,1-.234,4.592,3.769,3.769,0,0,1-4.81.886,1.389,1.389,0,0,0-1.53.022A3.04,3.04,0,0,1,99.247-1574.863Zm5.341-1.765h-.032c0-.252.016-.506,0-.757-.044-.581-.351-.983-.942-.984a.9.9,0,0,0-.947.966,13.4,13.4,0,0,0,.015,1.64.882.882,0,0,0,.917.861.851.851,0,0,0,.9-.723A7.621,7.621,0,0,0,104.588-1576.628Z" transform="translate(-23.867 -143.179)" fill="#df8ccb"/>
      <path id="Trazado_588042" data-name="Trazado 588042" d="M133.893-1705.281c.739-.032,1.434.114,1.409,1.011-.023.813-.7.933-1.379.932-.722,0-1.426-.1-1.4-1.028C132.551-1705.211,133.22-1705.3,133.893-1705.281Z" transform="translate(-48.7 -50.04)" fill="#090a0a"/>
      <path id="Trazado_588043" data-name="Trazado 588043" d="M114.584-1570.42a7.62,7.62,0,0,1-.087,1,.85.85,0,0,1-.9.722.882.882,0,0,1-.917-.861,13.4,13.4,0,0,1-.015-1.64.9.9,0,0,1,.947-.966c.59,0,.9.4.942.984.019.251,0,.5,0,.757Z" transform="translate(-33.863 -149.387)" fill="#090a0a"/>
    </g>
  </g>
</svg>
