<svg xmlns="http://www.w3.org/2000/svg" width="81.396" height="81.396" viewBox="0 0 81.396 81.396">
  <g id="Grupo_846496" data-name="Grupo 846496" transform="translate(-240 -1286.742)">
    <rect id="Rectángulo_38178" data-name="Rectángulo 38178" width="81.396" height="81.396" transform="translate(240 1286.742)" fill="none"/>
    <g id="Grupo_847396" data-name="Grupo 847396" transform="translate(-166.939 2651.635)">
      <path id="Trazado_587883" data-name="Trazado 587883" d="M490.293-1293.076l-1.531.047c-.356-.591-.938-.5-1.494-.5q-11.846,0-23.693,0h-1.236a6.1,6.1,0,0,0,1.551-3.909q0-9.667.008-19.335c0-.577-.117-1.035-.739-1.209l0-1.423c.837-.237.729-.918.729-1.55q0-10.242,0-20.484c0-1.436.352-1.779,1.791-1.779q20.371,0,40.742,0c1.52,0,1.826.306,1.826,1.846q0,21.715,0,43.431c0,2.858-1.577,4.405-4.451,4.411q-6.044.011-12.088,0A1.579,1.579,0,0,0,490.293-1293.076Zm-7.232-46.069a.336.336,0,0,0,.322-.306c.284-.64.169-1.153-.6-1.148a33.051,33.051,0,0,0-5.071.1.372.372,0,0,0-.327.368q-.179,4.516,0,9.032a.371.371,0,0,0,.325.366,35.627,35.627,0,0,0,5.071.094c.783.005.883-.509.6-1.146a.337.337,0,0,0-.324-.3,8.076,8.076,0,0,0-2.1-.082c-2.024-.018-2-.005-1.883-2.082.031-.537.2-.724.725-.688a7.21,7.21,0,0,0,1.334-.012c.6-.07.692-.5.52-.984-.16-.448-.587-.366-.953-.377-1.622-.052-1.622-.052-1.612-1.673a1.286,1.286,0,0,0,0-.222c-.121-.707.208-.874.871-.865A15.261,15.261,0,0,0,483.061-1339.145Zm-6.3,27.744c1.828,0,3.656.011,5.484,0a2,2,0,0,0,2.268-2.27q.027-5.484,0-10.968a2.007,2.007,0,0,0-2.3-2.241q-5.428-.016-10.855,0a2.042,2.042,0,0,0-2.336,2.333q-.021,5.372,0,10.744c0,1.678.72,2.395,2.374,2.4C473.184-1311.394,474.975-1311.4,476.766-1311.4Zm9.669,12.12H470.775a8.357,8.357,0,0,0-.894.016.821.821,0,0,0-.84.866.837.837,0,0,0,.883.828c.26.017.522.008.783.008h31.654a6.9,6.9,0,0,0,.782-.012.813.813,0,0,0,.829-.869.818.818,0,0,0-.873-.828c-.3-.022-.6-.008-.894-.008Zm.055-5.2h7.606c2.908,0,5.816-.005,8.724,0,.628,0,1.161-.135,1.149-.879-.012-.679-.531-.821-1.1-.825h-.447q-15.882,0-31.765,0a4.915,4.915,0,0,0-1,.069.755.755,0,0,0-.616.821.789.789,0,0,0,.677.78,5.1,5.1,0,0,0,.892.027Zm1.831-28.486c-.225-.682-.372-1.092-.495-1.509-.536-1.824-1.079-3.646-1.587-5.477-.177-.638-.585-.723-1.109-.573s-.8.454-.6,1.083q1.292,3.988,2.522,8a1.191,1.191,0,0,0,1.344.909,1.114,1.114,0,0,0,1.166-.984c.205-.977.467-1.942.779-3.219.313,1.286.578,2.255.776,3.237a1.1,1.1,0,0,0,1.171.97,1.143,1.143,0,0,0,1.3-.817c.842-2.7,1.68-5.41,2.547-8.107.231-.717-.147-.957-.715-1.1-.7-.175-.9.273-1.063.827-.624,2.178-1.266,4.351-1.991,6.835-.4-1.617-.721-2.91-1.031-4.207-.129-.541-.292-.993-.989-.99-.675,0-.879.4-1.009.965C489.041-1335.836,488.709-1334.551,488.32-1332.971Zm-17.5-3.267.183-.061c.091.151.189.3.272.454q1.214,2.264,2.422,4.531a1.19,1.19,0,0,0,1.4.64c.675-.125.587-.662.587-1.142,0-2.571-.014-5.141.01-7.712.006-.672-.16-1.07-.919-1.065-.784.005-.891.46-.88,1.1.025,1.5.008,3,.008,4.5a2.723,2.723,0,0,1-.692-.929c-.653-1.255-1.315-2.505-1.951-3.769a1.363,1.363,0,0,0-1.614-.873c-.819.171-.584.851-.589,1.363-.022,2.384-.014,4.768-.008,7.153,0,.66-.137,1.425.925,1.4.991-.022.84-.738.841-1.361Q470.821-1334.121,470.817-1336.238Zm28.719,5.747c1.92.012,3.14-.775,3.465-2.07a3.049,3.049,0,0,0-1.758-3.7c-.623-.333-1.286-.592-1.909-.926a.96.96,0,0,1-.586-1c.069-.522.439-.741.905-.86a2.83,2.83,0,0,1,1.955.25c.459.216.878.266,1.119-.282a.856.856,0,0,0-.526-1.264,5.012,5.012,0,0,0-2.415-.321c-1.581.177-2.55.934-2.794,2.157-.278,1.4.3,2.427,1.824,3.211.6.307,1.22.563,1.8.9a1.236,1.236,0,0,1,.648,1.42c-.151.667-.693.834-1.268.9a2.248,2.248,0,0,1-1.748-.6c-.4-.34-.818-.778-1.3-.137-.466.615-.209,1.125.328,1.534A3.963,3.963,0,0,0,499.536-1330.491ZM495.5-1319.97c-2.5,0-4.993.007-7.489,0-.652,0-1.281.077-1.249.887.029.741.65.779,1.246.778q7.322-.009,14.644,0c.62,0,1.3.015,1.3-.828s-.671-.835-1.3-.833C500.274-1319.967,497.889-1319.97,495.5-1319.97Zm-.23,8.565c2.5,0,4.993-.006,7.49,0,.612,0,1.189-.075,1.194-.827s-.576-.838-1.186-.837q-7.378.008-14.755,0c-.644,0-1.287.064-1.252.883.031.732.64.785,1.243.782C490.43-1311.412,492.852-1311.405,495.274-1311.405Zm.022-13.786q3.685,0,7.37,0c.624,0,1.292-.019,1.3-.847s-.643-.858-1.278-.857q-7.314.008-14.628,0c-.641,0-1.3.044-1.306.838s.644.872,1.286.87C490.458-1325.195,492.877-1325.191,495.3-1325.191Z" transform="translate(-33.646 -5.822)" fill="#eeefef"/>
      <path id="Trazado_587884" data-name="Trazado 587884" d="M456.647-1298.9a1.579,1.579,0,0,1,1.42-.458q6.044.013,12.088,0c2.874-.005,4.449-1.553,4.451-4.411q.012-21.715,0-43.431c0-1.54-.306-1.845-1.826-1.846q-20.37,0-40.742,0c-1.44,0-1.79.343-1.791,1.779q-.009,10.241,0,20.484c0,.631.108,1.312-.729,1.55-.939-.084-.945-.745-.946-1.459q-.007-7.364-.041-14.727c.024-.3-.172-.287-.375-.266l-2.9-.007c-.818-.017-1.636-.046-2.454-.048-1.955-.005-2.132.169-2.132,2.08q0,17.77,0,35.541a9.994,9.994,0,0,0,.073,1.448,3.693,3.693,0,0,0,3.146,3.156,1.107,1.107,0,0,0,.3.123,3.961,3.961,0,0,0,4.382-4.209q.023-9.373,0-18.747c0-.712,0-1.377.94-1.464.622.174.739.632.739,1.209q-.015,9.667-.008,19.335a6.1,6.1,0,0,1-1.551,3.909h1.236q11.846,0,23.693,0c.556,0,1.138-.089,1.494.5.146,1.022-.473,1.185-1.289,1.183-3.544-.009-7.089,0-10.633,0q-8.9,0-17.8,0c-4.208,0-6.421-2.216-6.421-6.409q0-17.91,0-35.819c0-2.477,1.056-3.536,3.526-3.539,1.716,0,3.433-.032,5.148.015.7.019.995-.129.948-.9-.07-1.152-.04-2.313-.011-3.469a2.836,2.836,0,0,1,2.787-2.908c.334-.025.671-.015,1.007-.015h40.07c2.94,0,3.847.918,3.847,3.891q0,21.435,0,42.87c0,3.986-2.25,6.272-6.206,6.286-4.029.013-8.059,0-12.088.007C457.152-1297.665,456.478-1297.8,456.647-1298.9Z" transform="translate(0 0)" fill="#080808"/>
      <path id="Trazado_587885" data-name="Trazado 587885" d="M442.264-1310.388l2.9.007.375.266q.024,7.364.041,14.727c0,.715.007,1.376.946,1.459l0,1.423c-.94.086-.941.752-.94,1.464q.013,9.373,0,18.746a3.961,3.961,0,0,1-4.382,4.209,1.115,1.115,0,0,1-.3-.123,1.475,1.475,0,0,1,.18-.516,5.207,5.207,0,0,0,1.2-3.722Q442.244-1291.418,442.264-1310.388Z" transform="translate(-17.011 -31.297)" fill="#cdcecf"/>
      <path id="Trazado_587886" data-name="Trazado 587886" d="M499.877-1254.854c-1.791,0-3.581.007-5.372,0-1.654-.009-2.369-.725-2.374-2.4q-.015-5.372,0-10.745a2.042,2.042,0,0,1,2.336-2.333q5.428-.016,10.855,0a2.007,2.007,0,0,1,2.3,2.241q.03,5.484,0,10.968a2,2,0,0,1-2.268,2.27C503.533-1254.843,501.705-1254.854,499.877-1254.854Zm-3.524-1.726c2.94.019,5.881.031,8.821.063.563.006.789-.184.786-.776q-.03-5.308,0-10.616c0-.516-.165-.745-.7-.739-3.052.036-6.1.053-9.155.077a5.132,5.132,0,0,1-2.259.072v9.72C493.84-1256.353,493.84-1256.353,496.353-1256.58Z" transform="translate(-56.758 -62.369)" fill="#0a0907"/>
      <path id="Trazado_587887" data-name="Trazado 587887" d="M509.646-1147.138h15.771c.3,0,.6-.014.894.008a.819.819,0,0,1,.873.828.813.813,0,0,1-.83.869,6.928,6.928,0,0,1-.782.012H493.919c-.261,0-.523.01-.783-.008a.837.837,0,0,1-.883-.828.821.821,0,0,1,.84-.866,8.39,8.39,0,0,1,.894-.015Z" transform="translate(-56.858 -157.965)" fill="#111"/>
      <path id="Trazado_587888" data-name="Trazado 587888" d="M509.683-1176.234H493.8a5.121,5.121,0,0,1-.892-.027.79.79,0,0,1-.677-.78.755.755,0,0,1,.616-.822,4.907,4.907,0,0,1,1-.069q15.882,0,31.765,0h.447c.573,0,1.092.146,1.1.825.013.744-.52.881-1.149.879-2.908-.009-5.816,0-8.724,0Z" transform="translate(-56.841 -134.072)" fill="#111"/>
      <path id="Trazado_587889" data-name="Trazado 587889" d="M564.931-1323.89c.389-1.58.721-2.865,1.017-4.158.129-.567.334-.963,1.009-.966.7,0,.86.45.989.99.31,1.3.634,2.591,1.031,4.208.726-2.484,1.367-4.657,1.991-6.835.159-.555.367-1,1.063-.827.567.142.945.383.715,1.1-.867,2.7-1.706,5.4-2.547,8.106a1.143,1.143,0,0,1-1.3.817,1.1,1.1,0,0,1-1.171-.97c-.2-.982-.463-1.95-.776-3.237-.313,1.277-.574,2.242-.779,3.219a1.114,1.114,0,0,1-1.166.984,1.191,1.191,0,0,1-1.344-.909q-1.224-4.01-2.522-8c-.2-.629.063-.93.6-1.083s.932-.065,1.109.573c.508,1.831,1.052,3.653,1.587,5.477C564.559-1324.982,564.706-1324.573,564.931-1323.89Z" transform="translate(-110.257 -14.902)" fill="#4e575d"/>
      <path id="Trazado_587890" data-name="Trazado 587890" d="M493.993-1327.164q0,2.117,0,4.234c0,.623.149,1.339-.841,1.361-1.062.024-.924-.741-.925-1.4-.006-2.384-.014-4.769.008-7.153,0-.511-.229-1.191.589-1.363a1.363,1.363,0,0,1,1.614.873c.635,1.264,1.3,2.514,1.951,3.769a2.721,2.721,0,0,0,.692.929c0-1.5.017-3-.008-4.5-.011-.644.1-1.1.88-1.1.759-.005.925.392.919,1.065-.023,2.571-.009,5.141-.01,7.712,0,.481.089,1.017-.587,1.143a1.19,1.19,0,0,1-1.4-.64q-1.2-2.27-2.422-4.531c-.083-.155-.181-.3-.272-.454Z" transform="translate(-56.822 -14.896)" fill="#4c555a"/>
      <path id="Trazado_587891" data-name="Trazado 587891" d="M529.162-1322.193q-.186-4.516,0-9.032a.376.376,0,0,0,.327-.368,33.037,33.037,0,0,1,5.071-.1c.773,0,.888.508.6,1.149l-.321.306a15.27,15.27,0,0,1-3.1.073c-.664-.009-.992.158-.871.865a1.294,1.294,0,0,1,0,.222c-.01,1.621-.01,1.621,1.612,1.673.366.012.793-.071.953.377.172.482.083.913-.52.984a7.231,7.231,0,0,1-1.334.012c-.521-.036-.694.15-.725.688-.12,2.076-.141,2.063,1.883,2.082a8.05,8.05,0,0,1,2.1.083l.324.3c.279.637.179,1.151-.6,1.146a35.646,35.646,0,0,1-5.071-.094A.375.375,0,0,0,529.162-1322.193Z" transform="translate(-85.426 -14.727)" fill="#4e575d"/>
      <path id="Trazado_587892" data-name="Trazado 587892" d="M618.532-1321.736a3.966,3.966,0,0,1-2.265-.78c-.537-.409-.795-.919-.328-1.534.486-.642.9-.2,1.3.137a2.247,2.247,0,0,0,1.748.6c.575-.067,1.117-.235,1.268-.9a1.236,1.236,0,0,0-.648-1.42c-.578-.336-1.2-.592-1.8-.9-1.521-.784-2.1-1.815-1.824-3.211.244-1.223,1.212-1.98,2.794-2.156a5.011,5.011,0,0,1,2.415.321.856.856,0,0,1,.526,1.264c-.24.548-.659.5-1.119.282a2.828,2.828,0,0,0-1.955-.25c-.467.119-.837.338-.906.86a.96.96,0,0,0,.586,1c.623.334,1.285.594,1.909.927a3.048,3.048,0,0,1,1.758,3.7C621.673-1322.511,620.453-1321.724,618.532-1321.736Z" transform="translate(-152.642 -14.577)" fill="#4e575d"/>
      <path id="Trazado_587893" data-name="Trazado 587893" d="M580.093-1239.475c2.385,0,4.769,0,7.154,0,.626,0,1.3,0,1.3.833s-.68.829-1.3.828q-7.322,0-14.644,0c-.6,0-1.217-.037-1.246-.778-.032-.81.6-.89,1.249-.887C575.1-1239.468,577.6-1239.475,580.093-1239.475Z" transform="translate(-118.235 -86.318)" fill="#020202"/>
      <path id="Trazado_587894" data-name="Trazado 587894" d="M579.86-1206.978c-2.422,0-4.844-.007-7.266.005-.6,0-1.212-.05-1.243-.782-.035-.819.608-.883,1.252-.883q7.378.009,14.755,0c.609,0,1.191.081,1.186.837s-.583.829-1.194.827C584.853-1206.984,582.357-1206.978,579.86-1206.978Z" transform="translate(-118.232 -110.248)" fill="#020202"/>
      <path id="Trazado_587895" data-name="Trazado 587895" d="M579.843-1268.661c-2.419,0-4.839,0-7.258,0-.642,0-1.3-.073-1.286-.87s.665-.839,1.306-.838q7.314.013,14.628,0c.635,0,1.284.033,1.278.857s-.674.848-1.3.847Q583.528-1268.663,579.843-1268.661Z" transform="translate(-118.193 -62.352)" fill="#111"/>
      <path id="Trazado_587896" data-name="Trazado 587896" d="M529.8-1331.074a.376.376,0,0,1-.327.368A.372.372,0,0,1,529.8-1331.074Z" transform="translate(-85.739 -15.246)" fill="#61696e"/>
      <path id="Trazado_587897" data-name="Trazado 587897" d="M529.48-1289.122a.375.375,0,0,1,.325.366A.371.371,0,0,1,529.48-1289.122Z" transform="translate(-85.744 -47.798)" fill="#61696e"/>
      <path id="Trazado_587898" data-name="Trazado 587898" d="M554.825-1326.091l.321-.306A.336.336,0,0,1,554.825-1326.091Z" transform="translate(-105.41 -18.875)" fill="#4c555a"/>
      <path id="Trazado_587899" data-name="Trazado 587899" d="M555.138-1293.229l-.323-.3A.336.336,0,0,1,555.138-1293.229Z" transform="translate(-105.402 -44.376)" fill="#4c555a"/>
      <path id="Trazado_587900" data-name="Trazado 587900" d="M431.1-1310.554q0,18.97.014,37.94a5.208,5.208,0,0,1-1.2,3.722,1.477,1.477,0,0,0-.18.516,3.693,3.693,0,0,1-3.146-3.156,10,10,0,0,1-.073-1.448q-.006-17.771,0-35.541c0-1.911.177-2.085,2.132-2.08C429.468-1310.6,430.286-1310.57,431.1-1310.554Z" transform="translate(-5.851 -31.131)" fill="#e7e8e9"/>
      <path id="Trazado_587901" data-name="Trazado 587901" d="M460.314-1310.127l-.375-.266C460.142-1310.414,460.338-1310.425,460.314-1310.127Z" transform="translate(-31.785 -31.286)" fill="#d6d7d8"/>
      <path id="Trazado_587902" data-name="Trazado 587902" d="M509.865-1262.7c3.052-.023,6.1-.041,9.155-.076.539-.006.706.223.7.739q-.021,5.308,0,10.616c0,.592-.223.782-.786.776-2.94-.032-5.881-.044-8.821-.062q-.01-5.293-.018-10.586A2.562,2.562,0,0,0,509.865-1262.7Z" transform="translate(-70.524 -68.24)" fill="#fdcd70"/>
      <path id="Trazado_587903" data-name="Trazado 587903" d="M502.044-1262.435a2.562,2.562,0,0,1,.236,1.406q.005,5.293.018,10.586c-2.513.227-2.513.227-2.513-2.2v-9.72A5.132,5.132,0,0,0,502.044-1262.435Z" transform="translate(-62.703 -68.505)" fill="#dfb462"/>
    </g>
  </g>
</svg>
