<svg xmlns="http://www.w3.org/2000/svg" width="81.396" height="81.396" viewBox="0 0 81.396 81.396">
  <g id="Grupo_847297" data-name="Grupo 847297" transform="translate(-240 -1286.742)">
    <rect id="Rectángulo_38178" data-name="Rectángulo 38178" width="81.396" height="81.396" transform="translate(240 1286.742)" fill="none"/>
    <g id="Grupo_847230" data-name="Grupo 847230" transform="translate(3520.075 589.23)">
      <path id="Trazado_587345" data-name="Trazado 587345" d="M-3256.039,763.859a35.779,35.779,0,0,1,.09-6.335c.293-1.607-.451-2.159-1.425-2.957a27.854,27.854,0,0,1-9.156-29.778,27.871,27.871,0,0,1,23.81-20.245,27.932,27.932,0,0,1,30.28,19.5,27.939,27.939,0,0,1-13.636,33.673,1.878,1.878,0,0,0-1.159,1.974,48.2,48.2,0,0,1-1.121,8.642,4.876,4.876,0,0,1-4.815,3.644c-2.071.067-4.147.057-6.218,0a7.122,7.122,0,0,1-4.074-1.375,2.655,2.655,0,0,0-1.7-.626c-.808.026-1.673-.222-1.649,1.15.012.661-.68.952-1.378.949-2.117-.008-4.234,0-6.351-.007-1.14-.006-1.512-.692-1.506-1.729C-3256.03,768.182-3256.039,766.02-3256.039,763.859Zm20.385-9.488c-.168,0-.34.014-.307.24s.2.185.358.123l4.125.03a4.95,4.95,0,0,1,1.934.808,1.381,1.381,0,0,0,1.767.109A25.513,25.513,0,0,0-3214,728.618a25.908,25.908,0,0,0-22-21.451,25.4,25.4,0,0,0-27.6,17.238,25.46,25.46,0,0,0,11.526,30.662,7.315,7.315,0,0,0,4.477.6c.909-.061,1.287-1,1.484-1.693.187-.653-.721-.56-1.141-.724a21.809,21.809,0,0,1-14.047-21.3,21.8,21.8,0,0,1,15.061-20.176c1.028-.343,1.9-.437,2.429.746.081,1.293-.869,1.547-1.817,1.876a19.053,19.053,0,0,0-13.029,18.327,19.125,19.125,0,0,0,13.09,18.3c.825.286,1.32.276,1.791-.588.758-1.388,1.678-2.686,2.516-4.031a1.5,1.5,0,0,1,1.6-.906,6.167,6.167,0,0,1,4.923,4.923c.108,1.132.528.971,1.287.745,8.7-2.59,14.727-12.171,13.258-21.277-1.25-7.747-5.769-12.839-13.056-15.546-.911-.339-1.778-.616-1.7-1.827a1.5,1.5,0,0,1,2.04-.876c9.972,2.793,16.971,13.447,15.347,23.63-1.491,9.353-6.661,15.706-15.765,18.687Zm-10.6,3.73c-.73.15-.474.738-.478,1.164-.022,2.225-.029,4.45.005,6.675.006.436-.264.952.217,1.322a7.388,7.388,0,0,1,5.117,1.495,2.137,2.137,0,0,0,1.468.447,32.328,32.328,0,0,0,7.168.01,2.106,2.106,0,0,0,1.909-1.89c.378-2.429.733-4.865.985-7.309.142-1.382-.648-2.2-2.111-2.507l-5.532-.122c-1.751-.91-2.06-1.9-1.124-3.615.315-.577.665-1.137.952-1.727a2.173,2.173,0,0,0-.868-3.057c-.607-.392-.981-.454-1.427.3-1.368,2.3-2.839,4.534-4.259,6.8A5.309,5.309,0,0,1-3246.25,758.1Zm-3.1,5.9V761.36c0-3.052,0-3.019-3.031-3-.822.006-1.043.234-1.025,1.044.054,2.333.019,4.669.019,7,0,3.186,0,3.166,3.223,3.032.619-.025.844-.169.826-.815C-3249.381,767.088-3249.353,765.545-3249.352,764Z" transform="translate(0)" fill="#070705"/>
      <path id="Trazado_587346" data-name="Trazado 587346" d="M-3209.825,733.8c-.077,1.212.79,1.489,1.7,1.828,7.288,2.708,11.807,7.8,13.057,15.546,1.469,9.106-4.559,18.687-13.258,21.277-.758.226-1.178.386-1.287-.746a6.167,6.167,0,0,0-4.923-4.923,1.505,1.505,0,0,0-1.6.906c-.837,1.345-1.758,2.643-2.516,4.031-.471.864-.966.874-1.792.588a19.125,19.125,0,0,1-13.09-18.3,19.054,19.054,0,0,1,13.029-18.327c.948-.329,1.9-.583,1.817-1.876a12.645,12.645,0,0,1,3.087-.3c.3.628.687,1.153,1.472,1.08a1.37,1.37,0,0,0,1.263-1.3Zm-12.934,26.361c-.056,1.056-.142,2.111-.161,3.168-.025,1.442.753,2,2.128,1.509q2.858-1.019,5.687-2.121a2.242,2.242,0,0,1,1.764,0c1.841.726,3.7,1.409,5.559,2.086,1.522.554,2.287.011,2.24-1.605-.057-1.937-.132-3.875-.255-5.809a2.542,2.542,0,0,1,.617-1.921c1.265-1.525,2.49-3.083,3.7-4.654.886-1.152.59-2.05-.814-2.465-1.94-.573-3.893-1.108-5.847-1.632a2.26,2.26,0,0,1-1.425-1.047c-1.059-1.673-2.171-3.313-3.287-4.949-.922-1.352-1.823-1.349-2.742.006-1.087,1.6-2.169,3.21-3.2,4.845a2.564,2.564,0,0,1-1.635,1.19c-1.959.507-3.911,1.043-5.85,1.623-1.246.373-1.532,1.28-.763,2.325a23.77,23.77,0,0,0,2.057,2.581C-3223.1,755.221-3221.994,757.374-3222.759,760.158Z" transform="translate(-25.133 -21.284)" fill="#fbe753"/>
      <path id="Trazado_587347" data-name="Trazado 587347" d="M-3227.512,719.765l-3.039-.506c-.165-.766-.578-1.329-1.408-1.3-.919.029-1.239.7-1.327,1.518a12.649,12.649,0,0,0-3.087.3c-.524-1.182-1.4-1.089-2.429-.746a21.8,21.8,0,0,0-15.061,20.176,21.809,21.809,0,0,0,14.047,21.3c.42.164,1.328.072,1.141.724-.2.689-.575,1.632-1.484,1.693a7.317,7.317,0,0,1-4.477-.6,25.46,25.46,0,0,1-11.526-30.662,25.4,25.4,0,0,1,27.6-17.238,25.908,25.908,0,0,1,22,21.451,25.512,25.512,0,0,1-13.772,27.062,1.381,1.381,0,0,1-1.766-.109,4.954,4.954,0,0,0-1.934-.808c-.349-.893-1.482.018-1.859-.81,9.1-2.981,14.274-9.333,15.765-18.687,1.624-10.183-5.375-20.838-15.347-23.63A1.5,1.5,0,0,0-3227.512,719.765Z" transform="translate(-7.447 -7.252)" fill="#f9eb99"/>
      <path id="Trazado_587348" data-name="Trazado 587348" d="M-3181.028,892.349a2.139,2.139,0,0,1-1.468-.446,7.388,7.388,0,0,0-5.117-1.495,3.5,3.5,0,0,0,.2-1.547q.024-3.807.055-7.613a5.309,5.309,0,0,0,2.023-2.02c1.42-2.267,2.891-4.5,4.259-6.8.447-.751.82-.69,1.428-.3a2.173,2.173,0,0,1,.868,3.057c-.288.59-.637,1.15-.952,1.727-.936,1.717-.628,2.7,1.124,3.615a9.422,9.422,0,0,0,5.532.122c1.463.3,2.253,1.125,2.111,2.507-.252,2.445-.607,4.88-.985,7.31a2.107,2.107,0,0,1-1.909,1.89c-.435-.434-.993-.288-1.49-.257C-3177.241,892.222-3179.158,891.773-3181.028,892.349Z" transform="translate(-58.892 -123.147)" fill="#fcd8d3"/>
      <path id="Trazado_587349" data-name="Trazado 587349" d="M-3209.627,913.969c0,1.542-.029,3.085.013,4.625.017.645-.207.789-.826.814-3.225.134-3.224.153-3.224-3.032,0-2.335.035-4.671-.019-7-.018-.81.2-1.038,1.025-1.044,3.031-.022,3.031-.055,3.031,3Z" transform="translate(-39.726 -149.966)" fill="#f9f9f9"/>
      <path id="Trazado_587350" data-name="Trazado 587350" d="M-3188.155,907.349q-.028,3.807-.055,7.614a3.494,3.494,0,0,1-.2,1.547c-.481-.369-.211-.886-.217-1.322-.034-2.224-.027-4.45-.005-6.675C-3188.628,908.087-3188.885,907.5-3188.155,907.349Z" transform="translate(-58.095 -149.248)" fill="#cbb5b1"/>
      <path id="Trazado_587351" data-name="Trazado 587351" d="M-3162.747,948.433c1.87-.576,3.787-.126,5.678-.247.5-.032,1.056-.177,1.491.256A32.332,32.332,0,0,1-3162.747,948.433Z" transform="translate(-77.173 -179.231)" fill="#cbb5b1"/>
      <path id="Trazado_587352" data-name="Trazado 587352" d="M-3144.321,891.689c.377.827,1.51-.083,1.86.81l-4.126-.03-.051-.362Z" transform="translate(-89.016 -137.735)" fill="#f5f2a0"/>
      <path id="Trazado_587353" data-name="Trazado 587353" d="M-3148.079,904.759a9.421,9.421,0,0,1-5.532-.122Z" transform="translate(-83.89 -147.255)" fill="#feeae5"/>
      <path id="Trazado_587354" data-name="Trazado 587354" d="M-3147.5,893.264q.026.181.051.363c-.155.062-.323.113-.357-.123S-3147.67,893.26-3147.5,893.264Z" transform="translate(-88.152 -138.893)" fill="#908858"/>
      <path id="Trazado_587355" data-name="Trazado 587355" d="M-3205.942,777.948c.766-2.784-.339-4.936-2.233-6.876a23.79,23.79,0,0,1-2.057-2.581c-.769-1.046-.483-1.953.764-2.325,1.938-.58,3.89-1.117,5.85-1.623a2.563,2.563,0,0,0,1.634-1.19c1.036-1.636,2.118-3.243,3.205-4.845.919-1.355,1.82-1.358,2.742-.006,1.115,1.636,2.228,3.276,3.286,4.949a2.262,2.262,0,0,0,1.426,1.047c1.954.525,3.906,1.059,5.846,1.632,1.4.415,1.7,1.313.815,2.465-1.207,1.571-2.433,3.13-3.7,4.654a2.541,2.541,0,0,0-.617,1.921c.123,1.934.2,3.872.255,5.809.047,1.617-.718,2.159-2.24,1.605-1.86-.677-3.718-1.36-5.559-2.086a2.241,2.241,0,0,0-1.764,0q-2.826,1.105-5.687,2.121c-1.375.49-2.154-.066-2.128-1.509C-3206.083,780.059-3206,779-3205.942,777.948Zm18.186-9.709c-1.7-.473-3.2-.947-4.729-1.3a3.348,3.348,0,0,1-2.243-1.653c-.812-1.336-1.722-2.613-2.677-4.045-1.011,1.511-1.968,2.869-2.842,4.278a2.877,2.877,0,0,1-1.847,1.351c-1.608.414-3.2.882-4.8,1.327.037.183.024.292.072.337,2.991,2.8,4.381,6.131,3.5,10.253-.149.7.283.772.757.5a9.789,9.789,0,0,1,10.318-.007c.688.388.8-.02.764-.641-.083-1.406-.081-2.818-.183-4.222a2.842,2.842,0,0,1,.712-2.173C-3189.9,771-3188.917,769.7-3187.756,768.239Z" transform="translate(-41.95 -39.074)" fill="#070603"/>
      <path id="Trazado_587356" data-name="Trazado 587356" d="M-3165.814,729.888c.088-.818.408-1.488,1.326-1.518.831-.027,1.244.537,1.409,1.3a1.37,1.37,0,0,1-1.263,1.3C-3165.127,731.041-3165.519,730.516-3165.814,729.888Z" transform="translate(-74.918 -17.666)" fill="#0d0c06"/>
      <path id="Trazado_587357" data-name="Trazado 587357" d="M-3177.3,778.651c-1.161,1.464-2.145,2.759-3.191,4a2.842,2.842,0,0,0-.712,2.173c.1,1.4.1,2.816.183,4.222.036.621-.076,1.029-.763.641a9.789,9.789,0,0,0-10.318.007c-.474.272-.906.2-.758-.5.879-4.122-.51-7.457-3.5-10.253-.048-.045-.036-.154-.072-.337,1.594-.445,3.189-.913,4.8-1.327a2.876,2.876,0,0,0,1.846-1.351c.874-1.409,1.831-2.767,2.842-4.278.955,1.432,1.865,2.708,2.677,4.045a3.348,3.348,0,0,0,2.243,1.653C-3180.5,777.7-3178.992,778.178-3177.3,778.651Z" transform="translate(-52.41 -49.486)" fill="#fbec9a"/>
    </g>
  </g>
</svg>
