<svg xmlns="http://www.w3.org/2000/svg" xmlns:xlink="http://www.w3.org/1999/xlink" width="211" height="211" viewBox="0 0 211 211">
  <defs>
    <filter id="Elipse_7415" x="0" y="0" width="211" height="211" filterUnits="userSpaceOnUse">
      <feOffset dx="5" dy="5" input="SourceAlpha"/>
      <feGaussianBlur stdDeviation="12.5" result="blur"/>
      <feFlood flood-opacity="0.09"/>
      <feComposite operator="in" in2="blur"/>
      <feComposite in="SourceGraphic"/>
    </filter>
  </defs>
  <g id="Grupo_848434" data-name="Grupo 848434" transform="translate(-703.5 -4888.855)">
    <g transform="matrix(1, 0, 0, 1, 703.5, 4888.85)" filter="url(#Elipse_7415)">
      <g id="Elipse_7415-2" data-name="Elipse 7415" transform="translate(32.5 32.5)" fill="#f6f6f6" stroke="#fff" stroke-width="5">
        <circle cx="68" cy="68" r="68" stroke="none"/>
        <circle cx="68" cy="68" r="65.5" fill="none"/>
      </g>
    </g>
    <g id="Grupo_847524" data-name="Grupo 847524" transform="translate(-235.959 4845.833)">
      <path id="Trazado_588277" data-name="Trazado 588277" d="M1006.964,143.57c0-7.775.053-15.551-.032-23.325a6.118,6.118,0,0,1,2.726-5.359,21.006,21.006,0,0,1,8.663-3.431,46.044,46.044,0,0,1,23.162,1.109,14.73,14.73,0,0,1,5.175,2.8,5.59,5.59,0,0,1,2.118,4.614c-.076,2.747.009,5.5-.036,8.247-.012.761.143,1.071.975,1.029,1.372-.07,2.749-.036,4.124-.014,1.085.017,1.552-.484,1.543-1.567-.023-3.007-.018-6.014,0-9.021.012-2.45,1.287-3.706,3.741-3.724.773-.005,1.547.006,2.32,0,1.517-.016,2.952.307,3.881-1.689.781-1.677,3.166-1.992,4.931-1.257a4.4,4.4,0,0,1,2.709,4.535,4.449,4.449,0,0,1-3.37,3.8,4.214,4.214,0,0,1-4.805-2.136,1.554,1.554,0,0,0-1.748-1.033c-1.2.054-2.405.011-3.608.014-1.667.005-1.874.2-1.877,1.834-.005,2.921.009,5.842-.006,8.763-.012,2.388-1.277,3.648-3.656,3.666-1.417.011-2.836.03-4.253-.01-.64-.018-.906.123-.9.84.038,3.135.032,6.271,0,9.407-.006.638.222.794.819.792,4.683-.019,9.366-.033,14.049.011.813.007.845-.564,1.095-1.016a4.4,4.4,0,1,1,4.905,6.361,4.316,4.316,0,0,1-4.946-2.337,1.265,1.265,0,0,0-1.329-.875q-6.766.064-13.533,0c-.846-.007-1.076.226-1.067,1.078q.068,6.636,0,13.273c-.007.8.145,1.139,1.036,1.091,1.457-.078,2.921-.046,4.381-.013a3.247,3.247,0,0,1,3.385,3.425c.03,1.933,0,3.866.01,5.8.006,1.5.293,1.77,1.829,1.781.773.006,1.547-.014,2.32,0,1.44.035,2.68.14,3.533-1.624.812-1.678,3.137-2.08,4.913-1.4a4.427,4.427,0,0,1,2.819,4.468,4.485,4.485,0,0,1-3.51,3.964,4.234,4.234,0,0,1-4.673-2.185,1.629,1.629,0,0,0-1.859-1.07c-1.371.072-2.749.039-4.124.013a3.217,3.217,0,0,1-3.418-3.375c-.036-2.018-.028-4.038,0-6.057.014-1.089-.468-1.571-1.554-1.549-1.374.029-2.752.06-4.123-.014-.848-.046-1,.285-.963,1.036.059,1.243-.048,2.495.029,3.736a5.58,5.58,0,0,1-2.439,4.976,20.355,20.355,0,0,1-8.849,3.623,46.691,46.691,0,0,1-22.558-.861,16.285,16.285,0,0,1-5.5-2.73,6.007,6.007,0,0,1-2.49-5.089C1007.009,159.121,1006.964,151.346,1006.964,143.57Zm2.51,25.024-.018-.017a.537.537,0,0,0,.306.506l-.009,0a4.327,4.327,0,0,0,1.944,1.8,16.277,16.277,0,0,0,4.117,1.791,44.8,44.8,0,0,0,19,1.132,25.348,25.348,0,0,0,8.361-2.441c1.248-.65,2.528-1.313,3.092-2.754l-.009,0,.143-.336c.328-4.064.1-8.135.115-12.2,0-.906-.568-.3-.836-.123a17.383,17.383,0,0,1-5.736,2.527c-10.54,2.5-20.854,2.466-30.757-2.833,0,1.511-.026,3.09.006,4.668.054,2.654-.163,5.311.123,7.961Zm.018-16.508-.023-.024c.009.228.047.436.319.494l0,0c.276.907,1.085,1.295,1.785,1.749a15.971,15.971,0,0,0,4.226,1.864,44.605,44.605,0,0,0,19.133,1.123,23.477,23.477,0,0,0,9.132-2.925,4.312,4.312,0,0,0,2.344-2.586c.354-3.772.129-7.549.117-11.325.092-.144.118-.336-.038-.394-.206-.077-.355.084-.443.277a22.358,22.358,0,0,1-6.933,2.982,47.947,47.947,0,0,1-16.1,1.076,30.545,30.545,0,0,1-11.39-2.934c-.781-.4-1.52-.878-2.443-1.417.106,4.037-.155,7.886.148,11.733C1009.3,151.922,1009.33,152.041,1009.492,152.086Zm36.949-15.746c.394-4.168.081-8.346.154-12.518.007-.416-.277-.317-.477-.063a19.743,19.743,0,0,1-6.047,2.793,47.508,47.508,0,0,1-19.285,1.08,26.985,26.985,0,0,1-9.677-2.938c-.611-.337-1.195-.722-1.929-1.169,0,1.535-.023,2.865,0,4.193.059,2.872-.159,5.749.12,8.618a.4.4,0,0,0,.244.481l-.006-.011c.22.918.98,1.37,1.665,1.859a15.823,15.823,0,0,0,5.023,2.241,44.394,44.394,0,0,0,17.464,1.161,27.113,27.113,0,0,0,9.72-2.728c1.114-.6,2.288-1.193,2.756-2.525l-.007.01C1046.412,136.752,1046.426,136.545,1046.441,136.34Zm-.27-16.011c.243-.084.268-.277.25-.493.388-1.251-.354-2.058-1.168-2.774a13.563,13.563,0,0,0-5.367-2.685,44.515,44.515,0,0,0-21.789-.595,17.726,17.726,0,0,0-7.208,2.947c-1,.754-1.964,1.6-1.586,3.1a.412.412,0,0,0,.244.494l-.007-.011a3.268,3.268,0,0,0,1.562,1.785,15.794,15.794,0,0,0,5.129,2.313,44.431,44.431,0,0,0,17.339,1.18,27.328,27.328,0,0,0,9.848-2.744,5.008,5.008,0,0,0,2.762-2.525Zm24.59,51.822a2.233,2.233,0,0,0-2.167-2.253,2.282,2.282,0,0,0-2.254,2.183,2.253,2.253,0,0,0,2.184,2.243A2.213,2.213,0,0,0,1070.761,172.151Zm-2.143-26.411a2.214,2.214,0,0,0-.118-4.427,2.214,2.214,0,1,0,.118,4.427Zm2.139-29.687a2.181,2.181,0,0,0-2.177-2.21,2.218,2.218,0,0,0-2.236,2.169,2.248,2.248,0,0,0,2.195,2.222A2.208,2.208,0,0,0,1070.757,116.053Z" fill="#040607"/>
      <path id="Trazado_588278" data-name="Trazado 588278" d="M1015.745,297.95c-.286-2.65-.069-5.308-.123-7.961-.032-1.578-.006-3.157-.006-4.668,9.9,5.3,20.217,5.336,30.757,2.833a17.383,17.383,0,0,0,5.736-2.527c.267-.181.839-.783.836.123-.016,4.068.213,8.138-.115,12.2l-.143.336.008,0a27.438,27.438,0,0,1-4.743,2.478,43.777,43.777,0,0,1-18.354,1.857,36.885,36.885,0,0,1-10.2-2.344c-1.114-.439-1.956-1.422-3.219-1.52l.009,0c.038-.253-.008-.456-.306-.506l.018.016Z" transform="translate(-6.427 -129.684)" fill="#2487fc"/>
      <path id="Trazado_588279" data-name="Trazado 588279" d="M1015.711,173.83c-.279-2.869-.061-5.746-.12-8.618-.028-1.329,0-2.658,0-4.193.734.447,1.318.831,1.929,1.169a26.985,26.985,0,0,0,9.676,2.938,47.508,47.508,0,0,0,19.285-1.08,19.742,19.742,0,0,0,6.047-2.793c.028.984.064,1.968.084,2.953.063,3.213-.122,6.428.1,9.639l-.139.473.007-.01a32.638,32.638,0,0,1-5.148,2.554,46.355,46.355,0,0,1-22.993.926,25.182,25.182,0,0,1-8.488-3.487l.006.011A.41.41,0,0,0,1015.711,173.83Z" transform="translate(-6.406 -37.493)" fill="#9ac7fd"/>
      <path id="Trazado_588280" data-name="Trazado 588280" d="M1015.741,236.775c-.3-3.847-.042-7.7-.148-11.733.924.539,1.662,1.02,2.443,1.417a30.546,30.546,0,0,0,11.39,2.934,47.948,47.948,0,0,0,16.1-1.076,22.359,22.359,0,0,0,6.933-2.982l.48.117c.011,3.775.237,7.553-.117,11.325a16.821,16.821,0,0,1-7.437,3.594,46.092,46.092,0,0,1-17.062.993,30.131,30.131,0,0,1-9.737-2.64c-.8-.382-1.423-1.121-2.384-1.171l0,0a.37.37,0,0,0-.319-.494l.023.024Z" transform="translate(-6.423 -84.999)" fill="#56a3fd"/>
      <path id="Trazado_588281" data-name="Trazado 588281" d="M1015.875,126.224c-.378-1.495.587-2.344,1.586-3.1a17.726,17.726,0,0,1,7.208-2.947,44.515,44.515,0,0,1,21.789.595,13.564,13.564,0,0,1,5.367,2.685c.814.716,1.557,1.523,1.168,2.773a.432.432,0,0,0-.25.493l.007-.01a30.852,30.852,0,0,1-5.15,2.548,46.3,46.3,0,0,1-22.995.928,25.457,25.457,0,0,1-8.495-3.485l.007.011A.429.429,0,0,0,1015.875,126.224Z" transform="translate(-6.574 -6.396)" fill="#bbd9fd"/>
      <path id="Trazado_588282" data-name="Trazado 588282" d="M1017.052,212.5a25.182,25.182,0,0,0,8.488,3.487,46.355,46.355,0,0,0,22.993-.926,32.637,32.637,0,0,0,5.148-2.554c-.468,1.332-1.643,1.928-2.756,2.525a27.114,27.114,0,0,1-9.72,2.728,44.393,44.393,0,0,1-17.464-1.161,15.823,15.823,0,0,1-5.023-2.241C1018.032,213.87,1017.272,213.418,1017.052,212.5Z" transform="translate(-7.509 -75.693)" fill="#2785f3"/>
      <path id="Trazado_588283" data-name="Trazado 588283" d="M1017.035,148.554a25.457,25.457,0,0,0,8.5,3.485,46.3,46.3,0,0,0,22.995-.928,30.852,30.852,0,0,0,5.15-2.548,5.009,5.009,0,0,1-2.762,2.525,27.326,27.326,0,0,1-9.848,2.744,44.431,44.431,0,0,1-17.339-1.18,15.794,15.794,0,0,1-5.129-2.313A3.268,3.268,0,0,1,1017.035,148.554Z" transform="translate(-7.497 -28.243)" fill="#579ff2"/>
      <path id="Trazado_588284" data-name="Trazado 588284" d="M1017.987,271.306c.961.05,1.585.789,2.384,1.171a30.132,30.132,0,0,0,9.737,2.64,46.092,46.092,0,0,0,17.062-.993,16.821,16.821,0,0,0,7.437-3.594,4.313,4.313,0,0,1-2.344,2.587,23.477,23.477,0,0,1-9.132,2.925A44.605,44.605,0,0,1,1024,274.919a15.969,15.969,0,0,1-4.226-1.864C1019.072,272.6,1018.263,272.213,1017.987,271.306Z" transform="translate(-8.203 -118.752)" fill="#036be9"/>
      <path id="Trazado_588285" data-name="Trazado 588285" d="M1017.866,336.238c1.262.1,2.1,1.081,3.218,1.52a36.883,36.883,0,0,0,10.2,2.343,43.776,43.776,0,0,0,18.354-1.857,27.443,27.443,0,0,0,4.743-2.478c-.563,1.441-1.844,2.1-3.092,2.754a25.349,25.349,0,0,1-8.361,2.441,44.8,44.8,0,0,1-19-1.132,16.276,16.276,0,0,1-4.117-1.791A4.327,4.327,0,0,1,1017.866,336.238Z" transform="translate(-8.113 -167.159)" fill="#016ae9"/>
      <path id="Trazado_588286" data-name="Trazado 588286" d="M1241.635,343.022a2.213,2.213,0,0,1-2.237,2.173,2.253,2.253,0,0,1-2.184-2.243,2.282,2.282,0,0,1,2.254-2.183A2.233,2.233,0,0,1,1241.635,343.022Zm-1.145.025c.152-.79-.042-1.17-.968-1.154-.856.015-1.2.184-1.183,1.126.015.857.281,1.08,1.1,1.066C1240.22,344.071,1240.71,343.958,1240.489,343.046Z" transform="translate(-170.874 -170.871)" fill="#a2e107"/>
      <path id="Trazado_588287" data-name="Trazado 588287" d="M1239.49,234.389a2.214,2.214,0,1,1-.118-4.427,2.214,2.214,0,0,1,.118,4.427Zm1-2.144c.137-.768.007-1.2-.95-1.172-.823.028-1.234.127-1.2,1.1.028.82.224,1.123,1.081,1.088C1240.167,233.232,1240.718,233.186,1240.488,232.244Z" transform="translate(-170.872 -88.649)" fill="#a2e107"/>
      <path id="Trazado_588288" data-name="Trazado 588288" d="M1241.642,125.691a2.208,2.208,0,0,1-2.219,2.18,2.248,2.248,0,0,1-2.194-2.222,2.218,2.218,0,0,1,2.236-2.169A2.181,2.181,0,0,1,1241.642,125.691Zm-1.143.013c.194-.779,0-1.2-.989-1.173-.845.02-1.233.18-1.165,1.117.051.7.027,1.233,1,1.16C1240.088,126.753,1240.764,126.818,1240.5,125.7Z" transform="translate(-170.885 -9.638)" fill="#a5e608"/>
      <path id="Trazado_588289" data-name="Trazado 588289" d="M1159.013,173.881c-.223-3.211-.038-6.426-.1-9.639-.019-.984-.055-1.969-.084-2.953.2-.254.484-.353.477.063-.073,4.173.24,8.35-.154,12.518A.753.753,0,0,0,1159.013,173.881Z" transform="translate(-112.71 -37.53)" fill="#7ea3c6"/>
      <path id="Trazado_588290" data-name="Trazado 588290" d="M1159.005,225.443l-.48-.117c.087-.193.237-.353.443-.277C1159.123,225.107,1159.1,225.3,1159.005,225.443Z" transform="translate(-112.485 -84.99)" fill="#4685c6"/>
      <path id="Trazado_588291" data-name="Trazado 588291" d="M1016.1,146.683a.429.429,0,0,1,.244.494A.412.412,0,0,1,1016.1,146.683Z" transform="translate(-6.794 -26.855)" fill="#579ff2"/>
      <path id="Trazado_588292" data-name="Trazado 588292" d="M1159,147.207a.432.432,0,0,1,.25-.493C1159.263,146.93,1159.238,147.124,1159,147.207Z" transform="translate(-112.824 -26.878)" fill="#579ff2"/>
      <path id="Trazado_588293" data-name="Trazado 588293" d="M1016.112,210.68a.41.41,0,0,1,.244.481A.4.4,0,0,1,1016.112,210.68Z" transform="translate(-6.807 -74.342)" fill="#2785f3"/>
      <path id="Trazado_588294" data-name="Trazado 588294" d="M1159.148,210.7a.752.752,0,0,1,.138-.011c-.016.205-.029.412-.276.484Z" transform="translate(-112.845 -74.348)" fill="#2785f3"/>
      <path id="Trazado_588295" data-name="Trazado 588295" d="M1016.767,271.631a.37.37,0,0,1,.319.494C1016.814,272.067,1016.776,271.859,1016.767,271.631Z" transform="translate(-7.298 -119.569)" fill="#036be9"/>
      <path id="Trazado_588296" data-name="Trazado 588296" d="M1016.716,335.652c.3.05.344.252.306.506A.537.537,0,0,1,1016.716,335.652Z" transform="translate(-7.26 -167.074)" fill="#016ae9"/>
      <path id="Trazado_588297" data-name="Trazado 588297" d="M1016.165,270.521l.175.311C1016.177,270.787,1016.146,270.668,1016.165,270.521Z" transform="translate(-6.847 -118.746)" fill="#036be9"/>
      <path id="Trazado_588298" data-name="Trazado 588298" d="M1016.18,334.444l.156.328Z" transform="translate(-6.862 -166.178)" fill="#016ae9"/>
      <path id="Trazado_588299" data-name="Trazado 588299" d="M1159.376,334.785l.143-.336Z" transform="translate(-113.117 -166.182)" fill="#016ae9"/>
      <path id="Trazado_588300" data-name="Trazado 588300" d="M1243.723,346.277c.22.912-.269,1.025-1.049,1.038-.82.014-1.087-.209-1.1-1.066-.016-.942.327-1.112,1.183-1.126C1243.681,345.107,1243.876,345.487,1243.723,346.277Z" transform="translate(-174.108 -174.101)" fill="#000100"/>
      <path id="Trazado_588301" data-name="Trazado 588301" d="M1243.723,235.438c.23.941-.321.987-1.07,1.017-.857.035-1.053-.268-1.081-1.088-.033-.974.377-1.073,1.2-1.1C1243.73,234.233,1243.86,234.67,1243.723,235.438Z" transform="translate(-174.107 -91.842)" fill="#000100"/>
      <path id="Trazado_588302" data-name="Trazado 588302" d="M1243.69,128.723c.265,1.114-.412,1.049-1.154,1.1-.973.073-.949-.458-1-1.16-.068-.937.32-1.1,1.165-1.117C1243.69,127.526,1243.884,127.944,1243.69,128.723Z" transform="translate(-174.076 -12.657)" fill="#0b0f00"/>
    </g>
  </g>
</svg>
