<svg xmlns="http://www.w3.org/2000/svg" xmlns:xlink="http://www.w3.org/1999/xlink" width="211" height="211" viewBox="0 0 211 211">
  <defs>
    <filter id="Elipse_7457" x="0" y="0" width="211" height="211" filterUnits="userSpaceOnUse">
      <feOffset dx="5" dy="5" input="SourceAlpha"/>
      <feGaussianBlur stdDeviation="12.5" result="blur"/>
      <feFlood flood-opacity="0.09"/>
      <feComposite operator="in" in2="blur"/>
      <feComposite in="SourceGraphic"/>
    </filter>
  </defs>
  <g id="Grupo_848437" data-name="Grupo 848437" transform="translate(9452.231 6780.619)">
    <g transform="matrix(1, 0, 0, 1, -9452.23, -6780.62)" filter="url(#Elipse_7457)">
      <g id="Elipse_7457-2" data-name="Elipse 7457" transform="translate(32.5 32.5)" fill="#f6f6f6" stroke="#fff" stroke-width="5">
        <circle cx="68" cy="68" r="68" stroke="none"/>
        <circle cx="68" cy="68" r="65.5" fill="none"/>
      </g>
    </g>
    <g id="Grupo_847527" data-name="Grupo 847527" transform="translate(-11430.598 -6832.529)">
      <path id="Trazado_588364" data-name="Trazado 588364" d="M2050.037,156.531c0-6.121.107-11.958-.05-17.788a4.646,4.646,0,0,1,3.114-4.85,32.707,32.707,0,0,1,9.86-2.312A68.174,68.174,0,0,1,2086,132.664a19.706,19.706,0,0,1,1.948.578c4.044,1.381,4.714,2.317,4.714,6.541,0,3.394.04,6.79-.025,10.183-.019.982.257,1.229,1.218,1.2,2.61-.069,5.222-.044,7.833-.011.735.009,1.243-.062,1.546-.889a3.921,3.921,0,0,1,2.379-2.358c.757-.276.865-.723.846-1.41-.038-1.409-.087-2.825.014-4.228.074-1.039-.342-1.2-1.247-1.171-2.192.06-4.387-.006-6.58.034-.723.013-.992-.162-.99-.944q.04-12.847,0-25.695c0-.741.2-.978.959-.975q9.087.043,18.175,0c.762,0,.96.235.958.975q-.034,12.848,0,25.695c0,.782-.268.957-.99.944-2.193-.04-4.388.027-6.58-.034-.907-.025-1.371.135-1.239,1.172a12.551,12.551,0,0,1,.012,2.191c-.085,1.706-.007,3.007,1.855,4.173,3.024,1.9,2.446,6.468-.8,8.139a1.594,1.594,0,0,0-1.064,1.753,29.534,29.534,0,0,1-.007,3.914c-.087,1.089.347,1.286,1.32,1.256,2.139-.067,4.283.011,6.423-.037.785-.017,1.08.155,1.077,1.019q-.049,12.769,0,25.538c0,.8-.188,1.067-1.034,1.062q-9.009-.055-18.019,0c-.83.005-1.047-.23-1.044-1.051q.043-12.769,0-25.538c0-.851.266-1.051,1.066-1.03,1.983.053,3.979-.108,5.95.057,1.594.134,2.006-.446,1.794-1.892a8.649,8.649,0,0,1-.006-2.034c.14-1.51.1-2.848-1.713-3.43a2.09,2.09,0,0,1-1.148-1.22c-.457-1.482-1.493-1.548-2.766-1.508-2.3.073-4.6.071-6.893,0-1.009-.033-1.319.233-1.3,1.278.065,3.864-.05,7.731.057,11.592a4.069,4.069,0,0,1-2.376,4.035c-2.857,1.535-6,2.048-9.149,2.534-.051.008-.1.009-.156.015-1.037.12-2.3-.079-3.051.447-.838.585-.27,1.923-.319,2.926a.871.871,0,0,1-.79.951c-.407.09-.81.2-1.214.3-2.234.573-2.486,1.027-1.17,2.937.9,1.306.888,2.13-.382,3.194a55.337,55.337,0,0,0-4.556,4.522c-.574.608-1.052.761-1.687.186a1.159,1.159,0,0,0-.135-.077c-2.635-1.807-3.259-1.515-3.836,1.566-.177.943-.539,1.281-1.535,1.246-2.348-.082-4.7-.082-7.049,0-1,.035-1.423-.29-1.531-1.248a7.832,7.832,0,0,0-.422-1.665,1.244,1.244,0,0,0-1.948-.793c-.912.415-1.66,1.615-2.677,1.228-.849-.323-1.445-1.312-2.148-2.012-1.222-1.216-2.405-2.473-3.671-3.64a1.076,1.076,0,0,1-.187-1.686c1.974-2.864,1.6-3.4-1.624-3.987-.95-.173-1.114-.637-1.093-1.5.057-2.349.074-4.7-.007-7.049-.034-.99.278-1.432,1.242-1.532a8.076,8.076,0,0,0,1.517-.374c1.134-.35,1.467-1.007.866-2.115-1.354-2.5-1.337-2.511.732-4.581,1.181-1.182,2.394-2.335,3.533-3.557C2048.479,156.13,2049.024,155.592,2050.037,156.531Zm12.225-2.924c.961-.064,1.575.243,1.626,1.339a5.891,5.891,0,0,0,.374,1.512,1.259,1.259,0,0,0,2.029.84c2.635-1.327,2.639-1.318,4.715.758a3.256,3.256,0,0,1,.438.445c1.821,2.724,4.327,3.26,7.427,2.665,3.324-.638,6.707-.978,9.8-2.492.679-.333,1.482-.622,1.482-1.612,0-2.069,0-4.138,0-6.288-1.507.473-2.863.993-4.264,1.322a70.031,70.031,0,0,1-23.623,1.033,37.078,37.078,0,0,1-9.592-2.412v6.76a4.29,4.29,0,0,0,1.093-2.715c.2-.881.579-1.151,1.479-1.13C2057.581,153.687,2059.922,153.624,2062.262,153.607Zm6.035,32.284c.2-.162.449-.331.66-.535a17.01,17.01,0,0,1,1.789-1.749c1.4-1,1.618-2,.522-3.423-.778-1.01.546-4.209,1.825-4.378,1.815-.24,2.331-1.162,2.027-2.824a3.617,3.617,0,0,1,0-1.249c.272-1.56-.247-2.361-1.924-2.586-1.41-.189-2.748-3.345-1.9-4.45,1.061-1.378.846-2.353-.482-3.3a4.182,4.182,0,0,1-.994-.994c-.911-1.312-1.861-1.479-3.179-.458-1.024.793-4.307-.406-4.443-1.651-.222-2.041-1.354-2.4-3.06-2.135a2.444,2.444,0,0,1-.781,0c-1.7-.293-2.706.2-2.92,2.108-.13,1.157-3.41,2.509-4.29,1.774-1.5-1.253-2.537-.812-3.538.563a3.632,3.632,0,0,1-.885.881c-1.376.919-1.377,1.9-.407,3.179.771,1.019-.461,4.277-1.707,4.425-1.918.228-2.38,1.236-2.1,2.927a4.07,4.07,0,0,1,0,1.25c-.227,1.474.234,2.275,1.855,2.472,1.3.158,2.862,3.353,2.093,4.289-1.336,1.625-.83,2.722.64,3.771a2.789,2.789,0,0,1,.662.663c.937,1.348,1.94,1.55,3.3.475.918-.727,4.226.484,4.352,1.614.232,2.069,1.364,2.5,3.158,2.22a6.619,6.619,0,0,1,1.874,0c.926.126,1.369-.256,1.455-1.137.129-1.327.853-1.939,2.1-2.495a2.97,2.97,0,0,1,3.523.3A5.976,5.976,0,0,0,2068.3,185.891Zm21.853-44.986a65.025,65.025,0,0,1-37.6-.013v2.7c0,4.833-.013,4.887,4.819,6.054a64.7,64.7,0,0,0,22.412,1.01,30.445,30.445,0,0,0,8.8-2.072c.73-.314,1.6-.575,1.576-1.686C2090.126,144.878,2090.15,142.856,2090.15,140.905Zm25.073-13.547c0-3.389-.025-6.778.017-10.167.011-.844-.168-1.171-1.1-1.16-4.275.049-8.552.043-12.827,0-.853-.008-1.157.186-1.153,1.1q.058,10.167,0,20.335c0,.843.168,1.171,1.1,1.16,4.275-.049,8.552-.061,12.826.006,1.06.017,1.159-.4,1.148-1.271C2115.2,134.032,2115.223,130.7,2115.223,127.358Zm-15.038,50.118c0,3.389.03,6.779-.021,10.167-.013.89.236,1.14,1.129,1.131q6.413-.069,12.827,0c.893.009,1.126-.258,1.122-1.135q-.051-10.167,0-20.334c.005-.889-.236-1.14-1.128-1.13q-6.413.068-12.827,0c-.894-.009-1.135.258-1.123,1.135C2100.214,170.7,2100.185,174.087,2100.185,177.477Zm-28.863-36.353a63.234,63.234,0,0,0,9.822-.664,26.014,26.014,0,0,0,7.959-2.154c.408-.2.944-.4.971-.919.03-.544-.529-.729-.923-.946a13.8,13.8,0,0,0-3.513-1.277,65.78,65.78,0,0,0-25.007-.744,23.077,23.077,0,0,0-7.178,2.062c-1.035.527-1.181,1.164-.042,1.724a17.15,17.15,0,0,0,2.6,1.044A54.743,54.743,0,0,0,2071.322,141.123Zm18.831,19.643c-4.71,2.223-9.514,2.807-14.359,3.09a1.95,1.95,0,0,0-2.036,1.714c-.2,1.108.727,1.509,1.674,1.578,1.815.133,2.551,1.02,2.2,2.831-.083.429-.138,1,.647.907,3.734-.417,7.459-.865,10.9-2.547a1.557,1.557,0,0,0,.994-1.59C2090.115,164.828,2090.153,162.9,2090.153,160.766Zm20.052-8.29a2.5,2.5,0,1,0-2.536,2.428A2.538,2.538,0,0,0,2110.2,152.476Z" transform="translate(0)" fill="#060504"/>
      <path id="Trazado_588365" data-name="Trazado 588365" d="M2073.676,279.044a6,6,0,0,1-.774-.452,2.969,2.969,0,0,0-3.523-.3c-1.251.556-1.976,1.168-2.1,2.495-.086.881-.529,1.263-1.455,1.137a6.619,6.619,0,0,0-1.874,0c-1.794.277-2.925-.151-3.158-2.22-.127-1.13-3.434-2.341-4.352-1.614-1.358,1.075-2.361.873-3.3-.475a2.789,2.789,0,0,0-.662-.663c-1.47-1.05-1.976-2.147-.64-3.771.769-.936-.79-4.131-2.093-4.289-1.621-.2-2.082-1-1.855-2.472a4.062,4.062,0,0,0,0-1.25c-.275-1.691.187-2.7,2.1-2.927,1.246-.148,2.478-3.405,1.707-4.425-.97-1.283-.969-2.26.407-3.179a3.631,3.631,0,0,0,.885-.881c1-1.375,2.038-1.816,3.539-.563.879.735,4.16-.617,4.29-1.774.215-1.911,1.221-2.4,2.92-2.108a2.442,2.442,0,0,0,.781,0c1.706-.266,2.838.094,3.06,2.135.136,1.245,3.418,2.444,4.443,1.651,1.318-1.02,2.268-.854,3.179.458a4.176,4.176,0,0,0,.993.994c1.328.946,1.542,1.92.482,3.3-.85,1.105.488,4.261,1.9,4.45,1.676.225,2.2,1.026,1.923,2.586a3.629,3.629,0,0,0,0,1.249c.3,1.662-.211,2.584-2.027,2.824-1.279.169-2.6,3.368-1.825,4.378,1.1,1.423.877,2.424-.522,3.423a17.007,17.007,0,0,0-1.789,1.749C2074.124,278.713,2073.878,278.882,2073.676,279.044Zm1.8-13.429a11.28,11.28,0,1,0-11.244,11.278A11.3,11.3,0,0,0,2075.472,265.615Z" transform="translate(-5.378 -93.153)" fill="#f8c228"/>
      <path id="Trazado_588366" data-name="Trazado 588366" d="M2117.664,200.81c0,1.951-.024,3.973.01,5.993.019,1.112-.846,1.373-1.576,1.686a30.438,30.438,0,0,1-8.8,2.072,64.7,64.7,0,0,1-22.412-1.01c-4.833-1.166-4.819-1.221-4.819-6.054v-2.7A65.025,65.025,0,0,0,2117.664,200.81Zm-13.836,7.637c.424-.331,1.721.483,1.477-.973-.1-.607.435-1.807-.97-1.6-.622.09-1.789-.419-1.591.981C2102.833,207.481,2102.308,208.589,2103.828,208.447Zm5.233-.526c.361-.227,1.587.43,1.269-.918-.15-.637.3-1.9-1.193-1.6-.687.139-1.745-.159-1.421,1.176C2107.874,207.231,2107.526,208.354,2109.061,207.922Zm3.484-2.391c.46.488-.24,1.8,1.053,1.612.6-.088,1.815.177,1.725-.964-.047-.59.094-1.783-1.04-1.706C2113.68,204.515,2112.653,204.339,2112.545,205.531Z" transform="translate(-27.514 -59.905)" fill="#f6d36e"/>
      <path id="Trazado_588367" data-name="Trazado 588367" d="M2246.968,132.844c0,3.337-.025,6.674.017,10.011.011.871-.089,1.288-1.149,1.271-4.275-.068-8.551-.056-12.826-.006-.93.011-1.1-.317-1.1-1.16q.045-10.168,0-20.335c0-.918.3-1.112,1.153-1.1,4.275.039,8.552.045,12.827,0,.929-.011,1.108.316,1.1,1.16C2246.943,126.065,2246.968,129.454,2246.968,132.844Zm-7.37-3.788c-1.353,0-2.713.081-4.058-.025-1.1-.087-1.122.458-1.13,1.288-.009.857.072,1.314,1.145,1.276,2.5-.089,5-.065,7.494-.01.969.021,1.467-.057,1.471-1.281,0-1.25-.54-1.312-1.487-1.262C2241.89,129.1,2240.743,129.056,2239.6,129.056Zm.006,5.014c-1.354,0-2.713.081-4.058-.025-1.092-.086-1.134.442-1.136,1.282s.057,1.32,1.139,1.282c2.5-.09,5-.064,7.494-.011.96.02,1.476-.041,1.477-1.275s-.526-1.32-1.481-1.268C2241.9,134.118,2240.748,134.07,2239.6,134.07Zm-.043,5.014c-1.354,0-2.71.061-4.059-.02-.946-.057-1.162.327-1.08,1.166.067.685-.227,1.435,1.013,1.393,2.652-.091,5.311-.094,7.962,0,1.162.042,1.04-.566,1.09-1.329.061-.924-.165-1.313-1.181-1.234C2242.064,139.157,2240.809,139.084,2239.56,139.084Zm.011-15.042c-1.353,0-2.714.085-4.058-.026-1.146-.094-1.065.53-1.1,1.314-.044.9.139,1.282,1.169,1.249,2.6-.082,5.207-.092,7.806,0,1.143.042,1.063-.535,1.1-1.318.045-.9-.136-1.328-1.17-1.246C2242.076,124.117,2240.821,124.041,2239.571,124.041Z" transform="translate(-131.745 -5.485)" fill="#e2e5e9"/>
      <path id="Trazado_588368" data-name="Trazado 588368" d="M2231.929,292.725c0-3.389.029-6.779-.019-10.167-.012-.877.229-1.144,1.123-1.135q6.413.067,12.827,0c.892-.01,1.133.242,1.128,1.13q-.055,10.167,0,20.334c0,.876-.229,1.144-1.122,1.135q-6.413-.067-12.827,0c-.893.009-1.142-.241-1.129-1.131C2231.96,299.5,2231.929,296.114,2231.929,292.725Zm7.483,8.773c1.354,0,2.709-.031,4.062.013.7.022,1.031-.121,1.007-.926-.055-1.873-.043-3.75,0-5.624.014-.7-.133-1.017-.931-1-2.707.046-5.417.037-8.124,0-.7-.008-1.031.122-1.007.927.056,1.873.065,3.751,0,5.623-.032.889.336,1.029,1.094,1C2236.807,301.462,2238.11,301.5,2239.412,301.5Zm.046-15.042c1.3,0,2.609-.082,3.9.025,1.1.091,1.118-.463,1.129-1.289.011-.86-.077-1.312-1.147-1.274-2.5.088-5,.066-7.494.009-.973-.022-1.464.063-1.469,1.283-.006,1.253.545,1.307,1.489,1.26C2237.061,286.411,2238.26,286.456,2239.458,286.456Zm-.14,5.014c1.406,0,2.815-.066,4.215.021,1.143.071.91-.653.936-1.3.029-.711.088-1.287-.988-1.255q-3.9.116-7.806,0c-1.057-.033-1.258.322-1.284,1.306-.028,1.085.37,1.308,1.336,1.248C2236.92,291.414,2238.121,291.47,2239.318,291.47Z" transform="translate(-131.744 -115.248)" fill="#e2e5e9"/>
      <path id="Trazado_588369" data-name="Trazado 588369" d="M2098.984,185.007a54.742,54.742,0,0,1-15.307-1.876,17.158,17.158,0,0,1-2.6-1.044c-1.138-.56-.993-1.2.042-1.724a23.078,23.078,0,0,1,7.179-2.062,65.777,65.777,0,0,1,25.006.744,13.8,13.8,0,0,1,3.513,1.277c.394.217.953.4.923.946-.028.517-.563.715-.972.919a26.012,26.012,0,0,1-7.959,2.154A63.234,63.234,0,0,1,2098.984,185.007Zm6.605-2.569h1.887q.319.07.251-.249V180.3q.07-.319-.25-.251h-1.887q-.319-.071-.251.249,0,.944,0,1.887Q2105.27,182.507,2105.589,182.438Zm-7.891-.249V180.3q.07-.319-.25-.251h-1.887q-.32-.071-.251.249v1.887q-.07.319.249.251h1.887Q2097.766,182.508,2097.7,182.189Zm-10.278-2.138h-1.887q-.319-.071-.251.249v1.887q-.07.319.25.251h1.887q.319.07.251-.249V180.3Q2087.74,179.982,2087.42,180.051Zm4.1-.029c-1.014-.232-1.346.145-1.325,1.194.019.959.192,1.354,1.262,1.32.956-.029,1.364-.193,1.318-1.264C2092.74,180.339,2092.636,179.742,2091.524,180.022Zm8.759,1.023c-.076.861-.178,1.636,1.094,1.476.765-.1,1.588.154,1.419-1.135-.1-.764.15-1.6-1.136-1.413C2100.92,180.081,2099.953,179.751,2100.284,181.044Zm12.488.282c.2-.957-.032-1.436-1.156-1.368-.885.053-1.438.069-1.357,1.219.063.884.074,1.449,1.222,1.352C2112.339,182.457,2113.079,182.511,2112.772,181.326Z" transform="translate(-27.662 -43.884)" fill="#f6e3a2"/>
      <path id="Trazado_588370" data-name="Trazado 588370" d="M2111.041,234.669a70.031,70.031,0,0,0,23.623-1.033c1.4-.329,2.757-.849,4.264-1.322,0,2.15,0,4.219,0,6.288,0,.99-.8,1.279-1.482,1.612-3.091,1.514-6.474,1.855-9.8,2.492-3.1.595-5.605.058-7.426-2.665a3.254,3.254,0,0,0-.438-.445c-2.076-2.076-2.081-2.085-4.715-.758a1.259,1.259,0,0,1-2.029-.84,5.891,5.891,0,0,1-.374-1.512c-.051-1.1-.665-1.4-1.626-1.339Z" transform="translate(-48.777 -81.539)" fill="#fae6a4"/>
      <path id="Trazado_588371" data-name="Trazado 588371" d="M2164.037,264.176c0,2.135-.038,4.062.018,5.985a1.557,1.557,0,0,1-.994,1.59c-3.437,1.681-7.163,2.13-10.9,2.547-.786.088-.73-.478-.647-.908.35-1.811-.386-2.7-2.2-2.831-.947-.07-1.871-.47-1.674-1.578a1.95,1.95,0,0,1,2.036-1.714C2154.523,266.983,2159.327,266.4,2164.037,264.176Zm-8.864,7.482c.366-.492,1.789.477,1.52-.986-.113-.617.364-1.938-1.137-1.638-.643.128-1.8-.21-1.457,1.143C2154.242,270.749,2153.8,271.806,2155.173,271.658Zm5.4-3.672c-.393.576-1.777-.19-1.565,1.163.095.6-.159,1.7.849,1.623.614-.049,1.9.257,1.824-.992C2161.647,269.183,2161.722,268.165,2160.576,267.987Z" transform="translate(-73.884 -103.41)" fill="#f3d06c"/>
      <path id="Trazado_588372" data-name="Trazado 588372" d="M2252.981,232.1a2.5,2.5,0,1,1-2.388-2.574A2.534,2.534,0,0,1,2252.981,232.1Z" transform="translate(-142.777 -79.624)" fill="#f17b68"/>
      <path id="Trazado_588373" data-name="Trazado 588373" d="M2090.046,234.546v.477c-2.339.017-4.68.08-7.019.026-.9-.021-1.275.25-1.479,1.13a4.293,4.293,0,0,1-1.093,2.715v-6.76A37.075,37.075,0,0,0,2090.046,234.546Z" transform="translate(-27.783 -81.416)" fill="#f6e3a2"/>
      <path id="Trazado_588374" data-name="Trazado 588374" d="M2086.63,276.779a11.28,11.28,0,1,1-11.238-11.281A11.3,11.3,0,0,1,2086.63,276.779Zm-2.513,0a8.766,8.766,0,1,0-8.768,8.766A8.78,8.78,0,0,0,2084.116,276.778Z" transform="translate(-16.536 -104.317)" fill="#070602"/>
      <path id="Trazado_588375" data-name="Trazado 588375" d="M2153.428,219.5c-1.52.141-.995-.966-1.084-1.6-.2-1.4.969-.891,1.591-.982,1.406-.2.869,1,.97,1.6C2155.149,219.986,2153.852,219.173,2153.428,219.5Z" transform="translate(-77.114 -70.961)" fill="#151209"/>
      <path id="Trazado_588376" data-name="Trazado 588376" d="M2169.462,217.9c-1.535.432-1.187-.691-1.345-1.343-.323-1.335.734-1.037,1.421-1.176,1.5-.3,1.043.964,1.193,1.6C2171.049,218.334,2169.823,217.677,2169.462,217.9Z" transform="translate(-87.915 -69.887)" fill="#151209"/>
      <path id="Trazado_588377" data-name="Trazado 588377" d="M2183.649,213.572c.108-1.192,1.135-1.016,1.739-1.057,1.133-.077.993,1.115,1.04,1.706.09,1.141-1.123.876-1.725.964C2183.409,215.373,2184.109,214.061,2183.649,213.572Z" transform="translate(-98.618 -67.947)" fill="#151209"/>
      <path id="Trazado_588378" data-name="Trazado 588378" d="M2245.068,145.484c1.146,0,2.293.046,3.435-.014.947-.05,1.491.012,1.487,1.262,0,1.224-.5,1.3-1.471,1.281-2.5-.055-5-.079-7.494.01-1.073.038-1.154-.42-1.145-1.276.009-.83.03-1.374,1.13-1.288C2242.355,145.564,2243.715,145.484,2245.068,145.484Z" transform="translate(-137.216 -21.913)" fill="#040404"/>
      <path id="Trazado_588379" data-name="Trazado 588379" d="M2245.075,161.474c1.145,0,2.293.048,3.435-.015.956-.053,1.483.028,1.482,1.268s-.517,1.3-1.477,1.275c-2.5-.053-5-.079-7.494.011-1.082.039-1.142-.435-1.139-1.282s.044-1.368,1.136-1.282C2242.362,161.555,2243.722,161.474,2245.075,161.474Z" transform="translate(-137.217 -32.89)" fill="#040404"/>
      <path id="Trazado_588380" data-name="Trazado 588380" d="M2245.024,177.467c1.25,0,2.5.073,3.746-.023,1.016-.078,1.242.31,1.181,1.234-.051.764.073,1.372-1.09,1.329-2.651-.1-5.311-.093-7.962,0-1.24.043-.946-.707-1.013-1.393-.082-.839.134-1.222,1.08-1.166C2242.314,177.528,2243.671,177.467,2245.024,177.467Z" transform="translate(-137.209 -43.869)" fill="#040404"/>
      <path id="Trazado_588381" data-name="Trazado 588381" d="M2245.033,129.491c1.249,0,2.5.076,3.746-.024,1.034-.082,1.216.342,1.171,1.246-.039.783.041,1.36-1.1,1.318-2.6-.1-5.206-.085-7.806,0-1.031.032-1.214-.346-1.17-1.249.039-.783-.043-1.408,1.1-1.314C2242.319,129.576,2243.68,129.491,2245.033,129.491Z" transform="translate(-137.206 -10.935)" fill="#040404"/>
      <path id="Trazado_588382" data-name="Trazado 588382" d="M2244.89,328.936c-1.3,0-2.605-.036-3.906.014-.758.029-1.126-.111-1.094-1,.068-1.872.058-3.75,0-5.623-.024-.8.308-.935,1.007-.927,2.708.032,5.417.042,8.125,0,.8-.013.945.3.93,1-.039,1.874-.051,3.75,0,5.624.024.8-.307.949-1.007.926C2247.6,328.906,2246.244,328.936,2244.89,328.936Zm-.063-2.511a8.53,8.53,0,0,1,1.247.01c1.094.164,1.45-.25,1.388-1.357-.046-.826-.17-1.25-1.112-1.168a14.85,14.85,0,0,1-2.65,0c-1.018-.095-1.3.257-1.318,1.284-.017,1.093.4,1.357,1.354,1.239A8.983,8.983,0,0,1,2244.827,326.425Z" transform="translate(-137.222 -142.687)" fill="#030303"/>
      <path id="Trazado_588383" data-name="Trazado 588383" d="M2244.864,291.914c-1.2,0-2.4-.045-3.591.014-.944.047-1.494-.007-1.489-1.26.005-1.22.5-1.3,1.469-1.283,2.5.056,5,.079,7.495-.009,1.07-.038,1.158.414,1.147,1.274-.011.827-.025,1.38-1.129,1.289C2247.473,291.832,2246.165,291.914,2244.864,291.914Z" transform="translate(-137.15 -120.706)" fill="#040404"/>
      <path id="Trazado_588384" data-name="Trazado 588384" d="M2244.751,307.909c-1.2,0-2.4-.056-3.591.018-.966.06-1.364-.163-1.335-1.248.026-.984.227-1.339,1.284-1.306q3.9.12,7.806,0c1.075-.032,1.016.543.987,1.255-.026.648.207,1.373-.937,1.3C2247.566,307.842,2246.156,307.909,2244.751,307.909Z" transform="translate(-137.177 -131.687)" fill="#040404"/>
      <path id="Trazado_588385" data-name="Trazado 588385" d="M2113.242,185.485c1.112-.279,1.215.317,1.255,1.251.046,1.071-.362,1.234-1.318,1.264-1.071.033-1.243-.362-1.262-1.32C2111.9,185.631,2112.228,185.254,2113.242,185.485Z" transform="translate(-49.379 -49.348)" fill="#060504"/>
      <path id="Trazado_588386" data-name="Trazado 588386" d="M2143.93,186.493c-.331-1.294.637-.963,1.376-1.072,1.287-.188,1.036.648,1.136,1.413.169,1.289-.654,1.039-1.419,1.135C2143.752,188.129,2143.854,187.354,2143.93,186.493Z" transform="translate(-71.308 -49.333)" fill="#060504"/>
      <path id="Trazado_588387" data-name="Trazado 588387" d="M2178.382,186.787c.307,1.185-.433,1.131-1.292,1.2-1.148.1-1.159-.469-1.222-1.352-.082-1.15.472-1.166,1.356-1.219C2178.35,185.351,2178.58,185.83,2178.382,186.787Z" transform="translate(-93.272 -49.345)" fill="#060504"/>
      <path id="Trazado_588388" data-name="Trazado 588388" d="M2098.373,188.118h-1.887l-.25-.251V185.98l.25-.249h1.888l.249.251v1.887Z" transform="translate(-38.616 -49.564)" fill="#030303"/>
      <path id="Trazado_588389" data-name="Trazado 588389" d="M2128.218,187.867V185.98l.251-.249h1.887l.25.251v1.887l-.251.249h-1.887Z" transform="translate(-60.569 -49.564)" fill="#030303"/>
      <path id="Trazado_588390" data-name="Trazado 588390" d="M2160.45,185.731h1.887l.25.251v1.887l-.251.249h-1.887l-.25-.251q0-.944,0-1.887Z" transform="translate(-82.521 -49.564)" fill="#030303"/>
      <path id="Trazado_588391" data-name="Trazado 588391" d="M2096.461,185.7l-.251.249Q2096.141,185.633,2096.461,185.7Z" transform="translate(-38.59 -49.536)" fill="#0b0a07"/>
      <path id="Trazado_588392" data-name="Trazado 588392" d="M2103.3,185.955l-.25-.251C2103.267,185.659,2103.351,185.742,2103.3,185.955Z" transform="translate(-43.296 -49.537)" fill="#0b0a07"/>
      <path id="Trazado_588393" data-name="Trazado 588393" d="M2128.443,185.7l-.251.249Q2128.124,185.633,2128.443,185.7Z" transform="translate(-60.543 -49.536)" fill="#0b0a07"/>
      <path id="Trazado_588394" data-name="Trazado 588394" d="M2135.286,185.955l-.25-.251Q2135.355,185.636,2135.286,185.955Z" transform="translate(-65.249 -49.537)" fill="#0b0a07"/>
      <path id="Trazado_588395" data-name="Trazado 588395" d="M2160.424,185.7l-.25.249Q2160.105,185.633,2160.424,185.7Z" transform="translate(-82.496 -49.536)" fill="#0b0a07"/>
      <path id="Trazado_588396" data-name="Trazado 588396" d="M2167.014,192.8l.251-.249Q2167.333,192.867,2167.014,192.8Z" transform="translate(-87.199 -54.243)" fill="#0b0a07"/>
      <path id="Trazado_588397" data-name="Trazado 588397" d="M2135.032,192.8l.251-.249Q2135.351,192.867,2135.032,192.8Z" transform="translate(-65.246 -54.243)" fill="#0b0a07"/>
      <path id="Trazado_588398" data-name="Trazado 588398" d="M2103.05,192.8l.251-.249Q2103.37,192.867,2103.05,192.8Z" transform="translate(-43.293 -54.243)" fill="#0b0a07"/>
      <path id="Trazado_588399" data-name="Trazado 588399" d="M2096.209,192.544l.25.251Q2096.139,192.863,2096.209,192.544Z" transform="translate(-38.589 -54.24)" fill="#0b0a07"/>
      <path id="Trazado_588400" data-name="Trazado 588400" d="M2160.172,192.544l.25.251Q2160.1,192.863,2160.172,192.544Z" transform="translate(-82.494 -54.24)" fill="#0b0a07"/>
      <path id="Trazado_588401" data-name="Trazado 588401" d="M2167.267,185.955l-.25-.251C2167.23,185.659,2167.314,185.742,2167.267,185.955Z" transform="translate(-87.202 -49.537)" fill="#0b0a07"/>
      <path id="Trazado_588402" data-name="Trazado 588402" d="M2128.191,192.544l.249.251Q2128.121,192.863,2128.191,192.544Z" transform="translate(-60.542 -54.24)" fill="#0b0a07"/>
      <path id="Trazado_588403" data-name="Trazado 588403" d="M2169.229,282.2c-1.373.148-.931-.909-1.074-1.481-.34-1.352.813-1.014,1.457-1.143,1.5-.3,1.024,1.021,1.137,1.638C2171.018,282.675,2169.6,281.706,2169.229,282.2Z" transform="translate(-87.941 -113.949)" fill="#151209"/>
      <path id="Trazado_588404" data-name="Trazado 588404" d="M2185.472,276.328c1.146.178,1.072,1.2,1.109,1.794.078,1.25-1.21.944-1.824.992-1.008.08-.755-1.019-.85-1.623C2183.695,276.138,2185.079,276.9,2185.472,276.328Z" transform="translate(-98.78 -111.751)" fill="#151209"/>
      <path id="Trazado_588405" data-name="Trazado 588405" d="M2089.62,282.277a8.766,8.766,0,1,1-8.765-8.769A8.781,8.781,0,0,1,2089.62,282.277Zm-8.7-6.266a6.265,6.265,0,1,0,6.2,6.333A6.284,6.284,0,0,0,2080.923,276.011Z" transform="translate(-22.04 -109.816)" fill="#f3d06c"/>
      <path id="Trazado_588406" data-name="Trazado 588406" d="M2250.283,331.893a8.988,8.988,0,0,0-1.092.007c-.955.117-1.37-.146-1.354-1.239.016-1.027.3-1.379,1.318-1.284a14.842,14.842,0,0,0,2.65,0c.942-.082,1.067.342,1.112,1.168.061,1.107-.295,1.522-1.389,1.357A8.521,8.521,0,0,0,2250.283,331.893Z" transform="translate(-142.678 -148.155)" fill="#b3dd7e"/>
      <path id="Trazado_588407" data-name="Trazado 588407" d="M2086.4,281.489a6.265,6.265,0,1,1-6.334,6.194A6.281,6.281,0,0,1,2086.4,281.489Zm3.683,6.33a3.754,3.754,0,1,0-3.858,3.686A3.767,3.767,0,0,0,2090.081,287.82Z" transform="translate(-27.515 -115.294)" fill="#0b0a07"/>
      <path id="Trazado_588408" data-name="Trazado 588408" d="M2095.577,293.32a3.754,3.754,0,1,1-3.726-3.818A3.773,3.773,0,0,1,2095.577,293.32Z" transform="translate(-33.01 -120.795)" fill="#f3f5f6"/>
    </g>
  </g>
</svg>
