<svg xmlns="http://www.w3.org/2000/svg" xmlns:xlink="http://www.w3.org/1999/xlink" width="211" height="211" viewBox="0 0 211 211">
  <defs>
    <filter id="Elipse_7456" x="0" y="0" width="211" height="211" filterUnits="userSpaceOnUse">
      <feOffset dx="5" dy="5" input="SourceAlpha"/>
      <feGaussianBlur stdDeviation="12.5" result="blur"/>
      <feFlood flood-opacity="0.09"/>
      <feComposite operator="in" in2="blur"/>
      <feComposite in="SourceGraphic"/>
    </filter>
  </defs>
  <g id="Grupo_848436" data-name="Grupo 848436" transform="translate(9802.989 6780.619)">
    <g transform="matrix(1, 0, 0, 1, -9802.99, -6780.62)" filter="url(#Elipse_7456)">
      <g id="Elipse_7456-2" data-name="Elipse 7456" transform="translate(32.5 32.5)" fill="#f6f6f6" stroke="#fff" stroke-width="5">
        <circle cx="68" cy="68" r="68" stroke="none"/>
        <circle cx="68" cy="68" r="65.5" fill="none"/>
      </g>
    </g>
    <g id="Grupo_847526" data-name="Grupo 847526" transform="translate(-11426.059 -6843.752)">
      <path id="Trazado_588338" data-name="Trazado 588338" d="M1759.378,191.5c1.586-.8,2.124.646,2.853,1.446a1.754,1.754,0,0,1-.2,2.557c-1.671,1.711-3.354,3.411-5.076,5.07a1.9,1.9,0,0,1-2.92-.083q-7.419-7.378-14.8-14.791a1.913,1.913,0,0,1-.412-2.566c.391-.593.192-.885-.221-1.235-.038-.032-.07-.071-.106-.106-1.03-1.012-1.915-2.551-3.131-2.884-1.173-.322-2.262,1.3-3.446,1.98a29.392,29.392,0,0,1-8.982,3.537c-.962.189-1.312.526-1.269,1.531.083,1.94.005,3.885.032,5.828.011.8-.214,1.475-1.061,1.511-.964.041-1.192-.688-1.184-1.537q.027-2.765,0-5.53c-.005-.536.259-1.281-.8-1.159-.744.086-1.436-.045-1.408,1.156.083,3.536.03,7.074.027,10.612,0,.592.083,1.225-.562,1.587-.853.479-1.642-.129-1.65-1.344-.023-3.587-.055-7.176.019-10.761.021-1.036-.362-1.242-1.269-1.285-.751-.035-.931.194-.917.9.039,1.893,0,3.787.016,5.68.006.878-.162,1.715-1.214,1.677-.945-.034-1.088-.827-1.078-1.652.024-1.943-.023-3.887.021-5.829.018-.8-.113-1.191-1.038-1.419a30.213,30.213,0,0,1-23.511-30.557c.281-14.332,11.8-27.116,26.043-28.911a30.143,30.143,0,0,1,23.927,6.978c.748.619,1.324,1.236.781,2.27a1.675,1.675,0,0,1-2.111-.407,28.777,28.777,0,0,0-21.906-6.634c-11.881,1.871-20.039,8.564-23.319,20.118-3.3,11.607-.02,21.757,9.365,29.432,7.688,6.287,16.54,7.856,26.094,4.782a3.427,3.427,0,0,0,.588-.084c10.5-3.381,18.576-14.3,18.829-25.386A28.062,28.062,0,0,0,1738.712,138c-.575-.767-.915-1.436,0-2.156.93-.443,1.367.221,1.823.821a29.006,29.006,0,0,1,5.533,12.414c.192,1.039.587,1.256,1.542,1.221,1.94-.071,3.884-.013,5.826-.025.767-.005,1.464.13,1.492,1.053.031,1.015-.7,1.177-1.528,1.172-1.942-.011-3.885,0-5.826-.006-.581,0-1.118-.041-1,.832.091.668-.111,1.366,1.029,1.344,3.385-.066,6.772-.023,10.159-.022.4,0,.8-.01,1.2.009.711.034,1.317.265,1.323,1.1.006.9-.606,1.159-1.4,1.159q-5.6,0-11.2,0c-.608,0-1.12-.086-1.21.844-.1,1.041.121,1.374,1.21,1.32,1.888-.093,3.783-.02,5.676-.028.817,0,1.573.144,1.576,1.143s-.751,1.151-1.57,1.148c-2.141-.007-4.283.024-6.424-.017a1.014,1.014,0,0,0-1.214.915,28.752,28.752,0,0,1-5.165,10.818c-.407.533-.467.885.073,1.359.71.623,1.366,1.31,2.011,2,.71.76,1.307,1.5,2.549.735.678-.419,1.435.076,1.994.635q5.071,5.069,10.146,10.134a1.351,1.351,0,0,1,.3,1.858c-1.629.934-2.185-.624-2.976-1.382-2.59-2.481-2.556-2.516-4.91.188a13.658,13.658,0,0,1-1.2,1.092c-1.027.738-.94,1.324-.015,2.165,1.688,1.533,3.25,3.2,4.864,4.819,2.3,2.3,2.3,2.3,4.479-.251.43-.393.842-.81,1.294-1.175.807-.653,1.313-1.263.212-2.142C1758.806,192.643,1759.05,192.032,1759.378,191.5Zm-12.63-6.262c-.5.467-1.011.931-1.511,1.4-.529.5-1.14.848-.241,1.714.85.819,1.281.525,1.856-.165.376-.452.8-.867,1.2-1.3.538-.509,1.074-1.019,1.614-1.525.558-.524,1.06-.9.221-1.761-.882-.9-1.284-.4-1.833.22C1747.628,184.307,1747.183,184.769,1746.748,185.239Zm-3.295-3.563c-.681.641-1.365,1.278-2.04,1.926-.246.236-.475.437-.229.874.748,1.326,1.561,1.472,2.629.39.413-.419.8-.866,1.2-1.3.611-.574,1.2-1.168,1.838-1.716.459-.4.51-.664.068-1.183-.85-1-1.586-1.423-2.489-.1A11.541,11.541,0,0,1,1743.453,181.676Zm-5.172-6.273c-.318.449-.619.9-.953,1.336-.369.477.022.724.284.993.764.784,1.57,1.528,2.309,2.333.578.629.97.911,1.767.131.85-.833.377-1.218-.193-1.763-.755-.721-1.476-1.478-2.222-2.21C1739.064,176.018,1738.822,175.847,1738.281,175.4Z" transform="translate(0)" fill="#080808"/>
      <path id="Trazado_588339" data-name="Trazado 588339" d="M1816.611,137.62a24.631,24.631,0,0,1,9.177,5.235,1.675,1.675,0,0,0,2.111.407c.682.495,1.044,1.346,1.87,1.68-.915.721-.575,1.39,0,2.156a28.062,28.062,0,0,1,5.669,17.986c-.253,11.088-8.325,22.005-18.829,25.386a3.394,3.394,0,0,1-.588.084c-.008-.5.389-.631.725-.838a24.126,24.126,0,0,0,3.476-2.237c.943-.839,2.487-1.179,2.639-2.78l1.12-.981c7.3-6.4,10.294-14.419,8.834-24.01-1.081-7.1-4.9-12.574-10.559-16.849.121-.717-.383-1.123-.84-1.471-1.021-.777-2.114-1.46-3.147-2.223C1817.664,138.717,1816.739,138.588,1816.611,137.62Z" transform="translate(-91.058 -9.094)" fill="#386d8b"/>
      <path id="Trazado_588340" data-name="Trazado 588340" d="M1908.455,336.482c-.329.531-.573,1.142-.01,1.592,1.1.879.6,1.49-.212,2.142-.452.366-.865.782-1.294,1.175q-1.079-1.015-2.158-2.03c-2.015-1.905-3.814-4.032-5.967-5.8,2.355-2.7,2.321-2.669,4.91-.188.791.758,1.347,2.317,2.976,1.382Z" transform="translate(-149.077 -144.981)" fill="#f56f1c"/>
      <path id="Trazado_588341" data-name="Trazado 588341" d="M1736.9,180.73c-.152,1.6-1.7,1.942-2.639,2.78a24.119,24.119,0,0,1-3.476,2.237c-.336.207-.733.342-.725.838-9.554,3.074-18.406,1.505-26.094-4.782-9.384-7.675-12.66-17.825-9.365-29.432,3.28-11.555,11.439-18.247,23.319-20.118a24.553,24.553,0,0,1,12.729,1.4c.128.968,1.052,1.1,1.659,1.545,1.033.763,2.125,1.446,3.147,2.223.457.348.961.754.84,1.471-.254-.156-.511-.309-.762-.469a25.636,25.636,0,0,0-38.136,12.552c-3.448,9.194-1.986,17.792,4.167,25.521.574.721,1.169,1.434,2.235.794l1.784,1.614a1.6,1.6,0,0,0,.753,2.029,25.925,25.925,0,0,0,30.564-.2Z" transform="translate(-5.093 -5.126)" fill="#407b99"/>
      <path id="Trazado_588342" data-name="Trazado 588342" d="M1894.262,338.342c2.153,1.763,3.952,3.89,5.967,5.8q1.076,1.018,2.158,2.03c-2.183,2.548-2.182,2.548-4.479.251-1.614-1.614-3.176-3.286-4.864-4.819-.925-.841-1.012-1.427.015-2.165A13.658,13.658,0,0,0,1894.262,338.342Z" transform="translate(-144.525 -149.756)" fill="#f58d35"/>
      <path id="Trazado_588343" data-name="Trazado 588343" d="M1857.941,294.284c.541.444.783.615.992.82.745.732,1.467,1.489,2.222,2.21.57.545,1.043.93.193,1.763-.8.78-1.189.5-1.767-.131-.74-.8-1.545-1.549-2.309-2.333-.262-.269-.653-.516-.284-.993C1857.322,295.189,1857.623,294.733,1857.941,294.284Z" transform="translate(-119.66 -118.881)" fill="#407b99"/>
      <path id="Trazado_588344" data-name="Trazado 588344" d="M1873.809,317.139c-.4.434-.782.881-1.2,1.3-1.068,1.082-1.881.936-2.629-.391-.246-.437-.017-.638.229-.874.675-.648,1.359-1.285,2.04-1.926Z" transform="translate(-128.799 -133.573)" fill="#f58d35"/>
      <path id="Trazado_588345" data-name="Trazado 588345" d="M1879.369,312.595l-1.557-1.891a11.472,11.472,0,0,0,.973-1.106c.9-1.326,1.639-.9,2.489.1.442.52.392.785-.068,1.183C1880.573,311.427,1879.979,312.021,1879.369,312.595Z" transform="translate(-134.359 -129.029)" fill="#f56f1c"/>
      <path id="Trazado_588346" data-name="Trazado 588346" d="M1888.824,322.182c.435-.47.88-.932,1.3-1.413.548-.623.951-1.122,1.833-.22.839.859.337,1.237-.221,1.761-.54.506-1.076,1.016-1.614,1.525Z" transform="translate(-142.076 -136.943)" fill="#45d484"/>
      <path id="Trazado_588347" data-name="Trazado 588347" d="M1883.646,327.158l1.3,1.653c-.4.431-.822.846-1.2,1.3-.575.69-1.006.984-1.856.165-.9-.866-.288-1.215.241-1.714C1882.635,328.089,1883.142,327.625,1883.646,327.158Z" transform="translate(-136.898 -141.919)" fill="#78de8e"/>
      <path id="Trazado_588348" data-name="Trazado 588348" d="M1742.09,186.036a25.925,25.925,0,0,1-30.564.2,1.6,1.6,0,0,1-.753-2.029c.869-.686,1.531-.165,2.265.321,6.318,4.186,13.1,5.54,20.447,3.243.336-.081.681-.134,1.006-.247a23.5,23.5,0,0,0,13.291-32.5,22.333,22.333,0,0,0-14.63-12.211,21.174,21.174,0,0,0-11.921-.365,23.6,23.6,0,0,0-12.744,37.916c.565.687,1.113,1.311.5,2.232-1.066.64-1.661-.073-2.235-.794-6.154-7.728-7.615-16.327-4.167-25.521a25.636,25.636,0,0,1,38.136-12.552c.251.161.508.313.762.469,5.661,4.276,9.478,9.744,10.559,16.849,1.459,9.591-1.535,17.609-8.834,24.01Z" transform="translate(-10.286 -10.433)" fill="#050707"/>
      <path id="Trazado_588349" data-name="Trazado 588349" d="M1739,193.008c-7.352,2.3-14.13.944-20.447-3.243-.735-.487-1.4-1.007-2.265-.321l-1.784-1.614c.612-.921.064-1.545-.5-2.232a23.6,23.6,0,0,1,12.744-37.916,21.174,21.174,0,0,1,11.921.365c.026.644.586.734,1.006.966a21,21,0,0,1,4.143,2.888c6.257,5.773,9.295,12.807,8.324,21.417a23.725,23.725,0,0,1-8.483,15.99,19.615,19.615,0,0,1-4,2.822C1739.292,192.31,1738.942,192.507,1739,193.008Zm-13.8-11.387c-1.538.033-3.075.069-4.613.1-.776.014-1.437.225-1.412,1.146s.683,1.106,1.461,1.1a20.526,20.526,0,0,1,3.13.024c2.209.324,3.766-.333,4.5-2.546.014-.042.142-.046.3-.092.709,2.014,1.409,4.023,2.127,6.026.23.643.373,1.425,1.274,1.446.978.023,1.136-.788,1.4-1.488.977-2.63,1.965-5.256,3.042-8.133.542,1.379.992,2.478,1.4,3.591a1.548,1.548,0,0,0,1.654,1.184c1.74-.048,3.482-.021,5.223-.011.772,0,1.454-.173,1.487-1.074.036-1.019-.719-1.162-1.534-1.174-1.488-.022-2.976-.062-4.464-.095l-.453-.321c-.726-1.788-1.463-3.571-2.169-5.367-.215-.547-.485-1-1.124-1.027-.728-.036-1.036.466-1.253,1.06q-.433,1.187-.875,2.371c-.715,1.922-1.432,3.844-2.264,6.077-.8-2.287-1.471-4.2-2.143-6.106-.188-.535-.451-1.025-1.092-1.078s-.969.344-1.262.857c-.658,1.151-1.359,2.277-2.042,3.414C1725.311,181.318,1725.253,181.461,1725.2,181.621Zm22.436-11.732-.463-.307q-.035-2.686-.071-5.372c-.024-1.771-.547-2.3-2.318-2.325-2.04-.029-4.08-.047-6.12-.07l-.463-.307c-.024-2.981-.061-5.963-.066-8.945a1.794,1.794,0,0,0-2-2.037c-2.387-.017-4.775-.013-7.162,0a1.784,1.784,0,0,0-2.03,2.01c.008.895-.048,1.794.016,2.685.057.806-.26,1.017-1.023,1-1.839-.046-3.681-.022-5.521-.012-1.943.01-2.431.516-2.443,2.492q-.036,5.442-.071,10.884l-.463.309c-.3.024-.593.044-.889.073-.671.066-1.173.377-1.187,1.094-.015.8.523,1.127,1.257,1.179.3.021.6.007.9.008q15.023,0,30.045,0a5.981,5.981,0,0,0,1.192-.043,1.086,1.086,0,0,0,.971-1.142,1.064,1.064,0,0,0-.9-1.048A7.966,7.966,0,0,0,1747.638,169.889Z" transform="translate(-15.803 -15.67)" fill="#efefef"/>
      <path id="Trazado_588350" data-name="Trazado 588350" d="M1809.347,195.455c-.061-.5.289-.7.656-.879a19.622,19.622,0,0,0,4-2.822,23.726,23.726,0,0,0,8.483-15.99c.971-8.609-2.067-15.644-8.324-21.417a21.009,21.009,0,0,0-4.143-2.888c-.42-.231-.98-.322-1.006-.966a22.333,22.333,0,0,1,14.63,12.211,23.5,23.5,0,0,1-13.291,32.5C1810.028,195.321,1809.683,195.374,1809.347,195.455Z" transform="translate(-86.147 -18.116)" fill="#e0e0e0"/>
      <path id="Trazado_588351" data-name="Trazado 588351" d="M1754.417,170.039c2.04.023,4.08.041,6.12.07,1.771.025,2.294.554,2.318,2.325q.037,2.686.071,5.372c-.013.354.219.339.463.307a7.968,7.968,0,0,1,1.183.118,1.064,1.064,0,0,1,.9,1.048,1.086,1.086,0,0,1-.971,1.142,5.981,5.981,0,0,1-1.192.043q-15.022,0-30.045,0c-.3,0-.6.013-.9-.008-.734-.051-1.272-.381-1.257-1.179.014-.717.516-1.028,1.187-1.094.3-.029.593-.049.889-.073.244.032.478.047.463-.309q.035-5.442.071-10.884c.013-1.976.5-2.481,2.443-2.492,1.84-.01,3.681-.034,5.521.012.763.019,1.08-.191,1.023-1-.063-.891-.007-1.79-.016-2.685a1.784,1.784,0,0,1,2.03-2.01c2.388-.011,4.775-.015,7.162,0a1.794,1.794,0,0,1,2,2.037c.005,2.982.042,5.963.066,8.945C1753.941,170.086,1754.173,170.072,1754.417,170.039Zm2.7,2.412c-3.238-.2-3.238-.2-3.238,2.687,0,3.183,0,3.183,3.24,2.981.346.018.692.049,1.038.052,2.48.019,2.48.017,2.48-2.515C1760.639,172.255,1760.639,172.255,1757.119,172.451Zm-17.657,5.659a14.349,14.349,0,0,1,1.624.078c1.29.2,1.716-.251,1.644-1.594-.122-2.267-.034-4.546-.034-6.82,0-3.228,0-3.228-3.235-3-.69-.023-1.388.01-2.069-.08-1.158-.154-1.534.258-1.484,1.447.1,2.27.028,4.547.028,6.82C1735.936,178.375,1735.936,178.375,1739.461,178.11Zm8.68.008a15.565,15.565,0,0,1,1.934.072c1.36.214,1.651-.36,1.624-1.645-.084-4.079-.031-8.161-.031-12.242,0-3.428,0-3.428-3.528-3.213a11.658,11.658,0,0,1-1.489-.069c-1.468-.249-1.818.355-1.782,1.783.1,4.133.036,8.27.036,12.405C1744.907,178.325,1744.907,178.325,1748.142,178.118Z" transform="translate(-31.553 -23.894)" fill="#070807"/>
      <path id="Trazado_588352" data-name="Trazado 588352" d="M1764.865,246.971c1.488.033,2.976.072,4.464.095.815.012,1.57.155,1.534,1.174-.033.9-.714,1.078-1.487,1.074-1.741-.01-3.483-.037-5.223.011a1.548,1.548,0,0,1-1.654-1.184c-.412-1.113-.862-2.212-1.4-3.591-1.077,2.877-2.065,5.5-3.042,8.133-.26.7-.418,1.511-1.4,1.488-.9-.022-1.043-.8-1.274-1.446-.717-2-1.417-4.012-2.127-6.026-.162.046-.29.051-.3.092-.73,2.212-2.287,2.87-4.5,2.546a20.526,20.526,0,0,0-3.13-.024c-.777.007-1.436-.193-1.461-1.1s.636-1.131,1.412-1.146c1.538-.029,3.075-.065,4.613-.1l.3-.119c.684-1.136,1.385-2.263,2.042-3.414.293-.513.633-.909,1.262-.857s.9.542,1.091,1.078c.672,1.909,1.341,3.819,2.143,6.106.832-2.233,1.549-4.154,2.264-6.077q.44-1.184.875-2.371c.217-.594.525-1.1,1.253-1.06.639.031.909.48,1.124,1.027.706,1.8,1.444,3.579,2.169,5.367C1764.481,246.872,1764.6,247.031,1764.865,246.971Z" transform="translate(-40.492 -81.018)" fill="#050707"/>
      <path id="Trazado_588353" data-name="Trazado 588353" d="M1807.916,195.786c-.244.033-.475.047-.463-.307Z" transform="translate(-85.052 -49.641)" fill="#f6f8f9"/>
      <path id="Trazado_588354" data-name="Trazado 588354" d="M1738.511,222.456c.014.356-.219.341-.463.309Z" transform="translate(-36.415 -68.546)" fill="#f6f8f9"/>
      <path id="Trazado_588355" data-name="Trazado 588355" d="M1837.9,222.769c-.244.032-.475.047-.463-.307Z" transform="translate(-106.065 -68.55)" fill="#f6f8f9"/>
      <path id="Trazado_588356" data-name="Trazado 588356" d="M1764.3,262.1l-.3.119C1764.055,262.056,1764.113,261.913,1764.3,262.1Z" transform="translate(-54.605 -96.265)" fill="#f6f8f9"/>
      <path id="Trazado_588357" data-name="Trazado 588357" d="M1812.984,261.95c-.27.06-.384-.1-.453-.321Z" transform="translate(-88.611 -95.997)" fill="#f6f8f9"/>
      <path id="Trazado_588358" data-name="Trazado 588358" d="M1788.028,166.413c3.528-.215,3.528-.215,3.528,3.213,0,4.081-.053,8.163.031,12.242.027,1.285-.264,1.859-1.624,1.645a15.568,15.568,0,0,0-1.935-.072Q1788.028,174.927,1788.028,166.413Z" transform="translate(-71.44 -29.218)" fill="#f16d1b"/>
      <path id="Trazado_588359" data-name="Trazado 588359" d="M1780.363,166.306q0,8.514,0,17.029c-3.235.207-3.235.207-3.235-2.909,0-4.135.066-8.272-.036-12.405-.036-1.428.314-2.032,1.782-1.783A11.655,11.655,0,0,0,1780.363,166.306Z" transform="translate(-63.775 -29.111)" fill="#f08a35"/>
      <path id="Trazado_588360" data-name="Trazado 588360" d="M1750.687,196.679c-3.525.265-3.525.265-3.525-3.144,0-2.274.069-4.551-.028-6.82-.051-1.189.326-1.6,1.484-1.447.681.09,1.379.057,2.069.08Q1750.687,191.014,1750.687,196.679Z" transform="translate(-42.779 -42.463)" fill="#27c8ef"/>
      <path id="Trazado_588361" data-name="Trazado 588361" d="M1759.019,196.734q0-5.666,0-11.331c3.235-.232,3.235-.232,3.235,3,0,2.274-.089,4.552.033,6.82.073,1.343-.354,1.8-1.644,1.594A14.357,14.357,0,0,0,1759.019,196.734Z" transform="translate(-51.111 -42.518)" fill="#21b0e7"/>
      <path id="Trazado_588362" data-name="Trazado 588362" d="M1818.032,204.4c3.52-.2,3.52-.2,3.52,3.205,0,2.532,0,2.534-2.481,2.515-.346,0-.692-.034-1.038-.052Q1818.033,207.239,1818.032,204.4Z" transform="translate(-92.466 -55.847)" fill="#45d484"/>
      <path id="Trazado_588363" data-name="Trazado 588363" d="M1810.448,204.4q0,2.834,0,5.669c-3.24.2-3.24.2-3.24-2.981C1807.209,204.2,1807.209,204.2,1810.448,204.4Z" transform="translate(-84.882 -55.838)" fill="#78de8e"/>
    </g>
  </g>
</svg>
