<svg xmlns="http://www.w3.org/2000/svg" xmlns:xlink="http://www.w3.org/1999/xlink" width="211" height="211" viewBox="0 0 211 211">
  <defs>
    <filter id="Elipse_7416" x="0" y="0" width="211" height="211" filterUnits="userSpaceOnUse">
      <feOffset dx="5" dy="5" input="SourceAlpha"/>
      <feGaussianBlur stdDeviation="12.5" result="blur"/>
      <feFlood flood-opacity="0.09"/>
      <feComposite operator="in" in2="blur"/>
      <feComposite in="SourceGraphic"/>
    </filter>
  </defs>
  <g id="Grupo_848435" data-name="Grupo 848435" transform="translate(-1053.5 -4888.855)">
    <g transform="matrix(1, 0, 0, 1, 1053.5, 4888.85)" filter="url(#Elipse_7416)">
      <g id="Elipse_7416-2" data-name="Elipse 7416" transform="translate(32.5 32.5)" fill="#f6f6f6" stroke="#fff" stroke-width="5">
        <circle cx="68" cy="68" r="68" stroke="none"/>
        <circle cx="68" cy="68" r="65.5" fill="none"/>
      </g>
    </g>
    <g id="Grupo_847525" data-name="Grupo 847525" transform="translate(-219.047 4836.701)">
      <path id="Trazado_588303" data-name="Trazado 588303" d="M1402.927,130.114l.009,2.258c-.521.02-1.042.056-1.563.056q-21.95,0-43.9,0c-4.355,0-6.79,2.436-6.793,6.794q-.008,14.041,0,28.081c0,1.661-.041,3.322-.063,4.982l-.427.262-1.424-.041a.528.528,0,0,0-.328-.484c.128-.541-.079-.827-.6-1.08a3.539,3.539,0,0,1-2.008-3.48q.013-19.226.013-38.453a3.516,3.516,0,0,1,3.813-3.835q24.138-.03,48.276,0a3.484,3.484,0,0,1,3.783,3.712C1401.724,129.878,1402.1,130.128,1402.927,130.114Zm-53.484-.088c1,.222,1.325-.163,1.3-1.184-.02-.909-.14-1.342-1.212-1.326-1,.015-1.417.19-1.372,1.311C1348.2,129.8,1348.415,130.268,1349.443,130.025Zm6.1-1.243c.269-1.058-.255-1.222-1.2-1.263-1.1-.048-1.3.342-1.324,1.362-.024,1.111.469,1.174,1.347,1.2C1355.37,130.11,1355.782,129.792,1355.543,128.783Zm3.763-1.2c-.865-.126-1.466-.075-1.416,1.089.04.936.083,1.488,1.269,1.423.915-.05,1.378-.167,1.3-1.232C1360.4,128.025,1360.459,127.289,1359.306,127.578Z" transform="translate(-6.207 -6.163)" fill="#85cbd6"/>
      <path id="Trazado_588304" data-name="Trazado 588304" d="M1431.318,224.706q3.573,3.58,7.145,7.162c1.271,1.278,1.263,1.588-.039,2.9-.9.91-1.833,1.8-2.712,2.728-.838.889-1.563.826-2.407-.029-3.337-3.379-6.708-6.726-10.07-10.081-.414-.413-.7-.95-1.5-.42a17,17,0,0,1-21.114-2.2,20.381,20.381,0,0,1-4.05-6.312c-.053-.927-.674-.958-1.4-.955-4.7.018-9.4-.015-14.1.029-.958.009-1.315-.212-1.314-1.245,0-1.018.316-1.257,1.294-1.246,4.508.051,9.017.007,13.525.035.859.005,1.335-.076,1.1-1.152a7.558,7.558,0,0,1,.119-3.675,31.625,31.625,0,0,0,1.008-9.98c-.063-1.991.038-3.988-.034-5.979-.035-.983.345-1.186,1.234-1.165.827.02,1.3.086,1.263,1.13-.079,2.488-.026,4.981-.026,7.8l2.215-2.381.11-.293c.031-2.418.106-4.836.072-7.253-.014-.989.153-1.427,1.3-1.418,1.12.009,1.2.5,1.179,1.375-.048,1.859-.015,3.72-.015,5.665,2.457-.962,2.457-.962,2.457-3.263,0-.57.026-1.141-.005-1.709-.034-.61.212-.792.821-.841,1.14-.092,1.859.109,1.6,1.49a3.185,3.185,0,0,0,.008,1.275c.1.43-.458,1.379.623,1.152.713-.15,1.927.333,1.843-1.261-.111-2.131.016-4.273-.048-6.408-.027-.9.282-1.152,1.139-1.109.764.039,1.356-.028,1.309,1.086-.091,2.133.062,4.277-.055,6.407-.088,1.585,1.094,1.125,1.823,1.275,1.092.225.625-.727.632-1.137.049-2.943.071-5.888.011-8.83-.02-1,.276-1.289,1.274-1.287.983,0,1.181.362,1.17,1.253-.041,3.228-.022,6.457.005,9.686,0,.462-.281,1.093.471,1.313a8.4,8.4,0,0,1,.735.41c1.076.744,1.289.32,1.247-.8-.07-1.886.023-3.779-.036-5.666-.029-.925.154-1.346,1.215-1.331,1,.014,1.283.318,1.271,1.3-.032,2.877.035,5.756.063,8.633l.11.29,2.217,2.366c0-2.432.049-4.547-.022-6.659-.033-.993.454-1.061,1.213-1.037.7.022,1.317-.055,1.281.991-.062,1.85-.022,3.7-.016,5.557.01,2.837-.139,5.663.829,8.442a10.063,10.063,0,0,1,.278,4.8c-.078.51-.164.922.6.945,1.282.038.544,1.051.683,1.616.182.737-.328.9-.927.82a1.083,1.083,0,0,0-1.326.939,5.51,5.51,0,0,1-.6,1.441,1.241,1.241,0,0,0,.285,1.836C1429.341,222.663,1430.311,223.7,1431.318,224.706Zm-3.852-.267c-.459-.458-.768-1.4-1.494-1.163-1.438.472-1.538,1.911-.321,2.952,2.785,2.825,5.58,5.639,8.348,8.481.783.8,1.092-.042,1.408-.415.333-.394,1.414-.638.533-1.5Q1431.7,228.618,1427.466,224.439Zm-.264-11.814a14.576,14.576,0,1,0-14.583,14.6A14.585,14.585,0,0,0,1427.2,212.625Z" transform="translate(-30.457 -48.627)" fill="#040403"/>
      <path id="Trazado_588305" data-name="Trazado 588305" d="M1362.529,190.345c.022-1.661.062-3.322.063-4.982q.009-14.041,0-28.081c0-4.358,2.438-6.793,6.793-6.794q21.951-.006,43.9,0c.521,0,1.042-.037,1.563-.056.854.022,1.707.035,2.56.068a6.015,6.015,0,0,1,5.969,6.028c.035,13.018.015,26.037.015,39.055a6.565,6.565,0,0,1-.814,2.988c-.426.845-.879,1-1.537.277-.217-.479-1.212-.6-.617-1.462a4.349,4.349,0,0,0,.514-2.609q0-18.712,0-37.424c0-.285.006-.57-.012-.854a3.487,3.487,0,0,0-3.546-3.51c-2.179-.045-4.361.017-6.541.032-.426-.019-.851-.053-1.277-.053q-20,0-40,0c-3.281,0-4.554,1.278-4.555,4.562q0,15.163,0,30.325c0,2.468-.03,4.936.011,7.4a3.639,3.639,0,0,0,3.811,3.9c3.082.03,6.166-.044,9.249-.073,1.73.021,3.464.116,5.19.035,1.009-.047,1.339.344,1.317,1.247,0,.893-.31,1.26-1.329,1.245-4.748-.068-9.5-.01-14.247-.036-3.912-.021-6.359-2.509-6.406-6.431-.018-1.515-.064-3.029-.1-4.544A.182.182,0,0,0,1362.529,190.345Z" transform="translate(-18.126 -24.217)" fill="#040708"/>
      <path id="Trazado_588306" data-name="Trazado 588306" d="M1521.934,159.385c2.18-.015,4.362-.077,6.541-.032a3.487,3.487,0,0,1,3.546,3.51c.018.284.011.569.012.854q0,18.712,0,37.424a4.35,4.35,0,0,1-.514,2.609c-.595.858.4.983.617,1.462l-2.058,1.455c-1.008-1-1.978-2.043-3.034-2.988a1.241,1.241,0,0,1-.284-1.836,5.5,5.5,0,0,0,.6-1.441,1.083,1.083,0,0,1,1.326-.939c.6.078,1.109-.083.927-.82-.139-.565.6-1.577-.683-1.616-.763-.023-.677-.435-.6-.945a10.062,10.062,0,0,0-.278-4.8c-.969-2.779-.819-5.6-.829-8.442-.007-1.853-.047-3.706.016-5.557.036-1.046-.583-.969-1.281-.991-.759-.024-1.247.044-1.213,1.037.071,2.112.022,4.227.022,6.659l-2.217-2.366c.195-.184.039-.236-.11-.29-.028-2.878-.095-5.756-.063-8.633.011-.98-.274-1.284-1.272-1.3-1.062-.015-1.244.407-1.215,1.331.059,1.887-.033,3.779.036,5.666.042,1.122-.171,1.545-1.247.8-.23-.159-.49-.274-.735-.41q0-3.918,0-7.837a2.2,2.2,0,0,1,.165-1.251,19.17,19.17,0,0,0,1.844-4.141C1520.642,163.513,1521.857,161.628,1521.934,159.385Z" transform="translate(-129.216 -30.586)" fill="#3e8dc1"/>
      <path id="Trazado_588307" data-name="Trazado 588307" d="M1396.719,123.951c-.829.015-1.2-.236-1.213-1.22a3.484,3.484,0,0,0-3.783-3.712q-24.138-.031-48.276,0a3.516,3.516,0,0,0-3.813,3.835q-.027,19.226-.013,38.453a3.539,3.539,0,0,0,2.008,3.48c.516.253.724.538.6,1.08l-.189.548c-.147.832-.492,1.116-1.348.671a6.14,6.14,0,0,1-3.539-5.862q0-13.1,0-26.21c0-3.989-.012-7.977,0-11.966a6.1,6.1,0,0,1,6.513-6.5q23.93-.011,47.859,0a6.137,6.137,0,0,1,6.477,5.974C1398.08,123.609,1397.711,123.981,1396.719,123.951Z" transform="translate(0)" fill="#090b0c"/>
      <path id="Trazado_588308" data-name="Trazado 588308" d="M1423.556,309.631c.022-.9-.308-1.295-1.317-1.247-1.726.08-3.459-.014-5.19-.036a1.285,1.285,0,0,1,.7-1.392,35.851,35.851,0,0,0,3.107-2.185,5.318,5.318,0,0,1,2.351-1.459,20.386,20.386,0,0,0,4.05,6.312Z" transform="translate(-57.099 -133.489)" fill="#3c88bb"/>
      <path id="Trazado_588309" data-name="Trazado 588309" d="M1354.3,289.988l.188-.548a.528.528,0,0,1,.328.484Z" transform="translate(-12.259 -123.575)" fill="#8dd8e3"/>
      <path id="Trazado_588310" data-name="Trazado 588310" d="M1361.522,290.361a.182.182,0,0,1-.025.248l-.4.014Z" transform="translate(-17.118 -124.233)" fill="#8dd8e3"/>
      <path id="Trazado_588311" data-name="Trazado 588311" d="M1355.277,135.913c-1.028.243-1.242-.226-1.282-1.2-.045-1.121.368-1.3,1.372-1.311,1.072-.017,1.192.417,1.212,1.326C1356.6,135.75,1356.274,136.135,1355.277,135.913Z" transform="translate(-12.042 -12.05)" fill="#0c1417"/>
      <path id="Trazado_588312" data-name="Trazado 588312" d="M1373.555,134.67c.239,1.009-.173,1.327-1.178,1.3-.878-.025-1.37-.088-1.347-1.2.021-1.02.222-1.41,1.324-1.362C1373.3,133.447,1373.824,133.611,1373.555,134.67Z" transform="translate(-24.219 -12.049)" fill="#0c1417"/>
      <path id="Trazado_588313" data-name="Trazado 588313" d="M1389.518,133.462c1.153-.289,1.094.446,1.154,1.28.076,1.065-.386,1.182-1.3,1.232-1.186.066-1.229-.487-1.269-1.423C1388.053,133.387,1388.653,133.335,1389.518,133.462Z" transform="translate(-36.419 -12.046)" fill="#0c1417"/>
      <path id="Trazado_588314" data-name="Trazado 588314" d="M1390.476,200.388a5.315,5.315,0,0,0-2.351,1.459,35.9,35.9,0,0,1-3.107,2.185,1.285,1.285,0,0,0-.7,1.392c-3.083.03-6.167.1-9.249.074a3.639,3.639,0,0,1-3.811-3.9c-.041-2.467-.011-4.935-.011-7.4q0-15.163,0-30.325c0-3.284,1.274-4.561,4.555-4.562q20-.005,40,0c.426,0,.851.035,1.277.053-.076,2.243-1.292,4.128-1.98,6.176a19.164,19.164,0,0,1-1.844,4.141,2.2,2.2,0,0,0-.165,1.251c-.007,2.612,0,5.224,0,7.837-.752-.22-.467-.85-.471-1.313-.028-3.229-.047-6.458-.005-9.686.011-.891-.187-1.25-1.17-1.253-1,0-1.294.288-1.274,1.287.059,2.943.038,5.887-.011,8.83-.007.41.46,1.362-.632,1.137-.728-.149-1.91.31-1.823-1.275.118-2.13-.035-4.274.055-6.407.047-1.114-.545-1.047-1.309-1.086-.856-.043-1.166.207-1.139,1.109.063,2.135-.064,4.277.048,6.408.083,1.594-1.13,1.111-1.843,1.261-1.081.227-.524-.723-.623-1.152a3.19,3.19,0,0,1-.008-1.275c.259-1.381-.46-1.582-1.6-1.49-.609.049-.855.231-.821.841.031.568.005,1.139.005,1.709,0,2.3,0,2.3-2.457,3.263,0-1.945-.033-3.806.015-5.665.023-.879-.059-1.367-1.179-1.375-1.147-.009-1.313.43-1.3,1.418.034,2.417-.041,4.835-.072,7.253-.145.057-.3.11-.109.293l-2.215,2.381c0-2.818-.053-5.311.025-7.8.033-1.043-.436-1.11-1.263-1.13-.889-.021-1.27.182-1.234,1.165.072,1.991-.03,3.988.034,5.979a31.614,31.614,0,0,1-1.008,9.98,7.559,7.559,0,0,0-.119,3.675c.231,1.076-.245,1.158-1.1,1.152-4.508-.028-9.018.015-13.525-.035-.978-.011-1.294.228-1.294,1.246,0,1.033.356,1.254,1.314,1.245,4.7-.043,9.4-.011,14.1-.029C1389.8,199.43,1390.423,199.461,1390.476,200.388Zm-9.518-13.19c0,2.083.057,4.168-.025,6.248-.04,1.02.394,1.179,1.252,1.156.79-.022,1.3-.033,1.284-1.114-.068-4.165-.056-8.332-.006-12.5.011-.937-.352-1.122-1.166-1.073-.719.043-1.405-.124-1.361,1.032C1381.015,183.03,1380.958,185.115,1380.958,187.2Zm7.341,1.971c0-1.566-.041-3.133.016-4.7.031-.852-.418-.96-1.052-.863-.556.086-1.441-.413-1.438.769.009,3.131.021,6.262-.007,9.393-.009,1.049.72.785,1.283.8.592.019,1.258.179,1.213-.853C1388.25,192.208,1388.3,190.687,1388.3,189.169Zm-9.717,1.752c0-.9-.06-1.8.016-2.693.091-1.057-.565-.974-1.252-.972s-1.312-.09-1.272.967c.069,1.794.049,3.593,0,5.388-.019.75.255.954.976.994,1.073.061,1.731-.11,1.547-1.418A16.388,16.388,0,0,1,1378.582,190.921Zm1-26.766c.786.068,1.578.154,1.433-1.065-.078-.658.235-1.529-.973-1.4-.687.072-1.639-.3-1.484,1.012C1378.643,163.384,1378.239,164.376,1379.586,164.156Zm3.863-1.345c-.162.9-.012,1.439,1.121,1.394.915-.036,1.416-.162,1.341-1.239-.055-.794-.045-1.392-1.129-1.3C1383.987,161.739,1383.161,161.584,1383.449,162.811Zm-9.714.06c-.2.954.107,1.336,1.15,1.335,1.006,0,1.278-.335,1.25-1.294-.025-.838-.134-1.3-1.144-1.248C1374.113,161.706,1373.462,161.754,1373.734,162.871Z" transform="translate(-24.367 -30.566)" fill="#4295cd"/>
      <path id="Trazado_588315" data-name="Trazado 588315" d="M1473.033,246.277a14.577,14.577,0,1,1-14.567-14.615A14.6,14.6,0,0,1,1473.033,246.277Zm-14.546-12.146a12.147,12.147,0,1,0,12.144,12.139A12.16,12.16,0,0,0,1458.487,234.13Z" transform="translate(-76.288 -82.279)" fill="#f4b02d"/>
      <path id="Trazado_588316" data-name="Trazado 588316" d="M1542.453,324.307q4.237,4.176,8.474,8.351c.881.866-.2,1.11-.533,1.5-.316.373-.624,1.219-1.408.415-2.768-2.842-5.563-5.656-8.348-8.481A5.521,5.521,0,0,0,1542.453,324.307Z" transform="translate(-145.444 -148.495)" fill="#fab42e"/>
      <path id="Trazado_588317" data-name="Trazado 588317" d="M1540.344,321.3a5.518,5.518,0,0,1-1.815,1.789c-1.218-1.041-1.117-2.48.321-2.952C1539.576,319.9,1539.885,320.84,1540.344,321.3Z" transform="translate(-143.335 -145.486)" fill="#f4b02d"/>
      <path id="Trazado_588318" data-name="Trazado 588318" d="M1455.614,236.721c-.193-.183-.035-.236.109-.293Z" transform="translate(-84.61 -85.685)" fill="#48a2e0"/>
      <path id="Trazado_588319" data-name="Trazado 588319" d="M1533.725,236.44c.149.054.3.106.11.29Z" transform="translate(-140.503 -85.694)" fill="#4295cd"/>
      <path id="Trazado_588320" data-name="Trazado 588320" d="M1405.248,238.816c0-2.083.057-4.168-.022-6.248-.045-1.156.642-.989,1.361-1.032.814-.049,1.177.136,1.167,1.073-.049,4.165-.062,8.332.006,12.5.018,1.081-.494,1.092-1.284,1.114-.858.024-1.291-.135-1.252-1.156C1405.3,242.984,1405.248,240.9,1405.248,238.816Z" transform="translate(-48.657 -82.184)" fill="#04090d"/>
      <path id="Trazado_588321" data-name="Trazado 588321" d="M1424.834,249.972c0,1.518-.049,3.038.017,4.553.045,1.032-.621.871-1.214.853-.563-.018-1.293.246-1.283-.8.027-3.131.016-6.262.007-9.393,0-1.182.882-.684,1.438-.769.634-.1,1.083.011,1.052.863C1424.793,246.84,1424.834,248.407,1424.834,249.972Z" transform="translate(-60.902 -91.369)" fill="#04090d"/>
      <path id="Trazado_588322" data-name="Trazado 588322" d="M1390.7,260.939a16.388,16.388,0,0,0,.019,2.266c.185,1.308-.473,1.479-1.547,1.418-.721-.04-1-.244-.976-.994.045-1.8.064-3.594,0-5.388-.041-1.057.589-.965,1.272-.967s1.343-.085,1.252.972C1390.635,259.137,1390.7,260.041,1390.7,260.939Z" transform="translate(-36.481 -100.583)" fill="#04090d"/>
      <path id="Trazado_588323" data-name="Trazado 588323" d="M1397.9,170.089c-1.346.221-.943-.772-1.024-1.455-.155-1.314.8-.939,1.484-1.012,1.208-.127.895.743.973,1.4C1399.474,170.243,1398.683,170.157,1397.9,170.089Z" transform="translate(-42.678 -36.498)" fill="#04090d"/>
      <path id="Trazado_588324" data-name="Trazado 588324" d="M1413.9,168.7c-.288-1.227.538-1.072,1.333-1.142,1.084-.1,1.074.5,1.129,1.3.075,1.078-.426,1.2-1.341,1.24C1413.887,170.14,1413.737,169.6,1413.9,168.7Z" transform="translate(-54.818 -36.455)" fill="#090b0c"/>
      <path id="Trazado_588325" data-name="Trazado 588325" d="M1379.836,168.766c-.272-1.118.379-1.166,1.255-1.207,1.01-.047,1.12.41,1.144,1.248.028.958-.243,1.293-1.25,1.294C1379.943,170.1,1379.634,169.72,1379.836,168.766Z" transform="translate(-30.469 -36.46)" fill="#04090d"/>
      <path id="Trazado_588326" data-name="Trazado 588326" d="M1464.5,240.315a12.147,12.147,0,1,1-12.205,12.072A12.172,12.172,0,0,1,1464.5,240.315Zm-8.064,17.462a9.55,9.55,0,0,0,16.068,0,.561.561,0,0,0,.11-.09.177.177,0,0,0,.038-.116c-.036-.269-.253-.234-.429-.234q-7.75,0-15.5,0C1456.461,257.34,1456.075,257.334,1456.438,257.777Zm11.48-14.283a2.533,2.533,0,0,0-1.74-.537c-.536-.063-.494.264-.415.615-.029,2.555-.092,5.109-.068,7.663.008.88-.166,1.252-1.155,1.233-.938-.018-1.322-.188-1.3-1.238.054-2.553-.03-5.109-.059-7.663.079-.352.115-.675-.417-.61a2.563,2.563,0,0,0-1.448.364c-.267.1-.519.213-.407.58-.032,2.455-.11,4.911-.075,7.366.013.929-.248,1.2-1.182,1.2-.97,0-1.311-.242-1.278-1.259.058-1.791-.038-3.586-.07-5.38.056-.219.138-.46-.124-.588-.061-.03-.206.114-.312.178a5.848,5.848,0,0,0-1.981,2.6,7.282,7.282,0,0,0-1.079,4.353c-.087,2.528-.087,2.528,2.358,2.528,5.059,0,10.119-.053,15.177.035,1.365.024,1.891-.423,1.823-1.717-.015-.282-.023-.564-.034-.846a7.289,7.289,0,0,0-1.078-4.353,5.858,5.858,0,0,0-1.982-2.6c-.107-.063-.255-.206-.314-.176-.258.132-.177.373-.12.592-.032,1.845-.142,3.693-.066,5.533.045,1.112-.534,1.057-1.3,1.086-.809.031-1.182-.118-1.164-1.067.047-2.509-.026-5.019-.051-7.529Z" transform="translate(-82.304 -88.463)" fill="#050504"/>
      <path id="Trazado_588327" data-name="Trazado 588327" d="M1472.411,249.548a2.534,2.534,0,0,1,1.74.537c-.279.244-.024.285.137.362.025,2.51.1,5.02.051,7.529-.018.949.355,1.1,1.164,1.067.768-.029,1.347.025,1.3-1.086-.076-1.84.034-3.688.066-5.533l.434-.417a5.86,5.86,0,0,1,1.982,2.6c-.008,1.073.03,2.15-.039,3.22-.055.863.282,1.211,1.117,1.133.011.282.019.564.034.846.068,1.294-.458,1.741-1.823,1.717-5.058-.088-10.118-.035-15.177-.035-2.444,0-2.444,0-2.358-2.529.835.078,1.174-.268,1.118-1.132-.068-1.07-.031-2.147-.039-3.221a5.849,5.849,0,0,1,1.981-2.6l.437.41c.032,1.793.128,3.589.07,5.38-.033,1.017.308,1.262,1.278,1.259.934,0,1.2-.272,1.182-1.2-.036-2.454.042-4.911.075-7.367l.406-.579a2.563,2.563,0,0,1,1.448-.364.619.619,0,0,0,.417.611c.029,2.555.113,5.11.059,7.663-.022,1.05.361,1.22,1.3,1.238.989.019,1.164-.353,1.155-1.233-.024-2.554.039-5.109.069-7.664A.626.626,0,0,0,1472.411,249.548Z" transform="translate(-88.536 -95.054)" fill="#7dc0cb"/>
      <path id="Trazado_588328" data-name="Trazado 588328" d="M1482.882,301.528a9.55,9.55,0,0,1-16.068,0Z" transform="translate(-92.679 -132.214)" fill="#85cbd6"/>
      <path id="Trazado_588329" data-name="Trazado 588329" d="M1482.511,300.421h-16.068c-.363-.443.023-.437.285-.437q7.75-.01,15.5,0c.176,0,.394-.035.429.234a.176.176,0,0,1-.038.116A.566.566,0,0,1,1482.511,300.421Z" transform="translate(-92.308 -131.107)" fill="#8dd8e3"/>
      <path id="Trazado_588330" data-name="Trazado 588330" d="M1462.14,267.3c.008,1.074-.03,2.151.039,3.221.056.864-.284,1.21-1.118,1.132A7.286,7.286,0,0,1,1462.14,267.3Z" transform="translate(-88.554 -107.754)" fill="#3e8dc1"/>
      <path id="Trazado_588331" data-name="Trazado 588331" d="M1526.033,271.661c-.835.078-1.172-.27-1.117-1.133.068-1.07.03-2.146.039-3.22A7.291,7.291,0,0,1,1526.033,271.661Z" transform="translate(-134.203 -107.756)" fill="#3e8dc1"/>
      <path id="Trazado_588332" data-name="Trazado 588332" d="M1499.8,249.557a.626.626,0,0,1-.414.615C1499.311,249.821,1499.269,249.495,1499.8,249.557Z" transform="translate(-115.929 -95.064)" fill="#8dd8e3"/>
      <path id="Trazado_588333" data-name="Trazado 588333" d="M1472.271,258.16l-.437-.41c.107-.064.252-.208.313-.178C1472.409,257.7,1472.327,257.94,1472.271,258.16Z" transform="translate(-96.267 -100.795)" fill="#8dd8e3"/>
      <path id="Trazado_588334" data-name="Trazado 588334" d="M1516.882,257.746l-.434.416c-.057-.22-.138-.461.12-.592C1516.628,257.54,1516.776,257.683,1516.882,257.746Z" transform="translate(-128.113 -100.794)" fill="#8dd8e3"/>
      <path id="Trazado_588335" data-name="Trazado 588335" d="M1489.411,250.166a.619.619,0,0,1-.417-.61C1489.527,249.491,1489.49,249.814,1489.411,250.166Z" transform="translate(-108.533 -95.062)" fill="#8dd8e3"/>
      <path id="Trazado_588336" data-name="Trazado 588336" d="M1482.834,250.854l-.406.579C1482.315,251.067,1482.567,250.955,1482.834,250.854Z" transform="translate(-103.819 -95.996)" fill="#8dd8e3"/>
      <path id="Trazado_588337" data-name="Trazado 588337" d="M1506.884,251.82c-.161-.077-.417-.118-.137-.362Z" transform="translate(-121.131 -96.428)" fill="#8dd8e3"/>
    </g>
  </g>
</svg>
