<svg xmlns="http://www.w3.org/2000/svg" xmlns:xlink="http://www.w3.org/1999/xlink" width="295" height="350.152" viewBox="0 0 295 350.152">
  <defs>
    <clipPath id="clip-path">
      <path id="Trazado_588149" data-name="Trazado 588149" d="M193.1,241.689,177.143,250.9l-9.81,5.659a10.46,10.46,0,0,0-.924.535,13,13,0,0,0-6.234,11.188l-.008,45.861a12.978,12.978,0,0,1-5.262,10.524,13.285,13.285,0,0,1-7.937,2.667,13.066,13.066,0,0,1-6.559-1.784,39.52,39.52,0,0,1-19.757-34.221V243.761a39.512,39.512,0,0,0-19.758-34.221l72.45-41.83h0a39.551,39.551,0,0,1,19.766,34.237V222.67C193.11,228.6,193.1,241.689,193.1,241.689Z" transform="translate(-100.894 -167.71)" fill="none"/>
    </clipPath>
  </defs>
  <g id="Grupo_848372" data-name="Grupo 848372" transform="translate(-285 -1222)">
    <g id="Grupo_847520" data-name="Grupo 847520" transform="translate(214.931 1206.285)">
      <path id="Shadow" d="M115,345.941l150.159,86.7L333.982,392.9l-150.19-86.715Z" transform="translate(-10.329 -66.771)" fill="#e0e0e0"/>
      <g id="Device" transform="translate(70.069 15.715)">
        <g id="Device-2" data-name="Device">
          <g id="Grupo_847425" data-name="Grupo 847425" transform="translate(10.562 6.432)">
            <path id="Trazado_588087" data-name="Trazado 588087" d="M179.373,24.527,87.134,77.774a7.441,7.441,0,0,0-3.351,5.813V291.6c0,2.137,1.5,3.008,3.351,1.935l92.239-53.247a7.44,7.44,0,0,0,3.351-5.813V26.461C182.724,24.324,181.22,23.454,179.373,24.527ZM177.9,215.31c0,1.829-1.284,3-2.875,3.91L91.152,267.639c-1.583.915-2.876.176-2.876-1.662V103.03a6.385,6.385,0,0,1,2.876-4.986L175.02,49.633c1.591-.923,2.875-.176,2.875,1.653Z" transform="translate(-83.783 -24.067)" fill="#37474f"/>
          </g>
          <g id="Grupo_847426" data-name="Grupo 847426" transform="translate(0 56.552)">
            <path id="Trazado_588088" data-name="Trazado 588088" d="M83.563,308.708a7.508,7.508,0,0,1-6.3-.208l-3.836-2.217a7.393,7.393,0,0,1-3.363-5.813v-208a6.338,6.338,0,0,1,.581-2.508,8.062,8.062,0,0,1,.4-.806.008.008,0,0,0,.008-.008l10.555,6.1h.008a9.194,9.194,0,0,0-.581,1.229,6.1,6.1,0,0,0-.407,2.076V306.565C80.632,308.534,81.911,309.431,83.563,308.708Z" transform="translate(-70.069 -89.146)" fill="#263238"/>
          </g>
          <path id="Trazado_588089" data-name="Trazado 588089" d="M147.474,315.447c2.924-1.688,5.3-.32,5.3,3.057a11.707,11.707,0,0,1-5.3,9.172c-2.925,1.688-5.3.32-5.3-3.057A11.7,11.7,0,0,1,147.474,315.447Z" transform="translate(-86.645 -84.448)" fill="#27debf"/>
          <g id="Grupo_847427" data-name="Grupo 847427" transform="translate(49.475 37.694)">
            <path id="Trazado_588090" data-name="Trazado 588090" d="M147.349,64.967c1.241-.717,2.248-.136,2.248,1.3a4.97,4.97,0,0,1-2.248,3.895c-1.242.718-2.249.136-2.249-1.3A4.968,4.968,0,0,1,147.349,64.967Z" transform="translate(-136.792 -64.66)"/>
            <path id="Trazado_588091" data-name="Trazado 588091" d="M136.188,79.746,153.55,69.722c1.036-.6,1.875-.173,1.875.949a4.022,4.022,0,0,1-1.875,3.115L136.187,83.81c-1.036.6-1.875.173-1.875-.949A4.024,4.024,0,0,1,136.188,79.746Z" transform="translate(-134.312 -65.762)"/>
          </g>
          <path id="Trazado_588092" data-name="Trazado 588092" d="M179.236,222.6c0,1.829-1.284,3-2.875,3.909L92.494,274.93c-1.583.914-2.876.176-2.876-1.662V110.321a6.385,6.385,0,0,1,2.876-4.987l83.868-48.41c1.591-.923,2.875-.176,2.875,1.653Z" transform="translate(-74.563 -25.096)" fill="#27debf" stroke="#fff" stroke-miterlimit="10" stroke-width="1"/>
          <g id="Grupo_847428" data-name="Grupo 847428" transform="translate(0.988)">
            <path id="Trazado_588093" data-name="Trazado 588093" d="M179.833,24.009c-.241-1.744-1.636-2.375-3.313-1.4L84.273,75.854a6.832,6.832,0,0,0-2.367,2.508l-10.555-6.1a6.8,6.8,0,0,1,2.375-2.491l92.229-53.257a7.407,7.407,0,0,1,6.71,0l3.854,2.209A7.524,7.524,0,0,1,179.833,24.009Z" transform="translate(-71.352 -15.715)" fill="#455a64"/>
          </g>
        </g>
        <g id="Grupo_847429" data-name="Grupo 847429" transform="translate(33.957 83.111)">
          <path id="Trazado_588094" data-name="Trazado 588094" d="M120.26,154.726a5.647,5.647,0,0,1,2.632-.861,3.093,3.093,0,0,1,2.057.662,4.489,4.489,0,0,1,1.358,2.062,10.892,10.892,0,0,1,.552,3.3q.023.663.022,1.225v2.139c0,.364-.007.766-.022,1.2a18.522,18.522,0,0,1-.542,3.947,17.282,17.282,0,0,1-1.326,3.595,14.287,14.287,0,0,1-2.016,3.014,10.309,10.309,0,0,1-2.61,2.166l-5.64,3.257a.3.3,0,0,1-.4-.029.684.684,0,0,1-.167-.514V159.115a1.638,1.638,0,0,1,.167-.707,1.051,1.051,0,0,1,.4-.486ZM123,161.989q-.126-3.626-2.841-2.058l-2.129,1.23v12.218l2.235-1.29q2.63-1.519,2.736-5.276c.013-.459.021-.886.021-1.283v-2.3C123.016,162.844,123.008,162.431,123,161.989Z" transform="translate(-114.161 -130.582)" fill="#fff"/>
          <path id="Trazado_588095" data-name="Trazado 588095" d="M140.639,142.687q.418-.24.637-.015a1.227,1.227,0,0,1,.3.533l4.552,17.628a1.6,1.6,0,0,1,.084.435,1.341,1.341,0,0,1-.136.576.853.853,0,0,1-.323.4l-2.632,1.519q-.418.241-.6.071a.73.73,0,0,1-.219-.4l-.585-2.331-5.555,3.208-.585,3.006a2.386,2.386,0,0,1-.219.658,1.411,1.411,0,0,1-.6.617l-2.631,1.519a.247.247,0,0,1-.324-.022.563.563,0,0,1-.135-.421,2.786,2.786,0,0,1,.083-.53l4.553-22.886a4.174,4.174,0,0,1,.3-.883,1.545,1.545,0,0,1,.637-.722Zm-3.383,16,3.383-1.953L138.948,150Z" transform="translate(-118.188 -127.985)" fill="#fff"/>
          <path id="Trazado_588096" data-name="Trazado 588096" d="M161.276,130.305a.3.3,0,0,1,.4.028.689.689,0,0,1,.167.514v3.409a1.65,1.65,0,0,1-.167.708,1.063,1.063,0,0,1-.4.487l-3.676,2.122v16.495a1.65,1.65,0,0,1-.167.708,1.075,1.075,0,0,1-.4.487l-2.736,1.579a.3.3,0,0,1-.4-.029.684.684,0,0,1-.166-.514V139.8l-3.677,2.122a.3.3,0,0,1-.4-.028.682.682,0,0,1-.167-.514v-3.409a1.633,1.633,0,0,1,.167-.708,1.059,1.059,0,0,1,.4-.486Z" transform="translate(-122.284 -125.153)" fill="#fff"/>
          <path id="Trazado_588097" data-name="Trazado 588097" d="M173.426,123.757c.279-.16.491-.165.638-.015a1.237,1.237,0,0,1,.3.533l4.552,17.629a1.571,1.571,0,0,1,.084.434,1.33,1.33,0,0,1-.136.576.86.86,0,0,1-.323.4l-2.632,1.519q-.418.241-.6.071a.726.726,0,0,1-.219-.4l-.585-2.332-5.555,3.208-.585,3.007a2.39,2.39,0,0,1-.219.657,1.409,1.409,0,0,1-.6.617l-2.632,1.519a.247.247,0,0,1-.324-.022.562.562,0,0,1-.135-.42,2.782,2.782,0,0,1,.083-.531l4.553-22.886a4.168,4.168,0,0,1,.3-.882,1.551,1.551,0,0,1,.637-.722Zm-3.383,16,3.383-1.953-1.691-6.741Z" transform="translate(-125.725 -123.633)" fill="#fff"/>
        </g>
      </g>
      <g id="Analysis" transform="translate(87.221 123.264)">
        <g id="Grupo_847432" data-name="Grupo 847432">
          <g id="Grupo_847430" data-name="Grupo 847430">
            <path id="Trazado_588098" data-name="Trazado 588098" d="M96.616,205.368l82.331-47.533v11.407L96.616,216.777Z" transform="translate(-93.323 -155.933)" fill="#455a64"/>
            <path id="Trazado_588099" data-name="Trazado 588099" d="M100.894,208.973v3.8l75.744-43.73v-3.8Z" transform="translate(-94.306 -157.635)" fill="#263238"/>
            <path id="Trazado_588100" data-name="Trazado 588100" d="M95.634,204.8l-3.293-1.9,82.332-47.533,3.292,1.9Z" transform="translate(-92.34 -155.365)" fill="#37474f"/>
            <path id="Trazado_588101" data-name="Trazado 588101" d="M92.34,217.087l3.293,1.9V230.4l-3.292-1.9Z" transform="translate(-92.34 -169.553)" fill="#263238"/>
          </g>
          <g id="Grupo_847431" data-name="Grupo 847431" transform="translate(6.588 9.507)">
            <path id="Trazado_588102" data-name="Trazado 588102" d="M382.88,411.6l-72.459,41.806v-1.857l72.451-41.806Z" transform="translate(-149.058 -223.347)" fill="#37474f"/>
            <path id="Trazado_588103" data-name="Trazado 588103" d="M193.1,241.689,177.143,250.9l-9.81,5.659a10.46,10.46,0,0,0-.924.535,13,13,0,0,0-6.234,11.188l-.008,45.861a12.978,12.978,0,0,1-5.262,10.524,13.285,13.285,0,0,1-7.937,2.667,13.066,13.066,0,0,1-6.559-1.784,39.52,39.52,0,0,1-19.757-34.221V243.761a39.512,39.512,0,0,0-19.758-34.221l72.45-41.83h0a39.551,39.551,0,0,1,19.766,34.237V222.67C193.11,228.6,193.1,241.689,193.1,241.689Z" transform="translate(-100.894 -167.71)" fill="#f5f5f5"/>
            <path id="Trazado_588104" data-name="Trazado 588104" d="M219.451,383.68a39.5,39.5,0,0,1-19.757-34.213l0-45.89a39.4,39.4,0,0,0-3.105-15.347,40.559,40.559,0,0,0-2.189-4.411,39.521,39.521,0,0,0-14.463-14.455h0a13.17,13.17,0,0,0-19.75,11.416l0,4.674-.01-4.682-.008,45.861,0-9.542v9.525a13.182,13.182,0,0,1-19.759,11.424,39.52,39.52,0,0,1-19.758-34.221V256.247a39.517,39.517,0,0,0-19.758-34.221v1.9a37.986,37.986,0,0,1,18.136,32.324v47.572A41.251,41.251,0,0,0,139.6,339.442a14.64,14.64,0,0,0,14.8,0c.283-.162.559-.332.835-.518l.025-.016a14.631,14.631,0,0,0,6.535-12.275l.008-45.861a11.549,11.549,0,0,1,17.326-10,37.97,37.97,0,0,1,18.947,32.811v10.648l0,35.242a41.26,41.26,0,0,0,20.569,35.623l43.616,25.169V408.4Z" transform="translate(-100.894 -180.196)" fill="#455a64"/>
            <path id="Trazado_588105" data-name="Trazado 588105" d="M354.539,367.712l-72.451,41.806L239.282,384.8a39.5,39.5,0,0,1-19.757-34.213l0-45.89a39.415,39.415,0,0,0-3.105-15.347,40.562,40.562,0,0,0-2.189-4.411,39.521,39.521,0,0,0-14.463-14.455,13.019,13.019,0,0,0-12.6-.316l9.81-5.659,19.737-11.4,42.248-24.387.1-.065a13.034,13.034,0,0,1,13.15.008,39.515,39.515,0,0,1,19.758,34.221l0,45.881a39.521,39.521,0,0,0,19.758,34.221Z" transform="translate(-120.725 -181.312)" fill="#fafafa"/>
            <path id="Trazado_588106" data-name="Trazado 588106" d="M214.037,317.657a37.97,37.97,0,0,0-18.947-32.811,11.549,11.549,0,0,0-17.326,10l-.008,45.861a14.631,14.631,0,0,1-6.535,12.275L171.2,353c-.276.186-.551.357-.835.518l43.675-25.217Z" transform="translate(-116.863 -194.276)" fill="#e0e0e0"/>
            <path id="Trazado_588107" data-name="Trazado 588107" d="M214.037,317.657a37.97,37.97,0,0,0-18.947-32.811,11.549,11.549,0,0,0-17.326,10l-.008,45.861a14.631,14.631,0,0,1-6.535,12.275L171.2,353c-.276.186-.551.357-.835.518l43.675-25.217Z" transform="translate(-116.863 -194.276)" opacity="0.15"/>
          </g>
        </g>
        <g id="Grupo_847472" data-name="Grupo 847472" transform="translate(6.588 9.507)">
          <g id="Grupo_847471" data-name="Grupo 847471" clip-path="url(#clip-path)">
            <g id="Grupo_847470" data-name="Grupo 847470" transform="translate(11.87 7.134)">
              <path id="Trazado_588108" data-name="Trazado 588108" d="M117.305,211.9a5.64,5.64,0,0,0,6.152.464l51.7-29.849c1.938-1.12,2.4-3.214.88-4.521s-4.424-1.33-6.363-.211l-51.724,29.864C116.009,208.764,115.78,210.595,117.305,211.9Z" transform="translate(-116.307 -176.974)" fill="#27debf"/>
              <g id="Grupo_847433" data-name="Grupo 847433" transform="translate(42.105 8.529)">
                <path id="Trazado_588109" data-name="Trazado 588109" d="M171.555,203.153a.575.575,0,0,1-.289-1.072l24.173-13.956a.574.574,0,1,1,.575.994l-24.172,13.957A.578.578,0,0,1,171.555,203.153Z" transform="translate(-170.979 -188.048)" opacity="0.4"/>
              </g>
              <g id="Grupo_847434" data-name="Grupo 847434" transform="translate(43.97 11.641)">
                <path id="Trazado_588110" data-name="Trazado 588110" d="M173.977,207.194a.575.575,0,0,1-.288-1.072l24.172-13.956a.574.574,0,1,1,.575.994l-24.172,13.956A.571.571,0,0,1,173.977,207.194Z" transform="translate(-173.402 -192.09)" opacity="0.4"/>
              </g>
              <g id="Grupo_847435" data-name="Grupo 847435" transform="translate(45.538 14.882)">
                <path id="Trazado_588111" data-name="Trazado 588111" d="M176.012,211.4a.575.575,0,0,1-.288-1.072L199.9,196.375a.574.574,0,0,1,.575.994L176.3,211.326A.572.572,0,0,1,176.012,211.4Z" transform="translate(-175.437 -196.298)" opacity="0.4"/>
              </g>
              <g id="Grupo_847436" data-name="Grupo 847436" transform="translate(46.797 18.254)">
                <path id="Trazado_588112" data-name="Trazado 588112" d="M177.647,215.78a.574.574,0,0,1-.288-1.072l24.171-13.956a.574.574,0,1,1,.575,1L177.934,215.7A.571.571,0,0,1,177.647,215.78Z" transform="translate(-177.072 -200.676)" opacity="0.4"/>
              </g>
              <g id="Grupo_847437" data-name="Grupo 847437" transform="translate(47.717 21.557)">
                <path id="Trazado_588113" data-name="Trazado 588113" d="M178.842,220.07a.575.575,0,0,1-.289-1.072l24.172-13.956a.574.574,0,0,1,.575.995l-24.171,13.956A.571.571,0,0,1,178.842,220.07Z" transform="translate(-178.266 -204.965)" opacity="0.4"/>
              </g>
              <g id="Grupo_847438" data-name="Grupo 847438" transform="translate(48.338 25.108)">
                <path id="Trazado_588114" data-name="Trazado 588114" d="M179.649,224.681a.575.575,0,0,1-.289-1.072l24.172-13.957a.574.574,0,0,1,.575.995L179.936,224.6A.573.573,0,0,1,179.649,224.681Z" transform="translate(-179.073 -209.576)" opacity="0.4"/>
              </g>
              <g id="Grupo_847439" data-name="Grupo 847439" transform="translate(48.676 28.897)">
                <path id="Trazado_588115" data-name="Trazado 588115" d="M180.088,229.6a.575.575,0,0,1-.289-1.072l24.173-13.956a.574.574,0,1,1,.575,1l-24.172,13.956A.571.571,0,0,1,180.088,229.6Z" transform="translate(-179.512 -214.496)" opacity="0.4"/>
              </g>
              <g id="Grupo_847440" data-name="Grupo 847440" transform="translate(14.382 36.349)">
                <path id="Trazado_588116" data-name="Trazado 588116" d="M135.388,258.845a.405.405,0,0,1-.2-.756l58.652-33.863a.405.405,0,0,1,.406.7L135.59,258.791A.4.4,0,0,1,135.388,258.845Z" transform="translate(-134.982 -224.172)" opacity="0.4"/>
                <path id="Trazado_588117" data-name="Trazado 588117" d="M135.388,263.546a.4.4,0,0,1-.2-.755l58.652-33.864a.405.405,0,1,1,.406.7L135.59,263.491A.4.4,0,0,1,135.388,263.546Z" transform="translate(-134.982 -225.252)" opacity="0.4"/>
                <path id="Trazado_588118" data-name="Trazado 588118" d="M135.388,268.247a.406.406,0,0,1-.2-.756l58.652-33.863a.405.405,0,1,1,.406.7L135.59,268.193A.4.4,0,0,1,135.388,268.247Z" transform="translate(-134.982 -226.333)" opacity="0.4"/>
                <path id="Trazado_588119" data-name="Trazado 588119" d="M135.388,272.948a.405.405,0,0,1-.2-.756l58.652-33.863a.4.4,0,1,1,.406.7L135.59,272.894A.4.4,0,0,1,135.388,272.948Z" transform="translate(-134.982 -227.413)" opacity="0.4"/>
              </g>
              <g id="Grupo_847445" data-name="Grupo 847445" transform="translate(5.834 33.742)">
                <g id="Grupo_847442" data-name="Grupo 847442" transform="translate(8.548 13.277)">
                  <g id="Grupo_847441" data-name="Grupo 847441">
                    <path id="Trazado_588120" data-name="Trazado 588120" d="M135.388,256.767a.406.406,0,0,1-.2-.756l31.051-17.929a.405.405,0,1,1,.406.7L135.59,256.713A.4.4,0,0,1,135.388,256.767Z" transform="translate(-134.982 -238.028)" opacity="0.4"/>
                  </g>
                </g>
                <g id="Grupo_847443" data-name="Grupo 847443" transform="translate(7.965 8.704)">
                  <path id="Trazado_588121" data-name="Trazado 588121" d="M134.338,234.615a38.218,38.218,0,0,1,2.876,7.338,37.832,37.832,0,0,1,1.344,8.032.586.586,0,0,0,.952.5l1.727-1a1.766,1.766,0,0,0,.811-1.518,41.189,41.189,0,0,0-1.453-8.266,44.526,44.526,0,0,0-2.779-7.1.979.979,0,0,0-1.364-.382l-1.7.98A1.081,1.081,0,0,0,134.338,234.615Z" transform="translate(-134.226 -232.09)" fill="#27debf"/>
                </g>
                <g id="Grupo_847444" data-name="Grupo 847444" transform="translate(13.039 1.639)">
                  <path id="Trazado_588122" data-name="Trazado 588122" d="M140.974,225.339a40.809,40.809,0,0,1,4.155,8.858,38.27,38.27,0,0,1,1.854,9.694.579.579,0,0,0,.941.505l1.726-1a1.782,1.782,0,0,0,.819-1.519,41.461,41.461,0,0,0-1.888-9.676,39.765,39.765,0,0,0-4.127-8.8,1.1,1.1,0,0,0-1.439-.356L141.3,224A.922.922,0,0,0,140.974,225.339Z" transform="translate(-140.813 -222.915)" fill="#27debf"/>
                </g>
                <path id="Trazado_588123" data-name="Trazado 588123" d="M155.377,232.391" transform="translate(-131.122 -223.455)" fill="#27debf"/>
                <path id="Trazado_588124" data-name="Trazado 588124" d="M158.03,230.424l-1.7.98a1.316,1.316,0,0,0-.565,1.47,39.537,39.537,0,0,1,1.541,8.731.579.579,0,0,0,.941.5l1.726-1a1.782,1.782,0,0,0,.819-1.519,41.227,41.227,0,0,0-1.59-8.706A.77.77,0,0,0,158.03,230.424Z" transform="translate(-131.201 -222.974)" fill="#27debf"/>
                <path id="Trazado_588125" data-name="Trazado 588125" d="M166.624,221.349a.867.867,0,0,0-1.268-.435l-1.71.973a1.185,1.185,0,0,0-.494,1.438q.464,1.162.894,2.415a38.271,38.271,0,0,1,1.854,9.694.579.579,0,0,0,.941.505l1.726-1a1.783,1.783,0,0,0,.818-1.519,41.422,41.422,0,0,0-1.888-9.676Q167.09,222.516,166.624,221.349Z" transform="translate(-132.892 -220.788)" fill="#27debf"/>
                <path id="Trazado_588126" data-name="Trazado 588126" d="M134.028,247.671a.285.285,0,0,0-.392-.1l-.722.417c-.158-1-.344-1.983-.571-2.953l.977-.564a.287.287,0,0,0-.286-.5l-.837.483c-.243-.977-.514-1.944-.828-2.892l.93-.536a.287.287,0,0,0-.287-.5l-.836.483c-.32-.923-.665-1.836-1.051-2.729l-.033-.074.922-.532a.287.287,0,1,0-.286-.5l-.87.5q-.6-1.355-1.332-2.692l.92-.531a.287.287,0,1,0-.286-.5l-.911.526c-.487-.86-1.016-1.714-1.58-2.559l1.034-.6a.287.287,0,0,0-.287-.5l-1.07.617c-.609-.886-1.255-1.763-1.947-2.627a.287.287,0,1,0-.448.359q1.01,1.263,1.9,2.556l-.986.569a.287.287,0,0,0,.143.536.292.292,0,0,0,.143-.038l1.021-.59q.849,1.267,1.582,2.558l-1.145.662a.287.287,0,1,0,.286.5l1.137-.656q.73,1.338,1.33,2.693l-1.185.685a.287.287,0,1,0,.287.5l1.133-.654,0,.01c.4.915.749,1.849,1.074,2.8l-1.212.7a.287.287,0,1,0,.286.5l1.12-.646c.31.95.578,1.918.817,2.9l-1.2.694a.287.287,0,0,0,.143.536.282.282,0,0,0,.143-.038l1.061-.612c.223.973.4,1.962.556,2.962l-1.3.751a.287.287,0,1,0,.287.5l1.111-.642q.252,1.818.35,3.687a.287.287,0,0,0,.287.273h.015a.287.287,0,0,0,.272-.3c-.07-1.34-.2-2.662-.39-3.964l.911-.526A.287.287,0,0,0,134.028,247.671Z" transform="translate(-123.883 -222.61)" opacity="0.4"/>
              </g>
              <g id="Grupo_847464" data-name="Grupo 847464" transform="translate(13.311 64.891)">
                <g id="Grupo_847448" data-name="Grupo 847448" transform="translate(4.921 5.796)" opacity="0.15">
                  <g id="Grupo_847446" data-name="Grupo 847446" transform="translate(0.406 0.406)">
                    <path id="Trazado_588127" data-name="Trazado 588127" d="M140.791,313.284a46.7,46.7,0,0,1-.261-6.529c.236-.836,3.734-12.841,10.169-16.583a4.4,4.4,0,0,1,1.268-.53,2.372,2.372,0,0,1,.527-.062c1.706,0,2.471,2.374,3.211,4.669a23.236,23.236,0,0,0,1.016,2.76c.438.922,1.185,2.149,2.605,2.149a3.6,3.6,0,0,0,1.764-.544c3.094-1.763,3.983-6.536,4.926-11.59a57.161,57.161,0,0,1,1.519-6.694c.939-2.95,2.156-4.776,3.831-5.747a2.97,2.97,0,0,1,1.432-.467c1.793,0,2.471,3.195,3.128,6.283a25.719,25.719,0,0,0,1.3,4.732c.654,1.489,1.513,2.213,2.626,2.213a3.74,3.74,0,0,0,1.855-.582c3.8-2.192,4.946-5.908,6.056-9.5.944-3.05,1.834-5.932,4.339-7.389a3.75,3.75,0,0,1,1.862-.585,2.342,2.342,0,0,1,.819.145,16.018,16.018,0,0,1,.121,1.72l.042,7.274c.068,1.391.16,2.484.289,3.425Z" transform="translate(-140.508 -269.286)" fill="#27debf"/>
                  </g>
                  <g id="Grupo_847447" data-name="Grupo 847447">
                    <path id="Trazado_588128" data-name="Trazado 588128" d="M195.556,281.941c-.162-1.087-.26-2.319-.324-3.64l-.041-7.272a16.643,16.643,0,0,0-.154-2,2.76,2.76,0,0,0-1.192-.267h0a4.12,4.12,0,0,0-2.067.64c-5.586,3.251-3.454,12.883-10.394,16.887a3.359,3.359,0,0,1-1.652.529c-1.035,0-1.733-.782-2.256-1.972-1.633-3.685-1.589-11.257-4.8-11.257a3.334,3.334,0,0,0-1.635.523c-1.986,1.151-3.178,3.348-4.012,5.975-2.068,6.486-1.946,15.6-6.26,18.055a3.216,3.216,0,0,1-1.563.492c-1.026,0-1.7-.791-2.239-1.919-1.335-2.8-1.8-7.66-4.592-7.66a2.793,2.793,0,0,0-.612.072,4.778,4.778,0,0,0-1.386.575c-6.859,3.989-10.37,16.871-10.37,16.871a46.932,46.932,0,0,0,.334,7.25l.794-.458c-.041-.224-.08-.421-.125-.864a46.221,46.221,0,0,1-.2-5.8c.325-1.136,3.764-12.686,9.972-16.3a3.994,3.994,0,0,1,1.154-.484,1.984,1.984,0,0,1,.434-.052c1.41,0,2.129,2.231,2.825,4.388a23.553,23.553,0,0,0,1.035,2.809c.28.589,1.131,2.381,2.971,2.381a3.979,3.979,0,0,0,1.965-.6c3.257-1.855,4.163-6.719,5.122-11.868a57.024,57.024,0,0,1,1.508-6.646c.9-2.848,2.064-4.6,3.645-5.518a2.594,2.594,0,0,1,1.23-.414c1.466,0,2.138,3.168,2.732,5.962a26.046,26.046,0,0,0,1.328,4.81c.716,1.63,1.725,2.456,3,2.456a4.12,4.12,0,0,0,2.057-.637c3.935-2.271,5.161-6.234,6.242-9.731.92-2.973,1.787-5.78,4.156-7.158a3.362,3.362,0,0,1,1.658-.529h0a1.941,1.941,0,0,1,.447.05c.087.822.089,1.4.089,1.413l.042,7.308c.062,1.254.144,2.278.257,3.171a5.653,5.653,0,0,0,.156.845l.721-.415" transform="translate(-139.981 -268.759)"/>
                  </g>
                </g>
                <g id="Grupo_847449" data-name="Grupo 847449" transform="translate(4.925 0.311)" opacity="0.4">
                  <path id="Trazado_588129" data-name="Trazado 588129" d="M140.008,301.264v3.67a46.368,46.368,0,0,0,.331,7.249l55.214-31.878c-.159-1.084-.26-2.32-.325-3.645l-.039-7.268s0-10.861-6.9-6.877c-7.252,4.187-5.2,17.484-10.35,20.457-5.195,3-3.45-8.869-10.351-4.885s-3.45,12.853-10.35,16.837-3.45-16.11-10.351-12.126S139.988,296.676,140.008,301.264Z" transform="translate(-139.986 -261.638)" fill="#27debf"/>
                </g>
                <g id="Grupo_847450" data-name="Grupo 847450" transform="translate(2.132 22.259)">
                  <path id="Trazado_588130" data-name="Trazado 588130" d="M136.647,324.338a.287.287,0,0,1-.142-.537l58.729-33.627a.287.287,0,0,1,.285.5L136.79,324.3A.288.288,0,0,1,136.647,324.338Z" transform="translate(-136.36 -290.136)" opacity="0.4"/>
                </g>
                <g id="Grupo_847454" data-name="Grupo 847454" transform="translate(11.534 22.258)">
                  <g id="Grupo_847451" data-name="Grupo 847451" transform="translate(0.005)">
                    <path id="Trazado_588131" data-name="Trazado 588131" d="M148.861,291.285a.288.288,0,0,1-.287-.287v-.575a.288.288,0,1,1,.575,0l0,.575A.287.287,0,0,1,148.861,291.285Z" transform="translate(-148.574 -290.135)" fill="#fff"/>
                  </g>
                  <g id="Grupo_847452" data-name="Grupo 847452" transform="translate(0 1.683)">
                    <path id="Trazado_588132" data-name="Trazado 588132" d="M149.025,313.876a.288.288,0,0,1-.286-.262c-.034-.367-.062-.737-.085-1.108a.287.287,0,0,1,.269-.3.266.266,0,0,1,.3.269q.035.55.084,1.093a.286.286,0,0,1-.26.312Zm-.135-2.2a.288.288,0,0,1-.287-.283c0-.319-.008-.689-.012-1.107a.288.288,0,0,1,.285-.29.264.264,0,0,1,.29.285c0,.417.007.786.012,1.1a.287.287,0,0,1-.283.292Zm-.018-2.21a.287.287,0,0,1-.287-.286l-.006-1.106a.287.287,0,0,1,.286-.288h0a.288.288,0,0,1,.287.286l.005,1.1a.288.288,0,0,1-.286.289Zm-.011-2.21a.288.288,0,0,1-.287-.286l0-1.1a.288.288,0,0,1,.286-.288h0a.287.287,0,0,1,.287.286l0,1.1a.288.288,0,0,1-.287.288Zm0-2.209a.288.288,0,0,1-.287-.287v-1.105a.287.287,0,0,1,.575,0v1.105A.288.288,0,0,1,148.857,305.044Zm0-2.21a.288.288,0,0,1-.287-.287v-1.1a.287.287,0,1,1,.575,0v1.1A.287.287,0,0,1,148.854,302.834Zm0-2.209a.288.288,0,0,1-.287-.287v-1.1a.287.287,0,1,1,.575,0v1.1A.287.287,0,0,1,148.854,300.625Zm0-2.21h0a.288.288,0,0,1-.286-.288v-1.1a.287.287,0,0,1,.575,0v1.105A.288.288,0,0,1,148.854,298.416Zm0-2.209h0a.288.288,0,0,1-.286-.288v-1.105a.287.287,0,1,1,.574,0v1.107A.288.288,0,0,1,148.856,296.207Zm0-2.21a.288.288,0,0,1-.287-.287l0-1.1a.29.29,0,0,1,.287-.289h0a.286.286,0,0,1,.286.286l0,1.1A.287.287,0,0,1,148.857,294Z" transform="translate(-148.567 -292.32)" fill="#fff"/>
                  </g>
                  <g id="Grupo_847453" data-name="Grupo 847453" transform="translate(0.286 23.759)">
                    <path id="Trazado_588133" data-name="Trazado 588133" d="M149.3,322.13a.288.288,0,0,1-.285-.25c-.025-.191-.05-.383-.072-.575a.287.287,0,0,1,.57-.066c.022.189.047.377.072.564a.287.287,0,0,1-.247.323A.21.21,0,0,1,149.3,322.13Z" transform="translate(-148.938 -320.986)" fill="#fff"/>
                  </g>
                </g>
                <g id="Grupo_847458" data-name="Grupo 847458" transform="translate(52.942 0.902)">
                  <g id="Grupo_847455" data-name="Grupo 847455" transform="translate(0.005)">
                    <path id="Trazado_588134" data-name="Trazado 588134" d="M202.629,263.555a.288.288,0,0,1-.287-.288v-.576a.287.287,0,0,1,.287-.286h0a.287.287,0,0,1,.286.288v.574A.288.288,0,0,1,202.629,263.555Z" transform="translate(-202.342 -262.405)" fill="#fff"/>
                  </g>
                  <g id="Grupo_847456" data-name="Grupo 847456" transform="translate(0 1.68)">
                    <path id="Trazado_588135" data-name="Trazado 588135" d="M202.793,286.144a.287.287,0,0,1-.286-.261c-.034-.367-.062-.737-.085-1.108a.287.287,0,0,1,.268-.3.277.277,0,0,1,.3.268q.035.55.084,1.093a.285.285,0,0,1-.26.312Zm-.135-2.2a.287.287,0,0,1-.287-.283c0-.318-.008-.689-.012-1.107a.287.287,0,0,1,.285-.29h0a.288.288,0,0,1,.287.285c0,.416.007.785.012,1.1a.287.287,0,0,1-.283.291Zm-.019-2.21a.289.289,0,0,1-.288-.286l-.005-1.107a.288.288,0,0,1,.286-.288h0a.288.288,0,0,1,.288.286l.005,1.105a.288.288,0,0,1-.286.289Zm-.01-2.209a.288.288,0,0,1-.287-.287l0-1.1a.288.288,0,0,1,.286-.288h0a.288.288,0,0,1,.287.286l0,1.1a.288.288,0,0,1-.286.289Zm0-2.21a.288.288,0,0,1-.287-.287v-1.1a.287.287,0,1,1,.574,0v1.1A.287.287,0,0,1,202.625,277.312Zm0-2.209a.288.288,0,0,1-.287-.287v-1.1a.287.287,0,1,1,.575,0v1.1A.288.288,0,0,1,202.622,275.1Zm0-2.208a.288.288,0,0,1-.287-.287V271.5a.287.287,0,0,1,.575,0v1.105A.288.288,0,0,1,202.622,272.895Zm0-2.211h0a.287.287,0,0,1-.286-.288v-1.1a.287.287,0,0,1,.575,0V270.4A.287.287,0,0,1,202.622,270.684Zm0-2.209h0a.287.287,0,0,1-.286-.288v-1.1a.287.287,0,1,1,.574,0v1.106A.287.287,0,0,1,202.623,268.475Zm0-2.209h0a.288.288,0,0,1-.286-.288v-1.1a.287.287,0,1,1,.575,0v1.106A.288.288,0,0,1,202.625,266.266Z" transform="translate(-202.335 -264.586)" fill="#fff"/>
                  </g>
                  <g id="Grupo_847457" data-name="Grupo 847457" transform="translate(0.285 23.758)">
                    <path id="Trazado_588136" data-name="Trazado 588136" d="M203.065,294.4a.288.288,0,0,1-.285-.25c-.025-.189-.05-.381-.073-.572a.287.287,0,0,1,.25-.32.279.279,0,0,1,.32.25q.035.283.073.566a.289.289,0,0,1-.247.323Z" transform="translate(-202.705 -293.254)" fill="#fff"/>
                  </g>
                </g>
                <g id="Grupo_847462" data-name="Grupo 847462" transform="translate(32.237 17.47)">
                  <g id="Grupo_847459" data-name="Grupo 847459" transform="translate(0.003)">
                    <path id="Trazado_588137" data-name="Trazado 588137" d="M175.742,285.067a.288.288,0,0,1-.288-.287v-.575a.288.288,0,0,1,.575,0v.575A.288.288,0,0,1,175.742,285.067Z" transform="translate(-175.454 -283.918)" fill="#fff"/>
                  </g>
                  <g id="Grupo_847460" data-name="Grupo 847460" transform="translate(0 1.651)">
                    <path id="Trazado_588138" data-name="Trazado 588138" d="M175.907,300.64a.287.287,0,0,1-.286-.26c-.034-.36-.062-.72-.085-1.084a.288.288,0,0,1,.269-.3.272.272,0,0,1,.3.269q.035.536.083,1.066a.287.287,0,0,1-.26.313Zm-.136-2.152a.288.288,0,0,1-.287-.285l-.013-1.077a.287.287,0,0,1,.284-.29h0a.287.287,0,0,1,.287.284l.013,1.077a.289.289,0,0,1-.284.291Zm-.022-2.153a.287.287,0,0,1-.287-.286l-.005-1.078a.287.287,0,0,1,.286-.289h0a.287.287,0,0,1,.287.286l.005,1.078a.287.287,0,0,1-.286.289Zm-.008-2.156a.289.289,0,0,1-.288-.286l0-1.077a.289.289,0,0,1,.287-.289h0a.288.288,0,0,1,.287.286l0,1.078a.288.288,0,0,1-.286.288Zm0-2.154a.289.289,0,0,1-.288-.288v-1.078a.288.288,0,0,1,.575,0v1.078A.288.288,0,0,1,175.738,292.025Zm0-2.156h0a.288.288,0,0,1-.287-.288V288.5a.288.288,0,0,1,.575,0v1.078A.288.288,0,0,1,175.738,289.87Zm0-2.155h0a.288.288,0,0,1-.287-.288v-1.077a.288.288,0,0,1,.575,0v1.079A.288.288,0,0,1,175.74,287.715Z" transform="translate(-175.45 -286.062)" fill="#fff"/>
                  </g>
                  <g id="Grupo_847461" data-name="Grupo 847461" transform="translate(0.282 16.723)">
                    <path id="Trazado_588139" data-name="Trazado 588139" d="M176.177,306.779a.289.289,0,0,1-.285-.25c-.025-.19-.05-.382-.073-.574a.287.287,0,1,1,.571-.069c.022.189.047.378.072.566a.288.288,0,0,1-.247.323Z" transform="translate(-175.816 -305.633)" fill="#fff"/>
                  </g>
                </g>
                <g id="Grupo_847463" data-name="Grupo 847463" transform="translate(10.828 20.188)">
                  <path id="Trazado_588140" data-name="Trazado 588140" d="M148.644,287.6c.548-.317.993-.106.993.469a2.1,2.1,0,0,1-.993,1.615c-.548.317-.993.107-.993-.469A2.1,2.1,0,0,1,148.644,287.6Z" transform="translate(-147.651 -287.448)" opacity="0.4"/>
                </g>
                <path id="Trazado_588141" data-name="Trazado 588141" d="M175.531,281.374c.548-.317.993-.106.993.469a2.1,2.1,0,0,1-.993,1.615c-.548.317-.993.107-.993-.468A2.1,2.1,0,0,1,175.531,281.374Z" transform="translate(-143.003 -265.829)" opacity="0.4"/>
                <path id="Trazado_588142" data-name="Trazado 588142" d="M202.41,261.381c.548-.316.993-.107.993.468a2.1,2.1,0,0,1-.993,1.616c-.548.317-.993.106-.993-.469A2.1,2.1,0,0,1,202.41,261.381Z" transform="translate(-149.182 -261.233)" opacity="0.4"/>
                <path id="Trazado_588143" data-name="Trazado 588143" d="M136.393,294.2a.287.287,0,0,0-.287-.5l-.75.433v-2.965l1.038-.6a.287.287,0,0,0-.287-.5l-.751.434v-3.122a.288.288,0,0,0-.575,0v3.454l-1.04.6a.287.287,0,1,0,.286.5l.753-.435v2.965l-1.04.6a.287.287,0,0,0,.143.536.294.294,0,0,0,.143-.039l.754-.436V298.1l-1.041.6a.287.287,0,1,0,.286.5l.755-.436v2.964l-1.042.6a.287.287,0,1,0,.286.5l.755-.437v2.965l-1.044.6a.287.287,0,1,0,.287.5l.756-.437v2.965l-1.044.6a.287.287,0,1,0,.287.5l.757-.437v2.964l-1.045.6a.287.287,0,1,0,.287.5l.752-.434c-.017.985-.008,1.968.035,2.945l-1.075.62a.287.287,0,0,0,.143.536.282.282,0,0,0,.143-.039l.823-.475c.062,1.078.154,2.15.289,3.207a.287.287,0,0,0,.285.25l.036,0a.287.287,0,0,0,.249-.321c-.145-1.137-.244-2.29-.3-3.454l.988-.571a.287.287,0,1,0-.286-.5l-.726.419c-.036-.98-.046-1.965-.022-2.953l1.035-.6a.287.287,0,0,0-.286-.5l-.746.431v-2.964l1.034-.6a.287.287,0,1,0-.286-.5l-.747.431v-2.965l1.035-.6a.287.287,0,0,0-.287-.5l-.748.432v-2.965l1.036-.6a.287.287,0,1,0-.287-.5l-.749.432v-2.964l1.036-.6a.287.287,0,0,0-.286-.5l-.749.433V294.8Z" transform="translate(-133.591 -267.179)" opacity="0.4"/>
              </g>
              <path id="Trazado_588144" data-name="Trazado 588144" d="M212.138,317.68l-55.161,31.848c-1.939,1.119-4.749.986-6.139-.443s-.821-3.608,1.118-4.727l55.145-31.84a5.035,5.035,0,0,1,5.911.669C214.406,314.614,214.076,316.56,212.138,317.68Z" transform="translate(-124.068 -207.98)" fill="#27debf"/>
              <g id="Grupo_847469" data-name="Grupo 847469" transform="translate(16.346 88.508)">
                <g id="Grupo_847465" data-name="Grupo 847465">
                  <path id="Trazado_588145" data-name="Trazado 588145" d="M137.937,328.583a.405.405,0,0,1-.2-.756l62.132-35.873a.405.405,0,1,1,.405.7L138.14,328.529A.4.4,0,0,1,137.937,328.583Z" transform="translate(-137.532 -291.899)" opacity="0.4"/>
                </g>
                <g id="Grupo_847466" data-name="Grupo 847466" transform="translate(1.27 3.353)">
                  <path id="Trazado_588146" data-name="Trazado 588146" d="M139.586,332.944a.405.405,0,0,1-.2-.756l62.141-35.879a.405.405,0,1,1,.406.7l-62.142,35.879A.4.4,0,0,1,139.586,332.944Z" transform="translate(-139.181 -296.253)" opacity="0.4"/>
                </g>
                <g id="Grupo_847467" data-name="Grupo 847467" transform="translate(2.837 6.57)">
                  <path id="Trazado_588147" data-name="Trazado 588147" d="M141.622,337.124a.405.405,0,0,1-.2-.756l62.149-35.883a.405.405,0,1,1,.406.7L141.824,337.07A.4.4,0,0,1,141.622,337.124Z" transform="translate(-141.216 -300.43)" opacity="0.4"/>
                </g>
                <g id="Grupo_847468" data-name="Grupo 847468" transform="translate(4.689 9.63)">
                  <path id="Trazado_588148" data-name="Trazado 588148" d="M144.025,341.1a.405.405,0,0,1-.2-.756L205.98,304.46a.405.405,0,0,1,.406.7l-62.159,35.888A.4.4,0,0,1,144.025,341.1Z" transform="translate(-143.62 -304.404)" opacity="0.4"/>
                </g>
              </g>
            </g>
          </g>
        </g>
        <g id="Grupo_847519" data-name="Grupo 847519" transform="translate(92.515 61.171)">
          <path id="Trazado_588150" data-name="Trazado 588150" d="M214.1,265.68l51.127-29.514c1.939-1.12,5.027-1.784,6.766-1.083s1.406,2.519-.534,3.638l-51.723,29.857a7.117,7.117,0,0,1-6.242.4C211.946,268.148,212.157,266.8,214.1,265.68Z" transform="translate(-212.469 -234.795)" fill="#27debf"/>
          <path id="Trazado_588151" data-name="Trazado 588151" d="M222.159,275.039a.405.405,0,0,1-.2-.756l58.931-34.017a.405.405,0,0,1,.405.7l-58.931,34.017A.4.4,0,0,1,222.159,275.039Z" transform="translate(-214.603 -236.04)" opacity="0.4"/>
          <path id="Trazado_588152" data-name="Trazado 588152" d="M225.328,278.445a.4.4,0,0,1-.2-.755l59.022-34.069a.405.405,0,1,1,.406.7l-59.022,34.069A.406.406,0,0,1,225.328,278.445Z" transform="translate(-215.332 -236.811)" opacity="0.4"/>
          <g id="Grupo_847473" data-name="Grupo 847473" transform="translate(11.946 43.734)">
            <path id="Trazado_588153" data-name="Trazado 588153" d="M235.8,319.613h0a.288.288,0,0,1-.287-.288l.012-3.127c.009-2.354.009-2.354-.059-3.946l-.012-.263a38.171,38.171,0,0,0-2.1-10.656,29.732,29.732,0,0,0-5.312-9.282.287.287,0,1,1,.447-.361,30.245,30.245,0,0,1,5.408,9.456,38.723,38.723,0,0,1,2.132,10.814l.012.268c.069,1.6.069,1.6.059,3.973l-.01,3.126A.288.288,0,0,1,235.8,319.613Z" transform="translate(-227.981 -291.583)" opacity="0.4"/>
          </g>
          <path id="Trazado_588154" data-name="Trazado 588154" d="M237.066,291.315c-.262-.461-.545-.913-.846-1.359a.912.912,0,0,1,.292-1.335l22.518-13a1.073,1.073,0,0,1,1.435.339c.271.444.528.91.779,1.4a1.088,1.088,0,0,1-.428,1.415L238.421,291.7A.983.983,0,0,1,237.066,291.315Z" transform="translate(-217.889 -244.147)" fill="#27debf"/>
          <path id="Trazado_588155" data-name="Trazado 588155" d="M240.2,293.095q.253.776.464,1.536a.734.734,0,0,0,1.133.474l53.427-30.839a1.394,1.394,0,0,0,.621-1.487q-.221-.8-.456-1.542a.793.793,0,0,0-1.2-.454l-53.436,30.845A1.293,1.293,0,0,0,240.2,293.095Z" transform="translate(-218.83 -240.74)" fill="#27debf"/>
          <path id="Trazado_588156" data-name="Trazado 588156" d="M240.2,293.095q.253.776.464,1.536a.734.734,0,0,0,1.133.474l53.427-30.839a1.394,1.394,0,0,0,.621-1.487q-.221-.8-.456-1.542a.793.793,0,0,0-1.2-.454l-53.436,30.845A1.293,1.293,0,0,0,240.2,293.095Z" transform="translate(-218.83 -240.74)" fill="#fff" opacity="0.7"/>
          <path id="Trazado_588157" data-name="Trazado 588157" d="M242.233,305.289c.069.568.127,1.123.171,1.66a.58.58,0,0,0,.942.5l36.193-20.891a1.76,1.76,0,0,0,.809-1.519q-.068-.832-.171-1.653a.631.631,0,0,0-1.015-.5L242.98,303.778A1.649,1.649,0,0,0,242.233,305.289Z" transform="translate(-219.309 -245.823)" fill="#27debf"/>
          <path id="Trazado_588158" data-name="Trazado 588158" d="M242.233,305.289c.069.568.127,1.123.171,1.66a.58.58,0,0,0,.942.5l36.193-20.891a1.76,1.76,0,0,0,.809-1.519q-.068-.832-.171-1.653a.631.631,0,0,0-1.015-.5L242.98,303.778A1.649,1.649,0,0,0,242.233,305.289Z" transform="translate(-219.309 -245.823)" opacity="0.15"/>
          <path id="Trazado_588159" data-name="Trazado 588159" d="M242.618,318.433v1.628c0,.559.394.786.878.507l15.495-8.945a1.94,1.94,0,0,0,.877-1.52v-1.627c0-.56-.393-.787-.877-.508L243.5,316.912A1.94,1.94,0,0,0,242.618,318.433Z" transform="translate(-219.399 -251.588)" fill="#27debf"/>
          <path id="Trazado_588160" data-name="Trazado 588160" d="M242.618,318.433v1.628c0,.559.394.786.878.507l15.495-8.945a1.94,1.94,0,0,0,.877-1.52v-1.627c0-.56-.393-.787-.877-.508L243.5,316.912A1.94,1.94,0,0,0,242.618,318.433Z" transform="translate(-219.399 -251.588)" fill="#fff" opacity="0.5"/>
          <path id="Trazado_588161" data-name="Trazado 588161" d="M297.65,288.184a.288.288,0,0,0-.287.287v1.394l-4.129,2.384v-1.043a.287.287,0,1,0-.575,0v1.375l-4.13,2.384V293.94a.287.287,0,1,0-.575,0V295.3l-4.129,2.384v-1.006a.288.288,0,0,0-.575,0v1.337l-4.13,2.384v-.987a.287.287,0,1,0-.575,0v1.318l-4.13,2.384v-.968a.287.287,0,1,0-.574,0v1.3l-4.129,2.384v-.95a.288.288,0,1,0-.575,0v1.281l-4.129,2.384v-.932a.287.287,0,1,0-.574,0v1.264l-4.13,2.384v-.913a.287.287,0,0,0-.575,0v1.245l-4.129,2.384v-.894a.288.288,0,0,0-.575,0V314.3l-4.129,2.384v-.876a.287.287,0,0,0-.575,0v1.207l-4.131,2.384v-.856a.287.287,0,1,0-.575,0v1.188l-3.584,2.069a.287.287,0,0,0,.143.536.281.281,0,0,0,.143-.039l3.3-1.9v1.167a.287.287,0,0,0,.575,0v-1.5l4.131-2.384v1.148a.287.287,0,1,0,.575,0v-1.48l4.129-2.384v1.13a.288.288,0,0,0,.575,0v-1.462l4.129-2.384v1.111a.287.287,0,0,0,.575,0v-1.443l4.13-2.384v1.092a.287.287,0,1,0,.574,0V309.2l4.129-2.384v1.074a.288.288,0,1,0,.575,0v-1.405l4.129-2.384v1.056a.287.287,0,1,0,.574,0v-1.388l4.13-2.384v1.037a.287.287,0,0,0,.575,0v-1.368l4.13-2.384v1.018a.288.288,0,0,0,.575,0v-1.35l4.129-2.384v1a.287.287,0,1,0,.575,0v-1.332l4.13-2.384v.981a.287.287,0,1,0,.575,0v-1.313l4.129-2.384v.962a.288.288,0,1,0,.575,0v-3.018A.288.288,0,0,0,297.65,288.184Z" transform="translate(-219.231 -247.068)" opacity="0.4"/>
          <g id="Grupo_847477" data-name="Grupo 847477" transform="translate(19.782 78.847)">
            <g id="Grupo_847474" data-name="Grupo 847474">
              <path id="Trazado_588162" data-name="Trazado 588162" d="M251.509,337.375a10.144,10.144,0,0,0-3.008,1.216c-5.716,3.356-10.345,11.755-10.345,18.76,0,.186,0,.365.008.543l10.329-4.726Z" transform="translate(-238.156 -337.222)" fill="#27debf"/>
              <path id="Trazado_588163" data-name="Trazado 588163" d="M254.595,337.329l-3.016,15.793,10.24-5.943a17.06,17.06,0,0,0,.113-1.913C261.932,339.5,258.843,336.438,254.595,337.329Z" transform="translate(-241.242 -337.177)" fill="#27debf"/>
              <path id="Trazado_588164" data-name="Trazado 588164" d="M260.521,355.492a22.034,22.034,0,0,0,1.3-5.327l-10.24,5.943Z" transform="translate(-241.242 -340.162)" fill="#27debf"/>
              <path id="Trazado_588165" data-name="Trazado 588165" d="M238.167,362.424c.235,6.624,4.776,9.389,10.337,6.178,3.819-2.2,7.151-6.68,8.934-11.52l-8.942.616Z" transform="translate(-238.159 -341.752)" fill="#27debf"/>
            </g>
            <g id="Grupo_847475" data-name="Grupo 847475" transform="translate(0.008)">
              <path id="Trazado_588166" data-name="Trazado 588166" d="M254.595,337.329l-3.016,15.793,10.24-5.943a17.06,17.06,0,0,0,.113-1.913C261.932,339.5,258.843,336.438,254.595,337.329Z" transform="translate(-241.25 -337.177)" fill="#fff" opacity="0.7"/>
              <path id="Trazado_588167" data-name="Trazado 588167" d="M260.521,355.492a22.034,22.034,0,0,0,1.3-5.327l-10.24,5.943Z" transform="translate(-241.25 -340.162)" opacity="0.15"/>
              <path id="Trazado_588168" data-name="Trazado 588168" d="M238.167,362.424c.235,6.624,4.776,9.389,10.337,6.178,3.819-2.2,7.151-6.68,8.934-11.52l-8.942.616Z" transform="translate(-238.167 -341.752)" fill="#fff" opacity="0.5"/>
            </g>
            <g id="Grupo_847476" data-name="Grupo 847476">
              <path id="Trazado_588169" data-name="Trazado 588169" d="M251.509,337.375a10.144,10.144,0,0,0-3.008,1.216c-5.716,3.356-10.345,11.755-10.345,18.76,0,.186,0,.365.008.543l10.329-4.726Z" transform="translate(-238.156 -337.222)" fill="none" stroke="#fff" stroke-linecap="round" stroke-linejoin="round" stroke-width="1.053"/>
              <path id="Trazado_588170" data-name="Trazado 588170" d="M254.595,337.329l-3.016,15.793,10.24-5.943a17.06,17.06,0,0,0,.113-1.913C261.932,339.5,258.843,336.438,254.595,337.329Z" transform="translate(-241.242 -337.177)" fill="none" stroke="#fff" stroke-linecap="round" stroke-linejoin="round" stroke-width="1.053"/>
              <path id="Trazado_588171" data-name="Trazado 588171" d="M260.521,355.492a22.034,22.034,0,0,0,1.3-5.327l-10.24,5.943Z" transform="translate(-241.242 -340.162)" fill="none" stroke="#fff" stroke-linecap="round" stroke-linejoin="round" stroke-width="1.053"/>
              <path id="Trazado_588172" data-name="Trazado 588172" d="M238.167,362.424c.235,6.624,4.776,9.389,10.337,6.178,3.819-2.2,7.151-6.68,8.934-11.52l-8.942.616Z" transform="translate(-238.159 -341.752)" fill="none" stroke="#fff" stroke-linecap="round" stroke-linejoin="round" stroke-width="1.053"/>
            </g>
          </g>
          <g id="Grupo_847478" data-name="Grupo 847478" transform="translate(57.725 56.861)">
            <path id="Trazado_588173" data-name="Trazado 588173" d="M293.091,315.678a24.454,24.454,0,0,0-5.667,14.691,10.55,10.55,0,0,0,1.305,5.48l9.039-11.463Z" transform="translate(-287.424 -310.248)" fill="#27debf"/>
            <path id="Trazado_588174" data-name="Trazado 588174" d="M304.13,308.634a8.631,8.631,0,0,0-4.67,1.329,17.646,17.646,0,0,0-4.678,4.094l4.678,8.708Z" transform="translate(-289.115 -308.627)" fill="#27debf"/>
            <path id="Trazado_588175" data-name="Trazado 588175" d="M310.245,311.944a5.4,5.4,0,0,0-4.719-3.308l-4.67,14.131Z" transform="translate(-290.512 -308.629)" fill="#27debf"/>
            <path id="Trazado_588176" data-name="Trazado 588176" d="M307.547,312.931l-9.389,10.823-9.039,11.463c1.775,2.886,5.156,3.583,9.039,1.338,5.716-3.3,10.354-11.707,10.354-18.784A11.176,11.176,0,0,0,307.547,312.931Z" transform="translate(-287.814 -309.617)" fill="#27debf"/>
          </g>
          <g id="Grupo_847479" data-name="Grupo 847479" transform="translate(59.03 56.861)">
            <path id="Trazado_588177" data-name="Trazado 588177" d="M304.13,308.634a8.631,8.631,0,0,0-4.67,1.329,17.646,17.646,0,0,0-4.678,4.094l4.678,8.708Z" transform="translate(-290.421 -308.627)" fill="#fff" opacity="0.7"/>
            <path id="Trazado_588178" data-name="Trazado 588178" d="M310.245,311.944a5.4,5.4,0,0,0-4.719-3.308l-4.67,14.131Z" transform="translate(-291.817 -308.629)" opacity="0.15"/>
            <path id="Trazado_588179" data-name="Trazado 588179" d="M307.547,312.931l-9.389,10.823-9.039,11.463c1.775,2.886,5.156,3.583,9.039,1.338,5.716-3.3,10.354-11.707,10.354-18.784A11.176,11.176,0,0,0,307.547,312.931Z" transform="translate(-289.119 -309.617)" fill="#fff" opacity="0.5"/>
          </g>
          <g id="Grupo_847480" data-name="Grupo 847480" transform="translate(57.725 56.861)">
            <path id="Trazado_588180" data-name="Trazado 588180" d="M293.091,315.678a24.454,24.454,0,0,0-5.667,14.691,10.55,10.55,0,0,0,1.305,5.48l9.039-11.463Z" transform="translate(-287.424 -310.248)" fill="none" stroke="#fff" stroke-linecap="round" stroke-linejoin="round" stroke-width="1.053"/>
            <path id="Trazado_588181" data-name="Trazado 588181" d="M304.13,308.634a8.631,8.631,0,0,0-4.67,1.329,17.646,17.646,0,0,0-4.678,4.094l4.678,8.708Z" transform="translate(-289.115 -308.627)" fill="none" stroke="#fff" stroke-linecap="round" stroke-linejoin="round" stroke-width="1.053"/>
            <path id="Trazado_588182" data-name="Trazado 588182" d="M310.245,311.944a5.4,5.4,0,0,0-4.719-3.308l-4.67,14.131Z" transform="translate(-290.512 -308.629)" fill="none" stroke="#fff" stroke-linecap="round" stroke-linejoin="round" stroke-width="1.053"/>
            <path id="Trazado_588183" data-name="Trazado 588183" d="M307.547,312.931l-9.389,10.823-9.039,11.463c1.775,2.886,5.156,3.583,9.039,1.338,5.716-3.3,10.354-11.707,10.354-18.784A11.176,11.176,0,0,0,307.547,312.931Z" transform="translate(-287.814 -309.617)" fill="none" stroke="#fff" stroke-linecap="round" stroke-linejoin="round" stroke-width="1.053"/>
          </g>
          <g id="Grupo_847485" data-name="Grupo 847485" transform="translate(43.922 70.562)">
            <g id="Grupo_847481" data-name="Grupo 847481">
              <path id="Trazado_588184" data-name="Trazado 588184" d="M270.379,327.516l1.694-.978c.485-.28.878-.052.878.507v1.628a1.938,1.938,0,0,1-.877,1.519l-1.7.979c-.484.28-.877.052-.877-.508v-1.627A1.942,1.942,0,0,1,270.379,327.516Z" transform="translate(-269.501 -326.419)" fill="#27debf"/>
            </g>
            <g id="Grupo_847482" data-name="Grupo 847482" transform="translate(0 7.303)">
              <path id="Trazado_588185" data-name="Trazado 588185" d="M270.379,337l1.694-.979c.485-.28.878-.052.878.508v1.627a1.94,1.94,0,0,1-.877,1.52l-1.7.978c-.484.28-.877.052-.877-.507V338.52A1.939,1.939,0,0,1,270.379,337Z" transform="translate(-269.501 -335.902)" fill="#27debf"/>
              <path id="Trazado_588186" data-name="Trazado 588186" d="M270.379,337l1.694-.979c.485-.28.878-.052.878.508v1.627a1.94,1.94,0,0,1-.877,1.52l-1.7.978c-.484.28-.877.052-.877-.507V338.52A1.939,1.939,0,0,1,270.379,337Z" transform="translate(-269.501 -335.902)" fill="#fff" opacity="0.7"/>
            </g>
            <g id="Grupo_847483" data-name="Grupo 847483" transform="translate(0 14.607)">
              <path id="Trazado_588187" data-name="Trazado 588187" d="M270.379,346.483l1.694-.978c.485-.28.878-.053.878.507v1.627a1.94,1.94,0,0,1-.877,1.52l-1.7.978c-.484.28-.877.053-.877-.507V348A1.94,1.94,0,0,1,270.379,346.483Z" transform="translate(-269.501 -345.385)" fill="#27debf"/>
              <path id="Trazado_588188" data-name="Trazado 588188" d="M270.379,346.483l1.694-.978c.485-.28.878-.053.878.507v1.627a1.94,1.94,0,0,1-.877,1.52l-1.7.978c-.484.28-.877.053-.877-.507V348A1.94,1.94,0,0,1,270.379,346.483Z" transform="translate(-269.501 -345.385)" opacity="0.15"/>
            </g>
            <g id="Grupo_847484" data-name="Grupo 847484" transform="translate(0 21.91)">
              <path id="Trazado_588189" data-name="Trazado 588189" d="M270.379,355.966l1.694-.978c.485-.28.878-.053.878.507v1.628a1.939,1.939,0,0,1-.877,1.519l-1.7.978c-.484.28-.877.053-.877-.507v-1.627A1.94,1.94,0,0,1,270.379,355.966Z" transform="translate(-269.501 -354.868)" fill="#27debf"/>
              <path id="Trazado_588190" data-name="Trazado 588190" d="M270.379,355.966l1.694-.978c.485-.28.878-.053.878.507v1.628a1.939,1.939,0,0,1-.877,1.519l-1.7.978c-.484.28-.877.053-.877-.507v-1.627A1.94,1.94,0,0,1,270.379,355.966Z" transform="translate(-269.501 -354.868)" fill="#fff" opacity="0.5"/>
            </g>
          </g>
          <g id="Grupo_847486" data-name="Grupo 847486" transform="translate(48.538 67.366)">
            <path id="Trazado_588191" data-name="Trazado 588191" d="M276.07,326.395a.575.575,0,0,1-.288-1.072l5.158-2.977a.574.574,0,1,1,.575.994l-5.158,2.977A.569.569,0,0,1,276.07,326.395Z" transform="translate(-275.495 -322.269)" opacity="0.4"/>
          </g>
          <g id="Grupo_847487" data-name="Grupo 847487" transform="translate(48.459 74.743)">
            <path id="Trazado_588192" data-name="Trazado 588192" d="M275.967,335.973a.575.575,0,0,1-.288-1.072l5.158-2.977a.574.574,0,1,1,.575.994l-5.157,2.977A.573.573,0,0,1,275.967,335.973Z" transform="translate(-275.392 -331.847)" opacity="0.4"/>
          </g>
          <g id="Grupo_847488" data-name="Grupo 847488" transform="translate(48.38 82.12)">
            <path id="Trazado_588193" data-name="Trazado 588193" d="M275.865,345.552a.575.575,0,0,1-.289-1.072l5.158-2.977a.574.574,0,0,1,.575,1l-5.157,2.977A.573.573,0,0,1,275.865,345.552Z" transform="translate(-275.289 -341.426)" opacity="0.4"/>
          </g>
          <g id="Grupo_847489" data-name="Grupo 847489" transform="translate(48.299 89.496)">
            <path id="Trazado_588194" data-name="Trazado 588194" d="M275.761,355.129a.575.575,0,0,1-.289-1.073l5.158-2.976a.575.575,0,0,1,.575,1l-5.158,2.977A.587.587,0,0,1,275.761,355.129Z" transform="translate(-275.185 -351.004)" opacity="0.4"/>
          </g>
          <g id="Grupo_847493" data-name="Grupo 847493" transform="translate(19.851 104.485)">
            <g id="Grupo_847490" data-name="Grupo 847490">
              <path id="Trazado_588195" data-name="Trazado 588195" d="M238.82,385.555a.575.575,0,0,1-.288-1.073l24.15-13.938a.575.575,0,1,1,.575,1l-24.15,13.939A.58.58,0,0,1,238.82,385.555Z" transform="translate(-238.245 -370.467)" opacity="0.4"/>
            </g>
            <g id="Grupo_847491" data-name="Grupo 847491" transform="translate(0.778 3.575)">
              <path id="Trazado_588196" data-name="Trazado 588196" d="M239.831,390.2a.575.575,0,0,1-.289-1.073l24.15-13.938a.575.575,0,0,1,.575,1l-24.15,13.939A.589.589,0,0,1,239.831,390.2Z" transform="translate(-239.255 -375.11)" opacity="0.4"/>
            </g>
            <g id="Grupo_847492" data-name="Grupo 847492" transform="translate(1.891 7.033)">
              <path id="Trazado_588197" data-name="Trazado 588197" d="M241.275,394.688a.575.575,0,0,1-.288-1.073l24.15-13.938a.575.575,0,1,1,.575.995l-24.15,13.939A.58.58,0,0,1,241.275,394.688Z" transform="translate(-240.7 -379.6)" opacity="0.4"/>
            </g>
          </g>
          <g id="Grupo_847497" data-name="Grupo 847497" transform="translate(57.758 82.609)">
            <g id="Grupo_847494" data-name="Grupo 847494">
              <path id="Trazado_588198" data-name="Trazado 588198" d="M288.042,357.149a.575.575,0,0,1-.288-1.073l24.15-13.939a.575.575,0,0,1,.575,1l-24.15,13.938A.573.573,0,0,1,288.042,357.149Z" transform="translate(-287.467 -342.061)" opacity="0.4"/>
            </g>
            <g id="Grupo_847495" data-name="Grupo 847495" transform="translate(0.777 3.574)">
              <path id="Trazado_588199" data-name="Trazado 588199" d="M289.051,361.79a.575.575,0,0,1-.288-1.073l24.151-13.938a.575.575,0,0,1,.575,1l-24.151,13.939A.585.585,0,0,1,289.051,361.79Z" transform="translate(-288.476 -346.702)" opacity="0.4"/>
            </g>
            <g id="Grupo_847496" data-name="Grupo 847496" transform="translate(1.891 7.033)">
              <path id="Trazado_588200" data-name="Trazado 588200" d="M290.5,366.281a.575.575,0,0,1-.288-1.073l24.15-13.938a.574.574,0,1,1,.574.995L290.784,366.2A.579.579,0,0,1,290.5,366.281Z" transform="translate(-289.922 -351.193)" opacity="0.4"/>
            </g>
          </g>
          <path id="Trazado_588201" data-name="Trazado 588201" d="M249.432,394.615l55.058-31.775a4.235,4.235,0,0,1,5.516.989,3.237,3.237,0,0,1-1.241,4.845l-55.077,31.785c-1.939,1.119-4.606.826-5.784-.791S247.493,395.734,249.432,394.615Z" transform="translate(-220.486 -264.09)" fill="#27debf"/>
          <g id="Grupo_847501" data-name="Grupo 847501" transform="translate(34.433 128.881)">
            <g id="Grupo_847498" data-name="Grupo 847498" transform="translate(3.021 2.13)">
              <path id="Trazado_588202" data-name="Trazado 588202" d="M261.679,420a.575.575,0,0,1-.289-1.073l24.148-13.936a.575.575,0,1,1,.575,1l-24.147,13.936A.589.589,0,0,1,261.679,420Z" transform="translate(-261.103 -404.911)" opacity="0.4"/>
            </g>
            <g id="Grupo_847499" data-name="Grupo 847499">
              <path id="Trazado_588203" data-name="Trazado 588203" d="M257.755,417.229a.575.575,0,0,1-.288-1.073l24.148-13.935a.575.575,0,1,1,.575,1l-24.147,13.936A.581.581,0,0,1,257.755,417.229Z" transform="translate(-257.18 -402.145)" opacity="0.4"/>
            </g>
            <g id="Grupo_847500" data-name="Grupo 847500" transform="translate(6.197 4.009)">
              <path id="Trazado_588204" data-name="Trazado 588204" d="M265.8,422.436a.575.575,0,0,1-.288-1.073l24.148-13.936a.575.575,0,1,1,.575,1l-24.149,13.936A.577.577,0,0,1,265.8,422.436Z" transform="translate(-265.227 -407.351)" opacity="0.4"/>
            </g>
          </g>
          <g id="Grupo_847505" data-name="Grupo 847505" transform="translate(68.912 108.984)">
            <g id="Grupo_847502" data-name="Grupo 847502" transform="translate(3.021 2.13)">
              <path id="Trazado_588205" data-name="Trazado 588205" d="M306.448,394.16a.575.575,0,0,1-.288-1.073l24.148-13.935a.575.575,0,1,1,.575,1l-24.149,13.936A.587.587,0,0,1,306.448,394.16Z" transform="translate(-305.873 -379.075)" opacity="0.4"/>
            </g>
            <g id="Grupo_847503" data-name="Grupo 847503">
              <path id="Trazado_588206" data-name="Trazado 588206" d="M302.525,391.393a.575.575,0,0,1-.288-1.073l24.147-13.935a.575.575,0,0,1,.575,1l-24.148,13.935A.58.58,0,0,1,302.525,391.393Z" transform="translate(-301.95 -376.309)" opacity="0.4"/>
            </g>
            <g id="Grupo_847504" data-name="Grupo 847504" transform="translate(6.197 4.009)">
              <path id="Trazado_588207" data-name="Trazado 588207" d="M310.572,396.6a.575.575,0,0,1-.289-1.073l24.149-13.936a.575.575,0,1,1,.574,1l-24.148,13.935A.582.582,0,0,1,310.572,396.6Z" transform="translate(-309.996 -381.515)" opacity="0.4"/>
            </g>
          </g>
          <g id="Grupo_847509" data-name="Grupo 847509" transform="translate(51.653 133.424)">
            <g id="Grupo_847506" data-name="Grupo 847506" transform="translate(0 9.894)">
              <path id="Trazado_588208" data-name="Trazado 588208" d="M303.934,423.026c-5.243-3.028-14.127-2.809-19.843.49s-6.1,8.428-.856,11.455,14.127,2.809,19.844-.489S309.177,426.054,303.934,423.026Zm-3.569,9.889c-4.082,2.356-10.428,2.512-14.173.35s-3.472-5.827.611-8.183,10.428-2.513,14.173-.35S304.448,430.558,300.365,432.915Z" transform="translate(-279.539 -420.891)" fill="#27debf"/>
              <path id="Trazado_588209" data-name="Trazado 588209" d="M291.911,428.031a9.421,9.421,0,0,1,8.5-.209c2.246,1.3,2.082,3.5-.367,4.91a9.419,9.419,0,0,1-8.5.209C289.3,431.643,289.461,429.445,291.911,428.031Z" transform="translate(-281.935 -422.274)" fill="#27debf"/>
            </g>
            <path id="Trazado_588210" data-name="Trazado 588210" d="M291.911,428.031a9.421,9.421,0,0,1,8.5-.209c2.246,1.3,2.082,3.5-.367,4.91a9.419,9.419,0,0,1-8.5.209C289.3,431.643,289.461,429.445,291.911,428.031Z" transform="translate(-281.935 -412.38)" opacity="0.5"/>
            <path id="Trazado_588211" data-name="Trazado 588211" d="M303.934,423.026c-5.243-3.028-14.127-2.809-19.843.49s-6.1,8.428-.856,11.455,14.127,2.809,19.844-.489S309.177,426.054,303.934,423.026Zm-3.569,9.889c-4.082,2.356-10.428,2.512-14.173.35s-3.472-5.827.611-8.183,10.428-2.513,14.173-.35S304.448,430.558,300.365,432.915Z" transform="translate(-279.539 -410.997)" opacity="0.15"/>
            <g id="Grupo_847507" data-name="Grupo 847507" transform="translate(9.841 9.901)">
              <path id="Trazado_588212" data-name="Trazado 588212" d="M292.318,421.508l1.2,2.142a17.045,17.045,0,0,1,7.027-.132l1.617-2.192A23.869,23.869,0,0,0,292.318,421.508Z" transform="translate(-292.318 -420.899)" fill="#27debf"/>
              <path id="Trazado_588213" data-name="Trazado 588213" d="M292.318,421.508l1.2,2.142a17.045,17.045,0,0,1,7.027-.132l1.617-2.192A23.869,23.869,0,0,0,292.318,421.508Z" transform="translate(-292.318 -420.899)" fill="#fff" opacity="0.7"/>
            </g>
            <g id="Grupo_847508" data-name="Grupo 847508" transform="translate(14.188)">
              <path id="Trazado_588214" data-name="Trazado 588214" d="M298.537,417.493l-.035,0a.573.573,0,0,1-.539-.607l.156-2.638,10.617-6.128a.575.575,0,1,1,.575,1l-10.082,5.818-.12,2.02A.573.573,0,0,1,298.537,417.493Z" transform="translate(-297.963 -408.043)" opacity="0.4"/>
            </g>
          </g>
          <g id="Grupo_847514" data-name="Grupo 847514" transform="translate(82.694 115.461)">
            <g id="Grupo_847513" data-name="Grupo 847513">
              <g id="Grupo_847510" data-name="Grupo 847510" transform="translate(0 9.951)">
                <path id="Trazado_588215" data-name="Trazado 588215" d="M344.24,399.776c-5.244-3.028-14.128-2.809-19.844.489s-6.1,8.428-.856,11.456,14.127,2.809,19.843-.49S349.483,402.8,344.24,399.776Zm-3.569,9.888c-4.082,2.356-10.429,2.513-14.173.35s-3.472-5.826.611-8.182,10.429-2.513,14.174-.35S344.754,407.308,340.671,409.664Z" transform="translate(-319.845 -397.64)" fill="#27debf"/>
                <path id="Trazado_588216" data-name="Trazado 588216" d="M332.217,404.781a9.417,9.417,0,0,1,8.5-.21c2.247,1.3,2.083,3.5-.367,4.91a9.419,9.419,0,0,1-8.5.21C329.6,408.392,329.767,406.194,332.217,404.781Z" transform="translate(-322.241 -399.023)" fill="#27debf"/>
              </g>
              <path id="Trazado_588217" data-name="Trazado 588217" d="M332.217,404.781a9.417,9.417,0,0,1,8.5-.21c2.247,1.3,2.083,3.5-.367,4.91a9.419,9.419,0,0,1-8.5.21C329.6,408.392,329.767,406.194,332.217,404.781Z" transform="translate(-322.241 -389.072)" opacity="0.5"/>
              <path id="Trazado_588218" data-name="Trazado 588218" d="M344.24,399.776c-5.244-3.028-14.128-2.809-19.844.489s-6.1,8.428-.856,11.456,14.127,2.809,19.843-.49S349.483,402.8,344.24,399.776Zm-3.569,9.888c-4.082,2.356-10.429,2.513-14.173.35s-3.472-5.826.611-8.182,10.429-2.513,14.174-.35S344.754,407.308,340.671,409.664Z" transform="translate(-319.845 -387.689)" opacity="0.15"/>
              <g id="Grupo_847511" data-name="Grupo 847511" transform="translate(7.418 9.956)">
                <path id="Trazado_588219" data-name="Trazado 588219" d="M346.454,399.777c-4.431-2.559-11.454-2.79-16.976-.813l1.895,1.938c3.944-1.412,8.96-1.246,12.124.581a6.651,6.651,0,0,1,1.438,1.1l3.534-1.263A9.287,9.287,0,0,0,346.454,399.777Z" transform="translate(-329.478 -397.647)" fill="#27debf"/>
                <path id="Trazado_588220" data-name="Trazado 588220" d="M346.454,399.777c-4.431-2.559-11.454-2.79-16.976-.813l1.895,1.938c3.944-1.412,8.96-1.246,12.124.581a6.651,6.651,0,0,1,1.438,1.1l3.534-1.263A9.287,9.287,0,0,0,346.454,399.777Z" transform="translate(-329.478 -397.647)" fill="#fff" opacity="0.7"/>
              </g>
              <g id="Grupo_847512" data-name="Grupo 847512" transform="translate(14.276)">
                <path id="Trazado_588221" data-name="Trazado 588221" d="M338.957,394.168l-.035,0a.574.574,0,0,1-.539-.608l.156-2.638,10.617-6.127a.575.575,0,1,1,.575,1l-10.082,5.817-.121,2.021A.574.574,0,0,1,338.957,394.168Z" transform="translate(-338.383 -384.719)" opacity="0.4"/>
              </g>
            </g>
          </g>
          <g id="Grupo_847518" data-name="Grupo 847518" transform="translate(69.111 129.431)">
            <g id="Grupo_847515" data-name="Grupo 847515">
              <path id="Trazado_588222" data-name="Trazado 588222" d="M302.784,437.851a.575.575,0,0,1-.288-1.073l58.648-33.843a.575.575,0,0,1,.575,1l-58.649,33.843A.585.585,0,0,1,302.784,437.851Z" transform="translate(-302.209 -402.859)" opacity="0.4"/>
            </g>
            <g id="Grupo_847516" data-name="Grupo 847516" transform="translate(3.172 1.823)">
              <path id="Trazado_588223" data-name="Trazado 588223" d="M306.9,440.219a.575.575,0,0,1-.288-1.073L365.263,405.3a.575.575,0,1,1,.574,1L307.19,440.142A.583.583,0,0,1,306.9,440.219Z" transform="translate(-306.327 -405.227)" opacity="0.4"/>
            </g>
            <g id="Grupo_847517" data-name="Grupo 847517" transform="translate(6.337 3.651)">
              <path id="Trazado_588224" data-name="Trazado 588224" d="M311.012,442.591a.575.575,0,0,1-.288-1.073l58.649-33.843a.575.575,0,1,1,.575,1L311.3,442.514A.583.583,0,0,1,311.012,442.591Z" transform="translate(-310.437 -407.599)" opacity="0.4"/>
            </g>
          </g>
        </g>
      </g>
    </g>
    <path id="Trazado_582986" data-name="Trazado 582986" d="M299.623,33.764a22.808,22.808,0,1,0,22.809-22.808A22.8,22.8,0,0,0,299.623,33.764Z" transform="translate(24.761 1476.01)" fill="none" stroke="#ffd400" stroke-linecap="round" stroke-linejoin="round" stroke-width="13.32" opacity="0.774"/>
    <g id="Grupo_848369" data-name="Grupo 848369" transform="translate(103.406 1272.27)">
      <path id="Trazado_582519" data-name="Trazado 582519" d="M239.656,0a3.792,3.792,0,1,0,3.795,3.788A3.789,3.789,0,0,0,239.656,0" transform="translate(233.143)" fill="#f27b58"/>
      <path id="Trazado_582520" data-name="Trazado 582520" d="M222.391,0a3.792,3.792,0,1,0,3.795,3.788A3.789,3.789,0,0,0,222.391,0" transform="translate(212.926)" fill="#f27b58"/>
      <path id="Trazado_582521" data-name="Trazado 582521" d="M205.123,0a3.792,3.792,0,1,0,3.795,3.788A3.791,3.791,0,0,0,205.123,0" transform="translate(192.708)" fill="#f27b58"/>
      <path id="Trazado_582522" data-name="Trazado 582522" d="M187.854,0a3.792,3.792,0,1,0,3.795,3.788A3.788,3.788,0,0,0,187.854,0" transform="translate(172.493)" fill="#f27b58"/>
      <path id="Trazado_582523" data-name="Trazado 582523" d="M170.6,0a3.792,3.792,0,1,0,3.788,3.788A3.789,3.789,0,0,0,170.6,0" transform="translate(152.277)" fill="#f27b58"/>
      <path id="Trazado_582524" data-name="Trazado 582524" d="M153.33,0a3.792,3.792,0,1,0,3.795,3.788A3.789,3.789,0,0,0,153.33,0" transform="translate(132.059)" fill="#f27b58"/>
      <path id="Trazado_582525" data-name="Trazado 582525" d="M231.024,8.478a3.795,3.795,0,1,0,3.793,3.795,3.789,3.789,0,0,0-3.793-3.795" transform="translate(223.035 9.928)" fill="#f27b58"/>
      <path id="Trazado_582526" data-name="Trazado 582526" d="M213.758,8.478a3.795,3.795,0,1,0,3.793,3.795,3.79,3.79,0,0,0-3.793-3.795" transform="translate(202.817 9.928)" fill="#f27b58"/>
      <path id="Trazado_582527" data-name="Trazado 582527" d="M196.487,8.478a3.795,3.795,0,1,0,3.795,3.795,3.789,3.789,0,0,0-3.795-3.795" transform="translate(182.602 9.928)" fill="#f27b58"/>
      <path id="Trazado_582528" data-name="Trazado 582528" d="M179.229,8.478a3.795,3.795,0,1,0,3.786,3.795,3.789,3.789,0,0,0-3.786-3.795" transform="translate(162.385 9.928)" fill="#f27b58"/>
      <path id="Trazado_582529" data-name="Trazado 582529" d="M161.963,8.478a3.795,3.795,0,1,0,3.788,3.795,3.79,3.79,0,0,0-3.788-3.795" transform="translate(142.168 9.928)" fill="#f27b58"/>
      <path id="Trazado_582530" data-name="Trazado 582530" d="M239.656,18.415a3.792,3.792,0,1,0,3.795,3.795,3.79,3.79,0,0,0-3.795-3.795" transform="translate(233.143 21.563)" fill="#f27b58"/>
      <path id="Trazado_582531" data-name="Trazado 582531" d="M222.391,18.415a3.792,3.792,0,1,0,3.795,3.795,3.79,3.79,0,0,0-3.795-3.795" transform="translate(212.926 21.563)" fill="#f27b58"/>
      <path id="Trazado_582532" data-name="Trazado 582532" d="M205.123,18.415a3.792,3.792,0,1,0,3.795,3.795,3.793,3.793,0,0,0-3.795-3.795" transform="translate(192.708 21.563)" fill="#f27b58"/>
      <path id="Trazado_582533" data-name="Trazado 582533" d="M187.854,18.415a3.792,3.792,0,1,0,3.795,3.795,3.789,3.789,0,0,0-3.795-3.795" transform="translate(172.493 21.563)" fill="#f27b58"/>
      <path id="Trazado_582534" data-name="Trazado 582534" d="M170.6,18.415a3.792,3.792,0,1,0,3.788,3.795,3.79,3.79,0,0,0-3.788-3.795" transform="translate(152.277 21.563)" fill="#f27b58"/>
      <path id="Trazado_582535" data-name="Trazado 582535" d="M153.33,18.415a3.792,3.792,0,1,0,3.795,3.795,3.79,3.79,0,0,0-3.795-3.795" transform="translate(132.059 21.563)" fill="#f27b58"/>
    </g>
  </g>
</svg>
