<svg xmlns="http://www.w3.org/2000/svg" xmlns:xlink="http://www.w3.org/1999/xlink" width="114" height="114" viewBox="0 0 114 114">
  <defs>
    <clipPath id="clip-path">
      <rect id="Rectángulo_281315" data-name="Rectángulo 281315" width="114" height="114" transform="translate(-27)" fill="#fff" stroke="#707070" stroke-width="1"/>
    </clipPath>
  </defs>
  <g id="Enmascarar_grupo_700436" data-name="Enmascarar grupo 700436" transform="translate(27)" clip-path="url(#clip-path)">
    <g id="Grupo_847593" data-name="Grupo 847593" transform="translate(-13.136 13.829)">
      <path id="Trazado_588795" data-name="Trazado 588795" d="M-420.081,141.529c-.315,1.33-1.2,1.727-2.5,1.7-2.694-.054-5.391,0-8.086-.029a1.5,1.5,0,0,0-1.551.89c-2.417,4.267-7.729,4.269-10.129-.022-.519-.928-1.143-.856-1.909-.856q-16.679,0-33.358,0a5.26,5.26,0,0,1-1.665-.131c-1.266-.434-1.443-1.713-.411-3.019,3.479-4.4,7.055-8.735,10.443-13.208a8.024,8.024,0,0,1,5.32-3.337c4.194-.755,8.222-2.217,12.318-3.386a16.481,16.481,0,0,1,10.106-.174,8.745,8.745,0,0,1,3.552,2.18c.36.376.638.728,1.213.169,3.543-3.448,7.872-3.572,12.282-2.533,5.453,1.285,10.729,3.262,16.25,4.315a2.753,2.753,0,0,1,1.594,1.164q5.86,7.387,11.738,14.76c.541.679,1.036,1.363.529,2.278-.483.873-1.3.938-2.181.934q-5.475-.024-10.951,0c-1.208,0-2.214-.252-2.487-1.643.342-1.393,1.276-1.793,2.635-1.757,2.55.068,5.1.02,7.746.02-1.094-1.908-1.148-1.989-2.415-2.257-5.434-1.146-10.756-2.7-16.05-4.363a24.862,24.862,0,0,0-9.248-1.458,9.479,9.479,0,0,0-7.422,3.695c-.252.341-.654.655-.509,1.176.256.918,3.393,3.2,4.4,3.206,2.749,0,5.5.037,8.246-.014C-421.281,139.8-420.391,140.2-420.081,141.529Zm-54.907-1.692c10.668,0,21.164,0,31.661,0,.712,0,3.883-2.612,4.023-3.279.094-.447-.232-.735-.455-1.041a8.8,8.8,0,0,0-5.247-3.41,16.4,16.4,0,0,0-8,.205c-6.3,1.611-12.432,3.853-18.824,5.111A3.854,3.854,0,0,0-474.987,139.838Zm39.4-8.5a15.588,15.588,0,0,1,6.048-2.684c4.523-.842,8.816.184,13.071,1.527,3.893,1.229,7.8,2.385,12.13,3.355-1.672-2.1-3.139-3.932-4.59-5.777a1.6,1.6,0,0,0-.984-.594c-5.127-1.024-10.062-2.754-15.1-4.085a12.03,12.03,0,0,0-6.662-.029c-2.131.65-3.849,2.371-3.9,3.944C-435.619,128.335-435.583,129.676-435.583,131.34Zm-3.375,0v-2.49c0-3.8-1.84-5.8-5.713-6.164a16.752,16.752,0,0,0-6.479.813c-4.347,1.325-8.688,2.671-13.147,3.585a2.028,2.028,0,0,0-1.31.678c-1.448,1.848-2.918,3.679-4.54,5.717.586-.1.908-.142,1.222-.217,4.645-1.1,9.158-2.66,13.759-3.906C-449.641,127.863-444.2,127.6-438.959,131.342Zm1.486,12.535c1.221,0,2.484-1.022,2.478-1.86,0-.422-2.106-2.6-2.352-2.408-.858.679-2.085,1.325-2.139,2.4C-439.542,143.133-438.48,143.781-437.472,143.877Z" transform="translate(480.404 -60.948)" fill="#050505"/>
      <path id="Trazado_588796" data-name="Trazado 588796" d="M-429.8,21.991c.273-1.562.493-3.236.877-4.87a2.374,2.374,0,0,0-.874-2.629c-1.188-1.024-2.255-2.188-3.393-3.272a1.888,1.888,0,0,1-.692-2.094,1.807,1.807,0,0,1,1.7-1.154,25.134,25.134,0,0,1,3.494-.494,3.732,3.732,0,0,0,4.036-2.949,17.986,17.986,0,0,1,1.249-2.563c.423-.855.762-1.822,1.941-1.847,1.28-.028,1.614,1.027,2.063,1.92a32.92,32.92,0,0,1,1.681,3.475,2.615,2.615,0,0,0,2.643,1.84c1.45.1,2.885.422,4.331.605a1.881,1.881,0,0,1,1.813,1.249,1.931,1.931,0,0,1-.783,2.071,13.769,13.769,0,0,1-1.7,1.622c-2.545,1.659-3,3.9-2.083,6.636a20.56,20.56,0,0,1,.405,2.146,1.94,1.94,0,0,1-.569,2.138,1.816,1.816,0,0,1-2.194-.017c-1.385-.737-2.82-1.392-4.148-2.22a2.43,2.43,0,0,0-2.9.046,43.208,43.208,0,0,1-4.313,2.267C-428.755,24.616-429.912,23.772-429.8,21.991Zm3.7-2.734c2-.518,3.115-1.854,4.65-1.875,1.6-.022,2.745,1.417,4.674,1.852-1.7-3.567-.579-6.234,2.534-8.411-4.024.417-6.082-1.588-7.248-5.138-.87,3.948-3.412,5.274-7.175,5.277C-425.317,12.987-424.5,15.66-426.1,19.257Z" transform="translate(449.673 17.966)" fill="#050706"/>
      <path id="Trazado_588797" data-name="Trazado 588797" d="M-331.468,166.127c-.31-1.331-1.2-1.731-2.494-1.707-2.748.051-5.5.018-8.246.014-1.01,0-4.147-2.288-4.4-3.206-.145-.521.257-.834.509-1.176a9.478,9.478,0,0,1,7.422-3.695,24.862,24.862,0,0,1,9.248,1.458c5.294,1.664,10.615,3.217,16.05,4.363,1.267.268,1.322.349,2.415,2.257-2.642,0-5.2.049-7.746-.02-1.36-.036-2.294.363-2.635,1.757l-3.341-.038c-.212-.936-.678-1.662-1.733-1.662s-1.52.727-1.733,1.663Z" transform="translate(391.791 -85.546)" fill="#fac36a"/>
      <path id="Trazado_588798" data-name="Trazado 588798" d="M-317.12-37.966c-2.025-.769-3.081.768-4.193,2.423-.673,1-1.093,2.557-2.761,2.329-1.7-.232-1.721-1.868-1.931-3.014-.432-2.35-1.644-3.621-3.993-3.927a6.876,6.876,0,0,1-1.919-.606,1.672,1.672,0,0,1-.468-2.877,1.926,1.926,0,0,1,.538-.4c3.231-1.407,4.269-3.9,3.657-7.253a1.75,1.75,0,0,1,.931-1.991,1.689,1.689,0,0,1,2.136.47c2.352,2.507,4.973,3.031,8.006,1.289a1.745,1.745,0,0,1,2.192.185,1.786,1.786,0,0,1,.267,2.319c-1.455,2.783-1.553,5.326,1.01,7.6a1.965,1.965,0,0,1,.728,2.537c-.571,1.054-1.565.919-2.516.913C-315.887-37.968-316.336-37.966-317.12-37.966Zm-1.773-9.407c-2.267,1.536-4.067.674-5.94-.834.785,2.637-.639,4.055-2.546,5.331,2.616.207,3.7,1.79,4.2,4.115,1.083-2.336,2.8-3.029,5.223-2.682A4.6,4.6,0,0,1-318.893-47.373Z" transform="translate(382.759 53.489)" fill="#050506"/>
      <path id="Trazado_588799" data-name="Trazado 588799" d="M-468.065,42.2a1.637,1.637,0,0,1-1.3,1.776,1.607,1.607,0,0,1-2.029-1.3c-.543-1.942-1.017-3.9-1.523-5.856q-3.713-14.317-7.439-28.63c-.32-1.222-.127-2.212,1.145-2.545,1.223-.32,1.826.5,2.115,1.616q4.449,17.165,8.91,34.325C-468.13,41.806-468.1,42.029-468.065,42.2Z" transform="translate(480.492 14.346)" fill="#080808"/>
      <path id="Trazado_588800" data-name="Trazado 588800" d="M-261.649,42.015c.8-3.107,1.614-6.308,2.441-9.508q3.158-12.2,6.323-24.405c.548-2.119,1.3-2.954,2.435-2.522,1.844.7,1.182,2.132.85,3.416q-4.171,16.108-8.358,32.212a10.894,10.894,0,0,1-.523,1.767,1.527,1.527,0,0,1-1.938.921A1.673,1.673,0,0,1-261.649,42.015Z" transform="translate(335.47 14.418)" fill="#080808"/>
      <path id="Trazado_588801" data-name="Trazado 588801" d="M-360.818-17.893c0,1.509.021,3.019-.008,4.527-.022,1.135-.467,2.014-1.757,1.983-1.192-.028-1.629-.872-1.637-1.933q-.035-4.7,0-9.391c.009-1.07.482-1.895,1.669-1.9,1.288-.006,1.71.886,1.726,2.018C-360.8-21.024-360.817-19.459-360.818-17.893Z" transform="translate(403.452 34.349)" fill="#141415"/>
      <path id="Trazado_588802" data-name="Trazado 588802" d="M-420.558-31.837a8.927,8.927,0,0,1-1.331-.085,1.5,1.5,0,0,1-1.331-1.807c.3-1.641,1.662-1.513,2.9-1.523,1.195-.01,2.329.143,2.5,1.6a1.511,1.511,0,0,1-1.41,1.75A11.9,11.9,0,0,1-420.558-31.837Z" transform="translate(442.56 41.405)" fill="#0d0d0d"/>
      <path id="Trazado_588803" data-name="Trazado 588803" d="M-431.989-20.355A8.079,8.079,0,0,1-432.1-18.9a1.486,1.486,0,0,1-1.867,1.232c-1.647-.367-1.414-1.749-1.442-2.964-.026-1.143.177-2.2,1.509-2.413a1.513,1.513,0,0,1,1.818,1.319A9.484,9.484,0,0,1-431.989-20.355Z" transform="translate(450.616 33.334)" fill="#0d0d0d"/>
      <path id="Trazado_588804" data-name="Trazado 588804" d="M-432-50.79a4.149,4.149,0,0,1-.263,2.007,1.517,1.517,0,0,1-1.869.725c-1.48-.487-1.239-1.783-1.268-2.935-.027-1.069.153-2.049,1.348-2.39a1.542,1.542,0,0,1,1.825.842A3.8,3.8,0,0,1-432-50.79Z" transform="translate(450.612 53.463)" fill="#0b0b0b"/>
      <path id="Trazado_588805" data-name="Trazado 588805" d="M-450.8-31.962c-.891-.033-1.716.128-2.314-.541a1.543,1.543,0,0,1-.023-2.251c.773-.878,3.728-.9,4.522-.026a1.556,1.556,0,0,1,.033,2.252C-449.215-31.78-450.113-32.033-450.8-31.962Z" transform="translate(462.68 41.517)" fill="#0b0b0b"/>
      <path id="Trazado_588806" data-name="Trazado 588806" d="M-304.387,54.03a6.686,6.686,0,0,1-.015,1.331,1.555,1.555,0,0,1-1.771,1.4c-1.352-.158-1.611-1.166-1.561-2.333.052-1.242-.318-2.726,1.495-3.05a1.526,1.526,0,0,1,1.825,1.319,7.123,7.123,0,0,1,.083,1.328Z" transform="translate(366.012 -15.986)" fill="#0b0b0b"/>
      <path id="Trazado_588807" data-name="Trazado 588807" d="M-323.281,72.729c-.714-.029-1.477.133-2.071-.418a1.566,1.566,0,0,1-.175-2.367c.778-.942,3.9-.891,4.628.064a1.549,1.549,0,0,1-.3,2.348C-321.809,72.876-322.57,72.689-323.281,72.729Z" transform="translate(378.104 -27.858)" fill="#0b0b0b"/>
      <path id="Trazado_588808" data-name="Trazado 588808" d="M-292.91,72.823a6.479,6.479,0,0,1-1.33-.016,1.536,1.536,0,0,1-1.375-1.786c.231-1.568,1.477-1.555,2.692-1.546,1.2.009,2.459-.062,2.693,1.532a1.522,1.522,0,0,1-1.349,1.8,7.966,7.966,0,0,1-1.329.073Z" transform="translate(357.991 -27.996)" fill="#0a0a0a"/>
      <path id="Trazado_588809" data-name="Trazado 588809" d="M-307.725,84a4.7,4.7,0,0,1,.085-1.107,1.508,1.508,0,0,1,1.556-1.261c1.463.061,1.792,1.076,1.741,2.326-.053,1.293.339,2.926-1.648,3.05-1.492.093-1.775-1.051-1.735-2.288C-307.721,84.609-307.725,84.5-307.725,84Z" transform="translate(366.004 -36.052)" fill="#0a0a0a"/>
      <path id="Trazado_588810" data-name="Trazado 588810" d="M-291.84,182.157c.213-.936.678-1.663,1.733-1.663s1.521.726,1.733,1.662c-.226.968-.735,1.686-1.817,1.639C-291.176,183.752-291.644,183.06-291.84,182.157Z" transform="translate(355.475 -101.568)" fill="#0b0b0b"/>
      <path id="Trazado_588811" data-name="Trazado 588811" d="M-362.35-39.592c-1.028-.107-1.622-.652-1.63-1.616a1.511,1.511,0,0,1,1.676-1.66,1.51,1.51,0,0,1,1.567,1.76A1.549,1.549,0,0,1-362.35-39.592Z" transform="translate(403.281 46.451)" fill="#050506"/>
      <path id="Trazado_588812" data-name="Trazado 588812" d="M-464.434,164.394a3.854,3.854,0,0,1,3.156-2.419c6.392-1.258,12.524-3.5,18.824-5.111a16.4,16.4,0,0,1,8-.205,8.8,8.8,0,0,1,5.247,3.41c.223.306.549.594.455,1.041-.14.668-3.311,3.279-4.024,3.279C-443.27,164.4-453.766,164.394-464.434,164.394Z" transform="translate(469.851 -85.505)" fill="#fac36a"/>
      <path id="Trazado_588813" data-name="Trazado 588813" d="M-347.644,138.013c0-1.664-.035-3,.009-4.343.052-1.573,1.77-3.295,3.9-3.944a12.03,12.03,0,0,1,6.662.029c5.043,1.331,9.978,3.061,15.1,4.085a1.6,1.6,0,0,1,.984.594c1.451,1.845,2.918,3.676,4.59,5.777-4.327-.97-8.237-2.126-12.13-3.355-4.255-1.343-8.548-2.369-13.071-1.527A15.588,15.588,0,0,0-347.644,138.013Z" transform="translate(392.465 -67.621)" fill="#e7ecf3"/>
      <path id="Trazado_588814" data-name="Trazado 588814" d="M-418.9,138.084c-5.239-3.743-10.682-3.479-16.208-1.984-4.6,1.245-9.114,2.809-13.759,3.906-.314.074-.636.114-1.222.217,1.621-2.038,3.092-3.869,4.54-5.717a2.028,2.028,0,0,1,1.31-.678c4.459-.914,8.8-2.26,13.147-3.585a16.751,16.751,0,0,1,6.48-.813c3.873.363,5.714,2.362,5.713,6.164Z" transform="translate(460.344 -67.69)" fill="#e8edf4"/>
      <path id="Trazado_588815" data-name="Trazado 588815" d="M-357.177,183.949c-1.008-.1-2.069-.744-2.013-1.865.054-1.078,1.281-1.724,2.139-2.4.246-.194,2.348,1.987,2.352,2.408C-354.693,182.927-355.956,183.952-357.177,183.949Z" transform="translate(400.109 -101.02)" fill="#eb6"/>
      <path id="Trazado_588816" data-name="Trazado 588816" d="M-415.653,30.2c1.607-3.6.785-6.27-2.565-8.294,3.762,0,6.3-1.329,7.175-5.277,1.166,3.549,3.224,5.554,7.248,5.138-3.113,2.176-4.235,4.844-2.534,8.411-1.929-.435-3.07-1.874-4.674-1.852C-412.538,28.346-413.656,29.682-415.653,30.2Z" transform="translate(439.224 7.023)" fill="#34cc8b"/>
      <path id="Trazado_588817" data-name="Trazado 588817" d="M-307.83-37a4.6,4.6,0,0,0,.941,5.929c-2.423-.347-4.14.345-5.223,2.682-.5-2.325-1.589-3.907-4.2-4.115,1.907-1.276,3.331-2.694,2.546-5.331C-311.9-36.322-310.1-35.46-307.83-37Z" transform="translate(371.695 43.112)" fill="#667bf4"/>
    </g>
  </g>
</svg>
