<svg xmlns="http://www.w3.org/2000/svg" width="74" height="74" viewBox="0 0 74 74">
  <g id="Grupo_848433" data-name="Grupo 848433" transform="translate(-1228 -2760.243)">
    <circle id="Elipse_7435" data-name="Elipse 7435" cx="37" cy="37" r="37" transform="translate(1228 2760.243)" fill="#f6f6f6"/>
    <g id="Grupo_848007" data-name="Grupo 848007" transform="translate(-1179.156 2244.653)">
      <path id="Trazado_589721" data-name="Trazado 589721" d="M2433.111,557.384a.81.81,0,0,1,.163-1.168c.561-.52,1.084-1.081,1.626-1.621.794-.789.963-.82,1.7-.008.438.48.725.557,1.142,0,.526-.7,1.344-1.133,1.749-1.943a9.565,9.565,0,0,0,2.1-1.942,10.082,10.082,0,0,0,2-2.167c.369-.034.529-.352.75-.573,3.052-3.042,6.085-6.1,9.156-9.126a1.88,1.88,0,0,0,.689-1.688c-.051-.407.017-.827-.015-1.238a1.024,1.024,0,0,1,.678-1.1q3.295-1.616,6.562-3.287a.931.931,0,0,1,1.258.2c.585.624,1.2,1.225,1.809,1.822a.839.839,0,0,1,.177,1.109q-1.7,3.349-3.358,6.716a.909.909,0,0,1-1.058.591c-1.7-.33-2.82.494-3.943,1.679-2.638,2.784-5.4,5.446-8.112,8.165-.22.221-.539.381-.576.749a26.151,26.151,0,0,0-4.107,4.108,13.549,13.549,0,0,0-2.307,2.142c-.328.307.115.45.261.606.921.988.929,1.021-.029,1.979q-5.409,5.41-10.823,10.816a4.972,4.972,0,0,1-5.582,1.273,4.651,4.651,0,0,1-1.522-7.422c2.282-2.5,4.759-4.827,7.149-7.231a.766.766,0,0,1,1.041-.105c.447.567.125.953-.284,1.36-2.218,2.2-4.443,4.4-6.625,6.64a3.295,3.295,0,1,0,4.657,4.642c2.841-2.79,5.637-5.626,8.46-8.433.272-.27.384-.443.045-.771C2436.327,560.585,2434.723,558.98,2433.111,557.384Zm22.488-20.058c.312,1.047-.273,1.7-.959,2.38q-7.6,7.552-15.158,15.145c-1.3,1.3-1.272,1.275-.039,2.582.468.5.695.452,1.153-.01,5.095-5.132,10.245-10.209,15.3-15.377,1.05-1.073,2.076-1.761,3.594-1.49.485.086.725-.131.935-.569.829-1.727,1.668-3.451,2.58-5.135.422-.78-.26-.958-.568-1.335-.285-.351-.538-.694-1.156-.35-1.467.817-2.977,1.563-4.507,2.255C2455.9,535.816,2455.293,536.254,2455.6,537.325Zm-15.107,23.181c-.229-.255-.337-.388-.458-.508-1.29-1.293-2.6-2.562-3.863-3.885-.557-.585-.724.008-1.021.237-.36.278-.559.517-.092.958,1.284,1.213,2.507,2.49,3.769,3.728.164.161.294.54.618.33A11.584,11.584,0,0,0,2440.491,560.506Z" transform="translate(0 -0.173)" fill="#040405"/>
      <path id="Trazado_589722" data-name="Trazado 589722" d="M2450.342,554.744a10.08,10.08,0,0,1-2,2.167,9.564,9.564,0,0,1-2.1,1.942c-.417-.142-.619-.535-.932-.8a.912.912,0,0,0-.245-1.243c-1.395-1.358-2.847-2.671-4.111-4.145a4.053,4.053,0,0,0-4.059-1.656,5.3,5.3,0,0,1-5.687-2.365c-.217-.309-.7-.483-.714-.869-.053-1.117-.019-2.238-.019-3.614l3.417,3.485a1.442,1.442,0,0,0,.967.542c1.4.1,2.71.033,3.574-1.313a3.413,3.413,0,0,1,.495-.5,3.1,3.1,0,0,0,.025-4.16c-1.033-1.03-2.072-2.054-3.169-3.142,2.206-.342,4.125-.28,5.425,1.705a3.56,3.56,0,0,0,.746.752,1.484,1.484,0,0,1,.559,1.308c-.039,1.415,0,2.832-.019,4.247a1.4,1.4,0,0,0,.431,1.1q2.705,2.676,5.379,5.383a.915.915,0,0,0,1.243.246C2449.81,554.126,2450.2,554.329,2450.342,554.744Z" transform="translate(-6.739 -6.378)" fill="#326388"/>
      <path id="Trazado_589723" data-name="Trazado 589723" d="M2542.095,654.986a26.152,26.152,0,0,1,4.107-4.108c.418.142.622.533.933.8a.926.926,0,0,0,.25,1.246c1.477,1.442,3,2.852,4.363,4.394a3.761,3.761,0,0,0,3.456,1.431,7.66,7.66,0,0,1,3.581.1c1.086.471,1.856,1.67,2.764,2.552.085.082.162.171.247.253a.628.628,0,0,1,.187.478c0,1.05,0,2.1,0,3.412-1.257-1.269-2.347-2.368-3.436-3.469a1.451,1.451,0,0,0-.97-.536c-1.4-.1-2.705-.025-3.573,1.317a4.393,4.393,0,0,1-.618.63,3.2,3.2,0,0,0-.018,3.907c1.073,1.072,2.155,2.135,3.292,3.261-2.212.355-4.127.277-5.427-1.7a3.559,3.559,0,0,0-.747-.751,1.482,1.482,0,0,1-.559-1.308c.038-1.415,0-2.831.019-4.247a1.405,1.405,0,0,0-.43-1.1q-2.705-2.676-5.379-5.382a.914.914,0,0,0-1.242-.245C2542.63,655.6,2542.24,655.4,2542.095,654.986Z" transform="translate(-98.581 -98.491)" fill="#326388"/>
      <path id="Trazado_589724" data-name="Trazado 589724" d="M2439.76,678.084c1.612,1.6,3.216,3.2,4.845,4.78.339.328.227.5-.045.771-2.823,2.808-5.619,5.644-8.46,8.434a3.295,3.295,0,1,1-4.657-4.642c2.182-2.239,4.407-4.436,6.624-6.64.41-.407.731-.793.284-1.36Z" transform="translate(-6.649 -120.873)" fill="#32b7ec"/>
      <path id="Trazado_589725" data-name="Trazado 589725" d="M2442.887,547.439a.916.916,0,0,1-1.243-.246q-2.666-2.715-5.379-5.383a1.4,1.4,0,0,1-.431-1.1c.018-1.416-.019-2.832.019-4.247a1.484,1.484,0,0,0-.559-1.308,3.558,3.558,0,0,1-.746-.752c-1.3-1.986-3.219-2.047-5.425-1.705,1.1,1.087,2.136,2.112,3.169,3.142a3.1,3.1,0,0,1-.025,4.16,3.416,3.416,0,0,0-.495.5c-.864,1.347-2.177,1.411-3.574,1.313a1.443,1.443,0,0,1-.967-.542l-3.417-3.485c0,1.376-.035,2.5.019,3.614.019.386.5.56.714.869a5.3,5.3,0,0,0,5.687,2.365,4.054,4.054,0,0,1,4.059,1.656c1.263,1.474,2.716,2.787,4.111,4.145a.912.912,0,0,1,.245,1.243c-.533.348-.913.117-1.308-.284-1.594-1.618-3.221-3.2-4.807-4.831a1.518,1.518,0,0,0-1.226-.52c-1.416.032-2.833,0-4.248.018a1.467,1.467,0,0,1-1.18-.455c-1-1.04-2.033-2.055-3.063-3.069a1.3,1.3,0,0,1-.448-1c.02-1.711.015-3.422,0-5.133,0-.416.067-.777.494-.937.4-.15.666.108.923.365q2,2,4.005,4.006a1.739,1.739,0,0,0,2.66-.03c.385-.4,1-.7,1.092-1.231a1.943,1.943,0,0,0-.487-2.012c-1.376-1.246-2.646-2.61-3.96-3.923-.274-.274-.591-.542-.426-.984.177-.476.6-.491,1.029-.489,1.652.01,3.3.017,4.957,0a1.386,1.386,0,0,1,1.093.448q1.514,1.552,3.066,3.066a1.381,1.381,0,0,1,.452,1.091c-.023,1.416.022,2.833-.022,4.248a1.686,1.686,0,0,0,.588,1.375c1.605,1.565,3.172,3.17,4.77,4.743C2443.005,546.526,2443.238,546.906,2442.887,547.439Z" transform="translate(-0.083 0)" fill="#030303"/>
      <path id="Trazado_589726" data-name="Trazado 589726" d="M2545.8,658.9a.914.914,0,0,1,1.242.245q2.666,2.714,5.379,5.382a1.405,1.405,0,0,1,.43,1.1c-.018,1.415.019,2.832-.019,4.247a1.482,1.482,0,0,0,.559,1.308,3.565,3.565,0,0,1,.747.751c1.3,1.981,3.215,2.059,5.427,1.7-1.137-1.126-2.22-2.189-3.292-3.261a3.2,3.2,0,0,1,.018-3.907,4.393,4.393,0,0,0,.618-.63c.867-1.342,2.174-1.416,3.573-1.317a1.451,1.451,0,0,1,.97.536c1.089,1.1,2.179,2.2,3.436,3.469,0-1.312,0-2.362,0-3.412a.628.628,0,0,0-.187-.478c-.084-.082-.162-.171-.247-.253-.907-.882-1.678-2.081-2.764-2.552a7.66,7.66,0,0,0-3.581-.1,3.761,3.761,0,0,1-3.456-1.431c-1.367-1.542-2.885-2.952-4.363-4.394a.926.926,0,0,1-.25-1.246c.534-.323.922-.109,1.319.293,1.6,1.62,3.223,3.208,4.81,4.836a1.521,1.521,0,0,0,1.234.5c1.417-.032,2.835,0,4.252-.019a1.308,1.308,0,0,1,1.166.481c.018.023.042.041.062.063,1.116,1.175,2.837,2.085,3.264,3.525.524,1.767.145,3.8.165,5.718a.766.766,0,0,1-.449.789.728.728,0,0,1-.866-.253c-1.189-1.191-2.456-2.315-3.552-3.586-1.256-1.456-2.5-1.468-3.711-.027a2.238,2.238,0,0,0-.658,1.621,1.432,1.432,0,0,0,.479,1.067c1.346,1.326,2.677,2.668,4.013,4,.293.293.64.572.418,1.059-.214.471-.647.435-1.066.434-1.594,0-3.19-.023-4.783.01a1.638,1.638,0,0,1-1.315-.564c-.92-.958-1.858-1.9-2.821-2.816a1.7,1.7,0,0,1-.589-1.394c.038-1.416-.01-2.835.024-4.252a1.34,1.34,0,0,0-.455-1.076c-1.64-1.617-3.256-3.258-4.9-4.874C2545.682,659.815,2545.443,659.436,2545.8,658.9Z" transform="translate(-101.485 -101.476)" fill="#030303"/>
      <path id="Trazado_589727" data-name="Trazado 589727" d="M2530.97,545c-.305-1.071.305-1.51,1.177-1.9,1.53-.692,3.041-1.438,4.507-2.255.618-.344.871,0,1.156.35.308.378.99.555.568,1.335-.911,1.684-1.751,3.408-2.58,5.135-.21.438-.45.655-.935.569-1.518-.271-2.544.418-3.594,1.49-5.057,5.168-10.207,10.245-15.3,15.377-.458.462-.685.506-1.153.01-1.234-1.307-1.262-1.281.039-2.582q7.575-7.577,15.158-15.145C2530.7,546.7,2531.281,546.049,2530.97,545Z" transform="translate(-75.371 -7.849)" fill="#d6e4e9"/>
      <path id="Trazado_589728" data-name="Trazado 589728" d="M2498.571,674.15a11.552,11.552,0,0,1-1.047.86c-.323.21-.454-.17-.617-.33-1.261-1.238-2.485-2.515-3.769-3.728-.467-.44-.268-.679.092-.958.3-.229.464-.822,1.021-.237,1.259,1.322,2.573,2.592,3.863,3.885C2498.234,673.762,2498.342,673.9,2498.571,674.15Z" transform="translate(-58.08 -113.817)" fill="#2ca2d1"/>
    </g>
  </g>
</svg>
