<svg xmlns="http://www.w3.org/2000/svg" xmlns:xlink="http://www.w3.org/1999/xlink" width="295" height="185" viewBox="0 0 295 185">
  <defs>
    <clipPath id="clip-path">
      <rect id="Rectángulo_281403" data-name="Rectángulo 281403" width="295" height="185" transform="translate(0 -0.021)" fill="none"/>
    </clipPath>
    <clipPath id="clip-path-3">
      <rect id="Rectángulo_281392" data-name="Rectángulo 281392" width="169.085" height="11.896" fill="#fff"/>
    </clipPath>
    <clipPath id="clip-path-4">
      <rect id="Rectángulo_281393" data-name="Rectángulo 281393" width="16.859" height="9.685" fill="none"/>
    </clipPath>
    <clipPath id="clip-path-5">
      <rect id="Rectángulo_281401" data-name="Rectángulo 281401" width="77.388" height="108.343" fill="none"/>
    </clipPath>
  </defs>
  <g id="Grupo_848416" data-name="Grupo 848416" transform="translate(-0.24 0.097)">
    <g id="Grupo_848415" data-name="Grupo 848415" transform="translate(0.24 -0.075)" clip-path="url(#clip-path)">
      <g id="Grupo_848410" data-name="Grupo 848410">
        <g id="Grupo_848409" data-name="Grupo 848409" clip-path="url(#clip-path)">
          <g id="Grupo_848405" data-name="Grupo 848405" transform="translate(84.06 3.729)" opacity="0.8">
            <g id="Grupo_848404" data-name="Grupo 848404">
              <g id="Grupo_848403" data-name="Grupo 848403" clip-path="url(#clip-path-3)">
                <path id="Trazado_590274" data-name="Trazado 590274" d="M190.5,22.369c2.8,1.546,1.256,5.321-1.87,4.571-2.8-1.546-1.256-5.322,1.87-4.571" transform="translate(-187.162 -15.873)" fill="#fff"/>
                <path id="Trazado_590275" data-name="Trazado 590275" d="M212.415,15.9a4.842,4.842,0,1,1-6.362-2.534,4.842,4.842,0,0,1,6.362,2.534" transform="translate(-195.93 -10.766)" fill="#fff"/>
                <path id="Trazado_590276" data-name="Trazado 590276" d="M553.533,10.188a3.495,3.495,0,1,1-4.591-1.828,3.495,3.495,0,0,1,4.591,1.828" transform="translate(-384.734 -8.074)" fill="#fff"/>
              </g>
            </g>
          </g>
          <g id="Grupo_848408" data-name="Grupo 848408" transform="translate(80.462 160.272)" opacity="0.8">
            <g id="Grupo_848407" data-name="Grupo 848407">
              <g id="Grupo_848406" data-name="Grupo 848406" clip-path="url(#clip-path-4)">
                <path id="Trazado_590277" data-name="Trazado 590277" d="M183.284,357.339c2.051,2.455-.754,5.415-3.4,3.585-2.052-2.455.754-5.416,3.4-3.585" transform="translate(-179.179 -356.163)" fill="#f4dcd3"/>
                <path id="Trazado_590278" data-name="Trazado 590278" d="M204.778,360.09a4.843,4.843,0,1,1-5.015-4.664,4.842,4.842,0,0,1,5.015,4.664" transform="translate(-187.922 -355.423)" fill="#f4dcd3"/>
              </g>
            </g>
          </g>
          <path id="Trazado_590279" data-name="Trazado 590279" d="M279.761,60.835c0-26.343-21.938-55.21-49.237-56.954q-.719-.046-1.453-.08c-39.136-1.824-42.117,45.908-77.526,51.292S89.1,33.3,46.729,51.03c-38.052,15.925-48.359,105.411,63.445,109,89.452,2.871,169.6-20.6,169.587-99.194" transform="translate(-11.505 -1.97)" fill="#fff"/>
          <path id="Trazado_590280" data-name="Trazado 590280" d="M295.645,388.613c0,3.276-66.183,5.93-147.822,5.93S0,391.888,0,388.613s66.183-5.931,147.822-5.931,147.822,2.655,147.822,5.931" transform="translate(-0.29 -210.125)" fill="#6ce3cf"/>
          <path id="Trazado_590281" data-name="Trazado 590281" d="M296.15,47.175V163.154a6.675,6.675,0,0,1-6.675,6.675H72.155a6.675,6.675,0,0,1-6.675-6.675V47.175A6.675,6.675,0,0,1,72.155,40.5h217.32a6.675,6.675,0,0,1,6.675,6.675" transform="translate(-36.259 -22.157)" fill="#1b3431"/>
          <rect id="Rectángulo_281394" data-name="Rectángulo 281394" width="34.608" height="23.878" transform="translate(127.226 147.672)" fill="#414f50"/>
          <path id="Trazado_590282" data-name="Trazado 590282" d="M309.143,382.905H242.9c-4.254,0-5.609-4.693-1.8-6.25l8.016-3.28a25.69,25.69,0,0,1,9.69-1.871H293.24a25.689,25.689,0,0,1,9.69,1.871l8.016,3.28c3.806,1.557,2.451,6.25-1.8,6.25" transform="translate(-131.5 -203.985)" fill="#1b3431"/>
          <path id="Trazado_590283" data-name="Trazado 590283" d="M317.551,331.23l-34.609,6.117v-9.882h34.609Z" transform="translate(-155.716 -179.793)" fill="#1b3431"/>
          <path id="Trazado_590284" data-name="Trazado 590284" d="M296.15,278.171v15.542a6.675,6.675,0,0,1-6.676,6.674H72.155a6.675,6.675,0,0,1-6.675-6.674V278.171Z" transform="translate(-36.259 -152.715)" fill="#414f50"/>
          <rect id="Rectángulo_281395" data-name="Rectángulo 281395" width="230.67" height="8.323" transform="translate(29.221 125.456)" fill="#1b3431"/>
          <path id="Trazado_590285" data-name="Trazado 590285" d="M314.854,309.034H289.379a3.088,3.088,0,0,1-3.079-3.079v-.092a3.088,3.088,0,0,1,3.079-3.079h25.475a3.088,3.088,0,0,1,3.079,3.079v.092a3.088,3.088,0,0,1-3.079,3.079" transform="translate(-157.561 -166.235)" fill="#1b3431"/>
          <path id="Trazado_590286" data-name="Trazado 590286" d="M297.935,61.16v96.4H83.564V61.16a2.575,2.575,0,0,1,2.577-2.574H295.357a2.577,2.577,0,0,1,2.578,2.574" transform="translate(-46.193 -32.092)" fill="#efe3df"/>
          <path id="Trazado_590287" data-name="Trazado 590287" d="M297.935,61.161V70.1H83.565V61.161a2.575,2.575,0,0,1,2.576-2.575H295.358a2.577,2.577,0,0,1,2.577,2.575" transform="translate(-46.194 -32.092)" fill="#fff"/>
          <path id="Trazado_590288" data-name="Trazado 590288" d="M288.964,70.954H125.71a.963.963,0,0,1-.96-.96V69.21a.963.963,0,0,1,.96-.96H288.964a.963.963,0,0,1,.96.96v.784a.963.963,0,0,1-.96.96" transform="translate(-68.818 -37.401)" fill="#e9cec2"/>
          <path id="Trazado_590289" data-name="Trazado 590289" d="M99.567,65.87l-3.349,2.737,3.349,2.215Z" transform="translate(-53.144 -36.093)" fill="#1b3431"/>
          <path id="Trazado_590290" data-name="Trazado 590290" d="M109.757,65.87l3.349,2.737-3.349,2.215Z" transform="translate(-60.582 -36.093)" fill="#1b3431"/>
          <path id="Trazado_590291" data-name="Trazado 590291" d="M520.918,68.443a2.4,2.4,0,1,1-2.4-2.4,2.4,2.4,0,0,1,2.4,2.4" transform="translate(-283.809 -36.191)" fill="#78b1de"/>
          <path id="Trazado_590292" data-name="Trazado 590292" d="M504.819,68.443a2.4,2.4,0,1,1-2.4-2.4,2.4,2.4,0,0,1,2.4,2.4" transform="translate(-274.966 -36.191)" fill="#468280"/>
          <path id="Trazado_590293" data-name="Trazado 590293" d="M537.018,68.443a2.4,2.4,0,1,1-2.4-2.4,2.4,2.4,0,0,1,2.4,2.4" transform="translate(-292.653 -36.191)" fill="#e2534d"/>
          <path id="Trazado_590294" data-name="Trazado 590294" d="M305.7,92.344V167.6a2.8,2.8,0,0,1-2.8,2.8H158.88a2.8,2.8,0,0,1-2.8-2.8V92.344a3.666,3.666,0,0,1,3.666-3.666h142.29a3.666,3.666,0,0,1,3.666,3.666" transform="translate(-86.029 -48.622)" fill="#fff"/>
          <path id="Trazado_590295" data-name="Trazado 590295" d="M233.5,218.711a4.172,4.172,0,1,1-4.172-4.171,4.172,4.172,0,0,1,4.172,4.171" transform="translate(-123.973 -117.761)" fill="#dd615c"/>
          <path id="Trazado_590296" data-name="Trazado 590296" d="M233.448,223.269a.435.435,0,0,1-.31-.128l-3.935-3.934a.438.438,0,1,1,.62-.62l3.934,3.935a.438.438,0,0,1-.31.748" transform="translate(-126.126 -119.914)" fill="#fff"/>
          <path id="Trazado_590297" data-name="Trazado 590297" d="M229.513,223.269a.438.438,0,0,1-.31-.748l3.934-3.935a.438.438,0,0,1,.619.62l-3.934,3.934a.436.436,0,0,1-.31.128" transform="translate(-126.126 -119.914)" fill="#fff"/>
          <path id="Trazado_590298" data-name="Trazado 590298" d="M204.63,219.038h-8.486a.547.547,0,0,0-.547.547v4.7a.547.547,0,0,0,.547.547h8.486a.547.547,0,0,0,.546-.547v-4.7a.547.547,0,0,0-.546-.547m-7.563,2.143a.736.736,0,1,1,.737-.736.737.737,0,0,1-.737.736m3.32,2.705a2.028,2.028,0,1,1,2.028-2.028,2.028,2.028,0,0,1-2.028,2.028" transform="translate(-107.736 -120.232)" fill="#1b3431"/>
          <path id="Trazado_590299" data-name="Trazado 590299" d="M205.8,215.944V217.2h-.983v-.628a.126.126,0,0,0-.126-.126h-1.715a.126.126,0,0,0-.126.126v.628h-.982v-1.256a.252.252,0,0,1,.251-.252h3.43a.252.252,0,0,1,.252.252" transform="translate(-111.178 -118.394)" fill="#1b3431"/>
          <path id="Trazado_590300" data-name="Trazado 590300" d="M181.451,221.327h-.665a.818.818,0,0,1-.815-.815v-4.353a.818.818,0,0,1,.815-.815h.665a.818.818,0,0,1,.815.815v4.353a.818.818,0,0,1-.815.815" transform="translate(-99.152 -118.203)" fill="#1b3431"/>
          <path id="Trazado_590301" data-name="Trazado 590301" d="M182.3,228.347h-.136a.167.167,0,0,1-.166-.167v-2.473a.167.167,0,0,1,.166-.167h.136a.168.168,0,0,1,.167.167v2.473a.167.167,0,0,1-.167.167" transform="translate(-100.265 -123.804)" fill="#1b3431"/>
          <path id="Trazado_590302" data-name="Trazado 590302" d="M181.663,231.044h-3.91a.351.351,0,0,1-.35-.35v-.286a.351.351,0,0,1,.35-.351h3.91a.351.351,0,0,1,.35.351v.286a.351.351,0,0,1-.35.35" transform="translate(-97.741 -126.285)" fill="#1b3431"/>
          <path id="Trazado_590303" data-name="Trazado 590303" d="M434.144,132.323H402.686a1.5,1.5,0,0,1-1.494-1.494V114.48a1.5,1.5,0,0,1,1.494-1.494h31.457a1.5,1.5,0,0,1,1.494,1.494v16.348a1.5,1.5,0,0,1-1.494,1.494" transform="translate(-220.673 -61.975)" fill="#efe3df"/>
          <path id="Trazado_590304" data-name="Trazado 590304" d="M434.737,189.238h-32.8a.911.911,0,1,1,0-1.823h32.8a.911.911,0,0,1,0,1.823" transform="translate(-220.579 -102.861)" fill="#efe3df"/>
          <path id="Trazado_590305" data-name="Trazado 590305" d="M434.737,172.129h-32.8a.911.911,0,1,1,0-1.823h32.8a.911.911,0,0,1,0,1.823" transform="translate(-220.579 -93.462)" fill="#efe3df"/>
          <path id="Trazado_590306" data-name="Trazado 590306" d="M434.737,206.346h-32.8a.911.911,0,1,1,0-1.823h32.8a.911.911,0,0,1,0,1.823" transform="translate(-220.579 -112.259)" fill="#efe3df"/>
          <path id="Trazado_590307" data-name="Trazado 590307" d="M209.714,189.238h-32.8a.911.911,0,0,1,0-1.823h32.8a.911.911,0,0,1,0,1.823" transform="translate(-96.969 -102.861)" fill="#efe3df"/>
          <path id="Trazado_590308" data-name="Trazado 590308" d="M209.714,172.129h-32.8a.911.911,0,0,1,0-1.823h32.8a.911.911,0,1,1,0,1.823" transform="translate(-96.969 -93.462)" fill="#efe3df"/>
          <path id="Trazado_590309" data-name="Trazado 590309" d="M209.714,206.346h-32.8a.911.911,0,0,1,0-1.823h32.8a.911.911,0,0,1,0,1.823" transform="translate(-96.969 -112.259)" fill="#efe3df"/>
          <path id="Trazado_590310" data-name="Trazado 590310" d="M305.7,246.09v7.977a2.8,2.8,0,0,1-2.8,2.8H158.88a2.8,2.8,0,0,1-2.8-2.8V246.09Z" transform="translate(-86.029 -135.092)" fill="#1b3431"/>
          <path id="Trazado_590311" data-name="Trazado 590311" d="M454.265,252.271v-1.106h1.383v-.984h-1.876a.493.493,0,0,0-.492.492v1.6Z" transform="translate(-249.287 -137.339)" fill="#fff"/>
          <path id="Trazado_590312" data-name="Trazado 590312" d="M454.265,259.184h-.984v1.682a.492.492,0,0,0,.492.492h1.876v-.984h-1.383Z" transform="translate(-249.287 -142.285)" fill="#fff"/>
          <path id="Trazado_590313" data-name="Trazado 590313" d="M463.325,252.271h.984v-1.6a.492.492,0,0,0-.492-.492h-1.8v.984h1.311Z" transform="translate(-254.084 -137.339)" fill="#fff"/>
          <path id="Trazado_590314" data-name="Trazado 590314" d="M463.325,259.184v1.19h-1.311v.984h1.8a.492.492,0,0,0,.492-.492v-1.682Z" transform="translate(-254.084 -142.285)" fill="#fff"/>
          <path id="Trazado_590315" data-name="Trazado 590315" d="M175.421,253.277V250.17l2.691,1.553,2.691,1.554-2.691,1.554-2.691,1.554Z" transform="translate(-96.653 -137.333)" fill="#fff"/>
          <path id="Trazado_590316" data-name="Trazado 590316" d="M207.18,256.518h-.909a.38.38,0,0,1-.379-.379v-4.9a.38.38,0,0,1,.379-.379h.909a.38.38,0,0,1,.379.379v4.9a.38.38,0,0,1-.379.379" transform="translate(-113.39 -137.713)" fill="#fff"/>
          <path id="Trazado_590317" data-name="Trazado 590317" d="M214.911,256.518H214a.38.38,0,0,1-.379-.379v-4.9a.38.38,0,0,1,.379-.379h.909a.38.38,0,0,1,.379.379v4.9a.38.38,0,0,1-.379.379" transform="translate(-117.638 -137.713)" fill="#fff"/>
          <rect id="Rectángulo_281396" data-name="Rectángulo 281396" width="149.622" height="2.453" transform="translate(70.053 108.546)" fill="#e9cec2"/>
          <rect id="Rectángulo_281397" data-name="Rectángulo 281397" width="48.209" height="2.452" transform="translate(70.052 108.547)" fill="#e2534d"/>
          <path id="Trazado_590318" data-name="Trazado 590318" d="M434.987,219.475h1.688v3.7h2.26v1.309h-3.948Z" transform="translate(-239.238 -120.472)" fill="#1b3431"/>
          <rect id="Rectángulo_281398" data-name="Rectángulo 281398" width="1.688" height="5.007" transform="translate(200.162 99.003)" fill="#1b3431"/>
          <path id="Trazado_590319" data-name="Trazado 590319" d="M455.02,219.475l-2.117,5.007h-1.659l-2.117-5.007h1.817l1.194,2.925,1.223-2.925Z" transform="translate(-247.005 -120.472)" fill="#1b3431"/>
          <path id="Trazado_590320" data-name="Trazado 590320" d="M466.729,223.208v1.273h-4.163v-5.007h4.07v1.273h-2.411v.587h2.117v1.216h-2.117v.658Z" transform="translate(-254.388 -120.472)" fill="#1b3431"/>
          <path id="Trazado_590321" data-name="Trazado 590321" d="M423.8,222.43a2.059,2.059,0,1,1-2.059-2.058,2.059,2.059,0,0,1,2.059,2.058" transform="translate(-230.832 -120.965)" fill="#e2534d"/>
          <path id="Trazado_590322" data-name="Trazado 590322" d="M210.516,117.186a12.284,12.284,0,1,1-23.616-4.747l11.333,4.747-.581-12.268c.19-.011.386-.015.581-.015a12.284,12.284,0,0,1,12.284,12.283" transform="translate(-102.435 -57.535)" fill="#78b1de"/>
          <path id="Trazado_590323" data-name="Trazado 590323" d="M196.1,100.439a12.3,12.3,0,0,0-10.75,7.521l11.332,4.747Z" transform="translate(-102.106 -55.083)" fill="#f4ad4b"/>
          <path id="Trazado_590324" data-name="Trazado 590324" d="M224.781,117.186a12.236,12.236,0,0,1-3.164,8.229l-9.12-8.229-.581-12.268c.19-.011.386-.015.581-.015a12.284,12.284,0,0,1,12.284,12.283" transform="translate(-116.7 -57.535)" fill="#d76751"/>
        </g>
      </g>
      <g id="Grupo_848412" data-name="Grupo 848412" transform="translate(109.945 0.09)">
        <g id="Grupo_848411" data-name="Grupo 848411" clip-path="url(#clip-path-5)">
          <path id="Trazado_590325" data-name="Trazado 590325" d="M312.264,23.286a7.16,7.16,0,0,0-6.01-3.511s-4.221-1.909-9.179,1.31c-5.039,3.271-3.3,11.415-5.031,17.421-1.328,4.6-4.389,15.246-4.389,15.246s3.794.061,10.049-.347a130.32,130.32,0,0,1,15.362.347S311,44.821,311.553,40.614c.455-3.463.717-6.048,1.416-10.714.4-2.664.584-4.505-.7-6.613" transform="translate(-268.25 -10.554)" fill="#1b3431"/>
          <path id="Trazado_590326" data-name="Trazado 590326" d="M311.788,13.215s-.543-6.3-5.923-5.448c-6.18.973-4.729,8.228.017,9.455,5.086,1.315,5.907-4.007,5.907-4.007" transform="translate(-275.997 -4.224)" fill="#1b3431"/>
          <path id="Trazado_590327" data-name="Trazado 590327" d="M305.655,21.551a.211.211,0,0,0,.143-.078c2.8-3.518,7.684-2.935,7.733-2.929a.211.211,0,1,0,.054-.419,10.5,10.5,0,0,0-2.938.136,8.466,8.466,0,0,0-5.18,2.949.211.211,0,0,0,.188.341" transform="translate(-278.01 -9.931)" fill="#f5bf69"/>
          <path id="Trazado_590328" data-name="Trazado 590328" d="M329.512,88.954c.1.452.2.876.306,1.312s.211.863.318,1.293c.212.862.438,1.719.664,2.577s.462,1.714.7,2.569.479,1.713.737,2.566c.509,1.709,1.027,3.42,1.6,5.134.283.857.581,1.719.886,2.585s.641,1.738.995,2.627l.278.675c.093.224.2.46.3.688s.215.474.325.711.241.5.368.75l.1.191.117.213.236.423c.081.141.17.277.255.416s.176.282.26.4c.17.244.345.5.513.72l.255.338c.085.112.169.213.254.319.68.839,1.353,1.577,2.035,2.277s1.365,1.357,2.056,1.991c1.381,1.266,2.786,2.441,4.217,3.567.712.568,1.441,1.109,2.168,1.651q.55.4,1.107.8c.185.133.374.261.562.391l.586.4a4.219,4.219,0,0,0,5.344-6.483l-.083-.082L355.19,118.2c-.606-.592-1.2-1.2-1.8-1.791-1.187-1.2-2.355-2.4-3.461-3.6-.551-.6-1.086-1.2-1.588-1.789s-.973-1.177-1.363-1.723c-.048-.067-.1-.137-.145-.2l-.13-.193c-.095-.133-.155-.244-.23-.362-.041-.062-.059-.106-.088-.157s-.056-.1-.081-.148l-.074-.155-.039-.077-.046-.1c-.062-.142-.123-.267-.191-.437s-.133-.312-.2-.492-.136-.342-.2-.525l-.2-.547c-.539-1.493-1.065-3.091-1.57-4.7s-1-3.255-1.486-4.9l-2.917-9.911a5.1,5.1,0,0,0-9.868,2.536Z" transform="translate(-291.173 -45.444)" fill="#5a918e"/>
          <path id="Trazado_590329" data-name="Trazado 590329" d="M377.166,127.3l-1.689.086,1.038.78Z" transform="translate(-316.493 -69.928)" fill="#fff"/>
          <path id="Trazado_590330" data-name="Trazado 590330" d="M360.721,128.453l-13.362,17.791a1.205,1.205,0,0,0,.24,1.687l12.215,9.174a1.205,1.205,0,0,0,1.687-.24l13.363-17.792a1.205,1.205,0,0,0-.24-1.687l-12.214-9.174a1.207,1.207,0,0,0-1.689.24" transform="translate(-300.914 -70.297)" fill="#d76751"/>
          <path id="Trazado_590331" data-name="Trazado 590331" d="M386.311,146.017,371.5,165.736l1.848,1.388a1.03,1.03,0,0,0,1.441-.205l13.573-18.072a1.03,1.03,0,0,0-.205-1.443Z" transform="translate(-314.309 -80.21)" fill="#ba4131"/>
          <path id="Trazado_590332" data-name="Trazado 590332" d="M386.821,166.6l.611-.893s.849,2.252-.431,3.532a49.522,49.522,0,0,0-3.3,3.9c-.674.832-1.723,2.821-2.56,3s-1.514-.259-2.475-1.261-.386-1.622.42-1.521a10.692,10.692,0,0,1,2.017.537,14.494,14.494,0,0,0-1.609-1.457c-1.381-1.15-.475-1.859.422-1.672a20.006,20.006,0,0,1,3.133,1.1s-1.5-1.169-2.48-1.918.23-1.7,1.979-.75,1.87.686,1.87.686a6.582,6.582,0,0,0-1.553-1.336c-1.227-.857-1.472-1.978-.5-1.929a11.805,11.805,0,0,1,3.286,1.531l.512-.682a9.457,9.457,0,0,1,.657-.865" transform="translate(-317.971 -91.029)" fill="#f49d8b"/>
          <rect id="Rectángulo_281400" data-name="Rectángulo 281400" width="2.712" height="6.544" transform="translate(59.721 65.534) rotate(-53.093)" fill="#ba4131"/>
          <path id="Trazado_590333" data-name="Trazado 590333" d="M325.263,203.548a75.647,75.647,0,0,0,1.578,11.481c.215.984.447,1.94.691,2.874.055.208.11.416.165.621h0c.476,1.746,1,3.422,1.551,5.079.087.265.177.529.267.791.627,1.836,1.291,3.657,1.974,5.536,1.118,3.08,2.283,6.31,3.41,10a91.154,91.154,0,0,0,.545,18.217H347.76l-2.009-18.825-.11-1.029-.172-1.613-.5-9.228-.207-3.85-.167-3.071-.247-4.569-.4-7.329-18.811-7.389q.043,1.058.107,2.065c0,.079.01.159.016.237" transform="translate(-288.842 -110.548)" fill="#f49d8b"/>
          <path id="Trazado_590334" data-name="Trazado 590334" d="M334.256,250.855q.131.4.266.791c.627,1.835,1.291,3.657,1.974,5.536,5.479-.731,10.4-1.762,13.48-2.477l-.207-3.85Z" transform="translate(-293.849 -137.8)" fill="#d37363"/>
          <path id="Trazado_590335" data-name="Trazado 590335" d="M364.839,284.481a11.8,11.8,0,0,1-4.372.808h-.1a.489.489,0,0,1,.009-.977h.009a10.13,10.13,0,0,0,4.344-.859Z" transform="translate(-307.929 -155.706)" fill="#d37363"/>
          <path id="Trazado_590336" data-name="Trazado 590336" d="M292.283,222.708c.007.272.013.548.02.824q.068,2.678.151,5.616.109,3.886.249,8.2c.013.367.025.735.037,1.106q.041,1.205.083,2.442l.3,16.357H304.09q.084-.471.168-.938c2.092-11.767-.585-17.374-.585-17.374a73.912,73.912,0,0,0,2.606-9.2c.423-1.892.807-3.868,1.142-5.864.064-.389.128-.779.188-1.169.265-1.7.494-3.4.672-5.079h0c.023-.214.046-.425.066-.638.1-.967.178-1.922.24-2.857a39.139,39.139,0,0,0-.521-11.267l-1.056-.213-1.179-.237-13.92-2.8s.013,6.636.262,18.236q.048,2.3.111,4.856" transform="translate(-270.588 -109.653)" fill="#f49d8b"/>
          <path id="Trazado_590337" data-name="Trazado 590337" d="M292.738,250.855c.007.272.013.548.02.824q.068,2.678.151,5.616a53.662,53.662,0,0,0,13.824.593c.423-1.892.807-3.868,1.142-5.864.064-.389.128-.779.188-1.169Z" transform="translate(-271.042 -137.8)" fill="#d37363"/>
          <path id="Trazado_590338" data-name="Trazado 590338" d="M298.6,284.731a.488.488,0,0,1-.48.5h-.1a11.919,11.919,0,0,1-4.315-.782q-.018-.556-.036-1.1a9.9,9.9,0,0,0,4.433.909h.008a.489.489,0,0,1,.489.48" transform="translate(-271.556 -155.645)" fill="#d37363"/>
          <path id="Trazado_590339" data-name="Trazado 590339" d="M284.724,198.193s30.824,5.7,43.848-4.013c0,0-.372-1.05-.833-2.369l-.26-.743c-.06-.174-.121-.349-.183-.526-.229-.664-.459-1.335-.66-1.931-.224-.654-.409-1.219-.521-1.581-.058-.191-.119-.39-.181-.6-1.133-3.706-3.016-9.891-4.425-14.6h0c-.124-.414-.244-.815-.358-1.2q-.051-.168-.1-.334c-.254-.851-.512-1.753-.77-2.682-.182-.655-.364-1.325-.545-2q-.206-.773-.411-1.555c-.061-.237-.124-.474-.185-.711-.753-2.914-1.456-5.8-2-8.095-.05-.207-.1-.41-.144-.607-.578-2.447-.943-4.078-.943-4.078-12.381,3.087-25.937,2.613-25.937,2.613s-.5,1.767-1.144,4.7c-.043.194-.086.4-.13.6-.58,2.729-1.247,6.339-1.749,10.421-.016.129-.032.258-.047.389-.011.087-.022.174-.032.26q-.07.587-.132,1.185-.141,1.307-.251,2.666h0c-.048.592-.1,1.243-.158,1.936-.076.936-.16,1.948-.246,3-.04.482-.079.972-.121,1.465-.257,3.122-.532,6.407-.738,8.889-.018.212-.035.416-.051.614-.092,1.092-.251,3.494-.382,5.526-.017.266-.032.527-.05.777-.093,1.463-.162,2.578-.162,2.578" transform="translate(-266.64 -82.713)" fill="#1b3431"/>
          <path id="Trazado_590340" data-name="Trazado 590340" d="M348.128,165.478a1.017,1.017,0,0,1,.284-.2c.38.565.7,1.165,1.048,1.752a1.026,1.026,0,0,1-1.332-1.552" transform="translate(-301.304 -90.791)" fill="#414f50"/>
          <path id="Trazado_590341" data-name="Trazado 590341" d="M338.632,168.728a1.026,1.026,0,1,0,0-1.451,1.026,1.026,0,0,0,0,1.451" transform="translate(-296.088 -91.724)" fill="#414f50"/>
          <path id="Trazado_590342" data-name="Trazado 590342" d="M328.8,170.219a1.026,1.026,0,1,0,0-1.451,1.026,1.026,0,0,0,0,1.451" transform="translate(-290.687 -92.543)" fill="#414f50"/>
          <path id="Trazado_590343" data-name="Trazado 590343" d="M318.742,171.257a1.026,1.026,0,1,0,0-1.451,1.026,1.026,0,0,0,0,1.451" transform="translate(-285.162 -93.113)" fill="#414f50"/>
          <path id="Trazado_590344" data-name="Trazado 590344" d="M311.814,170.953a1.025,1.025,0,0,1-.432,1.583,6.125,6.125,0,0,0,.432-1.583" transform="translate(-281.284 -93.908)" fill="#414f50"/>
          <path id="Trazado_590345" data-name="Trazado 590345" d="M349.462,177.481a1.052,1.052,0,1,0,.007-1.487,1.051,1.051,0,0,0-.007,1.487" transform="translate(-302.035 -96.51)" fill="#414f50"/>
          <path id="Trazado_590346" data-name="Trazado 590346" d="M339.722,179.4a1.052,1.052,0,1,0,.007-1.487,1.051,1.051,0,0,0-.007,1.487" transform="translate(-296.684 -97.566)" fill="#414f50"/>
          <path id="Trazado_590347" data-name="Trazado 590347" d="M329.639,180.883a1.052,1.052,0,1,0,.007-1.487,1.051,1.051,0,0,0-.007,1.487" transform="translate(-291.146 -98.379)" fill="#414f50"/>
          <path id="Trazado_590348" data-name="Trazado 590348" d="M319.328,181.9a1.052,1.052,0,1,0,.007-1.487,1.052,1.052,0,0,0-.007,1.487" transform="translate(-285.482 -98.936)" fill="#414f50"/>
          <path id="Trazado_590349" data-name="Trazado 590349" d="M308.9,182.427a1.052,1.052,0,1,0,.007-1.487,1.051,1.051,0,0,0-.007,1.487" transform="translate(-279.753 -99.227)" fill="#414f50"/>
          <path id="Trazado_590350" data-name="Trazado 590350" d="M360.319,185.787a1.078,1.078,0,0,0,1.32.171c-.183-.655-.364-1.325-.545-2a1.076,1.076,0,0,0-.774,1.831" transform="translate(-307.997 -101.051)" fill="#414f50"/>
          <path id="Trazado_590351" data-name="Trazado 590351" d="M350.8,188.146a1.077,1.077,0,1,0,.014-1.523,1.077,1.077,0,0,0-.014,1.523" transform="translate(-302.766 -102.347)" fill="#414f50"/>
          <path id="Trazado_590352" data-name="Trazado 590352" d="M340.812,190.07a1.077,1.077,0,1,0,.014-1.523,1.077,1.077,0,0,0-.014,1.523" transform="translate(-297.281 -103.403)" fill="#414f50"/>
          <path id="Trazado_590353" data-name="Trazado 590353" d="M330.479,191.537a1.077,1.077,0,1,0,.014-1.523,1.077,1.077,0,0,0-.014,1.523" transform="translate(-291.605 -104.209)" fill="#414f50"/>
          <path id="Trazado_590354" data-name="Trazado 590354" d="M319.914,192.528a1.077,1.077,0,1,0,.014-1.523,1.077,1.077,0,0,0-.014,1.523" transform="translate(-285.802 -104.754)" fill="#414f50"/>
          <path id="Trazado_590355" data-name="Trazado 590355" d="M309.23,193.022a1.077,1.077,0,1,0,.014-1.523,1.078,1.078,0,0,0-.014,1.523" transform="translate(-279.933 -105.025)" fill="#414f50"/>
          <path id="Trazado_590356" data-name="Trazado 590356" d="M298.544,193a1.077,1.077,0,1,0,.014-1.523,1.077,1.077,0,0,0-.014,1.523" transform="translate(-274.062 -105.013)" fill="#414f50"/>
          <path id="Trazado_590357" data-name="Trazado 590357" d="M289.513,193.255a1.076,1.076,0,0,0,1.1-1.7,9.237,9.237,0,0,1-.934.255c-.011.087-.022.173-.032.26q-.07.587-.133,1.185" transform="translate(-269.271 -105.225)" fill="#414f50"/>
          <path id="Trazado_590358" data-name="Trazado 590358" d="M361.889,196.424a1.1,1.1,0,0,0,1.559.022,1.088,1.088,0,0,0,.279-.447h0q-.186-.621-.358-1.2a1.1,1.1,0,0,0-1.48,1.629" transform="translate(-308.857 -106.872)" fill="#414f50"/>
          <path id="Trazado_590359" data-name="Trazado 590359" d="M352.131,198.8a1.1,1.1,0,1,0,.022-1.559,1.1,1.1,0,0,0-.022,1.559" transform="translate(-303.497 -108.176)" fill="#414f50"/>
          <path id="Trazado_590360" data-name="Trazado 590360" d="M341.9,200.722a1.1,1.1,0,1,0,.022-1.559,1.1,1.1,0,0,0-.022,1.559" transform="translate(-297.878 -109.233)" fill="#414f50"/>
          <path id="Trazado_590361" data-name="Trazado 590361" d="M331.319,202.177a1.1,1.1,0,1,0,.022-1.559,1.1,1.1,0,0,0-.022,1.559" transform="translate(-292.064 -110.033)" fill="#414f50"/>
          <path id="Trazado_590362" data-name="Trazado 590362" d="M320.5,203.144a1.1,1.1,0,1,0,.022-1.559,1.1,1.1,0,0,0-.022,1.559" transform="translate(-286.121 -110.564)" fill="#414f50"/>
          <path id="Trazado_590363" data-name="Trazado 590363" d="M309.562,203.6a1.1,1.1,0,1,0,.021-1.559,1.1,1.1,0,0,0-.021,1.559" transform="translate(-280.112 -110.815)" fill="#414f50"/>
          <path id="Trazado_590364" data-name="Trazado 590364" d="M298.623,203.532a1.1,1.1,0,1,0,.022-1.559,1.1,1.1,0,0,0-.022,1.559" transform="translate(-274.104 -110.777)" fill="#414f50"/>
          <path id="Trazado_590365" data-name="Trazado 590365" d="M288.608,203.072a1.1,1.1,0,1,0,.158-1.936c-.048.592-.1,1.243-.158,1.936" transform="translate(-268.774 -110.438)" fill="#414f50"/>
          <path id="Trazado_590366" data-name="Trazado 590366" d="M363.459,207.063a1.128,1.128,0,1,0,.029-1.595,1.128,1.128,0,0,0-.029,1.595" transform="translate(-309.717 -112.694)" fill="#414f50"/>
          <path id="Trazado_590367" data-name="Trazado 590367" d="M353.466,209.449a1.128,1.128,0,1,0,.029-1.595,1.128,1.128,0,0,0-.029,1.595" transform="translate(-304.228 -114.005)" fill="#414f50"/>
          <path id="Trazado_590368" data-name="Trazado 590368" d="M342.993,211.375a1.128,1.128,0,1,0,.029-1.595,1.128,1.128,0,0,0-.029,1.595" transform="translate(-298.475 -115.063)" fill="#414f50"/>
          <path id="Trazado_590369" data-name="Trazado 590369" d="M332.159,212.818a1.128,1.128,0,1,0,.029-1.595,1.128,1.128,0,0,0-.029,1.595" transform="translate(-292.523 -115.856)" fill="#414f50"/>
          <path id="Trazado_590370" data-name="Trazado 590370" d="M321.086,213.761a1.128,1.128,0,1,0,.029-1.595,1.128,1.128,0,0,0-.029,1.595" transform="translate(-286.441 -116.373)" fill="#414f50"/>
          <path id="Trazado_590371" data-name="Trazado 590371" d="M309.894,214.183a1.128,1.128,0,1,0,.028-1.595,1.128,1.128,0,0,0-.028,1.595" transform="translate(-280.293 -116.605)" fill="#414f50"/>
          <path id="Trazado_590372" data-name="Trazado 590372" d="M298.7,214.064a1.128,1.128,0,1,0,.028-1.594,1.128,1.128,0,0,0-.028,1.594" transform="translate(-274.145 -116.541)" fill="#414f50"/>
          <path id="Trazado_590373" data-name="Trazado 590373" d="M287.793,213.265a1.075,1.075,0,0,0,.1.121,1.128,1.128,0,1,0,.028-1.595l-.009.009c-.04.482-.079.972-.121,1.465" transform="translate(-268.326 -116.168)" fill="#414f50"/>
          <path id="Trazado_590374" data-name="Trazado 590374" d="M365.029,217.69a1.153,1.153,0,1,0,.036-1.631,1.153,1.153,0,0,0-.036,1.631" transform="translate(-310.577 -118.51)" fill="#414f50"/>
          <path id="Trazado_590375" data-name="Trazado 590375" d="M354.8,220.09a1.153,1.153,0,1,0,.036-1.631,1.153,1.153,0,0,0-.036,1.631" transform="translate(-304.959 -119.829)" fill="#414f50"/>
          <path id="Trazado_590376" data-name="Trazado 590376" d="M344.083,222.016a1.153,1.153,0,1,0,.036-1.631,1.153,1.153,0,0,0-.036,1.631" transform="translate(-299.071 -120.887)" fill="#414f50"/>
          <path id="Trazado_590377" data-name="Trazado 590377" d="M333,223.448a1.153,1.153,0,1,0,.036-1.631,1.153,1.153,0,0,0-.036,1.631" transform="translate(-292.983 -121.673)" fill="#414f50"/>
          <path id="Trazado_590378" data-name="Trazado 590378" d="M321.672,224.367a1.153,1.153,0,1,0,.036-1.631,1.153,1.153,0,0,0-.036,1.631" transform="translate(-286.76 -122.178)" fill="#414f50"/>
          <path id="Trazado_590379" data-name="Trazado 590379" d="M310.225,224.752a1.153,1.153,0,1,0,.036-1.631,1.152,1.152,0,0,0-.036,1.631" transform="translate(-280.472 -122.39)" fill="#414f50"/>
          <path id="Trazado_590380" data-name="Trazado 590380" d="M298.782,224.586a1.153,1.153,0,1,0,.036-1.631,1.153,1.153,0,0,0-.036,1.631" transform="translate(-274.187 -122.298)" fill="#414f50"/>
          <path id="Trazado_590381" data-name="Trazado 590381" d="M287.466,223.847a1.153,1.153,0,1,0,.036-1.631,1.153,1.153,0,0,0-.036,1.631" transform="translate(-267.97 -121.892)" fill="#414f50"/>
          <path id="Trazado_590382" data-name="Trazado 590382" d="M366.6,228.334a1.179,1.179,0,1,0,.043-1.667,1.179,1.179,0,0,0-.043,1.667" transform="translate(-311.438 -124.335)" fill="#414f50"/>
          <path id="Trazado_590383" data-name="Trazado 590383" d="M356.135,230.747a1.179,1.179,0,1,0,.043-1.667,1.179,1.179,0,0,0-.043,1.667" transform="translate(-305.69 -125.661)" fill="#414f50"/>
          <path id="Trazado_590384" data-name="Trazado 590384" d="M345.173,232.674a1.179,1.179,0,1,0,.043-1.667,1.178,1.178,0,0,0-.043,1.667" transform="translate(-299.668 -126.719)" fill="#414f50"/>
          <path id="Trazado_590385" data-name="Trazado 590385" d="M333.838,234.094a1.179,1.179,0,1,0,.043-1.667,1.179,1.179,0,0,0-.043,1.667" transform="translate(-293.441 -127.499)" fill="#414f50"/>
          <path id="Trazado_590386" data-name="Trazado 590386" d="M322.257,234.989a1.179,1.179,0,1,0,.043-1.667,1.179,1.179,0,0,0-.043,1.667" transform="translate(-287.08 -127.991)" fill="#414f50"/>
          <path id="Trazado_590387" data-name="Trazado 590387" d="M310.557,235.339a1.179,1.179,0,1,0,.042-1.667,1.179,1.179,0,0,0-.042,1.667" transform="translate(-280.652 -128.183)" fill="#414f50"/>
          <path id="Trazado_590388" data-name="Trazado 590388" d="M298.861,235.124a1.179,1.179,0,1,0,.043-1.667,1.179,1.179,0,0,0-.043,1.667" transform="translate(-274.228 -128.065)" fill="#414f50"/>
          <path id="Trazado_590389" data-name="Trazado 590389" d="M287.3,234.324a1.179,1.179,0,1,0,.043-1.667,1.179,1.179,0,0,0-.043,1.667" transform="translate(-267.876 -127.626)" fill="#414f50"/>
          <path id="Trazado_590390" data-name="Trazado 590390" d="M377.452,236.563a1.187,1.187,0,0,0,.6.346c-.229-.664-.459-1.335-.66-1.93a1.2,1.2,0,0,0,.059,1.585" transform="translate(-317.397 -129.079)" fill="#414f50"/>
          <path id="Trazado_590391" data-name="Trazado 590391" d="M368.168,238.977a1.2,1.2,0,1,0,.05-1.7,1.2,1.2,0,0,0-.05,1.7" transform="translate(-312.297 -130.16)" fill="#414f50"/>
          <path id="Trazado_590392" data-name="Trazado 590392" d="M357.47,241.4a1.2,1.2,0,1,0,.05-1.7,1.2,1.2,0,0,0-.05,1.7" transform="translate(-306.42 -131.492)" fill="#414f50"/>
          <path id="Trazado_590393" data-name="Trazado 590393" d="M346.263,243.331a1.2,1.2,0,1,0,.05-1.7,1.2,1.2,0,0,0-.05,1.7" transform="translate(-300.265 -132.552)" fill="#414f50"/>
          <path id="Trazado_590394" data-name="Trazado 590394" d="M334.678,244.74a1.2,1.2,0,1,0,.05-1.7,1.2,1.2,0,0,0-.05,1.7" transform="translate(-293.901 -133.326)" fill="#414f50"/>
          <path id="Trazado_590395" data-name="Trazado 590395" d="M322.843,245.611a1.2,1.2,0,1,0,.05-1.7,1.2,1.2,0,0,0-.05,1.7" transform="translate(-287.4 -133.804)" fill="#414f50"/>
          <path id="Trazado_590396" data-name="Trazado 590396" d="M310.888,245.924a1.2,1.2,0,1,0,.05-1.7,1.2,1.2,0,0,0-.05,1.7" transform="translate(-280.832 -133.976)" fill="#414f50"/>
          <path id="Trazado_590397" data-name="Trazado 590397" d="M298.941,245.661a1.2,1.2,0,1,0,.05-1.7,1.2,1.2,0,0,0-.05,1.7" transform="translate(-274.27 -133.832)" fill="#414f50"/>
          <path id="Trazado_590398" data-name="Trazado 590398" d="M287.13,244.8a1.2,1.2,0,1,0,.05-1.7,1.2,1.2,0,0,0-.05,1.7" transform="translate(-267.781 -133.359)" fill="#414f50"/>
          <path id="Trazado_590399" data-name="Trazado 590399" d="M285.083,244.975a117.848,117.848,0,0,0,11.856,1.1q3.372.136,6.571.053a77.432,77.432,0,0,0,12.844-1.34,52.184,52.184,0,0,0,11.582-3.615c-.084-.24-.171-.488-.26-.743-9.971,4.536-21.779,5.227-30.69,4.871a117.241,117.241,0,0,1-11.854-1.1c-.017.266-.033.527-.05.777" transform="translate(-266.837 -132.072)" fill="#414f50"/>
          <path id="Trazado_590400" data-name="Trazado 590400" d="M300.552,161.6c-.011.2-.027.4-.049.61a11.6,11.6,0,0,1-1.457,4.63c-1.723,3-4.83,5.057-9.239,6.126q.039-.328.078-.65c4.122-1.041,7.025-2.984,8.632-5.78a10.95,10.95,0,0,0,1.36-4.321c.022-.206.039-.411.051-.61a13.7,13.7,0,0,0-.452-4.432.305.305,0,0,1,.583-.183,13.944,13.944,0,0,1,.493,4.61" transform="translate(-269.432 -86.121)" fill="#414f50"/>
          <path id="Trazado_590401" data-name="Trazado 590401" d="M322.162,160.227a27.844,27.844,0,0,1-3.4,1.323c-.194.063-.391.124-.588.182a56.428,56.428,0,0,1-14.2,2.018q-.631.016-1.247.023c-.21,0-.419,0-.626,0-.156,0-.311,0-.466,0-3.112,0-5.852-.164-7.776-.323.044-.206.086-.407.129-.6,2.013.164,4.9.331,8.164.311.206,0,.414,0,.623,0,.392,0,.789-.014,1.19-.024a55.907,55.907,0,0,0,14.006-1.982h0c.2-.059.391-.119.585-.182a27.075,27.075,0,0,0,3.456-1.355c.046.2.094.4.144.607" transform="translate(-271.66 -87.683)" fill="#414f50"/>
          <path id="Trazado_590402" data-name="Trazado 590402" d="M352.922,167.493a9.557,9.557,0,0,1-5.112-4.917,19.642,19.642,0,0,1-1.056-2.383q-.108-.3-.2-.576h0a19.615,19.615,0,0,1-.664-2.438.305.305,0,1,1,.6-.112,19.29,19.29,0,0,0,.65,2.368q.093.279.2.576a18.811,18.811,0,0,0,1.014,2.291,9.177,9.177,0,0,0,4.381,4.48c.061.237.123.474.185.711" transform="translate(-300.236 -86.144)" fill="#414f50"/>
          <path id="Trazado_590403" data-name="Trazado 590403" d="M316.758,97.282c-.009.027-.014.051-.023.078a7.364,7.364,0,0,1-.319.877,13.818,13.818,0,0,1-2.492,3.7c-.139.152-.222.231-.222.231s0,.018,0,.032c.009.088.018.175.028.272a12.348,12.348,0,0,0,.194,1.3c1.2,5.618,1.121,5.844,1.606,8.23a64.679,64.679,0,0,1-27,2.077c.4-7.593.859-4.574.033-10.081a61.5,61.5,0,0,0-2.9-10.621c-.055-.157-.111-.314-.171-.471-.43-1.168-.887-2.331-1.366-3.448-2.1-4.893-2.437-10.4,2.608-12.084a36.364,36.364,0,0,1,3.937-1.016c.356-.073.706-.143,1.039-.207,1.86-.351,3.314-.549,3.314-.549l8.918.111c.877.1,1.666.212,2.377.346.623.111,1.186.24,1.694.383,4.542,1.265,4.708,3.656,5.525,7.967a32.6,32.6,0,0,0,.932,3.6c.12.365.24.725.36,1.085,1.154,3.425,2.423,6.37,1.92,8.184" transform="translate(-265.522 -41.532)" fill="#5a918e"/>
          <path id="Trazado_590404" data-name="Trazado 590404" d="M350.756,109.478a.284.284,0,0,0,.225-.11c3.317-4.256,2.143-6.877,1.287-8.791-.161-.359-.313-.7-.425-1.023-.772-2.221-2.5-8.783-2.516-8.849a.286.286,0,0,0-.553.145c.018.066,1.75,6.649,2.529,8.891.12.347.277.7.443,1.069.842,1.881,1.89,4.222-1.215,8.206a.285.285,0,0,0,.225.461" transform="translate(-301.819 -49.709)" fill="#285b5c"/>
          <path id="Trazado_590405" data-name="Trazado 590405" d="M321.712,150.671l.547,2.61s-13.688,4.7-27.418,2.119l.445-2.423s10.919,2.152,26.426-2.307" transform="translate(-272.198 -82.767)" fill="#285b5c"/>
          <path id="Trazado_590406" data-name="Trazado 590406" d="M318.749,76.787l.854,7.89c-3.255-.632-9.971-5.1-10.01-8.617Z" transform="translate(-280.301 -41.781)" fill="#f49d8b"/>
          <path id="Trazado_590407" data-name="Trazado 590407" d="M332.74,133.954c0,.009,0,.018,0,.032.009.087.018.175.028.272a15.2,15.2,0,0,1-6.19-.064,14.066,14.066,0,0,0-8.872,1.315.241.241,0,0,1-.332-.092.243.243,0,0,1,.088-.333,14.345,14.345,0,0,1,9.213-1.371,14.471,14.471,0,0,0,6.282.01c-.139.152-.222.231-.222.231" transform="translate(-284.56 -73.316)" fill="#285b5c"/>
          <path id="Trazado_590408" data-name="Trazado 590408" d="M323.228,100.931c-2.976,0-9.048-4.262-9.306-4.444a.244.244,0,1,1,.282-.4c.062.043,6.2,4.354,9.023,4.354,2.7,0,3.3-2.949,3.3-2.979a.244.244,0,1,1,.48.092c-.006.033-.685,3.375-3.783,3.375" transform="translate(-282.622 -52.759)" fill="#285b5c"/>
          <path id="Trazado_590409" data-name="Trazado 590409" d="M274.773,87.976l-.421.638-.437.671c-.293.449-.585.9-.875,1.358q-.867,1.368-1.718,2.752c-.564.923-1.126,1.847-1.675,2.777s-1.088,1.864-1.618,2.8-1.04,1.878-1.547,2.819-.987,1.888-1.456,2.837-.917,1.9-1.342,2.847-.813,1.9-1.18,2.846l.219-2.078a16.779,16.779,0,0,0,.714,3.5,22.455,22.455,0,0,0,1.451,3.531q.444.871.96,1.721c.342.567.7,1.128,1.083,1.677a31.518,31.518,0,0,0,2.493,3.134l.04.044a4.043,4.043,0,0,1-5.737,5.685,35.913,35.913,0,0,1-3.518-3.751c-.541-.666-1.064-1.349-1.56-2.056s-.965-1.437-1.412-2.188a31.364,31.364,0,0,1-2.333-4.785,25.1,25.1,0,0,1-1.415-5.379,4.17,4.17,0,0,1,.143-1.841l.076-.237c.368-1.167.772-2.3,1.2-3.425s.879-2.213,1.345-3.3.962-2.145,1.465-3.2,1.025-2.094,1.558-3.125q1.6-3.092,3.356-6.071.874-1.494,1.8-2.96c.306-.49.615-.979.929-1.468.156-.245.315-.489.478-.734l.507-.758a5.094,5.094,0,0,1,8.489,5.635Z" transform="translate(-249.459 -43.942)" fill="#5a918e"/>
          <path id="Trazado_590410" data-name="Trazado 590410" d="M270.373,172.8a.246.246,0,0,0,.23-.159,7.3,7.3,0,0,1,5.781-4.761.246.246,0,0,0-.041-.489,7.8,7.8,0,0,0-6.2,5.077.245.245,0,0,0,.143.316.242.242,0,0,0,.087.016" transform="translate(-258.622 -91.951)" fill="#285b5c"/>
          <path id="Trazado_590411" data-name="Trazado 590411" d="M273.77,178.306a.419.419,0,1,1-.45-.386.419.419,0,0,1,.45.386" transform="translate(-260.163 -97.734)" fill="#285b5c"/>
          <path id="Trazado_590412" data-name="Trazado 590412" d="M276.247,175.336a.246.246,0,0,0,.174-.418l-2.183-2.2a.246.246,0,1,0-.348.346l2.182,2.2a.246.246,0,0,0,.175.073" transform="translate(-260.65 -94.837)" fill="#285b5c"/>
          <path id="Trazado_590413" data-name="Trazado 590413" d="M288.811,106.434a.245.245,0,0,0,.208-.115l5.3-8.446a.245.245,0,0,0-.416-.261l-5.3,8.446a.245.245,0,0,0,.208.376" transform="translate(-268.75 -53.558)" fill="#285b5c"/>
          <path id="Trazado_590414" data-name="Trazado 590414" d="M298.28,101.521a.247.247,0,0,0,.064-.009l2.111-.573a.246.246,0,0,0-.128-.474l-2.111.573a.246.246,0,0,0,.064.483" transform="translate(-273.952 -55.183)" fill="#285b5c"/>
          <path id="Trazado_590415" data-name="Trazado 590415" d="M269.639,145.117a.246.246,0,0,0,.057-.484,13.8,13.8,0,0,0-3.221-.071.246.246,0,1,0,.042.489,13.667,13.667,0,0,1,3.065.059.247.247,0,0,0,.057.007" transform="translate(-256.492 -79.375)" fill="#285b5c"/>
          <path id="Trazado_590416" data-name="Trazado 590416" d="M271.22,143.417A.246.246,0,0,0,271.4,143c-.457-.471-1.816-1.505-1.874-1.549a.246.246,0,1,0-.3.391c.014.01,1.387,1.055,1.818,1.5a.244.244,0,0,0,.176.075" transform="translate(-258.073 -77.675)" fill="#285b5c"/>
          <path id="Trazado_590417" data-name="Trazado 590417" d="M283.844,173.01a7.379,7.379,0,0,1,2.046-.218,8.664,8.664,0,0,1,3.066,1.068c.649.25-.159,1.073-1.251.958a8.325,8.325,0,0,0-2.391.062,7.757,7.757,0,0,1,2.161.388c.35.143.864.318,1.344.517a6.261,6.261,0,0,1,.652.312c.354.2.6.422.608.664.008.408-.646.416-1.408.353-.308-.025-.634-.062-.939-.088-.13-.011-.256-.022-.376-.027a10.463,10.463,0,0,0-2.525-.085,6.009,6.009,0,0,1,1.665.541c.1.06.208.126.329.2.217.128.462.272.7.418a4.552,4.552,0,0,1,.976.727c.332.4-.818.833-1.91.49a6.546,6.546,0,0,1-1.005-.429,3.824,3.824,0,0,0-.81-.342l-.091-.017a.949.949,0,0,0-.441.039s.275.167.6.386l0,0,.054.037c.2.139.422.295.6.441a3.352,3.352,0,0,1,.872,1.4c.086.3.078.551-.1.659-.194.119-.582-.041-1.04-.277a7.007,7.007,0,0,0-2.072-.905,45.642,45.642,0,0,1-5-.636,5.872,5.872,0,0,1-3.771-3.006,4.5,4.5,0,0,0-.217-.422,14.166,14.166,0,0,1,4.65-4.635s.455-.207,1.043-.422a7.631,7.631,0,0,1,1.782-.465,2.051,2.051,0,0,1,.6.04l.531.077-.41,2.316Z" transform="translate(-260.847 -93.764)" fill="#f49d8b"/>
          <path id="Trazado_590418" data-name="Trazado 590418" d="M318.821,68.823c-3.35,6.135-9.144-.712-9.283-2.2a20.922,20.922,0,0,0,.985-7.386l8.56,3.326q-.041.378-.084.759a33.611,33.611,0,0,0-.264,3.639,17.7,17.7,0,0,0,.086,1.866" transform="translate(-280.271 -32.538)" fill="#f49d8b"/>
          <path id="Trazado_590419" data-name="Trazado 590419" d="M321.005,69.194c-4.51-1.133-7.333-5.889-7.333-5.889l7.6,2.25a33.878,33.878,0,0,0-.264,3.639" transform="translate(-282.542 -34.775)" fill="#1b3431"/>
          <path id="Trazado_590420" data-name="Trazado 590420" d="M335.3,50.455s.718-2.111,2.438-1.589,1.663,6.278-1.626,6.029Z" transform="translate(-294.423 -26.798)" fill="#d37363"/>
          <path id="Trazado_590421" data-name="Trazado 590421" d="M331.4,61.916a2.876,2.876,0,1,1,3.165,2.555,2.879,2.879,0,0,1-3.165-2.555m.427-.046A2.447,2.447,0,1,0,334,59.178a2.449,2.449,0,0,0-2.174,2.692" transform="translate(-292.269 -32.264)" fill="#f5bf69"/>
          <path id="Trazado_590422" data-name="Trazado 590422" d="M310.594,43.513c.869,2.311,6.816,5.058,9.284,3.945,1.5-.676,2.83-2.051,3.594-5.113,0-.016.008-.033.012-.049.045-.181.086-.359.124-.535.071-.319.131-.63.18-.927.011-.07.023-.14.033-.208q.042-.278.069-.538.035-.32.046-.6c.118-3.077.316-6.533-2.478-8.479s-7.168-2.5-9.707.236a11.393,11.393,0,0,0-1.84,6.837c.045,4.449.055,3.766.684,5.436" transform="translate(-280.475 -16.13)" fill="#f49d8b"/>
          <path id="Trazado_590423" data-name="Trazado 590423" d="M326.331,61.859a1.157,1.157,0,0,0,.132,0,.173.173,0,1,0-.039-.343,1.109,1.109,0,0,1-1-.467.173.173,0,1,0-.288.191,1.428,1.428,0,0,0,1.191.625" transform="translate(-288.826 -33.49)" fill="#d37363"/>
          <path id="Trazado_590424" data-name="Trazado 590424" d="M327.7,57.9a2.58,2.58,0,0,0,.381-.019.173.173,0,0,0-.054-.342,2.163,2.163,0,0,1-2.5-1.759.173.173,0,0,0-.339.071A2.435,2.435,0,0,0,327.7,57.9" transform="translate(-288.866 -30.563)" fill="#1b3431"/>
          <path id="Trazado_590425" data-name="Trazado 590425" d="M330.08,51.311a1.645,1.645,0,0,1-.333-.011.207.207,0,0,1,.056-.41,1.232,1.232,0,0,0,.946-.275,9.814,9.814,0,0,1-.911-3.208.207.207,0,0,1,.41-.051,8.061,8.061,0,0,0,.931,3.139.208.208,0,0,1,.007.274,1.7,1.7,0,0,1-1.105.543" transform="translate(-291.274 -25.914)" fill="#1b3431"/>
          <path id="Trazado_590426" data-name="Trazado 590426" d="M337.65,56c.045-.181.086-.359.124-.535.07-.319.13-.63.18-.927.012-.07.023-.14.033-.208l-.154-.009c-1.156-.054-2.113.28-2.134.745s.843.862,1.952.935" transform="translate(-294.641 -29.838)" fill="#d37363"/>
          <path id="Trazado_590427" data-name="Trazado 590427" d="M315.714,53.73c-.022.466.9.887,2.054.942s2.111-.279,2.134-.745-.9-.887-2.054-.942-2.111.279-2.134.745" transform="translate(-283.663 -29.103)" fill="#d37363"/>
          <path id="Trazado_590428" data-name="Trazado 590428" d="M320.911,49.764a2.8,2.8,0,1,1,2.6-2.993,2.806,2.806,0,0,1-2.6,2.993m-.365-5.179A2.389,2.389,0,1,0,323.1,46.8a2.392,2.392,0,0,0-2.551-2.215" transform="translate(-284.871 -24.261)" fill="#fff"/>
          <path id="Trazado_590429" data-name="Trazado 590429" d="M335.234,50.59a2.8,2.8,0,1,1,2.6-2.993,2.806,2.806,0,0,1-2.6,2.993m-.365-5.179a2.389,2.389,0,1,0,2.551,2.215,2.392,2.392,0,0,0-2.551-2.215" transform="translate(-292.739 -24.715)" fill="#fff"/>
          <path id="Trazado_590430" data-name="Trazado 590430" d="M330.877,50.687a.692.692,0,0,0-.96-.091l-.245-.333a1.092,1.092,0,0,1,1.521.156Z" transform="translate(-291.33 -27.479)" fill="#fff"/>
          <path id="Trazado_590431" data-name="Trazado 590431" d="M315.845,47.911a.208.208,0,0,1-.167-.067,3.763,3.763,0,0,0-1.85-.432.207.207,0,0,1,.037-.412c1.7.154,2.07.505,2.126.574a.207.207,0,0,1-.146.337" transform="translate(-282.524 -25.818)" fill="#fff"/>
          <path id="Trazado_590432" data-name="Trazado 590432" d="M342.47,50.44a.2.2,0,0,1-.123-.031,2.574,2.574,0,0,0-1.116-.232.207.207,0,0,1,0-.414,3.023,3.023,0,0,1,1.335.294.207.207,0,0,1-.094.382" transform="translate(-297.566 -27.336)" fill="#fff"/>
          <path id="Trazado_590433" data-name="Trazado 590433" d="M324.689,40.875a2.366,2.366,0,0,0-2.112-.658c-.7.153-.622.848.189.867a2.583,2.583,0,0,1,1.4.343.382.382,0,0,0,.523-.551" transform="translate(-287.172 -22.064)" fill="#1b3431"/>
          <path id="Trazado_590434" data-name="Trazado 590434" d="M334.81,41.721a2.368,2.368,0,0,1,2.176-.4c.675.236.516.916-.292.838a2.584,2.584,0,0,0-1.432.173.382.382,0,0,1-.453-.61" transform="translate(-294.087 -22.632)" fill="#1b3431"/>
          <path id="Trazado_590435" data-name="Trazado 590435" d="M307.764,45.989a2.271,2.271,0,0,0-2.817-1.071c-1.836.745-1.2,7.06,2.389,6.456Z" transform="translate(-277.201 -24.576)" fill="#f49d8b"/>
          <path id="Trazado_590436" data-name="Trazado 590436" d="M303.246,56.654c.1.12.158.244.26.364a2.448,2.448,0,1,0,1.558.124c-.526-.164-.6-.384-.616-.606a2.876,2.876,0,1,1-3.206,3.16,2.919,2.919,0,0,1,2-3.041" transform="translate(-275.705 -31.056)" fill="#f5bf69"/>
          <path id="Trazado_590437" data-name="Trazado 590437" d="M307.767,51.2a.17.17,0,1,1-.332.076,3.5,3.5,0,0,0-.557-1.163c-.359.3-.645.585-.65.589a.165.165,0,0,1-.118.049.175.175,0,0,1-.123-.05.172.172,0,0,1,0-.242c.013-.013.3-.294.667-.606a2.081,2.081,0,0,0-1.051-.6.17.17,0,0,1,.075-.333,3.1,3.1,0,0,1,2.087,2.282" transform="translate(-278.038 -26.872)" fill="#1b3431"/>
          <path id="Trazado_590438" data-name="Trazado 590438" d="M323.959,49.1c-.024.416.15.765.388.779s.45-.313.474-.729-.15-.765-.388-.779-.45.313-.474.729" transform="translate(-288.192 -26.569)" fill="#1b3431"/>
          <path id="Trazado_590439" data-name="Trazado 590439" d="M334.293,49.918c-.024.416.15.765.388.779s.45-.313.474-.73-.15-.765-.388-.779-.45.313-.474.73" transform="translate(-293.868 -27.02)" fill="#1b3431"/>
          <path id="Trazado_590440" data-name="Trazado 590440" d="M323.046,32.735a6.538,6.538,0,0,0,1.937-.1l.264-1.794.391,1.588a2.4,2.4,0,0,0,1.576-1.92s-.761-7.26-11.491-2.388c0,0-.167,4.034,7.324,4.617" transform="translate(-283.668 -14.522)" fill="#1b3431"/>
          <path id="Trazado_590441" data-name="Trazado 590441" d="M312.953,31.381s-.676,5.357-3.042,5.974a4.571,4.571,0,0,0-1.5-.908c-.964-.368,3.3-8.433,4.608-6.541.2.295-.064,1.475-.064,1.475" transform="translate(-279.574 -16.27)" fill="#1b3431"/>
          <path id="Trazado_590442" data-name="Trazado 590442" d="M309.68,43.142A2.858,2.858,0,0,1,311,45.356c.171,1.608.355,5.583,2.289,6.408,0,0-.733-.474-1.252-3.844-.348-2.265,1.106-5.087-.036-6.046s-2.323,1.268-2.323,1.268" transform="translate(-280.349 -22.871)" fill="#1b3431"/>
        </g>
      </g>
      <g id="Grupo_848414" data-name="Grupo 848414">
        <g id="Grupo_848413" data-name="Grupo 848413" clip-path="url(#clip-path)">
          <path id="Trazado_590443" data-name="Trazado 590443" d="M73.26,242.229a.543.543,0,0,1-.543-.533,9.247,9.247,0,0,1,4.619-8.2.543.543,0,0,1,.507.96A8.2,8.2,0,0,0,75.77,236.2a7.916,7.916,0,0,0-1.966,5.474.543.543,0,0,1-.533.553h-.01" transform="translate(-40.234 -128.14)" fill="#5a918e"/>
          <path id="Trazado_590444" data-name="Trazado 590444" d="M69.052,197.035S62.746,185.142,85.368,176.8a1.562,1.562,0,0,1,2.067,1.813c-1.427,6.191-6.109,20.668-18.383,18.419" transform="translate(-37.778 -96.977)" fill="#285b5c"/>
          <path id="Trazado_590445" data-name="Trazado 590445" d="M55.605,229.735a.514.514,0,0,1-.078-.006.543.543,0,0,1-.46-.615,23.4,23.4,0,0,1,10.544-16.389.546.546,0,0,1,.748.187.54.54,0,0,1-.185.743l-.012.007a20.472,20.472,0,0,0-4.555,3.895,22.092,22.092,0,0,0-5.464,11.714.543.543,0,0,1-.537.466" transform="translate(-30.536 -116.722)" fill="#285b5c"/>
          <path id="Trazado_590446" data-name="Trazado 590446" d="M59.507,237.984h-.026a.543.543,0,0,1-.516-.568c.218-4.63-2.72-8.853-2.75-8.9a.543.543,0,1,1,.888-.626c.13.185,3.183,4.574,2.947,9.573a.544.544,0,0,1-.542.517" transform="translate(-31.115 -124.97)" fill="#285b5c"/>
          <path id="Trazado_590447" data-name="Trazado 590447" d="M66.441,229.537h-.014a.543.543,0,0,1-.529-.557l.462-17.609a.543.543,0,1,1,1.086.028l-.462,17.61a.543.543,0,0,1-.543.529" transform="translate(-36.489 -115.73)" fill="#5a918e"/>
          <path id="Trazado_590448" data-name="Trazado 590448" d="M37.985,204.013S25.156,208.09,21,184.343a1.562,1.562,0,0,1,2.153-1.71c5.837,2.511,19.243,9.706,14.835,21.38" transform="translate(-11.81 -100.163)" fill="#285b5c"/>
          <path id="Trazado_590449" data-name="Trazado 590449" d="M77.019,219.191S88.551,226.135,98.108,204a1.562,1.562,0,0,0-1.7-2.163c-6.26,1.088-20.97,4.976-19.392,17.353" transform="translate(-42.533 -110.77)" fill="#5a918e"/>
          <path id="Trazado_590450" data-name="Trazado 590450" d="M63.033,189.121a2.266,2.266,0,0,1-4.2-.314c-2.736-8.735-7.319-27.25,2.172-29.375,10.649-2.384,7.081,19.241,2.03,29.689" transform="translate(-30.661 -87.389)" fill="#5a918e"/>
          <path id="Trazado_590451" data-name="Trazado 590451" d="M67.255,197.265h-.012a.3.3,0,0,1-.284-.308l1-24.754a.3.3,0,0,1,.592.024l-1,24.754a.3.3,0,0,1-.3.284" transform="translate(-37.072 -94.348)" fill="#285b5c"/>
          <path id="Trazado_590452" data-name="Trazado 590452" d="M77.506,226.057a.3.3,0,0,1-.188-.526l13.709-11.218a.3.3,0,0,1,.375.458L77.693,225.99a.3.3,0,0,1-.187.067" transform="translate(-42.703 -117.6)" fill="#285b5c"/>
          <path id="Trazado_590453" data-name="Trazado 590453" d="M65.661,247.983l-.765,3.5-.249,1.143-.528,2.418-.25,1.143L61.65,266.356h-20l-2.219-10.165-.25-1.143-.528-2.418-.249-1.143-.765-3.5Z" transform="translate(-20.966 -136.132)" fill="#f4ad4b"/>
          <path id="Trazado_590454" data-name="Trazado 590454" d="M65.828,255.758l-.249,1.143H39.585l-.249-1.143Z" transform="translate(-21.898 -140.403)" fill="#d57635"/>
          <path id="Trazado_590455" data-name="Trazado 590455" d="M66,263.66l-.25,1.143H41.311l-.25-1.143Z" transform="translate(-22.846 -144.744)" fill="#d57635"/>
          <path id="Trazado_590456" data-name="Trazado 590456" d="M64.266,354.23H32.684a.364.364,0,0,1-.364-.364v-1.831a.364.364,0,0,1,.364-.364H64.266a.364.364,0,0,1,.364.364v1.831a.364.364,0,0,1-.364.364" transform="translate(-18.044 -193.09)" fill="#ba4131"/>
          <path id="Trazado_590457" data-name="Trazado 590457" d="M34.388,288.751H63.922a.889.889,0,0,1,.889.889v3.629a.889.889,0,0,1-.889.889H34.388a.889.889,0,0,1-.889-.889V289.64a.889.889,0,0,1,.889-.889" transform="translate(-18.692 -158.527)" fill="#d76751"/>
          <path id="Trazado_590458" data-name="Trazado 590458" d="M39.259,300.748l-.9,2.9L25.839,344H23.392l7.94-39.533.748-3.724Z" transform="translate(-13.14 -165.117)" fill="#d76751"/>
          <path id="Trazado_590459" data-name="Trazado 590459" d="M41.758,300.748h7.178l-.9,2.9-7.027.824Z" transform="translate(-22.817 -165.117)" fill="#ba4131"/>
          <path id="Trazado_590460" data-name="Trazado 590460" d="M93.907,344H91.46L78.57,302.453l-.529-1.705h7.178l.181.9h0Z" transform="translate(-43.159 -165.117)" fill="#d76751"/>
          <path id="Trazado_590461" data-name="Trazado 590461" d="M85.4,301.652l-6.83.8-.529-1.705h7.178Z" transform="translate(-43.159 -165.117)" fill="#ba4131"/>
          <path id="Trazado_590462" data-name="Trazado 590462" d="M64.368,341.883H32.583a.263.263,0,0,1-.263-.263v-2.034a.263.263,0,0,1,.263-.262H64.368a.263.263,0,0,1,.263.262v2.034a.263.263,0,0,1-.263.263" transform="translate(-18.044 -186.308)" fill="#d76751"/>
          <path id="Trazado_590463" data-name="Trazado 590463" d="M460.341,371.764v12.162H407.417a6.081,6.081,0,0,1,0-12.162Z" transform="translate(-220.752 -204.128)" fill="#d76751"/>
          <path id="Trazado_590464" data-name="Trazado 590464" d="M467.157,371.764v12.162H419.826a6.081,6.081,0,0,1,0-12.162Z" transform="translate(-227.569 -204.128)" fill="#ba4131"/>
          <path id="Trazado_590465" data-name="Trazado 590465" d="M469.374,384.342H420.75a2.968,2.968,0,0,1-2.969-2.968V378.95a2.969,2.969,0,0,1,2.969-2.969h48.624Z" transform="translate(-229.786 -206.444)" fill="#fff"/>
          <path id="Trazado_590466" data-name="Trazado 590466" d="M426.526,380.093l47.48-.058v-.623l-47.48.058a.312.312,0,0,0,0,.623" transform="translate(-234.419 -208.329)" fill="#e9cec2"/>
          <path id="Trazado_590467" data-name="Trazado 590467" d="M426.526,384.731l47.48-.058v-.623l-47.48.058a.312.312,0,0,0,0,.623" transform="translate(-234.419 -210.877)" fill="#e9cec2"/>
          <path id="Trazado_590468" data-name="Trazado 590468" d="M426.526,389.58l47.48-.058V388.9l-47.48.058a.312.312,0,0,0,0,.623" transform="translate(-234.419 -213.54)" fill="#e9cec2"/>
          <path id="Trazado_590469" data-name="Trazado 590469" d="M481.354,345v12.162H428.43a6.081,6.081,0,0,1,0-12.162Z" transform="translate(-232.295 -189.426)" fill="#f4ad4b"/>
          <path id="Trazado_590470" data-name="Trazado 590470" d="M488.17,345v12.162H440.839a6.081,6.081,0,0,1,0-12.162Z" transform="translate(-239.112 -189.426)" fill="#d57635"/>
          <path id="Trazado_590471" data-name="Trazado 590471" d="M490.387,357.578H441.763a2.969,2.969,0,0,1-2.969-2.969v-2.423a2.969,2.969,0,0,1,2.969-2.969h48.624Z" transform="translate(-241.329 -191.742)" fill="#fff"/>
          <path id="Trazado_590472" data-name="Trazado 590472" d="M447.539,353.328l47.48-.058v-.623l-47.48.058a.312.312,0,0,0,0,.623" transform="translate(-245.961 -193.626)" fill="#e9cec2"/>
          <path id="Trazado_590473" data-name="Trazado 590473" d="M447.539,357.967l47.48-.058v-.623l-47.48.058a.312.312,0,0,0,0,.623" transform="translate(-245.961 -196.175)" fill="#e9cec2"/>
          <path id="Trazado_590474" data-name="Trazado 590474" d="M447.539,362.816l47.48-.058v-.623l-47.48.058a.311.311,0,0,0,0,.623" transform="translate(-245.961 -198.838)" fill="#e9cec2"/>
          <path id="Trazado_590475" data-name="Trazado 590475" d="M464.6,318.25v12.162H411.68a6.081,6.081,0,0,1,0-12.162Z" transform="translate(-223.094 -174.731)" fill="#78b1de"/>
          <path id="Trazado_590476" data-name="Trazado 590476" d="M471.42,318.25v12.162H424.089a6.081,6.081,0,0,1,0-12.162Z" transform="translate(-229.911 -174.731)" fill="#4e88af"/>
          <path id="Trazado_590477" data-name="Trazado 590477" d="M473.637,330.828H425.013a2.969,2.969,0,0,1-2.969-2.969v-2.424a2.969,2.969,0,0,1,2.969-2.969h48.624Z" transform="translate(-232.128 -177.047)" fill="#fff"/>
          <path id="Trazado_590478" data-name="Trazado 590478" d="M430.789,326.578l47.48-.058V325.9l-47.48.058a.312.312,0,0,0,0,.623" transform="translate(-236.76 -178.932)" fill="#e9cec2"/>
          <path id="Trazado_590479" data-name="Trazado 590479" d="M430.789,331.217l47.48-.058v-.623l-47.48.058a.312.312,0,0,0,0,.623" transform="translate(-236.76 -181.48)" fill="#e9cec2"/>
          <path id="Trazado_590480" data-name="Trazado 590480" d="M430.789,336.066l47.48-.058v-.623l-47.48.058a.311.311,0,0,0,0,.623" transform="translate(-236.76 -184.144)" fill="#e9cec2"/>
          <path id="Trazado_590481" data-name="Trazado 590481" d="M507.7,325.923v5.965l1.87-1.87,1.934,1.934V325.9Z" transform="translate(-279.179 -178.932)" fill="#d76751"/>
        </g>
      </g>
    </g>
  </g>
</svg>
