<svg xmlns="http://www.w3.org/2000/svg" width="74" height="74" viewBox="0 0 74 74">
  <g id="Grupo_848430" data-name="Grupo 848430" transform="translate(-298 -2760.243)">
    <circle id="Elipse_7437" data-name="Elipse 7437" cx="37" cy="37" r="37" transform="translate(298 2760.243)" fill="#f6f6f6"/>
    <g id="Grupo_848005" data-name="Grupo 848005" transform="translate(-1461.492 2539.102)">
      <path id="Trazado_589674" data-name="Trazado 589674" d="M1800.668,312.891a59.033,59.033,0,0,0-6.119.167c-3.263.49-5.642,2.4-7.8,4.716-.378.407-.051.555.16.766,1.349,1.356,2.709,2.7,4.053,4.061a3.327,3.327,0,1,1-4.656,4.716c-1.337-1.317-2.684-2.626-3.969-3.992-.482-.513-.722-.433-1.172.026-2.2,2.246-1.783,2.239-4.01.017q-3.411-3.4-6.813-6.813c-.97-.972-.974-1.154-.025-2.1,2.574-2.58,5.139-5.171,7.735-7.729a11.948,11.948,0,0,0,3.716-9.025c-.038-3.139-.005-6.279-.01-9.418,0-.514-.04-1.041.541-1.294.6-.26.935.171,1.292.527l23.581,23.576c.335.335.724.663.526,1.2-.213.581-.723.609-1.255.605C1804.644,312.883,1802.839,312.891,1800.668,312.891Zm-16.087,7.146c-.317.288-.614.6-.955.859-.637.477-.524.862.023,1.345.7.616,1.3,1.336,1.994,1.961a12.011,12.011,0,0,0,2.61,2.352,1.333,1.333,0,0,0,1.867-.512,1.474,1.474,0,0,0-.214-2.056c-1.337-1.363-2.718-2.681-4.031-4.066C1785.321,319.336,1784.955,319.352,1784.581,320.037Zm-6.93-5.632c1.513,1.538,3.038,3.063,4.529,4.622.39.407.609.3.944-.042q1.693-1.743,3.436-3.437c.345-.335.453-.554.045-.944-1.559-1.49-3.084-3.016-4.622-4.528-.569-.6-1.17-1.165-1.7-1.795-.469-.557-.829-.658-1.336-.034-.451.555-1.037,1-1.506,1.542-.687.8-2.123,1.4-1.96,2.335C1775.632,312.984,1776.885,313.652,1777.651,314.4Zm11.265-19.06-5.417-5.2q0,4.053,0,8.1a14.465,14.465,0,0,1-1.271,5.652c-.379.9-1.565,1.65-1.183,2.581.365.89,1.4,1.506,2.143,2.241a.324.324,0,0,0,.1.046c1.489,1.515,3,3.007,4.455,4.556.482.514.8.469,1.339.1a12.694,12.694,0,0,1,5.493-2.125,40.17,40.17,0,0,1,5.184-.138c1.6-.026,3.2-.006,4.8-.006a5.749,5.749,0,0,0-1.223-1.473Q1796.118,302.517,1788.916,295.344Zm-15.044,17.848a22.617,22.617,0,0,1-1.583,1.707c-.5.446-.491.705,0,1.175,1.767,1.7,3.483,3.457,5.219,5.192s1.731,1.731,3.458-.108c.353-.376.377-.568,0-.938-2.187-2.151-4.347-4.329-6.517-6.5C1774.3,313.578,1774.143,313.443,1773.872,313.192Z" transform="translate(0 -43.671)" fill="#040303"/>
      <path id="Trazado_589675" data-name="Trazado 589675" d="M1906.8,236.456c-.161.658-.282,1.375-.519,2.052-.191.545.016.7.486.8.6.126,1.191.285,1.784.441.8.212,1.028.668.683,1.457-.369.843-1.33,1.735-1,2.48.281.641,1.5.852,2.279,1.3.884.507.855,1.182-.025,1.72-.786.481-2.106.581-2.292,1.389-.158.685.651,1.6,1.044,2.4.352.721.118,1.163-.615,1.412-.808.274-2.02.117-2.346.8-.275.578.333,1.554.488,2.366.15.789-.331,1.25-1.132,1.109-.836-.147-1.833-.824-2.434-.416-.52.353-.485,1.5-.726,2.294-.229.748-.7.913-1.424.592-.843-.375-1.742-1.324-2.484-1.015-.636.266-.855,1.493-1.3,2.273-.5.888-1.185.874-1.717,0-.479-.787-.582-2.1-1.379-2.3-.68-.164-1.6.645-2.406,1.032-.783.376-1.206.087-1.45-.7s-.1-1.934-.765-2.25c-.555-.263-1.488.3-2.261.46-.92.192-1.383-.28-1.208-1.2.054-.283.136-.56.206-.839.4-1.608.4-1.607-1.251-2.007-.245-.059-.488-.128-.732-.189-.888-.222-1.056-.734-.678-1.539s1.268-1.676.983-2.388c-.244-.61-1.409-.86-2.176-1.251-.406-.207-.761-.439-.739-.957.02-.462.363-.654.719-.862.766-.45,2.024-.562,2.216-1.327.162-.645-.629-1.523-.986-2.3-.418-.913-.233-1.258.745-1.578.744-.244,1.847-.089,2.156-.731.254-.528-.261-1.422-.426-2.156-.239-1.063.209-1.52,1.258-1.308.765.155,1.669.773,2.235.4.478-.314.475-1.359.685-2.08.3-1.042.662-1.2,1.651-.753.778.352,1.61,1.21,2.3.947.581-.222.83-1.339,1.2-2.073.2-.4.426-.784.921-.809.556-.028.783.391,1.031.813.428.73.514,1.946,1.282,2.1.644.13,1.464-.626,2.211-.978.977-.461,1.317-.281,1.655.755.242.74.076,1.848.75,2.137.554.238,1.428-.29,2.166-.457C1906.316,235.33,1906.812,235.668,1906.8,236.456Zm-20.361,10.267-.012-.007a1.171,1.171,0,0,1,.177,1.644c-.224.368-.362.789-.594,1.151-.452.7-.344,1.1.54,1.185a3.349,3.349,0,0,1,.523.131c1.659.432,1.71.514,1.315,2.131-.292,1.195-.292,1.195.9.9,1.532-.374,1.711-.288,2.056,1,.488,1.818.493,1.827,2.248.937.662-.336,1.3-.706,1.935.02l-.007-.011a.509.509,0,0,0,.229.451,2.852,2.852,0,0,0,.745,1.319l.8-1.743a1.167,1.167,0,0,1,1.641-.193c.463.278.979.465,1.443.741.529.315.7.19.851-.405.179-.72.114-1.593.72-2.107.695-.589,1.438.049,2.155.158.453.069.613-.044.494-.5-.073-.279-.141-.559-.209-.84-.3-1.256-.2-1.437,1-1.762,1.866-.5,1.876-.508.979-2.275-.337-.664-.706-1.3.026-1.934l-.012.007a.524.524,0,0,0,.455-.23,3.511,3.511,0,0,0,1.346-.728l-1.347-.6a.52.52,0,0,0-.455-.229l.012.007a1.175,1.175,0,0,1-.183-1.64c.293-.493.509-1.031.787-1.534.233-.421.193-.653-.335-.718a8.017,8.017,0,0,1-.942-.226c-1.6-.4-1.68-.529-1.286-2.143.287-1.175.287-1.175-.92-.88-1.533.374-1.686.3-2.034-1.011-.482-1.812-.483-1.814-2.162-.972-.674.338-1.34.815-2.027.028l.007.011a.513.513,0,0,0-.229-.451,3.556,3.556,0,0,0-.724-1.349l-.6,1.349a.511.511,0,0,0-.229.451l.007-.011a1.18,1.18,0,0,1-1.646.174c-.4-.242-.852-.4-1.249-.64-.618-.381-.984-.316-1.064.476a4.588,4.588,0,0,1-.153.629c-.41,1.647-.519,1.715-2.126,1.323-1.2-.293-1.2-.293-.91.894.386,1.583.3,1.735-1.2,2.115-1.63.413-1.63.413-.882,1.907a6.17,6.17,0,0,0,.3.576,1.16,1.16,0,0,1-.168,1.643l.011-.007-.459.225c-.37.288-.956.218-1.242.727a3.751,3.751,0,0,0,1.241.606Z" transform="translate(-87.787)" fill="#090606"/>
      <path id="Trazado_589676" data-name="Trazado 589676" d="M1838.324,325.853q7.2,7.17,14.412,14.338a5.749,5.749,0,0,1,1.223,1.473c-1.6,0-3.2-.021-4.8.006a40.17,40.17,0,0,0-5.184.138,12.694,12.694,0,0,0-5.493,2.125c-.537.373-.858.418-1.339-.1-1.453-1.549-2.966-3.041-4.455-4.556a39.371,39.371,0,0,0,3-3.244,12.24,12.24,0,0,0,2.434-7.658A4.654,4.654,0,0,1,1838.324,325.853Z" transform="translate(-49.408 -74.179)" fill="#f49930"/>
      <path id="Trazado_589677" data-name="Trazado 589677" d="M1829.956,307.072a4.654,4.654,0,0,0-.2,2.526,12.24,12.24,0,0,1-2.434,7.658,39.331,39.331,0,0,1-3,3.244.319.319,0,0,1-.1-.046c-.742-.735-1.778-1.351-2.143-2.241-.381-.93.8-1.684,1.183-2.581a14.461,14.461,0,0,0,1.271-5.652q.007-4.051,0-8.1Z" transform="translate(-41.04 -55.398)" fill="#e98128"/>
      <path id="Trazado_589678" data-name="Trazado 589678" d="M1811.032,393.828c1.538,1.512,3.064,3.038,4.622,4.528.408.39.3.609-.045.944q-1.743,1.693-3.436,3.437c-.335.345-.555.45-.944.042-1.49-1.559-3.016-3.084-4.529-4.622A51.166,51.166,0,0,1,1811.032,393.828Z" transform="translate(-29.05 -127.424)" fill="#f94b53"/>
      <path id="Trazado_589679" data-name="Trazado 589679" d="M1782.19,408.215c.271.25.428.385.574.531,2.17,2.167,4.33,4.346,6.517,6.5.376.37.352.561,0,.938-1.727,1.84-1.714,1.852-3.458.108s-3.452-3.49-5.218-5.192c-.488-.47-.5-.729,0-1.175A22.61,22.61,0,0,0,1782.19,408.215Z" transform="translate(-8.318 -138.693)" fill="#f6dba9"/>
      <path id="Trazado_589680" data-name="Trazado 589680" d="M1803.144,385.674a51.166,51.166,0,0,0-4.331,4.33c-.767-.753-2.019-1.421-2.17-2.282-.163-.931,1.273-1.539,1.96-2.335.469-.543,1.054-.987,1.506-1.542.507-.624.867-.523,1.336.034C1801.974,384.509,1802.574,385.078,1803.144,385.674Z" transform="translate(-21.161 -119.27)" fill="#e23742"/>
      <path id="Trazado_589681" data-name="Trazado 589681" d="M1837.332,446.316a12.01,12.01,0,0,1-2.61-2.352c-.691-.624-1.3-1.344-1.994-1.961-.547-.483-.659-.868-.023-1.345.341-.256.638-.571.955-.859,1.048,1.084,2.09,2.174,3.146,3.25A2.331,2.331,0,0,1,1837.332,446.316Z" transform="translate(-49.079 -163.433)" fill="#8b0b1e"/>
      <path id="Trazado_589682" data-name="Trazado 589682" d="M1842.351,444.38a2.331,2.331,0,0,0-.525-3.267c-1.056-1.076-2.1-2.166-3.146-3.25.373-.685.74-.7,1.293-.117,1.313,1.385,2.695,2.7,4.031,4.066a1.474,1.474,0,0,1,.214,2.056A1.333,1.333,0,0,1,1842.351,444.38Z" transform="translate(-54.099 -161.497)" fill="#9c1422"/>
      <path id="Trazado_589683" data-name="Trazado 589683" d="M1917.848,255.68l1.347.6a3.511,3.511,0,0,1-1.346.728.387.387,0,0,0-.455.23l.012-.007c-1.5.2-1.585.346-.929,1.634.147.289.292.581.422.878.226.518.287.844-.482,1.029-1.869.45-1.855.508-1.5,2.346.007.035.03.067.037.1.107.521-.077.773-.629.661a3.752,3.752,0,0,1-.833-.213c-.9-.419-1.276-.07-1.481.833-.371,1.637-.409,1.628-1.943.862-1.382-.691-1.554-.6-1.765.981l-.8,1.743a2.853,2.853,0,0,1-.745-1.32.39.39,0,0,0-.229-.451l.007.011c-.211-1.5-.353-1.582-1.63-.929-.192.1-.385.2-.581.284-1.146.519-1.16.512-1.461-.723-.37-1.515-.37-1.515-1.877-1.224-1.247.241-1.247.241-.939-1.067.335-1.423.335-1.423-1.124-1.778-1.23-.3-1.231-.3-.715-1.518a5.113,5.113,0,0,1,.481-1.072c.319-.43.169-.623-.233-.807a1.662,1.662,0,0,0-1.022-.263l.012.007a.388.388,0,0,0-.46-.225,3.75,3.75,0,0,1-1.241-.606c.286-.509.873-.438,1.243-.727a.387.387,0,0,0,.458-.225l-.011.007c1.552-.211,1.657-.384,1.016-1.667a4.07,4.07,0,0,0-.3-.574c-.636-.882-.318-1.293.666-1.406.212-.024.417-.1.626-.144.7-.145.911-.491.71-1.236-.472-1.754-.429-1.782,1.366-1.412.523.108.921.3,1.145-.456.634-2.144.664-2.135,2.716-1.022a.407.407,0,0,1,.089.06c.388.374.613.185.8-.218a1.681,1.681,0,0,0,.265-1.022l-.007.011a.39.39,0,0,0,.229-.451l.6-1.349a3.555,3.555,0,0,1,.724,1.349.389.389,0,0,0,.229.451l-.007-.011c.218,1.556.384,1.657,1.67,1.014l.481-.242c1.191-.594,1.191-.594,1.511.72.354,1.455.354,1.455,1.781,1.119,1.339-.315,1.36-.294,1.045,1.047-.327,1.39-.3,1.442,1.015,1.767,1.409.348,1.408.348.773,1.62-.064.129-.128.257-.192.386-.638,1.278-.528,1.458,1.018,1.665l-.012-.007A.388.388,0,0,0,1917.848,255.68ZM1902.7,262.2c.327-.284.495-.413.643-.561,3.112-3.109,6.213-6.228,9.341-9.32.445-.439.456-.719-.013-1.111-.381-.319-.61-.756-1.191-.165-3.083,3.137-6.209,6.232-9.312,9.349-.182.182-.568.339-.351.687A12.626,12.626,0,0,0,1902.7,262.2Zm3.851-9.369a2.594,2.594,0,1,0-2.573,2.644A2.609,2.609,0,0,0,1906.548,252.828Zm6.932,6.954a2.595,2.595,0,1,0-2.6,2.618A2.6,2.6,0,0,0,1913.48,259.782Z" transform="translate(-98.798 -10.512)" fill="#fa4b53"/>
      <path id="Trazado_589684" data-name="Trazado 589684" d="M1953.688,312.094c.211-1.577.382-1.673,1.765-.981,1.533.767,1.572.775,1.943-.862.2-.9.579-1.253,1.481-.833a3.749,3.749,0,0,0,.833.213c.552.112.736-.14.629-.661-.007-.035-.03-.067-.037-.1-.355-1.838-.369-1.9,1.5-2.346.769-.185.709-.511.482-1.029-.13-.3-.274-.589-.422-.878-.656-1.287-.574-1.433.929-1.634-.732.636-.363,1.27-.026,1.934.9,1.767.887,1.772-.979,2.275-1.2.325-1.308.506-1,1.762.068.28.135.561.209.84.119.452-.041.565-.494.5-.718-.109-1.461-.748-2.155-.158-.606.514-.541,1.388-.72,2.107-.148.595-.323.72-.851.405-.463-.276-.98-.464-1.443-.741A1.167,1.167,0,0,0,1953.688,312.094Z" transform="translate(-144.184 -56.264)" fill="#e03642"/>
      <path id="Trazado_589685" data-name="Trazado 589685" d="M1962.8,259.859c-1.546-.207-1.656-.387-1.018-1.665l.192-.386c.636-1.272.636-1.272-.773-1.621-1.313-.324-1.342-.376-1.015-1.767.315-1.341.294-1.362-1.045-1.047-1.427.336-1.427.336-1.781-1.119-.32-1.315-.32-1.315-1.511-.72l-.481.242c-1.287.643-1.453.542-1.67-1.014.687.787,1.353.31,2.027-.028,1.679-.842,1.681-.84,2.162.972.348,1.309.5,1.385,2.034,1.011,1.208-.294,1.208-.294.92.88-.395,1.614-.316,1.746,1.286,2.143a8.017,8.017,0,0,0,.942.226c.529.065.569.3.335.718-.279.5-.494,1.041-.788,1.534A1.175,1.175,0,0,0,1962.8,259.859Z" transform="translate(-144.188 -14.914)" fill="#e03642"/>
      <path id="Trazado_589686" data-name="Trazado 589686" d="M1910.439,250.328a1.682,1.682,0,0,1-.265,1.022c-.184.4-.408.591-.8.218a.406.406,0,0,0-.089-.06c-2.052-1.113-2.083-1.122-2.716,1.022-.224.757-.622.564-1.145.456-1.795-.37-1.838-.342-1.366,1.412.2.745-.005,1.091-.71,1.236-.21.043-.415.12-.626.144-.984.113-1.3.524-.666,1.406a4.085,4.085,0,0,1,.3.574c.641,1.283.536,1.456-1.016,1.667a1.16,1.16,0,0,0,.168-1.643,6.175,6.175,0,0,1-.3-.576c-.747-1.494-.747-1.494.882-1.907,1.5-.38,1.585-.532,1.2-2.115-.29-1.188-.29-1.188.91-.894,1.607.393,1.716.325,2.126-1.323a4.6,4.6,0,0,0,.153-.629c.08-.791.446-.857,1.064-.476.4.245.85.4,1.249.64A1.18,1.18,0,0,0,1910.439,250.328Z" transform="translate(-102.701 -14.479)" fill="#e03642"/>
      <path id="Trazado_589687" data-name="Trazado 589687" d="M1901.092,302.915a1.662,1.662,0,0,1,1.022.263c.4.184.552.377.233.807a5.114,5.114,0,0,0-.481,1.072c-.516,1.218-.515,1.219.715,1.518,1.459.355,1.459.355,1.124,1.778-.308,1.308-.308,1.308.939,1.067,1.507-.291,1.507-.291,1.877,1.224.3,1.235.316,1.243,1.461.723.2-.089.389-.186.581-.284,1.277-.653,1.419-.572,1.63.929-.639-.726-1.273-.356-1.935-.02-1.755.891-1.76.881-2.248-.937-.344-1.283-.523-1.369-2.056-1-1.192.291-1.192.291-.9-.9.395-1.617.344-1.7-1.315-2.131a3.341,3.341,0,0,0-.523-.131c-.884-.081-.993-.482-.541-1.185.232-.361.371-.783.594-1.151A1.172,1.172,0,0,0,1901.092,302.915Z" transform="translate(-102.455 -56.199)" fill="#e03642"/>
      <path id="Trazado_589688" data-name="Trazado 589688" d="M1945.739,250.8a.39.39,0,0,1-.229.451A.512.512,0,0,1,1945.739,250.8Z" transform="translate(-137.778 -15.389)" fill="#e03642"/>
      <path id="Trazado_589689" data-name="Trazado 589689" d="M1952.883,251.247a.389.389,0,0,1-.229-.451A.512.512,0,0,1,1952.883,251.247Z" transform="translate(-143.372 -15.387)" fill="#e03642"/>
      <path id="Trazado_589690" data-name="Trazado 589690" d="M1901.938,294.777a.387.387,0,0,1-.458.225Z" transform="translate(-103.29 -49.837)" fill="#e03642"/>
      <path id="Trazado_589691" data-name="Trazado 589691" d="M1996.094,295a.388.388,0,0,1-.455-.229A.52.52,0,0,1,1996.094,295Z" transform="translate(-177.044 -49.833)" fill="#e03642"/>
      <path id="Trazado_589692" data-name="Trazado 589692" d="M1901.475,301.947a.388.388,0,0,1,.46.225Z" transform="translate(-103.286 -55.449)" fill="#e03642"/>
      <path id="Trazado_589693" data-name="Trazado 589693" d="M1995.644,302.169a.387.387,0,0,1,.455-.23A.524.524,0,0,1,1995.644,302.169Z" transform="translate(-177.048 -55.444)" fill="#e03642"/>
      <path id="Trazado_589694" data-name="Trazado 589694" d="M1945.513,344.9a.39.39,0,0,1,.229.451A.509.509,0,0,1,1945.513,344.9Z" transform="translate(-137.78 -89.101)" fill="#e03642"/>
      <path id="Trazado_589695" data-name="Trazado 589695" d="M1924.4,284.519a12.626,12.626,0,0,1-.883-1.122c-.217-.347.169-.5.351-.686,3.1-3.117,6.23-6.211,9.312-9.349.581-.591.811-.154,1.192.165.468.392.457.672.013,1.111-3.128,3.092-6.229,6.212-9.341,9.32C1924.9,284.106,1924.729,284.234,1924.4,284.519Z" transform="translate(-120.501 -32.834)" fill="#030202"/>
      <path id="Trazado_589696" data-name="Trazado 589696" d="M1926.842,273.473a2.594,2.594,0,1,1-2.672-2.543A2.609,2.609,0,0,1,1926.842,273.473Zm-2.623-.832a.873.873,0,0,0-.825.879.853.853,0,0,0,1.7.059C1925.14,273.033,1924.8,272.744,1924.219,272.641Z" transform="translate(-119.092 -31.157)" fill="#060203"/>
      <path id="Trazado_589697" data-name="Trazado 589697" d="M1958.824,305.476a2.595,2.595,0,1,1-2.643-2.568A2.608,2.608,0,0,1,1958.824,305.476Zm-1.714-.015a.872.872,0,0,0-.885-.814.854.854,0,0,0-.046,1.706C1956.723,306.389,1957.012,306.05,1957.11,305.461Z" transform="translate(-144.142 -56.206)" fill="#060203"/>
      <path id="Trazado_589698" data-name="Trazado 589698" d="M1930.51,278.831c.583.1.92.393.88.938a.853.853,0,0,1-1.7-.059A.873.873,0,0,1,1930.51,278.831Z" transform="translate(-125.382 -37.347)" fill="#ebdabf"/>
      <path id="Trazado_589699" data-name="Trazado 589699" d="M1963.4,311.748c-.1.588-.387.927-.931.892a.854.854,0,0,1,.046-1.706A.872.872,0,0,1,1963.4,311.748Z" transform="translate(-150.428 -62.493)" fill="#ebdabf"/>
    </g>
  </g>
</svg>
