<svg xmlns="http://www.w3.org/2000/svg" width="74" height="74" viewBox="0 0 74 74">
  <g id="Grupo_848431" data-name="Grupo 848431" transform="translate(-608 -2760.243)">
    <circle id="Elipse_7436" data-name="Elipse 7436" cx="37" cy="37" r="37" transform="translate(608 2760.243)" fill="#f6f6f6"/>
    <g id="Grupo_848006" data-name="Grupo 848006" transform="translate(-1825.193 2577.714)">
      <path id="Trazado_589700" data-name="Trazado 589700" d="M2448.362,225.6c-.629-.142-.811-.553-.81-1.17.014-6.288,0-12.575.015-18.863,0-1.131.551-1.647,1.729-1.667q2.069-.035,4.138,0a1.383,1.383,0,0,0,1.183-.513,18.837,18.837,0,0,1,17.378-6.538,1.61,1.61,0,0,0,1.568-.533c1.065-1.134,2.179-2.222,3.294-3.308.914-.89,1.564-.9,2.466-.02,1.442,1.409,2.848,2.854,4.289,4.264a1.011,1.011,0,0,1,.241,1.405,1.16,1.16,0,0,1-1.49-.379c-.947-.993-1.934-1.949-2.9-2.92-1.427-1.427-1.427-1.427-2.809.186q-2.973,2.935-5.945,5.871c-1.739,1.726-1.735,1.732.081,3.378a1.173,1.173,0,0,0,.305.133,4.057,4.057,0,0,1,2.9-2.569,3.986,3.986,0,0,1,4.646,2.425,3.93,3.93,0,0,1-1.814,4.986c-.506.287-.69.408-.188.918,1.437,1.461,1.413,1.485,2.875.023.15-.15.3-.3.449-.449,1.187-1.153,2.221-.959,2.842.546a2.146,2.146,0,0,0,1.711,1.53,2.093,2.093,0,0,0,2.555-.911,2.351,2.351,0,0,0-.016-2.766,2.911,2.911,0,0,0-1.359-.953c-1.327-.559-1.528-1.584-.535-2.645.216-.231.446-.449.67-.673,1.322-1.322,1.33-1.33.022-2.626-.466-.462-.925-.894-.594-1.632a1.1,1.1,0,0,1,1.506.276c.495.552,1.057,1.043,1.561,1.588a1.428,1.428,0,0,1-.013,2.167c-.629.658-1.305,1.27-2.063,2a4.337,4.337,0,0,1,2.563,2.406,3.913,3.913,0,0,1,.186,2.39,1.2,1.2,0,0,1-.112.406c-1.165,1.647-.51,3.319.03,4.921.744,2.2,1.647,4.354,2.488,6.525.664,1.716.366,2.457-1.291,3.173-1.814.784-1.824.785-1.565,2.77.173,1.331.378,2.659.57,3.988a3.132,3.132,0,0,1-3,3.792c-1.161.108-2.322.255-3.486.3-.709.03-.934.255-.919.995.052,2.545.016,5.092.023,7.638,0,.518-.014,1.038-.609,1.209-.635.183-.867-.3-1.071-.771q.008-4.9.017-9.8a1.177,1.177,0,0,1,1.134-.745c1.034-.087,2.064-.221,3.1-.336.421-.013.844,0,1.263-.043,1.743-.167,2.135-.65,1.9-2.4-.236-1.779-.515-3.551-.763-5.328-.081-.583-.258-1.187.207-1.709l-.056-.026.052.034c.784-.312,1.554-.666,2.355-.926.774-.252.92-.59.614-1.388a52.679,52.679,0,0,1-2.824-7.723c-.244-1.148-.408-1.736-1.885-1.513-1.9.288-3.152-.987-4.016-2.8-.668.716-1.222,1.355-1.825,1.944a1.514,1.514,0,0,1-2.47-.007c-.205-.19-.415-.376-.622-.564-.436-.456-.879-.905-1.306-1.37a1.456,1.456,0,0,1,.548-2.583,2.29,2.29,0,0,0,1.448-1.12,2.367,2.367,0,0,0-.94-3.41,2.419,2.419,0,0,0-3.361,1.41c-.054.13-.092.268-.154.394a1.422,1.422,0,0,1-2.286.533c-.412-.327-.779-.711-1.166-1.07-.338-.359-.678-.715-1.014-1.076a1.506,1.506,0,0,1-.024-2.4c.459-.489.961-.937,1.415-1.431a13.043,13.043,0,0,0,1.91-2.064c-5.946-.87-12.4,2.085-14.753,5.5h4.368c2.392,0,2.628.231,2.628,2.574v1.824a5.083,5.083,0,0,1,2.6-.353,4.075,4.075,0,0,1,2.45,6.534,4.287,4.287,0,0,1-5.052,1.042c0,.8.028,1.471-.009,2.139-.029.524.178.669.676.655.954-.026,1.909.006,2.863.013,1.112.761,1.24,1.153.728,2.378a2.544,2.544,0,0,0-.168,1.754,2.418,2.418,0,1,0,4.528-1.66c-.665-1.685-.134-2.486,1.661-2.5.743,0,1.485-.007,2.228,0,1.409.016,1.9.506,1.9,1.925.006,4.066-.011,8.133.014,12.2a1.932,1.932,0,0,1-.875,1.8,25.5,25.5,0,0,1-3.327.1,1,1,0,0,1-1.068-.8,1.079,1.079,0,0,1,1.186-.852,10.432,10.432,0,0,1,1.374.052c.977.161,1.16-.265,1.143-1.166-.056-3.075-.022-6.151-.021-9.227,0-2.6,0-2.6-2.627-2.379-.031,0-.058.038-.152.1a5.081,5.081,0,0,1,.246,2.97c-.169.308-.321.626-.509.921a3.995,3.995,0,0,1-7.348-2.607c.053-.446.176-.883.268-1.327-2.71-.33-2.71-.33-2.714,2.246v.106c-.006,1.912-.728,2.413-2.5,1.738a2.4,2.4,0,0,0-3.313,1.66,2.278,2.278,0,0,0,.785,2.382,2.4,2.4,0,0,0,2.677.314c1.458-.621,2.331-.04,2.354,1.544a18.177,18.177,0,0,1-.011,1.906c-.062.676.2.833.839.817,1.659-.041,3.32,0,4.98-.022.639-.01,1.112.144,1.279.823a1,1,0,0,1-1.091.8c-2.188-.054-4.378.108-6.564-.091-2.317-.211-2.486-.056-2.454,2.208,0,.176.027.351.041.527q0,4.464,0,8.929c-.152.521-.421.946-1.039.787-.6-.154-.62-.683-.62-1.2,0-3.421-.023-6.842.019-10.262.009-.755-.213-.931-.941-.92-2.821.042-5.643.025-8.464.013-1.49-.006-1.944-.477-1.951-1.972-.006-1.164.025-2.328-.012-3.491a1.043,1.043,0,0,1,.809-1.18,1.079,1.079,0,0,1,.786,1.212c-.03,1.023.01,2.049-.015,3.072-.012.5.081.772.686.765,3.213-.038,6.427-.036,9.64-.048.211.013.423.04.634.037.564-.008,1.13-.006,1.691-.058a5.633,5.633,0,0,0,.167-2.454c-.323-.451-.67.028-1.011.03-.491,0-.982.077-1.473.121l-1.9-.836c-2.023-2.2-2.058-4.012-.122-6.32a6.926,6.926,0,0,1,2.011-.906c.318.008.637.038.953.02.525-.029,1.181.555,1.452.207s.047-1.088.122-1.644c.117-.868-.316-1.028-1.044-.952-.49.051-.987.038-1.481.053a2.182,2.182,0,0,1-1.93-.848,2.231,2.231,0,0,1,.209-1.707,2.207,2.207,0,0,0-.415-2.619,2.105,2.105,0,0,0-2.55-.591,2.29,2.29,0,0,0-1.369,3.313c.614,1.5.034,2.379-1.6,2.406-.634.01-1.27.036-1.9-.008-.613-.043-.794.2-.777.789.036,1.232-.005,2.466.017,3.7C2449.154,225,2448.985,225.44,2448.362,225.6Zm13.577-16.875c.011-.28.031-.559.033-.839.013-2.49.012-2.49-2.515-2.331-3.213-.013-6.427-.008-9.639-.053-.725-.01-.68.391-.68.874q.009,4.98,0,9.96c0,2.1,0,2.082,2.12,1.975.553-.028.629-.162.479-.681a3.854,3.854,0,0,1,1.188-4.228,4.029,4.029,0,0,1,6.374,1.48,4.945,4.945,0,0,1-.132,3.416c.82,0,1.55-.011,2.28,0,.427.009.536-.211.527-.589-.021-.878-.025-1.756-.036-2.634.542-1.346,1.046-1.54,2.6-1a2.29,2.29,0,0,0,2.885-.788,2.4,2.4,0,0,0,0-2.77,2.285,2.285,0,0,0-2.881-.788C2462.986,210.275,2462.478,210.078,2461.939,208.727Z" fill="#070808"/>
      <path id="Trazado_589701" data-name="Trazado 589701" d="M2508.785,411.267q0-4.464,0-8.929,3.807,0,7.614-.006c2.51,0,5.02.023,7.529-.014.731-.011.988.2.977.959-.038,2.65-.014,5.3-.013,7.952Z" transform="translate(-48.228 -165.373)" fill="#8cc9fb"/>
      <path id="Trazado_589702" data-name="Trazado 589702" d="M2451.364,306.678c.624-.163.792-.6.781-1.2-.022-1.232.019-2.466-.017-3.7-.017-.591.164-.832.777-.789.631.044,1.268.018,1.9.008,1.635-.027,2.214-.9,1.6-2.406a2.29,2.29,0,0,1,1.369-3.313,4.059,4.059,0,0,1,.311,3.8c-.321.667.027,1.151.864,1.114.526-.023,1.054,0,1.581,0a2.182,2.182,0,0,0,1.93.848q0,1.158,0,2.316a6.93,6.93,0,0,0-2.012.906c-2.073-.12-3.137.459-3.726,2.024a3.085,3.085,0,0,0,1.154,3.646,3.5,3.5,0,0,0,2.694.649l1.9.836q0,1.162-.008,2.323c-3.214.012-6.427.011-9.64.048-.606.007-.7-.26-.686-.765.024-1.024-.016-2.049.015-3.072a1.079,1.079,0,0,0-.786-1.211Q2451.363,307.713,2451.364,306.678Z" transform="translate(-3.003 -81.075)" fill="#f74957"/>
      <path id="Trazado_589703" data-name="Trazado 589703" d="M2524.746,398.546c0-2.651-.025-5.3.013-7.952.011-.754-.246-.969-.977-.959-2.509.037-5.019.013-7.529.014q-3.807,0-7.614.006c-.014-.175-.039-.351-.041-.527-.032-2.263.137-2.418,2.454-2.208,2.186.2,4.376.037,6.564.091a1,1,0,0,0,1.091-.8h2.069a1,1,0,0,0,1.068.8,25.5,25.5,0,0,0,3.327-.1,4.078,4.078,0,0,1-.007.633c-.17,1.049.11,1.555,1.3,1.272a7.412,7.412,0,0,1,1.684-.018q-.008,4.9-.017,9.8Z" transform="translate(-48.078 -152.69)" fill="#64b8fa"/>
      <path id="Trazado_589704" data-name="Trazado 589704" d="M2584.533,202.88c1.382-1.613,1.382-1.613,2.809-.186.971.971,1.957,1.927,2.9,2.92a1.16,1.16,0,0,0,1.49.379,7.973,7.973,0,0,1,1.4,1.472c-.33.738.129,1.17.595,1.632,1.307,1.3,1.3,1.3-.022,2.626-.224.224-.454.442-.67.673-.993,1.062-.792,2.086.535,2.645a2.91,2.91,0,0,1,1.359.953,2.351,2.351,0,0,1,.016,2.766,2.093,2.093,0,0,1-2.555.911c.487-3.032.378-3.278-2.288-4.871-.543-.324-.569-.662-.145-1.087.6-.6,1.154-1.246,1.8-1.782.789-.652.644-1.115-.029-1.777C2589.307,207.761,2586.931,205.31,2584.533,202.88Z" transform="translate(-107.884 -7.331)" fill="#1fb29c"/>
      <path id="Trazado_589705" data-name="Trazado 589705" d="M2513.437,258a7.412,7.412,0,0,0-1.684.018c-1.191.283-1.471-.223-1.3-1.272a4.047,4.047,0,0,0,.007-.633,1.932,1.932,0,0,0,.875-1.8c-.025-4.066-.008-8.132-.014-12.2,0-1.42-.5-1.91-1.9-1.925-.742-.008-1.485-.005-2.228,0-1.794.01-2.326.811-1.661,2.5a2.418,2.418,0,1,1-4.528,1.66,2.544,2.544,0,0,1,.168-1.754c.512-1.225.384-1.617-.728-2.378a3.7,3.7,0,0,0,1.522-3.849,4.076,4.076,0,0,0-2.45-6.534,5.084,5.084,0,0,0-2.6.353v-1.824c0-2.342-.236-2.573-2.628-2.574h-4.368c2.355-3.416,8.806-6.371,14.753-5.5a13.021,13.021,0,0,1-1.91,2.064c-.453.493-.956.942-1.415,1.431a1.506,1.506,0,0,0,.024,2.4c.336.361.676.717,1.014,1.076-1.1,1.289-1.1,1.29.129,2.519.425.424.865.835,1.271,1.277.546.594.971.439,1.334-.177.161-.273.273-.575.433-.849a2.963,2.963,0,0,1,4.741-.626,2.288,2.288,0,0,1-1.448,1.12,1.456,1.456,0,0,0-.548,2.583c.427.465.87.914,1.306,1.37-1.4.878-1.414.974-.251,2.139.474.475.971.93,1.418,1.429.472.526.861.467,1.318-.024.6-.646,1.234-1.265,1.875-1.872.561-.532,1.057-.507,1.4.254.278.615.536,1.332,1.153,1.605,1.2.532,1.458,1.617,1.851,2.662.41,1.088.85,2.164,1.282,3.244.454,1.136,1.054,2.245.627,3.537l-.052-.034.056.026c-.949-.127-1.648.534-2.476.785a1.031,1.031,0,0,0-.775,1.109c-.017.854.259,1.665.317,2.5.117,1.7.872,3.352.325,5.09-1.032.115-2.062.249-3.1.336A1.177,1.177,0,0,0,2513.437,258Z" transform="translate(-33.366 -21.888)" fill="#8bc8f9"/>
      <path id="Trazado_589706" data-name="Trazado 589706" d="M2465.187,263.692a4.029,4.029,0,0,0-6.374-1.48,3.854,3.854,0,0,0-1.187,4.228c.15.519.073.653-.479.681-2.121.107-2.12.127-2.12-1.975q0-4.98,0-9.96c0-.483-.045-.884.68-.874,3.212.045,6.426.04,9.64.053,0,.7.006,1.4.008,2.094,0,1.621.161,1.73,1.66,1.2a4.437,4.437,0,0,1,.814-.128c.539,1.351,1.047,1.548,2.6,1.009a3.242,3.242,0,0,1,0,4.346c-1.553-.542-2.058-.348-2.6,1C2466.937,263.945,2466.116,263.095,2465.187,263.692Z" transform="translate(-5.886 -48.809)" fill="#f79443"/>
      <path id="Trazado_589707" data-name="Trazado 589707" d="M2510.165,335.554H2508.1c-.167-.679-.639-.833-1.279-.823-1.66.025-3.321-.019-4.98.022-.636.016-.9-.141-.839-.817a18.177,18.177,0,0,0,.011-1.906c-.022-1.584-.9-2.164-2.354-1.544a2.4,2.4,0,0,1-2.677-.314,2.278,2.278,0,0,1-.785-2.382,2.4,2.4,0,0,1,3.313-1.66c1.776.675,2.5.174,2.5-1.738v-.106c0-2.576,0-2.576,2.714-2.246-.092.444-.215.881-.268,1.327a3.995,3.995,0,0,0,7.348,2.607c.188-.3.34-.613.509-.921q.019,4.825.037,9.649A1.079,1.079,0,0,0,2510.165,335.554Z" transform="translate(-37.467 -102.03)" fill="#fadf63"/>
      <path id="Trazado_589708" data-name="Trazado 589708" d="M2557.7,207.455c2.4,2.429,4.774,4.88,7.206,7.274.673.662.818,1.125.029,1.777-.648.536-1.206,1.183-1.8,1.782-.424.425-.4.763.145,1.087,2.666,1.593,2.775,1.839,2.288,4.871a2.146,2.146,0,0,1-1.711-1.53c-.62-1.5-1.654-1.7-2.841-.546-.152.147-.3.3-.45.449-1.462,1.462-1.438,1.439-2.875-.023-.5-.51-.318-.63.188-.918a3.93,3.93,0,0,0,1.814-4.986,3.985,3.985,0,0,0-4.646-2.425,4.057,4.057,0,0,0-2.9,2.569,1.18,1.18,0,0,1-.306-.133c-1.815-1.646-1.82-1.651-.081-3.378Q2554.719,210.383,2557.7,207.455Z" transform="translate(-81.051 -11.906)" fill="#26ceb0"/>
      <path id="Trazado_589709" data-name="Trazado 589709" d="M2589.207,295.515c.427-1.292-.172-2.4-.627-3.537-.432-1.079-.872-2.156-1.282-3.244-.393-1.045-.65-2.13-1.851-2.662-.616-.273-.874-.99-1.153-1.605-.344-.76-.841-.785-1.4-.254-.641.607-1.274,1.226-1.875,1.872-.456.491-.846.55-1.318.024-.448-.5-.944-.954-1.418-1.429-1.163-1.165-1.151-1.261.251-2.139.208.188.417.374.622.564a1.514,1.514,0,0,0,2.47.007c.6-.59,1.157-1.229,1.825-1.944.864,1.809,2.111,3.084,4.016,2.8,1.477-.223,1.641.365,1.885,1.513a52.652,52.652,0,0,0,2.824,7.723c.306.8.161,1.137-.614,1.388C2590.761,294.849,2589.991,295.2,2589.207,295.515Z" transform="translate(-102.301 -69.96)" fill="#62b6f7"/>
      <path id="Trazado_589710" data-name="Trazado 589710" d="M2570.469,334.719q-.019-4.825-.037-9.649a5.083,5.083,0,0,0-.246-2.97c.093-.064.121-.1.152-.1,2.627-.219,2.627-.219,2.627,2.379,0,3.076-.035,6.152.021,9.227.016.9-.167,1.327-1.143,1.166A10.434,10.434,0,0,0,2570.469,334.719Z" transform="translate(-96.585 -102.048)" fill="#ecbc2b"/>
      <path id="Trazado_589711" data-name="Trazado 589711" d="M2618.171,358.094c.546-1.737-.208-3.394-.325-5.09-.058-.837-.334-1.648-.317-2.5a1.031,1.031,0,0,1,.775-1.109c.829-.251,1.527-.912,2.476-.785-.464.521-.288,1.126-.207,1.709.248,1.777.528,3.55.763,5.328.233,1.755-.159,2.238-1.9,2.4C2619.016,358.092,2618.593,358.082,2618.171,358.094Z" transform="translate(-133.87 -123.061)" fill="#62b6f7"/>
      <path id="Trazado_589712" data-name="Trazado 589712" d="M2553.5,250.156a2.964,2.964,0,0,0-4.741.626c-.16.274-.272.576-.433.849-.363.616-.789.771-1.334.177-.406-.442-.846-.852-1.271-1.277-1.229-1.229-1.229-1.229-.129-2.519.387.359.754.743,1.167,1.07a1.422,1.422,0,0,0,2.286-.533c.063-.126.1-.264.154-.394a2.419,2.419,0,0,1,3.361-1.41A2.367,2.367,0,0,1,2553.5,250.156Z" transform="translate(-76.581 -42.647)" fill="#62b6f7"/>
      <path id="Trazado_589713" data-name="Trazado 589713" d="M2479.665,343.845a3.5,3.5,0,0,1-2.694-.649,3.085,3.085,0,0,1-1.154-3.646c.589-1.566,1.653-2.144,3.726-2.024C2477.607,339.834,2477.642,341.648,2479.665,343.845Z" transform="translate(-22.097 -114.333)" fill="#f32e3f"/>
      <path id="Trazado_589714" data-name="Trazado 589714" d="M2527.848,296.544a3.7,3.7,0,0,1-1.522,3.849c-.954-.008-1.909-.039-2.863-.013-.5.014-.705-.131-.676-.655.037-.669.009-1.34.009-2.139A4.287,4.287,0,0,0,2527.848,296.544Z" transform="translate(-59.253 -82.069)" fill="#61b4f4"/>
      <path id="Trazado_589715" data-name="Trazado 589715" d="M2484.32,299.427c-.527,0-1.055-.022-1.581,0-.837.037-1.184-.446-.864-1.114a4.059,4.059,0,0,0-.311-3.8,2.105,2.105,0,0,1,2.55.591,2.206,2.206,0,0,1,.415,2.619A2.231,2.231,0,0,0,2484.32,299.427Z" transform="translate(-26.789 -80.303)" fill="#f32e3f"/>
      <path id="Trazado_589716" data-name="Trazado 589716" d="M2527.525,277.857a3.242,3.242,0,0,0,0-4.346,2.285,2.285,0,0,1,2.881.788,2.4,2.4,0,0,1,0,2.77A2.29,2.29,0,0,1,2527.525,277.857Z" transform="translate(-62.987 -63.775)" fill="#f37421"/>
      <path id="Trazado_589717" data-name="Trazado 589717" d="M2502.38,297.672c.929-.6,1.75.253,2.638.2.011.878.014,1.756.036,2.634.009.378-.1.6-.527.589-.729-.015-1.46,0-2.279,0A4.945,4.945,0,0,0,2502.38,297.672Z" transform="translate(-43.079 -82.789)" fill="#f37421"/>
      <path id="Trazado_589718" data-name="Trazado 589718" d="M2506.084,257.522a4.44,4.44,0,0,0-.814.128c-1.5.526-1.658.417-1.66-1.2,0-.7-.005-1.4-.008-2.094,2.527-.158,2.528-.158,2.515,2.331C2506.116,256.963,2506.1,257.243,2506.084,257.522Z" transform="translate(-44.146 -48.795)" fill="#f37421"/>
      <path id="Trazado_589719" data-name="Trazado 589719" d="M2503.6,372.314q0-1.162.008-2.323c.491-.044.981-.117,1.473-.121.341,0,.688-.481,1.011-.03a5.633,5.633,0,0,1-.167,2.454c-.561.051-1.127.05-1.691.058C2504.027,372.354,2503.815,372.327,2503.6,372.314Z" transform="translate(-44.147 -139.642)" fill="#ef2d3d"/>
      <path id="Trazado_589720" data-name="Trazado 589720" d="M2503.612,324.474q0-1.158,0-2.316c.494-.016.991,0,1.481-.053.728-.076,1.161.083,1.044.952-.075.556.157,1.284-.122,1.644s-.927-.236-1.452-.207C2504.249,324.512,2503.93,324.482,2503.612,324.474Z" transform="translate(-44.154 -102.187)" fill="#ef2d3d"/>
    </g>
  </g>
</svg>
