<svg xmlns="http://www.w3.org/2000/svg" width="74" height="74" viewBox="0 0 74 74">
  <g id="Grupo_848432" data-name="Grupo 848432" transform="translate(-918 -2760.243)">
    <circle id="Elipse_7434" data-name="Elipse 7434" cx="37" cy="37" r="37" transform="translate(918 2760.243)" fill="#f6f6f6"/>
    <g id="Grupo_848002" data-name="Grupo 848002" transform="translate(933.026 2771.641)">
      <path id="Trazado_589666" data-name="Trazado 589666" d="M1449.129,242.781c.023,3.891.128,7.791-.813,11.612-2.545,10.326-8.738,17.631-18.333,22.122a5.876,5.876,0,0,1-5.278-.005c-10.37-4.913-16.757-12.912-18.716-24.283-.807-4.683-.347-9.429-.409-14.146-.045-3.359-.4-2.79,2.771-3.74a80.048,80.048,0,0,0,17.682-7.678,2.276,2.276,0,0,1,2.638,0A81.952,81.952,0,0,0,1447.6,234.7c1.475.42,1.531.5,1.532,2.089Q1449.13,239.786,1449.129,242.781Zm-41.4.616a48.146,48.146,0,0,0,.446,8.949c1.973,10.31,7.821,17.6,17.234,22.127a4.2,4.2,0,0,0,3.909-.017c9.937-4.837,15.912-12.616,17.389-23.635.6-4.457.155-8.967.266-13.451.015-.608-.345-.7-.768-.828a85.4,85.4,0,0,1-18.2-7.754,1.119,1.119,0,0,0-1.271-.03,82,82,0,0,1-18.288,7.79.833.833,0,0,0-.729.964C1407.755,239.473,1407.732,241.435,1407.732,243.4Z" transform="translate(-1405.504 -226.242)" fill="#050607"/>
      <path id="Trazado_589667" data-name="Trazado 589667" d="M1416.6,252.744c0-1.962.023-3.924-.014-5.884a.833.833,0,0,1,.729-.964,81.993,81.993,0,0,0,18.288-7.79,1.119,1.119,0,0,1,1.271.03,85.4,85.4,0,0,0,18.2,7.754c.423.124.784.22.768.828-.11,4.484.331,8.993-.266,13.451-1.477,11.019-7.452,18.8-17.389,23.635a4.2,4.2,0,0,1-3.909.017c-9.413-4.525-15.262-11.817-17.234-22.127A48.136,48.136,0,0,1,1416.6,252.744Zm9.816,5.053a3.5,3.5,0,0,0-2.354,6.071q2.913,2.941,5.851,5.856,2.851,2.837,5.724-.029,4.307-4.3,8.6-8.6c1.433-1.434,2.887-2.85,4.288-4.316a3.281,3.281,0,0,0,.738-3.6,3.331,3.331,0,0,0-2.907-2.262,3.654,3.654,0,0,0-3.1,1.279c-3.283,3.3-6.589,6.576-9.859,9.888-.476.482-.747.555-1.239.022-1.014-1.1-2.1-2.131-3.162-3.184A3.524,3.524,0,0,0,1426.416,257.8Zm-.822-12.43a2.22,2.22,0,0,0-.365.068c-1.94.679-3.881,1.353-5.813,2.053a1.087,1.087,0,0,0-.74,1.08c-.006,1.327-.022,2.655.007,3.982a1.074,1.074,0,1,0,2.147.015,11,11,0,0,0-.006-1.988c-.143-1.011.252-1.462,1.218-1.734,1.336-.377,2.629-.912,3.929-1.408a1.056,1.056,0,0,0-.377-2.067Zm16.377,33.581a1.445,1.445,0,0,0,.918-.4,29.551,29.551,0,0,0,6.194-6.576c.433-.639.7-1.3-.073-1.818s-1.295-.025-1.72.611a26.172,26.172,0,0,1-4.186,4.793c-.589.536-1.218,1.029-1.81,1.562a.985.985,0,0,0-.231,1.189A1,1,0,0,0,1441.971,278.948Zm-12.136-33.832a1.077,1.077,0,0,0-1.055-1.042,1,1,0,0,0-1.108,1.02.983.983,0,0,0,1.019,1.1C1429.337,246.216,1429.711,245.817,1429.835,245.116Zm10.623,34.542a1,1,0,0,0-1.07-1.068,1.031,1.031,0,0,0-1.1,1.043.975.975,0,0,0,1.011,1.1A1.076,1.076,0,0,0,1440.458,279.658Z" transform="translate(-1414.372 -235.59)" fill="#84bd4e"/>
      <path id="Trazado_589668" data-name="Trazado 589668" d="M1451.817,309.735a3.527,3.527,0,0,1,2.58,1.118c1.062,1.053,2.148,2.086,3.162,3.184.493.533.764.46,1.24-.022,3.27-3.312,6.576-6.589,9.859-9.888a3.654,3.654,0,0,1,3.1-1.279,3.331,3.331,0,0,1,2.907,2.262,3.28,3.28,0,0,1-.738,3.6c-1.4,1.466-2.854,2.881-4.288,4.316q-4.3,4.3-8.6,8.6-2.872,2.865-5.724.029-2.934-2.92-5.851-5.856a3.5,3.5,0,0,1,2.354-6.071Zm20.943-3.358a1.335,1.335,0,0,0-1.916-1.246,3.741,3.741,0,0,0-.836.695q-5.3,5.283-10.583,10.576c-1.083,1.082-1.433,1.078-2.537-.023-1.319-1.314-2.626-2.64-3.956-3.944a1.394,1.394,0,0,0-2.034-.184c-.611.581-.576,1.361.153,2.1q2.982,3.014,6,6a1.356,1.356,0,0,0,2.242-.008q6.465-6.442,12.912-12.9A1.638,1.638,0,0,0,1472.76,306.377Z" transform="translate(-1439.773 -287.529)" fill="#030404"/>
      <path id="Trazado_589669" data-name="Trazado 589669" d="M1433.93,275.2a1.056,1.056,0,0,1,.377,2.067c-1.3.5-2.593,1.031-3.93,1.408-.965.272-1.361.723-1.218,1.734a10.979,10.979,0,0,1,.006,1.988,1.074,1.074,0,1,1-2.147-.015c-.029-1.327-.014-2.655-.007-3.982a1.086,1.086,0,0,1,.74-1.08c1.932-.7,3.874-1.374,5.813-2.053A2.233,2.233,0,0,1,1433.93,275.2Z" transform="translate(-1422.708 -265.418)" fill="#040605"/>
      <path id="Trazado_589670" data-name="Trazado 589670" d="M1539.633,407.24a1,1,0,0,1-.909-.634.985.985,0,0,1,.231-1.189c.592-.533,1.221-1.026,1.81-1.562a26.169,26.169,0,0,0,4.186-4.793c.426-.637.952-1.129,1.721-.611s.506,1.179.073,1.818a29.557,29.557,0,0,1-6.194,6.576A1.446,1.446,0,0,1,1539.633,407.24Z" transform="translate(-1512.034 -363.882)" fill="#030504"/>
      <path id="Trazado_589671" data-name="Trazado 589671" d="M1474.252,269.763c-.124.7-.5,1.1-1.144,1.079a.983.983,0,0,1-1.019-1.1,1,1,0,0,1,1.108-1.02A1.077,1.077,0,0,1,1474.252,269.763Z" transform="translate(-1458.789 -260.236)" fill="#080c07"/>
      <path id="Trazado_589672" data-name="Trazado 589672" d="M1527.419,442.6a1.076,1.076,0,0,1-1.156,1.077.975.975,0,0,1-1.011-1.1,1.031,1.031,0,0,1,1.1-1.043A1.006,1.006,0,0,1,1527.419,442.6Z" transform="translate(-1501.333 -398.534)" fill="#070a06"/>
      <path id="Trazado_589673" data-name="Trazado 589673" d="M1481.348,315.032a1.639,1.639,0,0,1-.558,1.057q-6.457,6.451-12.912,12.9a1.357,1.357,0,0,1-2.242.008q-3.016-2.979-6-5.995c-.73-.738-.765-1.517-.153-2.1a1.394,1.394,0,0,1,2.034.184c1.329,1.3,2.637,2.63,3.955,3.944,1.1,1.1,1.454,1.1,2.537.023q5.292-5.288,10.584-10.576a3.747,3.747,0,0,1,.836-.695A1.335,1.335,0,0,1,1481.348,315.032Z" transform="translate(-1448.361 -296.184)" fill="#f7c881"/>
    </g>
  </g>
</svg>
