<svg xmlns="http://www.w3.org/2000/svg" width="101" height="101" viewBox="0 0 101 101"><g transform="translate(0 -5514.073)"><g transform="translate(0 5514.073)" fill="#f5f5f5" stroke="#fff" stroke-width="4"><circle cx="50.5" cy="50.5" r="50.5" stroke="none"/><circle cx="50.5" cy="50.5" r="48.5" fill="none"/></g><g transform="translate(-11 -121.071)"><path d="M-761.46,223.812a1.408,1.408,0,0,1-1.585,1.246c-2.582-.022-5.165-.01-7.747-.007-.9,0-1.473-.417-1.459-1.328.052-3.328-.307-6.676.182-9.982a15,15,0,0,1,14.777-12.862c2.124-.036,4.25-.049,6.372.014.844.025.975-.266,1.036-1.044a2.736,2.736,0,0,0-1.33-2.782,8.876,8.876,0,0,1-3.341-4.269,2.055,2.055,0,0,0-2.344-1.536,6.684,6.684,0,0,1-6.635-7.862,5.963,5.963,0,0,1,1.691-3.407,2,2,0,0,0,.6-1.539,17.752,17.752,0,0,1,17.78-17.406,17.75,17.75,0,0,1,17.687,17.373,2.361,2.361,0,0,0,.657,1.64,6.378,6.378,0,0,1,1.175,7.091,6.255,6.255,0,0,1-6.022,4.1,2.259,2.259,0,0,0-2.544,1.633,10.579,10.579,0,0,1-3.947,4.728,3.95,3.95,0,0,0-.607,3.078c.239.325.618.17.934.178,2.622.067,5.251-.147,7.867.123a15.028,15.028,0,0,1,13.5,14.712c.038,2.54.017,5.081.007,7.622-.005,1.323-.394,1.724-1.7,1.724q-17.307.009-34.614.015a1.5,1.5,0,0,1-1.716-1.256,1.483,1.483,0,0,1,1.707-1.271c1.833.034,3.666.008,5.5.01.422,0,.827.067.824-.6-.02-3.646-.01-7.293-.01-10.92-.151-.024-.207-.05-.224-.034q-.9.864-1.794,1.736c-1.229,1.2-1.741,1.178-2.791-.188-2.133-2.773-4.272-5.541-6.373-8.337a1.772,1.772,0,0,0-1.66-.825,12.569,12.569,0,0,0-11.955,10.507c-.433,2.646-.1,5.323-.206,7.984-.03.719.393.678.874.676,1.916-.008,3.833.016,5.749-.011C-762.223,222.524-761.622,222.856-761.46,223.812ZM-747,199.357c-.627.459-.643,2.1-.029,2.977,1.01,1.032,2.035,2.05,3.023,3.1.372.4.621.4.993,0,.988-1.052,2.013-2.07,3.024-3.1.806-.868.311-1.906.358-2.869.009-.188-.226-.176-.388-.109A12.76,12.76,0,0,1-747,199.357Zm-5.756-18.081-.258.008c-.407.14-.233.488-.234.741-.014,1.956-.04,3.913,0,5.869a9.737,9.737,0,0,0,6.985,9.059A9.749,9.749,0,0,0-735.419,193c.168-.254.494-.484.287-.918-.772,0-1.561.043-2.344-.011a2.113,2.113,0,0,0-2.235,1.061c-.965,1.5-3.345,1.93-5.224,1.195a3.693,3.693,0,0,1-2.387-3.721,3.554,3.554,0,0,1,2.471-3.277c1.792-.51,3.761-.641,4.927,1.01a2.993,2.993,0,0,0,3.04,1.241,10.068,10.068,0,0,1,1.746.011c1.088.158,1.368-.378,1.36-1.33-.017-2-.041-4,.033-5.993.033-.892-.248-1.136-1.11-1.081a7.451,7.451,0,0,1-6.423-2.393c-.488-.551-.764-.188-1.124.069a11.959,11.959,0,0,1-6.372,2.284C-750.1,181.223-751.431,181.235-752.76,181.276Zm10.83,29.542-.33.217c0,3.576.019,7.152-.016,10.727-.007.72.3.793.893.792q11.616-.021,23.232.006c.722,0,.916-.218.9-.917-.045-1.872,0-3.747-.019-5.62a12.581,12.581,0,0,0-11.736-12.614,2.167,2.167,0,0,0-2.213.954c-2.042,2.785-4.17,5.507-6.277,8.244-1,1.292-1.543,1.325-2.7.148C-740.806,212.139-741.355,211.465-741.929,210.817ZM-758.7,177.227c-.053.72-.053.718.695.639a3.488,3.488,0,0,1,.869-.065c1.064.163,1.446-.256,1.636-1.338a12.156,12.156,0,0,1,15.876-9.252,11.891,11.891,0,0,1,8.168,9.564c.111.579.137,1.04,1,1.041,2.379,0,2.379.06,1.808-2.378-.038-.162-.076-.324-.117-.486A15.31,15.31,0,0,0-744.8,163.591C-752.045,164.2-758.185,170.224-758.7,177.227Zm23.138,1.441c1.953.065,1.94.068,1.6-1.718a9.628,9.628,0,0,0-2.132-4.452,9.582,9.582,0,0,0-10.286-2.984,9.525,9.525,0,0,0-6.811,8.141c-.063.39-.31,1.026.454,1.037,3.086.047,6.19.168,8.859-1.844a25.581,25.581,0,0,0,2.645-2.468c.6-.6,1.253-.915,1.965-.286a1.169,1.169,0,0,1-.091,1.936c-.538.475-.363.8.05,1.218A4.769,4.769,0,0,0-735.561,178.667Zm-20.206,5.923c0-1.162-.017-2.324.008-3.486.011-.526-.055-.807-.715-.839a4.307,4.307,0,0,0-4.643,4.285,4.314,4.314,0,0,0,4.669,4.262c.558-.034.7-.217.69-.736C-755.787,186.915-755.767,185.753-755.767,184.591Zm24.506-.056c0,1.162.025,2.324-.01,3.485-.018.578.151.771.761.793a4.306,4.306,0,0,0,4.6-4.206,4.288,4.288,0,0,0-4.586-4.337c-.594.02-.795.183-.775.78C-731.233,182.21-731.26,183.373-731.26,184.534ZM-753.3,203.571c1.507,1.969,3.042,3.913,4.5,5.914.555.761.874.937,1.616.149,1.869-1.985,1.8-1.845,0-3.921C-748.822,203.826-750.6,202.77-753.3,203.571Zm19.586-.025a5.376,5.376,0,0,0-5.966,1.992c-2.032,2.348-2.161,2.237.128,4.346a1.96,1.96,0,0,1,.178.175c.229.274.425.343.685,0C-737.043,207.891-735.385,205.731-733.713,203.545Zm-9.351-11.469c.832.079,1.66-.146,1.683-1.211s-.781-1.305-1.715-1.3c-.917.01-1.714.194-1.7,1.3C-744.787,191.9-744.031,192.117-743.064,192.077Z" transform="translate(805.04 5492.59)" fill="#050505"/><path d="M-753.856,350.7c-.162-.956-.763-1.288-1.688-1.276-1.916.027-3.833,0-5.749.011-.481,0-.9.043-.874-.676.11-2.66-.228-5.338.206-7.984a12.569,12.569,0,0,1,11.955-10.507,1.772,1.772,0,0,1,1.66.825c2.1,2.8,4.24,5.564,6.373,8.337,1.05,1.365,1.562,1.392,2.791.188q.892-.874,1.794-1.736c.017-.016.073.009.224.034,0,3.627-.01,7.274.01,10.92,0,.664-.4.6-.824.6-1.833,0-3.666.023-5.5-.01a1.483,1.483,0,0,0-1.707,1.271l-3.053-.058c-.153-.705-.529-1.207-1.3-1.189s-1.122.543-1.251,1.249Z" transform="translate(797.435 5365.7)" fill="#9fe2a4"/><path d="M-716.627,408.194c.129-.706.478-1.231,1.252-1.249s1.149.484,1.3,1.189c-.224.609-.367,1.3-1.229,1.3C-716.115,409.425-716.473,408.914-716.627,408.194Z" transform="translate(763.271 5308.205)" fill="#0c0e0c"/><path d="M-651.837,337.751c.575.648,1.123,1.322,1.731,1.938,1.16,1.177,1.708,1.144,2.7-.148,2.107-2.737,4.236-5.459,6.278-8.244a2.167,2.167,0,0,1,2.213-.954,12.581,12.581,0,0,1,11.736,12.614c.017,1.873-.025,3.747.019,5.62.017.7-.177.919-.9.917q-11.616-.038-23.232-.006c-.589,0-.9-.072-.893-.792.035-3.575.016-7.151.016-10.727Zm12.962,4.981c-1,0-1.99-.016-2.985.005a1.181,1.181,0,0,0-1.318,1.192,1.185,1.185,0,0,0,1.335,1.3c1.907.021,3.815.012,5.722,0,.831,0,1.392-.421,1.386-1.258s-.574-1.238-1.4-1.241C-637.051,342.728-637.963,342.731-638.875,342.732Z" transform="translate(714.947 5365.657)" fill="#9ee2a3"/><path d="M-695.678,233.611c1.329-.041,2.659-.053,3.986-.128a11.959,11.959,0,0,0,6.372-2.284c.359-.256.636-.62,1.124-.069a7.451,7.451,0,0,0,6.423,2.393c.862-.055,1.143.189,1.11,1.081-.074,2-.05,3.995-.033,5.993.008.951-.272,1.488-1.36,1.33a10.067,10.067,0,0,0-1.746-.011,2.993,2.993,0,0,1-3.04-1.241c-1.166-1.65-3.135-1.52-4.927-1.01a3.554,3.554,0,0,0-2.471,3.277,3.693,3.693,0,0,0,2.387,3.721c1.879.735,4.259.31,5.224-1.195a2.113,2.113,0,0,1,2.235-1.061c.783.054,1.573.011,2.344.011.206.434-.119.664-.287.918a9.749,9.749,0,0,1-10.845,3.951,9.737,9.737,0,0,1-6.985-9.059c-.043-1.955-.016-3.913,0-5.869,0-.253-.173-.6.234-.741C-695.845,233.794-695.759,233.784-695.678,233.611Z" transform="translate(747.958 5440.254)" fill="#efc6a4"/><path d="M-717.9,184.692c.514-7,6.654-13.025,13.9-13.635a15.31,15.31,0,0,1,16.039,11.359c.041.161.079.323.117.486.572,2.439.572,2.379-1.808,2.378-.868,0-.894-.462-1-1.041a11.891,11.891,0,0,0-8.168-9.564,12.156,12.156,0,0,0-15.876,9.252c-.19,1.082-.572,1.5-1.636,1.338a3.489,3.489,0,0,0-.869.065C-717.949,185.41-717.948,185.412-717.9,184.692Z" transform="translate(764.236 5485.125)" fill="#f1f3f4"/><path d="M-678.454,202.657a4.769,4.769,0,0,1-3.747-1.419c-.413-.416-.588-.743-.05-1.218a1.169,1.169,0,0,0,.091-1.936c-.713-.629-1.367-.314-1.965.286a25.579,25.579,0,0,1-2.645,2.468c-2.669,2.012-5.773,1.891-8.859,1.844-.764-.012-.517-.647-.454-1.037a9.524,9.524,0,0,1,6.811-8.141,9.582,9.582,0,0,1,10.286,2.984,9.628,9.628,0,0,1,2.132,4.452C-676.514,202.725-676.5,202.722-678.454,202.657Z" transform="translate(747.932 5468.6)" fill="#6b8fa8"/><path d="M-722.156,242.181c0,1.162-.02,2.325.009,3.486.013.519-.132.7-.69.736a4.314,4.314,0,0,1-4.669-4.262,4.307,4.307,0,0,1,4.643-4.285c.66.032.726.313.715.839C-722.173,239.856-722.156,241.019-722.156,242.181Z" transform="translate(771.429 5435)" fill="#fa7b94"/><path d="M-608.187,242.146c0-1.162.028-2.325-.011-3.485-.02-.6.181-.76.775-.78a4.288,4.288,0,0,1,4.586,4.337,4.306,4.306,0,0,1-4.6,4.206c-.61-.022-.778-.215-.761-.793C-608.162,244.47-608.187,243.307-608.187,242.146Z" transform="translate(681.966 5434.979)" fill="#fa7b94"/><path d="M-664.163,317.169c-1.01,1.031-2.035,2.049-3.024,3.1-.372.4-.621.4-.993,0-.988-1.052-2.013-2.07-3.023-3.1l.029-2.977a12.759,12.759,0,0,0,6.981,0Q-664.177,315.68-664.163,317.169Z" transform="translate(729.208 5377.756)" fill="#ebb486"/><path d="M-696.249,330.226c2.7-.8,4.477.255,6.113,2.141,1.8,2.076,1.872,1.937,0,3.921-.742.788-1.061.612-1.616-.149C-693.207,334.139-694.742,332.2-696.249,330.226Z" transform="translate(747.99 5365.935)" fill="#f4f4f4"/><path d="M-640.5,330.233c-1.672,2.186-3.331,4.345-4.976,6.515-.259.341-.456.272-.685,0a1.96,1.96,0,0,0-.178-.175c-2.288-2.109-2.16-2-.128-4.346A5.376,5.376,0,0,1-640.5,330.233Z" transform="translate(711.828 5365.902)" fill="#f4f4f4"/><path d="M-660.532,277.575c-.967.04-1.723-.176-1.734-1.208-.012-1.1.785-1.289,1.7-1.3.934-.01,1.738.235,1.715,1.3S-659.7,277.654-660.532,277.575Z" transform="translate(722.508 5407.092)" fill="#f27891"/><path d="M-672.524,314.191q-.015,1.489-.029,2.977C-673.166,316.293-673.15,314.65-672.524,314.191Z" transform="translate(730.559 5377.756)" fill="#c39670"/><path d="M-643.149,317.034q-.015-1.489-.03-2.978c.162-.067.4-.079.388.109C-642.838,315.129-642.343,316.167-643.149,317.034Z" transform="translate(708.195 5377.891)" fill="#c39670"/><path d="M-694.869,241.911c-.081.173-.167.183-.258.008Z" transform="translate(747.148 5431.955)" fill="#fed4af"/><path d="M-611.882,379.9c.912,0,1.824,0,2.736,0,.83,0,1.4.4,1.4,1.241s-.555,1.254-1.386,1.258c-1.907.007-3.815.016-5.722,0a1.184,1.184,0,0,1-1.335-1.3,1.181,1.181,0,0,1,1.318-1.192C-613.873,379.885-612.877,379.9-611.882,379.9Z" transform="translate(687.955 5328.487)" fill="#030503"/></g></g></svg>